<?xml version="1.0" encoding="utf-8" standalone="no"?>
<!DOCTYPE svg PUBLIC "-//W3C//DTD SVG 1.1//EN"
  "http://www.w3.org/Graphics/SVG/1.1/DTD/svg11.dtd">
<svg xmlns:xlink="http://www.w3.org/1999/xlink" width="517.614615pt" height="280.512pt" viewBox="0 0 517.614615 280.512" xmlns="http://www.w3.org/2000/svg" version="1.1">
 <metadata>
  <rdf:RDF xmlns:dc="http://purl.org/dc/elements/1.1/" xmlns:cc="http://creativecommons.org/ns#" xmlns:rdf="http://www.w3.org/1999/02/22-rdf-syntax-ns#">
   <cc:Work>
    <dc:type rdf:resource="http://purl.org/dc/dcmitype/StillImage"/>
    <dc:date>2025-02-17T19:32:42.734236</dc:date>
    <dc:format>image/svg+xml</dc:format>
    <dc:creator>
     <cc:Agent>
      <dc:title>Matplotlib v3.9.3, https://matplotlib.org/</dc:title>
     </cc:Agent>
    </dc:creator>
   </cc:Work>
  </rdf:RDF>
 </metadata>
 <defs>
  <style type="text/css">*{stroke-linejoin: round; stroke-linecap: butt}</style>
 </defs>
 <g id="figure_1">
  <g id="patch_1">
   <path d="M 0 280.512 
L 517.614615 280.512 
L 517.614615 0 
L 0 0 
z
" style="fill: #ffffff"/>
  </g>
  <g id="axes_1">
   <g id="PolyCollection_1">
    <defs>
     <path id="meaf56cef5f" d="M 96.480035 -23.003586 
L 96.480035 -19.296 
L 102.723392 -19.296 
L 102.723392 -23.003586 
L 102.723392 -23.003586 
L 96.480035 -23.003586 
z
" style="stroke: #b9db57; stroke-opacity: 0.99"/>
    </defs>
    <g clip-path="url(#p53a9a766d6)">
     <use xlink:href="#meaf56cef5f" x="0" y="280.512" style="fill: #b9db57; fill-opacity: 0.99; stroke: #b9db57; stroke-opacity: 0.99"/>
    </g>
   </g>
   <g id="PolyCollection_2">
    <defs>
     <path id="m44c66cea0c" d="M 96.480035 -33.894621 
L 96.480035 -33.083586 
L 102.723392 -33.083586 
L 102.723392 -33.894621 
L 102.723392 -33.894621 
L 96.480035 -33.894621 
z
" style="stroke: #5784db; stroke-opacity: 0.99"/>
    </defs>
    <g clip-path="url(#p53a9a766d6)">
     <use xlink:href="#m44c66cea0c" x="0" y="280.512" style="fill: #5784db; fill-opacity: 0.99; stroke: #5784db; stroke-opacity: 0.99"/>
    </g>
   </g>
   <g id="PolyCollection_3">
    <defs>
     <path id="m19b74b7277" d="M 96.480035 -237.638069 
L 96.480035 -43.974621 
L 102.723392 -43.974621 
L 102.723392 -237.638069 
L 102.723392 -237.638069 
L 96.480035 -237.638069 
z
" style="stroke: #c957db; stroke-opacity: 0.99"/>
    </defs>
    <g clip-path="url(#p53a9a766d6)">
     <use xlink:href="#m19b74b7277" x="0" y="280.512" style="fill: #c957db; fill-opacity: 0.99; stroke: #c957db; stroke-opacity: 0.99"/>
    </g>
   </g>
   <g id="PolyCollection_4">
    <defs>
     <path id="m6c0100c1c8" d="M 96.480035 -250.498759 
L 96.480035 -247.718069 
L 102.723392 -247.718069 
L 102.723392 -250.498759 
L 102.723392 -250.498759 
L 96.480035 -250.498759 
z
" style="stroke: #57db94; stroke-opacity: 0.99"/>
    </defs>
    <g clip-path="url(#p53a9a766d6)">
     <use xlink:href="#m6c0100c1c8" x="0" y="280.512" style="fill: #57db94; fill-opacity: 0.99; stroke: #57db94; stroke-opacity: 0.99"/>
    </g>
   </g>
   <g id="PolyCollection_5">
    <defs>
     <path id="m5a3c20a5f3" d="M 96.480035 -261.216 
L 96.480035 -260.578759 
L 102.723392 -260.578759 
L 102.723392 -261.216 
L 102.723392 -261.216 
L 96.480035 -261.216 
z
" style="stroke: #db5f57; stroke-opacity: 0.99"/>
    </defs>
    <g clip-path="url(#p53a9a766d6)">
     <use xlink:href="#m5a3c20a5f3" x="0" y="280.512" style="fill: #db5f57; fill-opacity: 0.99; stroke: #db5f57; stroke-opacity: 0.99"/>
    </g>
   </g>
   <g id="PolyCollection_6">
    <defs>
     <path id="m9471ba2ae2" d="M 414.891224 -23.698759 
L 414.891224 -19.296 
L 421.13458 -19.296 
L 421.13458 -23.698759 
L 421.13458 -23.698759 
L 414.891224 -23.698759 
z
" style="stroke: #b9db57; stroke-opacity: 0.99"/>
    </defs>
    <g clip-path="url(#p53a9a766d6)">
     <use xlink:href="#m9471ba2ae2" x="0" y="280.512" style="fill: #b9db57; fill-opacity: 0.99; stroke: #b9db57; stroke-opacity: 0.99"/>
    </g>
   </g>
   <g id="PolyCollection_7">
    <defs>
     <path id="m73d0dc353c" d="M 414.891224 -34.589793 
L 414.891224 -33.778759 
L 421.13458 -33.778759 
L 421.13458 -34.589793 
L 421.13458 -34.589793 
L 414.891224 -34.589793 
z
" style="stroke: #5784db; stroke-opacity: 0.99"/>
    </defs>
    <g clip-path="url(#p53a9a766d6)">
     <use xlink:href="#m73d0dc353c" x="0" y="280.512" style="fill: #5784db; fill-opacity: 0.99; stroke: #5784db; stroke-opacity: 0.99"/>
    </g>
   </g>
   <g id="PolyCollection_8">
    <defs>
     <path id="m40e198d9a1" d="M 414.891224 -238.854621 
L 414.891224 -44.669793 
L 421.13458 -44.669793 
L 421.13458 -238.854621 
L 421.13458 -238.854621 
L 414.891224 -238.854621 
z
" style="stroke: #c957db; stroke-opacity: 0.99"/>
    </defs>
    <g clip-path="url(#p53a9a766d6)">
     <use xlink:href="#m40e198d9a1" x="0" y="280.512" style="fill: #c957db; fill-opacity: 0.99; stroke: #c957db; stroke-opacity: 0.99"/>
    </g>
   </g>
   <g id="PolyCollection_9">
    <defs>
     <path id="m3dddd2fe68" d="M 414.891224 -250.55669 
L 414.891224 -248.934621 
L 421.13458 -248.934621 
L 421.13458 -250.55669 
L 421.13458 -250.55669 
L 414.891224 -250.55669 
z
" style="stroke: #57db94; stroke-opacity: 0.99"/>
    </defs>
    <g clip-path="url(#p53a9a766d6)">
     <use xlink:href="#m3dddd2fe68" x="0" y="280.512" style="fill: #57db94; fill-opacity: 0.99; stroke: #57db94; stroke-opacity: 0.99"/>
    </g>
   </g>
   <g id="PolyCollection_10">
    <defs>
     <path id="m16b4317a66" d="M 414.891224 -261.216 
L 414.891224 -260.63669 
L 421.13458 -260.63669 
L 421.13458 -261.216 
L 421.13458 -261.216 
L 414.891224 -261.216 
z
" style="stroke: #db5f57; stroke-opacity: 0.99"/>
    </defs>
    <g clip-path="url(#p53a9a766d6)">
     <use xlink:href="#m16b4317a66" x="0" y="280.512" style="fill: #db5f57; fill-opacity: 0.99; stroke: #db5f57; stroke-opacity: 0.99"/>
    </g>
   </g>
   <g id="PolyCollection_11">
    <defs>
     <path id="m320d78badd" d="M 102.723392 -21.729103 
L 102.723392 -19.296 
L 107.840897 -19.296 
L 112.958402 -19.296 
L 118.075908 -19.296 
L 123.193413 -19.296 
L 128.310919 -19.296 
L 133.428424 -19.296 
L 138.54593 -19.296 
L 143.663435 -19.296 
L 148.780941 -19.296 
L 153.898446 -19.296 
L 159.015952 -19.296 
L 164.133457 -19.296 
L 169.250962 -19.296 
L 174.368468 -19.296 
L 179.485973 -19.296 
L 184.603479 -19.296 
L 189.720984 -19.296 
L 194.83849 -19.296 
L 199.955995 -19.296 
L 205.073501 -19.296 
L 210.191006 -19.296 
L 215.308511 -19.296 
L 220.426017 -19.296 
L 225.543522 -19.296 
L 230.661028 -19.296 
L 235.778533 -19.296 
L 240.896039 -19.296 
L 246.013544 -19.296 
L 251.13105 -19.296 
L 256.248555 -19.296 
L 261.36606 -19.296 
L 266.483566 -19.296 
L 271.601071 -19.296 
L 276.718577 -19.296 
L 281.836082 -19.296 
L 286.953588 -19.296 
L 292.071093 -19.296 
L 297.188599 -19.296 
L 302.306104 -19.296 
L 307.423609 -19.296 
L 312.541115 -19.296 
L 317.65862 -19.296 
L 322.776126 -19.296 
L 327.893631 -19.296 
L 333.011137 -19.296 
L 338.128642 -19.296 
L 343.246148 -19.296 
L 348.363653 -19.296 
L 353.481158 -19.296 
L 358.598664 -19.296 
L 363.716169 -19.296 
L 368.833675 -19.296 
L 373.95118 -19.296 
L 379.068686 -19.296 
L 384.186191 -19.296 
L 389.303697 -19.296 
L 394.421202 -19.296 
L 399.538707 -19.296 
L 404.656213 -19.296 
L 409.773718 -19.296 
L 414.891224 -19.296 
L 414.891224 -21.729103 
L 414.891224 -21.729103 
L 409.773718 -21.729103 
L 404.656213 -21.729103 
L 399.538707 -21.729103 
L 394.421202 -21.729103 
L 389.303697 -21.729103 
L 384.186191 -21.729103 
L 379.068686 -21.729103 
L 373.95118 -21.729103 
L 368.833675 -21.729103 
L 363.716169 -21.729103 
L 358.598664 -21.729103 
L 353.481158 -21.729103 
L 348.363653 -21.729103 
L 343.246148 -21.729103 
L 338.128642 -21.729103 
L 333.011137 -21.729103 
L 327.893631 -21.729103 
L 322.776126 -21.729103 
L 317.65862 -21.729103 
L 312.541115 -21.729103 
L 307.423609 -21.729103 
L 302.306104 -21.729103 
L 297.188599 -21.729103 
L 292.071093 -21.729103 
L 286.953588 -21.729103 
L 281.836082 -21.729103 
L 276.718577 -21.729103 
L 271.601071 -21.729103 
L 266.483566 -21.729103 
L 261.36606 -21.729103 
L 256.248555 -21.729103 
L 251.13105 -21.729103 
L 246.013544 -21.729103 
L 240.896039 -21.729103 
L 235.778533 -21.729103 
L 230.661028 -21.729103 
L 225.543522 -21.729103 
L 220.426017 -21.729103 
L 215.308511 -21.729103 
L 210.191006 -21.729103 
L 205.073501 -21.729103 
L 199.955995 -21.729103 
L 194.83849 -21.729103 
L 189.720984 -21.729103 
L 184.603479 -21.729103 
L 179.485973 -21.729103 
L 174.368468 -21.729103 
L 169.250962 -21.729103 
L 164.133457 -21.729103 
L 159.015952 -21.729103 
L 153.898446 -21.729103 
L 148.780941 -21.729103 
L 143.663435 -21.729103 
L 138.54593 -21.729103 
L 133.428424 -21.729103 
L 128.310919 -21.729103 
L 123.193413 -21.729103 
L 118.075908 -21.729103 
L 112.958402 -21.729103 
L 107.840897 -21.729103 
L 102.723392 -21.729103 
z
" style="stroke: #b9db57; stroke-opacity: 0.65"/>
    </defs>
    <g clip-path="url(#p53a9a766d6)">
     <use xlink:href="#m320d78badd" x="0" y="280.512" style="fill: #b9db57; fill-opacity: 0.65; stroke: #b9db57; stroke-opacity: 0.65"/>
    </g>
   </g>
   <g id="PolyCollection_12">
    <defs>
     <path id="mfde1928499" d="M 102.723392 -21.787034 
L 102.723392 -21.729103 
L 107.840897 -21.729103 
L 112.958402 -21.729103 
L 118.075908 -21.729103 
L 123.193413 -21.729103 
L 128.310919 -21.729103 
L 133.428424 -21.729103 
L 138.54593 -21.729103 
L 143.663435 -21.729103 
L 148.780941 -21.729103 
L 153.898446 -21.729103 
L 159.015952 -21.729103 
L 164.133457 -21.759228 
L 169.250962 -21.819476 
L 174.368468 -21.909848 
L 179.485973 -22.030345 
L 184.603479 -22.180966 
L 189.720984 -22.36171 
L 194.83849 -22.572579 
L 199.955995 -22.813572 
L 205.073501 -23.08469 
L 210.191006 -23.385931 
L 215.308511 -23.717297 
L 220.426017 -24.078786 
L 225.543522 -24.4704 
L 230.661028 -24.892138 
L 235.778533 -25.344 
L 240.896039 -25.825986 
L 246.013544 -26.338097 
L 251.13105 -26.880331 
L 256.248555 -27.45269 
L 261.36606 -28.055172 
L 266.483566 -28.627531 
L 271.601071 -29.169766 
L 276.718577 -29.681876 
L 281.836082 -30.163862 
L 286.953588 -30.615724 
L 292.071093 -31.037462 
L 297.188599 -31.429076 
L 302.306104 -31.790566 
L 307.423609 -32.121931 
L 312.541115 -32.423172 
L 317.65862 -32.69429 
L 322.776126 -32.935283 
L 327.893631 -33.146152 
L 333.011137 -33.326897 
L 338.128642 -33.477517 
L 343.246148 -33.598014 
L 348.363653 -33.688386 
L 353.481158 -33.748634 
L 358.598664 -33.778759 
L 363.716169 -33.778759 
L 368.833675 -33.778759 
L 373.95118 -33.778759 
L 379.068686 -33.778759 
L 384.186191 -33.778759 
L 389.303697 -33.778759 
L 394.421202 -33.778759 
L 399.538707 -33.778759 
L 404.656213 -33.778759 
L 409.773718 -33.778759 
L 414.891224 -33.778759 
L 414.891224 -33.83669 
L 414.891224 -33.83669 
L 409.773718 -33.83669 
L 404.656213 -33.83669 
L 399.538707 -33.83669 
L 394.421202 -33.83669 
L 389.303697 -33.83669 
L 384.186191 -33.83669 
L 379.068686 -33.83669 
L 373.95118 -33.83669 
L 368.833675 -33.83669 
L 363.716169 -33.83669 
L 358.598664 -33.83669 
L 353.481158 -33.806566 
L 348.363653 -33.746317 
L 343.246148 -33.655945 
L 338.128642 -33.535448 
L 333.011137 -33.384828 
L 327.893631 -33.204083 
L 322.776126 -32.993214 
L 317.65862 -32.752221 
L 312.541115 -32.481103 
L 307.423609 -32.179862 
L 302.306104 -31.848497 
L 297.188599 -31.487007 
L 292.071093 -31.095393 
L 286.953588 -30.673655 
L 281.836082 -30.221793 
L 276.718577 -29.739807 
L 271.601071 -29.227697 
L 266.483566 -28.685462 
L 261.36606 -28.113103 
L 256.248555 -27.510621 
L 251.13105 -26.938262 
L 246.013544 -26.396028 
L 240.896039 -25.883917 
L 235.778533 -25.401931 
L 230.661028 -24.950069 
L 225.543522 -24.528331 
L 220.426017 -24.136717 
L 215.308511 -23.775228 
L 210.191006 -23.443862 
L 205.073501 -23.142621 
L 199.955995 -22.871503 
L 194.83849 -22.63051 
L 189.720984 -22.419641 
L 184.603479 -22.238897 
L 179.485973 -22.088276 
L 174.368468 -21.967779 
L 169.250962 -21.877407 
L 164.133457 -21.817159 
L 159.015952 -21.787034 
L 153.898446 -21.787034 
L 148.780941 -21.787034 
L 143.663435 -21.787034 
L 138.54593 -21.787034 
L 133.428424 -21.787034 
L 128.310919 -21.787034 
L 123.193413 -21.787034 
L 118.075908 -21.787034 
L 112.958402 -21.787034 
L 107.840897 -21.787034 
L 102.723392 -21.787034 
z
" style="stroke: #b9db57; stroke-opacity: 0.65"/>
    </defs>
    <g clip-path="url(#p53a9a766d6)">
     <use xlink:href="#mfde1928499" x="0" y="280.512" style="fill: #b9db57; fill-opacity: 0.65; stroke: #b9db57; stroke-opacity: 0.65"/>
    </g>
   </g>
   <g id="PolyCollection_13">
    <defs>
     <path id="m79e9ac58cf" d="M 102.723392 -22.250483 
L 102.723392 -21.787034 
L 107.840897 -21.787034 
L 112.958402 -21.787034 
L 118.075908 -21.787034 
L 123.193413 -21.787034 
L 128.310919 -21.787034 
L 133.428424 -21.787034 
L 138.54593 -21.787034 
L 143.663435 -21.787034 
L 148.780941 -21.787034 
L 153.898446 -21.787034 
L 159.015952 -21.787034 
L 164.133457 -21.844241 
L 169.250962 -21.958655 
L 174.368468 -22.130276 
L 179.485973 -22.359103 
L 184.603479 -22.645138 
L 189.720984 -22.988379 
L 194.83849 -23.388828 
L 199.955995 -23.846483 
L 205.073501 -24.361345 
L 210.191006 -24.933414 
L 215.308511 -25.56269 
L 220.426017 -26.249172 
L 225.543522 -26.992862 
L 230.661028 -27.793759 
L 235.778533 -28.651862 
L 240.896039 -29.567172 
L 246.013544 -30.53969 
L 251.13105 -31.569414 
L 256.248555 -32.656345 
L 261.36606 -33.800483 
L 266.483566 -34.887414 
L 271.601071 -35.917138 
L 276.718577 -36.889655 
L 281.836082 -37.804966 
L 286.953588 -38.663069 
L 292.071093 -39.463966 
L 297.188599 -40.207655 
L 302.306104 -40.894138 
L 307.423609 -41.523414 
L 312.541115 -42.095483 
L 317.65862 -42.610345 
L 322.776126 -43.068 
L 327.893631 -43.468448 
L 333.011137 -43.81169 
L 338.128642 -44.097724 
L 343.246148 -44.326552 
L 348.363653 -44.498172 
L 353.481158 -44.612586 
L 358.598664 -44.669793 
L 363.716169 -44.669793 
L 368.833675 -44.669793 
L 373.95118 -44.669793 
L 379.068686 -44.669793 
L 384.186191 -44.669793 
L 389.303697 -44.669793 
L 394.421202 -44.669793 
L 399.538707 -44.669793 
L 404.656213 -44.669793 
L 409.773718 -44.669793 
L 414.891224 -44.669793 
L 414.891224 -45.133241 
L 414.891224 -45.133241 
L 409.773718 -45.133241 
L 404.656213 -45.133241 
L 399.538707 -45.133241 
L 394.421202 -45.133241 
L 389.303697 -45.133241 
L 384.186191 -45.133241 
L 379.068686 -45.133241 
L 373.95118 -45.133241 
L 368.833675 -45.133241 
L 363.716169 -45.133241 
L 358.598664 -45.133241 
L 353.481158 -45.076034 
L 348.363653 -44.961621 
L 343.246148 -44.79 
L 338.128642 -44.561172 
L 333.011137 -44.275138 
L 327.893631 -43.931897 
L 322.776126 -43.531448 
L 317.65862 -43.073793 
L 312.541115 -42.558931 
L 307.423609 -41.986862 
L 302.306104 -41.357586 
L 297.188599 -40.671103 
L 292.071093 -39.927414 
L 286.953588 -39.126517 
L 281.836082 -38.268414 
L 276.718577 -37.353103 
L 271.601071 -36.380586 
L 266.483566 -35.350862 
L 261.36606 -34.263931 
L 256.248555 -33.119793 
L 251.13105 -32.032862 
L 246.013544 -31.003138 
L 240.896039 -30.030621 
L 235.778533 -29.11531 
L 230.661028 -28.257207 
L 225.543522 -27.45631 
L 220.426017 -26.712621 
L 215.308511 -26.026138 
L 210.191006 -25.396862 
L 205.073501 -24.824793 
L 199.955995 -24.309931 
L 194.83849 -23.852276 
L 189.720984 -23.451828 
L 184.603479 -23.108586 
L 179.485973 -22.822552 
L 174.368468 -22.593724 
L 169.250962 -22.422103 
L 164.133457 -22.30769 
L 159.015952 -22.250483 
L 153.898446 -22.250483 
L 148.780941 -22.250483 
L 143.663435 -22.250483 
L 138.54593 -22.250483 
L 133.428424 -22.250483 
L 128.310919 -22.250483 
L 123.193413 -22.250483 
L 118.075908 -22.250483 
L 112.958402 -22.250483 
L 107.840897 -22.250483 
L 102.723392 -22.250483 
z
" style="stroke: #b9db57; stroke-opacity: 0.65"/>
    </defs>
    <g clip-path="url(#p53a9a766d6)">
     <use xlink:href="#m79e9ac58cf" x="0" y="280.512" style="fill: #b9db57; fill-opacity: 0.65; stroke: #b9db57; stroke-opacity: 0.65"/>
    </g>
   </g>
   <g id="PolyCollection_14">
    <defs>
     <path id="m76c64d03a9" d="M 102.723392 -22.887724 
L 102.723392 -22.250483 
L 107.840897 -22.250483 
L 112.958402 -22.250483 
L 118.075908 -22.250483 
L 123.193413 -22.250483 
L 128.310919 -22.250483 
L 133.428424 -22.250483 
L 138.54593 -22.250483 
L 143.663435 -22.250483 
L 148.780941 -22.250483 
L 153.898446 -22.250483 
L 159.015952 -22.250483 
L 164.133457 -22.817193 
L 169.250962 -23.950614 
L 174.368468 -25.650745 
L 179.485973 -27.917586 
L 184.603479 -30.751138 
L 189.720984 -34.1514 
L 194.83849 -38.118372 
L 199.955995 -42.652055 
L 205.073501 -47.752448 
L 210.191006 -53.419552 
L 215.308511 -59.653366 
L 220.426017 -66.45389 
L 225.543522 -73.821124 
L 230.661028 -81.755069 
L 235.778533 -90.255724 
L 240.896039 -99.32309 
L 246.013544 -108.957166 
L 251.13105 -119.157952 
L 256.248555 -129.925448 
L 261.36606 -141.259655 
L 266.483566 -152.027152 
L 271.601071 -162.227938 
L 276.718577 -171.862014 
L 281.836082 -180.929379 
L 286.953588 -189.430034 
L 292.071093 -197.363979 
L 297.188599 -204.731214 
L 302.306104 -211.531738 
L 307.423609 -217.765552 
L 312.541115 -223.432655 
L 317.65862 -228.533048 
L 322.776126 -233.066731 
L 327.893631 -237.033703 
L 333.011137 -240.433966 
L 338.128642 -243.267517 
L 343.246148 -245.534359 
L 348.363653 -247.23449 
L 353.481158 -248.36791 
L 358.598664 -248.934621 
L 363.716169 -248.934621 
L 368.833675 -248.934621 
L 373.95118 -248.934621 
L 379.068686 -248.934621 
L 384.186191 -248.934621 
L 389.303697 -248.934621 
L 394.421202 -248.934621 
L 399.538707 -248.934621 
L 404.656213 -248.934621 
L 409.773718 -248.934621 
L 414.891224 -248.934621 
L 414.891224 -249.571862 
L 414.891224 -249.571862 
L 409.773718 -249.571862 
L 404.656213 -249.571862 
L 399.538707 -249.571862 
L 394.421202 -249.571862 
L 389.303697 -249.571862 
L 384.186191 -249.571862 
L 379.068686 -249.571862 
L 373.95118 -249.571862 
L 368.833675 -249.571862 
L 363.716169 -249.571862 
L 358.598664 -249.571862 
L 353.481158 -249.005152 
L 348.363653 -247.871731 
L 343.246148 -246.1716 
L 338.128642 -243.904759 
L 333.011137 -241.071207 
L 327.893631 -237.670945 
L 322.776126 -233.703972 
L 317.65862 -229.17029 
L 312.541115 -224.069897 
L 307.423609 -218.402793 
L 302.306104 -212.168979 
L 297.188599 -205.368455 
L 292.071093 -198.001221 
L 286.953588 -190.067276 
L 281.836082 -181.566621 
L 276.718577 -172.499255 
L 271.601071 -162.865179 
L 266.483566 -152.664393 
L 261.36606 -141.896897 
L 256.248555 -130.56269 
L 251.13105 -119.795193 
L 246.013544 -109.594407 
L 240.896039 -99.960331 
L 235.778533 -90.892966 
L 230.661028 -82.39231 
L 225.543522 -74.458366 
L 220.426017 -67.091131 
L 215.308511 -60.290607 
L 210.191006 -54.056793 
L 205.073501 -48.38969 
L 199.955995 -43.289297 
L 194.83849 -38.755614 
L 189.720984 -34.788641 
L 184.603479 -31.388379 
L 179.485973 -28.554828 
L 174.368468 -26.287986 
L 169.250962 -24.587855 
L 164.133457 -23.454434 
L 159.015952 -22.887724 
L 153.898446 -22.887724 
L 148.780941 -22.887724 
L 143.663435 -22.887724 
L 138.54593 -22.887724 
L 133.428424 -22.887724 
L 128.310919 -22.887724 
L 123.193413 -22.887724 
L 118.075908 -22.887724 
L 112.958402 -22.887724 
L 107.840897 -22.887724 
L 102.723392 -22.887724 
z
" style="stroke: #b9db57; stroke-opacity: 0.65"/>
    </defs>
    <g clip-path="url(#p53a9a766d6)">
     <use xlink:href="#m76c64d03a9" x="0" y="280.512" style="fill: #b9db57; fill-opacity: 0.65; stroke: #b9db57; stroke-opacity: 0.65"/>
    </g>
   </g>
   <g id="PolyCollection_15">
    <defs>
     <path id="m0f537826ac" d="M 102.723392 -23.003586 
L 102.723392 -22.887724 
L 107.840897 -22.887724 
L 112.958402 -22.887724 
L 118.075908 -22.887724 
L 123.193413 -22.887724 
L 128.310919 -22.887724 
L 133.428424 -22.887724 
L 138.54593 -22.887724 
L 143.663435 -22.887724 
L 148.780941 -22.887724 
L 153.898446 -22.887724 
L 159.015952 -22.887724 
L 164.133457 -23.482097 
L 169.250962 -24.670841 
L 174.368468 -26.453959 
L 179.485973 -28.831448 
L 184.603479 -31.80331 
L 189.720984 -35.369545 
L 194.83849 -39.530152 
L 199.955995 -44.285131 
L 205.073501 -49.634483 
L 210.191006 -55.578207 
L 215.308511 -62.116303 
L 220.426017 -69.248772 
L 225.543522 -76.975614 
L 230.661028 -85.296828 
L 235.778533 -94.212414 
L 240.896039 -103.722372 
L 246.013544 -113.826703 
L 251.13105 -124.525407 
L 256.248555 -135.818483 
L 261.36606 -147.705931 
L 266.483566 -158.999007 
L 271.601071 -169.69771 
L 276.718577 -179.802041 
L 281.836082 -189.312 
L 286.953588 -198.227586 
L 292.071093 -206.5488 
L 297.188599 -214.275641 
L 302.306104 -221.40811 
L 307.423609 -227.946207 
L 312.541115 -233.889931 
L 317.65862 -239.239283 
L 322.776126 -243.994262 
L 327.893631 -248.154869 
L 333.011137 -251.721103 
L 338.128642 -254.692966 
L 343.246148 -257.070455 
L 348.363653 -258.853572 
L 353.481158 -260.042317 
L 358.598664 -260.63669 
L 363.716169 -260.63669 
L 368.833675 -260.63669 
L 373.95118 -260.63669 
L 379.068686 -260.63669 
L 384.186191 -260.63669 
L 389.303697 -260.63669 
L 394.421202 -260.63669 
L 399.538707 -260.63669 
L 404.656213 -260.63669 
L 409.773718 -260.63669 
L 414.891224 -260.63669 
L 414.891224 -260.752552 
L 414.891224 -260.752552 
L 409.773718 -260.752552 
L 404.656213 -260.752552 
L 399.538707 -260.752552 
L 394.421202 -260.752552 
L 389.303697 -260.752552 
L 384.186191 -260.752552 
L 379.068686 -260.752552 
L 373.95118 -260.752552 
L 368.833675 -260.752552 
L 363.716169 -260.752552 
L 358.598664 -260.752552 
L 353.481158 -260.158179 
L 348.363653 -258.969434 
L 343.246148 -257.186317 
L 338.128642 -254.808828 
L 333.011137 -251.836966 
L 327.893631 -248.270731 
L 322.776126 -244.110124 
L 317.65862 -239.355145 
L 312.541115 -234.005793 
L 307.423609 -228.062069 
L 302.306104 -221.523972 
L 297.188599 -214.391503 
L 292.071093 -206.664662 
L 286.953588 -198.343448 
L 281.836082 -189.427862 
L 276.718577 -179.917903 
L 271.601071 -169.813572 
L 266.483566 -159.114869 
L 261.36606 -147.821793 
L 256.248555 -135.934345 
L 251.13105 -124.641269 
L 246.013544 -113.942566 
L 240.896039 -103.838234 
L 235.778533 -94.328276 
L 230.661028 -85.41269 
L 225.543522 -77.091476 
L 220.426017 -69.364634 
L 215.308511 -62.232166 
L 210.191006 -55.694069 
L 205.073501 -49.750345 
L 199.955995 -44.400993 
L 194.83849 -39.646014 
L 189.720984 -35.485407 
L 184.603479 -31.919172 
L 179.485973 -28.94731 
L 174.368468 -26.569821 
L 169.250962 -24.786703 
L 164.133457 -23.597959 
L 159.015952 -23.003586 
L 153.898446 -23.003586 
L 148.780941 -23.003586 
L 143.663435 -23.003586 
L 138.54593 -23.003586 
L 133.428424 -23.003586 
L 128.310919 -23.003586 
L 123.193413 -23.003586 
L 118.075908 -23.003586 
L 112.958402 -23.003586 
L 107.840897 -23.003586 
L 102.723392 -23.003586 
z
" style="stroke: #b9db57; stroke-opacity: 0.65"/>
    </defs>
    <g clip-path="url(#p53a9a766d6)">
     <use xlink:href="#m0f537826ac" x="0" y="280.512" style="fill: #b9db57; fill-opacity: 0.65; stroke: #b9db57; stroke-opacity: 0.65"/>
    </g>
   </g>
   <g id="PolyCollection_16">
    <defs>
     <path id="mf12f540fe5" d="M 102.723392 -33.141517 
L 102.723392 -33.083586 
L 107.840897 -33.083586 
L 112.958402 -33.083586 
L 118.075908 -33.083586 
L 123.193413 -33.083586 
L 128.310919 -33.083586 
L 133.428424 -33.083586 
L 138.54593 -33.083586 
L 143.663435 -33.083586 
L 148.780941 -33.083586 
L 153.898446 -33.083586 
L 159.015952 -33.083586 
L 164.133457 -33.0552 
L 169.250962 -32.998428 
L 174.368468 -32.913269 
L 179.485973 -32.799724 
L 184.603479 -32.657793 
L 189.720984 -32.487476 
L 194.83849 -32.288772 
L 199.955995 -32.061683 
L 205.073501 -31.806207 
L 210.191006 -31.522345 
L 215.308511 -31.210097 
L 220.426017 -30.869462 
L 225.543522 -30.500441 
L 230.661028 -30.103034 
L 235.778533 -29.677241 
L 240.896039 -29.223062 
L 246.013544 -28.740497 
L 251.13105 -28.229545 
L 256.248555 -27.690207 
L 261.36606 -27.122483 
L 266.483566 -26.583145 
L 271.601071 -26.072193 
L 276.718577 -25.589628 
L 281.836082 -25.135448 
L 286.953588 -24.709655 
L 292.071093 -24.312248 
L 297.188599 -23.943228 
L 302.306104 -23.602593 
L 307.423609 -23.290345 
L 312.541115 -23.006483 
L 317.65862 -22.751007 
L 322.776126 -22.523917 
L 327.893631 -22.325214 
L 333.011137 -22.154897 
L 338.128642 -22.012966 
L 343.246148 -21.899421 
L 348.363653 -21.814262 
L 353.481158 -21.75749 
L 358.598664 -21.729103 
L 363.716169 -21.729103 
L 368.833675 -21.729103 
L 373.95118 -21.729103 
L 379.068686 -21.729103 
L 384.186191 -21.729103 
L 389.303697 -21.729103 
L 394.421202 -21.729103 
L 399.538707 -21.729103 
L 404.656213 -21.729103 
L 409.773718 -21.729103 
L 414.891224 -21.729103 
L 414.891224 -21.787034 
L 414.891224 -21.787034 
L 409.773718 -21.787034 
L 404.656213 -21.787034 
L 399.538707 -21.787034 
L 394.421202 -21.787034 
L 389.303697 -21.787034 
L 384.186191 -21.787034 
L 379.068686 -21.787034 
L 373.95118 -21.787034 
L 368.833675 -21.787034 
L 363.716169 -21.787034 
L 358.598664 -21.787034 
L 353.481158 -21.815421 
L 348.363653 -21.872193 
L 343.246148 -21.957352 
L 338.128642 -22.070897 
L 333.011137 -22.212828 
L 327.893631 -22.383145 
L 322.776126 -22.581848 
L 317.65862 -22.808938 
L 312.541115 -23.064414 
L 307.423609 -23.348276 
L 302.306104 -23.660524 
L 297.188599 -24.001159 
L 292.071093 -24.370179 
L 286.953588 -24.767586 
L 281.836082 -25.193379 
L 276.718577 -25.647559 
L 271.601071 -26.130124 
L 266.483566 -26.641076 
L 261.36606 -27.180414 
L 256.248555 -27.748138 
L 251.13105 -28.287476 
L 246.013544 -28.798428 
L 240.896039 -29.280993 
L 235.778533 -29.735172 
L 230.661028 -30.160966 
L 225.543522 -30.558372 
L 220.426017 -30.927393 
L 215.308511 -31.268028 
L 210.191006 -31.580276 
L 205.073501 -31.864138 
L 199.955995 -32.119614 
L 194.83849 -32.346703 
L 189.720984 -32.545407 
L 184.603479 -32.715724 
L 179.485973 -32.857655 
L 174.368468 -32.9712 
L 169.250962 -33.056359 
L 164.133457 -33.113131 
L 159.015952 -33.141517 
L 153.898446 -33.141517 
L 148.780941 -33.141517 
L 143.663435 -33.141517 
L 138.54593 -33.141517 
L 133.428424 -33.141517 
L 128.310919 -33.141517 
L 123.193413 -33.141517 
L 118.075908 -33.141517 
L 112.958402 -33.141517 
L 107.840897 -33.141517 
L 102.723392 -33.141517 
z
" style="stroke: #5784db; stroke-opacity: 0.65"/>
    </defs>
    <g clip-path="url(#p53a9a766d6)">
     <use xlink:href="#mf12f540fe5" x="0" y="280.512" style="fill: #5784db; fill-opacity: 0.65; stroke: #5784db; stroke-opacity: 0.65"/>
    </g>
   </g>
   <g id="PolyCollection_17">
    <defs>
     <path id="m13e1358449" d="M 102.723392 -33.894621 
L 102.723392 -33.141517 
L 107.840897 -33.141517 
L 112.958402 -33.141517 
L 118.075908 -33.141517 
L 123.193413 -33.141517 
L 128.310919 -33.141517 
L 133.428424 -33.141517 
L 138.54593 -33.141517 
L 143.663435 -33.141517 
L 148.780941 -33.141517 
L 153.898446 -33.141517 
L 159.015952 -33.141517 
L 164.133457 -33.143255 
L 169.250962 -33.146731 
L 174.368468 -33.151945 
L 179.485973 -33.158897 
L 184.603479 -33.167586 
L 189.720984 -33.178014 
L 194.83849 -33.190179 
L 199.955995 -33.204083 
L 205.073501 -33.219724 
L 210.191006 -33.237103 
L 215.308511 -33.256221 
L 220.426017 -33.277076 
L 225.543522 -33.299669 
L 230.661028 -33.324 
L 235.778533 -33.350069 
L 240.896039 -33.377876 
L 246.013544 -33.407421 
L 251.13105 -33.438703 
L 256.248555 -33.471724 
L 261.36606 -33.506483 
L 266.483566 -33.539503 
L 271.601071 -33.570786 
L 276.718577 -33.600331 
L 281.836082 -33.628138 
L 286.953588 -33.654207 
L 292.071093 -33.678538 
L 297.188599 -33.701131 
L 302.306104 -33.721986 
L 307.423609 -33.741103 
L 312.541115 -33.758483 
L 317.65862 -33.774124 
L 322.776126 -33.788028 
L 327.893631 -33.800193 
L 333.011137 -33.810621 
L 338.128642 -33.81931 
L 343.246148 -33.826262 
L 348.363653 -33.831476 
L 353.481158 -33.834952 
L 358.598664 -33.83669 
L 363.716169 -33.83669 
L 368.833675 -33.83669 
L 373.95118 -33.83669 
L 379.068686 -33.83669 
L 384.186191 -33.83669 
L 389.303697 -33.83669 
L 394.421202 -33.83669 
L 399.538707 -33.83669 
L 404.656213 -33.83669 
L 409.773718 -33.83669 
L 414.891224 -33.83669 
L 414.891224 -34.589793 
L 414.891224 -34.589793 
L 409.773718 -34.589793 
L 404.656213 -34.589793 
L 399.538707 -34.589793 
L 394.421202 -34.589793 
L 389.303697 -34.589793 
L 384.186191 -34.589793 
L 379.068686 -34.589793 
L 373.95118 -34.589793 
L 368.833675 -34.589793 
L 363.716169 -34.589793 
L 358.598664 -34.589793 
L 353.481158 -34.588055 
L 348.363653 -34.584579 
L 343.246148 -34.579366 
L 338.128642 -34.572414 
L 333.011137 -34.563724 
L 327.893631 -34.553297 
L 322.776126 -34.541131 
L 317.65862 -34.527228 
L 312.541115 -34.511586 
L 307.423609 -34.494207 
L 302.306104 -34.47509 
L 297.188599 -34.454234 
L 292.071093 -34.431641 
L 286.953588 -34.40731 
L 281.836082 -34.381241 
L 276.718577 -34.353434 
L 271.601071 -34.32389 
L 266.483566 -34.292607 
L 261.36606 -34.259586 
L 256.248555 -34.224828 
L 251.13105 -34.191807 
L 246.013544 -34.160524 
L 240.896039 -34.130979 
L 235.778533 -34.103172 
L 230.661028 -34.077103 
L 225.543522 -34.052772 
L 220.426017 -34.030179 
L 215.308511 -34.009324 
L 210.191006 -33.990207 
L 205.073501 -33.972828 
L 199.955995 -33.957186 
L 194.83849 -33.943283 
L 189.720984 -33.931117 
L 184.603479 -33.92069 
L 179.485973 -33.912 
L 174.368468 -33.905048 
L 169.250962 -33.899834 
L 164.133457 -33.896359 
L 159.015952 -33.894621 
L 153.898446 -33.894621 
L 148.780941 -33.894621 
L 143.663435 -33.894621 
L 138.54593 -33.894621 
L 133.428424 -33.894621 
L 128.310919 -33.894621 
L 123.193413 -33.894621 
L 118.075908 -33.894621 
L 112.958402 -33.894621 
L 107.840897 -33.894621 
L 102.723392 -33.894621 
z
" style="stroke: #5784db; stroke-opacity: 0.65"/>
    </defs>
    <g clip-path="url(#p53a9a766d6)">
     <use xlink:href="#m13e1358449" x="0" y="280.512" style="fill: #5784db; fill-opacity: 0.65; stroke: #5784db; stroke-opacity: 0.65"/>
    </g>
   </g>
   <g id="PolyCollection_18">
    <defs>
     <path id="m6118b23fc4" d="M 102.723392 -237.638069 
L 102.723392 -43.974621 
L 107.840897 -43.974621 
L 112.958402 -43.974621 
L 118.075908 -43.974621 
L 123.193413 -43.974621 
L 128.310919 -43.974621 
L 133.428424 -43.974621 
L 138.54593 -43.974621 
L 143.663435 -43.974621 
L 148.780941 -43.974621 
L 153.898446 -43.974621 
L 159.015952 -43.974621 
L 164.133457 -43.977517 
L 169.250962 -43.98331 
L 174.368468 -43.992 
L 179.485973 -44.003586 
L 184.603479 -44.018069 
L 189.720984 -44.035448 
L 194.83849 -44.055724 
L 199.955995 -44.078897 
L 205.073501 -44.104966 
L 210.191006 -44.133931 
L 215.308511 -44.165793 
L 220.426017 -44.200552 
L 225.543522 -44.238207 
L 230.661028 -44.278759 
L 235.778533 -44.322207 
L 240.896039 -44.368552 
L 246.013544 -44.417793 
L 251.13105 -44.469931 
L 256.248555 -44.524966 
L 261.36606 -44.582897 
L 266.483566 -44.637931 
L 271.601071 -44.690069 
L 276.718577 -44.73931 
L 281.836082 -44.785655 
L 286.953588 -44.829103 
L 292.071093 -44.869655 
L 297.188599 -44.90731 
L 302.306104 -44.942069 
L 307.423609 -44.973931 
L 312.541115 -45.002897 
L 317.65862 -45.028966 
L 322.776126 -45.052138 
L 327.893631 -45.072414 
L 333.011137 -45.089793 
L 338.128642 -45.104276 
L 343.246148 -45.115862 
L 348.363653 -45.124552 
L 353.481158 -45.130345 
L 358.598664 -45.133241 
L 363.716169 -45.133241 
L 368.833675 -45.133241 
L 373.95118 -45.133241 
L 379.068686 -45.133241 
L 384.186191 -45.133241 
L 389.303697 -45.133241 
L 394.421202 -45.133241 
L 399.538707 -45.133241 
L 404.656213 -45.133241 
L 409.773718 -45.133241 
L 414.891224 -45.133241 
L 414.891224 -238.79669 
L 414.891224 -238.79669 
L 409.773718 -238.79669 
L 404.656213 -238.79669 
L 399.538707 -238.79669 
L 394.421202 -238.79669 
L 389.303697 -238.79669 
L 384.186191 -238.79669 
L 379.068686 -238.79669 
L 373.95118 -238.79669 
L 368.833675 -238.79669 
L 363.716169 -238.79669 
L 358.598664 -238.79669 
L 353.481158 -238.793793 
L 348.363653 -238.788 
L 343.246148 -238.77931 
L 338.128642 -238.767724 
L 333.011137 -238.753241 
L 327.893631 -238.735862 
L 322.776126 -238.715586 
L 317.65862 -238.692414 
L 312.541115 -238.666345 
L 307.423609 -238.637379 
L 302.306104 -238.605517 
L 297.188599 -238.570759 
L 292.071093 -238.533103 
L 286.953588 -238.492552 
L 281.836082 -238.449103 
L 276.718577 -238.402759 
L 271.601071 -238.353517 
L 266.483566 -238.301379 
L 261.36606 -238.246345 
L 256.248555 -238.188414 
L 251.13105 -238.133379 
L 246.013544 -238.081241 
L 240.896039 -238.032 
L 235.778533 -237.985655 
L 230.661028 -237.942207 
L 225.543522 -237.901655 
L 220.426017 -237.864 
L 215.308511 -237.829241 
L 210.191006 -237.797379 
L 205.073501 -237.768414 
L 199.955995 -237.742345 
L 194.83849 -237.719172 
L 189.720984 -237.698897 
L 184.603479 -237.681517 
L 179.485973 -237.667034 
L 174.368468 -237.655448 
L 169.250962 -237.646759 
L 164.133457 -237.640966 
L 159.015952 -237.638069 
L 153.898446 -237.638069 
L 148.780941 -237.638069 
L 143.663435 -237.638069 
L 138.54593 -237.638069 
L 133.428424 -237.638069 
L 128.310919 -237.638069 
L 123.193413 -237.638069 
L 118.075908 -237.638069 
L 112.958402 -237.638069 
L 107.840897 -237.638069 
L 102.723392 -237.638069 
z
" style="stroke: #c957db; stroke-opacity: 0.65"/>
    </defs>
    <g clip-path="url(#p53a9a766d6)">
     <use xlink:href="#m6118b23fc4" x="0" y="280.512" style="fill: #c957db; fill-opacity: 0.65; stroke: #c957db; stroke-opacity: 0.65"/>
    </g>
   </g>
   <g id="PolyCollection_19">
    <defs>
     <path id="mca9e736aa2" d="M 102.723392 -249.456 
L 102.723392 -247.718069 
L 107.840897 -247.718069 
L 112.958402 -247.718069 
L 118.075908 -247.718069 
L 123.193413 -247.718069 
L 128.310919 -247.718069 
L 133.428424 -247.718069 
L 138.54593 -247.718069 
L 143.663435 -247.718069 
L 148.780941 -247.718069 
L 153.898446 -247.718069 
L 159.015952 -247.718069 
L 164.133457 -247.153241 
L 169.250962 -246.023586 
L 174.368468 -244.329103 
L 179.485973 -242.069793 
L 184.603479 -239.245655 
L 189.720984 -235.85669 
L 194.83849 -231.902897 
L 199.955995 -227.384276 
L 205.073501 -222.300828 
L 210.191006 -216.652552 
L 215.308511 -210.439448 
L 220.426017 -203.661517 
L 225.543522 -196.318759 
L 230.661028 -188.411172 
L 235.778533 -179.938759 
L 240.896039 -170.901517 
L 246.013544 -161.299448 
L 251.13105 -151.132552 
L 256.248555 -140.400828 
L 261.36606 -129.104276 
L 266.483566 -118.372552 
L 271.601071 -108.205655 
L 276.718577 -98.603586 
L 281.836082 -89.566345 
L 286.953588 -81.093931 
L 292.071093 -73.186345 
L 297.188599 -65.843586 
L 302.306104 -59.065655 
L 307.423609 -52.852552 
L 312.541115 -47.204276 
L 317.65862 -42.120828 
L 322.776126 -37.602207 
L 327.893631 -33.648414 
L 333.011137 -30.259448 
L 338.128642 -27.43531 
L 343.246148 -25.176 
L 348.363653 -23.481517 
L 353.481158 -22.351862 
L 358.598664 -21.787034 
L 363.716169 -21.787034 
L 368.833675 -21.787034 
L 373.95118 -21.787034 
L 379.068686 -21.787034 
L 384.186191 -21.787034 
L 389.303697 -21.787034 
L 394.421202 -21.787034 
L 399.538707 -21.787034 
L 404.656213 -21.787034 
L 409.773718 -21.787034 
L 414.891224 -21.787034 
L 414.891224 -23.524966 
L 414.891224 -23.524966 
L 409.773718 -23.524966 
L 404.656213 -23.524966 
L 399.538707 -23.524966 
L 394.421202 -23.524966 
L 389.303697 -23.524966 
L 384.186191 -23.524966 
L 379.068686 -23.524966 
L 373.95118 -23.524966 
L 368.833675 -23.524966 
L 363.716169 -23.524966 
L 358.598664 -23.524966 
L 353.481158 -24.089793 
L 348.363653 -25.219448 
L 343.246148 -26.913931 
L 338.128642 -29.173241 
L 333.011137 -31.997379 
L 327.893631 -35.386345 
L 322.776126 -39.340138 
L 317.65862 -43.858759 
L 312.541115 -48.942207 
L 307.423609 -54.590483 
L 302.306104 -60.803586 
L 297.188599 -67.581517 
L 292.071093 -74.924276 
L 286.953588 -82.831862 
L 281.836082 -91.304276 
L 276.718577 -100.341517 
L 271.601071 -109.943586 
L 266.483566 -120.110483 
L 261.36606 -130.842207 
L 256.248555 -142.138759 
L 251.13105 -152.870483 
L 246.013544 -163.037379 
L 240.896039 -172.639448 
L 235.778533 -181.67669 
L 230.661028 -190.149103 
L 225.543522 -198.05669 
L 220.426017 -205.399448 
L 215.308511 -212.177379 
L 210.191006 -218.390483 
L 205.073501 -224.038759 
L 199.955995 -229.122207 
L 194.83849 -233.640828 
L 189.720984 -237.594621 
L 184.603479 -240.983586 
L 179.485973 -243.807724 
L 174.368468 -246.067034 
L 169.250962 -247.761517 
L 164.133457 -248.891172 
L 159.015952 -249.456 
L 153.898446 -249.456 
L 148.780941 -249.456 
L 143.663435 -249.456 
L 138.54593 -249.456 
L 133.428424 -249.456 
L 128.310919 -249.456 
L 123.193413 -249.456 
L 118.075908 -249.456 
L 112.958402 -249.456 
L 107.840897 -249.456 
L 102.723392 -249.456 
z
" style="stroke: #57db94; stroke-opacity: 0.65"/>
    </defs>
    <g clip-path="url(#p53a9a766d6)">
     <use xlink:href="#mca9e736aa2" x="0" y="280.512" style="fill: #57db94; fill-opacity: 0.65; stroke: #57db94; stroke-opacity: 0.65"/>
    </g>
   </g>
   <g id="PolyCollection_20">
    <defs>
     <path id="m57a08ce24c" d="M 102.723392 -249.513931 
L 102.723392 -249.456 
L 107.840897 -249.456 
L 112.958402 -249.456 
L 118.075908 -249.456 
L 123.193413 -249.456 
L 128.310919 -249.456 
L 133.428424 -249.456 
L 138.54593 -249.456 
L 143.663435 -249.456 
L 148.780941 -249.456 
L 153.898446 -249.456 
L 159.015952 -249.456 
L 164.133457 -249.429352 
L 169.250962 -249.376055 
L 174.368468 -249.29611 
L 179.485973 -249.189517 
L 184.603479 -249.056276 
L 189.720984 -248.896386 
L 194.83849 -248.709848 
L 199.955995 -248.496662 
L 205.073501 -248.256828 
L 210.191006 -247.990345 
L 215.308511 -247.697214 
L 220.426017 -247.377434 
L 225.543522 -247.031007 
L 230.661028 -246.657931 
L 235.778533 -246.258207 
L 240.896039 -245.831834 
L 246.013544 -245.378814 
L 251.13105 -244.899145 
L 256.248555 -244.392828 
L 261.36606 -243.859862 
L 266.483566 -243.353545 
L 271.601071 -242.873876 
L 276.718577 -242.420855 
L 281.836082 -241.994483 
L 286.953588 -241.594759 
L 292.071093 -241.221683 
L 297.188599 -240.875255 
L 302.306104 -240.555476 
L 307.423609 -240.262345 
L 312.541115 -239.995862 
L 317.65862 -239.756028 
L 322.776126 -239.542841 
L 327.893631 -239.356303 
L 333.011137 -239.196414 
L 338.128642 -239.063172 
L 343.246148 -238.956579 
L 348.363653 -238.876634 
L 353.481158 -238.823338 
L 358.598664 -238.79669 
L 363.716169 -238.79669 
L 368.833675 -238.79669 
L 373.95118 -238.79669 
L 379.068686 -238.79669 
L 384.186191 -238.79669 
L 389.303697 -238.79669 
L 394.421202 -238.79669 
L 399.538707 -238.79669 
L 404.656213 -238.79669 
L 409.773718 -238.79669 
L 414.891224 -238.79669 
L 414.891224 -238.854621 
L 414.891224 -238.854621 
L 409.773718 -238.854621 
L 404.656213 -238.854621 
L 399.538707 -238.854621 
L 394.421202 -238.854621 
L 389.303697 -238.854621 
L 384.186191 -238.854621 
L 379.068686 -238.854621 
L 373.95118 -238.854621 
L 368.833675 -238.854621 
L 363.716169 -238.854621 
L 358.598664 -238.854621 
L 353.481158 -238.881269 
L 348.363653 -238.934566 
L 343.246148 -239.01451 
L 338.128642 -239.121103 
L 333.011137 -239.254345 
L 327.893631 -239.414234 
L 322.776126 -239.600772 
L 317.65862 -239.813959 
L 312.541115 -240.053793 
L 307.423609 -240.320276 
L 302.306104 -240.613407 
L 297.188599 -240.933186 
L 292.071093 -241.279614 
L 286.953588 -241.65269 
L 281.836082 -242.052414 
L 276.718577 -242.478786 
L 271.601071 -242.931807 
L 266.483566 -243.411476 
L 261.36606 -243.917793 
L 256.248555 -244.450759 
L 251.13105 -244.957076 
L 246.013544 -245.436745 
L 240.896039 -245.889766 
L 235.778533 -246.316138 
L 230.661028 -246.715862 
L 225.543522 -247.088938 
L 220.426017 -247.435366 
L 215.308511 -247.755145 
L 210.191006 -248.048276 
L 205.073501 -248.314759 
L 199.955995 -248.554593 
L 194.83849 -248.767779 
L 189.720984 -248.954317 
L 184.603479 -249.114207 
L 179.485973 -249.247448 
L 174.368468 -249.354041 
L 169.250962 -249.433986 
L 164.133457 -249.487283 
L 159.015952 -249.513931 
L 153.898446 -249.513931 
L 148.780941 -249.513931 
L 143.663435 -249.513931 
L 138.54593 -249.513931 
L 133.428424 -249.513931 
L 128.310919 -249.513931 
L 123.193413 -249.513931 
L 118.075908 -249.513931 
L 112.958402 -249.513931 
L 107.840897 -249.513931 
L 102.723392 -249.513931 
z
" style="stroke: #57db94; stroke-opacity: 0.65"/>
    </defs>
    <g clip-path="url(#p53a9a766d6)">
     <use xlink:href="#m57a08ce24c" x="0" y="280.512" style="fill: #57db94; fill-opacity: 0.65; stroke: #57db94; stroke-opacity: 0.65"/>
    </g>
   </g>
   <g id="PolyCollection_21">
    <defs>
     <path id="m82aa20e655" d="M 102.723392 -250.498759 
L 102.723392 -249.513931 
L 107.840897 -249.513931 
L 112.958402 -249.513931 
L 118.075908 -249.513931 
L 123.193413 -249.513931 
L 128.310919 -249.513931 
L 133.428424 -249.513931 
L 138.54593 -249.513931 
L 143.663435 -249.513931 
L 148.780941 -249.513931 
L 153.898446 -249.513931 
L 159.015952 -249.513931 
L 164.133457 -249.514076 
L 169.250962 -249.514366 
L 174.368468 -249.5148 
L 179.485973 -249.515379 
L 184.603479 -249.516103 
L 189.720984 -249.516972 
L 194.83849 -249.517986 
L 199.955995 -249.519145 
L 205.073501 -249.520448 
L 210.191006 -249.521897 
L 215.308511 -249.52349 
L 220.426017 -249.525228 
L 225.543522 -249.52711 
L 230.661028 -249.529138 
L 235.778533 -249.53131 
L 240.896039 -249.533628 
L 246.013544 -249.53609 
L 251.13105 -249.538697 
L 256.248555 -249.541448 
L 261.36606 -249.544345 
L 266.483566 -249.547097 
L 271.601071 -249.549703 
L 276.718577 -249.552166 
L 281.836082 -249.554483 
L 286.953588 -249.556655 
L 292.071093 -249.558683 
L 297.188599 -249.560566 
L 302.306104 -249.562303 
L 307.423609 -249.563897 
L 312.541115 -249.565345 
L 317.65862 -249.566648 
L 322.776126 -249.567807 
L 327.893631 -249.568821 
L 333.011137 -249.56969 
L 338.128642 -249.570414 
L 343.246148 -249.570993 
L 348.363653 -249.571428 
L 353.481158 -249.571717 
L 358.598664 -249.571862 
L 363.716169 -249.571862 
L 368.833675 -249.571862 
L 373.95118 -249.571862 
L 379.068686 -249.571862 
L 384.186191 -249.571862 
L 389.303697 -249.571862 
L 394.421202 -249.571862 
L 399.538707 -249.571862 
L 404.656213 -249.571862 
L 409.773718 -249.571862 
L 414.891224 -249.571862 
L 414.891224 -250.55669 
L 414.891224 -250.55669 
L 409.773718 -250.55669 
L 404.656213 -250.55669 
L 399.538707 -250.55669 
L 394.421202 -250.55669 
L 389.303697 -250.55669 
L 384.186191 -250.55669 
L 379.068686 -250.55669 
L 373.95118 -250.55669 
L 368.833675 -250.55669 
L 363.716169 -250.55669 
L 358.598664 -250.55669 
L 353.481158 -250.556545 
L 348.363653 -250.556255 
L 343.246148 -250.555821 
L 338.128642 -250.555241 
L 333.011137 -250.554517 
L 327.893631 -250.553648 
L 322.776126 -250.552634 
L 317.65862 -250.551476 
L 312.541115 -250.550172 
L 307.423609 -250.548724 
L 302.306104 -250.547131 
L 297.188599 -250.545393 
L 292.071093 -250.54351 
L 286.953588 -250.541483 
L 281.836082 -250.53931 
L 276.718577 -250.536993 
L 271.601071 -250.534531 
L 266.483566 -250.531924 
L 261.36606 -250.529172 
L 256.248555 -250.526276 
L 251.13105 -250.523524 
L 246.013544 -250.520917 
L 240.896039 -250.518455 
L 235.778533 -250.516138 
L 230.661028 -250.513966 
L 225.543522 -250.511938 
L 220.426017 -250.510055 
L 215.308511 -250.508317 
L 210.191006 -250.506724 
L 205.073501 -250.505276 
L 199.955995 -250.503972 
L 194.83849 -250.502814 
L 189.720984 -250.5018 
L 184.603479 -250.500931 
L 179.485973 -250.500207 
L 174.368468 -250.499628 
L 169.250962 -250.499193 
L 164.133457 -250.498903 
L 159.015952 -250.498759 
L 153.898446 -250.498759 
L 148.780941 -250.498759 
L 143.663435 -250.498759 
L 138.54593 -250.498759 
L 133.428424 -250.498759 
L 128.310919 -250.498759 
L 123.193413 -250.498759 
L 118.075908 -250.498759 
L 112.958402 -250.498759 
L 107.840897 -250.498759 
L 102.723392 -250.498759 
z
" style="stroke: #57db94; stroke-opacity: 0.65"/>
    </defs>
    <g clip-path="url(#p53a9a766d6)">
     <use xlink:href="#m82aa20e655" x="0" y="280.512" style="fill: #57db94; fill-opacity: 0.65; stroke: #57db94; stroke-opacity: 0.65"/>
    </g>
   </g>
   <g id="PolyCollection_22">
    <defs>
     <path id="m8dfda2ee44" d="M 102.723392 -260.752552 
L 102.723392 -260.578759 
L 107.840897 -260.578759 
L 112.958402 -260.578759 
L 118.075908 -260.578759 
L 123.193413 -260.578759 
L 128.310919 -260.578759 
L 133.428424 -260.578759 
L 138.54593 -260.578759 
L 143.663435 -260.578759 
L 148.780941 -260.578759 
L 153.898446 -260.578759 
L 159.015952 -260.578759 
L 164.133457 -259.986124 
L 169.250962 -258.800855 
L 174.368468 -257.022952 
L 179.485973 -254.652414 
L 184.603479 -251.689241 
L 189.720984 -248.133434 
L 194.83849 -243.984993 
L 199.955995 -239.243917 
L 205.073501 -233.910207 
L 210.191006 -227.983862 
L 215.308511 -221.464883 
L 220.426017 -214.353269 
L 225.543522 -206.649021 
L 230.661028 -198.352138 
L 235.778533 -189.462621 
L 240.896039 -179.980469 
L 246.013544 -169.905683 
L 251.13105 -159.238262 
L 256.248555 -147.978207 
L 261.36606 -136.125517 
L 266.483566 -124.865462 
L 271.601071 -114.198041 
L 276.718577 -104.123255 
L 281.836082 -94.641103 
L 286.953588 -85.751586 
L 292.071093 -77.454703 
L 297.188599 -69.750455 
L 302.306104 -62.638841 
L 307.423609 -56.119862 
L 312.541115 -50.193517 
L 317.65862 -44.859807 
L 322.776126 -40.118731 
L 327.893631 -35.97029 
L 333.011137 -32.414483 
L 338.128642 -29.45131 
L 343.246148 -27.080772 
L 348.363653 -25.302869 
L 353.481158 -24.1176 
L 358.598664 -23.524966 
L 363.716169 -23.524966 
L 368.833675 -23.524966 
L 373.95118 -23.524966 
L 379.068686 -23.524966 
L 384.186191 -23.524966 
L 389.303697 -23.524966 
L 394.421202 -23.524966 
L 399.538707 -23.524966 
L 404.656213 -23.524966 
L 409.773718 -23.524966 
L 414.891224 -23.524966 
L 414.891224 -23.698759 
L 414.891224 -23.698759 
L 409.773718 -23.698759 
L 404.656213 -23.698759 
L 399.538707 -23.698759 
L 394.421202 -23.698759 
L 389.303697 -23.698759 
L 384.186191 -23.698759 
L 379.068686 -23.698759 
L 373.95118 -23.698759 
L 368.833675 -23.698759 
L 363.716169 -23.698759 
L 358.598664 -23.698759 
L 353.481158 -24.291393 
L 348.363653 -25.476662 
L 343.246148 -27.254566 
L 338.128642 -29.625103 
L 333.011137 -32.588276 
L 327.893631 -36.144083 
L 322.776126 -40.292524 
L 317.65862 -45.0336 
L 312.541115 -50.36731 
L 307.423609 -56.293655 
L 302.306104 -62.812634 
L 297.188599 -69.924248 
L 292.071093 -77.628497 
L 286.953588 -85.925379 
L 281.836082 -94.814897 
L 276.718577 -104.297048 
L 271.601071 -114.371834 
L 266.483566 -125.039255 
L 261.36606 -136.29931 
L 256.248555 -148.152 
L 251.13105 -159.412055 
L 246.013544 -170.079476 
L 240.896039 -180.154262 
L 235.778533 -189.636414 
L 230.661028 -198.525931 
L 225.543522 -206.822814 
L 220.426017 -214.527062 
L 215.308511 -221.638676 
L 210.191006 -228.157655 
L 205.073501 -234.084 
L 199.955995 -239.41771 
L 194.83849 -244.158786 
L 189.720984 -248.307228 
L 184.603479 -251.863034 
L 179.485973 -254.826207 
L 174.368468 -257.196745 
L 169.250962 -258.974648 
L 164.133457 -260.159917 
L 159.015952 -260.752552 
L 153.898446 -260.752552 
L 148.780941 -260.752552 
L 143.663435 -260.752552 
L 138.54593 -260.752552 
L 133.428424 -260.752552 
L 128.310919 -260.752552 
L 123.193413 -260.752552 
L 118.075908 -260.752552 
L 112.958402 -260.752552 
L 107.840897 -260.752552 
L 102.723392 -260.752552 
z
" style="stroke: #db5f57; stroke-opacity: 0.65"/>
    </defs>
    <g clip-path="url(#p53a9a766d6)">
     <use xlink:href="#m8dfda2ee44" x="0" y="280.512" style="fill: #db5f57; fill-opacity: 0.65; stroke: #db5f57; stroke-opacity: 0.65"/>
    </g>
   </g>
   <g id="PolyCollection_23">
    <defs>
     <path id="m06387c268e" d="M 102.723392 -261.216 
L 102.723392 -260.752552 
L 107.840897 -260.752552 
L 112.958402 -260.752552 
L 118.075908 -260.752552 
L 123.193413 -260.752552 
L 128.310919 -260.752552 
L 133.428424 -260.752552 
L 138.54593 -260.752552 
L 143.663435 -260.752552 
L 148.780941 -260.752552 
L 153.898446 -260.752552 
L 159.015952 -260.752552 
L 164.133457 -260.752552 
L 169.250962 -260.752552 
L 174.368468 -260.752552 
L 179.485973 -260.752552 
L 184.603479 -260.752552 
L 189.720984 -260.752552 
L 194.83849 -260.752552 
L 199.955995 -260.752552 
L 205.073501 -260.752552 
L 210.191006 -260.752552 
L 215.308511 -260.752552 
L 220.426017 -260.752552 
L 225.543522 -260.752552 
L 230.661028 -260.752552 
L 235.778533 -260.752552 
L 240.896039 -260.752552 
L 246.013544 -260.752552 
L 251.13105 -260.752552 
L 256.248555 -260.752552 
L 261.36606 -260.752552 
L 266.483566 -260.752552 
L 271.601071 -260.752552 
L 276.718577 -260.752552 
L 281.836082 -260.752552 
L 286.953588 -260.752552 
L 292.071093 -260.752552 
L 297.188599 -260.752552 
L 302.306104 -260.752552 
L 307.423609 -260.752552 
L 312.541115 -260.752552 
L 317.65862 -260.752552 
L 322.776126 -260.752552 
L 327.893631 -260.752552 
L 333.011137 -260.752552 
L 338.128642 -260.752552 
L 343.246148 -260.752552 
L 348.363653 -260.752552 
L 353.481158 -260.752552 
L 358.598664 -260.752552 
L 363.716169 -260.752552 
L 368.833675 -260.752552 
L 373.95118 -260.752552 
L 379.068686 -260.752552 
L 384.186191 -260.752552 
L 389.303697 -260.752552 
L 394.421202 -260.752552 
L 399.538707 -260.752552 
L 404.656213 -260.752552 
L 409.773718 -260.752552 
L 414.891224 -260.752552 
L 414.891224 -261.216 
L 414.891224 -261.216 
L 409.773718 -261.216 
L 404.656213 -261.216 
L 399.538707 -261.216 
L 394.421202 -261.216 
L 389.303697 -261.216 
L 384.186191 -261.216 
L 379.068686 -261.216 
L 373.95118 -261.216 
L 368.833675 -261.216 
L 363.716169 -261.216 
L 358.598664 -261.216 
L 353.481158 -261.216 
L 348.363653 -261.216 
L 343.246148 -261.216 
L 338.128642 -261.216 
L 333.011137 -261.216 
L 327.893631 -261.216 
L 322.776126 -261.216 
L 317.65862 -261.216 
L 312.541115 -261.216 
L 307.423609 -261.216 
L 302.306104 -261.216 
L 297.188599 -261.216 
L 292.071093 -261.216 
L 286.953588 -261.216 
L 281.836082 -261.216 
L 276.718577 -261.216 
L 271.601071 -261.216 
L 266.483566 -261.216 
L 261.36606 -261.216 
L 256.248555 -261.216 
L 251.13105 -261.216 
L 246.013544 -261.216 
L 240.896039 -261.216 
L 235.778533 -261.216 
L 230.661028 -261.216 
L 225.543522 -261.216 
L 220.426017 -261.216 
L 215.308511 -261.216 
L 210.191006 -261.216 
L 205.073501 -261.216 
L 199.955995 -261.216 
L 194.83849 -261.216 
L 189.720984 -261.216 
L 184.603479 -261.216 
L 179.485973 -261.216 
L 174.368468 -261.216 
L 169.250962 -261.216 
L 164.133457 -261.216 
L 159.015952 -261.216 
L 153.898446 -261.216 
L 148.780941 -261.216 
L 143.663435 -261.216 
L 138.54593 -261.216 
L 133.428424 -261.216 
L 128.310919 -261.216 
L 123.193413 -261.216 
L 118.075908 -261.216 
L 112.958402 -261.216 
L 107.840897 -261.216 
L 102.723392 -261.216 
z
" style="stroke: #db5f57; stroke-opacity: 0.65"/>
    </defs>
    <g clip-path="url(#p53a9a766d6)">
     <use xlink:href="#m06387c268e" x="0" y="280.512" style="fill: #db5f57; fill-opacity: 0.65; stroke: #db5f57; stroke-opacity: 0.65"/>
    </g>
   </g>
   <g id="text_1">
    <!-- B cells -->
    <g transform="translate(57.8175 261.569707) scale(0.08 -0.08)">
     <defs>
      <path id="DejaVuSans-Bold-42" d="M 2456 2859 
Q 2741 2859 2887 2984 
Q 3034 3109 3034 3353 
Q 3034 3594 2887 3720 
Q 2741 3847 2456 3847 
L 1791 3847 
L 1791 2859 
L 2456 2859 
z
M 2497 819 
Q 2859 819 3042 972 
Q 3225 1125 3225 1434 
Q 3225 1738 3044 1889 
Q 2863 2041 2497 2041 
L 1791 2041 
L 1791 819 
L 2497 819 
z
M 3616 2497 
Q 4003 2384 4215 2081 
Q 4428 1778 4428 1338 
Q 4428 663 3972 331 
Q 3516 0 2584 0 
L 588 0 
L 588 4666 
L 2394 4666 
Q 3366 4666 3802 4372 
Q 4238 4078 4238 3431 
Q 4238 3091 4078 2852 
Q 3919 2613 3616 2497 
z
" transform="scale(0.015625)"/>
      <path id="DejaVuSans-Bold-20" transform="scale(0.015625)"/>
      <path id="DejaVuSans-Bold-63" d="M 3366 3391 
L 3366 2478 
Q 3138 2634 2908 2709 
Q 2678 2784 2431 2784 
Q 1963 2784 1702 2511 
Q 1441 2238 1441 1747 
Q 1441 1256 1702 982 
Q 1963 709 2431 709 
Q 2694 709 2930 787 
Q 3166 866 3366 1019 
L 3366 103 
Q 3103 6 2833 -42 
Q 2563 -91 2291 -91 
Q 1344 -91 809 395 
Q 275 881 275 1747 
Q 275 2613 809 3098 
Q 1344 3584 2291 3584 
Q 2566 3584 2833 3536 
Q 3100 3488 3366 3391 
z
" transform="scale(0.015625)"/>
      <path id="DejaVuSans-Bold-65" d="M 4031 1759 
L 4031 1441 
L 1416 1441 
Q 1456 1047 1700 850 
Q 1944 653 2381 653 
Q 2734 653 3104 758 
Q 3475 863 3866 1075 
L 3866 213 
Q 3469 63 3072 -14 
Q 2675 -91 2278 -91 
Q 1328 -91 801 392 
Q 275 875 275 1747 
Q 275 2603 792 3093 
Q 1309 3584 2216 3584 
Q 3041 3584 3536 3087 
Q 4031 2591 4031 1759 
z
M 2881 2131 
Q 2881 2450 2695 2645 
Q 2509 2841 2209 2841 
Q 1884 2841 1681 2658 
Q 1478 2475 1428 2131 
L 2881 2131 
z
" transform="scale(0.015625)"/>
      <path id="DejaVuSans-Bold-6c" d="M 538 4863 
L 1656 4863 
L 1656 0 
L 538 0 
L 538 4863 
z
" transform="scale(0.015625)"/>
      <path id="DejaVuSans-Bold-73" d="M 3272 3391 
L 3272 2541 
Q 2913 2691 2578 2766 
Q 2244 2841 1947 2841 
Q 1628 2841 1473 2761 
Q 1319 2681 1319 2516 
Q 1319 2381 1436 2309 
Q 1553 2238 1856 2203 
L 2053 2175 
Q 2913 2066 3209 1816 
Q 3506 1566 3506 1031 
Q 3506 472 3093 190 
Q 2681 -91 1863 -91 
Q 1516 -91 1145 -36 
Q 775 19 384 128 
L 384 978 
Q 719 816 1070 734 
Q 1422 653 1784 653 
Q 2113 653 2278 743 
Q 2444 834 2444 1013 
Q 2444 1163 2330 1236 
Q 2216 1309 1875 1350 
L 1678 1375 
Q 931 1469 631 1722 
Q 331 1975 331 2491 
Q 331 3047 712 3315 
Q 1094 3584 1881 3584 
Q 2191 3584 2531 3537 
Q 2872 3491 3272 3391 
z
" transform="scale(0.015625)"/>
     </defs>
     <use xlink:href="#DejaVuSans-Bold-42"/>
     <use xlink:href="#DejaVuSans-Bold-20" x="76.220703"/>
     <use xlink:href="#DejaVuSans-Bold-63" x="111.035156"/>
     <use xlink:href="#DejaVuSans-Bold-65" x="170.3125"/>
     <use xlink:href="#DejaVuSans-Bold-6c" x="238.134766"/>
     <use xlink:href="#DejaVuSans-Bold-6c" x="272.412109"/>
     <use xlink:href="#DejaVuSans-Bold-73" x="306.689453"/>
    </g>
   </g>
   <g id="text_2">
    <!-- Endothelial I cells -->
    <g transform="translate(7.2 249.230397) scale(0.08 -0.08)">
     <defs>
      <path id="DejaVuSans-Bold-45" d="M 588 4666 
L 3834 4666 
L 3834 3756 
L 1791 3756 
L 1791 2888 
L 3713 2888 
L 3713 1978 
L 1791 1978 
L 1791 909 
L 3903 909 
L 3903 0 
L 588 0 
L 588 4666 
z
" transform="scale(0.015625)"/>
      <path id="DejaVuSans-Bold-6e" d="M 4056 2131 
L 4056 0 
L 2931 0 
L 2931 347 
L 2931 1631 
Q 2931 2084 2911 2256 
Q 2891 2428 2841 2509 
Q 2775 2619 2662 2680 
Q 2550 2741 2406 2741 
Q 2056 2741 1856 2470 
Q 1656 2200 1656 1722 
L 1656 0 
L 538 0 
L 538 3500 
L 1656 3500 
L 1656 2988 
Q 1909 3294 2193 3439 
Q 2478 3584 2822 3584 
Q 3428 3584 3742 3212 
Q 4056 2841 4056 2131 
z
" transform="scale(0.015625)"/>
      <path id="DejaVuSans-Bold-64" d="M 2919 2988 
L 2919 4863 
L 4044 4863 
L 4044 0 
L 2919 0 
L 2919 506 
Q 2688 197 2409 53 
Q 2131 -91 1766 -91 
Q 1119 -91 703 423 
Q 288 938 288 1747 
Q 288 2556 703 3070 
Q 1119 3584 1766 3584 
Q 2128 3584 2408 3439 
Q 2688 3294 2919 2988 
z
M 2181 722 
Q 2541 722 2730 984 
Q 2919 1247 2919 1747 
Q 2919 2247 2730 2509 
Q 2541 2772 2181 2772 
Q 1825 2772 1636 2509 
Q 1447 2247 1447 1747 
Q 1447 1247 1636 984 
Q 1825 722 2181 722 
z
" transform="scale(0.015625)"/>
      <path id="DejaVuSans-Bold-6f" d="M 2203 2784 
Q 1831 2784 1636 2517 
Q 1441 2250 1441 1747 
Q 1441 1244 1636 976 
Q 1831 709 2203 709 
Q 2569 709 2762 976 
Q 2956 1244 2956 1747 
Q 2956 2250 2762 2517 
Q 2569 2784 2203 2784 
z
M 2203 3584 
Q 3106 3584 3614 3096 
Q 4122 2609 4122 1747 
Q 4122 884 3614 396 
Q 3106 -91 2203 -91 
Q 1297 -91 786 396 
Q 275 884 275 1747 
Q 275 2609 786 3096 
Q 1297 3584 2203 3584 
z
" transform="scale(0.015625)"/>
      <path id="DejaVuSans-Bold-74" d="M 1759 4494 
L 1759 3500 
L 2913 3500 
L 2913 2700 
L 1759 2700 
L 1759 1216 
Q 1759 972 1856 886 
Q 1953 800 2241 800 
L 2816 800 
L 2816 0 
L 1856 0 
Q 1194 0 917 276 
Q 641 553 641 1216 
L 641 2700 
L 84 2700 
L 84 3500 
L 641 3500 
L 641 4494 
L 1759 4494 
z
" transform="scale(0.015625)"/>
      <path id="DejaVuSans-Bold-68" d="M 4056 2131 
L 4056 0 
L 2931 0 
L 2931 347 
L 2931 1625 
Q 2931 2084 2911 2256 
Q 2891 2428 2841 2509 
Q 2775 2619 2662 2680 
Q 2550 2741 2406 2741 
Q 2056 2741 1856 2470 
Q 1656 2200 1656 1722 
L 1656 0 
L 538 0 
L 538 4863 
L 1656 4863 
L 1656 2988 
Q 1909 3294 2193 3439 
Q 2478 3584 2822 3584 
Q 3428 3584 3742 3212 
Q 4056 2841 4056 2131 
z
" transform="scale(0.015625)"/>
      <path id="DejaVuSans-Bold-69" d="M 538 3500 
L 1656 3500 
L 1656 0 
L 538 0 
L 538 3500 
z
M 538 4863 
L 1656 4863 
L 1656 3950 
L 538 3950 
L 538 4863 
z
" transform="scale(0.015625)"/>
      <path id="DejaVuSans-Bold-61" d="M 2106 1575 
Q 1756 1575 1579 1456 
Q 1403 1338 1403 1106 
Q 1403 894 1545 773 
Q 1688 653 1941 653 
Q 2256 653 2472 879 
Q 2688 1106 2688 1447 
L 2688 1575 
L 2106 1575 
z
M 3816 1997 
L 3816 0 
L 2688 0 
L 2688 519 
Q 2463 200 2181 54 
Q 1900 -91 1497 -91 
Q 953 -91 614 226 
Q 275 544 275 1050 
Q 275 1666 698 1953 
Q 1122 2241 2028 2241 
L 2688 2241 
L 2688 2328 
Q 2688 2594 2478 2717 
Q 2269 2841 1825 2841 
Q 1466 2841 1156 2769 
Q 847 2697 581 2553 
L 581 3406 
Q 941 3494 1303 3539 
Q 1666 3584 2028 3584 
Q 2975 3584 3395 3211 
Q 3816 2838 3816 1997 
z
" transform="scale(0.015625)"/>
      <path id="DejaVuSans-Bold-49" d="M 588 4666 
L 1791 4666 
L 1791 0 
L 588 0 
L 588 4666 
z
" transform="scale(0.015625)"/>
     </defs>
     <use xlink:href="#DejaVuSans-Bold-45"/>
     <use xlink:href="#DejaVuSans-Bold-6e" x="68.310547"/>
     <use xlink:href="#DejaVuSans-Bold-64" x="139.501953"/>
     <use xlink:href="#DejaVuSans-Bold-6f" x="211.083984"/>
     <use xlink:href="#DejaVuSans-Bold-74" x="279.785156"/>
     <use xlink:href="#DejaVuSans-Bold-68" x="327.587891"/>
     <use xlink:href="#DejaVuSans-Bold-65" x="398.779297"/>
     <use xlink:href="#DejaVuSans-Bold-6c" x="466.601562"/>
     <use xlink:href="#DejaVuSans-Bold-69" x="500.878906"/>
     <use xlink:href="#DejaVuSans-Bold-61" x="535.15625"/>
     <use xlink:href="#DejaVuSans-Bold-6c" x="602.636719"/>
     <use xlink:href="#DejaVuSans-Bold-20" x="636.914062"/>
     <use xlink:href="#DejaVuSans-Bold-49" x="671.728516"/>
     <use xlink:href="#DejaVuSans-Bold-20" x="708.935547"/>
     <use xlink:href="#DejaVuSans-Bold-63" x="743.75"/>
     <use xlink:href="#DejaVuSans-Bold-65" x="803.027344"/>
     <use xlink:href="#DejaVuSans-Bold-6c" x="870.849609"/>
     <use xlink:href="#DejaVuSans-Bold-6c" x="905.126953"/>
     <use xlink:href="#DejaVuSans-Bold-73" x="939.404297"/>
    </g>
   </g>
   <g id="text_3">
    <!-- Enterocytes -->
    <g transform="translate(33.295 141.850655) scale(0.08 -0.08)">
     <defs>
      <path id="DejaVuSans-Bold-72" d="M 3138 2547 
Q 2991 2616 2845 2648 
Q 2700 2681 2553 2681 
Q 2122 2681 1889 2404 
Q 1656 2128 1656 1613 
L 1656 0 
L 538 0 
L 538 3500 
L 1656 3500 
L 1656 2925 
Q 1872 3269 2151 3426 
Q 2431 3584 2822 3584 
Q 2878 3584 2943 3579 
Q 3009 3575 3134 3559 
L 3138 2547 
z
" transform="scale(0.015625)"/>
      <path id="DejaVuSans-Bold-79" d="M 78 3500 
L 1197 3500 
L 2138 1125 
L 2938 3500 
L 4056 3500 
L 2584 -331 
Q 2363 -916 2067 -1148 
Q 1772 -1381 1288 -1381 
L 641 -1381 
L 641 -647 
L 991 -647 
Q 1275 -647 1404 -556 
Q 1534 -466 1606 -231 
L 1638 -134 
L 78 3500 
z
" transform="scale(0.015625)"/>
     </defs>
     <use xlink:href="#DejaVuSans-Bold-45"/>
     <use xlink:href="#DejaVuSans-Bold-6e" x="68.310547"/>
     <use xlink:href="#DejaVuSans-Bold-74" x="139.501953"/>
     <use xlink:href="#DejaVuSans-Bold-65" x="187.304688"/>
     <use xlink:href="#DejaVuSans-Bold-72" x="255.126953"/>
     <use xlink:href="#DejaVuSans-Bold-6f" x="304.443359"/>
     <use xlink:href="#DejaVuSans-Bold-63" x="373.144531"/>
     <use xlink:href="#DejaVuSans-Bold-79" x="432.421875"/>
     <use xlink:href="#DejaVuSans-Bold-74" x="497.607422"/>
     <use xlink:href="#DejaVuSans-Bold-65" x="545.410156"/>
     <use xlink:href="#DejaVuSans-Bold-73" x="613.232422"/>
    </g>
   </g>
   <g id="text_4">
    <!-- Macrophages -->
    <g transform="translate(26.8375 33.579836) scale(0.08 -0.08)">
     <defs>
      <path id="DejaVuSans-Bold-4d" d="M 588 4666 
L 2119 4666 
L 3181 2169 
L 4250 4666 
L 5778 4666 
L 5778 0 
L 4641 0 
L 4641 3413 
L 3566 897 
L 2803 897 
L 1728 3413 
L 1728 0 
L 588 0 
L 588 4666 
z
" transform="scale(0.015625)"/>
      <path id="DejaVuSans-Bold-70" d="M 1656 506 
L 1656 -1331 
L 538 -1331 
L 538 3500 
L 1656 3500 
L 1656 2988 
Q 1888 3294 2169 3439 
Q 2450 3584 2816 3584 
Q 3463 3584 3878 3070 
Q 4294 2556 4294 1747 
Q 4294 938 3878 423 
Q 3463 -91 2816 -91 
Q 2450 -91 2169 54 
Q 1888 200 1656 506 
z
M 2400 2772 
Q 2041 2772 1848 2508 
Q 1656 2244 1656 1747 
Q 1656 1250 1848 986 
Q 2041 722 2400 722 
Q 2759 722 2948 984 
Q 3138 1247 3138 1747 
Q 3138 2247 2948 2509 
Q 2759 2772 2400 2772 
z
" transform="scale(0.015625)"/>
      <path id="DejaVuSans-Bold-67" d="M 2919 594 
Q 2688 288 2409 144 
Q 2131 0 1766 0 
Q 1125 0 706 504 
Q 288 1009 288 1791 
Q 288 2575 706 3076 
Q 1125 3578 1766 3578 
Q 2131 3578 2409 3434 
Q 2688 3291 2919 2981 
L 2919 3500 
L 4044 3500 
L 4044 353 
Q 4044 -491 3511 -936 
Q 2978 -1381 1966 -1381 
Q 1638 -1381 1331 -1331 
Q 1025 -1281 716 -1178 
L 716 -306 
Q 1009 -475 1290 -558 
Q 1572 -641 1856 -641 
Q 2406 -641 2662 -400 
Q 2919 -159 2919 353 
L 2919 594 
z
M 2181 2772 
Q 1834 2772 1640 2515 
Q 1447 2259 1447 1791 
Q 1447 1309 1634 1061 
Q 1822 813 2181 813 
Q 2531 813 2725 1069 
Q 2919 1325 2919 1791 
Q 2919 2259 2725 2515 
Q 2531 2772 2181 2772 
z
" transform="scale(0.015625)"/>
     </defs>
     <use xlink:href="#DejaVuSans-Bold-4d"/>
     <use xlink:href="#DejaVuSans-Bold-61" x="99.511719"/>
     <use xlink:href="#DejaVuSans-Bold-63" x="166.992188"/>
     <use xlink:href="#DejaVuSans-Bold-72" x="226.269531"/>
     <use xlink:href="#DejaVuSans-Bold-6f" x="275.585938"/>
     <use xlink:href="#DejaVuSans-Bold-70" x="344.287109"/>
     <use xlink:href="#DejaVuSans-Bold-68" x="415.869141"/>
     <use xlink:href="#DejaVuSans-Bold-61" x="487.060547"/>
     <use xlink:href="#DejaVuSans-Bold-67" x="554.541016"/>
     <use xlink:href="#DejaVuSans-Bold-65" x="626.123047"/>
     <use xlink:href="#DejaVuSans-Bold-73" x="693.945312"/>
    </g>
   </g>
   <g id="text_5">
    <!-- T cells -->
    <g transform="translate(58.4575 21.822121) scale(0.08 -0.08)">
     <defs>
      <path id="DejaVuSans-Bold-54" d="M 31 4666 
L 4331 4666 
L 4331 3756 
L 2784 3756 
L 2784 0 
L 1581 0 
L 1581 3756 
L 31 3756 
L 31 4666 
z
" transform="scale(0.015625)"/>
     </defs>
     <use xlink:href="#DejaVuSans-Bold-54"/>
     <use xlink:href="#DejaVuSans-Bold-20" x="68.212891"/>
     <use xlink:href="#DejaVuSans-Bold-63" x="103.027344"/>
     <use xlink:href="#DejaVuSans-Bold-65" x="162.304688"/>
     <use xlink:href="#DejaVuSans-Bold-6c" x="230.126953"/>
     <use xlink:href="#DejaVuSans-Bold-6c" x="264.404297"/>
     <use xlink:href="#DejaVuSans-Bold-73" x="298.681641"/>
    </g>
   </g>
   <g id="text_6">
    <!-- B cells -->
    <g transform="translate(430.499615 261.222121) scale(0.08 -0.08)">
     <use xlink:href="#DejaVuSans-Bold-42"/>
     <use xlink:href="#DejaVuSans-Bold-20" x="76.220703"/>
     <use xlink:href="#DejaVuSans-Bold-63" x="111.035156"/>
     <use xlink:href="#DejaVuSans-Bold-65" x="170.3125"/>
     <use xlink:href="#DejaVuSans-Bold-6c" x="238.134766"/>
     <use xlink:href="#DejaVuSans-Bold-6c" x="272.412109"/>
     <use xlink:href="#DejaVuSans-Bold-73" x="306.689453"/>
    </g>
   </g>
   <g id="text_7">
    <!-- Endothelial I cells -->
    <g transform="translate(430.499615 248.535224) scale(0.08 -0.08)">
     <use xlink:href="#DejaVuSans-Bold-45"/>
     <use xlink:href="#DejaVuSans-Bold-6e" x="68.310547"/>
     <use xlink:href="#DejaVuSans-Bold-64" x="139.501953"/>
     <use xlink:href="#DejaVuSans-Bold-6f" x="211.083984"/>
     <use xlink:href="#DejaVuSans-Bold-74" x="279.785156"/>
     <use xlink:href="#DejaVuSans-Bold-68" x="327.587891"/>
     <use xlink:href="#DejaVuSans-Bold-65" x="398.779297"/>
     <use xlink:href="#DejaVuSans-Bold-6c" x="466.601562"/>
     <use xlink:href="#DejaVuSans-Bold-69" x="500.878906"/>
     <use xlink:href="#DejaVuSans-Bold-61" x="535.15625"/>
     <use xlink:href="#DejaVuSans-Bold-6c" x="602.636719"/>
     <use xlink:href="#DejaVuSans-Bold-20" x="636.914062"/>
     <use xlink:href="#DejaVuSans-Bold-49" x="671.728516"/>
     <use xlink:href="#DejaVuSans-Bold-20" x="708.935547"/>
     <use xlink:href="#DejaVuSans-Bold-63" x="743.75"/>
     <use xlink:href="#DejaVuSans-Bold-65" x="803.027344"/>
     <use xlink:href="#DejaVuSans-Bold-6c" x="870.849609"/>
     <use xlink:href="#DejaVuSans-Bold-6c" x="905.126953"/>
     <use xlink:href="#DejaVuSans-Bold-73" x="939.404297"/>
    </g>
   </g>
   <g id="text_8">
    <!-- Enterocytes -->
    <g transform="translate(430.499615 140.894793) scale(0.08 -0.08)">
     <use xlink:href="#DejaVuSans-Bold-45"/>
     <use xlink:href="#DejaVuSans-Bold-6e" x="68.310547"/>
     <use xlink:href="#DejaVuSans-Bold-74" x="139.501953"/>
     <use xlink:href="#DejaVuSans-Bold-65" x="187.304688"/>
     <use xlink:href="#DejaVuSans-Bold-72" x="255.126953"/>
     <use xlink:href="#DejaVuSans-Bold-6f" x="304.443359"/>
     <use xlink:href="#DejaVuSans-Bold-63" x="373.144531"/>
     <use xlink:href="#DejaVuSans-Bold-79" x="432.421875"/>
     <use xlink:href="#DejaVuSans-Bold-74" x="497.607422"/>
     <use xlink:href="#DejaVuSans-Bold-65" x="545.410156"/>
     <use xlink:href="#DejaVuSans-Bold-73" x="613.232422"/>
    </g>
   </g>
   <g id="text_9">
    <!-- Macrophages -->
    <g transform="translate(430.499615 32.942595) scale(0.08 -0.08)">
     <use xlink:href="#DejaVuSans-Bold-4d"/>
     <use xlink:href="#DejaVuSans-Bold-61" x="99.511719"/>
     <use xlink:href="#DejaVuSans-Bold-63" x="166.992188"/>
     <use xlink:href="#DejaVuSans-Bold-72" x="226.269531"/>
     <use xlink:href="#DejaVuSans-Bold-6f" x="275.585938"/>
     <use xlink:href="#DejaVuSans-Bold-70" x="344.287109"/>
     <use xlink:href="#DejaVuSans-Bold-68" x="415.869141"/>
     <use xlink:href="#DejaVuSans-Bold-61" x="487.060547"/>
     <use xlink:href="#DejaVuSans-Bold-67" x="554.541016"/>
     <use xlink:href="#DejaVuSans-Bold-65" x="626.123047"/>
     <use xlink:href="#DejaVuSans-Bold-73" x="693.945312"/>
    </g>
   </g>
   <g id="text_10">
    <!-- T cells -->
    <g transform="translate(430.499615 21.793155) scale(0.08 -0.08)">
     <use xlink:href="#DejaVuSans-Bold-54"/>
     <use xlink:href="#DejaVuSans-Bold-20" x="68.212891"/>
     <use xlink:href="#DejaVuSans-Bold-63" x="103.027344"/>
     <use xlink:href="#DejaVuSans-Bold-65" x="162.304688"/>
     <use xlink:href="#DejaVuSans-Bold-6c" x="230.126953"/>
     <use xlink:href="#DejaVuSans-Bold-6c" x="264.404297"/>
     <use xlink:href="#DejaVuSans-Bold-73" x="298.681641"/>
    </g>
   </g>
  </g>
 </g>
 <defs>
  <clipPath id="p53a9a766d6">
   <rect x="80.247308" y="7.2" width="357.12" height="266.112"/>
  </clipPath>
 </defs>
</svg>
