<?xml version="1.0" encoding="utf-8" standalone="no"?>
<!DOCTYPE svg PUBLIC "-//W3C//DTD SVG 1.1//EN"
  "http://www.w3.org/Graphics/SVG/1.1/DTD/svg11.dtd">
<svg xmlns:xlink="http://www.w3.org/1999/xlink" width="556.70149pt" height="280.512pt" viewBox="0 0 556.70149 280.512" xmlns="http://www.w3.org/2000/svg" version="1.1">
 <metadata>
  <rdf:RDF xmlns:dc="http://purl.org/dc/elements/1.1/" xmlns:cc="http://creativecommons.org/ns#" xmlns:rdf="http://www.w3.org/1999/02/22-rdf-syntax-ns#">
   <cc:Work>
    <dc:type rdf:resource="http://purl.org/dc/dcmitype/StillImage"/>
    <dc:date>2025-03-16T19:43:59.795983</dc:date>
    <dc:format>image/svg+xml</dc:format>
    <dc:creator>
     <cc:Agent>
      <dc:title>Matplotlib v3.9.3, https://matplotlib.org/</dc:title>
     </cc:Agent>
    </dc:creator>
   </cc:Work>
  </rdf:RDF>
 </metadata>
 <defs>
  <style type="text/css">*{stroke-linejoin: round; stroke-linecap: butt}</style>
 </defs>
 <g id="figure_1">
  <g id="patch_1">
   <path d="M 0 280.512 
L 556.70149 280.512 
L 556.70149 0 
L 0 0 
z
" style="fill: #ffffff"/>
  </g>
  <g id="axes_1">
   <g id="PolyCollection_1">
    <defs>
     <path id="m1999dad96e" d="M 115.37191 -99.402691 
L 115.37191 -19.296 
L 121.615267 -19.296 
L 121.615267 -99.402691 
L 121.615267 -99.402691 
L 115.37191 -99.402691 
z
" style="stroke: #57db5f; stroke-opacity: 0.99"/>
    </defs>
    <g clip-path="url(#paabbbd5100)">
     <use xlink:href="#m1999dad96e" x="0" y="280.512" style="fill: #57db5f; fill-opacity: 0.99; stroke: #57db5f; stroke-opacity: 0.99"/>
    </g>
   </g>
   <g id="PolyCollection_2">
    <defs>
     <path id="m302c6dd472" d="M 115.37191 -125.85114 
L 115.37191 -109.079491 
L 121.615267 -109.079491 
L 121.615267 -125.85114 
L 121.615267 -125.85114 
L 115.37191 -125.85114 
z
" style="stroke: #5f57db; stroke-opacity: 0.99"/>
    </defs>
    <g clip-path="url(#paabbbd5100)">
     <use xlink:href="#m302c6dd472" x="0" y="280.512" style="fill: #5f57db; fill-opacity: 0.99; stroke: #5f57db; stroke-opacity: 0.99"/>
    </g>
   </g>
   <g id="PolyCollection_3">
    <defs>
     <path id="meb640de7c9" d="M 115.37191 -197.538904 
L 115.37191 -135.52794 
L 121.615267 -135.52794 
L 121.615267 -197.538904 
L 121.615267 -197.538904 
L 115.37191 -197.538904 
z
" style="stroke: #db5f57; stroke-opacity: 0.99"/>
    </defs>
    <g clip-path="url(#paabbbd5100)">
     <use xlink:href="#meb640de7c9" x="0" y="280.512" style="fill: #db5f57; fill-opacity: 0.99; stroke: #db5f57; stroke-opacity: 0.99"/>
    </g>
   </g>
   <g id="PolyCollection_4">
    <defs>
     <path id="mff6c22ce80" d="M 115.37191 -213.615413 
L 115.37191 -207.215704 
L 121.615267 -207.215704 
L 121.615267 -213.615413 
L 121.615267 -213.615413 
L 115.37191 -213.615413 
z
" style="stroke: #d3db57; stroke-opacity: 0.99"/>
    </defs>
    <g clip-path="url(#paabbbd5100)">
     <use xlink:href="#mff6c22ce80" x="0" y="280.512" style="fill: #d3db57; fill-opacity: 0.99; stroke: #d3db57; stroke-opacity: 0.99"/>
    </g>
   </g>
   <g id="PolyCollection_5">
    <defs>
     <path id="m169a2b1b2e" d="M 115.37191 -251.5392 
L 115.37191 -223.292213 
L 121.615267 -223.292213 
L 121.615267 -251.5392 
L 121.615267 -251.5392 
L 115.37191 -251.5392 
z
" style="stroke: #57d3db; stroke-opacity: 0.99"/>
    </defs>
    <g clip-path="url(#paabbbd5100)">
     <use xlink:href="#m169a2b1b2e" x="0" y="280.512" style="fill: #57d3db; fill-opacity: 0.99; stroke: #57d3db; stroke-opacity: 0.99"/>
    </g>
   </g>
   <g id="PolyCollection_6">
    <defs>
     <path id="m384e3aa8c2" d="M 433.783099 -99.182011 
L 433.783099 -19.296 
L 440.026455 -19.296 
L 440.026455 -99.182011 
L 440.026455 -99.182011 
L 433.783099 -99.182011 
z
" style="stroke: #57db5f; stroke-opacity: 0.99"/>
    </defs>
    <g clip-path="url(#paabbbd5100)">
     <use xlink:href="#m384e3aa8c2" x="0" y="280.512" style="fill: #57db5f; fill-opacity: 0.99; stroke: #57db5f; stroke-opacity: 0.99"/>
    </g>
   </g>
   <g id="PolyCollection_7">
    <defs>
     <path id="m6274aad1a1" d="M 433.783099 -125.409781 
L 433.783099 -108.858811 
L 440.026455 -108.858811 
L 440.026455 -125.409781 
L 440.026455 -125.409781 
L 433.783099 -125.409781 
z
" style="stroke: #5f57db; stroke-opacity: 0.99"/>
    </defs>
    <g clip-path="url(#paabbbd5100)">
     <use xlink:href="#m6274aad1a1" x="0" y="280.512" style="fill: #5f57db; fill-opacity: 0.99; stroke: #5f57db; stroke-opacity: 0.99"/>
    </g>
   </g>
   <g id="PolyCollection_8">
    <defs>
     <path id="m59f113dd7e" d="M 433.783099 -135.30726 
L 433.783099 -135.086581 
L 440.026455 -135.086581 
L 440.026455 -135.30726 
L 440.026455 -135.30726 
L 433.783099 -135.30726 
z
" style="stroke: #db57d3; stroke-opacity: 0.99"/>
    </defs>
    <g clip-path="url(#paabbbd5100)">
     <use xlink:href="#m59f113dd7e" x="0" y="280.512" style="fill: #db57d3; fill-opacity: 0.99; stroke: #db57d3; stroke-opacity: 0.99"/>
    </g>
   </g>
   <g id="PolyCollection_9">
    <defs>
     <path id="m3c04a8a8f5" d="M 433.783099 -213.615413 
L 433.783099 -144.98406 
L 440.026455 -144.98406 
L 440.026455 -213.615413 
L 440.026455 -213.615413 
L 433.783099 -213.615413 
z
" style="stroke: #db5f57; stroke-opacity: 0.99"/>
    </defs>
    <g clip-path="url(#paabbbd5100)">
     <use xlink:href="#m3c04a8a8f5" x="0" y="280.512" style="fill: #db5f57; fill-opacity: 0.99; stroke: #db5f57; stroke-opacity: 0.99"/>
    </g>
   </g>
   <g id="PolyCollection_10">
    <defs>
     <path id="m840fb429da" d="M 433.783099 -251.097841 
L 433.783099 -223.292213 
L 440.026455 -223.292213 
L 440.026455 -251.097841 
L 440.026455 -251.097841 
L 433.783099 -251.097841 
z
" style="stroke: #d3db57; stroke-opacity: 0.99"/>
    </defs>
    <g clip-path="url(#paabbbd5100)">
     <use xlink:href="#m840fb429da" x="0" y="280.512" style="fill: #d3db57; fill-opacity: 0.99; stroke: #d3db57; stroke-opacity: 0.99"/>
    </g>
   </g>
   <g id="PolyCollection_11">
    <defs>
     <path id="mcdbaa5e1bf" d="M 433.783099 -261.216 
L 433.783099 -260.774641 
L 440.026455 -260.774641 
L 440.026455 -261.216 
L 440.026455 -261.216 
L 433.783099 -261.216 
z
" style="stroke: #57d3db; stroke-opacity: 0.99"/>
    </defs>
    <g clip-path="url(#paabbbd5100)">
     <use xlink:href="#mcdbaa5e1bf" x="0" y="280.512" style="fill: #57d3db; fill-opacity: 0.99; stroke: #57d3db; stroke-opacity: 0.99"/>
    </g>
   </g>
   <g id="PolyCollection_12">
    <defs>
     <path id="m0f445681c8" d="M 121.615267 -98.740652 
L 121.615267 -19.296 
L 126.732772 -19.296 
L 131.850277 -19.296 
L 136.967783 -19.296 
L 142.085288 -19.296 
L 147.202794 -19.296 
L 152.320299 -19.296 
L 157.437805 -19.296 
L 162.55531 -19.296 
L 167.672816 -19.296 
L 172.790321 -19.296 
L 177.907827 -19.296 
L 183.025332 -19.296 
L 188.142837 -19.296 
L 193.260343 -19.296 
L 198.377848 -19.296 
L 203.495354 -19.296 
L 208.612859 -19.296 
L 213.730365 -19.296 
L 218.84787 -19.296 
L 223.965376 -19.296 
L 229.082881 -19.296 
L 234.200386 -19.296 
L 239.317892 -19.296 
L 244.435397 -19.296 
L 249.552903 -19.296 
L 254.670408 -19.296 
L 259.787914 -19.296 
L 264.905419 -19.296 
L 270.022925 -19.296 
L 275.14043 -19.296 
L 280.257935 -19.296 
L 285.375441 -19.296 
L 290.492946 -19.296 
L 295.610452 -19.296 
L 300.727957 -19.296 
L 305.845463 -19.296 
L 310.962968 -19.296 
L 316.080474 -19.296 
L 321.197979 -19.296 
L 326.315484 -19.296 
L 331.43299 -19.296 
L 336.550495 -19.296 
L 341.668001 -19.296 
L 346.785506 -19.296 
L 351.903012 -19.296 
L 357.020517 -19.296 
L 362.138023 -19.296 
L 367.255528 -19.296 
L 372.373033 -19.296 
L 377.490539 -19.296 
L 382.608044 -19.296 
L 387.72555 -19.296 
L 392.843055 -19.296 
L 397.960561 -19.296 
L 403.078066 -19.296 
L 408.195572 -19.296 
L 413.313077 -19.296 
L 418.430582 -19.296 
L 423.548088 -19.296 
L 428.665593 -19.296 
L 433.783099 -19.296 
L 433.783099 -98.740652 
L 433.783099 -98.740652 
L 428.665593 -98.740652 
L 423.548088 -98.740652 
L 418.430582 -98.740652 
L 413.313077 -98.740652 
L 408.195572 -98.740652 
L 403.078066 -98.740652 
L 397.960561 -98.740652 
L 392.843055 -98.740652 
L 387.72555 -98.740652 
L 382.608044 -98.740652 
L 377.490539 -98.740652 
L 372.373033 -98.740652 
L 367.255528 -98.740652 
L 362.138023 -98.740652 
L 357.020517 -98.740652 
L 351.903012 -98.740652 
L 346.785506 -98.740652 
L 341.668001 -98.740652 
L 336.550495 -98.740652 
L 331.43299 -98.740652 
L 326.315484 -98.740652 
L 321.197979 -98.740652 
L 316.080474 -98.740652 
L 310.962968 -98.740652 
L 305.845463 -98.740652 
L 300.727957 -98.740652 
L 295.610452 -98.740652 
L 290.492946 -98.740652 
L 285.375441 -98.740652 
L 280.257935 -98.740652 
L 275.14043 -98.740652 
L 270.022925 -98.740652 
L 264.905419 -98.740652 
L 259.787914 -98.740652 
L 254.670408 -98.740652 
L 249.552903 -98.740652 
L 244.435397 -98.740652 
L 239.317892 -98.740652 
L 234.200386 -98.740652 
L 229.082881 -98.740652 
L 223.965376 -98.740652 
L 218.84787 -98.740652 
L 213.730365 -98.740652 
L 208.612859 -98.740652 
L 203.495354 -98.740652 
L 198.377848 -98.740652 
L 193.260343 -98.740652 
L 188.142837 -98.740652 
L 183.025332 -98.740652 
L 177.907827 -98.740652 
L 172.790321 -98.740652 
L 167.672816 -98.740652 
L 162.55531 -98.740652 
L 157.437805 -98.740652 
L 152.320299 -98.740652 
L 147.202794 -98.740652 
L 142.085288 -98.740652 
L 136.967783 -98.740652 
L 131.850277 -98.740652 
L 126.732772 -98.740652 
L 121.615267 -98.740652 
z
" style="stroke: #57db5f; stroke-opacity: 0.65"/>
    </defs>
    <g clip-path="url(#paabbbd5100)">
     <use xlink:href="#m0f445681c8" x="0" y="280.512" style="fill: #57db5f; fill-opacity: 0.65; stroke: #57db5f; stroke-opacity: 0.65"/>
    </g>
   </g>
   <g id="PolyCollection_13">
    <defs>
     <path id="m6b13089121" d="M 121.615267 -99.182011 
L 121.615267 -98.740652 
L 126.732772 -98.740652 
L 131.850277 -98.740652 
L 136.967783 -98.740652 
L 142.085288 -98.740652 
L 147.202794 -98.740652 
L 152.320299 -98.740652 
L 157.437805 -98.740652 
L 162.55531 -98.740652 
L 167.672816 -98.740652 
L 172.790321 -98.740652 
L 177.907827 -98.740652 
L 183.025332 -98.856261 
L 188.142837 -99.087478 
L 193.260343 -99.434303 
L 198.377848 -99.896737 
L 203.495354 -100.47478 
L 208.612859 -101.168431 
L 213.730365 -101.977691 
L 218.84787 -102.902559 
L 223.965376 -103.943036 
L 229.082881 -105.099121 
L 234.200386 -106.370815 
L 239.317892 -107.758117 
L 244.435397 -109.261028 
L 249.552903 -110.879547 
L 254.670408 -112.613675 
L 259.787914 -114.463411 
L 264.905419 -116.428756 
L 270.022925 -118.509709 
L 275.14043 -120.706271 
L 280.257935 -123.018441 
L 285.375441 -125.215003 
L 290.492946 -127.295957 
L 295.610452 -129.261301 
L 300.727957 -131.111038 
L 305.845463 -132.845166 
L 310.962968 -134.463685 
L 316.080474 -135.966596 
L 321.197979 -137.353898 
L 326.315484 -138.625592 
L 331.43299 -139.781677 
L 336.550495 -140.822153 
L 341.668001 -141.747022 
L 346.785506 -142.556281 
L 351.903012 -143.249932 
L 357.020517 -143.827975 
L 362.138023 -144.290409 
L 367.255528 -144.637235 
L 372.373033 -144.868452 
L 377.490539 -144.98406 
L 382.608044 -144.98406 
L 387.72555 -144.98406 
L 392.843055 -144.98406 
L 397.960561 -144.98406 
L 403.078066 -144.98406 
L 408.195572 -144.98406 
L 413.313077 -144.98406 
L 418.430582 -144.98406 
L 423.548088 -144.98406 
L 428.665593 -144.98406 
L 433.783099 -144.98406 
L 433.783099 -145.425419 
L 433.783099 -145.425419 
L 428.665593 -145.425419 
L 423.548088 -145.425419 
L 418.430582 -145.425419 
L 413.313077 -145.425419 
L 408.195572 -145.425419 
L 403.078066 -145.425419 
L 397.960561 -145.425419 
L 392.843055 -145.425419 
L 387.72555 -145.425419 
L 382.608044 -145.425419 
L 377.490539 -145.425419 
L 372.373033 -145.309811 
L 367.255528 -145.078594 
L 362.138023 -144.731768 
L 357.020517 -144.269334 
L 351.903012 -143.691292 
L 346.785506 -142.99764 
L 341.668001 -142.188381 
L 336.550495 -141.263513 
L 331.43299 -140.223036 
L 326.315484 -139.066951 
L 321.197979 -137.795257 
L 316.080474 -136.407955 
L 310.962968 -134.905044 
L 305.845463 -133.286525 
L 300.727957 -131.552397 
L 295.610452 -129.702661 
L 290.492946 -127.737316 
L 285.375441 -125.656362 
L 280.257935 -123.459801 
L 275.14043 -121.14763 
L 270.022925 -118.951068 
L 264.905419 -116.870115 
L 259.787914 -114.90477 
L 254.670408 -113.055034 
L 249.552903 -111.320906 
L 244.435397 -109.702387 
L 239.317892 -108.199476 
L 234.200386 -106.812174 
L 229.082881 -105.54048 
L 223.965376 -104.384395 
L 218.84787 -103.343918 
L 213.730365 -102.41905 
L 208.612859 -101.60979 
L 203.495354 -100.916139 
L 198.377848 -100.338097 
L 193.260343 -99.875663 
L 188.142837 -99.528837 
L 183.025332 -99.29762 
L 177.907827 -99.182011 
L 172.790321 -99.182011 
L 167.672816 -99.182011 
L 162.55531 -99.182011 
L 157.437805 -99.182011 
L 152.320299 -99.182011 
L 147.202794 -99.182011 
L 142.085288 -99.182011 
L 136.967783 -99.182011 
L 131.850277 -99.182011 
L 126.732772 -99.182011 
L 121.615267 -99.182011 
z
" style="stroke: #57db5f; stroke-opacity: 0.65"/>
    </defs>
    <g clip-path="url(#paabbbd5100)">
     <use xlink:href="#m6b13089121" x="0" y="280.512" style="fill: #57db5f; fill-opacity: 0.65; stroke: #57db5f; stroke-opacity: 0.65"/>
    </g>
   </g>
   <g id="PolyCollection_14">
    <defs>
     <path id="m3c5bcf8326" d="M 121.615267 -99.402691 
L 121.615267 -99.182011 
L 126.732772 -99.182011 
L 131.850277 -99.182011 
L 136.967783 -99.182011 
L 142.085288 -99.182011 
L 147.202794 -99.182011 
L 152.320299 -99.182011 
L 157.437805 -99.182011 
L 162.55531 -99.182011 
L 167.672816 -99.182011 
L 172.790321 -99.182011 
L 177.907827 -99.182011 
L 183.025332 -99.585993 
L 188.142837 -100.393956 
L 193.260343 -101.605901 
L 198.377848 -103.221827 
L 203.495354 -105.241735 
L 208.612859 -107.665624 
L 213.730365 -110.493495 
L 218.84787 -113.725348 
L 223.965376 -117.361182 
L 229.082881 -121.400998 
L 234.200386 -125.844795 
L 239.317892 -130.692574 
L 244.435397 -135.944335 
L 249.552903 -141.600077 
L 254.670408 -147.6598 
L 259.787914 -154.123505 
L 264.905419 -160.991192 
L 270.022925 -168.26286 
L 275.14043 -175.93851 
L 280.257935 -184.018142 
L 285.375441 -191.693792 
L 290.492946 -198.96546 
L 295.610452 -205.833147 
L 300.727957 -212.296852 
L 305.845463 -218.356576 
L 310.962968 -224.012318 
L 316.080474 -229.264078 
L 321.197979 -234.111857 
L 326.315484 -238.555654 
L 331.43299 -242.59547 
L 336.550495 -246.231304 
L 341.668001 -249.463157 
L 346.785506 -252.291028 
L 351.903012 -254.714917 
L 357.020517 -256.734825 
L 362.138023 -258.350751 
L 367.255528 -259.562696 
L 372.373033 -260.370659 
L 377.490539 -260.774641 
L 382.608044 -260.774641 
L 387.72555 -260.774641 
L 392.843055 -260.774641 
L 397.960561 -260.774641 
L 403.078066 -260.774641 
L 408.195572 -260.774641 
L 413.313077 -260.774641 
L 418.430582 -260.774641 
L 423.548088 -260.774641 
L 428.665593 -260.774641 
L 433.783099 -260.774641 
L 433.783099 -260.99532 
L 433.783099 -260.99532 
L 428.665593 -260.99532 
L 423.548088 -260.99532 
L 418.430582 -260.99532 
L 413.313077 -260.99532 
L 408.195572 -260.99532 
L 403.078066 -260.99532 
L 397.960561 -260.99532 
L 392.843055 -260.99532 
L 387.72555 -260.99532 
L 382.608044 -260.99532 
L 377.490539 -260.99532 
L 372.373033 -260.591339 
L 367.255528 -259.783376 
L 362.138023 -258.571431 
L 357.020517 -256.955505 
L 351.903012 -254.935597 
L 346.785506 -252.511707 
L 341.668001 -249.683836 
L 336.550495 -246.451984 
L 331.43299 -242.81615 
L 326.315484 -238.776334 
L 321.197979 -234.332537 
L 316.080474 -229.484758 
L 310.962968 -224.232997 
L 305.845463 -218.577255 
L 300.727957 -212.517532 
L 295.610452 -206.053826 
L 290.492946 -199.18614 
L 285.375441 -191.914471 
L 280.257935 -184.238821 
L 275.14043 -176.15919 
L 270.022925 -168.48354 
L 264.905419 -161.211872 
L 259.787914 -154.344185 
L 254.670408 -147.88048 
L 249.552903 -141.820756 
L 244.435397 -136.165014 
L 239.317892 -130.913254 
L 234.200386 -126.065475 
L 229.082881 -121.621678 
L 223.965376 -117.581862 
L 218.84787 -113.946028 
L 213.730365 -110.714175 
L 208.612859 -107.886304 
L 203.495354 -105.462415 
L 198.377848 -103.442507 
L 193.260343 -101.82658 
L 188.142837 -100.614636 
L 183.025332 -99.806673 
L 177.907827 -99.402691 
L 172.790321 -99.402691 
L 167.672816 -99.402691 
L 162.55531 -99.402691 
L 157.437805 -99.402691 
L 152.320299 -99.402691 
L 147.202794 -99.402691 
L 142.085288 -99.402691 
L 136.967783 -99.402691 
L 131.850277 -99.402691 
L 126.732772 -99.402691 
L 121.615267 -99.402691 
z
" style="stroke: #57db5f; stroke-opacity: 0.65"/>
    </defs>
    <g clip-path="url(#paabbbd5100)">
     <use xlink:href="#m3c5bcf8326" x="0" y="280.512" style="fill: #57db5f; fill-opacity: 0.65; stroke: #57db5f; stroke-opacity: 0.65"/>
    </g>
   </g>
   <g id="PolyCollection_15">
    <defs>
     <path id="m02333b470e" d="M 121.615267 -109.300171 
L 121.615267 -109.079491 
L 126.732772 -109.079491 
L 131.850277 -109.079491 
L 136.967783 -109.079491 
L 142.085288 -109.079491 
L 147.202794 -109.079491 
L 152.320299 -109.079491 
L 157.437805 -109.079491 
L 162.55531 -109.079491 
L 167.672816 -109.079491 
L 172.790321 -109.079491 
L 177.907827 -109.079491 
L 183.025332 -109.053644 
L 188.142837 -109.00195 
L 193.260343 -108.924408 
L 198.377848 -108.82102 
L 203.495354 -108.691785 
L 208.612859 -108.536702 
L 213.730365 -108.355772 
L 218.84787 -108.148996 
L 223.965376 -107.916372 
L 229.082881 -107.657901 
L 234.200386 -107.373583 
L 239.317892 -107.063417 
L 244.435397 -106.727405 
L 249.552903 -106.365546 
L 254.670408 -105.977839 
L 259.787914 -105.564286 
L 264.905419 -105.124885 
L 270.022925 -104.659637 
L 275.14043 -104.168543 
L 280.257935 -103.651601 
L 285.375441 -103.160506 
L 290.492946 -102.695258 
L 295.610452 -102.255857 
L 300.727957 -101.842304 
L 305.845463 -101.454597 
L 310.962968 -101.092738 
L 316.080474 -100.756726 
L 321.197979 -100.446561 
L 326.315484 -100.162243 
L 331.43299 -99.903772 
L 336.550495 -99.671148 
L 341.668001 -99.464371 
L 346.785506 -99.283441 
L 351.903012 -99.128359 
L 357.020517 -98.999123 
L 362.138023 -98.895735 
L 367.255528 -98.818194 
L 372.373033 -98.766499 
L 377.490539 -98.740652 
L 382.608044 -98.740652 
L 387.72555 -98.740652 
L 392.843055 -98.740652 
L 397.960561 -98.740652 
L 403.078066 -98.740652 
L 408.195572 -98.740652 
L 413.313077 -98.740652 
L 418.430582 -98.740652 
L 423.548088 -98.740652 
L 428.665593 -98.740652 
L 433.783099 -98.740652 
L 433.783099 -98.961332 
L 433.783099 -98.961332 
L 428.665593 -98.961332 
L 423.548088 -98.961332 
L 418.430582 -98.961332 
L 413.313077 -98.961332 
L 408.195572 -98.961332 
L 403.078066 -98.961332 
L 397.960561 -98.961332 
L 392.843055 -98.961332 
L 387.72555 -98.961332 
L 382.608044 -98.961332 
L 377.490539 -98.961332 
L 372.373033 -98.987179 
L 367.255528 -99.038873 
L 362.138023 -99.116414 
L 357.020517 -99.219803 
L 351.903012 -99.349038 
L 346.785506 -99.504121 
L 341.668001 -99.685051 
L 336.550495 -99.891827 
L 331.43299 -100.124451 
L 326.315484 -100.382922 
L 321.197979 -100.66724 
L 316.080474 -100.977405 
L 310.962968 -101.313418 
L 305.845463 -101.675277 
L 300.727957 -102.062983 
L 295.610452 -102.476537 
L 290.492946 -102.915938 
L 285.375441 -103.381185 
L 280.257935 -103.87228 
L 275.14043 -104.389222 
L 270.022925 -104.880317 
L 264.905419 -105.345565 
L 259.787914 -105.784965 
L 254.670408 -106.198519 
L 249.552903 -106.586225 
L 244.435397 -106.948085 
L 239.317892 -107.284097 
L 234.200386 -107.594262 
L 229.082881 -107.87858 
L 223.965376 -108.137051 
L 218.84787 -108.369675 
L 213.730365 -108.576452 
L 208.612859 -108.757382 
L 203.495354 -108.912464 
L 198.377848 -109.0417 
L 193.260343 -109.145088 
L 188.142837 -109.222629 
L 183.025332 -109.274323 
L 177.907827 -109.300171 
L 172.790321 -109.300171 
L 167.672816 -109.300171 
L 162.55531 -109.300171 
L 157.437805 -109.300171 
L 152.320299 -109.300171 
L 147.202794 -109.300171 
L 142.085288 -109.300171 
L 136.967783 -109.300171 
L 131.850277 -109.300171 
L 126.732772 -109.300171 
L 121.615267 -109.300171 
z
" style="stroke: #5f57db; stroke-opacity: 0.65"/>
    </defs>
    <g clip-path="url(#paabbbd5100)">
     <use xlink:href="#m02333b470e" x="0" y="280.512" style="fill: #5f57db; fill-opacity: 0.65; stroke: #5f57db; stroke-opacity: 0.65"/>
    </g>
   </g>
   <g id="PolyCollection_16">
    <defs>
     <path id="m82dd2de9f7" d="M 121.615267 -125.63046 
L 121.615267 -109.300171 
L 126.732772 -109.300171 
L 131.850277 -109.300171 
L 136.967783 -109.300171 
L 142.085288 -109.300171 
L 147.202794 -109.300171 
L 152.320299 -109.300171 
L 157.437805 -109.300171 
L 162.55531 -109.300171 
L 167.672816 -109.300171 
L 172.790321 -109.300171 
L 177.907827 -109.300171 
L 183.025332 -109.299067 
L 188.142837 -109.29686 
L 193.260343 -109.29355 
L 198.377848 -109.289137 
L 203.495354 -109.28362 
L 208.612859 -109.276999 
L 213.730365 -109.269275 
L 218.84787 -109.260448 
L 223.965376 -109.250518 
L 229.082881 -109.239484 
L 234.200386 -109.227346 
L 239.317892 -109.214106 
L 244.435397 -109.199761 
L 249.552903 -109.184314 
L 254.670408 -109.167763 
L 259.787914 -109.150108 
L 264.905419 -109.131351 
L 270.022925 -109.11149 
L 275.14043 -109.090525 
L 280.257935 -109.068457 
L 285.375441 -109.047492 
L 290.492946 -109.027631 
L 295.610452 -109.008874 
L 300.727957 -108.991219 
L 305.845463 -108.974668 
L 310.962968 -108.959221 
L 316.080474 -108.944876 
L 321.197979 -108.931636 
L 326.315484 -108.919498 
L 331.43299 -108.908464 
L 336.550495 -108.898534 
L 341.668001 -108.889707 
L 346.785506 -108.881983 
L 351.903012 -108.875362 
L 357.020517 -108.869845 
L 362.138023 -108.865432 
L 367.255528 -108.862122 
L 372.373033 -108.859915 
L 377.490539 -108.858811 
L 382.608044 -108.858811 
L 387.72555 -108.858811 
L 392.843055 -108.858811 
L 397.960561 -108.858811 
L 403.078066 -108.858811 
L 408.195572 -108.858811 
L 413.313077 -108.858811 
L 418.430582 -108.858811 
L 423.548088 -108.858811 
L 428.665593 -108.858811 
L 433.783099 -108.858811 
L 433.783099 -125.189101 
L 433.783099 -125.189101 
L 428.665593 -125.189101 
L 423.548088 -125.189101 
L 418.430582 -125.189101 
L 413.313077 -125.189101 
L 408.195572 -125.189101 
L 403.078066 -125.189101 
L 397.960561 -125.189101 
L 392.843055 -125.189101 
L 387.72555 -125.189101 
L 382.608044 -125.189101 
L 377.490539 -125.189101 
L 372.373033 -125.190204 
L 367.255528 -125.192411 
L 362.138023 -125.195721 
L 357.020517 -125.200135 
L 351.903012 -125.205652 
L 346.785506 -125.212272 
L 341.668001 -125.219996 
L 336.550495 -125.228823 
L 331.43299 -125.238754 
L 326.315484 -125.249788 
L 321.197979 -125.261925 
L 316.080474 -125.275166 
L 310.962968 -125.28951 
L 305.845463 -125.304958 
L 300.727957 -125.321509 
L 295.610452 -125.339163 
L 290.492946 -125.357921 
L 285.375441 -125.377782 
L 280.257935 -125.398747 
L 275.14043 -125.420815 
L 270.022925 -125.441779 
L 264.905419 -125.46164 
L 259.787914 -125.480398 
L 254.670408 -125.498052 
L 249.552903 -125.514603 
L 244.435397 -125.530051 
L 239.317892 -125.544395 
L 234.200386 -125.557636 
L 229.082881 -125.569773 
L 223.965376 -125.580807 
L 218.84787 -125.590738 
L 213.730365 -125.599565 
L 208.612859 -125.607289 
L 203.495354 -125.613909 
L 198.377848 -125.619426 
L 193.260343 -125.62384 
L 188.142837 -125.62715 
L 183.025332 -125.629357 
L 177.907827 -125.63046 
L 172.790321 -125.63046 
L 167.672816 -125.63046 
L 162.55531 -125.63046 
L 157.437805 -125.63046 
L 152.320299 -125.63046 
L 147.202794 -125.63046 
L 142.085288 -125.63046 
L 136.967783 -125.63046 
L 131.850277 -125.63046 
L 126.732772 -125.63046 
L 121.615267 -125.63046 
z
" style="stroke: #5f57db; stroke-opacity: 0.65"/>
    </defs>
    <g clip-path="url(#paabbbd5100)">
     <use xlink:href="#m82dd2de9f7" x="0" y="280.512" style="fill: #5f57db; fill-opacity: 0.65; stroke: #5f57db; stroke-opacity: 0.65"/>
    </g>
   </g>
   <g id="PolyCollection_17">
    <defs>
     <path id="m3c96741a2c" d="M 121.615267 -125.85114 
L 121.615267 -125.63046 
L 126.732772 -125.63046 
L 131.850277 -125.63046 
L 136.967783 -125.63046 
L 142.085288 -125.63046 
L 147.202794 -125.63046 
L 152.320299 -125.63046 
L 157.437805 -125.63046 
L 162.55531 -125.63046 
L 167.672816 -125.63046 
L 172.790321 -125.63046 
L 177.907827 -125.63046 
L 183.025332 -125.679948 
L 188.142837 -125.778922 
L 193.260343 -125.927385 
L 198.377848 -126.125334 
L 203.495354 -126.372771 
L 208.612859 -126.669696 
L 213.730365 -127.016107 
L 218.84787 -127.412007 
L 223.965376 -127.857393 
L 229.082881 -128.352267 
L 234.200386 -128.896628 
L 239.317892 -129.490477 
L 244.435397 -130.133813 
L 249.552903 -130.826637 
L 254.670408 -131.568948 
L 259.787914 -132.360746 
L 264.905419 -133.202032 
L 270.022925 -134.092805 
L 275.14043 -135.033066 
L 280.257935 -136.022814 
L 285.375441 -136.963074 
L 290.492946 -137.853847 
L 295.610452 -138.695133 
L 300.727957 -139.486932 
L 305.845463 -140.229243 
L 310.962968 -140.922066 
L 316.080474 -141.565402 
L 321.197979 -142.159251 
L 326.315484 -142.703612 
L 331.43299 -143.198486 
L 336.550495 -143.643873 
L 341.668001 -144.039772 
L 346.785506 -144.386184 
L 351.903012 -144.683108 
L 357.020517 -144.930545 
L 362.138023 -145.128495 
L 367.255528 -145.276957 
L 372.373033 -145.375932 
L 377.490539 -145.425419 
L 382.608044 -145.425419 
L 387.72555 -145.425419 
L 392.843055 -145.425419 
L 397.960561 -145.425419 
L 403.078066 -145.425419 
L 408.195572 -145.425419 
L 413.313077 -145.425419 
L 418.430582 -145.425419 
L 423.548088 -145.425419 
L 428.665593 -145.425419 
L 433.783099 -145.425419 
L 433.783099 -145.646099 
L 433.783099 -145.646099 
L 428.665593 -145.646099 
L 423.548088 -145.646099 
L 418.430582 -145.646099 
L 413.313077 -145.646099 
L 408.195572 -145.646099 
L 403.078066 -145.646099 
L 397.960561 -145.646099 
L 392.843055 -145.646099 
L 387.72555 -145.646099 
L 382.608044 -145.646099 
L 377.490539 -145.646099 
L 372.373033 -145.596612 
L 367.255528 -145.497637 
L 362.138023 -145.349175 
L 357.020517 -145.151225 
L 351.903012 -144.903788 
L 346.785506 -144.606864 
L 341.668001 -144.260452 
L 336.550495 -143.864553 
L 331.43299 -143.419166 
L 326.315484 -142.924292 
L 321.197979 -142.379931 
L 316.080474 -141.786082 
L 310.962968 -141.142746 
L 305.845463 -140.449922 
L 300.727957 -139.707611 
L 295.610452 -138.915813 
L 290.492946 -138.074527 
L 285.375441 -137.183754 
L 280.257935 -136.243493 
L 275.14043 -135.253745 
L 270.022925 -134.313485 
L 264.905419 -133.422712 
L 259.787914 -132.581426 
L 254.670408 -131.789628 
L 249.552903 -131.047317 
L 244.435397 -130.354493 
L 239.317892 -129.711157 
L 234.200386 -129.117308 
L 229.082881 -128.572947 
L 223.965376 -128.078073 
L 218.84787 -127.632686 
L 213.730365 -127.236787 
L 208.612859 -126.890375 
L 203.495354 -126.593451 
L 198.377848 -126.346014 
L 193.260343 -126.148064 
L 188.142837 -125.999602 
L 183.025332 -125.900627 
L 177.907827 -125.85114 
L 172.790321 -125.85114 
L 167.672816 -125.85114 
L 162.55531 -125.85114 
L 157.437805 -125.85114 
L 152.320299 -125.85114 
L 147.202794 -125.85114 
L 142.085288 -125.85114 
L 136.967783 -125.85114 
L 131.850277 -125.85114 
L 126.732772 -125.85114 
L 121.615267 -125.85114 
z
" style="stroke: #5f57db; stroke-opacity: 0.65"/>
    </defs>
    <g clip-path="url(#paabbbd5100)">
     <use xlink:href="#m3c96741a2c" x="0" y="280.512" style="fill: #5f57db; fill-opacity: 0.65; stroke: #5f57db; stroke-opacity: 0.65"/>
    </g>
   </g>
   <g id="PolyCollection_18">
    <defs>
     <path id="mc490499708" d="M 121.615267 -135.748619 
L 121.615267 -135.52794 
L 126.732772 -135.52794 
L 131.850277 -135.52794 
L 136.967783 -135.52794 
L 142.085288 -135.52794 
L 147.202794 -135.52794 
L 152.320299 -135.52794 
L 157.437805 -135.52794 
L 162.55531 -135.52794 
L 167.672816 -135.52794 
L 172.790321 -135.52794 
L 177.907827 -135.52794 
L 183.025332 -135.436523 
L 188.142837 -135.25369 
L 193.260343 -134.979441 
L 198.377848 -134.613775 
L 203.495354 -134.156692 
L 208.612859 -133.608193 
L 213.730365 -132.968277 
L 218.84787 -132.236945 
L 223.965376 -131.414196 
L 229.082881 -130.500031 
L 234.200386 -129.494449 
L 239.317892 -128.397451 
L 244.435397 -127.209036 
L 249.552903 -125.929205 
L 254.670408 -124.557957 
L 259.787914 -123.095293 
L 264.905419 -121.541212 
L 270.022925 -119.895715 
L 275.14043 -118.158801 
L 280.257935 -116.330471 
L 285.375441 -114.593557 
L 290.492946 -112.948059 
L 295.610452 -111.393979 
L 300.727957 -109.931314 
L 305.845463 -108.560066 
L 310.962968 -107.280235 
L 316.080474 -106.09182 
L 321.197979 -104.994822 
L 326.315484 -103.98924 
L 331.43299 -103.075075 
L 336.550495 -102.252327 
L 341.668001 -101.520994 
L 346.785506 -100.881079 
L 351.903012 -100.33258 
L 357.020517 -99.875497 
L 362.138023 -99.509831 
L 367.255528 -99.235581 
L 372.373033 -99.052748 
L 377.490539 -98.961332 
L 382.608044 -98.961332 
L 387.72555 -98.961332 
L 392.843055 -98.961332 
L 397.960561 -98.961332 
L 403.078066 -98.961332 
L 408.195572 -98.961332 
L 413.313077 -98.961332 
L 418.430582 -98.961332 
L 423.548088 -98.961332 
L 428.665593 -98.961332 
L 433.783099 -98.961332 
L 433.783099 -99.182011 
L 433.783099 -99.182011 
L 428.665593 -99.182011 
L 423.548088 -99.182011 
L 418.430582 -99.182011 
L 413.313077 -99.182011 
L 408.195572 -99.182011 
L 403.078066 -99.182011 
L 397.960561 -99.182011 
L 392.843055 -99.182011 
L 387.72555 -99.182011 
L 382.608044 -99.182011 
L 377.490539 -99.182011 
L 372.373033 -99.273428 
L 367.255528 -99.456261 
L 362.138023 -99.730511 
L 357.020517 -100.096177 
L 351.903012 -100.553259 
L 346.785506 -101.101758 
L 341.668001 -101.741674 
L 336.550495 -102.473006 
L 331.43299 -103.295755 
L 326.315484 -104.20992 
L 321.197979 -105.215502 
L 316.080474 -106.3125 
L 310.962968 -107.500915 
L 305.845463 -108.780746 
L 300.727957 -110.151994 
L 295.610452 -111.614658 
L 290.492946 -113.168739 
L 285.375441 -114.814236 
L 280.257935 -116.55115 
L 275.14043 -118.379481 
L 270.022925 -120.116394 
L 264.905419 -121.761892 
L 259.787914 -123.315973 
L 254.670408 -124.778637 
L 249.552903 -126.149885 
L 244.435397 -127.429716 
L 239.317892 -128.618131 
L 234.200386 -129.715129 
L 229.082881 -130.720711 
L 223.965376 -131.634876 
L 218.84787 -132.457625 
L 213.730365 -133.188957 
L 208.612859 -133.828872 
L 203.495354 -134.377372 
L 198.377848 -134.834454 
L 193.260343 -135.20012 
L 188.142837 -135.47437 
L 183.025332 -135.657203 
L 177.907827 -135.748619 
L 172.790321 -135.748619 
L 167.672816 -135.748619 
L 162.55531 -135.748619 
L 157.437805 -135.748619 
L 152.320299 -135.748619 
L 147.202794 -135.748619 
L 142.085288 -135.748619 
L 136.967783 -135.748619 
L 131.850277 -135.748619 
L 126.732772 -135.748619 
L 121.615267 -135.748619 
z
" style="stroke: #db5f57; stroke-opacity: 0.65"/>
    </defs>
    <g clip-path="url(#paabbbd5100)">
     <use xlink:href="#mc490499708" x="0" y="280.512" style="fill: #db5f57; fill-opacity: 0.65; stroke: #db5f57; stroke-opacity: 0.65"/>
    </g>
   </g>
   <g id="PolyCollection_19">
    <defs>
     <path id="me5d6884977" d="M 121.615267 -135.969299 
L 121.615267 -135.748619 
L 126.732772 -135.748619 
L 131.850277 -135.748619 
L 136.967783 -135.748619 
L 142.085288 -135.748619 
L 147.202794 -135.748619 
L 152.320299 -135.748619 
L 157.437805 -135.748619 
L 162.55531 -135.748619 
L 167.672816 -135.748619 
L 172.790321 -135.748619 
L 177.907827 -135.748619 
L 183.025332 -135.746964 
L 188.142837 -135.743654 
L 193.260343 -135.738689 
L 198.377848 -135.732068 
L 203.495354 -135.723793 
L 208.612859 -135.713862 
L 213.730365 -135.702277 
L 218.84787 -135.689036 
L 223.965376 -135.67414 
L 229.082881 -135.657589 
L 234.200386 -135.639383 
L 239.317892 -135.619522 
L 244.435397 -135.598006 
L 249.552903 -135.574834 
L 254.670408 -135.550008 
L 259.787914 -135.523526 
L 264.905419 -135.49539 
L 270.022925 -135.465598 
L 275.14043 -135.434151 
L 280.257935 -135.401049 
L 285.375441 -135.369602 
L 290.492946 -135.33981 
L 295.610452 -135.311674 
L 300.727957 -135.285192 
L 305.845463 -135.260366 
L 310.962968 -135.237194 
L 316.080474 -135.215678 
L 321.197979 -135.195817 
L 326.315484 -135.177611 
L 331.43299 -135.16106 
L 336.550495 -135.146164 
L 341.668001 -135.132923 
L 346.785506 -135.121338 
L 351.903012 -135.111407 
L 357.020517 -135.103132 
L 362.138023 -135.096511 
L 367.255528 -135.091546 
L 372.373033 -135.088236 
L 377.490539 -135.086581 
L 382.608044 -135.086581 
L 387.72555 -135.086581 
L 392.843055 -135.086581 
L 397.960561 -135.086581 
L 403.078066 -135.086581 
L 408.195572 -135.086581 
L 413.313077 -135.086581 
L 418.430582 -135.086581 
L 423.548088 -135.086581 
L 428.665593 -135.086581 
L 433.783099 -135.086581 
L 433.783099 -135.30726 
L 433.783099 -135.30726 
L 428.665593 -135.30726 
L 423.548088 -135.30726 
L 418.430582 -135.30726 
L 413.313077 -135.30726 
L 408.195572 -135.30726 
L 403.078066 -135.30726 
L 397.960561 -135.30726 
L 392.843055 -135.30726 
L 387.72555 -135.30726 
L 382.608044 -135.30726 
L 377.490539 -135.30726 
L 372.373033 -135.308915 
L 367.255528 -135.312225 
L 362.138023 -135.317191 
L 357.020517 -135.323811 
L 351.903012 -135.332087 
L 346.785506 -135.342017 
L 341.668001 -135.353603 
L 336.550495 -135.366844 
L 331.43299 -135.38174 
L 326.315484 -135.398291 
L 321.197979 -135.416497 
L 316.080474 -135.436358 
L 310.962968 -135.457874 
L 305.845463 -135.481045 
L 300.727957 -135.505872 
L 295.610452 -135.532353 
L 290.492946 -135.56049 
L 285.375441 -135.590282 
L 280.257935 -135.621729 
L 275.14043 -135.654831 
L 270.022925 -135.686277 
L 264.905419 -135.716069 
L 259.787914 -135.744206 
L 254.670408 -135.770687 
L 249.552903 -135.795514 
L 244.435397 -135.818685 
L 239.317892 -135.840201 
L 234.200386 -135.860063 
L 229.082881 -135.878269 
L 223.965376 -135.89482 
L 218.84787 -135.909715 
L 213.730365 -135.922956 
L 208.612859 -135.934542 
L 203.495354 -135.944473 
L 198.377848 -135.952748 
L 193.260343 -135.959368 
L 188.142837 -135.964334 
L 183.025332 -135.967644 
L 177.907827 -135.969299 
L 172.790321 -135.969299 
L 167.672816 -135.969299 
L 162.55531 -135.969299 
L 157.437805 -135.969299 
L 152.320299 -135.969299 
L 147.202794 -135.969299 
L 142.085288 -135.969299 
L 136.967783 -135.969299 
L 131.850277 -135.969299 
L 126.732772 -135.969299 
L 121.615267 -135.969299 
z
" style="stroke: #db5f57; stroke-opacity: 0.65"/>
    </defs>
    <g clip-path="url(#paabbbd5100)">
     <use xlink:href="#me5d6884977" x="0" y="280.512" style="fill: #db5f57; fill-opacity: 0.65; stroke: #db5f57; stroke-opacity: 0.65"/>
    </g>
   </g>
   <g id="PolyCollection_20">
    <defs>
     <path id="m8796435a0c" d="M 121.615267 -197.538904 
L 121.615267 -135.969299 
L 126.732772 -135.969299 
L 131.850277 -135.969299 
L 136.967783 -135.969299 
L 142.085288 -135.969299 
L 147.202794 -135.969299 
L 152.320299 -135.969299 
L 157.437805 -135.969299 
L 162.55531 -135.969299 
L 167.672816 -135.969299 
L 172.790321 -135.969299 
L 177.907827 -135.969299 
L 183.025332 -135.993491 
L 188.142837 -136.041875 
L 193.260343 -136.114451 
L 198.377848 -136.211219 
L 203.495354 -136.332179 
L 208.612859 -136.477331 
L 213.730365 -136.646675 
L 218.84787 -136.840211 
L 223.965376 -137.057939 
L 229.082881 -137.299859 
L 234.200386 -137.565971 
L 239.317892 -137.856275 
L 244.435397 -138.170771 
L 249.552903 -138.509459 
L 254.670408 -138.872339 
L 259.787914 -139.259411 
L 264.905419 -139.670675 
L 270.022925 -140.106131 
L 275.14043 -140.565779 
L 280.257935 -141.049619 
L 285.375441 -141.509267 
L 290.492946 -141.944723 
L 295.610452 -142.355987 
L 300.727957 -142.743059 
L 305.845463 -143.105939 
L 310.962968 -143.444627 
L 316.080474 -143.759123 
L 321.197979 -144.049427 
L 326.315484 -144.315539 
L 331.43299 -144.557459 
L 336.550495 -144.775187 
L 341.668001 -144.968723 
L 346.785506 -145.138067 
L 351.903012 -145.283219 
L 357.020517 -145.404179 
L 362.138023 -145.500947 
L 367.255528 -145.573523 
L 372.373033 -145.621907 
L 377.490539 -145.646099 
L 382.608044 -145.646099 
L 387.72555 -145.646099 
L 392.843055 -145.646099 
L 397.960561 -145.646099 
L 403.078066 -145.646099 
L 408.195572 -145.646099 
L 413.313077 -145.646099 
L 418.430582 -145.646099 
L 423.548088 -145.646099 
L 428.665593 -145.646099 
L 433.783099 -145.646099 
L 433.783099 -207.215704 
L 433.783099 -207.215704 
L 428.665593 -207.215704 
L 423.548088 -207.215704 
L 418.430582 -207.215704 
L 413.313077 -207.215704 
L 408.195572 -207.215704 
L 403.078066 -207.215704 
L 397.960561 -207.215704 
L 392.843055 -207.215704 
L 387.72555 -207.215704 
L 382.608044 -207.215704 
L 377.490539 -207.215704 
L 372.373033 -207.191512 
L 367.255528 -207.143128 
L 362.138023 -207.070552 
L 357.020517 -206.973784 
L 351.903012 -206.852824 
L 346.785506 -206.707672 
L 341.668001 -206.538328 
L 336.550495 -206.344792 
L 331.43299 -206.127064 
L 326.315484 -205.885144 
L 321.197979 -205.619032 
L 316.080474 -205.328728 
L 310.962968 -205.014232 
L 305.845463 -204.675544 
L 300.727957 -204.312664 
L 295.610452 -203.925592 
L 290.492946 -203.514328 
L 285.375441 -203.078872 
L 280.257935 -202.619224 
L 275.14043 -202.135384 
L 270.022925 -201.675736 
L 264.905419 -201.24028 
L 259.787914 -200.829016 
L 254.670408 -200.441944 
L 249.552903 -200.079064 
L 244.435397 -199.740376 
L 239.317892 -199.42588 
L 234.200386 -199.135576 
L 229.082881 -198.869464 
L 223.965376 -198.627544 
L 218.84787 -198.409816 
L 213.730365 -198.21628 
L 208.612859 -198.046936 
L 203.495354 -197.901784 
L 198.377848 -197.780824 
L 193.260343 -197.684056 
L 188.142837 -197.61148 
L 183.025332 -197.563096 
L 177.907827 -197.538904 
L 172.790321 -197.538904 
L 167.672816 -197.538904 
L 162.55531 -197.538904 
L 157.437805 -197.538904 
L 152.320299 -197.538904 
L 147.202794 -197.538904 
L 142.085288 -197.538904 
L 136.967783 -197.538904 
L 131.850277 -197.538904 
L 126.732772 -197.538904 
L 121.615267 -197.538904 
z
" style="stroke: #db5f57; stroke-opacity: 0.65"/>
    </defs>
    <g clip-path="url(#paabbbd5100)">
     <use xlink:href="#m8796435a0c" x="0" y="280.512" style="fill: #db5f57; fill-opacity: 0.65; stroke: #db5f57; stroke-opacity: 0.65"/>
    </g>
   </g>
   <g id="PolyCollection_21">
    <defs>
     <path id="m676fa13350" d="M 121.615267 -207.436384 
L 121.615267 -207.215704 
L 126.732772 -207.215704 
L 131.850277 -207.215704 
L 136.967783 -207.215704 
L 142.085288 -207.215704 
L 147.202794 -207.215704 
L 152.320299 -207.215704 
L 157.437805 -207.215704 
L 162.55531 -207.215704 
L 167.672816 -207.215704 
L 172.790321 -207.215704 
L 177.907827 -207.215704 
L 183.025332 -207.010638 
L 188.142837 -206.600505 
L 193.260343 -205.985305 
L 198.377848 -205.165039 
L 203.495354 -204.139707 
L 208.612859 -202.909308 
L 213.730365 -201.473842 
L 218.84787 -199.83331 
L 223.965376 -197.987712 
L 229.082881 -195.937046 
L 234.200386 -193.681315 
L 239.317892 -191.220517 
L 244.435397 -188.554652 
L 249.552903 -185.683721 
L 254.670408 -182.607723 
L 259.787914 -179.326659 
L 264.905419 -175.840529 
L 270.022925 -172.149331 
L 275.14043 -168.253068 
L 280.257935 -164.151738 
L 285.375441 -160.255474 
L 290.492946 -156.564277 
L 295.610452 -153.078146 
L 300.727957 -149.797082 
L 305.845463 -146.721084 
L 310.962968 -143.850153 
L 316.080474 -141.184289 
L 321.197979 -138.723491 
L 326.315484 -136.467759 
L 331.43299 -134.417094 
L 336.550495 -132.571495 
L 341.668001 -130.930963 
L 346.785506 -129.495498 
L 351.903012 -128.265099 
L 357.020517 -127.239766 
L 362.138023 -126.4195 
L 367.255528 -125.804301 
L 372.373033 -125.394168 
L 377.490539 -125.189101 
L 382.608044 -125.189101 
L 387.72555 -125.189101 
L 392.843055 -125.189101 
L 397.960561 -125.189101 
L 403.078066 -125.189101 
L 408.195572 -125.189101 
L 413.313077 -125.189101 
L 418.430582 -125.189101 
L 423.548088 -125.189101 
L 428.665593 -125.189101 
L 433.783099 -125.189101 
L 433.783099 -125.409781 
L 433.783099 -125.409781 
L 428.665593 -125.409781 
L 423.548088 -125.409781 
L 418.430582 -125.409781 
L 413.313077 -125.409781 
L 408.195572 -125.409781 
L 403.078066 -125.409781 
L 397.960561 -125.409781 
L 392.843055 -125.409781 
L 387.72555 -125.409781 
L 382.608044 -125.409781 
L 377.490539 -125.409781 
L 372.373033 -125.614847 
L 367.255528 -126.02498 
L 362.138023 -126.64018 
L 357.020517 -127.460446 
L 351.903012 -128.485778 
L 346.785506 -129.716177 
L 341.668001 -131.151643 
L 336.550495 -132.792175 
L 331.43299 -134.637774 
L 326.315484 -136.688439 
L 321.197979 -138.94417 
L 316.080474 -141.404968 
L 310.962968 -144.070833 
L 305.845463 -146.941764 
L 300.727957 -150.017762 
L 295.610452 -153.298826 
L 290.492946 -156.784956 
L 285.375441 -160.476154 
L 280.257935 -164.372417 
L 275.14043 -168.473747 
L 270.022925 -172.370011 
L 264.905419 -176.061208 
L 259.787914 -179.547339 
L 254.670408 -182.828403 
L 249.552903 -185.904401 
L 244.435397 -188.775332 
L 239.317892 -191.441196 
L 234.200386 -193.901994 
L 229.082881 -196.157726 
L 223.965376 -198.208391 
L 218.84787 -200.05399 
L 213.730365 -201.694522 
L 208.612859 -203.129987 
L 203.495354 -204.360386 
L 198.377848 -205.385719 
L 193.260343 -206.205985 
L 188.142837 -206.821185 
L 183.025332 -207.231318 
L 177.907827 -207.436384 
L 172.790321 -207.436384 
L 167.672816 -207.436384 
L 162.55531 -207.436384 
L 157.437805 -207.436384 
L 152.320299 -207.436384 
L 147.202794 -207.436384 
L 142.085288 -207.436384 
L 136.967783 -207.436384 
L 131.850277 -207.436384 
L 126.732772 -207.436384 
L 121.615267 -207.436384 
z
" style="stroke: #d3db57; stroke-opacity: 0.65"/>
    </defs>
    <g clip-path="url(#paabbbd5100)">
     <use xlink:href="#m676fa13350" x="0" y="280.512" style="fill: #d3db57; fill-opacity: 0.65; stroke: #d3db57; stroke-opacity: 0.65"/>
    </g>
   </g>
   <g id="PolyCollection_22">
    <defs>
     <path id="m187155eb21" d="M 121.615267 -213.615413 
L 121.615267 -207.436384 
L 126.732772 -207.436384 
L 131.850277 -207.436384 
L 136.967783 -207.436384 
L 142.085288 -207.436384 
L 147.202794 -207.436384 
L 152.320299 -207.436384 
L 157.437805 -207.436384 
L 162.55531 -207.436384 
L 167.672816 -207.436384 
L 172.790321 -207.436384 
L 177.907827 -207.436384 
L 183.025332 -207.435832 
L 188.142837 -207.434729 
L 193.260343 -207.433074 
L 198.377848 -207.430867 
L 203.495354 -207.428109 
L 208.612859 -207.424798 
L 213.730365 -207.420936 
L 218.84787 -207.416523 
L 223.965376 -207.411558 
L 229.082881 -207.406041 
L 234.200386 -207.399972 
L 239.317892 -207.393352 
L 244.435397 -207.386179 
L 249.552903 -207.378456 
L 254.670408 -207.37018 
L 259.787914 -207.361353 
L 264.905419 -207.351974 
L 270.022925 -207.342044 
L 275.14043 -207.331561 
L 280.257935 -207.320527 
L 285.375441 -207.310045 
L 290.492946 -207.300114 
L 295.610452 -207.290736 
L 300.727957 -207.281908 
L 305.845463 -207.273633 
L 310.962968 -207.265909 
L 316.080474 -207.258737 
L 321.197979 -207.252117 
L 326.315484 -207.246048 
L 331.43299 -207.240531 
L 336.550495 -207.235566 
L 341.668001 -207.231152 
L 346.785506 -207.22729 
L 351.903012 -207.22398 
L 357.020517 -207.221221 
L 362.138023 -207.219015 
L 367.255528 -207.21736 
L 372.373033 -207.216256 
L 377.490539 -207.215704 
L 382.608044 -207.215704 
L 387.72555 -207.215704 
L 392.843055 -207.215704 
L 397.960561 -207.215704 
L 403.078066 -207.215704 
L 408.195572 -207.215704 
L 413.313077 -207.215704 
L 418.430582 -207.215704 
L 423.548088 -207.215704 
L 428.665593 -207.215704 
L 433.783099 -207.215704 
L 433.783099 -213.394733 
L 433.783099 -213.394733 
L 428.665593 -213.394733 
L 423.548088 -213.394733 
L 418.430582 -213.394733 
L 413.313077 -213.394733 
L 408.195572 -213.394733 
L 403.078066 -213.394733 
L 397.960561 -213.394733 
L 392.843055 -213.394733 
L 387.72555 -213.394733 
L 382.608044 -213.394733 
L 377.490539 -213.394733 
L 372.373033 -213.395285 
L 367.255528 -213.396388 
L 362.138023 -213.398043 
L 357.020517 -213.40025 
L 351.903012 -213.403008 
L 346.785506 -213.406319 
L 341.668001 -213.410181 
L 336.550495 -213.414594 
L 331.43299 -213.419559 
L 326.315484 -213.425076 
L 321.197979 -213.431145 
L 316.080474 -213.437765 
L 310.962968 -213.444938 
L 305.845463 -213.452661 
L 300.727957 -213.460937 
L 295.610452 -213.469764 
L 290.492946 -213.479143 
L 285.375441 -213.489073 
L 280.257935 -213.499556 
L 275.14043 -213.51059 
L 270.022925 -213.521072 
L 264.905419 -213.531003 
L 259.787914 -213.540381 
L 254.670408 -213.549209 
L 249.552903 -213.557484 
L 244.435397 -213.565208 
L 239.317892 -213.57238 
L 234.200386 -213.579 
L 229.082881 -213.585069 
L 223.965376 -213.590586 
L 218.84787 -213.595551 
L 213.730365 -213.599965 
L 208.612859 -213.603827 
L 203.495354 -213.607137 
L 198.377848 -213.609896 
L 193.260343 -213.612102 
L 188.142837 -213.613757 
L 183.025332 -213.614861 
L 177.907827 -213.615413 
L 172.790321 -213.615413 
L 167.672816 -213.615413 
L 162.55531 -213.615413 
L 157.437805 -213.615413 
L 152.320299 -213.615413 
L 147.202794 -213.615413 
L 142.085288 -213.615413 
L 136.967783 -213.615413 
L 131.850277 -213.615413 
L 126.732772 -213.615413 
L 121.615267 -213.615413 
z
" style="stroke: #d3db57; stroke-opacity: 0.65"/>
    </defs>
    <g clip-path="url(#paabbbd5100)">
     <use xlink:href="#m187155eb21" x="0" y="280.512" style="fill: #d3db57; fill-opacity: 0.65; stroke: #d3db57; stroke-opacity: 0.65"/>
    </g>
   </g>
   <g id="PolyCollection_23">
    <defs>
     <path id="mfcd684bb0d" d="M 121.615267 -223.512892 
L 121.615267 -223.292213 
L 126.732772 -223.292213 
L 131.850277 -223.292213 
L 136.967783 -223.292213 
L 142.085288 -223.292213 
L 147.202794 -223.292213 
L 152.320299 -223.292213 
L 157.437805 -223.292213 
L 162.55531 -223.292213 
L 167.672816 -223.292213 
L 172.790321 -223.292213 
L 177.907827 -223.292213 
L 183.025332 -223.267469 
L 188.142837 -223.217981 
L 193.260343 -223.14375 
L 198.377848 -223.044776 
L 203.495354 -222.921057 
L 208.612859 -222.772595 
L 213.730365 -222.599389 
L 218.84787 -222.401439 
L 223.965376 -222.178746 
L 229.082881 -221.931309 
L 234.200386 -221.659128 
L 239.317892 -221.362204 
L 244.435397 -221.040536 
L 249.552903 -220.694124 
L 254.670408 -220.322969 
L 259.787914 -219.927069 
L 264.905419 -219.506427 
L 270.022925 -219.06104 
L 275.14043 -218.59091 
L 280.257935 -218.096036 
L 285.375441 -217.625905 
L 290.492946 -217.180519 
L 295.610452 -216.759876 
L 300.727957 -216.363977 
L 305.845463 -215.992821 
L 310.962968 -215.64641 
L 316.080474 -215.324741 
L 321.197979 -215.027817 
L 326.315484 -214.755636 
L 331.43299 -214.508199 
L 336.550495 -214.285506 
L 341.668001 -214.087557 
L 346.785506 -213.914351 
L 351.903012 -213.765888 
L 357.020517 -213.64217 
L 362.138023 -213.543195 
L 367.255528 -213.468964 
L 372.373033 -213.419477 
L 377.490539 -213.394733 
L 382.608044 -213.394733 
L 387.72555 -213.394733 
L 392.843055 -213.394733 
L 397.960561 -213.394733 
L 403.078066 -213.394733 
L 408.195572 -213.394733 
L 413.313077 -213.394733 
L 418.430582 -213.394733 
L 423.548088 -213.394733 
L 428.665593 -213.394733 
L 433.783099 -213.394733 
L 433.783099 -213.615413 
L 433.783099 -213.615413 
L 428.665593 -213.615413 
L 423.548088 -213.615413 
L 418.430582 -213.615413 
L 413.313077 -213.615413 
L 408.195572 -213.615413 
L 403.078066 -213.615413 
L 397.960561 -213.615413 
L 392.843055 -213.615413 
L 387.72555 -213.615413 
L 382.608044 -213.615413 
L 377.490539 -213.615413 
L 372.373033 -213.640156 
L 367.255528 -213.689644 
L 362.138023 -213.763875 
L 357.020517 -213.86285 
L 351.903012 -213.986568 
L 346.785506 -214.13503 
L 341.668001 -214.308236 
L 336.550495 -214.506186 
L 331.43299 -214.728879 
L 326.315484 -214.976316 
L 321.197979 -215.248497 
L 316.080474 -215.545421 
L 310.962968 -215.867089 
L 305.845463 -216.213501 
L 300.727957 -216.584656 
L 295.610452 -216.980556 
L 290.492946 -217.401198 
L 285.375441 -217.846585 
L 280.257935 -218.316715 
L 275.14043 -218.811589 
L 270.022925 -219.28172 
L 264.905419 -219.727106 
L 259.787914 -220.147749 
L 254.670408 -220.543648 
L 249.552903 -220.914804 
L 244.435397 -221.261216 
L 239.317892 -221.582884 
L 234.200386 -221.879808 
L 229.082881 -222.151989 
L 223.965376 -222.399426 
L 218.84787 -222.622119 
L 213.730365 -222.820069 
L 208.612859 -222.993274 
L 203.495354 -223.141737 
L 198.377848 -223.265455 
L 193.260343 -223.36443 
L 188.142837 -223.438661 
L 183.025332 -223.488148 
L 177.907827 -223.512892 
L 172.790321 -223.512892 
L 167.672816 -223.512892 
L 162.55531 -223.512892 
L 157.437805 -223.512892 
L 152.320299 -223.512892 
L 147.202794 -223.512892 
L 142.085288 -223.512892 
L 136.967783 -223.512892 
L 131.850277 -223.512892 
L 126.732772 -223.512892 
L 121.615267 -223.512892 
z
" style="stroke: #57d3db; stroke-opacity: 0.65"/>
    </defs>
    <g clip-path="url(#paabbbd5100)">
     <use xlink:href="#mfcd684bb0d" x="0" y="280.512" style="fill: #57d3db; fill-opacity: 0.65; stroke: #57d3db; stroke-opacity: 0.65"/>
    </g>
   </g>
   <g id="PolyCollection_24">
    <defs>
     <path id="m79d2824894" d="M 121.615267 -251.31852 
L 121.615267 -223.512892 
L 126.732772 -223.512892 
L 131.850277 -223.512892 
L 136.967783 -223.512892 
L 142.085288 -223.512892 
L 147.202794 -223.512892 
L 152.320299 -223.512892 
L 157.437805 -223.512892 
L 162.55531 -223.512892 
L 167.672816 -223.512892 
L 172.790321 -223.512892 
L 177.907827 -223.512892 
L 183.025332 -223.51234 
L 188.142837 -223.511237 
L 193.260343 -223.509582 
L 198.377848 -223.507375 
L 203.495354 -223.504617 
L 208.612859 -223.501306 
L 213.730365 -223.497445 
L 218.84787 -223.493031 
L 223.965376 -223.488066 
L 229.082881 -223.482549 
L 234.200386 -223.47648 
L 239.317892 -223.46986 
L 244.435397 -223.462688 
L 249.552903 -223.454964 
L 254.670408 -223.446688 
L 259.787914 -223.437861 
L 264.905419 -223.428482 
L 270.022925 -223.418552 
L 275.14043 -223.408069 
L 280.257935 -223.397035 
L 285.375441 -223.386553 
L 290.492946 -223.376622 
L 295.610452 -223.367244 
L 300.727957 -223.358416 
L 305.845463 -223.350141 
L 310.962968 -223.342417 
L 316.080474 -223.335245 
L 321.197979 -223.328625 
L 326.315484 -223.322556 
L 331.43299 -223.317039 
L 336.550495 -223.312074 
L 341.668001 -223.30766 
L 346.785506 -223.303798 
L 351.903012 -223.300488 
L 357.020517 -223.29773 
L 362.138023 -223.295523 
L 367.255528 -223.293868 
L 372.373033 -223.292764 
L 377.490539 -223.292213 
L 382.608044 -223.292213 
L 387.72555 -223.292213 
L 392.843055 -223.292213 
L 397.960561 -223.292213 
L 403.078066 -223.292213 
L 408.195572 -223.292213 
L 413.313077 -223.292213 
L 418.430582 -223.292213 
L 423.548088 -223.292213 
L 428.665593 -223.292213 
L 433.783099 -223.292213 
L 433.783099 -251.097841 
L 433.783099 -251.097841 
L 428.665593 -251.097841 
L 423.548088 -251.097841 
L 418.430582 -251.097841 
L 413.313077 -251.097841 
L 408.195572 -251.097841 
L 403.078066 -251.097841 
L 397.960561 -251.097841 
L 392.843055 -251.097841 
L 387.72555 -251.097841 
L 382.608044 -251.097841 
L 377.490539 -251.097841 
L 372.373033 -251.098393 
L 367.255528 -251.099496 
L 362.138023 -251.101151 
L 357.020517 -251.103358 
L 351.903012 -251.106116 
L 346.785506 -251.109426 
L 341.668001 -251.113288 
L 336.550495 -251.117702 
L 331.43299 -251.122667 
L 326.315484 -251.128184 
L 321.197979 -251.134253 
L 316.080474 -251.140873 
L 310.962968 -251.148045 
L 305.845463 -251.155769 
L 300.727957 -251.164045 
L 295.610452 -251.172872 
L 290.492946 -251.182251 
L 285.375441 -251.192181 
L 280.257935 -251.202664 
L 275.14043 -251.213698 
L 270.022925 -251.22418 
L 264.905419 -251.23411 
L 259.787914 -251.243489 
L 254.670408 -251.252317 
L 249.552903 -251.260592 
L 244.435397 -251.268316 
L 239.317892 -251.275488 
L 234.200386 -251.282108 
L 229.082881 -251.288177 
L 223.965376 -251.293694 
L 218.84787 -251.298659 
L 213.730365 -251.303073 
L 208.612859 -251.306935 
L 203.495354 -251.310245 
L 198.377848 -251.313003 
L 193.260343 -251.31521 
L 188.142837 -251.316865 
L 183.025332 -251.317969 
L 177.907827 -251.31852 
L 172.790321 -251.31852 
L 167.672816 -251.31852 
L 162.55531 -251.31852 
L 157.437805 -251.31852 
L 152.320299 -251.31852 
L 147.202794 -251.31852 
L 142.085288 -251.31852 
L 136.967783 -251.31852 
L 131.850277 -251.31852 
L 126.732772 -251.31852 
L 121.615267 -251.31852 
z
" style="stroke: #57d3db; stroke-opacity: 0.65"/>
    </defs>
    <g clip-path="url(#paabbbd5100)">
     <use xlink:href="#m79d2824894" x="0" y="280.512" style="fill: #57d3db; fill-opacity: 0.65; stroke: #57d3db; stroke-opacity: 0.65"/>
    </g>
   </g>
   <g id="PolyCollection_25">
    <defs>
     <path id="m6db1aad02b" d="M 121.615267 -251.5392 
L 121.615267 -251.31852 
L 126.732772 -251.31852 
L 131.850277 -251.31852 
L 136.967783 -251.31852 
L 142.085288 -251.31852 
L 147.202794 -251.31852 
L 152.320299 -251.31852 
L 157.437805 -251.31852 
L 162.55531 -251.31852 
L 167.672816 -251.31852 
L 172.790321 -251.31852 
L 177.907827 -251.31852 
L 183.025332 -251.342712 
L 188.142837 -251.391096 
L 193.260343 -251.463672 
L 198.377848 -251.56044 
L 203.495354 -251.6814 
L 208.612859 -251.826552 
L 213.730365 -251.995896 
L 218.84787 -252.189432 
L 223.965376 -252.40716 
L 229.082881 -252.64908 
L 234.200386 -252.915192 
L 239.317892 -253.205496 
L 244.435397 -253.519992 
L 249.552903 -253.85868 
L 254.670408 -254.22156 
L 259.787914 -254.608632 
L 264.905419 -255.019896 
L 270.022925 -255.455352 
L 275.14043 -255.915 
L 280.257935 -256.39884 
L 285.375441 -256.858488 
L 290.492946 -257.293944 
L 295.610452 -257.705208 
L 300.727957 -258.09228 
L 305.845463 -258.45516 
L 310.962968 -258.793848 
L 316.080474 -259.108344 
L 321.197979 -259.398648 
L 326.315484 -259.66476 
L 331.43299 -259.90668 
L 336.550495 -260.124408 
L 341.668001 -260.317944 
L 346.785506 -260.487288 
L 351.903012 -260.63244 
L 357.020517 -260.7534 
L 362.138023 -260.850168 
L 367.255528 -260.922744 
L 372.373033 -260.971128 
L 377.490539 -260.99532 
L 382.608044 -260.99532 
L 387.72555 -260.99532 
L 392.843055 -260.99532 
L 397.960561 -260.99532 
L 403.078066 -260.99532 
L 408.195572 -260.99532 
L 413.313077 -260.99532 
L 418.430582 -260.99532 
L 423.548088 -260.99532 
L 428.665593 -260.99532 
L 433.783099 -260.99532 
L 433.783099 -261.216 
L 433.783099 -261.216 
L 428.665593 -261.216 
L 423.548088 -261.216 
L 418.430582 -261.216 
L 413.313077 -261.216 
L 408.195572 -261.216 
L 403.078066 -261.216 
L 397.960561 -261.216 
L 392.843055 -261.216 
L 387.72555 -261.216 
L 382.608044 -261.216 
L 377.490539 -261.216 
L 372.373033 -261.191808 
L 367.255528 -261.143424 
L 362.138023 -261.070848 
L 357.020517 -260.97408 
L 351.903012 -260.85312 
L 346.785506 -260.707968 
L 341.668001 -260.538624 
L 336.550495 -260.345088 
L 331.43299 -260.12736 
L 326.315484 -259.88544 
L 321.197979 -259.619328 
L 316.080474 -259.329024 
L 310.962968 -259.014528 
L 305.845463 -258.67584 
L 300.727957 -258.31296 
L 295.610452 -257.925888 
L 290.492946 -257.514624 
L 285.375441 -257.079168 
L 280.257935 -256.61952 
L 275.14043 -256.13568 
L 270.022925 -255.676032 
L 264.905419 -255.240576 
L 259.787914 -254.829312 
L 254.670408 -254.44224 
L 249.552903 -254.07936 
L 244.435397 -253.740672 
L 239.317892 -253.426176 
L 234.200386 -253.135872 
L 229.082881 -252.86976 
L 223.965376 -252.62784 
L 218.84787 -252.410112 
L 213.730365 -252.216576 
L 208.612859 -252.047232 
L 203.495354 -251.90208 
L 198.377848 -251.78112 
L 193.260343 -251.684352 
L 188.142837 -251.611776 
L 183.025332 -251.563392 
L 177.907827 -251.5392 
L 172.790321 -251.5392 
L 167.672816 -251.5392 
L 162.55531 -251.5392 
L 157.437805 -251.5392 
L 152.320299 -251.5392 
L 147.202794 -251.5392 
L 142.085288 -251.5392 
L 136.967783 -251.5392 
L 131.850277 -251.5392 
L 126.732772 -251.5392 
L 121.615267 -251.5392 
z
" style="stroke: #57d3db; stroke-opacity: 0.65"/>
    </defs>
    <g clip-path="url(#paabbbd5100)">
     <use xlink:href="#m6db1aad02b" x="0" y="280.512" style="fill: #57d3db; fill-opacity: 0.65; stroke: #57d3db; stroke-opacity: 0.65"/>
    </g>
   </g>
   <g id="text_1">
    <!-- Astrocytes -->
    <g transform="translate(52.2375 223.922655) scale(0.12 -0.12)">
     <defs>
      <path id="TimesNewRomanPS-BoldMT-41" d="M 2663 1206 
L 1166 1206 
L 988 794 
Q 900 588 900 453 
Q 900 275 1044 191 
Q 1128 141 1459 116 
L 1459 0 
L 50 0 
L 50 116 
Q 278 150 425 304 
Q 572 459 788 944 
L 2303 4325 
L 2363 4325 
L 3891 850 
Q 4109 356 4250 228 
Q 4356 131 4550 116 
L 4550 0 
L 2500 0 
L 2500 116 
L 2584 116 
Q 2831 116 2931 184 
Q 3000 234 3000 328 
Q 3000 384 2981 444 
Q 2975 472 2888 678 
L 2663 1206 
z
M 2556 1438 
L 1925 2897 
L 1275 1438 
L 2556 1438 
z
" transform="scale(0.015625)"/>
      <path id="TimesNewRomanPS-BoldMT-73" d="M 2063 3003 
L 2109 2006 
L 2003 2006 
Q 1813 2450 1608 2612 
Q 1403 2775 1200 2775 
Q 1072 2775 981 2689 
Q 891 2603 891 2491 
Q 891 2406 953 2328 
Q 1053 2200 1512 1889 
Q 1972 1578 2117 1361 
Q 2263 1144 2263 875 
Q 2263 631 2141 397 
Q 2019 163 1797 37 
Q 1575 -88 1306 -88 
Q 1097 -88 747 44 
Q 653 78 619 78 
Q 516 78 447 -78 
L 344 -78 
L 294 972 
L 400 972 
Q 541 559 786 353 
Q 1031 147 1250 147 
Q 1400 147 1495 239 
Q 1591 331 1591 463 
Q 1591 613 1497 722 
Q 1403 831 1078 1053 
Q 600 1384 459 1559 
Q 253 1816 253 2125 
Q 253 2463 486 2736 
Q 719 3009 1159 3009 
Q 1397 3009 1619 2894 
Q 1703 2847 1756 2847 
Q 1813 2847 1847 2870 
Q 1881 2894 1956 3003 
L 2063 3003 
z
" transform="scale(0.015625)"/>
      <path id="TimesNewRomanPS-BoldMT-74" d="M 1375 3991 
L 1375 2922 
L 2069 2922 
L 2069 2613 
L 1375 2613 
L 1375 809 
Q 1375 556 1398 482 
Q 1422 409 1481 364 
Q 1541 319 1591 319 
Q 1794 319 1975 628 
L 2069 559 
Q 1816 -41 1247 -41 
Q 969 -41 776 114 
Q 584 269 531 459 
Q 500 566 500 1034 
L 500 2613 
L 119 2613 
L 119 2722 
Q 513 3000 789 3306 
Q 1066 3613 1272 3991 
L 1375 3991 
z
" transform="scale(0.015625)"/>
      <path id="TimesNewRomanPS-BoldMT-72" d="M 1428 2922 
L 1428 2259 
Q 1719 2713 1937 2861 
Q 2156 3009 2359 3009 
Q 2534 3009 2639 2901 
Q 2744 2794 2744 2597 
Q 2744 2388 2642 2272 
Q 2541 2156 2397 2156 
Q 2231 2156 2109 2262 
Q 1988 2369 1966 2381 
Q 1934 2400 1894 2400 
Q 1803 2400 1722 2331 
Q 1594 2225 1528 2028 
Q 1428 1725 1428 1359 
L 1428 688 
L 1431 513 
Q 1431 334 1453 284 
Q 1491 200 1564 161 
Q 1638 122 1813 113 
L 1813 0 
L 234 0 
L 234 113 
Q 425 128 492 217 
Q 559 306 559 688 
L 559 2303 
Q 559 2553 534 2622 
Q 503 2709 443 2750 
Q 384 2791 234 2806 
L 234 2922 
L 1428 2922 
z
" transform="scale(0.015625)"/>
      <path id="TimesNewRomanPS-BoldMT-6f" d="M 1594 3009 
Q 1975 3009 2303 2812 
Q 2631 2616 2801 2253 
Q 2972 1891 2972 1459 
Q 2972 838 2656 419 
Q 2275 -88 1603 -88 
Q 944 -88 587 375 
Q 231 838 231 1447 
Q 231 2075 595 2542 
Q 959 3009 1594 3009 
z
M 1606 2788 
Q 1447 2788 1333 2667 
Q 1219 2547 1183 2192 
Q 1147 1838 1147 1206 
Q 1147 872 1191 581 
Q 1225 359 1337 243 
Q 1450 128 1594 128 
Q 1734 128 1828 206 
Q 1950 313 1991 503 
Q 2053 800 2053 1703 
Q 2053 2234 1993 2432 
Q 1934 2631 1819 2722 
Q 1738 2788 1606 2788 
z
" transform="scale(0.015625)"/>
      <path id="TimesNewRomanPS-BoldMT-63" d="M 2600 753 
L 2697 678 
Q 2491 291 2183 101 
Q 1875 -88 1528 -88 
Q 944 -88 594 353 
Q 244 794 244 1413 
Q 244 2009 563 2463 
Q 947 3009 1622 3009 
Q 2075 3009 2342 2781 
Q 2609 2553 2609 2272 
Q 2609 2094 2501 1987 
Q 2394 1881 2219 1881 
Q 2034 1881 1914 2003 
Q 1794 2125 1766 2438 
Q 1747 2634 1675 2713 
Q 1603 2791 1506 2791 
Q 1356 2791 1250 2631 
Q 1088 2391 1088 1894 
Q 1088 1481 1219 1104 
Q 1350 728 1578 544 
Q 1750 409 1984 409 
Q 2138 409 2275 481 
Q 2413 553 2600 753 
z
" transform="scale(0.015625)"/>
      <path id="TimesNewRomanPS-BoldMT-79" d="M 1556 -119 
L 613 2047 
Q 400 2538 298 2650 
Q 197 2763 53 2806 
L 53 2922 
L 1606 2922 
L 1606 2806 
Q 1453 2800 1390 2747 
Q 1328 2694 1328 2619 
Q 1328 2500 1484 2150 
L 1984 1006 
L 2325 1891 
Q 2509 2363 2509 2547 
Q 2509 2663 2432 2731 
Q 2356 2800 2163 2806 
L 2163 2922 
L 3141 2922 
L 3141 2806 
Q 2997 2791 2906 2695 
Q 2816 2600 2603 2047 
L 1769 -119 
Q 1453 -931 1300 -1119 
Q 1084 -1381 759 -1381 
Q 500 -1381 339 -1232 
Q 178 -1084 178 -875 
Q 178 -694 289 -575 
Q 400 -456 563 -456 
Q 719 -456 814 -556 
Q 909 -656 913 -866 
Q 916 -984 941 -1019 
Q 966 -1053 1013 -1053 
Q 1088 -1053 1172 -963 
Q 1297 -831 1466 -363 
L 1556 -119 
z
" transform="scale(0.015625)"/>
      <path id="TimesNewRomanPS-BoldMT-65" d="M 2691 1566 
L 1088 1566 
Q 1116 984 1397 647 
Q 1613 388 1916 388 
Q 2103 388 2256 492 
Q 2409 597 2584 869 
L 2691 800 
Q 2453 316 2165 114 
Q 1878 -88 1500 -88 
Q 850 -88 516 413 
Q 247 816 247 1413 
Q 247 2144 642 2576 
Q 1038 3009 1569 3009 
Q 2013 3009 2339 2645 
Q 2666 2281 2691 1566 
z
M 1922 1775 
Q 1922 2278 1867 2465 
Q 1813 2653 1697 2750 
Q 1631 2806 1522 2806 
Q 1359 2806 1256 2647 
Q 1072 2369 1072 1884 
L 1072 1775 
L 1922 1775 
z
" transform="scale(0.015625)"/>
     </defs>
     <use xlink:href="#TimesNewRomanPS-BoldMT-41"/>
     <use xlink:href="#TimesNewRomanPS-BoldMT-73" x="72.216797"/>
     <use xlink:href="#TimesNewRomanPS-BoldMT-74" x="111.132812"/>
     <use xlink:href="#TimesNewRomanPS-BoldMT-72" x="144.433594"/>
     <use xlink:href="#TimesNewRomanPS-BoldMT-6f" x="187.068359"/>
     <use xlink:href="#TimesNewRomanPS-BoldMT-63" x="237.068359"/>
     <use xlink:href="#TimesNewRomanPS-BoldMT-79" x="281.453125"/>
     <use xlink:href="#TimesNewRomanPS-BoldMT-74" x="331.453125"/>
     <use xlink:href="#TimesNewRomanPS-BoldMT-65" x="364.753906"/>
     <use xlink:href="#TimesNewRomanPS-BoldMT-73" x="409.138672"/>
    </g>
   </g>
   <g id="text_2">
    <!-- Endothelial Cells -->
    <g transform="translate(18.328125 165.736372) scale(0.12 -0.12)">
     <defs>
      <path id="TimesNewRomanPS-BoldMT-45" d="M 1744 3994 
L 1744 2269 
L 1828 2269 
Q 2231 2269 2412 2522 
Q 2594 2775 2644 3269 
L 2763 3269 
L 2763 1050 
L 2644 1050 
Q 2606 1413 2486 1644 
Q 2366 1875 2206 1954 
Q 2047 2034 1744 2034 
L 1744 841 
Q 1744 491 1773 412 
Q 1803 334 1884 284 
Q 1966 234 2147 234 
L 2400 234 
Q 2994 234 3351 509 
Q 3709 784 3866 1347 
L 3981 1347 
L 3791 0 
L 128 0 
L 128 116 
L 269 116 
Q 453 116 566 181 
Q 647 225 691 331 
Q 725 406 725 725 
L 725 3513 
Q 725 3800 709 3866 
Q 678 3975 594 4034 
Q 475 4122 269 4122 
L 128 4122 
L 128 4238 
L 3675 4238 
L 3675 2984 
L 3556 2984 
Q 3466 3444 3302 3644 
Q 3138 3844 2838 3938 
Q 2663 3994 2181 3994 
L 1744 3994 
z
" transform="scale(0.015625)"/>
      <path id="TimesNewRomanPS-BoldMT-6e" d="M 1409 2922 
L 1409 2544 
Q 1634 2788 1840 2898 
Q 2047 3009 2284 3009 
Q 2569 3009 2756 2851 
Q 2944 2694 3006 2459 
Q 3056 2281 3056 1775 
L 3056 638 
Q 3056 300 3117 217 
Q 3178 134 3372 113 
L 3372 0 
L 1894 0 
L 1894 113 
Q 2059 134 2131 250 
Q 2181 328 2181 638 
L 2181 1938 
Q 2181 2297 2153 2390 
Q 2125 2484 2058 2536 
Q 1991 2588 1909 2588 
Q 1641 2588 1409 2203 
L 1409 638 
Q 1409 309 1470 221 
Q 1531 134 1697 113 
L 1697 0 
L 219 0 
L 219 113 
Q 403 131 481 231 
Q 534 300 534 638 
L 534 2288 
Q 534 2619 473 2700 
Q 413 2781 219 2806 
L 219 2922 
L 1409 2922 
z
" transform="scale(0.015625)"/>
      <path id="TimesNewRomanPS-BoldMT-64" d="M 3056 4238 
L 3056 875 
Q 3056 534 3075 472 
Q 3100 369 3170 319 
Q 3241 269 3416 256 
L 3416 153 
L 2181 -88 
L 2181 375 
Q 1959 106 1786 9 
Q 1613 -88 1394 -88 
Q 834 -88 509 413 
Q 247 819 247 1409 
Q 247 1881 409 2254 
Q 572 2628 855 2818 
Q 1138 3009 1463 3009 
Q 1672 3009 1834 2928 
Q 1997 2847 2181 2644 
L 2181 3525 
Q 2181 3859 2153 3928 
Q 2116 4019 2041 4062 
Q 1966 4106 1759 4106 
L 1759 4238 
L 3056 4238 
z
M 2181 2256 
Q 1950 2700 1616 2700 
Q 1500 2700 1425 2638 
Q 1309 2541 1236 2297 
Q 1163 2053 1163 1550 
Q 1163 997 1244 731 
Q 1325 466 1466 347 
Q 1538 288 1663 288 
Q 1938 288 2181 719 
L 2181 2256 
z
" transform="scale(0.015625)"/>
      <path id="TimesNewRomanPS-BoldMT-68" d="M 1409 4238 
L 1409 2547 
Q 1650 2800 1850 2904 
Q 2050 3009 2266 3009 
Q 2541 3009 2736 2853 
Q 2931 2697 2995 2486 
Q 3059 2275 3059 1775 
L 3059 634 
Q 3059 300 3121 217 
Q 3184 134 3375 113 
L 3375 0 
L 1894 0 
L 1894 113 
Q 2050 134 2128 238 
Q 2184 319 2184 634 
L 2184 1938 
Q 2184 2300 2156 2392 
Q 2128 2484 2061 2536 
Q 1994 2588 1909 2588 
Q 1784 2588 1665 2502 
Q 1547 2416 1409 2200 
L 1409 634 
Q 1409 322 1456 244 
Q 1516 138 1700 113 
L 1700 0 
L 219 0 
L 219 113 
Q 403 131 481 231 
Q 534 300 534 634 
L 534 3603 
Q 534 3934 473 4015 
Q 413 4097 219 4122 
L 219 4238 
L 1409 4238 
z
" transform="scale(0.015625)"/>
      <path id="TimesNewRomanPS-BoldMT-6c" d="M 1359 4238 
L 1359 606 
Q 1359 297 1431 211 
Q 1503 125 1713 113 
L 1713 0 
L 134 0 
L 134 113 
Q 328 119 422 225 
Q 484 297 484 606 
L 484 3631 
Q 484 3938 412 4023 
Q 341 4109 134 4122 
L 134 4238 
L 1359 4238 
z
" transform="scale(0.015625)"/>
      <path id="TimesNewRomanPS-BoldMT-69" d="M 919 4338 
Q 1122 4338 1262 4195 
Q 1403 4053 1403 3853 
Q 1403 3653 1261 3512 
Q 1119 3372 919 3372 
Q 719 3372 578 3512 
Q 438 3653 438 3853 
Q 438 4053 578 4195 
Q 719 4338 919 4338 
z
M 1356 2922 
L 1356 606 
Q 1356 297 1428 211 
Q 1500 125 1709 113 
L 1709 0 
L 131 0 
L 131 113 
Q 325 119 419 225 
Q 481 297 481 606 
L 481 2313 
Q 481 2622 409 2708 
Q 338 2794 131 2806 
L 131 2922 
L 1356 2922 
z
" transform="scale(0.015625)"/>
      <path id="TimesNewRomanPS-BoldMT-61" d="M 1828 431 
Q 1294 -41 869 -41 
Q 619 -41 453 123 
Q 288 288 288 534 
Q 288 869 575 1136 
Q 863 1403 1828 1847 
L 1828 2141 
Q 1828 2472 1792 2558 
Q 1756 2644 1656 2708 
Q 1556 2772 1431 2772 
Q 1228 2772 1097 2681 
Q 1016 2625 1016 2550 
Q 1016 2484 1103 2388 
Q 1222 2253 1222 2128 
Q 1222 1975 1108 1867 
Q 994 1759 809 1759 
Q 613 1759 480 1878 
Q 347 1997 347 2156 
Q 347 2381 525 2586 
Q 703 2791 1022 2900 
Q 1341 3009 1684 3009 
Q 2100 3009 2342 2832 
Q 2584 2656 2656 2450 
Q 2700 2319 2700 1847 
L 2700 713 
Q 2700 513 2715 461 
Q 2731 409 2762 384 
Q 2794 359 2834 359 
Q 2916 359 3000 475 
L 3094 400 
Q 2938 169 2770 64 
Q 2603 -41 2391 -41 
Q 2141 -41 2000 76 
Q 1859 194 1828 431 
z
M 1828 659 
L 1828 1638 
Q 1450 1416 1266 1163 
Q 1144 994 1144 822 
Q 1144 678 1247 569 
Q 1325 484 1466 484 
Q 1622 484 1828 659 
z
" transform="scale(0.015625)"/>
      <path id="TimesNewRomanPS-BoldMT-20" transform="scale(0.015625)"/>
      <path id="TimesNewRomanPS-BoldMT-43" d="M 4272 4334 
L 4272 2866 
L 4150 2866 
Q 4013 3441 3638 3747 
Q 3263 4053 2788 4053 
Q 2391 4053 2059 3825 
Q 1728 3597 1575 3228 
Q 1378 2756 1378 2178 
Q 1378 1609 1522 1142 
Q 1666 675 1972 436 
Q 2278 197 2766 197 
Q 3166 197 3498 372 
Q 3831 547 4200 975 
L 4200 609 
Q 3844 238 3458 70 
Q 3072 -97 2556 -97 
Q 1878 -97 1351 175 
Q 825 447 539 956 
Q 253 1466 253 2041 
Q 253 2647 570 3190 
Q 888 3734 1427 4034 
Q 1966 4334 2572 4334 
Q 3019 4334 3516 4141 
Q 3803 4028 3881 4028 
Q 3981 4028 4054 4101 
Q 4128 4175 4150 4334 
L 4272 4334 
z
" transform="scale(0.015625)"/>
     </defs>
     <use xlink:href="#TimesNewRomanPS-BoldMT-45"/>
     <use xlink:href="#TimesNewRomanPS-BoldMT-6e" x="66.699219"/>
     <use xlink:href="#TimesNewRomanPS-BoldMT-64" x="122.314453"/>
     <use xlink:href="#TimesNewRomanPS-BoldMT-6f" x="177.929688"/>
     <use xlink:href="#TimesNewRomanPS-BoldMT-74" x="227.929688"/>
     <use xlink:href="#TimesNewRomanPS-BoldMT-68" x="261.230469"/>
     <use xlink:href="#TimesNewRomanPS-BoldMT-65" x="316.845703"/>
     <use xlink:href="#TimesNewRomanPS-BoldMT-6c" x="361.230469"/>
     <use xlink:href="#TimesNewRomanPS-BoldMT-69" x="389.013672"/>
     <use xlink:href="#TimesNewRomanPS-BoldMT-61" x="416.796875"/>
     <use xlink:href="#TimesNewRomanPS-BoldMT-6c" x="466.796875"/>
     <use xlink:href="#TimesNewRomanPS-BoldMT-20" x="494.580078"/>
     <use xlink:href="#TimesNewRomanPS-BoldMT-43" x="519.580078"/>
     <use xlink:href="#TimesNewRomanPS-BoldMT-65" x="591.796875"/>
     <use xlink:href="#TimesNewRomanPS-BoldMT-6c" x="636.181641"/>
     <use xlink:href="#TimesNewRomanPS-BoldMT-6c" x="663.964844"/>
     <use xlink:href="#TimesNewRomanPS-BoldMT-73" x="691.748047"/>
    </g>
   </g>
   <g id="text_3">
    <!-- Inhibitory Neurons -->
    <g transform="translate(7.2 116.750765) scale(0.12 -0.12)">
     <defs>
      <path id="TimesNewRomanPS-BoldMT-49" d="M 2344 116 
L 2344 0 
L 128 0 
L 128 116 
L 269 116 
Q 453 116 566 181 
Q 647 225 691 331 
Q 725 406 725 725 
L 725 3513 
Q 725 3838 690 3919 
Q 656 4000 551 4061 
Q 447 4122 269 4122 
L 128 4122 
L 128 4238 
L 2344 4238 
L 2344 4122 
L 2203 4122 
Q 2019 4122 1906 4056 
Q 1825 4013 1778 3906 
Q 1744 3831 1744 3513 
L 1744 725 
Q 1744 400 1780 319 
Q 1816 238 1920 177 
Q 2025 116 2203 116 
L 2344 116 
z
" transform="scale(0.015625)"/>
      <path id="TimesNewRomanPS-BoldMT-62" d="M 1347 4238 
L 1347 2628 
Q 1716 3009 2153 3009 
Q 2453 3009 2718 2832 
Q 2984 2656 3134 2331 
Q 3284 2006 3284 1581 
Q 3284 1103 3093 712 
Q 2903 322 2584 117 
Q 2266 -88 1856 -88 
Q 1619 -88 1434 -12 
Q 1250 63 1072 231 
L 588 -84 
L 481 -84 
L 481 3631 
Q 481 3884 459 3944 
Q 428 4031 361 4073 
Q 294 4116 134 4122 
L 134 4238 
L 1347 4238 
z
M 1347 2350 
L 1347 1050 
Q 1347 653 1366 544 
Q 1397 359 1515 245 
Q 1634 131 1819 131 
Q 1978 131 2092 222 
Q 2206 313 2282 581 
Q 2359 850 2359 1550 
Q 2359 2222 2191 2472 
Q 2069 2653 1863 2653 
Q 1594 2653 1347 2350 
z
" transform="scale(0.015625)"/>
      <path id="TimesNewRomanPS-BoldMT-4e" d="M 1594 4238 
L 3684 1609 
L 3684 3431 
Q 3684 3813 3575 3947 
Q 3425 4128 3072 4122 
L 3072 4238 
L 4472 4238 
L 4472 4122 
Q 4203 4088 4111 4033 
Q 4019 3978 3967 3854 
Q 3916 3731 3916 3431 
L 3916 -97 
L 3809 -97 
L 944 3431 
L 944 738 
Q 944 372 1111 244 
Q 1278 116 1494 116 
L 1594 116 
L 1594 0 
L 91 0 
L 91 116 
Q 441 119 578 259 
Q 716 400 716 738 
L 716 3728 
L 625 3841 
Q 491 4009 387 4062 
Q 284 4116 91 4122 
L 91 4238 
L 1594 4238 
z
" transform="scale(0.015625)"/>
      <path id="TimesNewRomanPS-BoldMT-75" d="M 3038 2922 
L 3038 634 
Q 3038 300 3100 217 
Q 3163 134 3353 113 
L 3353 0 
L 2163 0 
L 2163 391 
Q 1953 141 1743 26 
Q 1534 -88 1275 -88 
Q 1028 -88 836 64 
Q 644 216 578 419 
Q 513 622 513 1128 
L 513 2288 
Q 513 2619 452 2700 
Q 391 2781 197 2806 
L 197 2922 
L 1388 2922 
L 1388 925 
Q 1388 613 1417 522 
Q 1447 431 1511 384 
Q 1575 338 1659 338 
Q 1772 338 1863 397 
Q 1988 478 2163 725 
L 2163 2288 
Q 2163 2619 2102 2700 
Q 2041 2781 1847 2806 
L 1847 2922 
L 3038 2922 
z
" transform="scale(0.015625)"/>
     </defs>
     <use xlink:href="#TimesNewRomanPS-BoldMT-49"/>
     <use xlink:href="#TimesNewRomanPS-BoldMT-6e" x="38.916016"/>
     <use xlink:href="#TimesNewRomanPS-BoldMT-68" x="94.53125"/>
     <use xlink:href="#TimesNewRomanPS-BoldMT-69" x="150.146484"/>
     <use xlink:href="#TimesNewRomanPS-BoldMT-62" x="177.929688"/>
     <use xlink:href="#TimesNewRomanPS-BoldMT-69" x="233.544922"/>
     <use xlink:href="#TimesNewRomanPS-BoldMT-74" x="261.328125"/>
     <use xlink:href="#TimesNewRomanPS-BoldMT-6f" x="294.628906"/>
     <use xlink:href="#TimesNewRomanPS-BoldMT-72" x="344.628906"/>
     <use xlink:href="#TimesNewRomanPS-BoldMT-79" x="389.013672"/>
     <use xlink:href="#TimesNewRomanPS-BoldMT-20" x="439.013672"/>
     <use xlink:href="#TimesNewRomanPS-BoldMT-4e" x="464.013672"/>
     <use xlink:href="#TimesNewRomanPS-BoldMT-65" x="536.230469"/>
     <use xlink:href="#TimesNewRomanPS-BoldMT-75" x="580.615234"/>
     <use xlink:href="#TimesNewRomanPS-BoldMT-72" x="636.230469"/>
     <use xlink:href="#TimesNewRomanPS-BoldMT-6f" x="678.865234"/>
     <use xlink:href="#TimesNewRomanPS-BoldMT-6e" x="728.865234"/>
     <use xlink:href="#TimesNewRomanPS-BoldMT-73" x="784.480469"/>
    </g>
   </g>
   <g id="text_4">
    <!-- Microglia -->
    <g transform="translate(56.235 72.868629) scale(0.12 -0.12)">
     <defs>
      <path id="TimesNewRomanPS-BoldMT-4d" d="M 3050 1444 
L 4200 4238 
L 5925 4238 
L 5925 4122 
L 5788 4122 
Q 5600 4122 5488 4056 
Q 5409 4013 5363 3909 
Q 5328 3834 5328 3519 
L 5328 725 
Q 5328 400 5362 319 
Q 5397 238 5503 177 
Q 5609 116 5788 116 
L 5925 116 
L 5925 0 
L 3713 0 
L 3713 116 
L 3850 116 
Q 4038 116 4150 181 
Q 4228 225 4275 331 
Q 4309 406 4309 725 
L 4309 3866 
L 2684 0 
L 2609 0 
L 959 3838 
L 959 853 
Q 959 541 975 469 
Q 1016 313 1152 214 
Q 1288 116 1578 116 
L 1578 0 
L 128 0 
L 128 116 
L 172 116 
Q 313 113 434 161 
Q 556 209 618 290 
Q 681 372 716 519 
Q 722 553 722 838 
L 722 3519 
Q 722 3841 687 3920 
Q 653 4000 547 4061 
Q 441 4122 263 4122 
L 128 4122 
L 128 4238 
L 1859 4238 
L 3050 1444 
z
" transform="scale(0.015625)"/>
      <path id="TimesNewRomanPS-BoldMT-67" d="M 2091 2888 
L 3075 2888 
L 3075 2544 
L 2516 2544 
Q 2669 2391 2728 2266 
Q 2803 2097 2803 1913 
Q 2803 1600 2629 1370 
Q 2456 1141 2157 1011 
Q 1859 881 1628 881 
Q 1609 881 1253 897 
Q 1113 897 1017 805 
Q 922 713 922 584 
Q 922 472 1008 400 
Q 1094 328 1288 328 
L 1828 334 
Q 2484 334 2731 191 
Q 3084 -9 3084 -425 
Q 3084 -691 2921 -908 
Q 2759 -1125 2494 -1228 
Q 2091 -1381 1566 -1381 
Q 1172 -1381 847 -1304 
Q 522 -1228 381 -1092 
Q 241 -956 241 -806 
Q 241 -663 348 -548 
Q 456 -434 750 -356 
Q 344 -156 344 200 
Q 344 416 509 619 
Q 675 822 1034 972 
Q 616 1125 428 1375 
Q 241 1625 241 1953 
Q 241 2381 591 2695 
Q 941 3009 1491 3009 
Q 1781 3009 2091 2888 
z
M 1550 2816 
Q 1369 2816 1244 2633 
Q 1119 2450 1119 1875 
Q 1119 1409 1242 1236 
Q 1366 1063 1534 1063 
Q 1722 1063 1847 1234 
Q 1972 1406 1972 1903 
Q 1972 2463 1831 2666 
Q 1731 2816 1550 2816 
z
M 1366 -431 
Q 1047 -431 944 -484 
Q 766 -581 766 -747 
Q 766 -906 950 -1036 
Q 1134 -1166 1644 -1166 
Q 2078 -1166 2326 -1050 
Q 2575 -934 2575 -725 
Q 2575 -647 2528 -594 
Q 2444 -500 2273 -465 
Q 2103 -431 1366 -431 
z
" transform="scale(0.015625)"/>
     </defs>
     <use xlink:href="#TimesNewRomanPS-BoldMT-4d"/>
     <use xlink:href="#TimesNewRomanPS-BoldMT-69" x="94.384766"/>
     <use xlink:href="#TimesNewRomanPS-BoldMT-63" x="122.167969"/>
     <use xlink:href="#TimesNewRomanPS-BoldMT-72" x="166.552734"/>
     <use xlink:href="#TimesNewRomanPS-BoldMT-6f" x="209.1875"/>
     <use xlink:href="#TimesNewRomanPS-BoldMT-67" x="259.1875"/>
     <use xlink:href="#TimesNewRomanPS-BoldMT-6c" x="309.1875"/>
     <use xlink:href="#TimesNewRomanPS-BoldMT-69" x="336.970703"/>
     <use xlink:href="#TimesNewRomanPS-BoldMT-61" x="364.753906"/>
    </g>
   </g>
   <g id="text_5">
    <!-- Oligodendrocytes -->
    <g transform="translate(16.2225 45.868481) scale(0.12 -0.12)">
     <defs>
      <path id="TimesNewRomanPS-BoldMT-4f" d="M 2472 4297 
Q 3484 4334 4117 3706 
Q 4750 3078 4750 2134 
Q 4750 1328 4278 716 
Q 3653 -97 2513 -97 
Q 1369 -97 744 678 
Q 250 1291 250 2131 
Q 250 3075 892 3704 
Q 1534 4334 2472 4297 
z
M 2509 4097 
Q 1928 4097 1625 3503 
Q 1378 3016 1378 2103 
Q 1378 1019 1759 500 
Q 2025 138 2503 138 
Q 2825 138 3041 294 
Q 3316 494 3469 933 
Q 3622 1372 3622 2078 
Q 3622 2919 3465 3336 
Q 3309 3753 3067 3925 
Q 2825 4097 2509 4097 
z
" transform="scale(0.015625)"/>
     </defs>
     <use xlink:href="#TimesNewRomanPS-BoldMT-4f"/>
     <use xlink:href="#TimesNewRomanPS-BoldMT-6c" x="77.783203"/>
     <use xlink:href="#TimesNewRomanPS-BoldMT-69" x="105.566406"/>
     <use xlink:href="#TimesNewRomanPS-BoldMT-67" x="133.349609"/>
     <use xlink:href="#TimesNewRomanPS-BoldMT-6f" x="183.349609"/>
     <use xlink:href="#TimesNewRomanPS-BoldMT-64" x="233.349609"/>
     <use xlink:href="#TimesNewRomanPS-BoldMT-65" x="288.964844"/>
     <use xlink:href="#TimesNewRomanPS-BoldMT-6e" x="333.349609"/>
     <use xlink:href="#TimesNewRomanPS-BoldMT-64" x="388.964844"/>
     <use xlink:href="#TimesNewRomanPS-BoldMT-72" x="444.580078"/>
     <use xlink:href="#TimesNewRomanPS-BoldMT-6f" x="487.214844"/>
     <use xlink:href="#TimesNewRomanPS-BoldMT-63" x="537.214844"/>
     <use xlink:href="#TimesNewRomanPS-BoldMT-79" x="581.599609"/>
     <use xlink:href="#TimesNewRomanPS-BoldMT-74" x="631.599609"/>
     <use xlink:href="#TimesNewRomanPS-BoldMT-65" x="664.900391"/>
     <use xlink:href="#TimesNewRomanPS-BoldMT-73" x="709.285156"/>
    </g>
   </g>
   <g id="text_6">
    <!-- Astrocytes -->
    <g transform="translate(449.39149 224.032994) scale(0.12 -0.12)">
     <use xlink:href="#TimesNewRomanPS-BoldMT-41"/>
     <use xlink:href="#TimesNewRomanPS-BoldMT-73" x="72.216797"/>
     <use xlink:href="#TimesNewRomanPS-BoldMT-74" x="111.132812"/>
     <use xlink:href="#TimesNewRomanPS-BoldMT-72" x="144.433594"/>
     <use xlink:href="#TimesNewRomanPS-BoldMT-6f" x="187.068359"/>
     <use xlink:href="#TimesNewRomanPS-BoldMT-63" x="237.068359"/>
     <use xlink:href="#TimesNewRomanPS-BoldMT-79" x="281.453125"/>
     <use xlink:href="#TimesNewRomanPS-BoldMT-74" x="331.453125"/>
     <use xlink:href="#TimesNewRomanPS-BoldMT-65" x="364.753906"/>
     <use xlink:href="#TimesNewRomanPS-BoldMT-73" x="409.138672"/>
    </g>
   </g>
   <g id="text_7">
    <!-- Endothelial Cells -->
    <g transform="translate(449.39149 166.067391) scale(0.12 -0.12)">
     <use xlink:href="#TimesNewRomanPS-BoldMT-45"/>
     <use xlink:href="#TimesNewRomanPS-BoldMT-6e" x="66.699219"/>
     <use xlink:href="#TimesNewRomanPS-BoldMT-64" x="122.314453"/>
     <use xlink:href="#TimesNewRomanPS-BoldMT-6f" x="177.929688"/>
     <use xlink:href="#TimesNewRomanPS-BoldMT-74" x="227.929688"/>
     <use xlink:href="#TimesNewRomanPS-BoldMT-68" x="261.230469"/>
     <use xlink:href="#TimesNewRomanPS-BoldMT-65" x="316.845703"/>
     <use xlink:href="#TimesNewRomanPS-BoldMT-6c" x="361.230469"/>
     <use xlink:href="#TimesNewRomanPS-BoldMT-69" x="389.013672"/>
     <use xlink:href="#TimesNewRomanPS-BoldMT-61" x="416.796875"/>
     <use xlink:href="#TimesNewRomanPS-BoldMT-6c" x="466.796875"/>
     <use xlink:href="#TimesNewRomanPS-BoldMT-20" x="494.580078"/>
     <use xlink:href="#TimesNewRomanPS-BoldMT-43" x="519.580078"/>
     <use xlink:href="#TimesNewRomanPS-BoldMT-65" x="591.796875"/>
     <use xlink:href="#TimesNewRomanPS-BoldMT-6c" x="636.181641"/>
     <use xlink:href="#TimesNewRomanPS-BoldMT-6c" x="663.964844"/>
     <use xlink:href="#TimesNewRomanPS-BoldMT-73" x="691.748047"/>
    </g>
   </g>
   <g id="text_8">
    <!-- Excitatory Neurons -->
    <g transform="translate(449.39149 148.087267) scale(0.12 -0.12)">
     <defs>
      <path id="TimesNewRomanPS-BoldMT-78" d="M 1944 1791 
L 2450 828 
Q 2713 325 2866 191 
Q 2950 119 3097 113 
L 3097 0 
L 1469 0 
L 1469 113 
Q 1659 128 1704 162 
Q 1750 197 1750 256 
Q 1750 344 1650 531 
L 1397 1006 
L 1181 691 
Q 1034 475 1016 434 
Q 991 375 991 328 
Q 991 256 1020 207 
Q 1050 159 1101 136 
Q 1153 113 1291 113 
L 1291 0 
L 147 0 
L 147 113 
Q 359 113 536 230 
Q 713 347 1050 844 
L 1291 1200 
L 788 2131 
Q 541 2588 419 2691 
Q 297 2794 147 2806 
L 147 2922 
L 1766 2922 
L 1766 2806 
L 1681 2803 
L 1519 2747 
Q 1494 2725 1494 2675 
Q 1494 2628 1509 2578 
Q 1519 2556 1597 2409 
L 1825 1984 
L 1944 2153 
Q 2194 2497 2194 2634 
Q 2194 2700 2139 2745 
Q 2084 2791 1944 2806 
L 1944 2922 
L 2978 2922 
L 2978 2806 
Q 2788 2800 2622 2689 
Q 2456 2578 2250 2259 
L 1944 1791 
z
" transform="scale(0.015625)"/>
     </defs>
     <use xlink:href="#TimesNewRomanPS-BoldMT-45"/>
     <use xlink:href="#TimesNewRomanPS-BoldMT-78" x="66.699219"/>
     <use xlink:href="#TimesNewRomanPS-BoldMT-63" x="116.699219"/>
     <use xlink:href="#TimesNewRomanPS-BoldMT-69" x="161.083984"/>
     <use xlink:href="#TimesNewRomanPS-BoldMT-74" x="188.867188"/>
     <use xlink:href="#TimesNewRomanPS-BoldMT-61" x="222.167969"/>
     <use xlink:href="#TimesNewRomanPS-BoldMT-74" x="272.167969"/>
     <use xlink:href="#TimesNewRomanPS-BoldMT-6f" x="305.46875"/>
     <use xlink:href="#TimesNewRomanPS-BoldMT-72" x="355.46875"/>
     <use xlink:href="#TimesNewRomanPS-BoldMT-79" x="399.853516"/>
     <use xlink:href="#TimesNewRomanPS-BoldMT-20" x="449.853516"/>
     <use xlink:href="#TimesNewRomanPS-BoldMT-4e" x="474.853516"/>
     <use xlink:href="#TimesNewRomanPS-BoldMT-65" x="547.070312"/>
     <use xlink:href="#TimesNewRomanPS-BoldMT-75" x="591.455078"/>
     <use xlink:href="#TimesNewRomanPS-BoldMT-72" x="647.070312"/>
     <use xlink:href="#TimesNewRomanPS-BoldMT-6f" x="689.705078"/>
     <use xlink:href="#TimesNewRomanPS-BoldMT-6e" x="739.705078"/>
     <use xlink:href="#TimesNewRomanPS-BoldMT-73" x="795.320312"/>
    </g>
   </g>
   <g id="text_9">
    <!-- Inhibitory Neurons -->
    <g transform="translate(449.39149 103.984451) scale(0.12 -0.12)">
     <use xlink:href="#TimesNewRomanPS-BoldMT-49"/>
     <use xlink:href="#TimesNewRomanPS-BoldMT-6e" x="38.916016"/>
     <use xlink:href="#TimesNewRomanPS-BoldMT-68" x="94.53125"/>
     <use xlink:href="#TimesNewRomanPS-BoldMT-69" x="150.146484"/>
     <use xlink:href="#TimesNewRomanPS-BoldMT-62" x="177.929688"/>
     <use xlink:href="#TimesNewRomanPS-BoldMT-69" x="233.544922"/>
     <use xlink:href="#TimesNewRomanPS-BoldMT-74" x="261.328125"/>
     <use xlink:href="#TimesNewRomanPS-BoldMT-6f" x="294.628906"/>
     <use xlink:href="#TimesNewRomanPS-BoldMT-72" x="344.628906"/>
     <use xlink:href="#TimesNewRomanPS-BoldMT-79" x="389.013672"/>
     <use xlink:href="#TimesNewRomanPS-BoldMT-20" x="439.013672"/>
     <use xlink:href="#TimesNewRomanPS-BoldMT-4e" x="464.013672"/>
     <use xlink:href="#TimesNewRomanPS-BoldMT-65" x="536.230469"/>
     <use xlink:href="#TimesNewRomanPS-BoldMT-75" x="580.615234"/>
     <use xlink:href="#TimesNewRomanPS-BoldMT-72" x="636.230469"/>
     <use xlink:href="#TimesNewRomanPS-BoldMT-6f" x="678.865234"/>
     <use xlink:href="#TimesNewRomanPS-BoldMT-6e" x="728.865234"/>
     <use xlink:href="#TimesNewRomanPS-BoldMT-73" x="784.480469"/>
    </g>
   </g>
   <g id="text_10">
    <!-- Microglia -->
    <g transform="translate(449.39149 46.089161) scale(0.12 -0.12)">
     <use xlink:href="#TimesNewRomanPS-BoldMT-4d"/>
     <use xlink:href="#TimesNewRomanPS-BoldMT-69" x="94.384766"/>
     <use xlink:href="#TimesNewRomanPS-BoldMT-63" x="122.167969"/>
     <use xlink:href="#TimesNewRomanPS-BoldMT-72" x="166.552734"/>
     <use xlink:href="#TimesNewRomanPS-BoldMT-6f" x="209.1875"/>
     <use xlink:href="#TimesNewRomanPS-BoldMT-67" x="259.1875"/>
     <use xlink:href="#TimesNewRomanPS-BoldMT-6c" x="309.1875"/>
     <use xlink:href="#TimesNewRomanPS-BoldMT-69" x="336.970703"/>
     <use xlink:href="#TimesNewRomanPS-BoldMT-61" x="364.753906"/>
    </g>
   </g>
   <g id="text_11">
    <!-- Oligodendrocytes -->
    <g transform="translate(449.39149 22.288867) scale(0.12 -0.12)">
     <use xlink:href="#TimesNewRomanPS-BoldMT-4f"/>
     <use xlink:href="#TimesNewRomanPS-BoldMT-6c" x="77.783203"/>
     <use xlink:href="#TimesNewRomanPS-BoldMT-69" x="105.566406"/>
     <use xlink:href="#TimesNewRomanPS-BoldMT-67" x="133.349609"/>
     <use xlink:href="#TimesNewRomanPS-BoldMT-6f" x="183.349609"/>
     <use xlink:href="#TimesNewRomanPS-BoldMT-64" x="233.349609"/>
     <use xlink:href="#TimesNewRomanPS-BoldMT-65" x="288.964844"/>
     <use xlink:href="#TimesNewRomanPS-BoldMT-6e" x="333.349609"/>
     <use xlink:href="#TimesNewRomanPS-BoldMT-64" x="388.964844"/>
     <use xlink:href="#TimesNewRomanPS-BoldMT-72" x="444.580078"/>
     <use xlink:href="#TimesNewRomanPS-BoldMT-6f" x="487.214844"/>
     <use xlink:href="#TimesNewRomanPS-BoldMT-63" x="537.214844"/>
     <use xlink:href="#TimesNewRomanPS-BoldMT-79" x="581.599609"/>
     <use xlink:href="#TimesNewRomanPS-BoldMT-74" x="631.599609"/>
     <use xlink:href="#TimesNewRomanPS-BoldMT-65" x="664.900391"/>
     <use xlink:href="#TimesNewRomanPS-BoldMT-73" x="709.285156"/>
    </g>
   </g>
  </g>
 </g>
 <defs>
  <clipPath id="paabbbd5100">
   <rect x="99.139183" y="7.2" width="357.12" height="266.112"/>
  </clipPath>
 </defs>
</svg>
