<?xml version="1.0" encoding="utf-8" standalone="no"?>
<!DOCTYPE svg PUBLIC "-//W3C//DTD SVG 1.1//EN"
  "http://www.w3.org/Graphics/SVG/1.1/DTD/svg11.dtd">
<svg xmlns:xlink="http://www.w3.org/1999/xlink" width="558.004615pt" height="280.512pt" viewBox="0 0 558.004615 280.512" xmlns="http://www.w3.org/2000/svg" version="1.1">
 <metadata>
  <rdf:RDF xmlns:dc="http://purl.org/dc/elements/1.1/" xmlns:cc="http://creativecommons.org/ns#" xmlns:rdf="http://www.w3.org/1999/02/22-rdf-syntax-ns#">
   <cc:Work>
    <dc:type rdf:resource="http://purl.org/dc/dcmitype/StillImage"/>
    <dc:date>2025-03-16T19:48:49.954401</dc:date>
    <dc:format>image/svg+xml</dc:format>
    <dc:creator>
     <cc:Agent>
      <dc:title>Matplotlib v3.9.3, https://matplotlib.org/</dc:title>
     </cc:Agent>
    </dc:creator>
   </cc:Work>
  </rdf:RDF>
 </metadata>
 <defs>
  <style type="text/css">*{stroke-linejoin: round; stroke-linecap: butt}</style>
 </defs>
 <g id="figure_1">
  <g id="patch_1">
   <path d="M 0 280.512 
L 558.004615 280.512 
L 558.004615 0 
L 0 0 
z
" style="fill: #ffffff"/>
  </g>
  <g id="axes_1">
   <g id="PolyCollection_1">
    <defs>
     <path id="m529f96e7c0" d="M 116.675035 -57.628685 
L 116.675035 -19.296 
L 122.918392 -19.296 
L 122.918392 -57.628685 
L 122.918392 -57.628685 
L 116.675035 -57.628685 
z
" style="stroke: #57db5f; stroke-opacity: 0.99"/>
    </defs>
    <g clip-path="url(#paf8fd71556)">
     <use xlink:href="#m529f96e7c0" x="0" y="280.512" style="fill: #57db5f; fill-opacity: 0.99; stroke: #57db5f; stroke-opacity: 0.99"/>
    </g>
   </g>
   <g id="PolyCollection_2">
    <defs>
     <path id="m3cc9589af9" d="M 116.675035 -77.108959 
L 116.675035 -67.305485 
L 122.918392 -67.305485 
L 122.918392 -77.108959 
L 122.918392 -77.108959 
L 116.675035 -77.108959 
z
" style="stroke: #5f57db; stroke-opacity: 0.99"/>
    </defs>
    <g clip-path="url(#paf8fd71556)">
     <use xlink:href="#m3cc9589af9" x="0" y="280.512" style="fill: #5f57db; fill-opacity: 0.99; stroke: #5f57db; stroke-opacity: 0.99"/>
    </g>
   </g>
   <g id="PolyCollection_3">
    <defs>
     <path id="m52db97cc4d" d="M 116.675035 -139.548277 
L 116.675035 -86.785759 
L 122.918392 -86.785759 
L 122.918392 -139.548277 
L 122.918392 -139.548277 
L 116.675035 -139.548277 
z
" style="stroke: #db57d3; stroke-opacity: 0.99"/>
    </defs>
    <g clip-path="url(#paf8fd71556)">
     <use xlink:href="#m52db97cc4d" x="0" y="280.512" style="fill: #db57d3; fill-opacity: 0.99; stroke: #db57d3; stroke-opacity: 0.99"/>
    </g>
   </g>
   <g id="PolyCollection_4">
    <defs>
     <path id="m143498953c" d="M 116.675035 -189.540488 
L 116.675035 -149.225077 
L 122.918392 -149.225077 
L 122.918392 -189.540488 
L 122.918392 -189.540488 
L 116.675035 -189.540488 
z
" style="stroke: #db5f57; stroke-opacity: 0.99"/>
    </defs>
    <g clip-path="url(#paf8fd71556)">
     <use xlink:href="#m143498953c" x="0" y="280.512" style="fill: #db5f57; fill-opacity: 0.99; stroke: #db5f57; stroke-opacity: 0.99"/>
    </g>
   </g>
   <g id="PolyCollection_5">
    <defs>
     <path id="m3ecc421f9c" d="M 116.675035 -208.139551 
L 116.675035 -199.217288 
L 122.918392 -199.217288 
L 122.918392 -208.139551 
L 122.918392 -208.139551 
L 116.675035 -208.139551 
z
" style="stroke: #d3db57; stroke-opacity: 0.99"/>
    </defs>
    <g clip-path="url(#paf8fd71556)">
     <use xlink:href="#m3ecc421f9c" x="0" y="280.512" style="fill: #d3db57; fill-opacity: 0.99; stroke: #d3db57; stroke-opacity: 0.99"/>
    </g>
   </g>
   <g id="PolyCollection_6">
    <defs>
     <path id="m29af074386" d="M 116.675035 -261.216 
L 116.675035 -217.816351 
L 122.918392 -217.816351 
L 122.918392 -261.216 
L 122.918392 -261.216 
L 116.675035 -261.216 
z
" style="stroke: #57d3db; stroke-opacity: 0.99"/>
    </defs>
    <g clip-path="url(#paf8fd71556)">
     <use xlink:href="#m29af074386" x="0" y="280.512" style="fill: #57d3db; fill-opacity: 0.99; stroke: #57d3db; stroke-opacity: 0.99"/>
    </g>
   </g>
   <g id="PolyCollection_7">
    <defs>
     <path id="m24413e2999" d="M 435.086224 -58.509896 
L 435.086224 -19.296 
L 441.32958 -19.296 
L 441.32958 -58.509896 
L 441.32958 -58.509896 
L 435.086224 -58.509896 
z
" style="stroke: #57db5f; stroke-opacity: 0.99"/>
    </defs>
    <g clip-path="url(#paf8fd71556)">
     <use xlink:href="#m24413e2999" x="0" y="280.512" style="fill: #57db5f; fill-opacity: 0.99; stroke: #57db5f; stroke-opacity: 0.99"/>
    </g>
   </g>
   <g id="PolyCollection_8">
    <defs>
     <path id="md80f60c7fa" d="M 435.086224 -77.880019 
L 435.086224 -68.186696 
L 441.32958 -68.186696 
L 441.32958 -77.880019 
L 441.32958 -77.880019 
L 435.086224 -77.880019 
z
" style="stroke: #5f57db; stroke-opacity: 0.99"/>
    </defs>
    <g clip-path="url(#paf8fd71556)">
     <use xlink:href="#md80f60c7fa" x="0" y="280.512" style="fill: #5f57db; fill-opacity: 0.99; stroke: #5f57db; stroke-opacity: 0.99"/>
    </g>
   </g>
   <g id="PolyCollection_9">
    <defs>
     <path id="m6e39e5a3ff" d="M 435.086224 -139.107672 
L 435.086224 -87.556819 
L 441.32958 -87.556819 
L 441.32958 -139.107672 
L 441.32958 -139.107672 
L 435.086224 -139.107672 
z
" style="stroke: #db57d3; stroke-opacity: 0.99"/>
    </defs>
    <g clip-path="url(#paf8fd71556)">
     <use xlink:href="#m6e39e5a3ff" x="0" y="280.512" style="fill: #db57d3; fill-opacity: 0.99; stroke: #db57d3; stroke-opacity: 0.99"/>
    </g>
   </g>
   <g id="PolyCollection_10">
    <defs>
     <path id="mee246684b5" d="M 435.086224 -199.123659 
L 435.086224 -148.784472 
L 441.32958 -148.784472 
L 441.32958 -199.123659 
L 441.32958 -199.123659 
L 435.086224 -199.123659 
z
" style="stroke: #db5f57; stroke-opacity: 0.99"/>
    </defs>
    <g clip-path="url(#paf8fd71556)">
     <use xlink:href="#mee246684b5" x="0" y="280.512" style="fill: #db5f57; fill-opacity: 0.99; stroke: #db5f57; stroke-opacity: 0.99"/>
    </g>
   </g>
   <g id="PolyCollection_11">
    <defs>
     <path id="m2095652911" d="M 435.086224 -251.5392 
L 435.086224 -208.800459 
L 441.32958 -208.800459 
L 441.32958 -251.5392 
L 441.32958 -251.5392 
L 435.086224 -251.5392 
z
" style="stroke: #d3db57; stroke-opacity: 0.99"/>
    </defs>
    <g clip-path="url(#paf8fd71556)">
     <use xlink:href="#m2095652911" x="0" y="280.512" style="fill: #d3db57; fill-opacity: 0.99; stroke: #d3db57; stroke-opacity: 0.99"/>
    </g>
   </g>
   <g id="PolyCollection_12">
    <defs>
     <path id="m368d6c1d16" d="M 122.918392 -57.18808 
L 122.918392 -19.296 
L 128.035897 -19.296 
L 133.153402 -19.296 
L 138.270908 -19.296 
L 143.388413 -19.296 
L 148.505919 -19.296 
L 153.623424 -19.296 
L 158.74093 -19.296 
L 163.858435 -19.296 
L 168.975941 -19.296 
L 174.093446 -19.296 
L 179.210952 -19.296 
L 184.328457 -19.296 
L 189.445962 -19.296 
L 194.563468 -19.296 
L 199.680973 -19.296 
L 204.798479 -19.296 
L 209.915984 -19.296 
L 215.03349 -19.296 
L 220.150995 -19.296 
L 225.268501 -19.296 
L 230.386006 -19.296 
L 235.503511 -19.296 
L 240.621017 -19.296 
L 245.738522 -19.296 
L 250.856028 -19.296 
L 255.973533 -19.296 
L 261.091039 -19.296 
L 266.208544 -19.296 
L 271.32605 -19.296 
L 276.443555 -19.296 
L 281.56106 -19.296 
L 286.678566 -19.296 
L 291.796071 -19.296 
L 296.913577 -19.296 
L 302.031082 -19.296 
L 307.148588 -19.296 
L 312.266093 -19.296 
L 317.383599 -19.296 
L 322.501104 -19.296 
L 327.618609 -19.296 
L 332.736115 -19.296 
L 337.85362 -19.296 
L 342.971126 -19.296 
L 348.088631 -19.296 
L 353.206137 -19.296 
L 358.323642 -19.296 
L 363.441148 -19.296 
L 368.558653 -19.296 
L 373.676158 -19.296 
L 378.793664 -19.296 
L 383.911169 -19.296 
L 389.028675 -19.296 
L 394.14618 -19.296 
L 399.263686 -19.296 
L 404.381191 -19.296 
L 409.498697 -19.296 
L 414.616202 -19.296 
L 419.733707 -19.296 
L 424.851213 -19.296 
L 429.968718 -19.296 
L 435.086224 -19.296 
L 435.086224 -57.18808 
L 435.086224 -57.18808 
L 429.968718 -57.18808 
L 424.851213 -57.18808 
L 419.733707 -57.18808 
L 414.616202 -57.18808 
L 409.498697 -57.18808 
L 404.381191 -57.18808 
L 399.263686 -57.18808 
L 394.14618 -57.18808 
L 389.028675 -57.18808 
L 383.911169 -57.18808 
L 378.793664 -57.18808 
L 373.676158 -57.18808 
L 368.558653 -57.18808 
L 363.441148 -57.18808 
L 358.323642 -57.18808 
L 353.206137 -57.18808 
L 348.088631 -57.18808 
L 342.971126 -57.18808 
L 337.85362 -57.18808 
L 332.736115 -57.18808 
L 327.618609 -57.18808 
L 322.501104 -57.18808 
L 317.383599 -57.18808 
L 312.266093 -57.18808 
L 307.148588 -57.18808 
L 302.031082 -57.18808 
L 296.913577 -57.18808 
L 291.796071 -57.18808 
L 286.678566 -57.18808 
L 281.56106 -57.18808 
L 276.443555 -57.18808 
L 271.32605 -57.18808 
L 266.208544 -57.18808 
L 261.091039 -57.18808 
L 255.973533 -57.18808 
L 250.856028 -57.18808 
L 245.738522 -57.18808 
L 240.621017 -57.18808 
L 235.503511 -57.18808 
L 230.386006 -57.18808 
L 225.268501 -57.18808 
L 220.150995 -57.18808 
L 215.03349 -57.18808 
L 209.915984 -57.18808 
L 204.798479 -57.18808 
L 199.680973 -57.18808 
L 194.563468 -57.18808 
L 189.445962 -57.18808 
L 184.328457 -57.18808 
L 179.210952 -57.18808 
L 174.093446 -57.18808 
L 168.975941 -57.18808 
L 163.858435 -57.18808 
L 158.74093 -57.18808 
L 153.623424 -57.18808 
L 148.505919 -57.18808 
L 143.388413 -57.18808 
L 138.270908 -57.18808 
L 133.153402 -57.18808 
L 128.035897 -57.18808 
L 122.918392 -57.18808 
z
" style="stroke: #57db5f; stroke-opacity: 0.65"/>
    </defs>
    <g clip-path="url(#paf8fd71556)">
     <use xlink:href="#m368d6c1d16" x="0" y="280.512" style="fill: #57db5f; fill-opacity: 0.65; stroke: #57db5f; stroke-opacity: 0.65"/>
    </g>
   </g>
   <g id="PolyCollection_13">
    <defs>
     <path id="m587f72fc1c" d="M 122.918392 -57.628685 
L 122.918392 -57.18808 
L 128.035897 -57.18808 
L 133.153402 -57.18808 
L 138.270908 -57.18808 
L 143.388413 -57.18808 
L 148.505919 -57.18808 
L 153.623424 -57.18808 
L 158.74093 -57.18808 
L 163.858435 -57.18808 
L 168.975941 -57.18808 
L 174.093446 -57.18808 
L 179.210952 -57.18808 
L 184.328457 -57.417071 
L 189.445962 -57.875053 
L 194.563468 -58.562026 
L 199.680973 -59.477989 
L 204.798479 -60.622944 
L 209.915984 -61.99689 
L 215.03349 -63.599827 
L 220.150995 -65.431755 
L 225.268501 -67.492674 
L 230.386006 -69.782584 
L 235.503511 -72.301484 
L 240.621017 -75.049376 
L 245.738522 -78.026259 
L 250.856028 -81.232133 
L 255.973533 -84.666997 
L 261.091039 -88.330853 
L 266.208544 -92.2237 
L 271.32605 -96.345537 
L 276.443555 -100.696366 
L 281.56106 -105.276185 
L 286.678566 -109.627014 
L 291.796071 -113.748852 
L 296.913577 -117.641698 
L 302.031082 -121.305554 
L 307.148588 -124.740419 
L 312.266093 -127.946293 
L 317.383599 -130.923175 
L 322.501104 -133.671067 
L 327.618609 -136.189968 
L 332.736115 -138.479878 
L 337.85362 -140.540796 
L 342.971126 -142.372724 
L 348.088631 -143.975661 
L 353.206137 -145.349607 
L 358.323642 -146.494562 
L 363.441148 -147.410526 
L 368.558653 -148.097499 
L 373.676158 -148.555481 
L 378.793664 -148.784472 
L 383.911169 -148.784472 
L 389.028675 -148.784472 
L 394.14618 -148.784472 
L 399.263686 -148.784472 
L 404.381191 -148.784472 
L 409.498697 -148.784472 
L 414.616202 -148.784472 
L 419.733707 -148.784472 
L 424.851213 -148.784472 
L 429.968718 -148.784472 
L 435.086224 -148.784472 
L 435.086224 -149.225077 
L 435.086224 -149.225077 
L 429.968718 -149.225077 
L 424.851213 -149.225077 
L 419.733707 -149.225077 
L 414.616202 -149.225077 
L 409.498697 -149.225077 
L 404.381191 -149.225077 
L 399.263686 -149.225077 
L 394.14618 -149.225077 
L 389.028675 -149.225077 
L 383.911169 -149.225077 
L 378.793664 -149.225077 
L 373.676158 -148.996086 
L 368.558653 -148.538104 
L 363.441148 -147.851131 
L 358.323642 -146.935167 
L 353.206137 -145.790213 
L 348.088631 -144.416267 
L 342.971126 -142.81333 
L 337.85362 -140.981402 
L 332.736115 -138.920483 
L 327.618609 -136.630573 
L 322.501104 -134.111673 
L 317.383599 -131.363781 
L 312.266093 -128.386898 
L 307.148588 -125.181024 
L 302.031082 -121.74616 
L 296.913577 -118.082304 
L 291.796071 -114.189457 
L 286.678566 -110.06762 
L 281.56106 -105.716791 
L 276.443555 -101.136971 
L 271.32605 -96.786143 
L 266.208544 -92.664305 
L 261.091039 -88.771459 
L 255.973533 -85.107603 
L 250.856028 -81.672738 
L 245.738522 -78.466864 
L 240.621017 -75.489982 
L 235.503511 -72.74209 
L 230.386006 -70.223189 
L 225.268501 -67.933279 
L 220.150995 -65.872361 
L 215.03349 -64.040433 
L 209.915984 -62.437496 
L 204.798479 -61.06355 
L 199.680973 -59.918595 
L 194.563468 -59.002631 
L 189.445962 -58.315658 
L 184.328457 -57.857676 
L 179.210952 -57.628685 
L 174.093446 -57.628685 
L 168.975941 -57.628685 
L 163.858435 -57.628685 
L 158.74093 -57.628685 
L 153.623424 -57.628685 
L 148.505919 -57.628685 
L 143.388413 -57.628685 
L 138.270908 -57.628685 
L 133.153402 -57.628685 
L 128.035897 -57.628685 
L 122.918392 -57.628685 
z
" style="stroke: #57db5f; stroke-opacity: 0.65"/>
    </defs>
    <g clip-path="url(#paf8fd71556)">
     <use xlink:href="#m587f72fc1c" x="0" y="280.512" style="fill: #57db5f; fill-opacity: 0.65; stroke: #57db5f; stroke-opacity: 0.65"/>
    </g>
   </g>
   <g id="PolyCollection_14">
    <defs>
     <path id="m820de8cb73" d="M 122.918392 -76.998808 
L 122.918392 -67.305485 
L 128.035897 -67.305485 
L 133.153402 -67.305485 
L 138.270908 -67.305485 
L 143.388413 -67.305485 
L 148.505919 -67.305485 
L 153.623424 -67.305485 
L 158.74093 -67.305485 
L 163.858435 -67.305485 
L 168.975941 -67.305485 
L 174.093446 -67.305485 
L 179.210952 -67.305485 
L 184.328457 -67.307688 
L 189.445962 -67.312094 
L 194.563468 -67.318703 
L 199.680973 -67.327516 
L 204.798479 -67.338531 
L 209.915984 -67.351749 
L 215.03349 -67.36717 
L 220.150995 -67.384794 
L 225.268501 -67.404622 
L 230.386006 -67.426652 
L 235.503511 -67.450885 
L 240.621017 -67.477321 
L 245.738522 -67.505961 
L 250.856028 -67.536803 
L 255.973533 -67.569849 
L 261.091039 -67.605097 
L 266.208544 -67.642549 
L 271.32605 -67.682203 
L 276.443555 -67.724061 
L 281.56106 -67.768121 
L 286.678566 -67.809979 
L 291.796071 -67.849633 
L 296.913577 -67.887085 
L 302.031082 -67.922333 
L 307.148588 -67.955378 
L 312.266093 -67.986221 
L 317.383599 -68.01486 
L 322.501104 -68.041297 
L 327.618609 -68.06553 
L 332.736115 -68.08756 
L 337.85362 -68.107387 
L 342.971126 -68.125012 
L 348.088631 -68.140433 
L 353.206137 -68.153651 
L 358.323642 -68.164666 
L 363.441148 -68.173478 
L 368.558653 -68.180087 
L 373.676158 -68.184493 
L 378.793664 -68.186696 
L 383.911169 -68.186696 
L 389.028675 -68.186696 
L 394.14618 -68.186696 
L 399.263686 -68.186696 
L 404.381191 -68.186696 
L 409.498697 -68.186696 
L 414.616202 -68.186696 
L 419.733707 -68.186696 
L 424.851213 -68.186696 
L 429.968718 -68.186696 
L 435.086224 -68.186696 
L 435.086224 -77.880019 
L 435.086224 -77.880019 
L 429.968718 -77.880019 
L 424.851213 -77.880019 
L 419.733707 -77.880019 
L 414.616202 -77.880019 
L 409.498697 -77.880019 
L 404.381191 -77.880019 
L 399.263686 -77.880019 
L 394.14618 -77.880019 
L 389.028675 -77.880019 
L 383.911169 -77.880019 
L 378.793664 -77.880019 
L 373.676158 -77.877816 
L 368.558653 -77.87341 
L 363.441148 -77.866801 
L 358.323642 -77.857989 
L 353.206137 -77.846974 
L 348.088631 -77.833756 
L 342.971126 -77.818334 
L 337.85362 -77.80071 
L 332.736115 -77.780883 
L 327.618609 -77.758853 
L 322.501104 -77.734619 
L 317.383599 -77.708183 
L 312.266093 -77.679544 
L 307.148588 -77.648701 
L 302.031082 -77.615656 
L 296.913577 -77.580407 
L 291.796071 -77.542956 
L 286.678566 -77.503301 
L 281.56106 -77.461444 
L 276.443555 -77.417383 
L 271.32605 -77.375526 
L 266.208544 -77.335871 
L 261.091039 -77.29842 
L 255.973533 -77.263171 
L 250.856028 -77.230126 
L 245.738522 -77.199284 
L 240.621017 -77.170644 
L 235.503511 -77.144208 
L 230.386006 -77.119975 
L 225.268501 -77.097944 
L 220.150995 -77.078117 
L 215.03349 -77.060493 
L 209.915984 -77.045072 
L 204.798479 -77.031853 
L 199.680973 -77.020838 
L 194.563468 -77.012026 
L 189.445962 -77.005417 
L 184.328457 -77.001011 
L 179.210952 -76.998808 
L 174.093446 -76.998808 
L 168.975941 -76.998808 
L 163.858435 -76.998808 
L 158.74093 -76.998808 
L 153.623424 -76.998808 
L 148.505919 -76.998808 
L 143.388413 -76.998808 
L 138.270908 -76.998808 
L 133.153402 -76.998808 
L 128.035897 -76.998808 
L 122.918392 -76.998808 
z
" style="stroke: #5f57db; stroke-opacity: 0.65"/>
    </defs>
    <g clip-path="url(#paf8fd71556)">
     <use xlink:href="#m820de8cb73" x="0" y="280.512" style="fill: #5f57db; fill-opacity: 0.65; stroke: #5f57db; stroke-opacity: 0.65"/>
    </g>
   </g>
   <g id="PolyCollection_15">
    <defs>
     <path id="m290f1f3844" d="M 122.918392 -77.108959 
L 122.918392 -76.998808 
L 128.035897 -76.998808 
L 133.153402 -76.998808 
L 138.270908 -76.998808 
L 143.388413 -76.998808 
L 148.505919 -76.998808 
L 153.623424 -76.998808 
L 158.74093 -76.998808 
L 163.858435 -76.998808 
L 168.975941 -76.998808 
L 174.093446 -76.998808 
L 179.210952 -76.998808 
L 184.328457 -77.179374 
L 189.445962 -77.540505 
L 194.563468 -78.082202 
L 199.680973 -78.804465 
L 204.798479 -79.707293 
L 209.915984 -80.790687 
L 215.03349 -82.054647 
L 220.150995 -83.499172 
L 225.268501 -85.124263 
L 230.386006 -86.92992 
L 235.503511 -88.916142 
L 240.621017 -91.08293 
L 245.738522 -93.430284 
L 250.856028 -95.958204 
L 255.973533 -98.666689 
L 261.091039 -101.55574 
L 266.208544 -104.625356 
L 271.32605 -107.875538 
L 276.443555 -111.306286 
L 281.56106 -114.917599 
L 286.678566 -118.348347 
L 291.796071 -121.598529 
L 296.913577 -124.668146 
L 302.031082 -127.557196 
L 307.148588 -130.265682 
L 312.266093 -132.793601 
L 317.383599 -135.140955 
L 322.501104 -137.307743 
L 327.618609 -139.293965 
L 332.736115 -141.099622 
L 337.85362 -142.724713 
L 342.971126 -144.169238 
L 348.088631 -145.433198 
L 353.206137 -146.516592 
L 358.323642 -147.419421 
L 363.441148 -148.141683 
L 368.558653 -148.68338 
L 373.676158 -149.044512 
L 378.793664 -149.225077 
L 383.911169 -149.225077 
L 389.028675 -149.225077 
L 394.14618 -149.225077 
L 399.263686 -149.225077 
L 404.381191 -149.225077 
L 409.498697 -149.225077 
L 414.616202 -149.225077 
L 419.733707 -149.225077 
L 424.851213 -149.225077 
L 429.968718 -149.225077 
L 435.086224 -149.225077 
L 435.086224 -149.335229 
L 435.086224 -149.335229 
L 429.968718 -149.335229 
L 424.851213 -149.335229 
L 419.733707 -149.335229 
L 414.616202 -149.335229 
L 409.498697 -149.335229 
L 404.381191 -149.335229 
L 399.263686 -149.335229 
L 394.14618 -149.335229 
L 389.028675 -149.335229 
L 383.911169 -149.335229 
L 378.793664 -149.335229 
L 373.676158 -149.154663 
L 368.558653 -148.793532 
L 363.441148 -148.251835 
L 358.323642 -147.529572 
L 353.206137 -146.626744 
L 348.088631 -145.54335 
L 342.971126 -144.27939 
L 337.85362 -142.834864 
L 332.736115 -141.209773 
L 327.618609 -139.404117 
L 322.501104 -137.417894 
L 317.383599 -135.251106 
L 312.266093 -132.903752 
L 307.148588 -130.375833 
L 302.031082 -127.667348 
L 296.913577 -124.778297 
L 291.796071 -121.708681 
L 286.678566 -118.458499 
L 281.56106 -115.027751 
L 276.443555 -111.416437 
L 271.32605 -107.985689 
L 266.208544 -104.735507 
L 261.091039 -101.665891 
L 255.973533 -98.77684 
L 250.856028 -96.068355 
L 245.738522 -93.540436 
L 240.621017 -91.193082 
L 235.503511 -89.026294 
L 230.386006 -87.040071 
L 225.268501 -85.234415 
L 220.150995 -83.609324 
L 215.03349 -82.164798 
L 209.915984 -80.900839 
L 204.798479 -79.817444 
L 199.680973 -78.914616 
L 194.563468 -78.192353 
L 189.445962 -77.650656 
L 184.328457 -77.289525 
L 179.210952 -77.108959 
L 174.093446 -77.108959 
L 168.975941 -77.108959 
L 163.858435 -77.108959 
L 158.74093 -77.108959 
L 153.623424 -77.108959 
L 148.505919 -77.108959 
L 143.388413 -77.108959 
L 138.270908 -77.108959 
L 133.153402 -77.108959 
L 128.035897 -77.108959 
L 122.918392 -77.108959 
z
" style="stroke: #5f57db; stroke-opacity: 0.65"/>
    </defs>
    <g clip-path="url(#paf8fd71556)">
     <use xlink:href="#m290f1f3844" x="0" y="280.512" style="fill: #5f57db; fill-opacity: 0.65; stroke: #5f57db; stroke-opacity: 0.65"/>
    </g>
   </g>
   <g id="PolyCollection_16">
    <defs>
     <path id="mf890b6c971" d="M 122.918392 -136.904644 
L 122.918392 -86.785759 
L 128.035897 -86.785759 
L 133.153402 -86.785759 
L 138.270908 -86.785759 
L 143.388413 -86.785759 
L 148.505919 -86.785759 
L 153.623424 -86.785759 
L 158.74093 -86.785759 
L 163.858435 -86.785759 
L 168.975941 -86.785759 
L 174.093446 -86.785759 
L 179.210952 -86.785759 
L 184.328457 -86.787687 
L 189.445962 -86.791542 
L 194.563468 -86.797325 
L 199.680973 -86.805036 
L 204.798479 -86.814674 
L 209.915984 -86.82624 
L 215.03349 -86.839734 
L 220.150995 -86.855155 
L 225.268501 -86.872504 
L 230.386006 -86.89178 
L 235.503511 -86.912984 
L 240.621017 -86.936116 
L 245.738522 -86.961175 
L 250.856028 -86.988163 
L 255.973533 -87.017077 
L 261.091039 -87.04792 
L 266.208544 -87.08069 
L 271.32605 -87.115387 
L 276.443555 -87.152013 
L 281.56106 -87.190566 
L 286.678566 -87.227191 
L 291.796071 -87.261889 
L 296.913577 -87.294659 
L 302.031082 -87.325501 
L 307.148588 -87.354416 
L 312.266093 -87.381403 
L 317.383599 -87.406462 
L 322.501104 -87.429594 
L 327.618609 -87.450798 
L 332.736115 -87.470075 
L 337.85362 -87.487424 
L 342.971126 -87.502845 
L 348.088631 -87.516338 
L 353.206137 -87.527904 
L 358.323642 -87.537543 
L 363.441148 -87.545253 
L 368.558653 -87.551036 
L 373.676158 -87.554891 
L 378.793664 -87.556819 
L 383.911169 -87.556819 
L 389.028675 -87.556819 
L 394.14618 -87.556819 
L 399.263686 -87.556819 
L 404.381191 -87.556819 
L 409.498697 -87.556819 
L 414.616202 -87.556819 
L 419.733707 -87.556819 
L 424.851213 -87.556819 
L 429.968718 -87.556819 
L 435.086224 -87.556819 
L 435.086224 -137.675704 
L 435.086224 -137.675704 
L 429.968718 -137.675704 
L 424.851213 -137.675704 
L 419.733707 -137.675704 
L 414.616202 -137.675704 
L 409.498697 -137.675704 
L 404.381191 -137.675704 
L 399.263686 -137.675704 
L 394.14618 -137.675704 
L 389.028675 -137.675704 
L 383.911169 -137.675704 
L 378.793664 -137.675704 
L 373.676158 -137.673776 
L 368.558653 -137.669921 
L 363.441148 -137.664138 
L 358.323642 -137.656427 
L 353.206137 -137.646789 
L 348.088631 -137.635223 
L 342.971126 -137.621729 
L 337.85362 -137.606308 
L 332.736115 -137.588959 
L 327.618609 -137.569683 
L 322.501104 -137.548479 
L 317.383599 -137.525347 
L 312.266093 -137.500287 
L 307.148588 -137.4733 
L 302.031082 -137.444386 
L 296.913577 -137.413543 
L 291.796071 -137.380773 
L 286.678566 -137.346076 
L 281.56106 -137.30945 
L 276.443555 -137.270897 
L 271.32605 -137.234272 
L 266.208544 -137.199574 
L 261.091039 -137.166804 
L 255.973533 -137.135962 
L 250.856028 -137.107047 
L 245.738522 -137.08006 
L 240.621017 -137.055 
L 235.503511 -137.031869 
L 230.386006 -137.010665 
L 225.268501 -136.991388 
L 220.150995 -136.974039 
L 215.03349 -136.958618 
L 209.915984 -136.945124 
L 204.798479 -136.933559 
L 199.680973 -136.92392 
L 194.563468 -136.91621 
L 189.445962 -136.910427 
L 184.328457 -136.906571 
L 179.210952 -136.904644 
L 174.093446 -136.904644 
L 168.975941 -136.904644 
L 163.858435 -136.904644 
L 158.74093 -136.904644 
L 153.623424 -136.904644 
L 148.505919 -136.904644 
L 143.388413 -136.904644 
L 138.270908 -136.904644 
L 133.153402 -136.904644 
L 128.035897 -136.904644 
L 122.918392 -136.904644 
z
" style="stroke: #db57d3; stroke-opacity: 0.65"/>
    </defs>
    <g clip-path="url(#paf8fd71556)">
     <use xlink:href="#mf890b6c971" x="0" y="280.512" style="fill: #db57d3; fill-opacity: 0.65; stroke: #db57d3; stroke-opacity: 0.65"/>
    </g>
   </g>
   <g id="PolyCollection_17">
    <defs>
     <path id="m4bb54fe239" d="M 122.918392 -139.548277 
L 122.918392 -136.904644 
L 128.035897 -136.904644 
L 133.153402 -136.904644 
L 138.270908 -136.904644 
L 143.388413 -136.904644 
L 148.505919 -136.904644 
L 153.623424 -136.904644 
L 158.74093 -136.904644 
L 163.858435 -136.904644 
L 168.975941 -136.904644 
L 174.093446 -136.904644 
L 179.210952 -136.904644 
L 184.328457 -136.93572 
L 189.445962 -136.997873 
L 194.563468 -137.091103 
L 199.680973 -137.215408 
L 204.798479 -137.370791 
L 209.915984 -137.55725 
L 215.03349 -137.774785 
L 220.150995 -138.023396 
L 225.268501 -138.303085 
L 230.386006 -138.613849 
L 235.503511 -138.95569 
L 240.621017 -139.328608 
L 245.738522 -139.732602 
L 250.856028 -140.167672 
L 255.973533 -140.633819 
L 261.091039 -141.131043 
L 266.208544 -141.659343 
L 271.32605 -142.218719 
L 276.443555 -142.809172 
L 281.56106 -143.430701 
L 286.678566 -144.021154 
L 291.796071 -144.58053 
L 296.913577 -145.10883 
L 302.031082 -145.606053 
L 307.148588 -146.0722 
L 312.266093 -146.507271 
L 317.383599 -146.911265 
L 322.501104 -147.284182 
L 327.618609 -147.626023 
L 332.736115 -147.936788 
L 337.85362 -148.216476 
L 342.971126 -148.465088 
L 348.088631 -148.682623 
L 353.206137 -148.869082 
L 358.323642 -149.024464 
L 363.441148 -149.14877 
L 368.558653 -149.241999 
L 373.676158 -149.304152 
L 378.793664 -149.335229 
L 383.911169 -149.335229 
L 389.028675 -149.335229 
L 394.14618 -149.335229 
L 399.263686 -149.335229 
L 404.381191 -149.335229 
L 409.498697 -149.335229 
L 414.616202 -149.335229 
L 419.733707 -149.335229 
L 424.851213 -149.335229 
L 429.968718 -149.335229 
L 435.086224 -149.335229 
L 435.086224 -151.978862 
L 435.086224 -151.978862 
L 429.968718 -151.978862 
L 424.851213 -151.978862 
L 419.733707 -151.978862 
L 414.616202 -151.978862 
L 409.498697 -151.978862 
L 404.381191 -151.978862 
L 399.263686 -151.978862 
L 394.14618 -151.978862 
L 389.028675 -151.978862 
L 383.911169 -151.978862 
L 378.793664 -151.978862 
L 373.676158 -151.947786 
L 368.558653 -151.885633 
L 363.441148 -151.792403 
L 358.323642 -151.668098 
L 353.206137 -151.512715 
L 348.088631 -151.326256 
L 342.971126 -151.108721 
L 337.85362 -150.86011 
L 332.736115 -150.580421 
L 327.618609 -150.269657 
L 322.501104 -149.927816 
L 317.383599 -149.554898 
L 312.266093 -149.150904 
L 307.148588 -148.715834 
L 302.031082 -148.249687 
L 296.913577 -147.752463 
L 291.796071 -147.224163 
L 286.678566 -146.664787 
L 281.56106 -146.074334 
L 276.443555 -145.452805 
L 271.32605 -144.862352 
L 266.208544 -144.302976 
L 261.091039 -143.774676 
L 255.973533 -143.277453 
L 250.856028 -142.811306 
L 245.738522 -142.376235 
L 240.621017 -141.972241 
L 235.503511 -141.599324 
L 230.386006 -141.257483 
L 225.268501 -140.946718 
L 220.150995 -140.66703 
L 215.03349 -140.418418 
L 209.915984 -140.200883 
L 204.798479 -140.014424 
L 199.680973 -139.859042 
L 194.563468 -139.734736 
L 189.445962 -139.641507 
L 184.328457 -139.579354 
L 179.210952 -139.548277 
L 174.093446 -139.548277 
L 168.975941 -139.548277 
L 163.858435 -139.548277 
L 158.74093 -139.548277 
L 153.623424 -139.548277 
L 148.505919 -139.548277 
L 143.388413 -139.548277 
L 138.270908 -139.548277 
L 133.153402 -139.548277 
L 128.035897 -139.548277 
L 122.918392 -139.548277 
z
" style="stroke: #db57d3; stroke-opacity: 0.65"/>
    </defs>
    <g clip-path="url(#paf8fd71556)">
     <use xlink:href="#m4bb54fe239" x="0" y="280.512" style="fill: #db57d3; fill-opacity: 0.65; stroke: #db57d3; stroke-opacity: 0.65"/>
    </g>
   </g>
   <g id="PolyCollection_18">
    <defs>
     <path id="m6827a47efe" d="M 122.918392 -150.546894 
L 122.918392 -149.225077 
L 128.035897 -149.225077 
L 133.153402 -149.225077 
L 138.270908 -149.225077 
L 143.388413 -149.225077 
L 148.505919 -149.225077 
L 153.623424 -149.225077 
L 158.74093 -149.225077 
L 163.858435 -149.225077 
L 168.975941 -149.225077 
L 174.093446 -149.225077 
L 179.210952 -149.225077 
L 184.328457 -148.994985 
L 189.445962 -148.5348 
L 194.563468 -147.844522 
L 199.680973 -146.924152 
L 204.798479 -145.77369 
L 209.915984 -144.393135 
L 215.03349 -142.782487 
L 220.150995 -140.941748 
L 225.268501 -138.870915 
L 230.386006 -136.56999 
L 235.503511 -134.038973 
L 240.621017 -131.277863 
L 245.738522 -128.28666 
L 250.856028 -125.065365 
L 255.973533 -121.613978 
L 261.091039 -117.932498 
L 266.208544 -114.020926 
L 271.32605 -109.879261 
L 276.443555 -105.507503 
L 281.56106 -100.905654 
L 286.678566 -96.533896 
L 291.796071 -92.392231 
L 296.913577 -88.480659 
L 302.031082 -84.799179 
L 307.148588 -81.347792 
L 312.266093 -78.126497 
L 317.383599 -75.135294 
L 322.501104 -72.374184 
L 327.618609 -69.843167 
L 332.736115 -67.542242 
L 337.85362 -65.471409 
L 342.971126 -63.63067 
L 348.088631 -62.020022 
L 353.206137 -60.639467 
L 358.323642 -59.489005 
L 363.441148 -58.568635 
L 368.558653 -57.878357 
L 373.676158 -57.418172 
L 378.793664 -57.18808 
L 383.911169 -57.18808 
L 389.028675 -57.18808 
L 394.14618 -57.18808 
L 399.263686 -57.18808 
L 404.381191 -57.18808 
L 409.498697 -57.18808 
L 414.616202 -57.18808 
L 419.733707 -57.18808 
L 424.851213 -57.18808 
L 429.968718 -57.18808 
L 435.086224 -57.18808 
L 435.086224 -58.509896 
L 435.086224 -58.509896 
L 429.968718 -58.509896 
L 424.851213 -58.509896 
L 419.733707 -58.509896 
L 414.616202 -58.509896 
L 409.498697 -58.509896 
L 404.381191 -58.509896 
L 399.263686 -58.509896 
L 394.14618 -58.509896 
L 389.028675 -58.509896 
L 383.911169 -58.509896 
L 378.793664 -58.509896 
L 373.676158 -58.739989 
L 368.558653 -59.200174 
L 363.441148 -59.890451 
L 358.323642 -60.810821 
L 353.206137 -61.961284 
L 348.088631 -63.341839 
L 342.971126 -64.952486 
L 337.85362 -66.793226 
L 332.736115 -68.864059 
L 327.618609 -71.164984 
L 322.501104 -73.696001 
L 317.383599 -76.457111 
L 312.266093 -79.448313 
L 307.148588 -82.669608 
L 302.031082 -86.120996 
L 296.913577 -89.802476 
L 291.796071 -93.714048 
L 286.678566 -97.855713 
L 281.56106 -102.22747 
L 276.443555 -106.82932 
L 271.32605 -111.201078 
L 266.208544 -115.342742 
L 261.091039 -119.254315 
L 255.973533 -122.935795 
L 250.856028 -126.387182 
L 245.738522 -129.608477 
L 240.621017 -132.599679 
L 235.503511 -135.360789 
L 230.386006 -137.891807 
L 225.268501 -140.192732 
L 220.150995 -142.263564 
L 215.03349 -144.104304 
L 209.915984 -145.714952 
L 204.798479 -147.095507 
L 199.680973 -148.245969 
L 194.563468 -149.166339 
L 189.445962 -149.856617 
L 184.328457 -150.316802 
L 179.210952 -150.546894 
L 174.093446 -150.546894 
L 168.975941 -150.546894 
L 163.858435 -150.546894 
L 158.74093 -150.546894 
L 153.623424 -150.546894 
L 148.505919 -150.546894 
L 143.388413 -150.546894 
L 138.270908 -150.546894 
L 133.153402 -150.546894 
L 128.035897 -150.546894 
L 122.918392 -150.546894 
z
" style="stroke: #db5f57; stroke-opacity: 0.65"/>
    </defs>
    <g clip-path="url(#paf8fd71556)">
     <use xlink:href="#m6827a47efe" x="0" y="280.512" style="fill: #db5f57; fill-opacity: 0.65; stroke: #db5f57; stroke-opacity: 0.65"/>
    </g>
   </g>
   <g id="PolyCollection_19">
    <defs>
     <path id="m8a223881e1" d="M 122.918392 -151.978862 
L 122.918392 -150.546894 
L 128.035897 -150.546894 
L 133.153402 -150.546894 
L 138.270908 -150.546894 
L 143.388413 -150.546894 
L 148.505919 -150.546894 
L 153.623424 -150.546894 
L 158.74093 -150.546894 
L 163.858435 -150.546894 
L 168.975941 -150.546894 
L 174.093446 -150.546894 
L 179.210952 -150.546894 
L 184.328457 -150.514716 
L 189.445962 -150.45036 
L 194.563468 -150.353826 
L 199.680973 -150.225114 
L 204.798479 -150.064224 
L 209.915984 -149.871157 
L 215.03349 -149.645911 
L 220.150995 -149.388487 
L 225.268501 -149.098885 
L 230.386006 -148.777105 
L 235.503511 -148.423148 
L 240.621017 -148.037012 
L 245.738522 -147.618698 
L 250.856028 -147.168207 
L 255.973533 -146.685537 
L 261.091039 -146.170689 
L 266.208544 -145.623664 
L 271.32605 -145.04446 
L 276.443555 -144.433079 
L 281.56106 -143.789519 
L 286.678566 -143.178137 
L 291.796071 -142.598934 
L 296.913577 -142.051908 
L 302.031082 -141.537061 
L 307.148588 -141.054391 
L 312.266093 -140.603899 
L 317.383599 -140.185586 
L 322.501104 -139.79945 
L 327.618609 -139.445492 
L 332.736115 -139.123713 
L 337.85362 -138.834111 
L 342.971126 -138.576687 
L 348.088631 -138.351441 
L 353.206137 -138.158373 
L 358.323642 -137.997483 
L 363.441148 -137.868771 
L 368.558653 -137.772238 
L 373.676158 -137.707882 
L 378.793664 -137.675704 
L 383.911169 -137.675704 
L 389.028675 -137.675704 
L 394.14618 -137.675704 
L 399.263686 -137.675704 
L 404.381191 -137.675704 
L 409.498697 -137.675704 
L 414.616202 -137.675704 
L 419.733707 -137.675704 
L 424.851213 -137.675704 
L 429.968718 -137.675704 
L 435.086224 -137.675704 
L 435.086224 -139.107672 
L 435.086224 -139.107672 
L 429.968718 -139.107672 
L 424.851213 -139.107672 
L 419.733707 -139.107672 
L 414.616202 -139.107672 
L 409.498697 -139.107672 
L 404.381191 -139.107672 
L 399.263686 -139.107672 
L 394.14618 -139.107672 
L 389.028675 -139.107672 
L 383.911169 -139.107672 
L 378.793664 -139.107672 
L 373.676158 -139.13985 
L 368.558653 -139.204206 
L 363.441148 -139.30074 
L 358.323642 -139.429451 
L 353.206137 -139.590341 
L 348.088631 -139.783409 
L 342.971126 -140.008655 
L 337.85362 -140.266079 
L 332.736115 -140.555681 
L 327.618609 -140.87746 
L 322.501104 -141.231418 
L 317.383599 -141.617554 
L 312.266093 -142.035868 
L 307.148588 -142.486359 
L 302.031082 -142.969029 
L 296.913577 -143.483876 
L 291.796071 -144.030902 
L 286.678566 -144.610106 
L 281.56106 -145.221487 
L 276.443555 -145.865047 
L 271.32605 -146.476428 
L 266.208544 -147.055632 
L 261.091039 -147.602657 
L 255.973533 -148.117505 
L 250.856028 -148.600175 
L 245.738522 -149.050666 
L 240.621017 -149.46898 
L 235.503511 -149.855116 
L 230.386006 -150.209073 
L 225.268501 -150.530853 
L 220.150995 -150.820455 
L 215.03349 -151.077879 
L 209.915984 -151.303125 
L 204.798479 -151.496193 
L 199.680973 -151.657082 
L 194.563468 -151.785794 
L 189.445962 -151.882328 
L 184.328457 -151.946684 
L 179.210952 -151.978862 
L 174.093446 -151.978862 
L 168.975941 -151.978862 
L 163.858435 -151.978862 
L 158.74093 -151.978862 
L 153.623424 -151.978862 
L 148.505919 -151.978862 
L 143.388413 -151.978862 
L 138.270908 -151.978862 
L 133.153402 -151.978862 
L 128.035897 -151.978862 
L 122.918392 -151.978862 
z
" style="stroke: #db5f57; stroke-opacity: 0.65"/>
    </defs>
    <g clip-path="url(#paf8fd71556)">
     <use xlink:href="#m8a223881e1" x="0" y="280.512" style="fill: #db5f57; fill-opacity: 0.65; stroke: #db5f57; stroke-opacity: 0.65"/>
    </g>
   </g>
   <g id="PolyCollection_20">
    <defs>
     <path id="m4bbb6f59c5" d="M 122.918392 -189.540488 
L 122.918392 -151.978862 
L 128.035897 -151.978862 
L 133.153402 -151.978862 
L 138.270908 -151.978862 
L 143.388413 -151.978862 
L 148.505919 -151.978862 
L 153.623424 -151.978862 
L 158.74093 -151.978862 
L 163.858435 -151.978862 
L 168.975941 -151.978862 
L 174.093446 -151.978862 
L 179.210952 -151.978862 
L 184.328457 -151.978862 
L 189.445962 -151.978862 
L 194.563468 -151.978862 
L 199.680973 -151.978862 
L 204.798479 -151.978862 
L 209.915984 -151.978862 
L 215.03349 -151.978862 
L 220.150995 -151.978862 
L 225.268501 -151.978862 
L 230.386006 -151.978862 
L 235.503511 -151.978862 
L 240.621017 -151.978862 
L 245.738522 -151.978862 
L 250.856028 -151.978862 
L 255.973533 -151.978862 
L 261.091039 -151.978862 
L 266.208544 -151.978862 
L 271.32605 -151.978862 
L 276.443555 -151.978862 
L 281.56106 -151.978862 
L 286.678566 -151.978862 
L 291.796071 -151.978862 
L 296.913577 -151.978862 
L 302.031082 -151.978862 
L 307.148588 -151.978862 
L 312.266093 -151.978862 
L 317.383599 -151.978862 
L 322.501104 -151.978862 
L 327.618609 -151.978862 
L 332.736115 -151.978862 
L 337.85362 -151.978862 
L 342.971126 -151.978862 
L 348.088631 -151.978862 
L 353.206137 -151.978862 
L 358.323642 -151.978862 
L 363.441148 -151.978862 
L 368.558653 -151.978862 
L 373.676158 -151.978862 
L 378.793664 -151.978862 
L 383.911169 -151.978862 
L 389.028675 -151.978862 
L 394.14618 -151.978862 
L 399.263686 -151.978862 
L 404.381191 -151.978862 
L 409.498697 -151.978862 
L 414.616202 -151.978862 
L 419.733707 -151.978862 
L 424.851213 -151.978862 
L 429.968718 -151.978862 
L 435.086224 -151.978862 
L 435.086224 -189.540488 
L 435.086224 -189.540488 
L 429.968718 -189.540488 
L 424.851213 -189.540488 
L 419.733707 -189.540488 
L 414.616202 -189.540488 
L 409.498697 -189.540488 
L 404.381191 -189.540488 
L 399.263686 -189.540488 
L 394.14618 -189.540488 
L 389.028675 -189.540488 
L 383.911169 -189.540488 
L 378.793664 -189.540488 
L 373.676158 -189.540488 
L 368.558653 -189.540488 
L 363.441148 -189.540488 
L 358.323642 -189.540488 
L 353.206137 -189.540488 
L 348.088631 -189.540488 
L 342.971126 -189.540488 
L 337.85362 -189.540488 
L 332.736115 -189.540488 
L 327.618609 -189.540488 
L 322.501104 -189.540488 
L 317.383599 -189.540488 
L 312.266093 -189.540488 
L 307.148588 -189.540488 
L 302.031082 -189.540488 
L 296.913577 -189.540488 
L 291.796071 -189.540488 
L 286.678566 -189.540488 
L 281.56106 -189.540488 
L 276.443555 -189.540488 
L 271.32605 -189.540488 
L 266.208544 -189.540488 
L 261.091039 -189.540488 
L 255.973533 -189.540488 
L 250.856028 -189.540488 
L 245.738522 -189.540488 
L 240.621017 -189.540488 
L 235.503511 -189.540488 
L 230.386006 -189.540488 
L 225.268501 -189.540488 
L 220.150995 -189.540488 
L 215.03349 -189.540488 
L 209.915984 -189.540488 
L 204.798479 -189.540488 
L 199.680973 -189.540488 
L 194.563468 -189.540488 
L 189.445962 -189.540488 
L 184.328457 -189.540488 
L 179.210952 -189.540488 
L 174.093446 -189.540488 
L 168.975941 -189.540488 
L 163.858435 -189.540488 
L 158.74093 -189.540488 
L 153.623424 -189.540488 
L 148.505919 -189.540488 
L 143.388413 -189.540488 
L 138.270908 -189.540488 
L 133.153402 -189.540488 
L 128.035897 -189.540488 
L 122.918392 -189.540488 
z
" style="stroke: #db5f57; stroke-opacity: 0.65"/>
    </defs>
    <g clip-path="url(#paf8fd71556)">
     <use xlink:href="#m4bbb6f59c5" x="0" y="280.512" style="fill: #db5f57; fill-opacity: 0.65; stroke: #db5f57; stroke-opacity: 0.65"/>
    </g>
   </g>
   <g id="PolyCollection_21">
    <defs>
     <path id="m2c60284256" d="M 122.918392 -208.139551 
L 122.918392 -199.217288 
L 128.035897 -199.217288 
L 133.153402 -199.217288 
L 138.270908 -199.217288 
L 143.388413 -199.217288 
L 148.505919 -199.217288 
L 153.623424 -199.217288 
L 158.74093 -199.217288 
L 163.858435 -199.217288 
L 168.975941 -199.217288 
L 174.093446 -199.217288 
L 179.210952 -199.217288 
L 184.328457 -199.193096 
L 189.445962 -199.144712 
L 194.563468 -199.072136 
L 199.680973 -198.975368 
L 204.798479 -198.854408 
L 209.915984 -198.709256 
L 215.03349 -198.539912 
L 220.150995 -198.346376 
L 225.268501 -198.128648 
L 230.386006 -197.886728 
L 235.503511 -197.620616 
L 240.621017 -197.330312 
L 245.738522 -197.015816 
L 250.856028 -196.677128 
L 255.973533 -196.314248 
L 261.091039 -195.927176 
L 266.208544 -195.515912 
L 271.32605 -195.080456 
L 276.443555 -194.620808 
L 281.56106 -194.136968 
L 286.678566 -193.67732 
L 291.796071 -193.241864 
L 296.913577 -192.8306 
L 302.031082 -192.443528 
L 307.148588 -192.080648 
L 312.266093 -191.74196 
L 317.383599 -191.427464 
L 322.501104 -191.13716 
L 327.618609 -190.871048 
L 332.736115 -190.629128 
L 337.85362 -190.4114 
L 342.971126 -190.217864 
L 348.088631 -190.04852 
L 353.206137 -189.903368 
L 358.323642 -189.782408 
L 363.441148 -189.68564 
L 368.558653 -189.613064 
L 373.676158 -189.56468 
L 378.793664 -189.540488 
L 383.911169 -189.540488 
L 389.028675 -189.540488 
L 394.14618 -189.540488 
L 399.263686 -189.540488 
L 404.381191 -189.540488 
L 409.498697 -189.540488 
L 414.616202 -189.540488 
L 419.733707 -189.540488 
L 424.851213 -189.540488 
L 429.968718 -189.540488 
L 435.086224 -189.540488 
L 435.086224 -198.462751 
L 435.086224 -198.462751 
L 429.968718 -198.462751 
L 424.851213 -198.462751 
L 419.733707 -198.462751 
L 414.616202 -198.462751 
L 409.498697 -198.462751 
L 404.381191 -198.462751 
L 399.263686 -198.462751 
L 394.14618 -198.462751 
L 389.028675 -198.462751 
L 383.911169 -198.462751 
L 378.793664 -198.462751 
L 373.676158 -198.486943 
L 368.558653 -198.535327 
L 363.441148 -198.607903 
L 358.323642 -198.704671 
L 353.206137 -198.825631 
L 348.088631 -198.970783 
L 342.971126 -199.140127 
L 337.85362 -199.333663 
L 332.736115 -199.551391 
L 327.618609 -199.793311 
L 322.501104 -200.059423 
L 317.383599 -200.349727 
L 312.266093 -200.664223 
L 307.148588 -201.002911 
L 302.031082 -201.365791 
L 296.913577 -201.752863 
L 291.796071 -202.164127 
L 286.678566 -202.599583 
L 281.56106 -203.059231 
L 276.443555 -203.543071 
L 271.32605 -204.002719 
L 266.208544 -204.438175 
L 261.091039 -204.849439 
L 255.973533 -205.236511 
L 250.856028 -205.599391 
L 245.738522 -205.938079 
L 240.621017 -206.252575 
L 235.503511 -206.542879 
L 230.386006 -206.808991 
L 225.268501 -207.050911 
L 220.150995 -207.268639 
L 215.03349 -207.462175 
L 209.915984 -207.631519 
L 204.798479 -207.776671 
L 199.680973 -207.897631 
L 194.563468 -207.994399 
L 189.445962 -208.066975 
L 184.328457 -208.115359 
L 179.210952 -208.139551 
L 174.093446 -208.139551 
L 168.975941 -208.139551 
L 163.858435 -208.139551 
L 158.74093 -208.139551 
L 153.623424 -208.139551 
L 148.505919 -208.139551 
L 143.388413 -208.139551 
L 138.270908 -208.139551 
L 133.153402 -208.139551 
L 128.035897 -208.139551 
L 122.918392 -208.139551 
z
" style="stroke: #d3db57; stroke-opacity: 0.65"/>
    </defs>
    <g clip-path="url(#paf8fd71556)">
     <use xlink:href="#m2c60284256" x="0" y="280.512" style="fill: #d3db57; fill-opacity: 0.65; stroke: #d3db57; stroke-opacity: 0.65"/>
    </g>
   </g>
   <g id="PolyCollection_22">
    <defs>
     <path id="m51d41c62c6" d="M 122.918392 -218.477259 
L 122.918392 -217.816351 
L 128.035897 -217.816351 
L 133.153402 -217.816351 
L 138.270908 -217.816351 
L 143.388413 -217.816351 
L 148.505919 -217.816351 
L 153.623424 -217.816351 
L 158.74093 -217.816351 
L 163.858435 -217.816351 
L 168.975941 -217.816351 
L 174.093446 -217.816351 
L 179.210952 -217.816351 
L 184.328457 -217.767967 
L 189.445962 -217.671199 
L 194.563468 -217.526047 
L 199.680973 -217.332511 
L 204.798479 -217.090591 
L 209.915984 -216.800287 
L 215.03349 -216.461599 
L 220.150995 -216.074527 
L 225.268501 -215.639071 
L 230.386006 -215.155231 
L 235.503511 -214.623007 
L 240.621017 -214.042399 
L 245.738522 -213.413407 
L 250.856028 -212.736031 
L 255.973533 -212.010271 
L 261.091039 -211.236127 
L 266.208544 -210.413599 
L 271.32605 -209.542687 
L 276.443555 -208.623391 
L 281.56106 -207.655711 
L 286.678566 -206.736415 
L 291.796071 -205.865503 
L 296.913577 -205.042975 
L 302.031082 -204.268831 
L 307.148588 -203.543071 
L 312.266093 -202.865695 
L 317.383599 -202.236703 
L 322.501104 -201.656095 
L 327.618609 -201.123871 
L 332.736115 -200.640031 
L 337.85362 -200.204575 
L 342.971126 -199.817503 
L 348.088631 -199.478815 
L 353.206137 -199.188511 
L 358.323642 -198.946591 
L 363.441148 -198.753055 
L 368.558653 -198.607903 
L 373.676158 -198.511135 
L 378.793664 -198.462751 
L 383.911169 -198.462751 
L 389.028675 -198.462751 
L 394.14618 -198.462751 
L 399.263686 -198.462751 
L 404.381191 -198.462751 
L 409.498697 -198.462751 
L 414.616202 -198.462751 
L 419.733707 -198.462751 
L 424.851213 -198.462751 
L 429.968718 -198.462751 
L 435.086224 -198.462751 
L 435.086224 -199.123659 
L 435.086224 -199.123659 
L 429.968718 -199.123659 
L 424.851213 -199.123659 
L 419.733707 -199.123659 
L 414.616202 -199.123659 
L 409.498697 -199.123659 
L 404.381191 -199.123659 
L 399.263686 -199.123659 
L 394.14618 -199.123659 
L 389.028675 -199.123659 
L 383.911169 -199.123659 
L 378.793664 -199.123659 
L 373.676158 -199.172043 
L 368.558653 -199.268811 
L 363.441148 -199.413963 
L 358.323642 -199.607499 
L 353.206137 -199.849419 
L 348.088631 -200.139723 
L 342.971126 -200.478411 
L 337.85362 -200.865483 
L 332.736115 -201.300939 
L 327.618609 -201.784779 
L 322.501104 -202.317003 
L 317.383599 -202.897611 
L 312.266093 -203.526603 
L 307.148588 -204.203979 
L 302.031082 -204.929739 
L 296.913577 -205.703883 
L 291.796071 -206.526411 
L 286.678566 -207.397323 
L 281.56106 -208.316619 
L 276.443555 -209.284299 
L 271.32605 -210.203595 
L 266.208544 -211.074507 
L 261.091039 -211.897035 
L 255.973533 -212.671179 
L 250.856028 -213.396939 
L 245.738522 -214.074315 
L 240.621017 -214.703307 
L 235.503511 -215.283915 
L 230.386006 -215.816139 
L 225.268501 -216.299979 
L 220.150995 -216.735435 
L 215.03349 -217.122507 
L 209.915984 -217.461195 
L 204.798479 -217.751499 
L 199.680973 -217.993419 
L 194.563468 -218.186955 
L 189.445962 -218.332107 
L 184.328457 -218.428875 
L 179.210952 -218.477259 
L 174.093446 -218.477259 
L 168.975941 -218.477259 
L 163.858435 -218.477259 
L 158.74093 -218.477259 
L 153.623424 -218.477259 
L 148.505919 -218.477259 
L 143.388413 -218.477259 
L 138.270908 -218.477259 
L 133.153402 -218.477259 
L 128.035897 -218.477259 
L 122.918392 -218.477259 
z
" style="stroke: #57d3db; stroke-opacity: 0.65"/>
    </defs>
    <g clip-path="url(#paf8fd71556)">
     <use xlink:href="#m51d41c62c6" x="0" y="280.512" style="fill: #57d3db; fill-opacity: 0.65; stroke: #57d3db; stroke-opacity: 0.65"/>
    </g>
   </g>
   <g id="PolyCollection_23">
    <defs>
     <path id="m8e3c0c11f9" d="M 122.918392 -261.216 
L 122.918392 -218.477259 
L 128.035897 -218.477259 
L 133.153402 -218.477259 
L 138.270908 -218.477259 
L 143.388413 -218.477259 
L 148.505919 -218.477259 
L 153.623424 -218.477259 
L 158.74093 -218.477259 
L 163.858435 -218.477259 
L 168.975941 -218.477259 
L 174.093446 -218.477259 
L 179.210952 -218.477259 
L 184.328457 -218.453067 
L 189.445962 -218.404683 
L 194.563468 -218.332107 
L 199.680973 -218.235339 
L 204.798479 -218.114379 
L 209.915984 -217.969227 
L 215.03349 -217.799883 
L 220.150995 -217.606347 
L 225.268501 -217.388619 
L 230.386006 -217.146699 
L 235.503511 -216.880587 
L 240.621017 -216.590283 
L 245.738522 -216.275787 
L 250.856028 -215.937099 
L 255.973533 -215.574219 
L 261.091039 -215.187147 
L 266.208544 -214.775883 
L 271.32605 -214.340427 
L 276.443555 -213.880779 
L 281.56106 -213.396939 
L 286.678566 -212.937291 
L 291.796071 -212.501835 
L 296.913577 -212.090571 
L 302.031082 -211.703499 
L 307.148588 -211.340619 
L 312.266093 -211.001931 
L 317.383599 -210.687435 
L 322.501104 -210.397131 
L 327.618609 -210.131019 
L 332.736115 -209.889099 
L 337.85362 -209.671371 
L 342.971126 -209.477835 
L 348.088631 -209.308491 
L 353.206137 -209.163339 
L 358.323642 -209.042379 
L 363.441148 -208.945611 
L 368.558653 -208.873035 
L 373.676158 -208.824651 
L 378.793664 -208.800459 
L 383.911169 -208.800459 
L 389.028675 -208.800459 
L 394.14618 -208.800459 
L 399.263686 -208.800459 
L 404.381191 -208.800459 
L 409.498697 -208.800459 
L 414.616202 -208.800459 
L 419.733707 -208.800459 
L 424.851213 -208.800459 
L 429.968718 -208.800459 
L 435.086224 -208.800459 
L 435.086224 -251.5392 
L 435.086224 -251.5392 
L 429.968718 -251.5392 
L 424.851213 -251.5392 
L 419.733707 -251.5392 
L 414.616202 -251.5392 
L 409.498697 -251.5392 
L 404.381191 -251.5392 
L 399.263686 -251.5392 
L 394.14618 -251.5392 
L 389.028675 -251.5392 
L 383.911169 -251.5392 
L 378.793664 -251.5392 
L 373.676158 -251.563392 
L 368.558653 -251.611776 
L 363.441148 -251.684352 
L 358.323642 -251.78112 
L 353.206137 -251.90208 
L 348.088631 -252.047232 
L 342.971126 -252.216576 
L 337.85362 -252.410112 
L 332.736115 -252.62784 
L 327.618609 -252.86976 
L 322.501104 -253.135872 
L 317.383599 -253.426176 
L 312.266093 -253.740672 
L 307.148588 -254.07936 
L 302.031082 -254.44224 
L 296.913577 -254.829312 
L 291.796071 -255.240576 
L 286.678566 -255.676032 
L 281.56106 -256.13568 
L 276.443555 -256.61952 
L 271.32605 -257.079168 
L 266.208544 -257.514624 
L 261.091039 -257.925888 
L 255.973533 -258.31296 
L 250.856028 -258.67584 
L 245.738522 -259.014528 
L 240.621017 -259.329024 
L 235.503511 -259.619328 
L 230.386006 -259.88544 
L 225.268501 -260.12736 
L 220.150995 -260.345088 
L 215.03349 -260.538624 
L 209.915984 -260.707968 
L 204.798479 -260.85312 
L 199.680973 -260.97408 
L 194.563468 -261.070848 
L 189.445962 -261.143424 
L 184.328457 -261.191808 
L 179.210952 -261.216 
L 174.093446 -261.216 
L 168.975941 -261.216 
L 163.858435 -261.216 
L 158.74093 -261.216 
L 153.623424 -261.216 
L 148.505919 -261.216 
L 143.388413 -261.216 
L 138.270908 -261.216 
L 133.153402 -261.216 
L 128.035897 -261.216 
L 122.918392 -261.216 
z
" style="stroke: #57d3db; stroke-opacity: 0.65"/>
    </defs>
    <g clip-path="url(#paf8fd71556)">
     <use xlink:href="#m8e3c0c11f9" x="0" y="280.512" style="fill: #57d3db; fill-opacity: 0.65; stroke: #57d3db; stroke-opacity: 0.65"/>
    </g>
   </g>
   <g id="text_1">
    <!-- Astrocytes -->
    <g transform="translate(53.540625 244.809657) scale(0.12 -0.12)">
     <defs>
      <path id="TimesNewRomanPS-BoldMT-41" d="M 2663 1206 
L 1166 1206 
L 988 794 
Q 900 588 900 453 
Q 900 275 1044 191 
Q 1128 141 1459 116 
L 1459 0 
L 50 0 
L 50 116 
Q 278 150 425 304 
Q 572 459 788 944 
L 2303 4325 
L 2363 4325 
L 3891 850 
Q 4109 356 4250 228 
Q 4356 131 4550 116 
L 4550 0 
L 2500 0 
L 2500 116 
L 2584 116 
Q 2831 116 2931 184 
Q 3000 234 3000 328 
Q 3000 384 2981 444 
Q 2975 472 2888 678 
L 2663 1206 
z
M 2556 1438 
L 1925 2897 
L 1275 1438 
L 2556 1438 
z
" transform="scale(0.015625)"/>
      <path id="TimesNewRomanPS-BoldMT-73" d="M 2063 3003 
L 2109 2006 
L 2003 2006 
Q 1813 2450 1608 2612 
Q 1403 2775 1200 2775 
Q 1072 2775 981 2689 
Q 891 2603 891 2491 
Q 891 2406 953 2328 
Q 1053 2200 1512 1889 
Q 1972 1578 2117 1361 
Q 2263 1144 2263 875 
Q 2263 631 2141 397 
Q 2019 163 1797 37 
Q 1575 -88 1306 -88 
Q 1097 -88 747 44 
Q 653 78 619 78 
Q 516 78 447 -78 
L 344 -78 
L 294 972 
L 400 972 
Q 541 559 786 353 
Q 1031 147 1250 147 
Q 1400 147 1495 239 
Q 1591 331 1591 463 
Q 1591 613 1497 722 
Q 1403 831 1078 1053 
Q 600 1384 459 1559 
Q 253 1816 253 2125 
Q 253 2463 486 2736 
Q 719 3009 1159 3009 
Q 1397 3009 1619 2894 
Q 1703 2847 1756 2847 
Q 1813 2847 1847 2870 
Q 1881 2894 1956 3003 
L 2063 3003 
z
" transform="scale(0.015625)"/>
      <path id="TimesNewRomanPS-BoldMT-74" d="M 1375 3991 
L 1375 2922 
L 2069 2922 
L 2069 2613 
L 1375 2613 
L 1375 809 
Q 1375 556 1398 482 
Q 1422 409 1481 364 
Q 1541 319 1591 319 
Q 1794 319 1975 628 
L 2069 559 
Q 1816 -41 1247 -41 
Q 969 -41 776 114 
Q 584 269 531 459 
Q 500 566 500 1034 
L 500 2613 
L 119 2613 
L 119 2722 
Q 513 3000 789 3306 
Q 1066 3613 1272 3991 
L 1375 3991 
z
" transform="scale(0.015625)"/>
      <path id="TimesNewRomanPS-BoldMT-72" d="M 1428 2922 
L 1428 2259 
Q 1719 2713 1937 2861 
Q 2156 3009 2359 3009 
Q 2534 3009 2639 2901 
Q 2744 2794 2744 2597 
Q 2744 2388 2642 2272 
Q 2541 2156 2397 2156 
Q 2231 2156 2109 2262 
Q 1988 2369 1966 2381 
Q 1934 2400 1894 2400 
Q 1803 2400 1722 2331 
Q 1594 2225 1528 2028 
Q 1428 1725 1428 1359 
L 1428 688 
L 1431 513 
Q 1431 334 1453 284 
Q 1491 200 1564 161 
Q 1638 122 1813 113 
L 1813 0 
L 234 0 
L 234 113 
Q 425 128 492 217 
Q 559 306 559 688 
L 559 2303 
Q 559 2553 534 2622 
Q 503 2709 443 2750 
Q 384 2791 234 2806 
L 234 2922 
L 1428 2922 
z
" transform="scale(0.015625)"/>
      <path id="TimesNewRomanPS-BoldMT-6f" d="M 1594 3009 
Q 1975 3009 2303 2812 
Q 2631 2616 2801 2253 
Q 2972 1891 2972 1459 
Q 2972 838 2656 419 
Q 2275 -88 1603 -88 
Q 944 -88 587 375 
Q 231 838 231 1447 
Q 231 2075 595 2542 
Q 959 3009 1594 3009 
z
M 1606 2788 
Q 1447 2788 1333 2667 
Q 1219 2547 1183 2192 
Q 1147 1838 1147 1206 
Q 1147 872 1191 581 
Q 1225 359 1337 243 
Q 1450 128 1594 128 
Q 1734 128 1828 206 
Q 1950 313 1991 503 
Q 2053 800 2053 1703 
Q 2053 2234 1993 2432 
Q 1934 2631 1819 2722 
Q 1738 2788 1606 2788 
z
" transform="scale(0.015625)"/>
      <path id="TimesNewRomanPS-BoldMT-63" d="M 2600 753 
L 2697 678 
Q 2491 291 2183 101 
Q 1875 -88 1528 -88 
Q 944 -88 594 353 
Q 244 794 244 1413 
Q 244 2009 563 2463 
Q 947 3009 1622 3009 
Q 2075 3009 2342 2781 
Q 2609 2553 2609 2272 
Q 2609 2094 2501 1987 
Q 2394 1881 2219 1881 
Q 2034 1881 1914 2003 
Q 1794 2125 1766 2438 
Q 1747 2634 1675 2713 
Q 1603 2791 1506 2791 
Q 1356 2791 1250 2631 
Q 1088 2391 1088 1894 
Q 1088 1481 1219 1104 
Q 1350 728 1578 544 
Q 1750 409 1984 409 
Q 2138 409 2275 481 
Q 2413 553 2600 753 
z
" transform="scale(0.015625)"/>
      <path id="TimesNewRomanPS-BoldMT-79" d="M 1556 -119 
L 613 2047 
Q 400 2538 298 2650 
Q 197 2763 53 2806 
L 53 2922 
L 1606 2922 
L 1606 2806 
Q 1453 2800 1390 2747 
Q 1328 2694 1328 2619 
Q 1328 2500 1484 2150 
L 1984 1006 
L 2325 1891 
Q 2509 2363 2509 2547 
Q 2509 2663 2432 2731 
Q 2356 2800 2163 2806 
L 2163 2922 
L 3141 2922 
L 3141 2806 
Q 2997 2791 2906 2695 
Q 2816 2600 2603 2047 
L 1769 -119 
Q 1453 -931 1300 -1119 
Q 1084 -1381 759 -1381 
Q 500 -1381 339 -1232 
Q 178 -1084 178 -875 
Q 178 -694 289 -575 
Q 400 -456 563 -456 
Q 719 -456 814 -556 
Q 909 -656 913 -866 
Q 916 -984 941 -1019 
Q 966 -1053 1013 -1053 
Q 1088 -1053 1172 -963 
Q 1297 -831 1466 -363 
L 1556 -119 
z
" transform="scale(0.015625)"/>
      <path id="TimesNewRomanPS-BoldMT-65" d="M 2691 1566 
L 1088 1566 
Q 1116 984 1397 647 
Q 1613 388 1916 388 
Q 2103 388 2256 492 
Q 2409 597 2584 869 
L 2691 800 
Q 2453 316 2165 114 
Q 1878 -88 1500 -88 
Q 850 -88 516 413 
Q 247 816 247 1413 
Q 247 2144 642 2576 
Q 1038 3009 1569 3009 
Q 2013 3009 2339 2645 
Q 2666 2281 2691 1566 
z
M 1922 1775 
Q 1922 2278 1867 2465 
Q 1813 2653 1697 2750 
Q 1631 2806 1522 2806 
Q 1359 2806 1256 2647 
Q 1072 2369 1072 1884 
L 1072 1775 
L 1922 1775 
z
" transform="scale(0.015625)"/>
     </defs>
     <use xlink:href="#TimesNewRomanPS-BoldMT-41"/>
     <use xlink:href="#TimesNewRomanPS-BoldMT-73" x="72.216797"/>
     <use xlink:href="#TimesNewRomanPS-BoldMT-74" x="111.132812"/>
     <use xlink:href="#TimesNewRomanPS-BoldMT-72" x="144.433594"/>
     <use xlink:href="#TimesNewRomanPS-BoldMT-6f" x="187.068359"/>
     <use xlink:href="#TimesNewRomanPS-BoldMT-63" x="237.068359"/>
     <use xlink:href="#TimesNewRomanPS-BoldMT-79" x="281.453125"/>
     <use xlink:href="#TimesNewRomanPS-BoldMT-74" x="331.453125"/>
     <use xlink:href="#TimesNewRomanPS-BoldMT-65" x="364.753906"/>
     <use xlink:href="#TimesNewRomanPS-BoldMT-73" x="409.138672"/>
    </g>
   </g>
   <g id="text_2">
    <!-- Endothelial Cells -->
    <g transform="translate(19.63125 210.994465) scale(0.12 -0.12)">
     <defs>
      <path id="TimesNewRomanPS-BoldMT-45" d="M 1744 3994 
L 1744 2269 
L 1828 2269 
Q 2231 2269 2412 2522 
Q 2594 2775 2644 3269 
L 2763 3269 
L 2763 1050 
L 2644 1050 
Q 2606 1413 2486 1644 
Q 2366 1875 2206 1954 
Q 2047 2034 1744 2034 
L 1744 841 
Q 1744 491 1773 412 
Q 1803 334 1884 284 
Q 1966 234 2147 234 
L 2400 234 
Q 2994 234 3351 509 
Q 3709 784 3866 1347 
L 3981 1347 
L 3791 0 
L 128 0 
L 128 116 
L 269 116 
Q 453 116 566 181 
Q 647 225 691 331 
Q 725 406 725 725 
L 725 3513 
Q 725 3800 709 3866 
Q 678 3975 594 4034 
Q 475 4122 269 4122 
L 128 4122 
L 128 4238 
L 3675 4238 
L 3675 2984 
L 3556 2984 
Q 3466 3444 3302 3644 
Q 3138 3844 2838 3938 
Q 2663 3994 2181 3994 
L 1744 3994 
z
" transform="scale(0.015625)"/>
      <path id="TimesNewRomanPS-BoldMT-6e" d="M 1409 2922 
L 1409 2544 
Q 1634 2788 1840 2898 
Q 2047 3009 2284 3009 
Q 2569 3009 2756 2851 
Q 2944 2694 3006 2459 
Q 3056 2281 3056 1775 
L 3056 638 
Q 3056 300 3117 217 
Q 3178 134 3372 113 
L 3372 0 
L 1894 0 
L 1894 113 
Q 2059 134 2131 250 
Q 2181 328 2181 638 
L 2181 1938 
Q 2181 2297 2153 2390 
Q 2125 2484 2058 2536 
Q 1991 2588 1909 2588 
Q 1641 2588 1409 2203 
L 1409 638 
Q 1409 309 1470 221 
Q 1531 134 1697 113 
L 1697 0 
L 219 0 
L 219 113 
Q 403 131 481 231 
Q 534 300 534 638 
L 534 2288 
Q 534 2619 473 2700 
Q 413 2781 219 2806 
L 219 2922 
L 1409 2922 
z
" transform="scale(0.015625)"/>
      <path id="TimesNewRomanPS-BoldMT-64" d="M 3056 4238 
L 3056 875 
Q 3056 534 3075 472 
Q 3100 369 3170 319 
Q 3241 269 3416 256 
L 3416 153 
L 2181 -88 
L 2181 375 
Q 1959 106 1786 9 
Q 1613 -88 1394 -88 
Q 834 -88 509 413 
Q 247 819 247 1409 
Q 247 1881 409 2254 
Q 572 2628 855 2818 
Q 1138 3009 1463 3009 
Q 1672 3009 1834 2928 
Q 1997 2847 2181 2644 
L 2181 3525 
Q 2181 3859 2153 3928 
Q 2116 4019 2041 4062 
Q 1966 4106 1759 4106 
L 1759 4238 
L 3056 4238 
z
M 2181 2256 
Q 1950 2700 1616 2700 
Q 1500 2700 1425 2638 
Q 1309 2541 1236 2297 
Q 1163 2053 1163 1550 
Q 1163 997 1244 731 
Q 1325 466 1466 347 
Q 1538 288 1663 288 
Q 1938 288 2181 719 
L 2181 2256 
z
" transform="scale(0.015625)"/>
      <path id="TimesNewRomanPS-BoldMT-68" d="M 1409 4238 
L 1409 2547 
Q 1650 2800 1850 2904 
Q 2050 3009 2266 3009 
Q 2541 3009 2736 2853 
Q 2931 2697 2995 2486 
Q 3059 2275 3059 1775 
L 3059 634 
Q 3059 300 3121 217 
Q 3184 134 3375 113 
L 3375 0 
L 1894 0 
L 1894 113 
Q 2050 134 2128 238 
Q 2184 319 2184 634 
L 2184 1938 
Q 2184 2300 2156 2392 
Q 2128 2484 2061 2536 
Q 1994 2588 1909 2588 
Q 1784 2588 1665 2502 
Q 1547 2416 1409 2200 
L 1409 634 
Q 1409 322 1456 244 
Q 1516 138 1700 113 
L 1700 0 
L 219 0 
L 219 113 
Q 403 131 481 231 
Q 534 300 534 634 
L 534 3603 
Q 534 3934 473 4015 
Q 413 4097 219 4122 
L 219 4238 
L 1409 4238 
z
" transform="scale(0.015625)"/>
      <path id="TimesNewRomanPS-BoldMT-6c" d="M 1359 4238 
L 1359 606 
Q 1359 297 1431 211 
Q 1503 125 1713 113 
L 1713 0 
L 134 0 
L 134 113 
Q 328 119 422 225 
Q 484 297 484 606 
L 484 3631 
Q 484 3938 412 4023 
Q 341 4109 134 4122 
L 134 4238 
L 1359 4238 
z
" transform="scale(0.015625)"/>
      <path id="TimesNewRomanPS-BoldMT-69" d="M 919 4338 
Q 1122 4338 1262 4195 
Q 1403 4053 1403 3853 
Q 1403 3653 1261 3512 
Q 1119 3372 919 3372 
Q 719 3372 578 3512 
Q 438 3653 438 3853 
Q 438 4053 578 4195 
Q 719 4338 919 4338 
z
M 1356 2922 
L 1356 606 
Q 1356 297 1428 211 
Q 1500 125 1709 113 
L 1709 0 
L 131 0 
L 131 113 
Q 325 119 419 225 
Q 481 297 481 606 
L 481 2313 
Q 481 2622 409 2708 
Q 338 2794 131 2806 
L 131 2922 
L 1356 2922 
z
" transform="scale(0.015625)"/>
      <path id="TimesNewRomanPS-BoldMT-61" d="M 1828 431 
Q 1294 -41 869 -41 
Q 619 -41 453 123 
Q 288 288 288 534 
Q 288 869 575 1136 
Q 863 1403 1828 1847 
L 1828 2141 
Q 1828 2472 1792 2558 
Q 1756 2644 1656 2708 
Q 1556 2772 1431 2772 
Q 1228 2772 1097 2681 
Q 1016 2625 1016 2550 
Q 1016 2484 1103 2388 
Q 1222 2253 1222 2128 
Q 1222 1975 1108 1867 
Q 994 1759 809 1759 
Q 613 1759 480 1878 
Q 347 1997 347 2156 
Q 347 2381 525 2586 
Q 703 2791 1022 2900 
Q 1341 3009 1684 3009 
Q 2100 3009 2342 2832 
Q 2584 2656 2656 2450 
Q 2700 2319 2700 1847 
L 2700 713 
Q 2700 513 2715 461 
Q 2731 409 2762 384 
Q 2794 359 2834 359 
Q 2916 359 3000 475 
L 3094 400 
Q 2938 169 2770 64 
Q 2603 -41 2391 -41 
Q 2141 -41 2000 76 
Q 1859 194 1828 431 
z
M 1828 659 
L 1828 1638 
Q 1450 1416 1266 1163 
Q 1144 994 1144 822 
Q 1144 678 1247 569 
Q 1325 484 1466 484 
Q 1622 484 1828 659 
z
" transform="scale(0.015625)"/>
      <path id="TimesNewRomanPS-BoldMT-20" transform="scale(0.015625)"/>
      <path id="TimesNewRomanPS-BoldMT-43" d="M 4272 4334 
L 4272 2866 
L 4150 2866 
Q 4013 3441 3638 3747 
Q 3263 4053 2788 4053 
Q 2391 4053 2059 3825 
Q 1728 3597 1575 3228 
Q 1378 2756 1378 2178 
Q 1378 1609 1522 1142 
Q 1666 675 1972 436 
Q 2278 197 2766 197 
Q 3166 197 3498 372 
Q 3831 547 4200 975 
L 4200 609 
Q 3844 238 3458 70 
Q 3072 -97 2556 -97 
Q 1878 -97 1351 175 
Q 825 447 539 956 
Q 253 1466 253 2041 
Q 253 2647 570 3190 
Q 888 3734 1427 4034 
Q 1966 4334 2572 4334 
Q 3019 4334 3516 4141 
Q 3803 4028 3881 4028 
Q 3981 4028 4054 4101 
Q 4128 4175 4150 4334 
L 4272 4334 
z
" transform="scale(0.015625)"/>
     </defs>
     <use xlink:href="#TimesNewRomanPS-BoldMT-45"/>
     <use xlink:href="#TimesNewRomanPS-BoldMT-6e" x="66.699219"/>
     <use xlink:href="#TimesNewRomanPS-BoldMT-64" x="122.314453"/>
     <use xlink:href="#TimesNewRomanPS-BoldMT-6f" x="177.929688"/>
     <use xlink:href="#TimesNewRomanPS-BoldMT-74" x="227.929688"/>
     <use xlink:href="#TimesNewRomanPS-BoldMT-68" x="261.230469"/>
     <use xlink:href="#TimesNewRomanPS-BoldMT-65" x="316.845703"/>
     <use xlink:href="#TimesNewRomanPS-BoldMT-6c" x="361.230469"/>
     <use xlink:href="#TimesNewRomanPS-BoldMT-69" x="389.013672"/>
     <use xlink:href="#TimesNewRomanPS-BoldMT-61" x="416.796875"/>
     <use xlink:href="#TimesNewRomanPS-BoldMT-6c" x="466.796875"/>
     <use xlink:href="#TimesNewRomanPS-BoldMT-20" x="494.580078"/>
     <use xlink:href="#TimesNewRomanPS-BoldMT-43" x="519.580078"/>
     <use xlink:href="#TimesNewRomanPS-BoldMT-65" x="591.796875"/>
     <use xlink:href="#TimesNewRomanPS-BoldMT-6c" x="636.181641"/>
     <use xlink:href="#TimesNewRomanPS-BoldMT-6c" x="663.964844"/>
     <use xlink:href="#TimesNewRomanPS-BoldMT-73" x="691.748047"/>
    </g>
   </g>
   <g id="text_3">
    <!-- Excitatory Neurons -->
    <g transform="translate(7.2 170.117169) scale(0.12 -0.12)">
     <defs>
      <path id="TimesNewRomanPS-BoldMT-78" d="M 1944 1791 
L 2450 828 
Q 2713 325 2866 191 
Q 2950 119 3097 113 
L 3097 0 
L 1469 0 
L 1469 113 
Q 1659 128 1704 162 
Q 1750 197 1750 256 
Q 1750 344 1650 531 
L 1397 1006 
L 1181 691 
Q 1034 475 1016 434 
Q 991 375 991 328 
Q 991 256 1020 207 
Q 1050 159 1101 136 
Q 1153 113 1291 113 
L 1291 0 
L 147 0 
L 147 113 
Q 359 113 536 230 
Q 713 347 1050 844 
L 1291 1200 
L 788 2131 
Q 541 2588 419 2691 
Q 297 2794 147 2806 
L 147 2922 
L 1766 2922 
L 1766 2806 
L 1681 2803 
L 1519 2747 
Q 1494 2725 1494 2675 
Q 1494 2628 1509 2578 
Q 1519 2556 1597 2409 
L 1825 1984 
L 1944 2153 
Q 2194 2497 2194 2634 
Q 2194 2700 2139 2745 
Q 2084 2791 1944 2806 
L 1944 2922 
L 2978 2922 
L 2978 2806 
Q 2788 2800 2622 2689 
Q 2456 2578 2250 2259 
L 1944 1791 
z
" transform="scale(0.015625)"/>
      <path id="TimesNewRomanPS-BoldMT-4e" d="M 1594 4238 
L 3684 1609 
L 3684 3431 
Q 3684 3813 3575 3947 
Q 3425 4128 3072 4122 
L 3072 4238 
L 4472 4238 
L 4472 4122 
Q 4203 4088 4111 4033 
Q 4019 3978 3967 3854 
Q 3916 3731 3916 3431 
L 3916 -97 
L 3809 -97 
L 944 3431 
L 944 738 
Q 944 372 1111 244 
Q 1278 116 1494 116 
L 1594 116 
L 1594 0 
L 91 0 
L 91 116 
Q 441 119 578 259 
Q 716 400 716 738 
L 716 3728 
L 625 3841 
Q 491 4009 387 4062 
Q 284 4116 91 4122 
L 91 4238 
L 1594 4238 
z
" transform="scale(0.015625)"/>
      <path id="TimesNewRomanPS-BoldMT-75" d="M 3038 2922 
L 3038 634 
Q 3038 300 3100 217 
Q 3163 134 3353 113 
L 3353 0 
L 2163 0 
L 2163 391 
Q 1953 141 1743 26 
Q 1534 -88 1275 -88 
Q 1028 -88 836 64 
Q 644 216 578 419 
Q 513 622 513 1128 
L 513 2288 
Q 513 2619 452 2700 
Q 391 2781 197 2806 
L 197 2922 
L 1388 2922 
L 1388 925 
Q 1388 613 1417 522 
Q 1447 431 1511 384 
Q 1575 338 1659 338 
Q 1772 338 1863 397 
Q 1988 478 2163 725 
L 2163 2288 
Q 2163 2619 2102 2700 
Q 2041 2781 1847 2806 
L 1847 2922 
L 3038 2922 
z
" transform="scale(0.015625)"/>
     </defs>
     <use xlink:href="#TimesNewRomanPS-BoldMT-45"/>
     <use xlink:href="#TimesNewRomanPS-BoldMT-78" x="66.699219"/>
     <use xlink:href="#TimesNewRomanPS-BoldMT-63" x="116.699219"/>
     <use xlink:href="#TimesNewRomanPS-BoldMT-69" x="161.083984"/>
     <use xlink:href="#TimesNewRomanPS-BoldMT-74" x="188.867188"/>
     <use xlink:href="#TimesNewRomanPS-BoldMT-61" x="222.167969"/>
     <use xlink:href="#TimesNewRomanPS-BoldMT-74" x="272.167969"/>
     <use xlink:href="#TimesNewRomanPS-BoldMT-6f" x="305.46875"/>
     <use xlink:href="#TimesNewRomanPS-BoldMT-72" x="355.46875"/>
     <use xlink:href="#TimesNewRomanPS-BoldMT-79" x="399.853516"/>
     <use xlink:href="#TimesNewRomanPS-BoldMT-20" x="449.853516"/>
     <use xlink:href="#TimesNewRomanPS-BoldMT-4e" x="474.853516"/>
     <use xlink:href="#TimesNewRomanPS-BoldMT-65" x="547.070312"/>
     <use xlink:href="#TimesNewRomanPS-BoldMT-75" x="591.455078"/>
     <use xlink:href="#TimesNewRomanPS-BoldMT-72" x="647.070312"/>
     <use xlink:href="#TimesNewRomanPS-BoldMT-6f" x="689.705078"/>
     <use xlink:href="#TimesNewRomanPS-BoldMT-6e" x="739.705078"/>
     <use xlink:href="#TimesNewRomanPS-BoldMT-73" x="795.320312"/>
    </g>
   </g>
   <g id="text_4">
    <!-- Inhibitory Neurons -->
    <g transform="translate(8.503125 113.901405) scale(0.12 -0.12)">
     <defs>
      <path id="TimesNewRomanPS-BoldMT-49" d="M 2344 116 
L 2344 0 
L 128 0 
L 128 116 
L 269 116 
Q 453 116 566 181 
Q 647 225 691 331 
Q 725 406 725 725 
L 725 3513 
Q 725 3838 690 3919 
Q 656 4000 551 4061 
Q 447 4122 269 4122 
L 128 4122 
L 128 4238 
L 2344 4238 
L 2344 4122 
L 2203 4122 
Q 2019 4122 1906 4056 
Q 1825 4013 1778 3906 
Q 1744 3831 1744 3513 
L 1744 725 
Q 1744 400 1780 319 
Q 1816 238 1920 177 
Q 2025 116 2203 116 
L 2344 116 
z
" transform="scale(0.015625)"/>
      <path id="TimesNewRomanPS-BoldMT-62" d="M 1347 4238 
L 1347 2628 
Q 1716 3009 2153 3009 
Q 2453 3009 2718 2832 
Q 2984 2656 3134 2331 
Q 3284 2006 3284 1581 
Q 3284 1103 3093 712 
Q 2903 322 2584 117 
Q 2266 -88 1856 -88 
Q 1619 -88 1434 -12 
Q 1250 63 1072 231 
L 588 -84 
L 481 -84 
L 481 3631 
Q 481 3884 459 3944 
Q 428 4031 361 4073 
Q 294 4116 134 4122 
L 134 4238 
L 1347 4238 
z
M 1347 2350 
L 1347 1050 
Q 1347 653 1366 544 
Q 1397 359 1515 245 
Q 1634 131 1819 131 
Q 1978 131 2092 222 
Q 2206 313 2282 581 
Q 2359 850 2359 1550 
Q 2359 2222 2191 2472 
Q 2069 2653 1863 2653 
Q 1594 2653 1347 2350 
z
" transform="scale(0.015625)"/>
     </defs>
     <use xlink:href="#TimesNewRomanPS-BoldMT-49"/>
     <use xlink:href="#TimesNewRomanPS-BoldMT-6e" x="38.916016"/>
     <use xlink:href="#TimesNewRomanPS-BoldMT-68" x="94.53125"/>
     <use xlink:href="#TimesNewRomanPS-BoldMT-69" x="150.146484"/>
     <use xlink:href="#TimesNewRomanPS-BoldMT-62" x="177.929688"/>
     <use xlink:href="#TimesNewRomanPS-BoldMT-69" x="233.544922"/>
     <use xlink:href="#TimesNewRomanPS-BoldMT-74" x="261.328125"/>
     <use xlink:href="#TimesNewRomanPS-BoldMT-6f" x="294.628906"/>
     <use xlink:href="#TimesNewRomanPS-BoldMT-72" x="344.628906"/>
     <use xlink:href="#TimesNewRomanPS-BoldMT-79" x="389.013672"/>
     <use xlink:href="#TimesNewRomanPS-BoldMT-20" x="439.013672"/>
     <use xlink:href="#TimesNewRomanPS-BoldMT-4e" x="464.013672"/>
     <use xlink:href="#TimesNewRomanPS-BoldMT-65" x="536.230469"/>
     <use xlink:href="#TimesNewRomanPS-BoldMT-75" x="580.615234"/>
     <use xlink:href="#TimesNewRomanPS-BoldMT-72" x="636.230469"/>
     <use xlink:href="#TimesNewRomanPS-BoldMT-6f" x="678.865234"/>
     <use xlink:href="#TimesNewRomanPS-BoldMT-6e" x="728.865234"/>
     <use xlink:href="#TimesNewRomanPS-BoldMT-73" x="784.480469"/>
    </g>
   </g>
   <g id="text_5">
    <!-- Microglia -->
    <g transform="translate(57.538125 79.605768) scale(0.12 -0.12)">
     <defs>
      <path id="TimesNewRomanPS-BoldMT-4d" d="M 3050 1444 
L 4200 4238 
L 5925 4238 
L 5925 4122 
L 5788 4122 
Q 5600 4122 5488 4056 
Q 5409 4013 5363 3909 
Q 5328 3834 5328 3519 
L 5328 725 
Q 5328 400 5362 319 
Q 5397 238 5503 177 
Q 5609 116 5788 116 
L 5925 116 
L 5925 0 
L 3713 0 
L 3713 116 
L 3850 116 
Q 4038 116 4150 181 
Q 4228 225 4275 331 
Q 4309 406 4309 725 
L 4309 3866 
L 2684 0 
L 2609 0 
L 959 3838 
L 959 853 
Q 959 541 975 469 
Q 1016 313 1152 214 
Q 1288 116 1578 116 
L 1578 0 
L 128 0 
L 128 116 
L 172 116 
Q 313 113 434 161 
Q 556 209 618 290 
Q 681 372 716 519 
Q 722 553 722 838 
L 722 3519 
Q 722 3841 687 3920 
Q 653 4000 547 4061 
Q 441 4122 263 4122 
L 128 4122 
L 128 4238 
L 1859 4238 
L 3050 1444 
z
" transform="scale(0.015625)"/>
      <path id="TimesNewRomanPS-BoldMT-67" d="M 2091 2888 
L 3075 2888 
L 3075 2544 
L 2516 2544 
Q 2669 2391 2728 2266 
Q 2803 2097 2803 1913 
Q 2803 1600 2629 1370 
Q 2456 1141 2157 1011 
Q 1859 881 1628 881 
Q 1609 881 1253 897 
Q 1113 897 1017 805 
Q 922 713 922 584 
Q 922 472 1008 400 
Q 1094 328 1288 328 
L 1828 334 
Q 2484 334 2731 191 
Q 3084 -9 3084 -425 
Q 3084 -691 2921 -908 
Q 2759 -1125 2494 -1228 
Q 2091 -1381 1566 -1381 
Q 1172 -1381 847 -1304 
Q 522 -1228 381 -1092 
Q 241 -956 241 -806 
Q 241 -663 348 -548 
Q 456 -434 750 -356 
Q 344 -156 344 200 
Q 344 416 509 619 
Q 675 822 1034 972 
Q 616 1125 428 1375 
Q 241 1625 241 1953 
Q 241 2381 591 2695 
Q 941 3009 1491 3009 
Q 1781 3009 2091 2888 
z
M 1550 2816 
Q 1369 2816 1244 2633 
Q 1119 2450 1119 1875 
Q 1119 1409 1242 1236 
Q 1366 1063 1534 1063 
Q 1722 1063 1847 1234 
Q 1972 1406 1972 1903 
Q 1972 2463 1831 2666 
Q 1731 2816 1550 2816 
z
M 1366 -431 
Q 1047 -431 944 -484 
Q 766 -581 766 -747 
Q 766 -906 950 -1036 
Q 1134 -1166 1644 -1166 
Q 2078 -1166 2326 -1050 
Q 2575 -934 2575 -725 
Q 2575 -647 2528 -594 
Q 2444 -500 2273 -465 
Q 2103 -431 1366 -431 
z
" transform="scale(0.015625)"/>
     </defs>
     <use xlink:href="#TimesNewRomanPS-BoldMT-4d"/>
     <use xlink:href="#TimesNewRomanPS-BoldMT-69" x="94.384766"/>
     <use xlink:href="#TimesNewRomanPS-BoldMT-63" x="122.167969"/>
     <use xlink:href="#TimesNewRomanPS-BoldMT-72" x="166.552734"/>
     <use xlink:href="#TimesNewRomanPS-BoldMT-6f" x="209.1875"/>
     <use xlink:href="#TimesNewRomanPS-BoldMT-67" x="259.1875"/>
     <use xlink:href="#TimesNewRomanPS-BoldMT-6c" x="309.1875"/>
     <use xlink:href="#TimesNewRomanPS-BoldMT-69" x="336.970703"/>
     <use xlink:href="#TimesNewRomanPS-BoldMT-61" x="364.753906"/>
    </g>
   </g>
   <g id="text_6">
    <!-- Oligodendrocytes -->
    <g transform="translate(17.525625 43.768012) scale(0.12 -0.12)">
     <defs>
      <path id="TimesNewRomanPS-BoldMT-4f" d="M 2472 4297 
Q 3484 4334 4117 3706 
Q 4750 3078 4750 2134 
Q 4750 1328 4278 716 
Q 3653 -97 2513 -97 
Q 1369 -97 744 678 
Q 250 1291 250 2131 
Q 250 3075 892 3704 
Q 1534 4334 2472 4297 
z
M 2509 4097 
Q 1928 4097 1625 3503 
Q 1378 3016 1378 2103 
Q 1378 1019 1759 500 
Q 2025 138 2503 138 
Q 2825 138 3041 294 
Q 3316 494 3469 933 
Q 3622 1372 3622 2078 
Q 3622 2919 3465 3336 
Q 3309 3753 3067 3925 
Q 2825 4097 2509 4097 
z
" transform="scale(0.015625)"/>
     </defs>
     <use xlink:href="#TimesNewRomanPS-BoldMT-4f"/>
     <use xlink:href="#TimesNewRomanPS-BoldMT-6c" x="77.783203"/>
     <use xlink:href="#TimesNewRomanPS-BoldMT-69" x="105.566406"/>
     <use xlink:href="#TimesNewRomanPS-BoldMT-67" x="133.349609"/>
     <use xlink:href="#TimesNewRomanPS-BoldMT-6f" x="183.349609"/>
     <use xlink:href="#TimesNewRomanPS-BoldMT-64" x="233.349609"/>
     <use xlink:href="#TimesNewRomanPS-BoldMT-65" x="288.964844"/>
     <use xlink:href="#TimesNewRomanPS-BoldMT-6e" x="333.349609"/>
     <use xlink:href="#TimesNewRomanPS-BoldMT-64" x="388.964844"/>
     <use xlink:href="#TimesNewRomanPS-BoldMT-72" x="444.580078"/>
     <use xlink:href="#TimesNewRomanPS-BoldMT-6f" x="487.214844"/>
     <use xlink:href="#TimesNewRomanPS-BoldMT-63" x="537.214844"/>
     <use xlink:href="#TimesNewRomanPS-BoldMT-79" x="581.599609"/>
     <use xlink:href="#TimesNewRomanPS-BoldMT-74" x="631.599609"/>
     <use xlink:href="#TimesNewRomanPS-BoldMT-65" x="664.900391"/>
     <use xlink:href="#TimesNewRomanPS-BoldMT-73" x="709.285156"/>
    </g>
   </g>
   <g id="text_7">
    <!-- Astrocytes -->
    <g transform="translate(450.694615 244.369052) scale(0.12 -0.12)">
     <use xlink:href="#TimesNewRomanPS-BoldMT-41"/>
     <use xlink:href="#TimesNewRomanPS-BoldMT-73" x="72.216797"/>
     <use xlink:href="#TimesNewRomanPS-BoldMT-74" x="111.132812"/>
     <use xlink:href="#TimesNewRomanPS-BoldMT-72" x="144.433594"/>
     <use xlink:href="#TimesNewRomanPS-BoldMT-6f" x="187.068359"/>
     <use xlink:href="#TimesNewRomanPS-BoldMT-63" x="237.068359"/>
     <use xlink:href="#TimesNewRomanPS-BoldMT-79" x="281.453125"/>
     <use xlink:href="#TimesNewRomanPS-BoldMT-74" x="331.453125"/>
     <use xlink:href="#TimesNewRomanPS-BoldMT-65" x="364.753906"/>
     <use xlink:href="#TimesNewRomanPS-BoldMT-73" x="409.138672"/>
    </g>
   </g>
   <g id="text_8">
    <!-- Endothelial Cells -->
    <g transform="translate(450.694615 210.16833) scale(0.12 -0.12)">
     <use xlink:href="#TimesNewRomanPS-BoldMT-45"/>
     <use xlink:href="#TimesNewRomanPS-BoldMT-6e" x="66.699219"/>
     <use xlink:href="#TimesNewRomanPS-BoldMT-64" x="122.314453"/>
     <use xlink:href="#TimesNewRomanPS-BoldMT-6f" x="177.929688"/>
     <use xlink:href="#TimesNewRomanPS-BoldMT-74" x="227.929688"/>
     <use xlink:href="#TimesNewRomanPS-BoldMT-68" x="261.230469"/>
     <use xlink:href="#TimesNewRomanPS-BoldMT-65" x="316.845703"/>
     <use xlink:href="#TimesNewRomanPS-BoldMT-6c" x="361.230469"/>
     <use xlink:href="#TimesNewRomanPS-BoldMT-69" x="389.013672"/>
     <use xlink:href="#TimesNewRomanPS-BoldMT-61" x="416.796875"/>
     <use xlink:href="#TimesNewRomanPS-BoldMT-6c" x="466.796875"/>
     <use xlink:href="#TimesNewRomanPS-BoldMT-20" x="494.580078"/>
     <use xlink:href="#TimesNewRomanPS-BoldMT-43" x="519.580078"/>
     <use xlink:href="#TimesNewRomanPS-BoldMT-65" x="591.796875"/>
     <use xlink:href="#TimesNewRomanPS-BoldMT-6c" x="636.181641"/>
     <use xlink:href="#TimesNewRomanPS-BoldMT-6c" x="663.964844"/>
     <use xlink:href="#TimesNewRomanPS-BoldMT-73" x="691.748047"/>
    </g>
   </g>
   <g id="text_9">
    <!-- Excitatory Neurons -->
    <g transform="translate(450.694615 169.951942) scale(0.12 -0.12)">
     <use xlink:href="#TimesNewRomanPS-BoldMT-45"/>
     <use xlink:href="#TimesNewRomanPS-BoldMT-78" x="66.699219"/>
     <use xlink:href="#TimesNewRomanPS-BoldMT-63" x="116.699219"/>
     <use xlink:href="#TimesNewRomanPS-BoldMT-69" x="161.083984"/>
     <use xlink:href="#TimesNewRomanPS-BoldMT-74" x="188.867188"/>
     <use xlink:href="#TimesNewRomanPS-BoldMT-61" x="222.167969"/>
     <use xlink:href="#TimesNewRomanPS-BoldMT-74" x="272.167969"/>
     <use xlink:href="#TimesNewRomanPS-BoldMT-6f" x="305.46875"/>
     <use xlink:href="#TimesNewRomanPS-BoldMT-72" x="355.46875"/>
     <use xlink:href="#TimesNewRomanPS-BoldMT-79" x="399.853516"/>
     <use xlink:href="#TimesNewRomanPS-BoldMT-20" x="449.853516"/>
     <use xlink:href="#TimesNewRomanPS-BoldMT-4e" x="474.853516"/>
     <use xlink:href="#TimesNewRomanPS-BoldMT-65" x="547.070312"/>
     <use xlink:href="#TimesNewRomanPS-BoldMT-75" x="591.455078"/>
     <use xlink:href="#TimesNewRomanPS-BoldMT-72" x="647.070312"/>
     <use xlink:href="#TimesNewRomanPS-BoldMT-6f" x="689.705078"/>
     <use xlink:href="#TimesNewRomanPS-BoldMT-6e" x="739.705078"/>
     <use xlink:href="#TimesNewRomanPS-BoldMT-73" x="795.320312"/>
    </g>
   </g>
   <g id="text_10">
    <!-- Inhibitory Neurons -->
    <g transform="translate(450.694615 109.330122) scale(0.12 -0.12)">
     <use xlink:href="#TimesNewRomanPS-BoldMT-49"/>
     <use xlink:href="#TimesNewRomanPS-BoldMT-6e" x="38.916016"/>
     <use xlink:href="#TimesNewRomanPS-BoldMT-68" x="94.53125"/>
     <use xlink:href="#TimesNewRomanPS-BoldMT-69" x="150.146484"/>
     <use xlink:href="#TimesNewRomanPS-BoldMT-62" x="177.929688"/>
     <use xlink:href="#TimesNewRomanPS-BoldMT-69" x="233.544922"/>
     <use xlink:href="#TimesNewRomanPS-BoldMT-74" x="261.328125"/>
     <use xlink:href="#TimesNewRomanPS-BoldMT-6f" x="294.628906"/>
     <use xlink:href="#TimesNewRomanPS-BoldMT-72" x="344.628906"/>
     <use xlink:href="#TimesNewRomanPS-BoldMT-79" x="389.013672"/>
     <use xlink:href="#TimesNewRomanPS-BoldMT-20" x="439.013672"/>
     <use xlink:href="#TimesNewRomanPS-BoldMT-4e" x="464.013672"/>
     <use xlink:href="#TimesNewRomanPS-BoldMT-65" x="536.230469"/>
     <use xlink:href="#TimesNewRomanPS-BoldMT-75" x="580.615234"/>
     <use xlink:href="#TimesNewRomanPS-BoldMT-72" x="636.230469"/>
     <use xlink:href="#TimesNewRomanPS-BoldMT-6f" x="678.865234"/>
     <use xlink:href="#TimesNewRomanPS-BoldMT-6e" x="728.865234"/>
     <use xlink:href="#TimesNewRomanPS-BoldMT-73" x="784.480469"/>
    </g>
   </g>
   <g id="text_11">
    <!-- Microglia -->
    <g transform="translate(450.694615 53.114358) scale(0.12 -0.12)">
     <use xlink:href="#TimesNewRomanPS-BoldMT-4d"/>
     <use xlink:href="#TimesNewRomanPS-BoldMT-69" x="94.384766"/>
     <use xlink:href="#TimesNewRomanPS-BoldMT-63" x="122.167969"/>
     <use xlink:href="#TimesNewRomanPS-BoldMT-72" x="166.552734"/>
     <use xlink:href="#TimesNewRomanPS-BoldMT-6f" x="209.1875"/>
     <use xlink:href="#TimesNewRomanPS-BoldMT-67" x="259.1875"/>
     <use xlink:href="#TimesNewRomanPS-BoldMT-6c" x="309.1875"/>
     <use xlink:href="#TimesNewRomanPS-BoldMT-69" x="336.970703"/>
     <use xlink:href="#TimesNewRomanPS-BoldMT-61" x="364.753906"/>
    </g>
   </g>
  </g>
 </g>
 <defs>
  <clipPath id="paf8fd71556">
   <rect x="100.442308" y="7.2" width="357.12" height="266.112"/>
  </clipPath>
 </defs>
</svg>
