<?xml version="1.0" encoding="utf-8" standalone="no"?>
<!DOCTYPE svg PUBLIC "-//W3C//DTD SVG 1.1//EN"
  "http://www.w3.org/Graphics/SVG/1.1/DTD/svg11.dtd">
<svg xmlns:xlink="http://www.w3.org/1999/xlink" width="558.004615pt" height="280.512pt" viewBox="0 0 558.004615 280.512" xmlns="http://www.w3.org/2000/svg" version="1.1">
 <metadata>
  <rdf:RDF xmlns:dc="http://purl.org/dc/elements/1.1/" xmlns:cc="http://creativecommons.org/ns#" xmlns:rdf="http://www.w3.org/1999/02/22-rdf-syntax-ns#">
   <cc:Work>
    <dc:type rdf:resource="http://purl.org/dc/dcmitype/StillImage"/>
    <dc:date>2025-03-16T20:00:48.177270</dc:date>
    <dc:format>image/svg+xml</dc:format>
    <dc:creator>
     <cc:Agent>
      <dc:title>Matplotlib v3.9.3, https://matplotlib.org/</dc:title>
     </cc:Agent>
    </dc:creator>
   </cc:Work>
  </rdf:RDF>
 </metadata>
 <defs>
  <style type="text/css">*{stroke-linejoin: round; stroke-linecap: butt}</style>
 </defs>
 <g id="figure_1">
  <g id="patch_1">
   <path d="M 0 280.512 
L 558.004615 280.512 
L 558.004615 0 
L 0 0 
z
" style="fill: #ffffff"/>
  </g>
  <g id="axes_1">
   <g id="PolyCollection_1">
    <defs>
     <path id="mb8cf1a53da" d="M 116.675035 -38.137656 
L 116.675035 -19.296 
L 122.918392 -19.296 
L 122.918392 -38.137656 
L 122.918392 -38.137656 
L 116.675035 -38.137656 
z
" style="stroke: #5f57db; stroke-opacity: 0.99"/>
    </defs>
    <g clip-path="url(#p6bb2041625)">
     <use xlink:href="#mb8cf1a53da" x="0" y="280.512" style="fill: #5f57db; fill-opacity: 0.99; stroke: #5f57db; stroke-opacity: 0.99"/>
    </g>
   </g>
   <g id="PolyCollection_2">
    <defs>
     <path id="m6d876a4469" d="M 116.675035 -52.089453 
L 116.675035 -47.814456 
L 122.918392 -47.814456 
L 122.918392 -52.089453 
L 122.918392 -52.089453 
L 116.675035 -52.089453 
z
" style="stroke: #db57d3; stroke-opacity: 0.99"/>
    </defs>
    <g clip-path="url(#p6bb2041625)">
     <use xlink:href="#m6d876a4469" x="0" y="280.512" style="fill: #db57d3; fill-opacity: 0.99; stroke: #db57d3; stroke-opacity: 0.99"/>
    </g>
   </g>
   <g id="PolyCollection_3">
    <defs>
     <path id="m4d13afc62c" d="M 116.675035 -169.327303 
L 116.675035 -61.766253 
L 122.918392 -61.766253 
L 122.918392 -169.327303 
L 122.918392 -169.327303 
L 116.675035 -169.327303 
z
" style="stroke: #db5f57; stroke-opacity: 0.99"/>
    </defs>
    <g clip-path="url(#p6bb2041625)">
     <use xlink:href="#m4d13afc62c" x="0" y="280.512" style="fill: #db5f57; fill-opacity: 0.99; stroke: #db5f57; stroke-opacity: 0.99"/>
    </g>
   </g>
   <g id="PolyCollection_4">
    <defs>
     <path id="m03b1faf8b1" d="M 116.675035 -214.312416 
L 116.675035 -179.004103 
L 122.918392 -179.004103 
L 122.918392 -214.312416 
L 122.918392 -214.312416 
L 116.675035 -214.312416 
z
" style="stroke: #d3db57; stroke-opacity: 0.99"/>
    </defs>
    <g clip-path="url(#p6bb2041625)">
     <use xlink:href="#m03b1faf8b1" x="0" y="280.512" style="fill: #d3db57; fill-opacity: 0.99; stroke: #d3db57; stroke-opacity: 0.99"/>
    </g>
   </g>
   <g id="PolyCollection_5">
    <defs>
     <path id="m1edd4f7d21" d="M 116.675035 -246.15587 
L 116.675035 -223.989216 
L 122.918392 -223.989216 
L 122.918392 -246.15587 
L 122.918392 -246.15587 
L 116.675035 -246.15587 
z
" style="stroke: #57db5f; stroke-opacity: 0.99"/>
    </defs>
    <g clip-path="url(#p6bb2041625)">
     <use xlink:href="#m1edd4f7d21" x="0" y="280.512" style="fill: #57db5f; fill-opacity: 0.99; stroke: #57db5f; stroke-opacity: 0.99"/>
    </g>
   </g>
   <g id="PolyCollection_6">
    <defs>
     <path id="mcc6193d28f" d="M 116.675035 -261.216 
L 116.675035 -255.83267 
L 122.918392 -255.83267 
L 122.918392 -261.216 
L 122.918392 -261.216 
L 116.675035 -261.216 
z
" style="stroke: #57d3db; stroke-opacity: 0.99"/>
    </defs>
    <g clip-path="url(#p6bb2041625)">
     <use xlink:href="#mcc6193d28f" x="0" y="280.512" style="fill: #57d3db; fill-opacity: 0.99; stroke: #57d3db; stroke-opacity: 0.99"/>
    </g>
   </g>
   <g id="PolyCollection_7">
    <defs>
     <path id="m83fd24bbb7" d="M 435.086224 -37.34599 
L 435.086224 -19.296 
L 441.32958 -19.296 
L 441.32958 -37.34599 
L 441.32958 -37.34599 
L 435.086224 -37.34599 
z
" style="stroke: #5f57db; stroke-opacity: 0.99"/>
    </defs>
    <g clip-path="url(#p6bb2041625)">
     <use xlink:href="#m83fd24bbb7" x="0" y="280.512" style="fill: #5f57db; fill-opacity: 0.99; stroke: #5f57db; stroke-opacity: 0.99"/>
    </g>
   </g>
   <g id="PolyCollection_8">
    <defs>
     <path id="m422ea6303b" d="M 435.086224 -50.928343 
L 435.086224 -47.02279 
L 441.32958 -47.02279 
L 441.32958 -50.928343 
L 441.32958 -50.928343 
L 435.086224 -50.928343 
z
" style="stroke: #db57d3; stroke-opacity: 0.99"/>
    </defs>
    <g clip-path="url(#p6bb2041625)">
     <use xlink:href="#m422ea6303b" x="0" y="280.512" style="fill: #db57d3; fill-opacity: 0.99; stroke: #db57d3; stroke-opacity: 0.99"/>
    </g>
   </g>
   <g id="PolyCollection_9">
    <defs>
     <path id="m5cb28a060e" d="M 435.086224 -163.257862 
L 435.086224 -60.605143 
L 441.32958 -60.605143 
L 441.32958 -163.257862 
L 441.32958 -163.257862 
L 435.086224 -163.257862 
z
" style="stroke: #db5f57; stroke-opacity: 0.99"/>
    </defs>
    <g clip-path="url(#p6bb2041625)">
     <use xlink:href="#m5cb28a060e" x="0" y="280.512" style="fill: #db5f57; fill-opacity: 0.99; stroke: #db5f57; stroke-opacity: 0.99"/>
    </g>
   </g>
   <g id="PolyCollection_10">
    <defs>
     <path id="mfe2f0cd837" d="M 435.086224 -213.942972 
L 435.086224 -172.934662 
L 441.32958 -172.934662 
L 441.32958 -213.942972 
L 441.32958 -213.942972 
L 435.086224 -213.942972 
z
" style="stroke: #d3db57; stroke-opacity: 0.99"/>
    </defs>
    <g clip-path="url(#p6bb2041625)">
     <use xlink:href="#mfe2f0cd837" x="0" y="280.512" style="fill: #d3db57; fill-opacity: 0.99; stroke: #d3db57; stroke-opacity: 0.99"/>
    </g>
   </g>
   <g id="PolyCollection_11">
    <defs>
     <path id="m5234b02850" d="M 435.086224 -245.575315 
L 435.086224 -223.619772 
L 441.32958 -223.619772 
L 441.32958 -245.575315 
L 441.32958 -245.575315 
L 435.086224 -245.575315 
z
" style="stroke: #57db5f; stroke-opacity: 0.99"/>
    </defs>
    <g clip-path="url(#p6bb2041625)">
     <use xlink:href="#m5234b02850" x="0" y="280.512" style="fill: #57db5f; fill-opacity: 0.99; stroke: #57db5f; stroke-opacity: 0.99"/>
    </g>
   </g>
   <g id="PolyCollection_12">
    <defs>
     <path id="m12111a0596" d="M 435.086224 -261.216 
L 435.086224 -255.252115 
L 441.32958 -255.252115 
L 441.32958 -261.216 
L 441.32958 -261.216 
L 435.086224 -261.216 
z
" style="stroke: #57d3db; stroke-opacity: 0.99"/>
    </defs>
    <g clip-path="url(#p6bb2041625)">
     <use xlink:href="#m12111a0596" x="0" y="280.512" style="fill: #57d3db; fill-opacity: 0.99; stroke: #57d3db; stroke-opacity: 0.99"/>
    </g>
   </g>
   <g id="PolyCollection_13">
    <defs>
     <path id="mfe9c265b8c" d="M 122.918392 -37.134879 
L 122.918392 -19.296 
L 128.035897 -19.296 
L 133.153402 -19.296 
L 138.270908 -19.296 
L 143.388413 -19.296 
L 148.505919 -19.296 
L 153.623424 -19.296 
L 158.74093 -19.296 
L 163.858435 -19.296 
L 168.975941 -19.296 
L 174.093446 -19.296 
L 179.210952 -19.296 
L 184.328457 -19.296 
L 189.445962 -19.296 
L 194.563468 -19.296 
L 199.680973 -19.296 
L 204.798479 -19.296 
L 209.915984 -19.296 
L 215.03349 -19.296 
L 220.150995 -19.296 
L 225.268501 -19.296 
L 230.386006 -19.296 
L 235.503511 -19.296 
L 240.621017 -19.296 
L 245.738522 -19.296 
L 250.856028 -19.296 
L 255.973533 -19.296 
L 261.091039 -19.296 
L 266.208544 -19.296 
L 271.32605 -19.296 
L 276.443555 -19.296 
L 281.56106 -19.296 
L 286.678566 -19.296 
L 291.796071 -19.296 
L 296.913577 -19.296 
L 302.031082 -19.296 
L 307.148588 -19.296 
L 312.266093 -19.296 
L 317.383599 -19.296 
L 322.501104 -19.296 
L 327.618609 -19.296 
L 332.736115 -19.296 
L 337.85362 -19.296 
L 342.971126 -19.296 
L 348.088631 -19.296 
L 353.206137 -19.296 
L 358.323642 -19.296 
L 363.441148 -19.296 
L 368.558653 -19.296 
L 373.676158 -19.296 
L 378.793664 -19.296 
L 383.911169 -19.296 
L 389.028675 -19.296 
L 394.14618 -19.296 
L 399.263686 -19.296 
L 404.381191 -19.296 
L 409.498697 -19.296 
L 414.616202 -19.296 
L 419.733707 -19.296 
L 424.851213 -19.296 
L 429.968718 -19.296 
L 435.086224 -19.296 
L 435.086224 -37.134879 
L 435.086224 -37.134879 
L 429.968718 -37.134879 
L 424.851213 -37.134879 
L 419.733707 -37.134879 
L 414.616202 -37.134879 
L 409.498697 -37.134879 
L 404.381191 -37.134879 
L 399.263686 -37.134879 
L 394.14618 -37.134879 
L 389.028675 -37.134879 
L 383.911169 -37.134879 
L 378.793664 -37.134879 
L 373.676158 -37.134879 
L 368.558653 -37.134879 
L 363.441148 -37.134879 
L 358.323642 -37.134879 
L 353.206137 -37.134879 
L 348.088631 -37.134879 
L 342.971126 -37.134879 
L 337.85362 -37.134879 
L 332.736115 -37.134879 
L 327.618609 -37.134879 
L 322.501104 -37.134879 
L 317.383599 -37.134879 
L 312.266093 -37.134879 
L 307.148588 -37.134879 
L 302.031082 -37.134879 
L 296.913577 -37.134879 
L 291.796071 -37.134879 
L 286.678566 -37.134879 
L 281.56106 -37.134879 
L 276.443555 -37.134879 
L 271.32605 -37.134879 
L 266.208544 -37.134879 
L 261.091039 -37.134879 
L 255.973533 -37.134879 
L 250.856028 -37.134879 
L 245.738522 -37.134879 
L 240.621017 -37.134879 
L 235.503511 -37.134879 
L 230.386006 -37.134879 
L 225.268501 -37.134879 
L 220.150995 -37.134879 
L 215.03349 -37.134879 
L 209.915984 -37.134879 
L 204.798479 -37.134879 
L 199.680973 -37.134879 
L 194.563468 -37.134879 
L 189.445962 -37.134879 
L 184.328457 -37.134879 
L 179.210952 -37.134879 
L 174.093446 -37.134879 
L 168.975941 -37.134879 
L 163.858435 -37.134879 
L 158.74093 -37.134879 
L 153.623424 -37.134879 
L 148.505919 -37.134879 
L 143.388413 -37.134879 
L 138.270908 -37.134879 
L 133.153402 -37.134879 
L 128.035897 -37.134879 
L 122.918392 -37.134879 
z
" style="stroke: #5f57db; stroke-opacity: 0.65"/>
    </defs>
    <g clip-path="url(#p6bb2041625)">
     <use xlink:href="#mfe9c265b8c" x="0" y="280.512" style="fill: #5f57db; fill-opacity: 0.65; stroke: #5f57db; stroke-opacity: 0.65"/>
    </g>
   </g>
   <g id="PolyCollection_14">
    <defs>
     <path id="m7ba7adf76e" d="M 122.918392 -37.187656 
L 122.918392 -37.134879 
L 128.035897 -37.134879 
L 133.153402 -37.134879 
L 138.270908 -37.134879 
L 143.388413 -37.134879 
L 148.505919 -37.134879 
L 153.623424 -37.134879 
L 158.74093 -37.134879 
L 163.858435 -37.134879 
L 168.975941 -37.134879 
L 174.093446 -37.134879 
L 179.210952 -37.134879 
L 184.328457 -37.193554 
L 189.445962 -37.310906 
L 194.563468 -37.486933 
L 199.680973 -37.721635 
L 204.798479 -38.015014 
L 209.915984 -38.367068 
L 215.03349 -38.777797 
L 220.150995 -39.247202 
L 225.268501 -39.775283 
L 230.386006 -40.36204 
L 235.503511 -41.007472 
L 240.621017 -41.71158 
L 245.738522 -42.474364 
L 250.856028 -43.295823 
L 255.973533 -44.175958 
L 261.091039 -45.114769 
L 266.208544 -46.112255 
L 271.32605 -47.168417 
L 276.443555 -48.283254 
L 281.56106 -49.456767 
L 286.678566 -50.571605 
L 291.796071 -51.627767 
L 296.913577 -52.625253 
L 302.031082 -53.564064 
L 307.148588 -54.444199 
L 312.266093 -55.265658 
L 317.383599 -56.028441 
L 322.501104 -56.732549 
L 327.618609 -57.377982 
L 332.736115 -57.964738 
L 337.85362 -58.492819 
L 342.971126 -58.962224 
L 348.088631 -59.372954 
L 353.206137 -59.725008 
L 358.323642 -60.018386 
L 363.441148 -60.253089 
L 368.558653 -60.429116 
L 373.676158 -60.546467 
L 378.793664 -60.605143 
L 383.911169 -60.605143 
L 389.028675 -60.605143 
L 394.14618 -60.605143 
L 399.263686 -60.605143 
L 404.381191 -60.605143 
L 409.498697 -60.605143 
L 414.616202 -60.605143 
L 419.733707 -60.605143 
L 424.851213 -60.605143 
L 429.968718 -60.605143 
L 435.086224 -60.605143 
L 435.086224 -60.657921 
L 435.086224 -60.657921 
L 429.968718 -60.657921 
L 424.851213 -60.657921 
L 419.733707 -60.657921 
L 414.616202 -60.657921 
L 409.498697 -60.657921 
L 404.381191 -60.657921 
L 399.263686 -60.657921 
L 394.14618 -60.657921 
L 389.028675 -60.657921 
L 383.911169 -60.657921 
L 378.793664 -60.657921 
L 373.676158 -60.599245 
L 368.558653 -60.481894 
L 363.441148 -60.305867 
L 358.323642 -60.071164 
L 353.206137 -59.777786 
L 348.088631 -59.425732 
L 342.971126 -59.015002 
L 337.85362 -58.545597 
L 332.736115 -58.017516 
L 327.618609 -57.430759 
L 322.501104 -56.785327 
L 317.383599 -56.081219 
L 312.266093 -55.318436 
L 307.148588 -54.496976 
L 302.031082 -53.616841 
L 296.913577 -52.678031 
L 291.796071 -51.680545 
L 286.678566 -50.624383 
L 281.56106 -49.509545 
L 276.443555 -48.336032 
L 271.32605 -47.221194 
L 266.208544 -46.165032 
L 261.091039 -45.167546 
L 255.973533 -44.228736 
L 250.856028 -43.348601 
L 245.738522 -42.527142 
L 240.621017 -41.764358 
L 235.503511 -41.06025 
L 230.386006 -40.414818 
L 225.268501 -39.828061 
L 220.150995 -39.29998 
L 215.03349 -38.830575 
L 209.915984 -38.419845 
L 204.798479 -38.067791 
L 199.680973 -37.774413 
L 194.563468 -37.53971 
L 189.445962 -37.363683 
L 184.328457 -37.246332 
L 179.210952 -37.187656 
L 174.093446 -37.187656 
L 168.975941 -37.187656 
L 163.858435 -37.187656 
L 158.74093 -37.187656 
L 153.623424 -37.187656 
L 148.505919 -37.187656 
L 143.388413 -37.187656 
L 138.270908 -37.187656 
L 133.153402 -37.187656 
L 128.035897 -37.187656 
L 122.918392 -37.187656 
z
" style="stroke: #5f57db; stroke-opacity: 0.65"/>
    </defs>
    <g clip-path="url(#p6bb2041625)">
     <use xlink:href="#m7ba7adf76e" x="0" y="280.512" style="fill: #5f57db; fill-opacity: 0.65; stroke: #5f57db; stroke-opacity: 0.65"/>
    </g>
   </g>
   <g id="PolyCollection_15">
    <defs>
     <path id="mec93a87ab8" d="M 122.918392 -38.084878 
L 122.918392 -37.187656 
L 128.035897 -37.187656 
L 133.153402 -37.187656 
L 138.270908 -37.187656 
L 143.388413 -37.187656 
L 148.505919 -37.187656 
L 153.623424 -37.187656 
L 158.74093 -37.187656 
L 163.858435 -37.187656 
L 168.975941 -37.187656 
L 174.093446 -37.187656 
L 179.210952 -37.187656 
L 184.328457 -37.527024 
L 189.445962 -38.205759 
L 194.563468 -39.223861 
L 199.680973 -40.581332 
L 204.798479 -42.278169 
L 209.915984 -44.314374 
L 215.03349 -46.689947 
L 220.150995 -49.404887 
L 225.268501 -52.459195 
L 230.386006 -55.85287 
L 235.503511 -59.585912 
L 240.621017 -63.658322 
L 245.738522 -68.0701 
L 250.856028 -72.821245 
L 255.973533 -77.911758 
L 261.091039 -83.341638 
L 266.208544 -89.110886 
L 271.32605 -95.219501 
L 276.443555 -101.667484 
L 281.56106 -108.454834 
L 286.678566 -114.902817 
L 291.796071 -121.011432 
L 296.913577 -126.78068 
L 302.031082 -132.21056 
L 307.148588 -137.301073 
L 312.266093 -142.052218 
L 317.383599 -146.463996 
L 322.501104 -150.536406 
L 327.618609 -154.269449 
L 332.736115 -157.663124 
L 337.85362 -160.717431 
L 342.971126 -163.432371 
L 348.088631 -165.807944 
L 353.206137 -167.844149 
L 358.323642 -169.540987 
L 363.441148 -170.898457 
L 368.558653 -171.916559 
L 373.676158 -172.595294 
L 378.793664 -172.934662 
L 383.911169 -172.934662 
L 389.028675 -172.934662 
L 394.14618 -172.934662 
L 399.263686 -172.934662 
L 404.381191 -172.934662 
L 409.498697 -172.934662 
L 414.616202 -172.934662 
L 419.733707 -172.934662 
L 424.851213 -172.934662 
L 429.968718 -172.934662 
L 435.086224 -172.934662 
L 435.086224 -173.831884 
L 435.086224 -173.831884 
L 429.968718 -173.831884 
L 424.851213 -173.831884 
L 419.733707 -173.831884 
L 414.616202 -173.831884 
L 409.498697 -173.831884 
L 404.381191 -173.831884 
L 399.263686 -173.831884 
L 394.14618 -173.831884 
L 389.028675 -173.831884 
L 383.911169 -173.831884 
L 378.793664 -173.831884 
L 373.676158 -173.492516 
L 368.558653 -172.813781 
L 363.441148 -171.795678 
L 358.323642 -170.438208 
L 353.206137 -168.741371 
L 348.088631 -166.705166 
L 342.971126 -164.329593 
L 337.85362 -161.614653 
L 332.736115 -158.560345 
L 327.618609 -155.16667 
L 322.501104 -151.433628 
L 317.383599 -147.361217 
L 312.266093 -142.94944 
L 307.148588 -138.198295 
L 302.031082 -133.107782 
L 296.913577 -127.677902 
L 291.796071 -121.908654 
L 286.678566 -115.800039 
L 281.56106 -109.352056 
L 276.443555 -102.564706 
L 271.32605 -96.116723 
L 266.208544 -90.008108 
L 261.091039 -84.23886 
L 255.973533 -78.80898 
L 250.856028 -73.718467 
L 245.738522 -68.967322 
L 240.621017 -64.555544 
L 235.503511 -60.483134 
L 230.386006 -56.750091 
L 225.268501 -53.356416 
L 220.150995 -50.302109 
L 215.03349 -47.587168 
L 209.915984 -45.211596 
L 204.798479 -43.175391 
L 199.680973 -41.478553 
L 194.563468 -40.121083 
L 189.445962 -39.102981 
L 184.328457 -38.424246 
L 179.210952 -38.084878 
L 174.093446 -38.084878 
L 168.975941 -38.084878 
L 163.858435 -38.084878 
L 158.74093 -38.084878 
L 153.623424 -38.084878 
L 148.505919 -38.084878 
L 143.388413 -38.084878 
L 138.270908 -38.084878 
L 133.153402 -38.084878 
L 128.035897 -38.084878 
L 122.918392 -38.084878 
z
" style="stroke: #5f57db; stroke-opacity: 0.65"/>
    </defs>
    <g clip-path="url(#p6bb2041625)">
     <use xlink:href="#mec93a87ab8" x="0" y="280.512" style="fill: #5f57db; fill-opacity: 0.65; stroke: #5f57db; stroke-opacity: 0.65"/>
    </g>
   </g>
   <g id="PolyCollection_16">
    <defs>
     <path id="m56d29936a2" d="M 122.918392 -38.137656 
L 122.918392 -38.084878 
L 128.035897 -38.084878 
L 133.153402 -38.084878 
L 138.270908 -38.084878 
L 143.388413 -38.084878 
L 148.505919 -38.084878 
L 153.623424 -38.084878 
L 158.74093 -38.084878 
L 163.858435 -38.084878 
L 168.975941 -38.084878 
L 174.093446 -38.084878 
L 179.210952 -38.084878 
L 184.328457 -38.627796 
L 189.445962 -39.713632 
L 194.563468 -41.342387 
L 199.680973 -43.514059 
L 204.798479 -46.228649 
L 209.915984 -49.486158 
L 215.03349 -53.286585 
L 220.150995 -57.629929 
L 225.268501 -62.516192 
L 230.386006 -67.945373 
L 235.503511 -73.917472 
L 240.621017 -80.432489 
L 245.738522 -87.490424 
L 250.856028 -95.091278 
L 255.973533 -103.235049 
L 261.091039 -111.921738 
L 266.208544 -121.151346 
L 271.32605 -130.923872 
L 276.443555 -141.239315 
L 281.56106 -152.097677 
L 286.678566 -162.413121 
L 291.796071 -172.185647 
L 296.913577 -181.415254 
L 302.031082 -190.101944 
L 307.148588 -198.245715 
L 312.266093 -205.846568 
L 317.383599 -212.904503 
L 322.501104 -219.419521 
L 327.618609 -225.39162 
L 332.736115 -230.8208 
L 337.85362 -235.707063 
L 342.971126 -240.050408 
L 348.088631 -243.850835 
L 353.206137 -247.108343 
L 358.323642 -249.822934 
L 363.441148 -251.994606 
L 368.558653 -253.62336 
L 373.676158 -254.709196 
L 378.793664 -255.252115 
L 383.911169 -255.252115 
L 389.028675 -255.252115 
L 394.14618 -255.252115 
L 399.263686 -255.252115 
L 404.381191 -255.252115 
L 409.498697 -255.252115 
L 414.616202 -255.252115 
L 419.733707 -255.252115 
L 424.851213 -255.252115 
L 429.968718 -255.252115 
L 435.086224 -255.252115 
L 435.086224 -255.304892 
L 435.086224 -255.304892 
L 429.968718 -255.304892 
L 424.851213 -255.304892 
L 419.733707 -255.304892 
L 414.616202 -255.304892 
L 409.498697 -255.304892 
L 404.381191 -255.304892 
L 399.263686 -255.304892 
L 394.14618 -255.304892 
L 389.028675 -255.304892 
L 383.911169 -255.304892 
L 378.793664 -255.304892 
L 373.676158 -254.761974 
L 368.558653 -253.676138 
L 363.441148 -252.047384 
L 358.323642 -249.875711 
L 353.206137 -247.161121 
L 348.088631 -243.903612 
L 342.971126 -240.103186 
L 337.85362 -235.759841 
L 332.736115 -230.873578 
L 327.618609 -225.444397 
L 322.501104 -219.472298 
L 317.383599 -212.957281 
L 312.266093 -205.899346 
L 307.148588 -198.298493 
L 302.031082 -190.154721 
L 296.913577 -181.468032 
L 291.796071 -172.238424 
L 286.678566 -162.465899 
L 281.56106 -152.150455 
L 276.443555 -141.292093 
L 271.32605 -130.976649 
L 266.208544 -121.204124 
L 261.091039 -111.974516 
L 255.973533 -103.287827 
L 250.856028 -95.144055 
L 245.738522 -87.543202 
L 240.621017 -80.485267 
L 235.503511 -73.97025 
L 230.386006 -67.998151 
L 225.268501 -62.56897 
L 220.150995 -57.682707 
L 215.03349 -53.339362 
L 209.915984 -49.538936 
L 204.798479 -46.281427 
L 199.680973 -43.566837 
L 194.563468 -41.395164 
L 189.445962 -39.76641 
L 184.328457 -38.680574 
L 179.210952 -38.137656 
L 174.093446 -38.137656 
L 168.975941 -38.137656 
L 163.858435 -38.137656 
L 158.74093 -38.137656 
L 153.623424 -38.137656 
L 148.505919 -38.137656 
L 143.388413 -38.137656 
L 138.270908 -38.137656 
L 133.153402 -38.137656 
L 128.035897 -38.137656 
L 122.918392 -38.137656 
z
" style="stroke: #5f57db; stroke-opacity: 0.65"/>
    </defs>
    <g clip-path="url(#p6bb2041625)">
     <use xlink:href="#m56d29936a2" x="0" y="280.512" style="fill: #5f57db; fill-opacity: 0.65; stroke: #5f57db; stroke-opacity: 0.65"/>
    </g>
   </g>
   <g id="PolyCollection_17">
    <defs>
     <path id="m0972db5e96" d="M 122.918392 -51.720009 
L 122.918392 -47.814456 
L 128.035897 -47.814456 
L 133.153402 -47.814456 
L 138.270908 -47.814456 
L 143.388413 -47.814456 
L 148.505919 -47.814456 
L 153.623424 -47.814456 
L 158.74093 -47.814456 
L 163.858435 -47.814456 
L 168.975941 -47.814456 
L 174.093446 -47.814456 
L 179.210952 -47.814456 
L 184.328457 -47.812477 
L 189.445962 -47.808518 
L 194.563468 -47.802581 
L 199.680973 -47.794664 
L 204.798479 -47.784768 
L 209.915984 -47.772893 
L 215.03349 -47.759039 
L 220.150995 -47.743206 
L 225.268501 -47.725393 
L 230.386006 -47.705602 
L 235.503511 -47.683831 
L 240.621017 -47.660081 
L 245.738522 -47.634352 
L 250.856028 -47.606643 
L 255.973533 -47.576956 
L 261.091039 -47.545289 
L 266.208544 -47.511644 
L 271.32605 -47.476019 
L 276.443555 -47.438414 
L 281.56106 -47.398831 
L 286.678566 -47.361227 
L 291.796071 -47.325602 
L 296.913577 -47.291956 
L 302.031082 -47.26029 
L 307.148588 -47.230602 
L 312.266093 -47.202894 
L 317.383599 -47.177165 
L 322.501104 -47.153415 
L 327.618609 -47.131644 
L 332.736115 -47.111852 
L 337.85362 -47.09404 
L 342.971126 -47.078206 
L 348.088631 -47.064352 
L 353.206137 -47.052477 
L 358.323642 -47.042581 
L 363.441148 -47.034665 
L 368.558653 -47.028727 
L 373.676158 -47.024769 
L 378.793664 -47.02279 
L 383.911169 -47.02279 
L 389.028675 -47.02279 
L 394.14618 -47.02279 
L 399.263686 -47.02279 
L 404.381191 -47.02279 
L 409.498697 -47.02279 
L 414.616202 -47.02279 
L 419.733707 -47.02279 
L 424.851213 -47.02279 
L 429.968718 -47.02279 
L 435.086224 -47.02279 
L 435.086224 -50.928343 
L 435.086224 -50.928343 
L 429.968718 -50.928343 
L 424.851213 -50.928343 
L 419.733707 -50.928343 
L 414.616202 -50.928343 
L 409.498697 -50.928343 
L 404.381191 -50.928343 
L 399.263686 -50.928343 
L 394.14618 -50.928343 
L 389.028675 -50.928343 
L 383.911169 -50.928343 
L 378.793664 -50.928343 
L 373.676158 -50.930322 
L 368.558653 -50.93428 
L 363.441148 -50.940218 
L 358.323642 -50.948135 
L 353.206137 -50.95803 
L 348.088631 -50.969905 
L 342.971126 -50.98376 
L 337.85362 -50.999593 
L 332.736115 -51.017405 
L 327.618609 -51.037197 
L 322.501104 -51.058968 
L 317.383599 -51.082718 
L 312.266093 -51.108447 
L 307.148588 -51.136155 
L 302.031082 -51.165843 
L 296.913577 -51.197509 
L 291.796071 -51.231155 
L 286.678566 -51.26678 
L 281.56106 -51.304384 
L 276.443555 -51.343968 
L 271.32605 -51.381572 
L 266.208544 -51.417197 
L 261.091039 -51.450843 
L 255.973533 -51.482509 
L 250.856028 -51.512197 
L 245.738522 -51.539905 
L 240.621017 -51.565634 
L 235.503511 -51.589384 
L 230.386006 -51.611155 
L 225.268501 -51.630947 
L 220.150995 -51.648759 
L 215.03349 -51.664593 
L 209.915984 -51.678447 
L 204.798479 -51.690322 
L 199.680973 -51.700218 
L 194.563468 -51.708134 
L 189.445962 -51.714072 
L 184.328457 -51.71803 
L 179.210952 -51.720009 
L 174.093446 -51.720009 
L 168.975941 -51.720009 
L 163.858435 -51.720009 
L 158.74093 -51.720009 
L 153.623424 -51.720009 
L 148.505919 -51.720009 
L 143.388413 -51.720009 
L 138.270908 -51.720009 
L 133.153402 -51.720009 
L 128.035897 -51.720009 
L 122.918392 -51.720009 
z
" style="stroke: #db57d3; stroke-opacity: 0.65"/>
    </defs>
    <g clip-path="url(#p6bb2041625)">
     <use xlink:href="#m0972db5e96" x="0" y="280.512" style="fill: #db57d3; fill-opacity: 0.65; stroke: #db57d3; stroke-opacity: 0.65"/>
    </g>
   </g>
   <g id="PolyCollection_18">
    <defs>
     <path id="m2b7371c184" d="M 122.918392 -52.036676 
L 122.918392 -51.720009 
L 128.035897 -51.720009 
L 133.153402 -51.720009 
L 138.270908 -51.720009 
L 143.388413 -51.720009 
L 148.505919 -51.720009 
L 153.623424 -51.720009 
L 158.74093 -51.720009 
L 163.858435 -51.720009 
L 168.975941 -51.720009 
L 174.093446 -51.720009 
L 179.210952 -51.720009 
L 184.328457 -52.025289 
L 189.445962 -52.635848 
L 194.563468 -53.551687 
L 199.680973 -54.772806 
L 204.798479 -56.299204 
L 209.915984 -58.130883 
L 215.03349 -60.26784 
L 220.150995 -62.710078 
L 225.268501 -65.457595 
L 230.386006 -68.510392 
L 235.503511 -71.868468 
L 240.621017 -75.531825 
L 245.738522 -79.500461 
L 250.856028 -83.774376 
L 255.973533 -88.353571 
L 261.091039 -93.238046 
L 266.208544 -98.427801 
L 271.32605 -103.922835 
L 276.443555 -109.723149 
L 281.56106 -115.828743 
L 286.678566 -121.629057 
L 291.796071 -127.124092 
L 296.913577 -132.313846 
L 302.031082 -137.198321 
L 307.148588 -141.777516 
L 312.266093 -146.051432 
L 317.383599 -150.020068 
L 322.501104 -153.683424 
L 327.618609 -157.041501 
L 332.736115 -160.094298 
L 337.85362 -162.841815 
L 342.971126 -165.284052 
L 348.088631 -167.42101 
L 353.206137 -169.252688 
L 358.323642 -170.779087 
L 363.441148 -172.000205 
L 368.558653 -172.916044 
L 373.676158 -173.526604 
L 378.793664 -173.831884 
L 383.911169 -173.831884 
L 389.028675 -173.831884 
L 394.14618 -173.831884 
L 399.263686 -173.831884 
L 404.381191 -173.831884 
L 409.498697 -173.831884 
L 414.616202 -173.831884 
L 419.733707 -173.831884 
L 424.851213 -173.831884 
L 429.968718 -173.831884 
L 435.086224 -173.831884 
L 435.086224 -174.14855 
L 435.086224 -174.14855 
L 429.968718 -174.14855 
L 424.851213 -174.14855 
L 419.733707 -174.14855 
L 414.616202 -174.14855 
L 409.498697 -174.14855 
L 404.381191 -174.14855 
L 399.263686 -174.14855 
L 394.14618 -174.14855 
L 389.028675 -174.14855 
L 383.911169 -174.14855 
L 378.793664 -174.14855 
L 373.676158 -173.84327 
L 368.558653 -173.232711 
L 363.441148 -172.316872 
L 358.323642 -171.095753 
L 353.206137 -169.569355 
L 348.088631 -167.737677 
L 342.971126 -165.600719 
L 337.85362 -163.158481 
L 332.736115 -160.410964 
L 327.618609 -157.358167 
L 322.501104 -154.000091 
L 317.383599 -150.336734 
L 312.266093 -146.368099 
L 307.148588 -142.094183 
L 302.031082 -137.514988 
L 296.913577 -132.630513 
L 291.796071 -127.440758 
L 286.678566 -121.945724 
L 281.56106 -116.14541 
L 276.443555 -110.039816 
L 271.32605 -104.239502 
L 266.208544 -98.744468 
L 261.091039 -93.554713 
L 255.973533 -88.670238 
L 250.856028 -84.091043 
L 245.738522 -79.817127 
L 240.621017 -75.848491 
L 235.503511 -72.185135 
L 230.386006 -68.827058 
L 225.268501 -65.774262 
L 220.150995 -63.026744 
L 215.03349 -60.584507 
L 209.915984 -58.447549 
L 204.798479 -56.615871 
L 199.680973 -55.089473 
L 194.563468 -53.868354 
L 189.445962 -52.952515 
L 184.328457 -52.341955 
L 179.210952 -52.036676 
L 174.093446 -52.036676 
L 168.975941 -52.036676 
L 163.858435 -52.036676 
L 158.74093 -52.036676 
L 153.623424 -52.036676 
L 148.505919 -52.036676 
L 143.388413 -52.036676 
L 138.270908 -52.036676 
L 133.153402 -52.036676 
L 128.035897 -52.036676 
L 122.918392 -52.036676 
z
" style="stroke: #db57d3; stroke-opacity: 0.65"/>
    </defs>
    <g clip-path="url(#p6bb2041625)">
     <use xlink:href="#m2b7371c184" x="0" y="280.512" style="fill: #db57d3; fill-opacity: 0.65; stroke: #db57d3; stroke-opacity: 0.65"/>
    </g>
   </g>
   <g id="PolyCollection_19">
    <defs>
     <path id="mee62f85fce" d="M 122.918392 -52.089453 
L 122.918392 -52.036676 
L 128.035897 -52.036676 
L 133.153402 -52.036676 
L 138.270908 -52.036676 
L 143.388413 -52.036676 
L 148.505919 -52.036676 
L 153.623424 -52.036676 
L 158.74093 -52.036676 
L 163.858435 -52.036676 
L 168.975941 -52.036676 
L 174.093446 -52.036676 
L 179.210952 -52.036676 
L 184.328457 -52.465633 
L 189.445962 -53.323549 
L 194.563468 -54.610422 
L 199.680973 -56.326253 
L 204.798479 -58.471042 
L 209.915984 -61.044788 
L 215.03349 -64.047492 
L 220.150995 -67.479154 
L 225.268501 -71.339774 
L 230.386006 -75.629351 
L 235.503511 -80.347886 
L 240.621017 -85.495379 
L 245.738522 -91.07183 
L 250.856028 -97.077238 
L 255.973533 -103.511604 
L 261.091039 -110.374928 
L 266.208544 -117.66721 
L 271.32605 -125.388449 
L 276.443555 -133.538646 
L 281.56106 -142.117801 
L 286.678566 -150.267998 
L 291.796071 -157.989237 
L 296.913577 -165.281519 
L 302.031082 -172.144843 
L 307.148588 -178.579209 
L 312.266093 -184.584617 
L 317.383599 -190.161068 
L 322.501104 -195.308561 
L 327.618609 -200.027096 
L 332.736115 -204.316673 
L 337.85362 -208.177293 
L 342.971126 -211.608955 
L 348.088631 -214.611659 
L 353.206137 -217.185405 
L 358.323642 -219.330194 
L 363.441148 -221.046025 
L 368.558653 -222.332898 
L 373.676158 -223.190814 
L 378.793664 -223.619772 
L 383.911169 -223.619772 
L 389.028675 -223.619772 
L 394.14618 -223.619772 
L 399.263686 -223.619772 
L 404.381191 -223.619772 
L 409.498697 -223.619772 
L 414.616202 -223.619772 
L 419.733707 -223.619772 
L 424.851213 -223.619772 
L 429.968718 -223.619772 
L 435.086224 -223.619772 
L 435.086224 -223.672549 
L 435.086224 -223.672549 
L 429.968718 -223.672549 
L 424.851213 -223.672549 
L 419.733707 -223.672549 
L 414.616202 -223.672549 
L 409.498697 -223.672549 
L 404.381191 -223.672549 
L 399.263686 -223.672549 
L 394.14618 -223.672549 
L 389.028675 -223.672549 
L 383.911169 -223.672549 
L 378.793664 -223.672549 
L 373.676158 -223.243592 
L 368.558653 -222.385676 
L 363.441148 -221.098803 
L 358.323642 -219.382972 
L 353.206137 -217.238183 
L 348.088631 -214.664437 
L 342.971126 -211.661733 
L 337.85362 -208.230071 
L 332.736115 -204.369451 
L 327.618609 -200.079874 
L 322.501104 -195.361339 
L 317.383599 -190.213846 
L 312.266093 -184.637395 
L 307.148588 -178.631987 
L 302.031082 -172.197621 
L 296.913577 -165.334297 
L 291.796071 -158.042015 
L 286.678566 -150.320776 
L 281.56106 -142.170579 
L 276.443555 -133.591424 
L 271.32605 -125.441227 
L 266.208544 -117.719988 
L 261.091039 -110.427706 
L 255.973533 -103.564382 
L 250.856028 -97.130016 
L 245.738522 -91.124608 
L 240.621017 -85.548157 
L 235.503511 -80.400664 
L 230.386006 -75.682129 
L 225.268501 -71.392552 
L 220.150995 -67.531932 
L 215.03349 -64.10027 
L 209.915984 -61.097566 
L 204.798479 -58.523819 
L 199.680973 -56.379031 
L 194.563468 -54.6632 
L 189.445962 -53.376327 
L 184.328457 -52.518411 
L 179.210952 -52.089453 
L 174.093446 -52.089453 
L 168.975941 -52.089453 
L 163.858435 -52.089453 
L 158.74093 -52.089453 
L 153.623424 -52.089453 
L 148.505919 -52.089453 
L 143.388413 -52.089453 
L 138.270908 -52.089453 
L 133.153402 -52.089453 
L 128.035897 -52.089453 
L 122.918392 -52.089453 
z
" style="stroke: #db57d3; stroke-opacity: 0.65"/>
    </defs>
    <g clip-path="url(#p6bb2041625)">
     <use xlink:href="#mee62f85fce" x="0" y="280.512" style="fill: #db57d3; fill-opacity: 0.65; stroke: #db57d3; stroke-opacity: 0.65"/>
    </g>
   </g>
   <g id="PolyCollection_20">
    <defs>
     <path id="mbca1d64fd5" d="M 122.918392 -164.102306 
L 122.918392 -61.766253 
L 128.035897 -61.766253 
L 133.153402 -61.766253 
L 138.270908 -61.766253 
L 143.388413 -61.766253 
L 148.505919 -61.766253 
L 153.623424 -61.766253 
L 158.74093 -61.766253 
L 163.858435 -61.766253 
L 168.975941 -61.766253 
L 174.093446 -61.766253 
L 179.210952 -61.766253 
L 184.328457 -61.763483 
L 189.445962 -61.757941 
L 194.563468 -61.749628 
L 199.680973 -61.738545 
L 204.798479 -61.724691 
L 209.915984 -61.708066 
L 215.03349 -61.68867 
L 220.150995 -61.666503 
L 225.268501 -61.641566 
L 230.386006 -61.613858 
L 235.503511 -61.583379 
L 240.621017 -61.550129 
L 245.738522 -61.514108 
L 250.856028 -61.475316 
L 255.973533 -61.433754 
L 261.091039 -61.38942 
L 266.208544 -61.342316 
L 271.32605 -61.292441 
L 276.443555 -61.239795 
L 281.56106 -61.184379 
L 286.678566 -61.131733 
L 291.796071 -61.081858 
L 296.913577 -61.034754 
L 302.031082 -60.990421 
L 307.148588 -60.948858 
L 312.266093 -60.910066 
L 317.383599 -60.874046 
L 322.501104 -60.840796 
L 327.618609 -60.810316 
L 332.736115 -60.782608 
L 337.85362 -60.757671 
L 342.971126 -60.735504 
L 348.088631 -60.716108 
L 353.206137 -60.699483 
L 358.323642 -60.685629 
L 363.441148 -60.674546 
L 368.558653 -60.666233 
L 373.676158 -60.660692 
L 378.793664 -60.657921 
L 383.911169 -60.657921 
L 389.028675 -60.657921 
L 394.14618 -60.657921 
L 399.263686 -60.657921 
L 404.381191 -60.657921 
L 409.498697 -60.657921 
L 414.616202 -60.657921 
L 419.733707 -60.657921 
L 424.851213 -60.657921 
L 429.968718 -60.657921 
L 435.086224 -60.657921 
L 435.086224 -162.993973 
L 435.086224 -162.993973 
L 429.968718 -162.993973 
L 424.851213 -162.993973 
L 419.733707 -162.993973 
L 414.616202 -162.993973 
L 409.498697 -162.993973 
L 404.381191 -162.993973 
L 399.263686 -162.993973 
L 394.14618 -162.993973 
L 389.028675 -162.993973 
L 383.911169 -162.993973 
L 378.793664 -162.993973 
L 373.676158 -162.996744 
L 368.558653 -163.002286 
L 363.441148 -163.010598 
L 358.323642 -163.021681 
L 353.206137 -163.035536 
L 348.088631 -163.052161 
L 342.971126 -163.071556 
L 337.85362 -163.093723 
L 332.736115 -163.11866 
L 327.618609 -163.146369 
L 322.501104 -163.176848 
L 317.383599 -163.210098 
L 312.266093 -163.246119 
L 307.148588 -163.28491 
L 302.031082 -163.326473 
L 296.913577 -163.370806 
L 291.796071 -163.41791 
L 286.678566 -163.467785 
L 281.56106 -163.520431 
L 276.443555 -163.575848 
L 271.32605 -163.628494 
L 266.208544 -163.678368 
L 261.091039 -163.725473 
L 255.973533 -163.769806 
L 250.856028 -163.811368 
L 245.738522 -163.85016 
L 240.621017 -163.886181 
L 235.503511 -163.919431 
L 230.386006 -163.94991 
L 225.268501 -163.977618 
L 220.150995 -164.002556 
L 215.03349 -164.024722 
L 209.915984 -164.044118 
L 204.798479 -164.060743 
L 199.680973 -164.074597 
L 194.563468 -164.085681 
L 189.445962 -164.093993 
L 184.328457 -164.099535 
L 179.210952 -164.102306 
L 174.093446 -164.102306 
L 168.975941 -164.102306 
L 163.858435 -164.102306 
L 158.74093 -164.102306 
L 153.623424 -164.102306 
L 148.505919 -164.102306 
L 143.388413 -164.102306 
L 138.270908 -164.102306 
L 133.153402 -164.102306 
L 128.035897 -164.102306 
L 122.918392 -164.102306 
z
" style="stroke: #db5f57; stroke-opacity: 0.65"/>
    </defs>
    <g clip-path="url(#p6bb2041625)">
     <use xlink:href="#mbca1d64fd5" x="0" y="280.512" style="fill: #db5f57; fill-opacity: 0.65; stroke: #db5f57; stroke-opacity: 0.65"/>
    </g>
   </g>
   <g id="PolyCollection_21">
    <defs>
     <path id="m8ea3f71501" d="M 122.918392 -169.327303 
L 122.918392 -164.102306 
L 128.035897 -164.102306 
L 133.153402 -164.102306 
L 138.270908 -164.102306 
L 143.388413 -164.102306 
L 148.505919 -164.102306 
L 153.623424 -164.102306 
L 158.74093 -164.102306 
L 163.858435 -164.102306 
L 168.975941 -164.102306 
L 174.093446 -164.102306 
L 179.210952 -164.102306 
L 184.328457 -164.127421 
L 189.445962 -164.177653 
L 194.563468 -164.252999 
L 199.680973 -164.353462 
L 204.798479 -164.47904 
L 209.915984 -164.629734 
L 215.03349 -164.805543 
L 220.150995 -165.006468 
L 225.268501 -165.232508 
L 230.386006 -165.483664 
L 235.503511 -165.759936 
L 240.621017 -166.061323 
L 245.738522 -166.387826 
L 250.856028 -166.739445 
L 255.973533 -167.116179 
L 261.091039 -167.518029 
L 266.208544 -167.944994 
L 271.32605 -168.397075 
L 276.443555 -168.874272 
L 281.56106 -169.376584 
L 286.678566 -169.853781 
L 291.796071 -170.305862 
L 296.913577 -170.732827 
L 302.031082 -171.134677 
L 307.148588 -171.511411 
L 312.266093 -171.863029 
L 317.383599 -172.189532 
L 322.501104 -172.49092 
L 327.618609 -172.767191 
L 332.736115 -173.018348 
L 337.85362 -173.244388 
L 342.971126 -173.445313 
L 348.088631 -173.621122 
L 353.206137 -173.771816 
L 358.323642 -173.897394 
L 363.441148 -173.997856 
L 368.558653 -174.073203 
L 373.676158 -174.123434 
L 378.793664 -174.14855 
L 383.911169 -174.14855 
L 389.028675 -174.14855 
L 394.14618 -174.14855 
L 399.263686 -174.14855 
L 404.381191 -174.14855 
L 409.498697 -174.14855 
L 414.616202 -174.14855 
L 419.733707 -174.14855 
L 424.851213 -174.14855 
L 429.968718 -174.14855 
L 435.086224 -174.14855 
L 435.086224 -179.373547 
L 435.086224 -179.373547 
L 429.968718 -179.373547 
L 424.851213 -179.373547 
L 419.733707 -179.373547 
L 414.616202 -179.373547 
L 409.498697 -179.373547 
L 404.381191 -179.373547 
L 399.263686 -179.373547 
L 394.14618 -179.373547 
L 389.028675 -179.373547 
L 383.911169 -179.373547 
L 378.793664 -179.373547 
L 373.676158 -179.348431 
L 368.558653 -179.2982 
L 363.441148 -179.222853 
L 358.323642 -179.122391 
L 353.206137 -178.996813 
L 348.088631 -178.846119 
L 342.971126 -178.67031 
L 337.85362 -178.469385 
L 332.736115 -178.243345 
L 327.618609 -177.992188 
L 322.501104 -177.715917 
L 317.383599 -177.414529 
L 312.266093 -177.088026 
L 307.148588 -176.736408 
L 302.031082 -176.359674 
L 296.913577 -175.957824 
L 291.796071 -175.530859 
L 286.678566 -175.078778 
L 281.56106 -174.601581 
L 276.443555 -174.099269 
L 271.32605 -173.622072 
L 266.208544 -173.169991 
L 261.091039 -172.743026 
L 255.973533 -172.341176 
L 250.856028 -171.964442 
L 245.738522 -171.612823 
L 240.621017 -171.28632 
L 235.503511 -170.984933 
L 230.386006 -170.708661 
L 225.268501 -170.457505 
L 220.150995 -170.231465 
L 215.03349 -170.03054 
L 209.915984 -169.854731 
L 204.798479 -169.704037 
L 199.680973 -169.578459 
L 194.563468 -169.477996 
L 189.445962 -169.40265 
L 184.328457 -169.352418 
L 179.210952 -169.327303 
L 174.093446 -169.327303 
L 168.975941 -169.327303 
L 163.858435 -169.327303 
L 158.74093 -169.327303 
L 153.623424 -169.327303 
L 148.505919 -169.327303 
L 143.388413 -169.327303 
L 138.270908 -169.327303 
L 133.153402 -169.327303 
L 128.035897 -169.327303 
L 122.918392 -169.327303 
z
" style="stroke: #db5f57; stroke-opacity: 0.65"/>
    </defs>
    <g clip-path="url(#p6bb2041625)">
     <use xlink:href="#m8ea3f71501" x="0" y="280.512" style="fill: #db5f57; fill-opacity: 0.65; stroke: #db5f57; stroke-opacity: 0.65"/>
    </g>
   </g>
   <g id="PolyCollection_22">
    <defs>
     <path id="m2803760b98" d="M 122.918392 -179.215214 
L 122.918392 -179.004103 
L 128.035897 -179.004103 
L 133.153402 -179.004103 
L 138.270908 -179.004103 
L 143.388413 -179.004103 
L 148.505919 -179.004103 
L 153.623424 -179.004103 
L 158.74093 -179.004103 
L 163.858435 -179.004103 
L 168.975941 -179.004103 
L 174.093446 -179.004103 
L 179.210952 -179.004103 
L 184.328457 -178.64943 
L 189.445962 -177.940084 
L 194.563468 -176.876064 
L 199.680973 -175.457372 
L 204.798479 -173.684007 
L 209.915984 -171.555968 
L 215.03349 -169.073257 
L 220.150995 -166.235873 
L 225.268501 -163.043815 
L 230.386006 -159.497084 
L 235.503511 -155.595681 
L 240.621017 -151.339604 
L 245.738522 -146.728854 
L 250.856028 -141.763431 
L 255.973533 -136.443336 
L 261.091039 -130.768567 
L 266.208544 -124.739125 
L 271.32605 -118.355009 
L 276.443555 -111.616221 
L 281.56106 -104.52276 
L 286.678566 -97.783972 
L 291.796071 -91.399857 
L 296.913577 -85.370415 
L 302.031082 -79.695646 
L 307.148588 -74.37555 
L 312.266093 -69.410127 
L 317.383599 -64.799377 
L 322.501104 -60.543301 
L 327.618609 -56.641897 
L 332.736115 -53.095166 
L 337.85362 -49.903109 
L 342.971126 -47.065724 
L 348.088631 -44.583013 
L 353.206137 -42.454975 
L 358.323642 -40.681609 
L 363.441148 -39.262917 
L 368.558653 -38.198898 
L 373.676158 -37.489552 
L 378.793664 -37.134879 
L 383.911169 -37.134879 
L 389.028675 -37.134879 
L 394.14618 -37.134879 
L 399.263686 -37.134879 
L 404.381191 -37.134879 
L 409.498697 -37.134879 
L 414.616202 -37.134879 
L 419.733707 -37.134879 
L 424.851213 -37.134879 
L 429.968718 -37.134879 
L 435.086224 -37.134879 
L 435.086224 -37.34599 
L 435.086224 -37.34599 
L 429.968718 -37.34599 
L 424.851213 -37.34599 
L 419.733707 -37.34599 
L 414.616202 -37.34599 
L 409.498697 -37.34599 
L 404.381191 -37.34599 
L 399.263686 -37.34599 
L 394.14618 -37.34599 
L 389.028675 -37.34599 
L 383.911169 -37.34599 
L 378.793664 -37.34599 
L 373.676158 -37.700663 
L 368.558653 -38.410009 
L 363.441148 -39.474028 
L 358.323642 -40.89272 
L 353.206137 -42.666086 
L 348.088631 -44.794124 
L 342.971126 -47.276835 
L 337.85362 -50.11422 
L 332.736115 -53.306277 
L 327.618609 -56.853008 
L 322.501104 -60.754412 
L 317.383599 -65.010488 
L 312.266093 -69.621238 
L 307.148588 -74.586661 
L 302.031082 -79.906757 
L 296.913577 -85.581526 
L 291.796071 -91.610968 
L 286.678566 -97.995083 
L 281.56106 -104.733871 
L 276.443555 -111.827332 
L 271.32605 -118.56612 
L 266.208544 -124.950236 
L 261.091039 -130.979678 
L 255.973533 -136.654447 
L 250.856028 -141.974542 
L 245.738522 -146.939965 
L 240.621017 -151.550715 
L 235.503511 -155.806792 
L 230.386006 -159.708195 
L 225.268501 -163.254926 
L 220.150995 -166.446984 
L 215.03349 -169.284368 
L 209.915984 -171.767079 
L 204.798479 -173.895118 
L 199.680973 -175.668483 
L 194.563468 -177.087175 
L 189.445962 -178.151195 
L 184.328457 -178.860541 
L 179.210952 -179.215214 
L 174.093446 -179.215214 
L 168.975941 -179.215214 
L 163.858435 -179.215214 
L 158.74093 -179.215214 
L 153.623424 -179.215214 
L 148.505919 -179.215214 
L 143.388413 -179.215214 
L 138.270908 -179.215214 
L 133.153402 -179.215214 
L 128.035897 -179.215214 
L 122.918392 -179.215214 
z
" style="stroke: #d3db57; stroke-opacity: 0.65"/>
    </defs>
    <g clip-path="url(#p6bb2041625)">
     <use xlink:href="#m2803760b98" x="0" y="280.512" style="fill: #d3db57; fill-opacity: 0.65; stroke: #d3db57; stroke-opacity: 0.65"/>
    </g>
   </g>
   <g id="PolyCollection_23">
    <defs>
     <path id="m707d35c666" d="M 122.918392 -179.479102 
L 122.918392 -179.215214 
L 128.035897 -179.215214 
L 133.153402 -179.215214 
L 138.270908 -179.215214 
L 143.388413 -179.215214 
L 148.505919 -179.215214 
L 153.623424 -179.215214 
L 158.74093 -179.215214 
L 163.858435 -179.215214 
L 168.975941 -179.215214 
L 174.093446 -179.215214 
L 179.210952 -179.215214 
L 184.328457 -179.174661 
L 189.445962 -179.093554 
L 194.563468 -178.971895 
L 199.680973 -178.809683 
L 204.798479 -178.606917 
L 209.915984 -178.363599 
L 215.03349 -178.079727 
L 220.150995 -177.755302 
L 225.268501 -177.390324 
L 230.386006 -176.984793 
L 235.503511 -176.538709 
L 240.621017 -176.052072 
L 245.738522 -175.524881 
L 250.856028 -174.957138 
L 255.973533 -174.348842 
L 261.091039 -173.699992 
L 266.208544 -173.010589 
L 271.32605 -172.280633 
L 276.443555 -171.510124 
L 281.56106 -170.699062 
L 286.678566 -169.928553 
L 291.796071 -169.198598 
L 296.913577 -168.509195 
L 302.031082 -167.860345 
L 307.148588 -167.252049 
L 312.266093 -166.684305 
L 317.383599 -166.157115 
L 322.501104 -165.670478 
L 327.618609 -165.224394 
L 332.736115 -164.818863 
L 337.85362 -164.453885 
L 342.971126 -164.12946 
L 348.088631 -163.845588 
L 353.206137 -163.60227 
L 358.323642 -163.399504 
L 363.441148 -163.237292 
L 368.558653 -163.115632 
L 373.676158 -163.034526 
L 378.793664 -162.993973 
L 383.911169 -162.993973 
L 389.028675 -162.993973 
L 394.14618 -162.993973 
L 399.263686 -162.993973 
L 404.381191 -162.993973 
L 409.498697 -162.993973 
L 414.616202 -162.993973 
L 419.733707 -162.993973 
L 424.851213 -162.993973 
L 429.968718 -162.993973 
L 435.086224 -162.993973 
L 435.086224 -163.257862 
L 435.086224 -163.257862 
L 429.968718 -163.257862 
L 424.851213 -163.257862 
L 419.733707 -163.257862 
L 414.616202 -163.257862 
L 409.498697 -163.257862 
L 404.381191 -163.257862 
L 399.263686 -163.257862 
L 394.14618 -163.257862 
L 389.028675 -163.257862 
L 383.911169 -163.257862 
L 378.793664 -163.257862 
L 373.676158 -163.298415 
L 368.558653 -163.379521 
L 363.441148 -163.50118 
L 358.323642 -163.663393 
L 353.206137 -163.866158 
L 348.088631 -164.109477 
L 342.971126 -164.393349 
L 337.85362 -164.717773 
L 332.736115 -165.082751 
L 327.618609 -165.488282 
L 322.501104 -165.934367 
L 317.383599 -166.421004 
L 312.266093 -166.948194 
L 307.148588 -167.515937 
L 302.031082 -168.124234 
L 296.913577 -168.773084 
L 291.796071 -169.462486 
L 286.678566 -170.192442 
L 281.56106 -170.962951 
L 276.443555 -171.774013 
L 271.32605 -172.544522 
L 266.208544 -173.274478 
L 261.091039 -173.963881 
L 255.973533 -174.61273 
L 250.856028 -175.221027 
L 245.738522 -175.78877 
L 240.621017 -176.315961 
L 235.503511 -176.802598 
L 230.386006 -177.248682 
L 225.268501 -177.654213 
L 220.150995 -178.019191 
L 215.03349 -178.343616 
L 209.915984 -178.627487 
L 204.798479 -178.870806 
L 199.680973 -179.073571 
L 194.563468 -179.235784 
L 189.445962 -179.357443 
L 184.328457 -179.438549 
L 179.210952 -179.479102 
L 174.093446 -179.479102 
L 168.975941 -179.479102 
L 163.858435 -179.479102 
L 158.74093 -179.479102 
L 153.623424 -179.479102 
L 148.505919 -179.479102 
L 143.388413 -179.479102 
L 138.270908 -179.479102 
L 133.153402 -179.479102 
L 128.035897 -179.479102 
L 122.918392 -179.479102 
z
" style="stroke: #d3db57; stroke-opacity: 0.65"/>
    </defs>
    <g clip-path="url(#p6bb2041625)">
     <use xlink:href="#m707d35c666" x="0" y="280.512" style="fill: #d3db57; fill-opacity: 0.65; stroke: #d3db57; stroke-opacity: 0.65"/>
    </g>
   </g>
   <g id="PolyCollection_24">
    <defs>
     <path id="m180b7abe30" d="M 122.918392 -213.837416 
L 122.918392 -179.479102 
L 128.035897 -179.479102 
L 133.153402 -179.479102 
L 138.270908 -179.479102 
L 143.388413 -179.479102 
L 148.505919 -179.479102 
L 153.623424 -179.479102 
L 158.74093 -179.479102 
L 163.858435 -179.479102 
L 168.975941 -179.479102 
L 174.093446 -179.479102 
L 179.210952 -179.479102 
L 184.328457 -179.478839 
L 189.445962 -179.478311 
L 194.563468 -179.477519 
L 199.680973 -179.476464 
L 204.798479 -179.475144 
L 209.915984 -179.473561 
L 215.03349 -179.471714 
L 220.150995 -179.469602 
L 225.268501 -179.467227 
L 230.386006 -179.464589 
L 235.503511 -179.461686 
L 240.621017 -179.458519 
L 245.738522 -179.455089 
L 250.856028 -179.451394 
L 255.973533 -179.447436 
L 261.091039 -179.443214 
L 266.208544 -179.438728 
L 271.32605 -179.433978 
L 276.443555 -179.428964 
L 281.56106 -179.423686 
L 286.678566 -179.418672 
L 291.796071 -179.413922 
L 296.913577 -179.409436 
L 302.031082 -179.405214 
L 307.148588 -179.401255 
L 312.266093 -179.397561 
L 317.383599 -179.39413 
L 322.501104 -179.390964 
L 327.618609 -179.388061 
L 332.736115 -179.385422 
L 337.85362 -179.383047 
L 342.971126 -179.380936 
L 348.088631 -179.379089 
L 353.206137 -179.377505 
L 358.323642 -179.376186 
L 363.441148 -179.37513 
L 368.558653 -179.374339 
L 373.676158 -179.373811 
L 378.793664 -179.373547 
L 383.911169 -179.373547 
L 389.028675 -179.373547 
L 394.14618 -179.373547 
L 399.263686 -179.373547 
L 404.381191 -179.373547 
L 409.498697 -179.373547 
L 414.616202 -179.373547 
L 419.733707 -179.373547 
L 424.851213 -179.373547 
L 429.968718 -179.373547 
L 435.086224 -179.373547 
L 435.086224 -213.731861 
L 435.086224 -213.731861 
L 429.968718 -213.731861 
L 424.851213 -213.731861 
L 419.733707 -213.731861 
L 414.616202 -213.731861 
L 409.498697 -213.731861 
L 404.381191 -213.731861 
L 399.263686 -213.731861 
L 394.14618 -213.731861 
L 389.028675 -213.731861 
L 383.911169 -213.731861 
L 378.793664 -213.731861 
L 373.676158 -213.732124 
L 368.558653 -213.732652 
L 363.441148 -213.733444 
L 358.323642 -213.734499 
L 353.206137 -213.735819 
L 348.088631 -213.737402 
L 342.971126 -213.739249 
L 337.85362 -213.741361 
L 332.736115 -213.743736 
L 327.618609 -213.746374 
L 322.501104 -213.749277 
L 317.383599 -213.752444 
L 312.266093 -213.755874 
L 307.148588 -213.759569 
L 302.031082 -213.763527 
L 296.913577 -213.767749 
L 291.796071 -213.772236 
L 286.678566 -213.776986 
L 281.56106 -213.781999 
L 276.443555 -213.787277 
L 271.32605 -213.792291 
L 266.208544 -213.797041 
L 261.091039 -213.801527 
L 255.973533 -213.805749 
L 250.856028 -213.809708 
L 245.738522 -213.813402 
L 240.621017 -213.816833 
L 235.503511 -213.819999 
L 230.386006 -213.822902 
L 225.268501 -213.825541 
L 220.150995 -213.827916 
L 215.03349 -213.830027 
L 209.915984 -213.831874 
L 204.798479 -213.833458 
L 199.680973 -213.834777 
L 194.563468 -213.835833 
L 189.445962 -213.836624 
L 184.328457 -213.837152 
L 179.210952 -213.837416 
L 174.093446 -213.837416 
L 168.975941 -213.837416 
L 163.858435 -213.837416 
L 158.74093 -213.837416 
L 153.623424 -213.837416 
L 148.505919 -213.837416 
L 143.388413 -213.837416 
L 138.270908 -213.837416 
L 133.153402 -213.837416 
L 128.035897 -213.837416 
L 122.918392 -213.837416 
z
" style="stroke: #d3db57; stroke-opacity: 0.65"/>
    </defs>
    <g clip-path="url(#p6bb2041625)">
     <use xlink:href="#m180b7abe30" x="0" y="280.512" style="fill: #d3db57; fill-opacity: 0.65; stroke: #d3db57; stroke-opacity: 0.65"/>
    </g>
   </g>
   <g id="PolyCollection_25">
    <defs>
     <path id="m37503a8a5f" d="M 122.918392 -213.890194 
L 122.918392 -213.837416 
L 128.035897 -213.837416 
L 133.153402 -213.837416 
L 138.270908 -213.837416 
L 143.388413 -213.837416 
L 148.505919 -213.837416 
L 153.623424 -213.837416 
L 158.74093 -213.837416 
L 163.858435 -213.837416 
L 168.975941 -213.837416 
L 174.093446 -213.837416 
L 179.210952 -213.837416 
L 184.328457 -213.862004 
L 189.445962 -213.91118 
L 194.563468 -213.984943 
L 199.680973 -214.083294 
L 204.798479 -214.206234 
L 209.915984 -214.353761 
L 215.03349 -214.525875 
L 220.150995 -214.722578 
L 225.268501 -214.943869 
L 230.386006 -215.189747 
L 235.503511 -215.460213 
L 240.621017 -215.755267 
L 245.738522 -216.074909 
L 250.856028 -216.419139 
L 255.973533 -216.787956 
L 261.091039 -217.181361 
L 266.208544 -217.599355 
L 271.32605 -218.041936 
L 276.443555 -218.509104 
L 281.56106 -219.000861 
L 286.678566 -219.46803 
L 291.796071 -219.910611 
L 296.913577 -220.328604 
L 302.031082 -220.722009 
L 307.148588 -221.090827 
L 312.266093 -221.435057 
L 317.383599 -221.754698 
L 322.501104 -222.049752 
L 327.618609 -222.320219 
L 332.736115 -222.566097 
L 337.85362 -222.787387 
L 342.971126 -222.98409 
L 348.088631 -223.156205 
L 353.206137 -223.303732 
L 358.323642 -223.426671 
L 363.441148 -223.525022 
L 368.558653 -223.598786 
L 373.676158 -223.647961 
L 378.793664 -223.672549 
L 383.911169 -223.672549 
L 389.028675 -223.672549 
L 394.14618 -223.672549 
L 399.263686 -223.672549 
L 404.381191 -223.672549 
L 409.498697 -223.672549 
L 414.616202 -223.672549 
L 419.733707 -223.672549 
L 424.851213 -223.672549 
L 429.968718 -223.672549 
L 435.086224 -223.672549 
L 435.086224 -223.725327 
L 435.086224 -223.725327 
L 429.968718 -223.725327 
L 424.851213 -223.725327 
L 419.733707 -223.725327 
L 414.616202 -223.725327 
L 409.498697 -223.725327 
L 404.381191 -223.725327 
L 399.263686 -223.725327 
L 394.14618 -223.725327 
L 389.028675 -223.725327 
L 383.911169 -223.725327 
L 378.793664 -223.725327 
L 373.676158 -223.700739 
L 368.558653 -223.651564 
L 363.441148 -223.5778 
L 358.323642 -223.479449 
L 353.206137 -223.35651 
L 348.088631 -223.208983 
L 342.971126 -223.036868 
L 337.85362 -222.840165 
L 332.736115 -222.618875 
L 327.618609 -222.372996 
L 322.501104 -222.10253 
L 317.383599 -221.807476 
L 312.266093 -221.487834 
L 307.148588 -221.143605 
L 302.031082 -220.774787 
L 296.913577 -220.381382 
L 291.796071 -219.963389 
L 286.678566 -219.520808 
L 281.56106 -219.053639 
L 276.443555 -218.561882 
L 271.32605 -218.094713 
L 266.208544 -217.652132 
L 261.091039 -217.234139 
L 255.973533 -216.840734 
L 250.856028 -216.471916 
L 245.738522 -216.127687 
L 240.621017 -215.808045 
L 235.503511 -215.512991 
L 230.386006 -215.242525 
L 225.268501 -214.996646 
L 220.150995 -214.775356 
L 215.03349 -214.578653 
L 209.915984 -214.406538 
L 204.798479 -214.259011 
L 199.680973 -214.136072 
L 194.563468 -214.037721 
L 189.445962 -213.963957 
L 184.328457 -213.914782 
L 179.210952 -213.890194 
L 174.093446 -213.890194 
L 168.975941 -213.890194 
L 163.858435 -213.890194 
L 158.74093 -213.890194 
L 153.623424 -213.890194 
L 148.505919 -213.890194 
L 143.388413 -213.890194 
L 138.270908 -213.890194 
L 133.153402 -213.890194 
L 128.035897 -213.890194 
L 122.918392 -213.890194 
z
" style="stroke: #d3db57; stroke-opacity: 0.65"/>
    </defs>
    <g clip-path="url(#p6bb2041625)">
     <use xlink:href="#m37503a8a5f" x="0" y="280.512" style="fill: #d3db57; fill-opacity: 0.65; stroke: #d3db57; stroke-opacity: 0.65"/>
    </g>
   </g>
   <g id="PolyCollection_26">
    <defs>
     <path id="m8ba9818f7c" d="M 122.918392 -214.312416 
L 122.918392 -213.890194 
L 128.035897 -213.890194 
L 133.153402 -213.890194 
L 138.270908 -213.890194 
L 143.388413 -213.890194 
L 148.505919 -213.890194 
L 153.623424 -213.890194 
L 158.74093 -213.890194 
L 163.858435 -213.890194 
L 168.975941 -213.890194 
L 174.093446 -213.890194 
L 179.210952 -213.890194 
L 184.328457 -213.993731 
L 189.445962 -214.200804 
L 194.563468 -214.511414 
L 199.680973 -214.925561 
L 204.798479 -215.443245 
L 209.915984 -216.064466 
L 215.03349 -216.789223 
L 220.150995 -217.617517 
L 225.268501 -218.549347 
L 230.386006 -219.584715 
L 235.503511 -220.723619 
L 240.621017 -221.96606 
L 245.738522 -223.312038 
L 250.856028 -224.761552 
L 255.973533 -226.314603 
L 261.091039 -227.971191 
L 266.208544 -229.731316 
L 271.32605 -231.594977 
L 276.443555 -233.562176 
L 281.56106 -235.632911 
L 286.678566 -237.600109 
L 291.796071 -239.46377 
L 296.913577 -241.223895 
L 302.031082 -242.880483 
L 307.148588 -244.433534 
L 312.266093 -245.883048 
L 317.383599 -247.229026 
L 322.501104 -248.471467 
L 327.618609 -249.610371 
L 332.736115 -250.645739 
L 337.85362 -251.577569 
L 342.971126 -252.405863 
L 348.088631 -253.130621 
L 353.206137 -253.751841 
L 358.323642 -254.269525 
L 363.441148 -254.683672 
L 368.558653 -254.994282 
L 373.676158 -255.201356 
L 378.793664 -255.304892 
L 383.911169 -255.304892 
L 389.028675 -255.304892 
L 394.14618 -255.304892 
L 399.263686 -255.304892 
L 404.381191 -255.304892 
L 409.498697 -255.304892 
L 414.616202 -255.304892 
L 419.733707 -255.304892 
L 424.851213 -255.304892 
L 429.968718 -255.304892 
L 435.086224 -255.304892 
L 435.086224 -255.727114 
L 435.086224 -255.727114 
L 429.968718 -255.727114 
L 424.851213 -255.727114 
L 419.733707 -255.727114 
L 414.616202 -255.727114 
L 409.498697 -255.727114 
L 404.381191 -255.727114 
L 399.263686 -255.727114 
L 394.14618 -255.727114 
L 389.028675 -255.727114 
L 383.911169 -255.727114 
L 378.793664 -255.727114 
L 373.676158 -255.623578 
L 368.558653 -255.416504 
L 363.441148 -255.105894 
L 358.323642 -254.691747 
L 353.206137 -254.174063 
L 348.088631 -253.552843 
L 342.971126 -252.828085 
L 337.85362 -251.999791 
L 332.736115 -251.067961 
L 327.618609 -250.032593 
L 322.501104 -248.893689 
L 317.383599 -247.651248 
L 312.266093 -246.30527 
L 307.148588 -244.855756 
L 302.031082 -243.302705 
L 296.913577 -241.646117 
L 291.796071 -239.885992 
L 286.678566 -238.022331 
L 281.56106 -236.055133 
L 276.443555 -233.984398 
L 271.32605 -232.017199 
L 266.208544 -230.153538 
L 261.091039 -228.393413 
L 255.973533 -226.736825 
L 250.856028 -225.183774 
L 245.738522 -223.73426 
L 240.621017 -222.388282 
L 235.503511 -221.145841 
L 230.386006 -220.006937 
L 225.268501 -218.971569 
L 220.150995 -218.039739 
L 215.03349 -217.211445 
L 209.915984 -216.486687 
L 204.798479 -215.865467 
L 199.680973 -215.347783 
L 194.563468 -214.933636 
L 189.445962 -214.623026 
L 184.328457 -214.415953 
L 179.210952 -214.312416 
L 174.093446 -214.312416 
L 168.975941 -214.312416 
L 163.858435 -214.312416 
L 158.74093 -214.312416 
L 153.623424 -214.312416 
L 148.505919 -214.312416 
L 143.388413 -214.312416 
L 138.270908 -214.312416 
L 133.153402 -214.312416 
L 128.035897 -214.312416 
L 122.918392 -214.312416 
z
" style="stroke: #d3db57; stroke-opacity: 0.65"/>
    </defs>
    <g clip-path="url(#p6bb2041625)">
     <use xlink:href="#m8ba9818f7c" x="0" y="280.512" style="fill: #d3db57; fill-opacity: 0.65; stroke: #d3db57; stroke-opacity: 0.65"/>
    </g>
   </g>
   <g id="PolyCollection_27">
    <defs>
     <path id="m498fbc25d6" d="M 122.918392 -224.200327 
L 122.918392 -223.989216 
L 128.035897 -223.989216 
L 133.153402 -223.989216 
L 138.270908 -223.989216 
L 143.388413 -223.989216 
L 148.505919 -223.989216 
L 153.623424 -223.989216 
L 158.74093 -223.989216 
L 163.858435 -223.989216 
L 168.975941 -223.989216 
L 174.093446 -223.989216 
L 179.210952 -223.989216 
L 184.328457 -223.963572 
L 189.445962 -223.912286 
L 194.563468 -223.835355 
L 199.680973 -223.732782 
L 204.798479 -223.604565 
L 209.915984 -223.450705 
L 215.03349 -223.271201 
L 220.150995 -223.066054 
L 225.268501 -222.835263 
L 230.386006 -222.578829 
L 235.503511 -222.296752 
L 240.621017 -221.989032 
L 245.738522 -221.655668 
L 250.856028 -221.29666 
L 255.973533 -220.912009 
L 261.091039 -220.501715 
L 266.208544 -220.065777 
L 271.32605 -219.604196 
L 276.443555 -219.116972 
L 281.56106 -218.604104 
L 286.678566 -218.11688 
L 291.796071 -217.655299 
L 296.913577 -217.219361 
L 302.031082 -216.809067 
L 307.148588 -216.424416 
L 312.266093 -216.065409 
L 317.383599 -215.732045 
L 322.501104 -215.424324 
L 327.618609 -215.142247 
L 332.736115 -214.885813 
L 337.85362 -214.655023 
L 342.971126 -214.449875 
L 348.088631 -214.270372 
L 353.206137 -214.116511 
L 358.323642 -213.988294 
L 363.441148 -213.885721 
L 368.558653 -213.808791 
L 373.676158 -213.757504 
L 378.793664 -213.731861 
L 383.911169 -213.731861 
L 389.028675 -213.731861 
L 394.14618 -213.731861 
L 399.263686 -213.731861 
L 404.381191 -213.731861 
L 409.498697 -213.731861 
L 414.616202 -213.731861 
L 419.733707 -213.731861 
L 424.851213 -213.731861 
L 429.968718 -213.731861 
L 435.086224 -213.731861 
L 435.086224 -213.942972 
L 435.086224 -213.942972 
L 429.968718 -213.942972 
L 424.851213 -213.942972 
L 419.733707 -213.942972 
L 414.616202 -213.942972 
L 409.498697 -213.942972 
L 404.381191 -213.942972 
L 399.263686 -213.942972 
L 394.14618 -213.942972 
L 389.028675 -213.942972 
L 383.911169 -213.942972 
L 378.793664 -213.942972 
L 373.676158 -213.968615 
L 368.558653 -214.019902 
L 363.441148 -214.096832 
L 358.323642 -214.199405 
L 353.206137 -214.327622 
L 348.088631 -214.481483 
L 342.971126 -214.660986 
L 337.85362 -214.866134 
L 332.736115 -215.096924 
L 327.618609 -215.353358 
L 322.501104 -215.635435 
L 317.383599 -215.943156 
L 312.266093 -216.27652 
L 307.148588 -216.635527 
L 302.031082 -217.020178 
L 296.913577 -217.430472 
L 291.796071 -217.86641 
L 286.678566 -218.327991 
L 281.56106 -218.815215 
L 276.443555 -219.328083 
L 271.32605 -219.815307 
L 266.208544 -220.276888 
L 261.091039 -220.712826 
L 255.973533 -221.12312 
L 250.856028 -221.507771 
L 245.738522 -221.866778 
L 240.621017 -222.200143 
L 235.503511 -222.507863 
L 230.386006 -222.78994 
L 225.268501 -223.046374 
L 220.150995 -223.277165 
L 215.03349 -223.482312 
L 209.915984 -223.661816 
L 204.798479 -223.815676 
L 199.680973 -223.943893 
L 194.563468 -224.046466 
L 189.445962 -224.123397 
L 184.328457 -224.174683 
L 179.210952 -224.200327 
L 174.093446 -224.200327 
L 168.975941 -224.200327 
L 163.858435 -224.200327 
L 158.74093 -224.200327 
L 153.623424 -224.200327 
L 148.505919 -224.200327 
L 143.388413 -224.200327 
L 138.270908 -224.200327 
L 133.153402 -224.200327 
L 128.035897 -224.200327 
L 122.918392 -224.200327 
z
" style="stroke: #57db5f; stroke-opacity: 0.65"/>
    </defs>
    <g clip-path="url(#p6bb2041625)">
     <use xlink:href="#m498fbc25d6" x="0" y="280.512" style="fill: #57db5f; fill-opacity: 0.65; stroke: #57db5f; stroke-opacity: 0.65"/>
    </g>
   </g>
   <g id="PolyCollection_28">
    <defs>
     <path id="mba69351ea2" d="M 122.918392 -246.050314 
L 122.918392 -224.200327 
L 128.035897 -224.200327 
L 133.153402 -224.200327 
L 138.270908 -224.200327 
L 143.388413 -224.200327 
L 148.505919 -224.200327 
L 153.623424 -224.200327 
L 158.74093 -224.200327 
L 163.858435 -224.200327 
L 168.975941 -224.200327 
L 174.093446 -224.200327 
L 179.210952 -224.200327 
L 184.328457 -224.199139 
L 189.445962 -224.196764 
L 194.563468 -224.193202 
L 199.680973 -224.188452 
L 204.798479 -224.182514 
L 209.915984 -224.175389 
L 215.03349 -224.167077 
L 220.150995 -224.157577 
L 225.268501 -224.146889 
L 230.386006 -224.135014 
L 235.503511 -224.121952 
L 240.621017 -224.107702 
L 245.738522 -224.092264 
L 250.856028 -224.075639 
L 255.973533 -224.057827 
L 261.091039 -224.038827 
L 266.208544 -224.018639 
L 271.32605 -223.997264 
L 276.443555 -223.974702 
L 281.56106 -223.950952 
L 286.678566 -223.928389 
L 291.796071 -223.907014 
L 296.913577 -223.886827 
L 302.031082 -223.867827 
L 307.148588 -223.850015 
L 312.266093 -223.83339 
L 317.383599 -223.817952 
L 322.501104 -223.803702 
L 327.618609 -223.79064 
L 332.736115 -223.778765 
L 337.85362 -223.768077 
L 342.971126 -223.758577 
L 348.088631 -223.750265 
L 353.206137 -223.74314 
L 358.323642 -223.737202 
L 363.441148 -223.732452 
L 368.558653 -223.72889 
L 373.676158 -223.726515 
L 378.793664 -223.725327 
L 383.911169 -223.725327 
L 389.028675 -223.725327 
L 394.14618 -223.725327 
L 399.263686 -223.725327 
L 404.381191 -223.725327 
L 409.498697 -223.725327 
L 414.616202 -223.725327 
L 419.733707 -223.725327 
L 424.851213 -223.725327 
L 429.968718 -223.725327 
L 435.086224 -223.725327 
L 435.086224 -245.575315 
L 435.086224 -245.575315 
L 429.968718 -245.575315 
L 424.851213 -245.575315 
L 419.733707 -245.575315 
L 414.616202 -245.575315 
L 409.498697 -245.575315 
L 404.381191 -245.575315 
L 399.263686 -245.575315 
L 394.14618 -245.575315 
L 389.028675 -245.575315 
L 383.911169 -245.575315 
L 378.793664 -245.575315 
L 373.676158 -245.576502 
L 368.558653 -245.578877 
L 363.441148 -245.58244 
L 358.323642 -245.58719 
L 353.206137 -245.593127 
L 348.088631 -245.600252 
L 342.971126 -245.608565 
L 337.85362 -245.618065 
L 332.736115 -245.628752 
L 327.618609 -245.640627 
L 322.501104 -245.653689 
L 317.383599 -245.667939 
L 312.266093 -245.683377 
L 307.148588 -245.700002 
L 302.031082 -245.717814 
L 296.913577 -245.736814 
L 291.796071 -245.757002 
L 286.678566 -245.778377 
L 281.56106 -245.800939 
L 276.443555 -245.824689 
L 271.32605 -245.847252 
L 266.208544 -245.868627 
L 261.091039 -245.888814 
L 255.973533 -245.907814 
L 250.856028 -245.925627 
L 245.738522 -245.942252 
L 240.621017 -245.957689 
L 235.503511 -245.971939 
L 230.386006 -245.985002 
L 225.268501 -245.996877 
L 220.150995 -246.007564 
L 215.03349 -246.017064 
L 209.915984 -246.025377 
L 204.798479 -246.032502 
L 199.680973 -246.038439 
L 194.563468 -246.043189 
L 189.445962 -246.046752 
L 184.328457 -246.049127 
L 179.210952 -246.050314 
L 174.093446 -246.050314 
L 168.975941 -246.050314 
L 163.858435 -246.050314 
L 158.74093 -246.050314 
L 153.623424 -246.050314 
L 148.505919 -246.050314 
L 143.388413 -246.050314 
L 138.270908 -246.050314 
L 133.153402 -246.050314 
L 128.035897 -246.050314 
L 122.918392 -246.050314 
z
" style="stroke: #57db5f; stroke-opacity: 0.65"/>
    </defs>
    <g clip-path="url(#p6bb2041625)">
     <use xlink:href="#mba69351ea2" x="0" y="280.512" style="fill: #57db5f; fill-opacity: 0.65; stroke: #57db5f; stroke-opacity: 0.65"/>
    </g>
   </g>
   <g id="PolyCollection_29">
    <defs>
     <path id="m2d82753332" d="M 122.918392 -246.15587 
L 122.918392 -246.050314 
L 128.035897 -246.050314 
L 133.153402 -246.050314 
L 138.270908 -246.050314 
L 143.388413 -246.050314 
L 148.505919 -246.050314 
L 153.623424 -246.050314 
L 158.74093 -246.050314 
L 163.858435 -246.050314 
L 168.975941 -246.050314 
L 174.093446 -246.050314 
L 179.210952 -246.050314 
L 184.328457 -246.074506 
L 189.445962 -246.12289 
L 194.563468 -246.195466 
L 199.680973 -246.292234 
L 204.798479 -246.413194 
L 209.915984 -246.558346 
L 215.03349 -246.72769 
L 220.150995 -246.921226 
L 225.268501 -247.138954 
L 230.386006 -247.380874 
L 235.503511 -247.646986 
L 240.621017 -247.93729 
L 245.738522 -248.251786 
L 250.856028 -248.590474 
L 255.973533 -248.953354 
L 261.091039 -249.340426 
L 266.208544 -249.75169 
L 271.32605 -250.187146 
L 276.443555 -250.646794 
L 281.56106 -251.130634 
L 286.678566 -251.590282 
L 291.796071 -252.025738 
L 296.913577 -252.437002 
L 302.031082 -252.824074 
L 307.148588 -253.186954 
L 312.266093 -253.525642 
L 317.383599 -253.840138 
L 322.501104 -254.130442 
L 327.618609 -254.396554 
L 332.736115 -254.638474 
L 337.85362 -254.856202 
L 342.971126 -255.049738 
L 348.088631 -255.219082 
L 353.206137 -255.364234 
L 358.323642 -255.485194 
L 363.441148 -255.581962 
L 368.558653 -255.654538 
L 373.676158 -255.702922 
L 378.793664 -255.727114 
L 383.911169 -255.727114 
L 389.028675 -255.727114 
L 394.14618 -255.727114 
L 399.263686 -255.727114 
L 404.381191 -255.727114 
L 409.498697 -255.727114 
L 414.616202 -255.727114 
L 419.733707 -255.727114 
L 424.851213 -255.727114 
L 429.968718 -255.727114 
L 435.086224 -255.727114 
L 435.086224 -255.83267 
L 435.086224 -255.83267 
L 429.968718 -255.83267 
L 424.851213 -255.83267 
L 419.733707 -255.83267 
L 414.616202 -255.83267 
L 409.498697 -255.83267 
L 404.381191 -255.83267 
L 399.263686 -255.83267 
L 394.14618 -255.83267 
L 389.028675 -255.83267 
L 383.911169 -255.83267 
L 378.793664 -255.83267 
L 373.676158 -255.808478 
L 368.558653 -255.760094 
L 363.441148 -255.687518 
L 358.323642 -255.59075 
L 353.206137 -255.46979 
L 348.088631 -255.324638 
L 342.971126 -255.155294 
L 337.85362 -254.961758 
L 332.736115 -254.74403 
L 327.618609 -254.50211 
L 322.501104 -254.235998 
L 317.383599 -253.945694 
L 312.266093 -253.631198 
L 307.148588 -253.29251 
L 302.031082 -252.92963 
L 296.913577 -252.542558 
L 291.796071 -252.131294 
L 286.678566 -251.695838 
L 281.56106 -251.23619 
L 276.443555 -250.75235 
L 271.32605 -250.292702 
L 266.208544 -249.857246 
L 261.091039 -249.445982 
L 255.973533 -249.05891 
L 250.856028 -248.69603 
L 245.738522 -248.357342 
L 240.621017 -248.042846 
L 235.503511 -247.752542 
L 230.386006 -247.48643 
L 225.268501 -247.24451 
L 220.150995 -247.026782 
L 215.03349 -246.833246 
L 209.915984 -246.663902 
L 204.798479 -246.51875 
L 199.680973 -246.39779 
L 194.563468 -246.301022 
L 189.445962 -246.228446 
L 184.328457 -246.180062 
L 179.210952 -246.15587 
L 174.093446 -246.15587 
L 168.975941 -246.15587 
L 163.858435 -246.15587 
L 158.74093 -246.15587 
L 153.623424 -246.15587 
L 148.505919 -246.15587 
L 143.388413 -246.15587 
L 138.270908 -246.15587 
L 133.153402 -246.15587 
L 128.035897 -246.15587 
L 122.918392 -246.15587 
z
" style="stroke: #57db5f; stroke-opacity: 0.65"/>
    </defs>
    <g clip-path="url(#p6bb2041625)">
     <use xlink:href="#m2d82753332" x="0" y="280.512" style="fill: #57db5f; fill-opacity: 0.65; stroke: #57db5f; stroke-opacity: 0.65"/>
    </g>
   </g>
   <g id="PolyCollection_30">
    <defs>
     <path id="m0eb1acc61d" d="M 122.918392 -261.216 
L 122.918392 -255.83267 
L 128.035897 -255.83267 
L 133.153402 -255.83267 
L 138.270908 -255.83267 
L 143.388413 -255.83267 
L 148.505919 -255.83267 
L 153.623424 -255.83267 
L 158.74093 -255.83267 
L 163.858435 -255.83267 
L 168.975941 -255.83267 
L 174.093446 -255.83267 
L 179.210952 -255.83267 
L 184.328457 -255.83267 
L 189.445962 -255.83267 
L 194.563468 -255.83267 
L 199.680973 -255.83267 
L 204.798479 -255.83267 
L 209.915984 -255.83267 
L 215.03349 -255.83267 
L 220.150995 -255.83267 
L 225.268501 -255.83267 
L 230.386006 -255.83267 
L 235.503511 -255.83267 
L 240.621017 -255.83267 
L 245.738522 -255.83267 
L 250.856028 -255.83267 
L 255.973533 -255.83267 
L 261.091039 -255.83267 
L 266.208544 -255.83267 
L 271.32605 -255.83267 
L 276.443555 -255.83267 
L 281.56106 -255.83267 
L 286.678566 -255.83267 
L 291.796071 -255.83267 
L 296.913577 -255.83267 
L 302.031082 -255.83267 
L 307.148588 -255.83267 
L 312.266093 -255.83267 
L 317.383599 -255.83267 
L 322.501104 -255.83267 
L 327.618609 -255.83267 
L 332.736115 -255.83267 
L 337.85362 -255.83267 
L 342.971126 -255.83267 
L 348.088631 -255.83267 
L 353.206137 -255.83267 
L 358.323642 -255.83267 
L 363.441148 -255.83267 
L 368.558653 -255.83267 
L 373.676158 -255.83267 
L 378.793664 -255.83267 
L 383.911169 -255.83267 
L 389.028675 -255.83267 
L 394.14618 -255.83267 
L 399.263686 -255.83267 
L 404.381191 -255.83267 
L 409.498697 -255.83267 
L 414.616202 -255.83267 
L 419.733707 -255.83267 
L 424.851213 -255.83267 
L 429.968718 -255.83267 
L 435.086224 -255.83267 
L 435.086224 -261.216 
L 435.086224 -261.216 
L 429.968718 -261.216 
L 424.851213 -261.216 
L 419.733707 -261.216 
L 414.616202 -261.216 
L 409.498697 -261.216 
L 404.381191 -261.216 
L 399.263686 -261.216 
L 394.14618 -261.216 
L 389.028675 -261.216 
L 383.911169 -261.216 
L 378.793664 -261.216 
L 373.676158 -261.216 
L 368.558653 -261.216 
L 363.441148 -261.216 
L 358.323642 -261.216 
L 353.206137 -261.216 
L 348.088631 -261.216 
L 342.971126 -261.216 
L 337.85362 -261.216 
L 332.736115 -261.216 
L 327.618609 -261.216 
L 322.501104 -261.216 
L 317.383599 -261.216 
L 312.266093 -261.216 
L 307.148588 -261.216 
L 302.031082 -261.216 
L 296.913577 -261.216 
L 291.796071 -261.216 
L 286.678566 -261.216 
L 281.56106 -261.216 
L 276.443555 -261.216 
L 271.32605 -261.216 
L 266.208544 -261.216 
L 261.091039 -261.216 
L 255.973533 -261.216 
L 250.856028 -261.216 
L 245.738522 -261.216 
L 240.621017 -261.216 
L 235.503511 -261.216 
L 230.386006 -261.216 
L 225.268501 -261.216 
L 220.150995 -261.216 
L 215.03349 -261.216 
L 209.915984 -261.216 
L 204.798479 -261.216 
L 199.680973 -261.216 
L 194.563468 -261.216 
L 189.445962 -261.216 
L 184.328457 -261.216 
L 179.210952 -261.216 
L 174.093446 -261.216 
L 168.975941 -261.216 
L 163.858435 -261.216 
L 158.74093 -261.216 
L 153.623424 -261.216 
L 148.505919 -261.216 
L 143.388413 -261.216 
L 138.270908 -261.216 
L 133.153402 -261.216 
L 128.035897 -261.216 
L 122.918392 -261.216 
z
" style="stroke: #57d3db; stroke-opacity: 0.65"/>
    </defs>
    <g clip-path="url(#p6bb2041625)">
     <use xlink:href="#m0eb1acc61d" x="0" y="280.512" style="fill: #57d3db; fill-opacity: 0.65; stroke: #57d3db; stroke-opacity: 0.65"/>
    </g>
   </g>
   <g id="text_1">
    <!-- Astrocytes -->
    <g transform="translate(53.540625 254.555172) scale(0.12 -0.12)">
     <defs>
      <path id="TimesNewRomanPS-BoldMT-41" d="M 2663 1206 
L 1166 1206 
L 988 794 
Q 900 588 900 453 
Q 900 275 1044 191 
Q 1128 141 1459 116 
L 1459 0 
L 50 0 
L 50 116 
Q 278 150 425 304 
Q 572 459 788 944 
L 2303 4325 
L 2363 4325 
L 3891 850 
Q 4109 356 4250 228 
Q 4356 131 4550 116 
L 4550 0 
L 2500 0 
L 2500 116 
L 2584 116 
Q 2831 116 2931 184 
Q 3000 234 3000 328 
Q 3000 384 2981 444 
Q 2975 472 2888 678 
L 2663 1206 
z
M 2556 1438 
L 1925 2897 
L 1275 1438 
L 2556 1438 
z
" transform="scale(0.015625)"/>
      <path id="TimesNewRomanPS-BoldMT-73" d="M 2063 3003 
L 2109 2006 
L 2003 2006 
Q 1813 2450 1608 2612 
Q 1403 2775 1200 2775 
Q 1072 2775 981 2689 
Q 891 2603 891 2491 
Q 891 2406 953 2328 
Q 1053 2200 1512 1889 
Q 1972 1578 2117 1361 
Q 2263 1144 2263 875 
Q 2263 631 2141 397 
Q 2019 163 1797 37 
Q 1575 -88 1306 -88 
Q 1097 -88 747 44 
Q 653 78 619 78 
Q 516 78 447 -78 
L 344 -78 
L 294 972 
L 400 972 
Q 541 559 786 353 
Q 1031 147 1250 147 
Q 1400 147 1495 239 
Q 1591 331 1591 463 
Q 1591 613 1497 722 
Q 1403 831 1078 1053 
Q 600 1384 459 1559 
Q 253 1816 253 2125 
Q 253 2463 486 2736 
Q 719 3009 1159 3009 
Q 1397 3009 1619 2894 
Q 1703 2847 1756 2847 
Q 1813 2847 1847 2870 
Q 1881 2894 1956 3003 
L 2063 3003 
z
" transform="scale(0.015625)"/>
      <path id="TimesNewRomanPS-BoldMT-74" d="M 1375 3991 
L 1375 2922 
L 2069 2922 
L 2069 2613 
L 1375 2613 
L 1375 809 
Q 1375 556 1398 482 
Q 1422 409 1481 364 
Q 1541 319 1591 319 
Q 1794 319 1975 628 
L 2069 559 
Q 1816 -41 1247 -41 
Q 969 -41 776 114 
Q 584 269 531 459 
Q 500 566 500 1034 
L 500 2613 
L 119 2613 
L 119 2722 
Q 513 3000 789 3306 
Q 1066 3613 1272 3991 
L 1375 3991 
z
" transform="scale(0.015625)"/>
      <path id="TimesNewRomanPS-BoldMT-72" d="M 1428 2922 
L 1428 2259 
Q 1719 2713 1937 2861 
Q 2156 3009 2359 3009 
Q 2534 3009 2639 2901 
Q 2744 2794 2744 2597 
Q 2744 2388 2642 2272 
Q 2541 2156 2397 2156 
Q 2231 2156 2109 2262 
Q 1988 2369 1966 2381 
Q 1934 2400 1894 2400 
Q 1803 2400 1722 2331 
Q 1594 2225 1528 2028 
Q 1428 1725 1428 1359 
L 1428 688 
L 1431 513 
Q 1431 334 1453 284 
Q 1491 200 1564 161 
Q 1638 122 1813 113 
L 1813 0 
L 234 0 
L 234 113 
Q 425 128 492 217 
Q 559 306 559 688 
L 559 2303 
Q 559 2553 534 2622 
Q 503 2709 443 2750 
Q 384 2791 234 2806 
L 234 2922 
L 1428 2922 
z
" transform="scale(0.015625)"/>
      <path id="TimesNewRomanPS-BoldMT-6f" d="M 1594 3009 
Q 1975 3009 2303 2812 
Q 2631 2616 2801 2253 
Q 2972 1891 2972 1459 
Q 2972 838 2656 419 
Q 2275 -88 1603 -88 
Q 944 -88 587 375 
Q 231 838 231 1447 
Q 231 2075 595 2542 
Q 959 3009 1594 3009 
z
M 1606 2788 
Q 1447 2788 1333 2667 
Q 1219 2547 1183 2192 
Q 1147 1838 1147 1206 
Q 1147 872 1191 581 
Q 1225 359 1337 243 
Q 1450 128 1594 128 
Q 1734 128 1828 206 
Q 1950 313 1991 503 
Q 2053 800 2053 1703 
Q 2053 2234 1993 2432 
Q 1934 2631 1819 2722 
Q 1738 2788 1606 2788 
z
" transform="scale(0.015625)"/>
      <path id="TimesNewRomanPS-BoldMT-63" d="M 2600 753 
L 2697 678 
Q 2491 291 2183 101 
Q 1875 -88 1528 -88 
Q 944 -88 594 353 
Q 244 794 244 1413 
Q 244 2009 563 2463 
Q 947 3009 1622 3009 
Q 2075 3009 2342 2781 
Q 2609 2553 2609 2272 
Q 2609 2094 2501 1987 
Q 2394 1881 2219 1881 
Q 2034 1881 1914 2003 
Q 1794 2125 1766 2438 
Q 1747 2634 1675 2713 
Q 1603 2791 1506 2791 
Q 1356 2791 1250 2631 
Q 1088 2391 1088 1894 
Q 1088 1481 1219 1104 
Q 1350 728 1578 544 
Q 1750 409 1984 409 
Q 2138 409 2275 481 
Q 2413 553 2600 753 
z
" transform="scale(0.015625)"/>
      <path id="TimesNewRomanPS-BoldMT-79" d="M 1556 -119 
L 613 2047 
Q 400 2538 298 2650 
Q 197 2763 53 2806 
L 53 2922 
L 1606 2922 
L 1606 2806 
Q 1453 2800 1390 2747 
Q 1328 2694 1328 2619 
Q 1328 2500 1484 2150 
L 1984 1006 
L 2325 1891 
Q 2509 2363 2509 2547 
Q 2509 2663 2432 2731 
Q 2356 2800 2163 2806 
L 2163 2922 
L 3141 2922 
L 3141 2806 
Q 2997 2791 2906 2695 
Q 2816 2600 2603 2047 
L 1769 -119 
Q 1453 -931 1300 -1119 
Q 1084 -1381 759 -1381 
Q 500 -1381 339 -1232 
Q 178 -1084 178 -875 
Q 178 -694 289 -575 
Q 400 -456 563 -456 
Q 719 -456 814 -556 
Q 909 -656 913 -866 
Q 916 -984 941 -1019 
Q 966 -1053 1013 -1053 
Q 1088 -1053 1172 -963 
Q 1297 -831 1466 -363 
L 1556 -119 
z
" transform="scale(0.015625)"/>
      <path id="TimesNewRomanPS-BoldMT-65" d="M 2691 1566 
L 1088 1566 
Q 1116 984 1397 647 
Q 1613 388 1916 388 
Q 2103 388 2256 492 
Q 2409 597 2584 869 
L 2691 800 
Q 2453 316 2165 114 
Q 1878 -88 1500 -88 
Q 850 -88 516 413 
Q 247 816 247 1413 
Q 247 2144 642 2576 
Q 1038 3009 1569 3009 
Q 2013 3009 2339 2645 
Q 2666 2281 2691 1566 
z
M 1922 1775 
Q 1922 2278 1867 2465 
Q 1813 2653 1697 2750 
Q 1631 2806 1522 2806 
Q 1359 2806 1256 2647 
Q 1072 2369 1072 1884 
L 1072 1775 
L 1922 1775 
z
" transform="scale(0.015625)"/>
     </defs>
     <use xlink:href="#TimesNewRomanPS-BoldMT-41"/>
     <use xlink:href="#TimesNewRomanPS-BoldMT-73" x="72.216797"/>
     <use xlink:href="#TimesNewRomanPS-BoldMT-74" x="111.132812"/>
     <use xlink:href="#TimesNewRomanPS-BoldMT-72" x="144.433594"/>
     <use xlink:href="#TimesNewRomanPS-BoldMT-6f" x="187.068359"/>
     <use xlink:href="#TimesNewRomanPS-BoldMT-63" x="237.068359"/>
     <use xlink:href="#TimesNewRomanPS-BoldMT-79" x="281.453125"/>
     <use xlink:href="#TimesNewRomanPS-BoldMT-74" x="331.453125"/>
     <use xlink:href="#TimesNewRomanPS-BoldMT-65" x="364.753906"/>
     <use xlink:href="#TimesNewRomanPS-BoldMT-73" x="409.138672"/>
    </g>
   </g>
   <g id="text_2">
    <!-- Endothelial Cells -->
    <g transform="translate(19.63125 233.249733) scale(0.12 -0.12)">
     <defs>
      <path id="TimesNewRomanPS-BoldMT-45" d="M 1744 3994 
L 1744 2269 
L 1828 2269 
Q 2231 2269 2412 2522 
Q 2594 2775 2644 3269 
L 2763 3269 
L 2763 1050 
L 2644 1050 
Q 2606 1413 2486 1644 
Q 2366 1875 2206 1954 
Q 2047 2034 1744 2034 
L 1744 841 
Q 1744 491 1773 412 
Q 1803 334 1884 284 
Q 1966 234 2147 234 
L 2400 234 
Q 2994 234 3351 509 
Q 3709 784 3866 1347 
L 3981 1347 
L 3791 0 
L 128 0 
L 128 116 
L 269 116 
Q 453 116 566 181 
Q 647 225 691 331 
Q 725 406 725 725 
L 725 3513 
Q 725 3800 709 3866 
Q 678 3975 594 4034 
Q 475 4122 269 4122 
L 128 4122 
L 128 4238 
L 3675 4238 
L 3675 2984 
L 3556 2984 
Q 3466 3444 3302 3644 
Q 3138 3844 2838 3938 
Q 2663 3994 2181 3994 
L 1744 3994 
z
" transform="scale(0.015625)"/>
      <path id="TimesNewRomanPS-BoldMT-6e" d="M 1409 2922 
L 1409 2544 
Q 1634 2788 1840 2898 
Q 2047 3009 2284 3009 
Q 2569 3009 2756 2851 
Q 2944 2694 3006 2459 
Q 3056 2281 3056 1775 
L 3056 638 
Q 3056 300 3117 217 
Q 3178 134 3372 113 
L 3372 0 
L 1894 0 
L 1894 113 
Q 2059 134 2131 250 
Q 2181 328 2181 638 
L 2181 1938 
Q 2181 2297 2153 2390 
Q 2125 2484 2058 2536 
Q 1991 2588 1909 2588 
Q 1641 2588 1409 2203 
L 1409 638 
Q 1409 309 1470 221 
Q 1531 134 1697 113 
L 1697 0 
L 219 0 
L 219 113 
Q 403 131 481 231 
Q 534 300 534 638 
L 534 2288 
Q 534 2619 473 2700 
Q 413 2781 219 2806 
L 219 2922 
L 1409 2922 
z
" transform="scale(0.015625)"/>
      <path id="TimesNewRomanPS-BoldMT-64" d="M 3056 4238 
L 3056 875 
Q 3056 534 3075 472 
Q 3100 369 3170 319 
Q 3241 269 3416 256 
L 3416 153 
L 2181 -88 
L 2181 375 
Q 1959 106 1786 9 
Q 1613 -88 1394 -88 
Q 834 -88 509 413 
Q 247 819 247 1409 
Q 247 1881 409 2254 
Q 572 2628 855 2818 
Q 1138 3009 1463 3009 
Q 1672 3009 1834 2928 
Q 1997 2847 2181 2644 
L 2181 3525 
Q 2181 3859 2153 3928 
Q 2116 4019 2041 4062 
Q 1966 4106 1759 4106 
L 1759 4238 
L 3056 4238 
z
M 2181 2256 
Q 1950 2700 1616 2700 
Q 1500 2700 1425 2638 
Q 1309 2541 1236 2297 
Q 1163 2053 1163 1550 
Q 1163 997 1244 731 
Q 1325 466 1466 347 
Q 1538 288 1663 288 
Q 1938 288 2181 719 
L 2181 2256 
z
" transform="scale(0.015625)"/>
      <path id="TimesNewRomanPS-BoldMT-68" d="M 1409 4238 
L 1409 2547 
Q 1650 2800 1850 2904 
Q 2050 3009 2266 3009 
Q 2541 3009 2736 2853 
Q 2931 2697 2995 2486 
Q 3059 2275 3059 1775 
L 3059 634 
Q 3059 300 3121 217 
Q 3184 134 3375 113 
L 3375 0 
L 1894 0 
L 1894 113 
Q 2050 134 2128 238 
Q 2184 319 2184 634 
L 2184 1938 
Q 2184 2300 2156 2392 
Q 2128 2484 2061 2536 
Q 1994 2588 1909 2588 
Q 1784 2588 1665 2502 
Q 1547 2416 1409 2200 
L 1409 634 
Q 1409 322 1456 244 
Q 1516 138 1700 113 
L 1700 0 
L 219 0 
L 219 113 
Q 403 131 481 231 
Q 534 300 534 634 
L 534 3603 
Q 534 3934 473 4015 
Q 413 4097 219 4122 
L 219 4238 
L 1409 4238 
z
" transform="scale(0.015625)"/>
      <path id="TimesNewRomanPS-BoldMT-6c" d="M 1359 4238 
L 1359 606 
Q 1359 297 1431 211 
Q 1503 125 1713 113 
L 1713 0 
L 134 0 
L 134 113 
Q 328 119 422 225 
Q 484 297 484 606 
L 484 3631 
Q 484 3938 412 4023 
Q 341 4109 134 4122 
L 134 4238 
L 1359 4238 
z
" transform="scale(0.015625)"/>
      <path id="TimesNewRomanPS-BoldMT-69" d="M 919 4338 
Q 1122 4338 1262 4195 
Q 1403 4053 1403 3853 
Q 1403 3653 1261 3512 
Q 1119 3372 919 3372 
Q 719 3372 578 3512 
Q 438 3653 438 3853 
Q 438 4053 578 4195 
Q 719 4338 919 4338 
z
M 1356 2922 
L 1356 606 
Q 1356 297 1428 211 
Q 1500 125 1709 113 
L 1709 0 
L 131 0 
L 131 113 
Q 325 119 419 225 
Q 481 297 481 606 
L 481 2313 
Q 481 2622 409 2708 
Q 338 2794 131 2806 
L 131 2922 
L 1356 2922 
z
" transform="scale(0.015625)"/>
      <path id="TimesNewRomanPS-BoldMT-61" d="M 1828 431 
Q 1294 -41 869 -41 
Q 619 -41 453 123 
Q 288 288 288 534 
Q 288 869 575 1136 
Q 863 1403 1828 1847 
L 1828 2141 
Q 1828 2472 1792 2558 
Q 1756 2644 1656 2708 
Q 1556 2772 1431 2772 
Q 1228 2772 1097 2681 
Q 1016 2625 1016 2550 
Q 1016 2484 1103 2388 
Q 1222 2253 1222 2128 
Q 1222 1975 1108 1867 
Q 994 1759 809 1759 
Q 613 1759 480 1878 
Q 347 1997 347 2156 
Q 347 2381 525 2586 
Q 703 2791 1022 2900 
Q 1341 3009 1684 3009 
Q 2100 3009 2342 2832 
Q 2584 2656 2656 2450 
Q 2700 2319 2700 1847 
L 2700 713 
Q 2700 513 2715 461 
Q 2731 409 2762 384 
Q 2794 359 2834 359 
Q 2916 359 3000 475 
L 3094 400 
Q 2938 169 2770 64 
Q 2603 -41 2391 -41 
Q 2141 -41 2000 76 
Q 1859 194 1828 431 
z
M 1828 659 
L 1828 1638 
Q 1450 1416 1266 1163 
Q 1144 994 1144 822 
Q 1144 678 1247 569 
Q 1325 484 1466 484 
Q 1622 484 1828 659 
z
" transform="scale(0.015625)"/>
      <path id="TimesNewRomanPS-BoldMT-20" transform="scale(0.015625)"/>
      <path id="TimesNewRomanPS-BoldMT-43" d="M 4272 4334 
L 4272 2866 
L 4150 2866 
Q 4013 3441 3638 3747 
Q 3263 4053 2788 4053 
Q 2391 4053 2059 3825 
Q 1728 3597 1575 3228 
Q 1378 2756 1378 2178 
Q 1378 1609 1522 1142 
Q 1666 675 1972 436 
Q 2278 197 2766 197 
Q 3166 197 3498 372 
Q 3831 547 4200 975 
L 4200 609 
Q 3844 238 3458 70 
Q 3072 -97 2556 -97 
Q 1878 -97 1351 175 
Q 825 447 539 956 
Q 253 1466 253 2041 
Q 253 2647 570 3190 
Q 888 3734 1427 4034 
Q 1966 4334 2572 4334 
Q 3019 4334 3516 4141 
Q 3803 4028 3881 4028 
Q 3981 4028 4054 4101 
Q 4128 4175 4150 4334 
L 4272 4334 
z
" transform="scale(0.015625)"/>
     </defs>
     <use xlink:href="#TimesNewRomanPS-BoldMT-45"/>
     <use xlink:href="#TimesNewRomanPS-BoldMT-6e" x="66.699219"/>
     <use xlink:href="#TimesNewRomanPS-BoldMT-64" x="122.314453"/>
     <use xlink:href="#TimesNewRomanPS-BoldMT-6f" x="177.929688"/>
     <use xlink:href="#TimesNewRomanPS-BoldMT-74" x="227.929688"/>
     <use xlink:href="#TimesNewRomanPS-BoldMT-68" x="261.230469"/>
     <use xlink:href="#TimesNewRomanPS-BoldMT-65" x="316.845703"/>
     <use xlink:href="#TimesNewRomanPS-BoldMT-6c" x="361.230469"/>
     <use xlink:href="#TimesNewRomanPS-BoldMT-69" x="389.013672"/>
     <use xlink:href="#TimesNewRomanPS-BoldMT-61" x="416.796875"/>
     <use xlink:href="#TimesNewRomanPS-BoldMT-6c" x="466.796875"/>
     <use xlink:href="#TimesNewRomanPS-BoldMT-20" x="494.580078"/>
     <use xlink:href="#TimesNewRomanPS-BoldMT-43" x="519.580078"/>
     <use xlink:href="#TimesNewRomanPS-BoldMT-65" x="591.796875"/>
     <use xlink:href="#TimesNewRomanPS-BoldMT-6c" x="636.181641"/>
     <use xlink:href="#TimesNewRomanPS-BoldMT-6c" x="663.964844"/>
     <use xlink:href="#TimesNewRomanPS-BoldMT-73" x="691.748047"/>
    </g>
   </g>
   <g id="text_3">
    <!-- Excitatory Neurons -->
    <g transform="translate(7.2 167.737409) scale(0.12 -0.12)">
     <defs>
      <path id="TimesNewRomanPS-BoldMT-78" d="M 1944 1791 
L 2450 828 
Q 2713 325 2866 191 
Q 2950 119 3097 113 
L 3097 0 
L 1469 0 
L 1469 113 
Q 1659 128 1704 162 
Q 1750 197 1750 256 
Q 1750 344 1650 531 
L 1397 1006 
L 1181 691 
Q 1034 475 1016 434 
Q 991 375 991 328 
Q 991 256 1020 207 
Q 1050 159 1101 136 
Q 1153 113 1291 113 
L 1291 0 
L 147 0 
L 147 113 
Q 359 113 536 230 
Q 713 347 1050 844 
L 1291 1200 
L 788 2131 
Q 541 2588 419 2691 
Q 297 2794 147 2806 
L 147 2922 
L 1766 2922 
L 1766 2806 
L 1681 2803 
L 1519 2747 
Q 1494 2725 1494 2675 
Q 1494 2628 1509 2578 
Q 1519 2556 1597 2409 
L 1825 1984 
L 1944 2153 
Q 2194 2497 2194 2634 
Q 2194 2700 2139 2745 
Q 2084 2791 1944 2806 
L 1944 2922 
L 2978 2922 
L 2978 2806 
Q 2788 2800 2622 2689 
Q 2456 2578 2250 2259 
L 1944 1791 
z
" transform="scale(0.015625)"/>
      <path id="TimesNewRomanPS-BoldMT-4e" d="M 1594 4238 
L 3684 1609 
L 3684 3431 
Q 3684 3813 3575 3947 
Q 3425 4128 3072 4122 
L 3072 4238 
L 4472 4238 
L 4472 4122 
Q 4203 4088 4111 4033 
Q 4019 3978 3967 3854 
Q 3916 3731 3916 3431 
L 3916 -97 
L 3809 -97 
L 944 3431 
L 944 738 
Q 944 372 1111 244 
Q 1278 116 1494 116 
L 1594 116 
L 1594 0 
L 91 0 
L 91 116 
Q 441 119 578 259 
Q 716 400 716 738 
L 716 3728 
L 625 3841 
Q 491 4009 387 4062 
Q 284 4116 91 4122 
L 91 4238 
L 1594 4238 
z
" transform="scale(0.015625)"/>
      <path id="TimesNewRomanPS-BoldMT-75" d="M 3038 2922 
L 3038 634 
Q 3038 300 3100 217 
Q 3163 134 3353 113 
L 3353 0 
L 2163 0 
L 2163 391 
Q 1953 141 1743 26 
Q 1534 -88 1275 -88 
Q 1028 -88 836 64 
Q 644 216 578 419 
Q 513 622 513 1128 
L 513 2288 
Q 513 2619 452 2700 
Q 391 2781 197 2806 
L 197 2922 
L 1388 2922 
L 1388 925 
Q 1388 613 1417 522 
Q 1447 431 1511 384 
Q 1575 338 1659 338 
Q 1772 338 1863 397 
Q 1988 478 2163 725 
L 2163 2288 
Q 2163 2619 2102 2700 
Q 2041 2781 1847 2806 
L 1847 2922 
L 3038 2922 
z
" transform="scale(0.015625)"/>
     </defs>
     <use xlink:href="#TimesNewRomanPS-BoldMT-45"/>
     <use xlink:href="#TimesNewRomanPS-BoldMT-78" x="66.699219"/>
     <use xlink:href="#TimesNewRomanPS-BoldMT-63" x="116.699219"/>
     <use xlink:href="#TimesNewRomanPS-BoldMT-69" x="161.083984"/>
     <use xlink:href="#TimesNewRomanPS-BoldMT-74" x="188.867188"/>
     <use xlink:href="#TimesNewRomanPS-BoldMT-61" x="222.167969"/>
     <use xlink:href="#TimesNewRomanPS-BoldMT-74" x="272.167969"/>
     <use xlink:href="#TimesNewRomanPS-BoldMT-6f" x="305.46875"/>
     <use xlink:href="#TimesNewRomanPS-BoldMT-72" x="355.46875"/>
     <use xlink:href="#TimesNewRomanPS-BoldMT-79" x="399.853516"/>
     <use xlink:href="#TimesNewRomanPS-BoldMT-20" x="449.853516"/>
     <use xlink:href="#TimesNewRomanPS-BoldMT-4e" x="474.853516"/>
     <use xlink:href="#TimesNewRomanPS-BoldMT-65" x="547.070312"/>
     <use xlink:href="#TimesNewRomanPS-BoldMT-75" x="591.455078"/>
     <use xlink:href="#TimesNewRomanPS-BoldMT-72" x="647.070312"/>
     <use xlink:href="#TimesNewRomanPS-BoldMT-6f" x="689.705078"/>
     <use xlink:href="#TimesNewRomanPS-BoldMT-6e" x="739.705078"/>
     <use xlink:href="#TimesNewRomanPS-BoldMT-73" x="795.320312"/>
    </g>
   </g>
   <g id="text_4">
    <!-- Inhibitory Neurons -->
    <g transform="translate(8.503125 86.625928) scale(0.12 -0.12)">
     <defs>
      <path id="TimesNewRomanPS-BoldMT-49" d="M 2344 116 
L 2344 0 
L 128 0 
L 128 116 
L 269 116 
Q 453 116 566 181 
Q 647 225 691 331 
Q 725 406 725 725 
L 725 3513 
Q 725 3838 690 3919 
Q 656 4000 551 4061 
Q 447 4122 269 4122 
L 128 4122 
L 128 4238 
L 2344 4238 
L 2344 4122 
L 2203 4122 
Q 2019 4122 1906 4056 
Q 1825 4013 1778 3906 
Q 1744 3831 1744 3513 
L 1744 725 
Q 1744 400 1780 319 
Q 1816 238 1920 177 
Q 2025 116 2203 116 
L 2344 116 
z
" transform="scale(0.015625)"/>
      <path id="TimesNewRomanPS-BoldMT-62" d="M 1347 4238 
L 1347 2628 
Q 1716 3009 2153 3009 
Q 2453 3009 2718 2832 
Q 2984 2656 3134 2331 
Q 3284 2006 3284 1581 
Q 3284 1103 3093 712 
Q 2903 322 2584 117 
Q 2266 -88 1856 -88 
Q 1619 -88 1434 -12 
Q 1250 63 1072 231 
L 588 -84 
L 481 -84 
L 481 3631 
Q 481 3884 459 3944 
Q 428 4031 361 4073 
Q 294 4116 134 4122 
L 134 4238 
L 1347 4238 
z
M 1347 2350 
L 1347 1050 
Q 1347 653 1366 544 
Q 1397 359 1515 245 
Q 1634 131 1819 131 
Q 1978 131 2092 222 
Q 2206 313 2282 581 
Q 2359 850 2359 1550 
Q 2359 2222 2191 2472 
Q 2069 2653 1863 2653 
Q 1594 2653 1347 2350 
z
" transform="scale(0.015625)"/>
     </defs>
     <use xlink:href="#TimesNewRomanPS-BoldMT-49"/>
     <use xlink:href="#TimesNewRomanPS-BoldMT-6e" x="38.916016"/>
     <use xlink:href="#TimesNewRomanPS-BoldMT-68" x="94.53125"/>
     <use xlink:href="#TimesNewRomanPS-BoldMT-69" x="150.146484"/>
     <use xlink:href="#TimesNewRomanPS-BoldMT-62" x="177.929688"/>
     <use xlink:href="#TimesNewRomanPS-BoldMT-69" x="233.544922"/>
     <use xlink:href="#TimesNewRomanPS-BoldMT-74" x="261.328125"/>
     <use xlink:href="#TimesNewRomanPS-BoldMT-6f" x="294.628906"/>
     <use xlink:href="#TimesNewRomanPS-BoldMT-72" x="344.628906"/>
     <use xlink:href="#TimesNewRomanPS-BoldMT-79" x="389.013672"/>
     <use xlink:href="#TimesNewRomanPS-BoldMT-20" x="439.013672"/>
     <use xlink:href="#TimesNewRomanPS-BoldMT-4e" x="464.013672"/>
     <use xlink:href="#TimesNewRomanPS-BoldMT-65" x="536.230469"/>
     <use xlink:href="#TimesNewRomanPS-BoldMT-75" x="580.615234"/>
     <use xlink:href="#TimesNewRomanPS-BoldMT-72" x="636.230469"/>
     <use xlink:href="#TimesNewRomanPS-BoldMT-6f" x="678.865234"/>
     <use xlink:href="#TimesNewRomanPS-BoldMT-6e" x="728.865234"/>
     <use xlink:href="#TimesNewRomanPS-BoldMT-73" x="784.480469"/>
    </g>
   </g>
   <g id="text_5">
    <!-- Microglia -->
    <g transform="translate(57.538125 48.211645) scale(0.12 -0.12)">
     <defs>
      <path id="TimesNewRomanPS-BoldMT-4d" d="M 3050 1444 
L 4200 4238 
L 5925 4238 
L 5925 4122 
L 5788 4122 
Q 5600 4122 5488 4056 
Q 5409 4013 5363 3909 
Q 5328 3834 5328 3519 
L 5328 725 
Q 5328 400 5362 319 
Q 5397 238 5503 177 
Q 5609 116 5788 116 
L 5925 116 
L 5925 0 
L 3713 0 
L 3713 116 
L 3850 116 
Q 4038 116 4150 181 
Q 4228 225 4275 331 
Q 4309 406 4309 725 
L 4309 3866 
L 2684 0 
L 2609 0 
L 959 3838 
L 959 853 
Q 959 541 975 469 
Q 1016 313 1152 214 
Q 1288 116 1578 116 
L 1578 0 
L 128 0 
L 128 116 
L 172 116 
Q 313 113 434 161 
Q 556 209 618 290 
Q 681 372 716 519 
Q 722 553 722 838 
L 722 3519 
Q 722 3841 687 3920 
Q 653 4000 547 4061 
Q 441 4122 263 4122 
L 128 4122 
L 128 4238 
L 1859 4238 
L 3050 1444 
z
" transform="scale(0.015625)"/>
      <path id="TimesNewRomanPS-BoldMT-67" d="M 2091 2888 
L 3075 2888 
L 3075 2544 
L 2516 2544 
Q 2669 2391 2728 2266 
Q 2803 2097 2803 1913 
Q 2803 1600 2629 1370 
Q 2456 1141 2157 1011 
Q 1859 881 1628 881 
Q 1609 881 1253 897 
Q 1113 897 1017 805 
Q 922 713 922 584 
Q 922 472 1008 400 
Q 1094 328 1288 328 
L 1828 334 
Q 2484 334 2731 191 
Q 3084 -9 3084 -425 
Q 3084 -691 2921 -908 
Q 2759 -1125 2494 -1228 
Q 2091 -1381 1566 -1381 
Q 1172 -1381 847 -1304 
Q 522 -1228 381 -1092 
Q 241 -956 241 -806 
Q 241 -663 348 -548 
Q 456 -434 750 -356 
Q 344 -156 344 200 
Q 344 416 509 619 
Q 675 822 1034 972 
Q 616 1125 428 1375 
Q 241 1625 241 1953 
Q 241 2381 591 2695 
Q 941 3009 1491 3009 
Q 1781 3009 2091 2888 
z
M 1550 2816 
Q 1369 2816 1244 2633 
Q 1119 2450 1119 1875 
Q 1119 1409 1242 1236 
Q 1366 1063 1534 1063 
Q 1722 1063 1847 1234 
Q 1972 1406 1972 1903 
Q 1972 2463 1831 2666 
Q 1731 2816 1550 2816 
z
M 1366 -431 
Q 1047 -431 944 -484 
Q 766 -581 766 -747 
Q 766 -906 950 -1036 
Q 1134 -1166 1644 -1166 
Q 2078 -1166 2326 -1050 
Q 2575 -934 2575 -725 
Q 2575 -647 2528 -594 
Q 2444 -500 2273 -465 
Q 2103 -431 1366 -431 
z
" transform="scale(0.015625)"/>
     </defs>
     <use xlink:href="#TimesNewRomanPS-BoldMT-4d"/>
     <use xlink:href="#TimesNewRomanPS-BoldMT-69" x="94.384766"/>
     <use xlink:href="#TimesNewRomanPS-BoldMT-63" x="122.167969"/>
     <use xlink:href="#TimesNewRomanPS-BoldMT-72" x="166.552734"/>
     <use xlink:href="#TimesNewRomanPS-BoldMT-6f" x="209.1875"/>
     <use xlink:href="#TimesNewRomanPS-BoldMT-67" x="259.1875"/>
     <use xlink:href="#TimesNewRomanPS-BoldMT-6c" x="309.1875"/>
     <use xlink:href="#TimesNewRomanPS-BoldMT-69" x="336.970703"/>
     <use xlink:href="#TimesNewRomanPS-BoldMT-61" x="364.753906"/>
    </g>
   </g>
   <g id="text_6">
    <!-- Oligodendrocytes -->
    <g transform="translate(17.525625 24.759853) scale(0.12 -0.12)">
     <defs>
      <path id="TimesNewRomanPS-BoldMT-4f" d="M 2472 4297 
Q 3484 4334 4117 3706 
Q 4750 3078 4750 2134 
Q 4750 1328 4278 716 
Q 3653 -97 2513 -97 
Q 1369 -97 744 678 
Q 250 1291 250 2131 
Q 250 3075 892 3704 
Q 1534 4334 2472 4297 
z
M 2509 4097 
Q 1928 4097 1625 3503 
Q 1378 3016 1378 2103 
Q 1378 1019 1759 500 
Q 2025 138 2503 138 
Q 2825 138 3041 294 
Q 3316 494 3469 933 
Q 3622 1372 3622 2078 
Q 3622 2919 3465 3336 
Q 3309 3753 3067 3925 
Q 2825 4097 2509 4097 
z
" transform="scale(0.015625)"/>
     </defs>
     <use xlink:href="#TimesNewRomanPS-BoldMT-4f"/>
     <use xlink:href="#TimesNewRomanPS-BoldMT-6c" x="77.783203"/>
     <use xlink:href="#TimesNewRomanPS-BoldMT-69" x="105.566406"/>
     <use xlink:href="#TimesNewRomanPS-BoldMT-67" x="133.349609"/>
     <use xlink:href="#TimesNewRomanPS-BoldMT-6f" x="183.349609"/>
     <use xlink:href="#TimesNewRomanPS-BoldMT-64" x="233.349609"/>
     <use xlink:href="#TimesNewRomanPS-BoldMT-65" x="288.964844"/>
     <use xlink:href="#TimesNewRomanPS-BoldMT-6e" x="333.349609"/>
     <use xlink:href="#TimesNewRomanPS-BoldMT-64" x="388.964844"/>
     <use xlink:href="#TimesNewRomanPS-BoldMT-72" x="444.580078"/>
     <use xlink:href="#TimesNewRomanPS-BoldMT-6f" x="487.214844"/>
     <use xlink:href="#TimesNewRomanPS-BoldMT-63" x="537.214844"/>
     <use xlink:href="#TimesNewRomanPS-BoldMT-79" x="581.599609"/>
     <use xlink:href="#TimesNewRomanPS-BoldMT-74" x="631.599609"/>
     <use xlink:href="#TimesNewRomanPS-BoldMT-65" x="664.900391"/>
     <use xlink:href="#TimesNewRomanPS-BoldMT-73" x="709.285156"/>
    </g>
   </g>
   <g id="text_7">
    <!-- Astrocytes -->
    <g transform="translate(450.694615 254.951005) scale(0.12 -0.12)">
     <use xlink:href="#TimesNewRomanPS-BoldMT-41"/>
     <use xlink:href="#TimesNewRomanPS-BoldMT-73" x="72.216797"/>
     <use xlink:href="#TimesNewRomanPS-BoldMT-74" x="111.132812"/>
     <use xlink:href="#TimesNewRomanPS-BoldMT-72" x="144.433594"/>
     <use xlink:href="#TimesNewRomanPS-BoldMT-6f" x="187.068359"/>
     <use xlink:href="#TimesNewRomanPS-BoldMT-63" x="237.068359"/>
     <use xlink:href="#TimesNewRomanPS-BoldMT-79" x="281.453125"/>
     <use xlink:href="#TimesNewRomanPS-BoldMT-74" x="331.453125"/>
     <use xlink:href="#TimesNewRomanPS-BoldMT-65" x="364.753906"/>
     <use xlink:href="#TimesNewRomanPS-BoldMT-73" x="409.138672"/>
    </g>
   </g>
   <g id="text_8">
    <!-- Endothelial Cells -->
    <g transform="translate(450.694615 234.226121) scale(0.12 -0.12)">
     <use xlink:href="#TimesNewRomanPS-BoldMT-45"/>
     <use xlink:href="#TimesNewRomanPS-BoldMT-6e" x="66.699219"/>
     <use xlink:href="#TimesNewRomanPS-BoldMT-64" x="122.314453"/>
     <use xlink:href="#TimesNewRomanPS-BoldMT-6f" x="177.929688"/>
     <use xlink:href="#TimesNewRomanPS-BoldMT-74" x="227.929688"/>
     <use xlink:href="#TimesNewRomanPS-BoldMT-68" x="261.230469"/>
     <use xlink:href="#TimesNewRomanPS-BoldMT-65" x="316.845703"/>
     <use xlink:href="#TimesNewRomanPS-BoldMT-6c" x="361.230469"/>
     <use xlink:href="#TimesNewRomanPS-BoldMT-69" x="389.013672"/>
     <use xlink:href="#TimesNewRomanPS-BoldMT-61" x="416.796875"/>
     <use xlink:href="#TimesNewRomanPS-BoldMT-6c" x="466.796875"/>
     <use xlink:href="#TimesNewRomanPS-BoldMT-20" x="494.580078"/>
     <use xlink:href="#TimesNewRomanPS-BoldMT-43" x="519.580078"/>
     <use xlink:href="#TimesNewRomanPS-BoldMT-65" x="591.796875"/>
     <use xlink:href="#TimesNewRomanPS-BoldMT-6c" x="636.181641"/>
     <use xlink:href="#TimesNewRomanPS-BoldMT-6c" x="663.964844"/>
     <use xlink:href="#TimesNewRomanPS-BoldMT-73" x="691.748047"/>
    </g>
   </g>
   <g id="text_9">
    <!-- Excitatory Neurons -->
    <g transform="translate(450.694615 171.352685) scale(0.12 -0.12)">
     <use xlink:href="#TimesNewRomanPS-BoldMT-45"/>
     <use xlink:href="#TimesNewRomanPS-BoldMT-78" x="66.699219"/>
     <use xlink:href="#TimesNewRomanPS-BoldMT-63" x="116.699219"/>
     <use xlink:href="#TimesNewRomanPS-BoldMT-69" x="161.083984"/>
     <use xlink:href="#TimesNewRomanPS-BoldMT-74" x="188.867188"/>
     <use xlink:href="#TimesNewRomanPS-BoldMT-61" x="222.167969"/>
     <use xlink:href="#TimesNewRomanPS-BoldMT-74" x="272.167969"/>
     <use xlink:href="#TimesNewRomanPS-BoldMT-6f" x="305.46875"/>
     <use xlink:href="#TimesNewRomanPS-BoldMT-72" x="355.46875"/>
     <use xlink:href="#TimesNewRomanPS-BoldMT-79" x="399.853516"/>
     <use xlink:href="#TimesNewRomanPS-BoldMT-20" x="449.853516"/>
     <use xlink:href="#TimesNewRomanPS-BoldMT-4e" x="474.853516"/>
     <use xlink:href="#TimesNewRomanPS-BoldMT-65" x="547.070312"/>
     <use xlink:href="#TimesNewRomanPS-BoldMT-75" x="591.455078"/>
     <use xlink:href="#TimesNewRomanPS-BoldMT-72" x="647.070312"/>
     <use xlink:href="#TimesNewRomanPS-BoldMT-6f" x="689.705078"/>
     <use xlink:href="#TimesNewRomanPS-BoldMT-6e" x="739.705078"/>
     <use xlink:href="#TimesNewRomanPS-BoldMT-73" x="795.320312"/>
    </g>
   </g>
   <g id="text_10">
    <!-- Inhibitory Neurons -->
    <g transform="translate(450.694615 89.845371) scale(0.12 -0.12)">
     <use xlink:href="#TimesNewRomanPS-BoldMT-49"/>
     <use xlink:href="#TimesNewRomanPS-BoldMT-6e" x="38.916016"/>
     <use xlink:href="#TimesNewRomanPS-BoldMT-68" x="94.53125"/>
     <use xlink:href="#TimesNewRomanPS-BoldMT-69" x="150.146484"/>
     <use xlink:href="#TimesNewRomanPS-BoldMT-62" x="177.929688"/>
     <use xlink:href="#TimesNewRomanPS-BoldMT-69" x="233.544922"/>
     <use xlink:href="#TimesNewRomanPS-BoldMT-74" x="261.328125"/>
     <use xlink:href="#TimesNewRomanPS-BoldMT-6f" x="294.628906"/>
     <use xlink:href="#TimesNewRomanPS-BoldMT-72" x="344.628906"/>
     <use xlink:href="#TimesNewRomanPS-BoldMT-79" x="389.013672"/>
     <use xlink:href="#TimesNewRomanPS-BoldMT-20" x="439.013672"/>
     <use xlink:href="#TimesNewRomanPS-BoldMT-4e" x="464.013672"/>
     <use xlink:href="#TimesNewRomanPS-BoldMT-65" x="536.230469"/>
     <use xlink:href="#TimesNewRomanPS-BoldMT-75" x="580.615234"/>
     <use xlink:href="#TimesNewRomanPS-BoldMT-72" x="636.230469"/>
     <use xlink:href="#TimesNewRomanPS-BoldMT-6f" x="678.865234"/>
     <use xlink:href="#TimesNewRomanPS-BoldMT-6e" x="728.865234"/>
     <use xlink:href="#TimesNewRomanPS-BoldMT-73" x="784.480469"/>
    </g>
   </g>
   <g id="text_11">
    <!-- Microglia -->
    <g transform="translate(450.694615 48.686644) scale(0.12 -0.12)">
     <use xlink:href="#TimesNewRomanPS-BoldMT-4d"/>
     <use xlink:href="#TimesNewRomanPS-BoldMT-69" x="94.384766"/>
     <use xlink:href="#TimesNewRomanPS-BoldMT-63" x="122.167969"/>
     <use xlink:href="#TimesNewRomanPS-BoldMT-72" x="166.552734"/>
     <use xlink:href="#TimesNewRomanPS-BoldMT-6f" x="209.1875"/>
     <use xlink:href="#TimesNewRomanPS-BoldMT-67" x="259.1875"/>
     <use xlink:href="#TimesNewRomanPS-BoldMT-6c" x="309.1875"/>
     <use xlink:href="#TimesNewRomanPS-BoldMT-69" x="336.970703"/>
     <use xlink:href="#TimesNewRomanPS-BoldMT-61" x="364.753906"/>
    </g>
   </g>
   <g id="text_12">
    <!-- Oligodendrocytes -->
    <g transform="translate(450.694615 25.05013) scale(0.12 -0.12)">
     <use xlink:href="#TimesNewRomanPS-BoldMT-4f"/>
     <use xlink:href="#TimesNewRomanPS-BoldMT-6c" x="77.783203"/>
     <use xlink:href="#TimesNewRomanPS-BoldMT-69" x="105.566406"/>
     <use xlink:href="#TimesNewRomanPS-BoldMT-67" x="133.349609"/>
     <use xlink:href="#TimesNewRomanPS-BoldMT-6f" x="183.349609"/>
     <use xlink:href="#TimesNewRomanPS-BoldMT-64" x="233.349609"/>
     <use xlink:href="#TimesNewRomanPS-BoldMT-65" x="288.964844"/>
     <use xlink:href="#TimesNewRomanPS-BoldMT-6e" x="333.349609"/>
     <use xlink:href="#TimesNewRomanPS-BoldMT-64" x="388.964844"/>
     <use xlink:href="#TimesNewRomanPS-BoldMT-72" x="444.580078"/>
     <use xlink:href="#TimesNewRomanPS-BoldMT-6f" x="487.214844"/>
     <use xlink:href="#TimesNewRomanPS-BoldMT-63" x="537.214844"/>
     <use xlink:href="#TimesNewRomanPS-BoldMT-79" x="581.599609"/>
     <use xlink:href="#TimesNewRomanPS-BoldMT-74" x="631.599609"/>
     <use xlink:href="#TimesNewRomanPS-BoldMT-65" x="664.900391"/>
     <use xlink:href="#TimesNewRomanPS-BoldMT-73" x="709.285156"/>
    </g>
   </g>
  </g>
 </g>
 <defs>
  <clipPath id="p6bb2041625">
   <rect x="100.442308" y="7.2" width="357.12" height="266.112"/>
  </clipPath>
 </defs>
</svg>
