<?xml version="1.0" encoding="utf-8" standalone="no"?>
<!DOCTYPE svg PUBLIC "-//W3C//DTD SVG 1.1//EN"
  "http://www.w3.org/Graphics/SVG/1.1/DTD/svg11.dtd">
<svg xmlns:xlink="http://www.w3.org/1999/xlink" width="558.004615pt" height="280.512pt" viewBox="0 0 558.004615 280.512" xmlns="http://www.w3.org/2000/svg" version="1.1">
 <metadata>
  <rdf:RDF xmlns:dc="http://purl.org/dc/elements/1.1/" xmlns:cc="http://creativecommons.org/ns#" xmlns:rdf="http://www.w3.org/1999/02/22-rdf-syntax-ns#">
   <cc:Work>
    <dc:type rdf:resource="http://purl.org/dc/dcmitype/StillImage"/>
    <dc:date>2025-03-16T19:50:07.744599</dc:date>
    <dc:format>image/svg+xml</dc:format>
    <dc:creator>
     <cc:Agent>
      <dc:title>Matplotlib v3.9.3, https://matplotlib.org/</dc:title>
     </cc:Agent>
    </dc:creator>
   </cc:Work>
  </rdf:RDF>
 </metadata>
 <defs>
  <style type="text/css">*{stroke-linejoin: round; stroke-linecap: butt}</style>
 </defs>
 <g id="figure_1">
  <g id="patch_1">
   <path d="M 0 280.512 
L 558.004615 280.512 
L 558.004615 0 
L 0 0 
z
" style="fill: #ffffff"/>
  </g>
  <g id="axes_1">
   <g id="PolyCollection_1">
    <defs>
     <path id="me407a28d2d" d="M 116.675035 -46.806789 
L 116.675035 -19.296 
L 122.918392 -19.296 
L 122.918392 -46.806789 
L 122.918392 -46.806789 
L 116.675035 -46.806789 
z
" style="stroke: #57db5f; stroke-opacity: 0.99"/>
    </defs>
    <g clip-path="url(#p83369d2010)">
     <use xlink:href="#me407a28d2d" x="0" y="280.512" style="fill: #57db5f; fill-opacity: 0.99; stroke: #57db5f; stroke-opacity: 0.99"/>
    </g>
   </g>
   <g id="PolyCollection_2">
    <defs>
     <path id="md4c53d988a" d="M 116.675035 -62.65808 
L 116.675035 -56.483589 
L 122.918392 -56.483589 
L 122.918392 -62.65808 
L 122.918392 -62.65808 
L 116.675035 -62.65808 
z
" style="stroke: #5f57db; stroke-opacity: 0.99"/>
    </defs>
    <g clip-path="url(#p83369d2010)">
     <use xlink:href="#md4c53d988a" x="0" y="280.512" style="fill: #5f57db; fill-opacity: 0.99; stroke: #5f57db; stroke-opacity: 0.99"/>
    </g>
   </g>
   <g id="PolyCollection_3">
    <defs>
     <path id="m526abd49e4" d="M 116.675035 -127.63088 
L 116.675035 -72.33488 
L 122.918392 -72.33488 
L 122.918392 -127.63088 
L 122.918392 -127.63088 
L 116.675035 -127.63088 
z
" style="stroke: #db57d3; stroke-opacity: 0.99"/>
    </defs>
    <g clip-path="url(#p83369d2010)">
     <use xlink:href="#m526abd49e4" x="0" y="280.512" style="fill: #db57d3; fill-opacity: 0.99; stroke: #db57d3; stroke-opacity: 0.99"/>
    </g>
   </g>
   <g id="PolyCollection_4">
    <defs>
     <path id="mcc3d8636c7" d="M 116.675035 -194.867661 
L 116.675035 -137.30768 
L 122.918392 -137.30768 
L 122.918392 -194.867661 
L 122.918392 -194.867661 
L 116.675035 -194.867661 
z
" style="stroke: #db5f57; stroke-opacity: 0.99"/>
    </defs>
    <g clip-path="url(#p83369d2010)">
     <use xlink:href="#mcc3d8636c7" x="0" y="280.512" style="fill: #db5f57; fill-opacity: 0.99; stroke: #db5f57; stroke-opacity: 0.99"/>
    </g>
   </g>
   <g id="PolyCollection_5">
    <defs>
     <path id="mb29c8fa275" d="M 116.675035 -212.091061 
L 116.675035 -204.544461 
L 122.918392 -204.544461 
L 122.918392 -212.091061 
L 122.918392 -212.091061 
L 116.675035 -212.091061 
z
" style="stroke: #d3db57; stroke-opacity: 0.99"/>
    </defs>
    <g clip-path="url(#p83369d2010)">
     <use xlink:href="#mb29c8fa275" x="0" y="280.512" style="fill: #d3db57; fill-opacity: 0.99; stroke: #d3db57; stroke-opacity: 0.99"/>
    </g>
   </g>
   <g id="PolyCollection_6">
    <defs>
     <path id="m1cf9381f01" d="M 116.675035 -261.216 
L 116.675035 -221.767861 
L 122.918392 -221.767861 
L 122.918392 -261.216 
L 122.918392 -261.216 
L 116.675035 -261.216 
z
" style="stroke: #57d3db; stroke-opacity: 0.99"/>
    </defs>
    <g clip-path="url(#p83369d2010)">
     <use xlink:href="#m1cf9381f01" x="0" y="280.512" style="fill: #57d3db; fill-opacity: 0.99; stroke: #57d3db; stroke-opacity: 0.99"/>
    </g>
   </g>
   <g id="PolyCollection_7">
    <defs>
     <path id="m77e643cb53" d="M 435.086224 -46.532367 
L 435.086224 -19.296 
L 441.32958 -19.296 
L 441.32958 -46.532367 
L 441.32958 -46.532367 
L 435.086224 -46.532367 
z
" style="stroke: #57db5f; stroke-opacity: 0.99"/>
    </defs>
    <g clip-path="url(#p83369d2010)">
     <use xlink:href="#m77e643cb53" x="0" y="280.512" style="fill: #57db5f; fill-opacity: 0.99; stroke: #57db5f; stroke-opacity: 0.99"/>
    </g>
   </g>
   <g id="PolyCollection_8">
    <defs>
     <path id="m59946a8ad4" d="M 435.086224 -61.972026 
L 435.086224 -56.209167 
L 441.32958 -56.209167 
L 441.32958 -61.972026 
L 441.32958 -61.972026 
L 435.086224 -61.972026 
z
" style="stroke: #5f57db; stroke-opacity: 0.99"/>
    </defs>
    <g clip-path="url(#p83369d2010)">
     <use xlink:href="#m59946a8ad4" x="0" y="280.512" style="fill: #5f57db; fill-opacity: 0.99; stroke: #5f57db; stroke-opacity: 0.99"/>
    </g>
   </g>
   <g id="PolyCollection_9">
    <defs>
     <path id="md72c164fc8" d="M 435.086224 -139.087992 
L 435.086224 -71.648826 
L 441.32958 -71.648826 
L 441.32958 -139.087992 
L 441.32958 -139.087992 
L 435.086224 -139.087992 
z
" style="stroke: #db57d3; stroke-opacity: 0.99"/>
    </defs>
    <g clip-path="url(#p83369d2010)">
     <use xlink:href="#md72c164fc8" x="0" y="280.512" style="fill: #db57d3; fill-opacity: 0.99; stroke: #db57d3; stroke-opacity: 0.99"/>
    </g>
   </g>
   <g id="PolyCollection_10">
    <defs>
     <path id="mafb6780b16" d="M 435.086224 -202.688683 
L 435.086224 -148.764792 
L 441.32958 -148.764792 
L 441.32958 -202.688683 
L 441.32958 -202.688683 
L 435.086224 -202.688683 
z
" style="stroke: #db5f57; stroke-opacity: 0.99"/>
    </defs>
    <g clip-path="url(#p83369d2010)">
     <use xlink:href="#mafb6780b16" x="0" y="280.512" style="fill: #db5f57; fill-opacity: 0.99; stroke: #db5f57; stroke-opacity: 0.99"/>
    </g>
   </g>
   <g id="PolyCollection_11">
    <defs>
     <path id="mffa18ddbd6" d="M 435.086224 -251.401989 
L 435.086224 -212.365483 
L 441.32958 -212.365483 
L 441.32958 -251.401989 
L 441.32958 -251.401989 
L 435.086224 -251.401989 
z
" style="stroke: #d3db57; stroke-opacity: 0.99"/>
    </defs>
    <g clip-path="url(#p83369d2010)">
     <use xlink:href="#mffa18ddbd6" x="0" y="280.512" style="fill: #d3db57; fill-opacity: 0.99; stroke: #d3db57; stroke-opacity: 0.99"/>
    </g>
   </g>
   <g id="PolyCollection_12">
    <defs>
     <path id="m2441062105" d="M 435.086224 -261.216 
L 435.086224 -261.078789 
L 441.32958 -261.078789 
L 441.32958 -261.216 
L 441.32958 -261.216 
L 435.086224 -261.216 
z
" style="stroke: #57d3db; stroke-opacity: 0.99"/>
    </defs>
    <g clip-path="url(#p83369d2010)">
     <use xlink:href="#m2441062105" x="0" y="280.512" style="fill: #57d3db; fill-opacity: 0.99; stroke: #57d3db; stroke-opacity: 0.99"/>
    </g>
   </g>
   <g id="PolyCollection_13">
    <defs>
     <path id="md8d39a27e7" d="M 122.918392 -46.18934 
L 122.918392 -19.296 
L 128.035897 -19.296 
L 133.153402 -19.296 
L 138.270908 -19.296 
L 143.388413 -19.296 
L 148.505919 -19.296 
L 153.623424 -19.296 
L 158.74093 -19.296 
L 163.858435 -19.296 
L 168.975941 -19.296 
L 174.093446 -19.296 
L 179.210952 -19.296 
L 184.328457 -19.296 
L 189.445962 -19.296 
L 194.563468 -19.296 
L 199.680973 -19.296 
L 204.798479 -19.296 
L 209.915984 -19.296 
L 215.03349 -19.296 
L 220.150995 -19.296 
L 225.268501 -19.296 
L 230.386006 -19.296 
L 235.503511 -19.296 
L 240.621017 -19.296 
L 245.738522 -19.296 
L 250.856028 -19.296 
L 255.973533 -19.296 
L 261.091039 -19.296 
L 266.208544 -19.296 
L 271.32605 -19.296 
L 276.443555 -19.296 
L 281.56106 -19.296 
L 286.678566 -19.296 
L 291.796071 -19.296 
L 296.913577 -19.296 
L 302.031082 -19.296 
L 307.148588 -19.296 
L 312.266093 -19.296 
L 317.383599 -19.296 
L 322.501104 -19.296 
L 327.618609 -19.296 
L 332.736115 -19.296 
L 337.85362 -19.296 
L 342.971126 -19.296 
L 348.088631 -19.296 
L 353.206137 -19.296 
L 358.323642 -19.296 
L 363.441148 -19.296 
L 368.558653 -19.296 
L 373.676158 -19.296 
L 378.793664 -19.296 
L 383.911169 -19.296 
L 389.028675 -19.296 
L 394.14618 -19.296 
L 399.263686 -19.296 
L 404.381191 -19.296 
L 409.498697 -19.296 
L 414.616202 -19.296 
L 419.733707 -19.296 
L 424.851213 -19.296 
L 429.968718 -19.296 
L 435.086224 -19.296 
L 435.086224 -46.18934 
L 435.086224 -46.18934 
L 429.968718 -46.18934 
L 424.851213 -46.18934 
L 419.733707 -46.18934 
L 414.616202 -46.18934 
L 409.498697 -46.18934 
L 404.381191 -46.18934 
L 399.263686 -46.18934 
L 394.14618 -46.18934 
L 389.028675 -46.18934 
L 383.911169 -46.18934 
L 378.793664 -46.18934 
L 373.676158 -46.18934 
L 368.558653 -46.18934 
L 363.441148 -46.18934 
L 358.323642 -46.18934 
L 353.206137 -46.18934 
L 348.088631 -46.18934 
L 342.971126 -46.18934 
L 337.85362 -46.18934 
L 332.736115 -46.18934 
L 327.618609 -46.18934 
L 322.501104 -46.18934 
L 317.383599 -46.18934 
L 312.266093 -46.18934 
L 307.148588 -46.18934 
L 302.031082 -46.18934 
L 296.913577 -46.18934 
L 291.796071 -46.18934 
L 286.678566 -46.18934 
L 281.56106 -46.18934 
L 276.443555 -46.18934 
L 271.32605 -46.18934 
L 266.208544 -46.18934 
L 261.091039 -46.18934 
L 255.973533 -46.18934 
L 250.856028 -46.18934 
L 245.738522 -46.18934 
L 240.621017 -46.18934 
L 235.503511 -46.18934 
L 230.386006 -46.18934 
L 225.268501 -46.18934 
L 220.150995 -46.18934 
L 215.03349 -46.18934 
L 209.915984 -46.18934 
L 204.798479 -46.18934 
L 199.680973 -46.18934 
L 194.563468 -46.18934 
L 189.445962 -46.18934 
L 184.328457 -46.18934 
L 179.210952 -46.18934 
L 174.093446 -46.18934 
L 168.975941 -46.18934 
L 163.858435 -46.18934 
L 158.74093 -46.18934 
L 153.623424 -46.18934 
L 148.505919 -46.18934 
L 143.388413 -46.18934 
L 138.270908 -46.18934 
L 133.153402 -46.18934 
L 128.035897 -46.18934 
L 122.918392 -46.18934 
z
" style="stroke: #57db5f; stroke-opacity: 0.65"/>
    </defs>
    <g clip-path="url(#p83369d2010)">
     <use xlink:href="#md8d39a27e7" x="0" y="280.512" style="fill: #57db5f; fill-opacity: 0.65; stroke: #57db5f; stroke-opacity: 0.65"/>
    </g>
   </g>
   <g id="PolyCollection_14">
    <defs>
     <path id="ma07a080653" d="M 122.918392 -46.463762 
L 122.918392 -46.18934 
L 128.035897 -46.18934 
L 133.153402 -46.18934 
L 138.270908 -46.18934 
L 143.388413 -46.18934 
L 148.505919 -46.18934 
L 153.623424 -46.18934 
L 158.74093 -46.18934 
L 163.858435 -46.18934 
L 168.975941 -46.18934 
L 174.093446 -46.18934 
L 179.210952 -46.18934 
L 184.328457 -46.252989 
L 189.445962 -46.380286 
L 194.563468 -46.571232 
L 199.680973 -46.825827 
L 204.798479 -47.144071 
L 209.915984 -47.525963 
L 215.03349 -47.971504 
L 220.150995 -48.480694 
L 225.268501 -49.053532 
L 230.386006 -49.690019 
L 235.503511 -50.390155 
L 240.621017 -51.15394 
L 245.738522 -51.981373 
L 250.856028 -52.872455 
L 255.973533 -53.827186 
L 261.091039 -54.845565 
L 266.208544 -55.927593 
L 271.32605 -57.07327 
L 276.443555 -58.282596 
L 281.56106 -59.55557 
L 286.678566 -60.764896 
L 291.796071 -61.910572 
L 296.913577 -62.992601 
L 302.031082 -64.01098 
L 307.148588 -64.965711 
L 312.266093 -65.856793 
L 317.383599 -66.684226 
L 322.501104 -67.448011 
L 327.618609 -68.148147 
L 332.736115 -68.784634 
L 337.85362 -69.357472 
L 342.971126 -69.866662 
L 348.088631 -70.312203 
L 353.206137 -70.694095 
L 358.323642 -71.012339 
L 363.441148 -71.266934 
L 368.558653 -71.45788 
L 373.676158 -71.585177 
L 378.793664 -71.648826 
L 383.911169 -71.648826 
L 389.028675 -71.648826 
L 394.14618 -71.648826 
L 399.263686 -71.648826 
L 404.381191 -71.648826 
L 409.498697 -71.648826 
L 414.616202 -71.648826 
L 419.733707 -71.648826 
L 424.851213 -71.648826 
L 429.968718 -71.648826 
L 435.086224 -71.648826 
L 435.086224 -71.923248 
L 435.086224 -71.923248 
L 429.968718 -71.923248 
L 424.851213 -71.923248 
L 419.733707 -71.923248 
L 414.616202 -71.923248 
L 409.498697 -71.923248 
L 404.381191 -71.923248 
L 399.263686 -71.923248 
L 394.14618 -71.923248 
L 389.028675 -71.923248 
L 383.911169 -71.923248 
L 378.793664 -71.923248 
L 373.676158 -71.859599 
L 368.558653 -71.732301 
L 363.441148 -71.541355 
L 358.323642 -71.28676 
L 353.206137 -70.968517 
L 348.088631 -70.586625 
L 342.971126 -70.141084 
L 337.85362 -69.631894 
L 332.736115 -69.059055 
L 327.618609 -68.422568 
L 322.501104 -67.722432 
L 317.383599 -66.958648 
L 312.266093 -66.131215 
L 307.148588 -65.240133 
L 302.031082 -64.285402 
L 296.913577 -63.267022 
L 291.796071 -62.184994 
L 286.678566 -61.039317 
L 281.56106 -59.829992 
L 276.443555 -58.557018 
L 271.32605 -57.347692 
L 266.208544 -56.202015 
L 261.091039 -55.119987 
L 255.973533 -54.101608 
L 250.856028 -53.146877 
L 245.738522 -52.255795 
L 240.621017 -51.428362 
L 235.503511 -50.664577 
L 230.386006 -49.964441 
L 225.268501 -49.327954 
L 220.150995 -48.755116 
L 215.03349 -48.245926 
L 209.915984 -47.800385 
L 204.798479 -47.418493 
L 199.680973 -47.100249 
L 194.563468 -46.845654 
L 189.445962 -46.654708 
L 184.328457 -46.527411 
L 179.210952 -46.463762 
L 174.093446 -46.463762 
L 168.975941 -46.463762 
L 163.858435 -46.463762 
L 158.74093 -46.463762 
L 153.623424 -46.463762 
L 148.505919 -46.463762 
L 143.388413 -46.463762 
L 138.270908 -46.463762 
L 133.153402 -46.463762 
L 128.035897 -46.463762 
L 122.918392 -46.463762 
z
" style="stroke: #57db5f; stroke-opacity: 0.65"/>
    </defs>
    <g clip-path="url(#p83369d2010)">
     <use xlink:href="#ma07a080653" x="0" y="280.512" style="fill: #57db5f; fill-opacity: 0.65; stroke: #57db5f; stroke-opacity: 0.65"/>
    </g>
   </g>
   <g id="PolyCollection_15">
    <defs>
     <path id="m3e8d09251a" d="M 122.918392 -46.806789 
L 122.918392 -46.463762 
L 128.035897 -46.463762 
L 133.153402 -46.463762 
L 138.270908 -46.463762 
L 143.388413 -46.463762 
L 148.505919 -46.463762 
L 153.623424 -46.463762 
L 158.74093 -46.463762 
L 163.858435 -46.463762 
L 168.975941 -46.463762 
L 174.093446 -46.463762 
L 179.210952 -46.463762 
L 184.328457 -46.719514 
L 189.445962 -47.23102 
L 194.563468 -47.998277 
L 199.680973 -49.021288 
L 204.798479 -50.30005 
L 209.915984 -51.834566 
L 215.03349 -53.624834 
L 220.150995 -55.670855 
L 225.268501 -57.972628 
L 230.386006 -60.530153 
L 235.503511 -63.343432 
L 240.621017 -66.412463 
L 245.738522 -69.737246 
L 250.856028 -73.317782 
L 255.973533 -77.154071 
L 261.091039 -81.246112 
L 266.208544 -85.593906 
L 271.32605 -90.197452 
L 276.443555 -95.056751 
L 281.56106 -100.171803 
L 286.678566 -105.031102 
L 291.796071 -109.634648 
L 296.913577 -113.982442 
L 302.031082 -118.074483 
L 307.148588 -121.910772 
L 312.266093 -125.491308 
L 317.383599 -128.816091 
L 322.501104 -131.885122 
L 327.618609 -134.6984 
L 332.736115 -137.255926 
L 337.85362 -139.557699 
L 342.971126 -141.60372 
L 348.088631 -143.393988 
L 353.206137 -144.928503 
L 358.323642 -146.207266 
L 363.441148 -147.230277 
L 368.558653 -147.997534 
L 373.676158 -148.509039 
L 378.793664 -148.764792 
L 383.911169 -148.764792 
L 389.028675 -148.764792 
L 394.14618 -148.764792 
L 399.263686 -148.764792 
L 404.381191 -148.764792 
L 409.498697 -148.764792 
L 414.616202 -148.764792 
L 419.733707 -148.764792 
L 424.851213 -148.764792 
L 429.968718 -148.764792 
L 435.086224 -148.764792 
L 435.086224 -149.107819 
L 435.086224 -149.107819 
L 429.968718 -149.107819 
L 424.851213 -149.107819 
L 419.733707 -149.107819 
L 414.616202 -149.107819 
L 409.498697 -149.107819 
L 404.381191 -149.107819 
L 399.263686 -149.107819 
L 394.14618 -149.107819 
L 389.028675 -149.107819 
L 383.911169 -149.107819 
L 378.793664 -149.107819 
L 373.676158 -148.852067 
L 368.558653 -148.340562 
L 363.441148 -147.573304 
L 358.323642 -146.550294 
L 353.206137 -145.271531 
L 348.088631 -143.737015 
L 342.971126 -141.946747 
L 337.85362 -139.900727 
L 332.736115 -137.598953 
L 327.618609 -135.041428 
L 322.501104 -132.228149 
L 317.383599 -129.159118 
L 312.266093 -125.834335 
L 307.148588 -122.253799 
L 302.031082 -118.41751 
L 296.913577 -114.325469 
L 291.796071 -109.977675 
L 286.678566 -105.374129 
L 281.56106 -100.51483 
L 276.443555 -95.399778 
L 271.32605 -90.54048 
L 266.208544 -85.936933 
L 261.091039 -81.589139 
L 255.973533 -77.497098 
L 250.856028 -73.66081 
L 245.738522 -70.080273 
L 240.621017 -66.75549 
L 235.503511 -63.686459 
L 230.386006 -60.873181 
L 225.268501 -58.315655 
L 220.150995 -56.013882 
L 215.03349 -53.967861 
L 209.915984 -52.177593 
L 204.798479 -50.643078 
L 199.680973 -49.364315 
L 194.563468 -48.341305 
L 189.445962 -47.574047 
L 184.328457 -47.062542 
L 179.210952 -46.806789 
L 174.093446 -46.806789 
L 168.975941 -46.806789 
L 163.858435 -46.806789 
L 158.74093 -46.806789 
L 153.623424 -46.806789 
L 148.505919 -46.806789 
L 143.388413 -46.806789 
L 138.270908 -46.806789 
L 133.153402 -46.806789 
L 128.035897 -46.806789 
L 122.918392 -46.806789 
z
" style="stroke: #57db5f; stroke-opacity: 0.65"/>
    </defs>
    <g clip-path="url(#p83369d2010)">
     <use xlink:href="#m3e8d09251a" x="0" y="280.512" style="fill: #57db5f; fill-opacity: 0.65; stroke: #57db5f; stroke-opacity: 0.65"/>
    </g>
   </g>
   <g id="PolyCollection_16">
    <defs>
     <path id="me13e261acf" d="M 122.918392 -56.689405 
L 122.918392 -56.483589 
L 128.035897 -56.483589 
L 133.153402 -56.483589 
L 138.270908 -56.483589 
L 143.388413 -56.483589 
L 148.505919 -56.483589 
L 153.623424 -56.483589 
L 158.74093 -56.483589 
L 163.858435 -56.483589 
L 168.975941 -56.483589 
L 174.093446 -56.483589 
L 179.210952 -56.483589 
L 184.328457 -56.457853 
L 189.445962 -56.406382 
L 194.563468 -56.329175 
L 199.680973 -56.226233 
L 204.798479 -56.097555 
L 209.915984 -55.943141 
L 215.03349 -55.762992 
L 220.150995 -55.557107 
L 225.268501 -55.325486 
L 230.386006 -55.06813 
L 235.503511 -54.785038 
L 240.621017 -54.476211 
L 245.738522 -54.141647 
L 250.856028 -53.781349 
L 255.973533 -53.395314 
L 261.091039 -52.983544 
L 266.208544 -52.546039 
L 271.32605 -52.082798 
L 276.443555 -51.593821 
L 281.56106 -51.079108 
L 286.678566 -50.590131 
L 291.796071 -50.12689 
L 296.913577 -49.689385 
L 302.031082 -49.277615 
L 307.148588 -48.89158 
L 312.266093 -48.531282 
L 317.383599 -48.196719 
L 322.501104 -47.887891 
L 327.618609 -47.604799 
L 332.736115 -47.347443 
L 337.85362 -47.115822 
L 342.971126 -46.909937 
L 348.088631 -46.729788 
L 353.206137 -46.575374 
L 358.323642 -46.446696 
L 363.441148 -46.343754 
L 368.558653 -46.266547 
L 373.676158 -46.215076 
L 378.793664 -46.18934 
L 383.911169 -46.18934 
L 389.028675 -46.18934 
L 394.14618 -46.18934 
L 399.263686 -46.18934 
L 404.381191 -46.18934 
L 409.498697 -46.18934 
L 414.616202 -46.18934 
L 419.733707 -46.18934 
L 424.851213 -46.18934 
L 429.968718 -46.18934 
L 435.086224 -46.18934 
L 435.086224 -46.395156 
L 435.086224 -46.395156 
L 429.968718 -46.395156 
L 424.851213 -46.395156 
L 419.733707 -46.395156 
L 414.616202 -46.395156 
L 409.498697 -46.395156 
L 404.381191 -46.395156 
L 399.263686 -46.395156 
L 394.14618 -46.395156 
L 389.028675 -46.395156 
L 383.911169 -46.395156 
L 378.793664 -46.395156 
L 373.676158 -46.420892 
L 368.558653 -46.472363 
L 363.441148 -46.54957 
L 358.323642 -46.652513 
L 353.206137 -46.781191 
L 348.088631 -46.935604 
L 342.971126 -47.115754 
L 337.85362 -47.321639 
L 332.736115 -47.553259 
L 327.618609 -47.810616 
L 322.501104 -48.093707 
L 317.383599 -48.402535 
L 312.266093 -48.737098 
L 307.148588 -49.097397 
L 302.031082 -49.483431 
L 296.913577 -49.895201 
L 291.796071 -50.332707 
L 286.678566 -50.795948 
L 281.56106 -51.284925 
L 276.443555 -51.799637 
L 271.32605 -52.288614 
L 266.208544 -52.751855 
L 261.091039 -53.189361 
L 255.973533 -53.601131 
L 250.856028 -53.987165 
L 245.738522 -54.347464 
L 240.621017 -54.682027 
L 235.503511 -54.990854 
L 230.386006 -55.273946 
L 225.268501 -55.531302 
L 220.150995 -55.762923 
L 215.03349 -55.968808 
L 209.915984 -56.148957 
L 204.798479 -56.303371 
L 199.680973 -56.432049 
L 194.563468 -56.534992 
L 189.445962 -56.612199 
L 184.328457 -56.66367 
L 179.210952 -56.689405 
L 174.093446 -56.689405 
L 168.975941 -56.689405 
L 163.858435 -56.689405 
L 158.74093 -56.689405 
L 153.623424 -56.689405 
L 148.505919 -56.689405 
L 143.388413 -56.689405 
L 138.270908 -56.689405 
L 133.153402 -56.689405 
L 128.035897 -56.689405 
L 122.918392 -56.689405 
z
" style="stroke: #5f57db; stroke-opacity: 0.65"/>
    </defs>
    <g clip-path="url(#p83369d2010)">
     <use xlink:href="#me13e261acf" x="0" y="280.512" style="fill: #5f57db; fill-opacity: 0.65; stroke: #5f57db; stroke-opacity: 0.65"/>
    </g>
   </g>
   <g id="PolyCollection_17">
    <defs>
     <path id="mc8a110505a" d="M 122.918392 -62.383659 
L 122.918392 -56.689405 
L 128.035897 -56.689405 
L 133.153402 -56.689405 
L 138.270908 -56.689405 
L 143.388413 -56.689405 
L 148.505919 -56.689405 
L 153.623424 -56.689405 
L 158.74093 -56.689405 
L 163.858435 -56.689405 
L 168.975941 -56.689405 
L 174.093446 -56.689405 
L 179.210952 -56.689405 
L 184.328457 -56.688205 
L 189.445962 -56.685804 
L 194.563468 -56.682202 
L 199.680973 -56.6774 
L 204.798479 -56.671397 
L 209.915984 -56.664193 
L 215.03349 -56.655789 
L 220.150995 -56.646184 
L 225.268501 -56.635379 
L 230.386006 -56.623373 
L 235.503511 -56.610166 
L 240.621017 -56.595759 
L 245.738522 -56.580151 
L 250.856028 -56.563343 
L 255.973533 -56.545334 
L 261.091039 -56.526124 
L 266.208544 -56.505714 
L 271.32605 -56.484104 
L 276.443555 -56.461292 
L 281.56106 -56.43728 
L 286.678566 -56.414469 
L 291.796071 -56.392858 
L 296.913577 -56.372448 
L 302.031082 -56.353239 
L 307.148588 -56.33523 
L 312.266093 -56.318421 
L 317.383599 -56.302814 
L 322.501104 -56.288407 
L 327.618609 -56.2752 
L 332.736115 -56.263194 
L 337.85362 -56.252389 
L 342.971126 -56.242784 
L 348.088631 -56.23438 
L 353.206137 -56.227176 
L 358.323642 -56.221173 
L 363.441148 -56.216371 
L 368.558653 -56.212769 
L 373.676158 -56.210368 
L 378.793664 -56.209167 
L 383.911169 -56.209167 
L 389.028675 -56.209167 
L 394.14618 -56.209167 
L 399.263686 -56.209167 
L 404.381191 -56.209167 
L 409.498697 -56.209167 
L 414.616202 -56.209167 
L 419.733707 -56.209167 
L 424.851213 -56.209167 
L 429.968718 -56.209167 
L 435.086224 -56.209167 
L 435.086224 -61.90342 
L 435.086224 -61.90342 
L 429.968718 -61.90342 
L 424.851213 -61.90342 
L 419.733707 -61.90342 
L 414.616202 -61.90342 
L 409.498697 -61.90342 
L 404.381191 -61.90342 
L 399.263686 -61.90342 
L 394.14618 -61.90342 
L 389.028675 -61.90342 
L 383.911169 -61.90342 
L 378.793664 -61.90342 
L 373.676158 -61.904621 
L 368.558653 -61.907022 
L 363.441148 -61.910624 
L 358.323642 -61.915426 
L 353.206137 -61.921429 
L 348.088631 -61.928633 
L 342.971126 -61.937037 
L 337.85362 -61.946642 
L 332.736115 -61.957447 
L 327.618609 -61.969453 
L 322.501104 -61.98266 
L 317.383599 -61.997067 
L 312.266093 -62.012675 
L 307.148588 -62.029483 
L 302.031082 -62.047492 
L 296.913577 -62.066701 
L 291.796071 -62.087111 
L 286.678566 -62.108722 
L 281.56106 -62.131533 
L 276.443555 -62.155545 
L 271.32605 -62.178357 
L 266.208544 -62.199967 
L 261.091039 -62.220378 
L 255.973533 -62.239587 
L 250.856028 -62.257596 
L 245.738522 -62.274404 
L 240.621017 -62.290012 
L 235.503511 -62.304419 
L 230.386006 -62.317626 
L 225.268501 -62.329632 
L 220.150995 -62.340437 
L 215.03349 -62.350042 
L 209.915984 -62.358446 
L 204.798479 -62.36565 
L 199.680973 -62.371653 
L 194.563468 -62.376455 
L 189.445962 -62.380057 
L 184.328457 -62.382458 
L 179.210952 -62.383659 
L 174.093446 -62.383659 
L 168.975941 -62.383659 
L 163.858435 -62.383659 
L 158.74093 -62.383659 
L 153.623424 -62.383659 
L 148.505919 -62.383659 
L 143.388413 -62.383659 
L 138.270908 -62.383659 
L 133.153402 -62.383659 
L 128.035897 -62.383659 
L 122.918392 -62.383659 
z
" style="stroke: #5f57db; stroke-opacity: 0.65"/>
    </defs>
    <g clip-path="url(#p83369d2010)">
     <use xlink:href="#mc8a110505a" x="0" y="280.512" style="fill: #5f57db; fill-opacity: 0.65; stroke: #5f57db; stroke-opacity: 0.65"/>
    </g>
   </g>
   <g id="PolyCollection_18">
    <defs>
     <path id="m4e6cb3011e" d="M 122.918392 -62.520869 
L 122.918392 -62.383659 
L 128.035897 -62.383659 
L 133.153402 -62.383659 
L 138.270908 -62.383659 
L 143.388413 -62.383659 
L 148.505919 -62.383659 
L 153.623424 -62.383659 
L 158.74093 -62.383659 
L 163.858435 -62.383659 
L 168.975941 -62.383659 
L 174.093446 -62.383659 
L 179.210952 -62.383659 
L 184.328457 -62.407508 
L 189.445962 -62.455205 
L 194.563468 -62.526752 
L 199.680973 -62.622148 
L 204.798479 -62.741393 
L 209.915984 -62.884487 
L 215.03349 -63.05143 
L 220.150995 -63.242222 
L 225.268501 -63.456862 
L 230.386006 -63.695352 
L 235.503511 -63.957691 
L 240.621017 -64.243878 
L 245.738522 -64.553915 
L 250.856028 -64.887801 
L 255.973533 -65.245535 
L 261.091039 -65.627119 
L 266.208544 -66.032551 
L 271.32605 -66.461833 
L 276.443555 -66.914963 
L 281.56106 -67.391943 
L 286.678566 -67.845073 
L 291.796071 -68.274355 
L 296.913577 -68.679787 
L 302.031082 -69.061371 
L 307.148588 -69.419106 
L 312.266093 -69.752991 
L 317.383599 -70.063028 
L 322.501104 -70.349215 
L 327.618609 -70.611554 
L 332.736115 -70.850044 
L 337.85362 -71.064685 
L 342.971126 -71.255476 
L 348.088631 -71.422419 
L 353.206137 -71.565513 
L 358.323642 -71.684758 
L 363.441148 -71.780154 
L 368.558653 -71.851701 
L 373.676158 -71.899399 
L 378.793664 -71.923248 
L 383.911169 -71.923248 
L 389.028675 -71.923248 
L 394.14618 -71.923248 
L 399.263686 -71.923248 
L 404.381191 -71.923248 
L 409.498697 -71.923248 
L 414.616202 -71.923248 
L 419.733707 -71.923248 
L 424.851213 -71.923248 
L 429.968718 -71.923248 
L 435.086224 -71.923248 
L 435.086224 -72.060459 
L 435.086224 -72.060459 
L 429.968718 -72.060459 
L 424.851213 -72.060459 
L 419.733707 -72.060459 
L 414.616202 -72.060459 
L 409.498697 -72.060459 
L 404.381191 -72.060459 
L 399.263686 -72.060459 
L 394.14618 -72.060459 
L 389.028675 -72.060459 
L 383.911169 -72.060459 
L 378.793664 -72.060459 
L 373.676158 -72.03661 
L 368.558653 -71.988912 
L 363.441148 -71.917365 
L 358.323642 -71.821969 
L 353.206137 -71.702724 
L 348.088631 -71.55963 
L 342.971126 -71.392687 
L 337.85362 -71.201896 
L 332.736115 -70.987255 
L 327.618609 -70.748765 
L 322.501104 -70.486426 
L 317.383599 -70.200239 
L 312.266093 -69.890202 
L 307.148588 -69.556316 
L 302.031082 -69.198582 
L 296.913577 -68.816998 
L 291.796071 -68.411566 
L 286.678566 -67.982284 
L 281.56106 -67.529154 
L 276.443555 -67.052174 
L 271.32605 -66.599044 
L 266.208544 -66.169762 
L 261.091039 -65.76433 
L 255.973533 -65.382746 
L 250.856028 -65.025012 
L 245.738522 -64.691126 
L 240.621017 -64.381089 
L 235.503511 -64.094902 
L 230.386006 -63.832563 
L 225.268501 -63.594073 
L 220.150995 -63.379432 
L 215.03349 -63.188641 
L 209.915984 -63.021698 
L 204.798479 -62.878604 
L 199.680973 -62.759359 
L 194.563468 -62.663963 
L 189.445962 -62.592416 
L 184.328457 -62.544718 
L 179.210952 -62.520869 
L 174.093446 -62.520869 
L 168.975941 -62.520869 
L 163.858435 -62.520869 
L 158.74093 -62.520869 
L 153.623424 -62.520869 
L 148.505919 -62.520869 
L 143.388413 -62.520869 
L 138.270908 -62.520869 
L 133.153402 -62.520869 
L 128.035897 -62.520869 
L 122.918392 -62.520869 
z
" style="stroke: #5f57db; stroke-opacity: 0.65"/>
    </defs>
    <g clip-path="url(#p83369d2010)">
     <use xlink:href="#m4e6cb3011e" x="0" y="280.512" style="fill: #5f57db; fill-opacity: 0.65; stroke: #5f57db; stroke-opacity: 0.65"/>
    </g>
   </g>
   <g id="PolyCollection_19">
    <defs>
     <path id="mc063fedb9d" d="M 122.918392 -62.65808 
L 122.918392 -62.520869 
L 128.035897 -62.520869 
L 133.153402 -62.520869 
L 138.270908 -62.520869 
L 143.388413 -62.520869 
L 148.505919 -62.520869 
L 153.623424 -62.520869 
L 158.74093 -62.520869 
L 163.858435 -62.520869 
L 168.975941 -62.520869 
L 174.093446 -62.520869 
L 179.210952 -62.520869 
L 184.328457 -62.737337 
L 189.445962 -63.170272 
L 194.563468 -63.819674 
L 199.680973 -64.685543 
L 204.798479 -65.76788 
L 209.915984 -67.066684 
L 215.03349 -68.581956 
L 220.150995 -70.313695 
L 225.268501 -72.261901 
L 230.386006 -74.426575 
L 235.503511 -76.807716 
L 240.621017 -79.405325 
L 245.738522 -82.219401 
L 250.856028 -85.249944 
L 255.973533 -88.496954 
L 261.091039 -91.960432 
L 266.208544 -95.640378 
L 271.32605 -99.536791 
L 276.443555 -103.649671 
L 281.56106 -107.979018 
L 286.678566 -112.091898 
L 291.796071 -115.988311 
L 296.913577 -119.668256 
L 302.031082 -123.131734 
L 307.148588 -126.378745 
L 312.266093 -129.409288 
L 317.383599 -132.223364 
L 322.501104 -134.820973 
L 327.618609 -137.202114 
L 332.736115 -139.366787 
L 337.85362 -141.314994 
L 342.971126 -143.046733 
L 348.088631 -144.562004 
L 353.206137 -145.860809 
L 358.323642 -146.943146 
L 363.441148 -147.809015 
L 368.558653 -148.458417 
L 373.676158 -148.891352 
L 378.793664 -149.107819 
L 383.911169 -149.107819 
L 389.028675 -149.107819 
L 394.14618 -149.107819 
L 399.263686 -149.107819 
L 404.381191 -149.107819 
L 409.498697 -149.107819 
L 414.616202 -149.107819 
L 419.733707 -149.107819 
L 424.851213 -149.107819 
L 429.968718 -149.107819 
L 435.086224 -149.107819 
L 435.086224 -149.24503 
L 435.086224 -149.24503 
L 429.968718 -149.24503 
L 424.851213 -149.24503 
L 419.733707 -149.24503 
L 414.616202 -149.24503 
L 409.498697 -149.24503 
L 404.381191 -149.24503 
L 399.263686 -149.24503 
L 394.14618 -149.24503 
L 389.028675 -149.24503 
L 383.911169 -149.24503 
L 378.793664 -149.24503 
L 373.676158 -149.028563 
L 368.558653 -148.595628 
L 363.441148 -147.946226 
L 358.323642 -147.080357 
L 353.206137 -145.99802 
L 348.088631 -144.699215 
L 342.971126 -143.183944 
L 337.85362 -141.452205 
L 332.736115 -139.503998 
L 327.618609 -137.339325 
L 322.501104 -134.958184 
L 317.383599 -132.360575 
L 312.266093 -129.546499 
L 307.148588 -126.515956 
L 302.031082 -123.268945 
L 296.913577 -119.805467 
L 291.796071 -116.125522 
L 286.678566 -112.229109 
L 281.56106 -108.116229 
L 276.443555 -103.786882 
L 271.32605 -99.674001 
L 266.208544 -95.777589 
L 261.091039 -92.097643 
L 255.973533 -88.634165 
L 250.856028 -85.387155 
L 245.738522 -82.356611 
L 240.621017 -79.542536 
L 235.503511 -76.944927 
L 230.386006 -74.563786 
L 225.268501 -72.399112 
L 220.150995 -70.450906 
L 215.03349 -68.719167 
L 209.915984 -67.203895 
L 204.798479 -65.905091 
L 199.680973 -64.822754 
L 194.563468 -63.956885 
L 189.445962 -63.307483 
L 184.328457 -62.874548 
L 179.210952 -62.65808 
L 174.093446 -62.65808 
L 168.975941 -62.65808 
L 163.858435 -62.65808 
L 158.74093 -62.65808 
L 153.623424 -62.65808 
L 148.505919 -62.65808 
L 143.388413 -62.65808 
L 138.270908 -62.65808 
L 133.153402 -62.65808 
L 128.035897 -62.65808 
L 122.918392 -62.65808 
z
" style="stroke: #5f57db; stroke-opacity: 0.65"/>
    </defs>
    <g clip-path="url(#p83369d2010)">
     <use xlink:href="#mc063fedb9d" x="0" y="280.512" style="fill: #5f57db; fill-opacity: 0.65; stroke: #5f57db; stroke-opacity: 0.65"/>
    </g>
   </g>
   <g id="PolyCollection_20">
    <defs>
     <path id="m81c23d07a4" d="M 122.918392 -126.190166 
L 122.918392 -72.33488 
L 128.035897 -72.33488 
L 133.153402 -72.33488 
L 138.270908 -72.33488 
L 143.388413 -72.33488 
L 148.505919 -72.33488 
L 153.623424 -72.33488 
L 158.74093 -72.33488 
L 163.858435 -72.33488 
L 168.975941 -72.33488 
L 174.093446 -72.33488 
L 179.210952 -72.33488 
L 184.328457 -72.334194 
L 189.445962 -72.332822 
L 194.563468 -72.330764 
L 199.680973 -72.32802 
L 204.798479 -72.32459 
L 209.915984 -72.320473 
L 215.03349 -72.315671 
L 220.150995 -72.310182 
L 225.268501 -72.304008 
L 230.386006 -72.297147 
L 235.503511 -72.289601 
L 240.621017 -72.281368 
L 245.738522 -72.272449 
L 250.856028 -72.262845 
L 255.973533 -72.252554 
L 261.091039 -72.241577 
L 266.208544 -72.229914 
L 271.32605 -72.217565 
L 276.443555 -72.20453 
L 281.56106 -72.190809 
L 286.678566 -72.177774 
L 291.796071 -72.165425 
L 296.913577 -72.153762 
L 302.031082 -72.142785 
L 307.148588 -72.132494 
L 312.266093 -72.12289 
L 317.383599 -72.113971 
L 322.501104 -72.105738 
L 327.618609 -72.098192 
L 332.736115 -72.091331 
L 337.85362 -72.085157 
L 342.971126 -72.079668 
L 348.088631 -72.074866 
L 353.206137 -72.070749 
L 358.323642 -72.067319 
L 363.441148 -72.064575 
L 368.558653 -72.062517 
L 373.676158 -72.061145 
L 378.793664 -72.060459 
L 383.911169 -72.060459 
L 389.028675 -72.060459 
L 394.14618 -72.060459 
L 399.263686 -72.060459 
L 404.381191 -72.060459 
L 409.498697 -72.060459 
L 414.616202 -72.060459 
L 419.733707 -72.060459 
L 424.851213 -72.060459 
L 429.968718 -72.060459 
L 435.086224 -72.060459 
L 435.086224 -125.915744 
L 435.086224 -125.915744 
L 429.968718 -125.915744 
L 424.851213 -125.915744 
L 419.733707 -125.915744 
L 414.616202 -125.915744 
L 409.498697 -125.915744 
L 404.381191 -125.915744 
L 399.263686 -125.915744 
L 394.14618 -125.915744 
L 389.028675 -125.915744 
L 383.911169 -125.915744 
L 378.793664 -125.915744 
L 373.676158 -125.91643 
L 368.558653 -125.917802 
L 363.441148 -125.91986 
L 358.323642 -125.922604 
L 353.206137 -125.926035 
L 348.088631 -125.930151 
L 342.971126 -125.934953 
L 337.85362 -125.940442 
L 332.736115 -125.946616 
L 327.618609 -125.953477 
L 322.501104 -125.961024 
L 317.383599 -125.969256 
L 312.266093 -125.978175 
L 307.148588 -125.98778 
L 302.031082 -125.99807 
L 296.913577 -126.009047 
L 291.796071 -126.02071 
L 286.678566 -126.033059 
L 281.56106 -126.046094 
L 276.443555 -126.059815 
L 271.32605 -126.07285 
L 266.208544 -126.085199 
L 261.091039 -126.096862 
L 255.973533 -126.107839 
L 250.856028 -126.11813 
L 245.738522 -126.127735 
L 240.621017 -126.136653 
L 235.503511 -126.144886 
L 230.386006 -126.152433 
L 225.268501 -126.159293 
L 220.150995 -126.165468 
L 215.03349 -126.170956 
L 209.915984 -126.175759 
L 204.798479 -126.179875 
L 199.680973 -126.183305 
L 194.563468 -126.186049 
L 189.445962 -126.188108 
L 184.328457 -126.18948 
L 179.210952 -126.190166 
L 174.093446 -126.190166 
L 168.975941 -126.190166 
L 163.858435 -126.190166 
L 158.74093 -126.190166 
L 153.623424 -126.190166 
L 148.505919 -126.190166 
L 143.388413 -126.190166 
L 138.270908 -126.190166 
L 133.153402 -126.190166 
L 128.035897 -126.190166 
L 122.918392 -126.190166 
z
" style="stroke: #db57d3; stroke-opacity: 0.65"/>
    </defs>
    <g clip-path="url(#p83369d2010)">
     <use xlink:href="#m81c23d07a4" x="0" y="280.512" style="fill: #db57d3; fill-opacity: 0.65; stroke: #db57d3; stroke-opacity: 0.65"/>
    </g>
   </g>
   <g id="PolyCollection_21">
    <defs>
     <path id="m099ac76105" d="M 122.918392 -127.63088 
L 122.918392 -126.190166 
L 128.035897 -126.190166 
L 133.153402 -126.190166 
L 138.270908 -126.190166 
L 143.388413 -126.190166 
L 148.505919 -126.190166 
L 153.623424 -126.190166 
L 158.74093 -126.190166 
L 163.858435 -126.190166 
L 168.975941 -126.190166 
L 174.093446 -126.190166 
L 179.210952 -126.190166 
L 184.328457 -126.247803 
L 189.445962 -126.363077 
L 194.563468 -126.535989 
L 199.680973 -126.766537 
L 204.798479 -127.054723 
L 209.915984 -127.400546 
L 215.03349 -127.804006 
L 220.150995 -128.265104 
L 225.268501 -128.783838 
L 230.386006 -129.36021 
L 235.503511 -129.994218 
L 240.621017 -130.685864 
L 245.738522 -131.435147 
L 250.856028 -132.242068 
L 255.973533 -133.106625 
L 261.091039 -134.02882 
L 266.208544 -135.008651 
L 271.32605 -136.04612 
L 276.443555 -137.141226 
L 281.56106 -138.29397 
L 286.678566 -139.389076 
L 291.796071 -140.426545 
L 296.913577 -141.406376 
L 302.031082 -142.328571 
L 307.148588 -143.193128 
L 312.266093 -144.000049 
L 317.383599 -144.749332 
L 322.501104 -145.440978 
L 327.618609 -146.074986 
L 332.736115 -146.651358 
L 337.85362 -147.170092 
L 342.971126 -147.63119 
L 348.088631 -148.03465 
L 353.206137 -148.380473 
L 358.323642 -148.668659 
L 363.441148 -148.899207 
L 368.558653 -149.072119 
L 373.676158 -149.187393 
L 378.793664 -149.24503 
L 383.911169 -149.24503 
L 389.028675 -149.24503 
L 394.14618 -149.24503 
L 399.263686 -149.24503 
L 404.381191 -149.24503 
L 409.498697 -149.24503 
L 414.616202 -149.24503 
L 419.733707 -149.24503 
L 424.851213 -149.24503 
L 429.968718 -149.24503 
L 435.086224 -149.24503 
L 435.086224 -150.685745 
L 435.086224 -150.685745 
L 429.968718 -150.685745 
L 424.851213 -150.685745 
L 419.733707 -150.685745 
L 414.616202 -150.685745 
L 409.498697 -150.685745 
L 404.381191 -150.685745 
L 399.263686 -150.685745 
L 394.14618 -150.685745 
L 389.028675 -150.685745 
L 383.911169 -150.685745 
L 378.793664 -150.685745 
L 373.676158 -150.628108 
L 368.558653 -150.512833 
L 363.441148 -150.339922 
L 358.323642 -150.109373 
L 353.206137 -149.821187 
L 348.088631 -149.475365 
L 342.971126 -149.071904 
L 337.85362 -148.610807 
L 332.736115 -148.092073 
L 327.618609 -147.515701 
L 322.501104 -146.881692 
L 317.383599 -146.190046 
L 312.266093 -145.440763 
L 307.148588 -144.633843 
L 302.031082 -143.769286 
L 296.913577 -142.847091 
L 291.796071 -141.867259 
L 286.678566 -140.82979 
L 281.56106 -139.734684 
L 276.443555 -138.581941 
L 271.32605 -137.486835 
L 266.208544 -136.449366 
L 261.091039 -135.469534 
L 255.973533 -134.54734 
L 250.856028 -133.682782 
L 245.738522 -132.875862 
L 240.621017 -132.126579 
L 235.503511 -131.434933 
L 230.386006 -130.800924 
L 225.268501 -130.224553 
L 220.150995 -129.705818 
L 215.03349 -129.244721 
L 209.915984 -128.841261 
L 204.798479 -128.495438 
L 199.680973 -128.207252 
L 194.563468 -127.976703 
L 189.445962 -127.803792 
L 184.328457 -127.688518 
L 179.210952 -127.63088 
L 174.093446 -127.63088 
L 168.975941 -127.63088 
L 163.858435 -127.63088 
L 158.74093 -127.63088 
L 153.623424 -127.63088 
L 148.505919 -127.63088 
L 143.388413 -127.63088 
L 138.270908 -127.63088 
L 133.153402 -127.63088 
L 128.035897 -127.63088 
L 122.918392 -127.63088 
z
" style="stroke: #db57d3; stroke-opacity: 0.65"/>
    </defs>
    <g clip-path="url(#p83369d2010)">
     <use xlink:href="#m099ac76105" x="0" y="280.512" style="fill: #db57d3; fill-opacity: 0.65; stroke: #db57d3; stroke-opacity: 0.65"/>
    </g>
   </g>
   <g id="PolyCollection_22">
    <defs>
     <path id="mc446a9d821" d="M 122.918392 -137.444891 
L 122.918392 -137.30768 
L 128.035897 -137.30768 
L 133.153402 -137.30768 
L 138.270908 -137.30768 
L 143.388413 -137.30768 
L 148.505919 -137.30768 
L 153.623424 -137.30768 
L 158.74093 -137.30768 
L 163.858435 -137.30768 
L 168.975941 -137.30768 
L 174.093446 -137.30768 
L 179.210952 -137.30768 
L 184.328457 -137.080399 
L 189.445962 -136.625836 
L 194.563468 -135.943993 
L 199.680973 -135.034867 
L 204.798479 -133.898461 
L 209.915984 -132.534773 
L 215.03349 -130.943804 
L 220.150995 -129.125553 
L 225.268501 -127.080021 
L 230.386006 -124.807208 
L 235.503511 -122.307114 
L 240.621017 -119.579738 
L 245.738522 -116.625081 
L 250.856028 -113.443143 
L 255.973533 -110.033923 
L 261.091039 -106.397422 
L 266.208544 -102.53364 
L 271.32605 -98.442576 
L 276.443555 -94.124231 
L 281.56106 -89.578605 
L 286.678566 -85.26026 
L 291.796071 -81.169197 
L 296.913577 -77.305415 
L 302.031082 -73.668914 
L 307.148588 -70.259694 
L 312.266093 -67.077756 
L 317.383599 -64.123099 
L 322.501104 -61.395723 
L 327.618609 -58.895628 
L 332.736115 -56.622815 
L 337.85362 -54.577283 
L 342.971126 -52.759033 
L 348.088631 -51.168064 
L 353.206137 -49.804376 
L 358.323642 -48.667969 
L 363.441148 -47.758844 
L 368.558653 -47.077 
L 373.676158 -46.622438 
L 378.793664 -46.395156 
L 383.911169 -46.395156 
L 389.028675 -46.395156 
L 394.14618 -46.395156 
L 399.263686 -46.395156 
L 404.381191 -46.395156 
L 409.498697 -46.395156 
L 414.616202 -46.395156 
L 419.733707 -46.395156 
L 424.851213 -46.395156 
L 429.968718 -46.395156 
L 435.086224 -46.395156 
L 435.086224 -46.532367 
L 435.086224 -46.532367 
L 429.968718 -46.532367 
L 424.851213 -46.532367 
L 419.733707 -46.532367 
L 414.616202 -46.532367 
L 409.498697 -46.532367 
L 404.381191 -46.532367 
L 399.263686 -46.532367 
L 394.14618 -46.532367 
L 389.028675 -46.532367 
L 383.911169 -46.532367 
L 378.793664 -46.532367 
L 373.676158 -46.759649 
L 368.558653 -47.214211 
L 363.441148 -47.896055 
L 358.323642 -48.80518 
L 353.206137 -49.941587 
L 348.088631 -51.305275 
L 342.971126 -52.896244 
L 337.85362 -54.714494 
L 332.736115 -56.760026 
L 327.618609 -59.032839 
L 322.501104 -61.532934 
L 317.383599 -64.260309 
L 312.266093 -67.214966 
L 307.148588 -70.396905 
L 302.031082 -73.806124 
L 296.913577 -77.442625 
L 291.796071 -81.306408 
L 286.678566 -85.397471 
L 281.56106 -89.715816 
L 276.443555 -94.261442 
L 271.32605 -98.579787 
L 266.208544 -102.670851 
L 261.091039 -106.534633 
L 255.973533 -110.171134 
L 250.856028 -113.580354 
L 245.738522 -116.762292 
L 240.621017 -119.716949 
L 235.503511 -122.444325 
L 230.386006 -124.944419 
L 225.268501 -127.217232 
L 220.150995 -129.262764 
L 215.03349 -131.081015 
L 209.915984 -132.671984 
L 204.798479 -134.035672 
L 199.680973 -135.172078 
L 194.563468 -136.081203 
L 189.445962 -136.763047 
L 184.328457 -137.21761 
L 179.210952 -137.444891 
L 174.093446 -137.444891 
L 168.975941 -137.444891 
L 163.858435 -137.444891 
L 158.74093 -137.444891 
L 153.623424 -137.444891 
L 148.505919 -137.444891 
L 143.388413 -137.444891 
L 138.270908 -137.444891 
L 133.153402 -137.444891 
L 128.035897 -137.444891 
L 122.918392 -137.444891 
z
" style="stroke: #db5f57; stroke-opacity: 0.65"/>
    </defs>
    <g clip-path="url(#p83369d2010)">
     <use xlink:href="#mc446a9d821" x="0" y="280.512" style="fill: #db5f57; fill-opacity: 0.65; stroke: #db5f57; stroke-opacity: 0.65"/>
    </g>
   </g>
   <g id="PolyCollection_23">
    <defs>
     <path id="m073606f48d" d="M 122.918392 -150.411323 
L 122.918392 -137.444891 
L 128.035897 -137.444891 
L 133.153402 -137.444891 
L 138.270908 -137.444891 
L 143.388413 -137.444891 
L 148.505919 -137.444891 
L 153.623424 -137.444891 
L 158.74093 -137.444891 
L 163.858435 -137.444891 
L 168.975941 -137.444891 
L 174.093446 -137.444891 
L 179.210952 -137.444891 
L 184.328457 -137.416068 
L 189.445962 -137.358423 
L 194.563468 -137.271954 
L 199.680973 -137.156663 
L 204.798479 -137.012548 
L 209.915984 -136.839611 
L 215.03349 -136.637851 
L 220.150995 -136.407268 
L 225.268501 -136.147862 
L 230.386006 -135.859634 
L 235.503511 -135.542582 
L 240.621017 -135.196708 
L 245.738522 -134.82201 
L 250.856028 -134.41849 
L 255.973533 -133.986147 
L 261.091039 -133.524981 
L 266.208544 -133.034992 
L 271.32605 -132.516181 
L 276.443555 -131.968546 
L 281.56106 -131.392089 
L 286.678566 -130.844454 
L 291.796071 -130.325643 
L 296.913577 -129.835654 
L 302.031082 -129.374488 
L 307.148588 -128.942145 
L 312.266093 -128.538625 
L 317.383599 -128.163928 
L 322.501104 -127.818053 
L 327.618609 -127.501002 
L 332.736115 -127.212773 
L 337.85362 -126.953367 
L 342.971126 -126.722784 
L 348.088631 -126.521024 
L 353.206137 -126.348087 
L 358.323642 -126.203973 
L 363.441148 -126.088681 
L 368.558653 -126.002213 
L 373.676158 -125.944567 
L 378.793664 -125.915744 
L 383.911169 -125.915744 
L 389.028675 -125.915744 
L 394.14618 -125.915744 
L 399.263686 -125.915744 
L 404.381191 -125.915744 
L 409.498697 -125.915744 
L 414.616202 -125.915744 
L 419.733707 -125.915744 
L 424.851213 -125.915744 
L 429.968718 -125.915744 
L 435.086224 -125.915744 
L 435.086224 -138.882176 
L 435.086224 -138.882176 
L 429.968718 -138.882176 
L 424.851213 -138.882176 
L 419.733707 -138.882176 
L 414.616202 -138.882176 
L 409.498697 -138.882176 
L 404.381191 -138.882176 
L 399.263686 -138.882176 
L 394.14618 -138.882176 
L 389.028675 -138.882176 
L 383.911169 -138.882176 
L 378.793664 -138.882176 
L 373.676158 -138.910999 
L 368.558653 -138.968644 
L 363.441148 -139.055113 
L 358.323642 -139.170404 
L 353.206137 -139.314519 
L 348.088631 -139.487456 
L 342.971126 -139.689216 
L 337.85362 -139.919799 
L 332.736115 -140.179205 
L 327.618609 -140.467433 
L 322.501104 -140.784485 
L 317.383599 -141.130359 
L 312.266093 -141.505057 
L 307.148588 -141.908577 
L 302.031082 -142.34092 
L 296.913577 -142.802086 
L 291.796071 -143.292075 
L 286.678566 -143.810886 
L 281.56106 -144.358521 
L 276.443555 -144.934978 
L 271.32605 -145.482613 
L 266.208544 -146.001424 
L 261.091039 -146.491413 
L 255.973533 -146.952579 
L 250.856028 -147.384922 
L 245.738522 -147.788442 
L 240.621017 -148.163139 
L 235.503511 -148.509014 
L 230.386006 -148.826065 
L 225.268501 -149.114294 
L 220.150995 -149.3737 
L 215.03349 -149.604283 
L 209.915984 -149.806043 
L 204.798479 -149.97898 
L 199.680973 -150.123094 
L 194.563468 -150.238386 
L 189.445962 -150.324854 
L 184.328457 -150.3825 
L 179.210952 -150.411323 
L 174.093446 -150.411323 
L 168.975941 -150.411323 
L 163.858435 -150.411323 
L 158.74093 -150.411323 
L 153.623424 -150.411323 
L 148.505919 -150.411323 
L 143.388413 -150.411323 
L 138.270908 -150.411323 
L 133.153402 -150.411323 
L 128.035897 -150.411323 
L 122.918392 -150.411323 
z
" style="stroke: #db5f57; stroke-opacity: 0.65"/>
    </defs>
    <g clip-path="url(#p83369d2010)">
     <use xlink:href="#m073606f48d" x="0" y="280.512" style="fill: #db5f57; fill-opacity: 0.65; stroke: #db5f57; stroke-opacity: 0.65"/>
    </g>
   </g>
   <g id="PolyCollection_24">
    <defs>
     <path id="med2cd21f9e" d="M 122.918392 -194.867661 
L 122.918392 -150.411323 
L 128.035897 -150.411323 
L 133.153402 -150.411323 
L 138.270908 -150.411323 
L 143.388413 -150.411323 
L 148.505919 -150.411323 
L 153.623424 -150.411323 
L 158.74093 -150.411323 
L 163.858435 -150.411323 
L 168.975941 -150.411323 
L 174.093446 -150.411323 
L 179.210952 -150.411323 
L 184.328457 -150.412009 
L 189.445962 -150.413381 
L 194.563468 -150.415439 
L 199.680973 -150.418184 
L 204.798479 -150.421614 
L 209.915984 -150.42573 
L 215.03349 -150.430533 
L 220.150995 -150.436021 
L 225.268501 -150.442196 
L 230.386006 -150.449056 
L 235.503511 -150.456603 
L 240.621017 -150.464835 
L 245.738522 -150.473754 
L 250.856028 -150.483359 
L 255.973533 -150.49365 
L 261.091039 -150.504627 
L 266.208544 -150.516289 
L 271.32605 -150.528638 
L 276.443555 -150.541673 
L 281.56106 -150.555395 
L 286.678566 -150.56843 
L 291.796071 -150.580779 
L 296.913577 -150.592441 
L 302.031082 -150.603418 
L 307.148588 -150.613709 
L 312.266093 -150.623314 
L 317.383599 -150.632233 
L 322.501104 -150.640465 
L 327.618609 -150.648012 
L 332.736115 -150.654872 
L 337.85362 -150.661047 
L 342.971126 -150.666535 
L 348.088631 -150.671338 
L 353.206137 -150.675454 
L 358.323642 -150.678884 
L 363.441148 -150.681629 
L 368.558653 -150.683687 
L 373.676158 -150.685059 
L 378.793664 -150.685745 
L 383.911169 -150.685745 
L 389.028675 -150.685745 
L 394.14618 -150.685745 
L 399.263686 -150.685745 
L 404.381191 -150.685745 
L 409.498697 -150.685745 
L 414.616202 -150.685745 
L 419.733707 -150.685745 
L 424.851213 -150.685745 
L 429.968718 -150.685745 
L 435.086224 -150.685745 
L 435.086224 -195.142082 
L 435.086224 -195.142082 
L 429.968718 -195.142082 
L 424.851213 -195.142082 
L 419.733707 -195.142082 
L 414.616202 -195.142082 
L 409.498697 -195.142082 
L 404.381191 -195.142082 
L 399.263686 -195.142082 
L 394.14618 -195.142082 
L 389.028675 -195.142082 
L 383.911169 -195.142082 
L 378.793664 -195.142082 
L 373.676158 -195.141396 
L 368.558653 -195.140024 
L 363.441148 -195.137966 
L 358.323642 -195.135222 
L 353.206137 -195.131792 
L 348.088631 -195.127675 
L 342.971126 -195.122873 
L 337.85362 -195.117384 
L 332.736115 -195.11121 
L 327.618609 -195.104349 
L 322.501104 -195.096803 
L 317.383599 -195.08857 
L 312.266093 -195.079651 
L 307.148588 -195.070047 
L 302.031082 -195.059756 
L 296.913577 -195.048779 
L 291.796071 -195.037116 
L 286.678566 -195.024767 
L 281.56106 -195.011732 
L 276.443555 -194.998011 
L 271.32605 -194.984976 
L 266.208544 -194.972627 
L 261.091039 -194.960964 
L 255.973533 -194.949987 
L 250.856028 -194.939696 
L 245.738522 -194.930092 
L 240.621017 -194.921173 
L 235.503511 -194.91294 
L 230.386006 -194.905394 
L 225.268501 -194.898533 
L 220.150995 -194.892359 
L 215.03349 -194.88687 
L 209.915984 -194.882068 
L 204.798479 -194.877951 
L 199.680973 -194.874521 
L 194.563468 -194.871777 
L 189.445962 -194.869719 
L 184.328457 -194.868347 
L 179.210952 -194.867661 
L 174.093446 -194.867661 
L 168.975941 -194.867661 
L 163.858435 -194.867661 
L 158.74093 -194.867661 
L 153.623424 -194.867661 
L 148.505919 -194.867661 
L 143.388413 -194.867661 
L 138.270908 -194.867661 
L 133.153402 -194.867661 
L 128.035897 -194.867661 
L 122.918392 -194.867661 
z
" style="stroke: #db5f57; stroke-opacity: 0.65"/>
    </defs>
    <g clip-path="url(#p83369d2010)">
     <use xlink:href="#med2cd21f9e" x="0" y="280.512" style="fill: #db5f57; fill-opacity: 0.65; stroke: #db5f57; stroke-opacity: 0.65"/>
    </g>
   </g>
   <g id="PolyCollection_25">
    <defs>
     <path id="m1f781d1710" d="M 122.918392 -204.613066 
L 122.918392 -204.544461 
L 128.035897 -204.544461 
L 133.153402 -204.544461 
L 138.270908 -204.544461 
L 143.388413 -204.544461 
L 148.505919 -204.544461 
L 153.623424 -204.544461 
L 158.74093 -204.544461 
L 163.858435 -204.544461 
L 168.975941 -204.544461 
L 174.093446 -204.544461 
L 179.210952 -204.544461 
L 184.328457 -204.187858 
L 189.445962 -203.474653 
L 194.563468 -202.404845 
L 199.680973 -200.978435 
L 204.798479 -199.195422 
L 209.915984 -197.055806 
L 215.03349 -194.559588 
L 220.150995 -191.706767 
L 225.268501 -188.497344 
L 230.386006 -184.931318 
L 235.503511 -181.008689 
L 240.621017 -176.729458 
L 245.738522 -172.093624 
L 250.856028 -167.101187 
L 255.973533 -161.752148 
L 261.091039 -156.046507 
L 266.208544 -149.984263 
L 271.32605 -143.565416 
L 276.443555 -136.789966 
L 281.56106 -129.657914 
L 286.678566 -122.882465 
L 291.796071 -116.463618 
L 296.913577 -110.401374 
L 302.031082 -104.695732 
L 307.148588 -99.346693 
L 312.266093 -94.354257 
L 317.383599 -89.718423 
L 322.501104 -85.439192 
L 327.618609 -81.516563 
L 332.736115 -77.950537 
L 337.85362 -74.741114 
L 342.971126 -71.888293 
L 348.088631 -69.392075 
L 353.206137 -67.252459 
L 358.323642 -65.469446 
L 363.441148 -64.043036 
L 368.558653 -62.973228 
L 373.676158 -62.260023 
L 378.793664 -61.90342 
L 383.911169 -61.90342 
L 389.028675 -61.90342 
L 394.14618 -61.90342 
L 399.263686 -61.90342 
L 404.381191 -61.90342 
L 409.498697 -61.90342 
L 414.616202 -61.90342 
L 419.733707 -61.90342 
L 424.851213 -61.90342 
L 429.968718 -61.90342 
L 435.086224 -61.90342 
L 435.086224 -61.972026 
L 435.086224 -61.972026 
L 429.968718 -61.972026 
L 424.851213 -61.972026 
L 419.733707 -61.972026 
L 414.616202 -61.972026 
L 409.498697 -61.972026 
L 404.381191 -61.972026 
L 399.263686 -61.972026 
L 394.14618 -61.972026 
L 389.028675 -61.972026 
L 383.911169 -61.972026 
L 378.793664 -61.972026 
L 373.676158 -62.328628 
L 368.558653 -63.041834 
L 363.441148 -64.111641 
L 358.323642 -65.538052 
L 353.206137 -67.321065 
L 348.088631 -69.46068 
L 342.971126 -71.956899 
L 337.85362 -74.809719 
L 332.736115 -78.019143 
L 327.618609 -81.585169 
L 322.501104 -85.507797 
L 317.383599 -89.787029 
L 312.266093 -94.422862 
L 307.148588 -99.415299 
L 302.031082 -104.764338 
L 296.913577 -110.469979 
L 291.796071 -116.532224 
L 286.678566 -122.95107 
L 281.56106 -129.72652 
L 276.443555 -136.858572 
L 271.32605 -143.634021 
L 266.208544 -150.052868 
L 261.091039 -156.115112 
L 255.973533 -161.820754 
L 250.856028 -167.169793 
L 245.738522 -172.162229 
L 240.621017 -176.798063 
L 235.503511 -181.077294 
L 230.386006 -184.999923 
L 225.268501 -188.565949 
L 220.150995 -191.775372 
L 215.03349 -194.628193 
L 209.915984 -197.124411 
L 204.798479 -199.264027 
L 199.680973 -201.04704 
L 194.563468 -202.47345 
L 189.445962 -203.543258 
L 184.328457 -204.256463 
L 179.210952 -204.613066 
L 174.093446 -204.613066 
L 168.975941 -204.613066 
L 163.858435 -204.613066 
L 158.74093 -204.613066 
L 153.623424 -204.613066 
L 148.505919 -204.613066 
L 143.388413 -204.613066 
L 138.270908 -204.613066 
L 133.153402 -204.613066 
L 128.035897 -204.613066 
L 122.918392 -204.613066 
z
" style="stroke: #d3db57; stroke-opacity: 0.65"/>
    </defs>
    <g clip-path="url(#p83369d2010)">
     <use xlink:href="#m1f781d1710" x="0" y="280.512" style="fill: #d3db57; fill-opacity: 0.65; stroke: #d3db57; stroke-opacity: 0.65"/>
    </g>
   </g>
   <g id="PolyCollection_26">
    <defs>
     <path id="me7c6f7576e" d="M 122.918392 -204.818882 
L 122.918392 -204.613066 
L 128.035897 -204.613066 
L 133.153402 -204.613066 
L 138.270908 -204.613066 
L 143.388413 -204.613066 
L 148.505919 -204.613066 
L 153.623424 -204.613066 
L 158.74093 -204.613066 
L 163.858435 -204.613066 
L 168.975941 -204.613066 
L 174.093446 -204.613066 
L 179.210952 -204.613066 
L 184.328457 -204.448739 
L 189.445962 -204.120084 
L 194.563468 -203.627103 
L 199.680973 -202.969794 
L 204.798479 -202.148158 
L 209.915984 -201.162194 
L 215.03349 -200.011904 
L 220.150995 -198.697286 
L 225.268501 -197.218341 
L 230.386006 -195.575069 
L 235.503511 -193.767469 
L 240.621017 -191.795542 
L 245.738522 -189.659288 
L 250.856028 -187.358707 
L 255.973533 -184.893799 
L 261.091039 -182.264563 
L 266.208544 -179.471 
L 271.32605 -176.51311 
L 276.443555 -173.390893 
L 281.56106 -170.104349 
L 286.678566 -166.982131 
L 291.796071 -164.024241 
L 296.913577 -161.230678 
L 302.031082 -158.601443 
L 307.148588 -156.136534 
L 312.266093 -153.835953 
L 317.383599 -151.699699 
L 322.501104 -149.727773 
L 327.618609 -147.920173 
L 332.736115 -146.276901 
L 337.85362 -144.797956 
L 342.971126 -143.483338 
L 348.088631 -142.333047 
L 353.206137 -141.347084 
L 358.323642 -140.525448 
L 363.441148 -139.868139 
L 368.558653 -139.375157 
L 373.676158 -139.046503 
L 378.793664 -138.882176 
L 383.911169 -138.882176 
L 389.028675 -138.882176 
L 394.14618 -138.882176 
L 399.263686 -138.882176 
L 404.381191 -138.882176 
L 409.498697 -138.882176 
L 414.616202 -138.882176 
L 419.733707 -138.882176 
L 424.851213 -138.882176 
L 429.968718 -138.882176 
L 435.086224 -138.882176 
L 435.086224 -139.087992 
L 435.086224 -139.087992 
L 429.968718 -139.087992 
L 424.851213 -139.087992 
L 419.733707 -139.087992 
L 414.616202 -139.087992 
L 409.498697 -139.087992 
L 404.381191 -139.087992 
L 399.263686 -139.087992 
L 394.14618 -139.087992 
L 389.028675 -139.087992 
L 383.911169 -139.087992 
L 378.793664 -139.087992 
L 373.676158 -139.252319 
L 368.558653 -139.580974 
L 363.441148 -140.073955 
L 358.323642 -140.731264 
L 353.206137 -141.5529 
L 348.088631 -142.538864 
L 342.971126 -143.689154 
L 337.85362 -145.003772 
L 332.736115 -146.482717 
L 327.618609 -148.125989 
L 322.501104 -149.933589 
L 317.383599 -151.905516 
L 312.266093 -154.04177 
L 307.148588 -156.342351 
L 302.031082 -158.807259 
L 296.913577 -161.436495 
L 291.796071 -164.230058 
L 286.678566 -167.187948 
L 281.56106 -170.310165 
L 276.443555 -173.596709 
L 271.32605 -176.718927 
L 266.208544 -179.676817 
L 261.091039 -182.47038 
L 255.973533 -185.099615 
L 250.856028 -187.564524 
L 245.738522 -189.865105 
L 240.621017 -192.001359 
L 235.503511 -193.973285 
L 230.386006 -195.780885 
L 225.268501 -197.424157 
L 220.150995 -198.903102 
L 215.03349 -200.21772 
L 209.915984 -201.368011 
L 204.798479 -202.353974 
L 199.680973 -203.17561 
L 194.563468 -203.832919 
L 189.445962 -204.325901 
L 184.328457 -204.654555 
L 179.210952 -204.818882 
L 174.093446 -204.818882 
L 168.975941 -204.818882 
L 163.858435 -204.818882 
L 158.74093 -204.818882 
L 153.623424 -204.818882 
L 148.505919 -204.818882 
L 143.388413 -204.818882 
L 138.270908 -204.818882 
L 133.153402 -204.818882 
L 128.035897 -204.818882 
L 122.918392 -204.818882 
z
" style="stroke: #d3db57; stroke-opacity: 0.65"/>
    </defs>
    <g clip-path="url(#p83369d2010)">
     <use xlink:href="#me7c6f7576e" x="0" y="280.512" style="fill: #d3db57; fill-opacity: 0.65; stroke: #d3db57; stroke-opacity: 0.65"/>
    </g>
   </g>
   <g id="PolyCollection_27">
    <defs>
     <path id="mbcc66c08cd" d="M 122.918392 -212.091061 
L 122.918392 -204.818882 
L 128.035897 -204.818882 
L 133.153402 -204.818882 
L 138.270908 -204.818882 
L 143.388413 -204.818882 
L 148.505919 -204.818882 
L 153.623424 -204.818882 
L 158.74093 -204.818882 
L 163.858435 -204.818882 
L 168.975941 -204.818882 
L 174.093446 -204.818882 
L 179.210952 -204.818882 
L 184.328457 -204.79469 
L 189.445962 -204.746306 
L 194.563468 -204.67373 
L 199.680973 -204.576962 
L 204.798479 -204.456002 
L 209.915984 -204.31085 
L 215.03349 -204.141506 
L 220.150995 -203.94797 
L 225.268501 -203.730242 
L 230.386006 -203.488322 
L 235.503511 -203.22221 
L 240.621017 -202.931906 
L 245.738522 -202.61741 
L 250.856028 -202.278722 
L 255.973533 -201.915842 
L 261.091039 -201.52877 
L 266.208544 -201.117506 
L 271.32605 -200.68205 
L 276.443555 -200.222402 
L 281.56106 -199.738562 
L 286.678566 -199.278914 
L 291.796071 -198.843458 
L 296.913577 -198.432194 
L 302.031082 -198.045122 
L 307.148588 -197.682242 
L 312.266093 -197.343554 
L 317.383599 -197.029058 
L 322.501104 -196.738754 
L 327.618609 -196.472642 
L 332.736115 -196.230722 
L 337.85362 -196.012994 
L 342.971126 -195.819458 
L 348.088631 -195.650114 
L 353.206137 -195.504962 
L 358.323642 -195.384002 
L 363.441148 -195.287234 
L 368.558653 -195.214658 
L 373.676158 -195.166274 
L 378.793664 -195.142082 
L 383.911169 -195.142082 
L 389.028675 -195.142082 
L 394.14618 -195.142082 
L 399.263686 -195.142082 
L 404.381191 -195.142082 
L 409.498697 -195.142082 
L 414.616202 -195.142082 
L 419.733707 -195.142082 
L 424.851213 -195.142082 
L 429.968718 -195.142082 
L 435.086224 -195.142082 
L 435.086224 -202.414261 
L 435.086224 -202.414261 
L 429.968718 -202.414261 
L 424.851213 -202.414261 
L 419.733707 -202.414261 
L 414.616202 -202.414261 
L 409.498697 -202.414261 
L 404.381191 -202.414261 
L 399.263686 -202.414261 
L 394.14618 -202.414261 
L 389.028675 -202.414261 
L 383.911169 -202.414261 
L 378.793664 -202.414261 
L 373.676158 -202.438453 
L 368.558653 -202.486837 
L 363.441148 -202.559413 
L 358.323642 -202.656181 
L 353.206137 -202.777141 
L 348.088631 -202.922293 
L 342.971126 -203.091637 
L 337.85362 -203.285173 
L 332.736115 -203.502901 
L 327.618609 -203.744821 
L 322.501104 -204.010933 
L 317.383599 -204.301237 
L 312.266093 -204.615733 
L 307.148588 -204.954421 
L 302.031082 -205.317301 
L 296.913577 -205.704373 
L 291.796071 -206.115637 
L 286.678566 -206.551093 
L 281.56106 -207.010741 
L 276.443555 -207.494581 
L 271.32605 -207.954229 
L 266.208544 -208.389685 
L 261.091039 -208.800949 
L 255.973533 -209.188021 
L 250.856028 -209.550901 
L 245.738522 -209.889589 
L 240.621017 -210.204085 
L 235.503511 -210.494389 
L 230.386006 -210.760501 
L 225.268501 -211.002421 
L 220.150995 -211.220149 
L 215.03349 -211.413685 
L 209.915984 -211.583029 
L 204.798479 -211.728181 
L 199.680973 -211.849141 
L 194.563468 -211.945909 
L 189.445962 -212.018485 
L 184.328457 -212.066869 
L 179.210952 -212.091061 
L 174.093446 -212.091061 
L 168.975941 -212.091061 
L 163.858435 -212.091061 
L 158.74093 -212.091061 
L 153.623424 -212.091061 
L 148.505919 -212.091061 
L 143.388413 -212.091061 
L 138.270908 -212.091061 
L 133.153402 -212.091061 
L 128.035897 -212.091061 
L 122.918392 -212.091061 
z
" style="stroke: #d3db57; stroke-opacity: 0.65"/>
    </defs>
    <g clip-path="url(#p83369d2010)">
     <use xlink:href="#mbcc66c08cd" x="0" y="280.512" style="fill: #d3db57; fill-opacity: 0.65; stroke: #d3db57; stroke-opacity: 0.65"/>
    </g>
   </g>
   <g id="PolyCollection_28">
    <defs>
     <path id="me743779222" d="M 122.918392 -222.042283 
L 122.918392 -221.767861 
L 128.035897 -221.767861 
L 133.153402 -221.767861 
L 138.270908 -221.767861 
L 143.388413 -221.767861 
L 148.505919 -221.767861 
L 153.623424 -221.767861 
L 158.74093 -221.767861 
L 163.858435 -221.767861 
L 168.975941 -221.767861 
L 174.093446 -221.767861 
L 179.210952 -221.767861 
L 184.328457 -221.719477 
L 189.445962 -221.622709 
L 194.563468 -221.477557 
L 199.680973 -221.284021 
L 204.798479 -221.042101 
L 209.915984 -220.751797 
L 215.03349 -220.413109 
L 220.150995 -220.026037 
L 225.268501 -219.590581 
L 230.386006 -219.106741 
L 235.503511 -218.574517 
L 240.621017 -217.993909 
L 245.738522 -217.364917 
L 250.856028 -216.687541 
L 255.973533 -215.961781 
L 261.091039 -215.187637 
L 266.208544 -214.365109 
L 271.32605 -213.494197 
L 276.443555 -212.574901 
L 281.56106 -211.607221 
L 286.678566 -210.687925 
L 291.796071 -209.817013 
L 296.913577 -208.994485 
L 302.031082 -208.220341 
L 307.148588 -207.494581 
L 312.266093 -206.817205 
L 317.383599 -206.188213 
L 322.501104 -205.607605 
L 327.618609 -205.075381 
L 332.736115 -204.591541 
L 337.85362 -204.156085 
L 342.971126 -203.769013 
L 348.088631 -203.430325 
L 353.206137 -203.140021 
L 358.323642 -202.898101 
L 363.441148 -202.704565 
L 368.558653 -202.559413 
L 373.676158 -202.462645 
L 378.793664 -202.414261 
L 383.911169 -202.414261 
L 389.028675 -202.414261 
L 394.14618 -202.414261 
L 399.263686 -202.414261 
L 404.381191 -202.414261 
L 409.498697 -202.414261 
L 414.616202 -202.414261 
L 419.733707 -202.414261 
L 424.851213 -202.414261 
L 429.968718 -202.414261 
L 435.086224 -202.414261 
L 435.086224 -202.688683 
L 435.086224 -202.688683 
L 429.968718 -202.688683 
L 424.851213 -202.688683 
L 419.733707 -202.688683 
L 414.616202 -202.688683 
L 409.498697 -202.688683 
L 404.381191 -202.688683 
L 399.263686 -202.688683 
L 394.14618 -202.688683 
L 389.028675 -202.688683 
L 383.911169 -202.688683 
L 378.793664 -202.688683 
L 373.676158 -202.737067 
L 368.558653 -202.833835 
L 363.441148 -202.978987 
L 358.323642 -203.172523 
L 353.206137 -203.414443 
L 348.088631 -203.704747 
L 342.971126 -204.043435 
L 337.85362 -204.430507 
L 332.736115 -204.865963 
L 327.618609 -205.349803 
L 322.501104 -205.882027 
L 317.383599 -206.462635 
L 312.266093 -207.091627 
L 307.148588 -207.769003 
L 302.031082 -208.494763 
L 296.913577 -209.268907 
L 291.796071 -210.091435 
L 286.678566 -210.962347 
L 281.56106 -211.881643 
L 276.443555 -212.849323 
L 271.32605 -213.768619 
L 266.208544 -214.639531 
L 261.091039 -215.462059 
L 255.973533 -216.236203 
L 250.856028 -216.961963 
L 245.738522 -217.639339 
L 240.621017 -218.268331 
L 235.503511 -218.848939 
L 230.386006 -219.381163 
L 225.268501 -219.865003 
L 220.150995 -220.300459 
L 215.03349 -220.687531 
L 209.915984 -221.026219 
L 204.798479 -221.316523 
L 199.680973 -221.558443 
L 194.563468 -221.751979 
L 189.445962 -221.897131 
L 184.328457 -221.993899 
L 179.210952 -222.042283 
L 174.093446 -222.042283 
L 168.975941 -222.042283 
L 163.858435 -222.042283 
L 158.74093 -222.042283 
L 153.623424 -222.042283 
L 148.505919 -222.042283 
L 143.388413 -222.042283 
L 138.270908 -222.042283 
L 133.153402 -222.042283 
L 128.035897 -222.042283 
L 122.918392 -222.042283 
z
" style="stroke: #57d3db; stroke-opacity: 0.65"/>
    </defs>
    <g clip-path="url(#p83369d2010)">
     <use xlink:href="#me743779222" x="0" y="280.512" style="fill: #57d3db; fill-opacity: 0.65; stroke: #57d3db; stroke-opacity: 0.65"/>
    </g>
   </g>
   <g id="PolyCollection_29">
    <defs>
     <path id="m46ec8422fb" d="M 122.918392 -261.078789 
L 122.918392 -222.042283 
L 128.035897 -222.042283 
L 133.153402 -222.042283 
L 138.270908 -222.042283 
L 143.388413 -222.042283 
L 148.505919 -222.042283 
L 153.623424 -222.042283 
L 158.74093 -222.042283 
L 163.858435 -222.042283 
L 168.975941 -222.042283 
L 174.093446 -222.042283 
L 179.210952 -222.042283 
L 184.328457 -222.018091 
L 189.445962 -221.969707 
L 194.563468 -221.897131 
L 199.680973 -221.800363 
L 204.798479 -221.679403 
L 209.915984 -221.534251 
L 215.03349 -221.364907 
L 220.150995 -221.171371 
L 225.268501 -220.953643 
L 230.386006 -220.711723 
L 235.503511 -220.445611 
L 240.621017 -220.155307 
L 245.738522 -219.840811 
L 250.856028 -219.502123 
L 255.973533 -219.139243 
L 261.091039 -218.752171 
L 266.208544 -218.340907 
L 271.32605 -217.905451 
L 276.443555 -217.445803 
L 281.56106 -216.961963 
L 286.678566 -216.502315 
L 291.796071 -216.066859 
L 296.913577 -215.655595 
L 302.031082 -215.268523 
L 307.148588 -214.905643 
L 312.266093 -214.566955 
L 317.383599 -214.252459 
L 322.501104 -213.962155 
L 327.618609 -213.696043 
L 332.736115 -213.454123 
L 337.85362 -213.236395 
L 342.971126 -213.042859 
L 348.088631 -212.873515 
L 353.206137 -212.728363 
L 358.323642 -212.607403 
L 363.441148 -212.510635 
L 368.558653 -212.438059 
L 373.676158 -212.389675 
L 378.793664 -212.365483 
L 383.911169 -212.365483 
L 389.028675 -212.365483 
L 394.14618 -212.365483 
L 399.263686 -212.365483 
L 404.381191 -212.365483 
L 409.498697 -212.365483 
L 414.616202 -212.365483 
L 419.733707 -212.365483 
L 424.851213 -212.365483 
L 429.968718 -212.365483 
L 435.086224 -212.365483 
L 435.086224 -251.401989 
L 435.086224 -251.401989 
L 429.968718 -251.401989 
L 424.851213 -251.401989 
L 419.733707 -251.401989 
L 414.616202 -251.401989 
L 409.498697 -251.401989 
L 404.381191 -251.401989 
L 399.263686 -251.401989 
L 394.14618 -251.401989 
L 389.028675 -251.401989 
L 383.911169 -251.401989 
L 378.793664 -251.401989 
L 373.676158 -251.426181 
L 368.558653 -251.474565 
L 363.441148 -251.547141 
L 358.323642 -251.643909 
L 353.206137 -251.764869 
L 348.088631 -251.910021 
L 342.971126 -252.079365 
L 337.85362 -252.272901 
L 332.736115 -252.490629 
L 327.618609 -252.732549 
L 322.501104 -252.998661 
L 317.383599 -253.288965 
L 312.266093 -253.603461 
L 307.148588 -253.942149 
L 302.031082 -254.305029 
L 296.913577 -254.692101 
L 291.796071 -255.103365 
L 286.678566 -255.538821 
L 281.56106 -255.998469 
L 276.443555 -256.482309 
L 271.32605 -256.941957 
L 266.208544 -257.377413 
L 261.091039 -257.788677 
L 255.973533 -258.175749 
L 250.856028 -258.538629 
L 245.738522 -258.877317 
L 240.621017 -259.191813 
L 235.503511 -259.482117 
L 230.386006 -259.748229 
L 225.268501 -259.990149 
L 220.150995 -260.207877 
L 215.03349 -260.401413 
L 209.915984 -260.570757 
L 204.798479 -260.715909 
L 199.680973 -260.836869 
L 194.563468 -260.933637 
L 189.445962 -261.006213 
L 184.328457 -261.054597 
L 179.210952 -261.078789 
L 174.093446 -261.078789 
L 168.975941 -261.078789 
L 163.858435 -261.078789 
L 158.74093 -261.078789 
L 153.623424 -261.078789 
L 148.505919 -261.078789 
L 143.388413 -261.078789 
L 138.270908 -261.078789 
L 133.153402 -261.078789 
L 128.035897 -261.078789 
L 122.918392 -261.078789 
z
" style="stroke: #57d3db; stroke-opacity: 0.65"/>
    </defs>
    <g clip-path="url(#p83369d2010)">
     <use xlink:href="#m46ec8422fb" x="0" y="280.512" style="fill: #57d3db; fill-opacity: 0.65; stroke: #57d3db; stroke-opacity: 0.65"/>
    </g>
   </g>
   <g id="PolyCollection_30">
    <defs>
     <path id="ma8c1c79c6c" d="M 122.918392 -261.216 
L 122.918392 -261.078789 
L 128.035897 -261.078789 
L 133.153402 -261.078789 
L 138.270908 -261.078789 
L 143.388413 -261.078789 
L 148.505919 -261.078789 
L 153.623424 -261.078789 
L 158.74093 -261.078789 
L 163.858435 -261.078789 
L 168.975941 -261.078789 
L 174.093446 -261.078789 
L 179.210952 -261.078789 
L 184.328457 -261.078789 
L 189.445962 -261.078789 
L 194.563468 -261.078789 
L 199.680973 -261.078789 
L 204.798479 -261.078789 
L 209.915984 -261.078789 
L 215.03349 -261.078789 
L 220.150995 -261.078789 
L 225.268501 -261.078789 
L 230.386006 -261.078789 
L 235.503511 -261.078789 
L 240.621017 -261.078789 
L 245.738522 -261.078789 
L 250.856028 -261.078789 
L 255.973533 -261.078789 
L 261.091039 -261.078789 
L 266.208544 -261.078789 
L 271.32605 -261.078789 
L 276.443555 -261.078789 
L 281.56106 -261.078789 
L 286.678566 -261.078789 
L 291.796071 -261.078789 
L 296.913577 -261.078789 
L 302.031082 -261.078789 
L 307.148588 -261.078789 
L 312.266093 -261.078789 
L 317.383599 -261.078789 
L 322.501104 -261.078789 
L 327.618609 -261.078789 
L 332.736115 -261.078789 
L 337.85362 -261.078789 
L 342.971126 -261.078789 
L 348.088631 -261.078789 
L 353.206137 -261.078789 
L 358.323642 -261.078789 
L 363.441148 -261.078789 
L 368.558653 -261.078789 
L 373.676158 -261.078789 
L 378.793664 -261.078789 
L 383.911169 -261.078789 
L 389.028675 -261.078789 
L 394.14618 -261.078789 
L 399.263686 -261.078789 
L 404.381191 -261.078789 
L 409.498697 -261.078789 
L 414.616202 -261.078789 
L 419.733707 -261.078789 
L 424.851213 -261.078789 
L 429.968718 -261.078789 
L 435.086224 -261.078789 
L 435.086224 -261.216 
L 435.086224 -261.216 
L 429.968718 -261.216 
L 424.851213 -261.216 
L 419.733707 -261.216 
L 414.616202 -261.216 
L 409.498697 -261.216 
L 404.381191 -261.216 
L 399.263686 -261.216 
L 394.14618 -261.216 
L 389.028675 -261.216 
L 383.911169 -261.216 
L 378.793664 -261.216 
L 373.676158 -261.216 
L 368.558653 -261.216 
L 363.441148 -261.216 
L 358.323642 -261.216 
L 353.206137 -261.216 
L 348.088631 -261.216 
L 342.971126 -261.216 
L 337.85362 -261.216 
L 332.736115 -261.216 
L 327.618609 -261.216 
L 322.501104 -261.216 
L 317.383599 -261.216 
L 312.266093 -261.216 
L 307.148588 -261.216 
L 302.031082 -261.216 
L 296.913577 -261.216 
L 291.796071 -261.216 
L 286.678566 -261.216 
L 281.56106 -261.216 
L 276.443555 -261.216 
L 271.32605 -261.216 
L 266.208544 -261.216 
L 261.091039 -261.216 
L 255.973533 -261.216 
L 250.856028 -261.216 
L 245.738522 -261.216 
L 240.621017 -261.216 
L 235.503511 -261.216 
L 230.386006 -261.216 
L 225.268501 -261.216 
L 220.150995 -261.216 
L 215.03349 -261.216 
L 209.915984 -261.216 
L 204.798479 -261.216 
L 199.680973 -261.216 
L 194.563468 -261.216 
L 189.445962 -261.216 
L 184.328457 -261.216 
L 179.210952 -261.216 
L 174.093446 -261.216 
L 168.975941 -261.216 
L 163.858435 -261.216 
L 158.74093 -261.216 
L 153.623424 -261.216 
L 148.505919 -261.216 
L 143.388413 -261.216 
L 138.270908 -261.216 
L 133.153402 -261.216 
L 128.035897 -261.216 
L 122.918392 -261.216 
z
" style="stroke: #57d3db; stroke-opacity: 0.65"/>
    </defs>
    <g clip-path="url(#p83369d2010)">
     <use xlink:href="#ma8c1c79c6c" x="0" y="280.512" style="fill: #57d3db; fill-opacity: 0.65; stroke: #57d3db; stroke-opacity: 0.65"/>
    </g>
   </g>
   <g id="text_1">
    <!-- Astrocytes -->
    <g transform="translate(53.540625 250.220605) scale(0.12 -0.12)">
     <defs>
      <path id="TimesNewRomanPS-BoldMT-41" d="M 2663 1206 
L 1166 1206 
L 988 794 
Q 900 588 900 453 
Q 900 275 1044 191 
Q 1128 141 1459 116 
L 1459 0 
L 50 0 
L 50 116 
Q 278 150 425 304 
Q 572 459 788 944 
L 2303 4325 
L 2363 4325 
L 3891 850 
Q 4109 356 4250 228 
Q 4356 131 4550 116 
L 4550 0 
L 2500 0 
L 2500 116 
L 2584 116 
Q 2831 116 2931 184 
Q 3000 234 3000 328 
Q 3000 384 2981 444 
Q 2975 472 2888 678 
L 2663 1206 
z
M 2556 1438 
L 1925 2897 
L 1275 1438 
L 2556 1438 
z
" transform="scale(0.015625)"/>
      <path id="TimesNewRomanPS-BoldMT-73" d="M 2063 3003 
L 2109 2006 
L 2003 2006 
Q 1813 2450 1608 2612 
Q 1403 2775 1200 2775 
Q 1072 2775 981 2689 
Q 891 2603 891 2491 
Q 891 2406 953 2328 
Q 1053 2200 1512 1889 
Q 1972 1578 2117 1361 
Q 2263 1144 2263 875 
Q 2263 631 2141 397 
Q 2019 163 1797 37 
Q 1575 -88 1306 -88 
Q 1097 -88 747 44 
Q 653 78 619 78 
Q 516 78 447 -78 
L 344 -78 
L 294 972 
L 400 972 
Q 541 559 786 353 
Q 1031 147 1250 147 
Q 1400 147 1495 239 
Q 1591 331 1591 463 
Q 1591 613 1497 722 
Q 1403 831 1078 1053 
Q 600 1384 459 1559 
Q 253 1816 253 2125 
Q 253 2463 486 2736 
Q 719 3009 1159 3009 
Q 1397 3009 1619 2894 
Q 1703 2847 1756 2847 
Q 1813 2847 1847 2870 
Q 1881 2894 1956 3003 
L 2063 3003 
z
" transform="scale(0.015625)"/>
      <path id="TimesNewRomanPS-BoldMT-74" d="M 1375 3991 
L 1375 2922 
L 2069 2922 
L 2069 2613 
L 1375 2613 
L 1375 809 
Q 1375 556 1398 482 
Q 1422 409 1481 364 
Q 1541 319 1591 319 
Q 1794 319 1975 628 
L 2069 559 
Q 1816 -41 1247 -41 
Q 969 -41 776 114 
Q 584 269 531 459 
Q 500 566 500 1034 
L 500 2613 
L 119 2613 
L 119 2722 
Q 513 3000 789 3306 
Q 1066 3613 1272 3991 
L 1375 3991 
z
" transform="scale(0.015625)"/>
      <path id="TimesNewRomanPS-BoldMT-72" d="M 1428 2922 
L 1428 2259 
Q 1719 2713 1937 2861 
Q 2156 3009 2359 3009 
Q 2534 3009 2639 2901 
Q 2744 2794 2744 2597 
Q 2744 2388 2642 2272 
Q 2541 2156 2397 2156 
Q 2231 2156 2109 2262 
Q 1988 2369 1966 2381 
Q 1934 2400 1894 2400 
Q 1803 2400 1722 2331 
Q 1594 2225 1528 2028 
Q 1428 1725 1428 1359 
L 1428 688 
L 1431 513 
Q 1431 334 1453 284 
Q 1491 200 1564 161 
Q 1638 122 1813 113 
L 1813 0 
L 234 0 
L 234 113 
Q 425 128 492 217 
Q 559 306 559 688 
L 559 2303 
Q 559 2553 534 2622 
Q 503 2709 443 2750 
Q 384 2791 234 2806 
L 234 2922 
L 1428 2922 
z
" transform="scale(0.015625)"/>
      <path id="TimesNewRomanPS-BoldMT-6f" d="M 1594 3009 
Q 1975 3009 2303 2812 
Q 2631 2616 2801 2253 
Q 2972 1891 2972 1459 
Q 2972 838 2656 419 
Q 2275 -88 1603 -88 
Q 944 -88 587 375 
Q 231 838 231 1447 
Q 231 2075 595 2542 
Q 959 3009 1594 3009 
z
M 1606 2788 
Q 1447 2788 1333 2667 
Q 1219 2547 1183 2192 
Q 1147 1838 1147 1206 
Q 1147 872 1191 581 
Q 1225 359 1337 243 
Q 1450 128 1594 128 
Q 1734 128 1828 206 
Q 1950 313 1991 503 
Q 2053 800 2053 1703 
Q 2053 2234 1993 2432 
Q 1934 2631 1819 2722 
Q 1738 2788 1606 2788 
z
" transform="scale(0.015625)"/>
      <path id="TimesNewRomanPS-BoldMT-63" d="M 2600 753 
L 2697 678 
Q 2491 291 2183 101 
Q 1875 -88 1528 -88 
Q 944 -88 594 353 
Q 244 794 244 1413 
Q 244 2009 563 2463 
Q 947 3009 1622 3009 
Q 2075 3009 2342 2781 
Q 2609 2553 2609 2272 
Q 2609 2094 2501 1987 
Q 2394 1881 2219 1881 
Q 2034 1881 1914 2003 
Q 1794 2125 1766 2438 
Q 1747 2634 1675 2713 
Q 1603 2791 1506 2791 
Q 1356 2791 1250 2631 
Q 1088 2391 1088 1894 
Q 1088 1481 1219 1104 
Q 1350 728 1578 544 
Q 1750 409 1984 409 
Q 2138 409 2275 481 
Q 2413 553 2600 753 
z
" transform="scale(0.015625)"/>
      <path id="TimesNewRomanPS-BoldMT-79" d="M 1556 -119 
L 613 2047 
Q 400 2538 298 2650 
Q 197 2763 53 2806 
L 53 2922 
L 1606 2922 
L 1606 2806 
Q 1453 2800 1390 2747 
Q 1328 2694 1328 2619 
Q 1328 2500 1484 2150 
L 1984 1006 
L 2325 1891 
Q 2509 2363 2509 2547 
Q 2509 2663 2432 2731 
Q 2356 2800 2163 2806 
L 2163 2922 
L 3141 2922 
L 3141 2806 
Q 2997 2791 2906 2695 
Q 2816 2600 2603 2047 
L 1769 -119 
Q 1453 -931 1300 -1119 
Q 1084 -1381 759 -1381 
Q 500 -1381 339 -1232 
Q 178 -1084 178 -875 
Q 178 -694 289 -575 
Q 400 -456 563 -456 
Q 719 -456 814 -556 
Q 909 -656 913 -866 
Q 916 -984 941 -1019 
Q 966 -1053 1013 -1053 
Q 1088 -1053 1172 -963 
Q 1297 -831 1466 -363 
L 1556 -119 
z
" transform="scale(0.015625)"/>
      <path id="TimesNewRomanPS-BoldMT-65" d="M 2691 1566 
L 1088 1566 
Q 1116 984 1397 647 
Q 1613 388 1916 388 
Q 2103 388 2256 492 
Q 2409 597 2584 869 
L 2691 800 
Q 2453 316 2165 114 
Q 1878 -88 1500 -88 
Q 850 -88 516 413 
Q 247 816 247 1413 
Q 247 2144 642 2576 
Q 1038 3009 1569 3009 
Q 2013 3009 2339 2645 
Q 2666 2281 2691 1566 
z
M 1922 1775 
Q 1922 2278 1867 2465 
Q 1813 2653 1697 2750 
Q 1631 2806 1522 2806 
Q 1359 2806 1256 2647 
Q 1072 2369 1072 1884 
L 1072 1775 
L 1922 1775 
z
" transform="scale(0.015625)"/>
     </defs>
     <use xlink:href="#TimesNewRomanPS-BoldMT-41"/>
     <use xlink:href="#TimesNewRomanPS-BoldMT-73" x="72.216797"/>
     <use xlink:href="#TimesNewRomanPS-BoldMT-74" x="111.132812"/>
     <use xlink:href="#TimesNewRomanPS-BoldMT-72" x="144.433594"/>
     <use xlink:href="#TimesNewRomanPS-BoldMT-6f" x="187.068359"/>
     <use xlink:href="#TimesNewRomanPS-BoldMT-63" x="237.068359"/>
     <use xlink:href="#TimesNewRomanPS-BoldMT-79" x="281.453125"/>
     <use xlink:href="#TimesNewRomanPS-BoldMT-74" x="331.453125"/>
     <use xlink:href="#TimesNewRomanPS-BoldMT-65" x="364.753906"/>
     <use xlink:href="#TimesNewRomanPS-BoldMT-73" x="409.138672"/>
    </g>
   </g>
   <g id="text_2">
    <!-- Endothelial Cells -->
    <g transform="translate(19.63125 223.630853) scale(0.12 -0.12)">
     <defs>
      <path id="TimesNewRomanPS-BoldMT-45" d="M 1744 3994 
L 1744 2269 
L 1828 2269 
Q 2231 2269 2412 2522 
Q 2594 2775 2644 3269 
L 2763 3269 
L 2763 1050 
L 2644 1050 
Q 2606 1413 2486 1644 
Q 2366 1875 2206 1954 
Q 2047 2034 1744 2034 
L 1744 841 
Q 1744 491 1773 412 
Q 1803 334 1884 284 
Q 1966 234 2147 234 
L 2400 234 
Q 2994 234 3351 509 
Q 3709 784 3866 1347 
L 3981 1347 
L 3791 0 
L 128 0 
L 128 116 
L 269 116 
Q 453 116 566 181 
Q 647 225 691 331 
Q 725 406 725 725 
L 725 3513 
Q 725 3800 709 3866 
Q 678 3975 594 4034 
Q 475 4122 269 4122 
L 128 4122 
L 128 4238 
L 3675 4238 
L 3675 2984 
L 3556 2984 
Q 3466 3444 3302 3644 
Q 3138 3844 2838 3938 
Q 2663 3994 2181 3994 
L 1744 3994 
z
" transform="scale(0.015625)"/>
      <path id="TimesNewRomanPS-BoldMT-6e" d="M 1409 2922 
L 1409 2544 
Q 1634 2788 1840 2898 
Q 2047 3009 2284 3009 
Q 2569 3009 2756 2851 
Q 2944 2694 3006 2459 
Q 3056 2281 3056 1775 
L 3056 638 
Q 3056 300 3117 217 
Q 3178 134 3372 113 
L 3372 0 
L 1894 0 
L 1894 113 
Q 2059 134 2131 250 
Q 2181 328 2181 638 
L 2181 1938 
Q 2181 2297 2153 2390 
Q 2125 2484 2058 2536 
Q 1991 2588 1909 2588 
Q 1641 2588 1409 2203 
L 1409 638 
Q 1409 309 1470 221 
Q 1531 134 1697 113 
L 1697 0 
L 219 0 
L 219 113 
Q 403 131 481 231 
Q 534 300 534 638 
L 534 2288 
Q 534 2619 473 2700 
Q 413 2781 219 2806 
L 219 2922 
L 1409 2922 
z
" transform="scale(0.015625)"/>
      <path id="TimesNewRomanPS-BoldMT-64" d="M 3056 4238 
L 3056 875 
Q 3056 534 3075 472 
Q 3100 369 3170 319 
Q 3241 269 3416 256 
L 3416 153 
L 2181 -88 
L 2181 375 
Q 1959 106 1786 9 
Q 1613 -88 1394 -88 
Q 834 -88 509 413 
Q 247 819 247 1409 
Q 247 1881 409 2254 
Q 572 2628 855 2818 
Q 1138 3009 1463 3009 
Q 1672 3009 1834 2928 
Q 1997 2847 2181 2644 
L 2181 3525 
Q 2181 3859 2153 3928 
Q 2116 4019 2041 4062 
Q 1966 4106 1759 4106 
L 1759 4238 
L 3056 4238 
z
M 2181 2256 
Q 1950 2700 1616 2700 
Q 1500 2700 1425 2638 
Q 1309 2541 1236 2297 
Q 1163 2053 1163 1550 
Q 1163 997 1244 731 
Q 1325 466 1466 347 
Q 1538 288 1663 288 
Q 1938 288 2181 719 
L 2181 2256 
z
" transform="scale(0.015625)"/>
      <path id="TimesNewRomanPS-BoldMT-68" d="M 1409 4238 
L 1409 2547 
Q 1650 2800 1850 2904 
Q 2050 3009 2266 3009 
Q 2541 3009 2736 2853 
Q 2931 2697 2995 2486 
Q 3059 2275 3059 1775 
L 3059 634 
Q 3059 300 3121 217 
Q 3184 134 3375 113 
L 3375 0 
L 1894 0 
L 1894 113 
Q 2050 134 2128 238 
Q 2184 319 2184 634 
L 2184 1938 
Q 2184 2300 2156 2392 
Q 2128 2484 2061 2536 
Q 1994 2588 1909 2588 
Q 1784 2588 1665 2502 
Q 1547 2416 1409 2200 
L 1409 634 
Q 1409 322 1456 244 
Q 1516 138 1700 113 
L 1700 0 
L 219 0 
L 219 113 
Q 403 131 481 231 
Q 534 300 534 634 
L 534 3603 
Q 534 3934 473 4015 
Q 413 4097 219 4122 
L 219 4238 
L 1409 4238 
z
" transform="scale(0.015625)"/>
      <path id="TimesNewRomanPS-BoldMT-6c" d="M 1359 4238 
L 1359 606 
Q 1359 297 1431 211 
Q 1503 125 1713 113 
L 1713 0 
L 134 0 
L 134 113 
Q 328 119 422 225 
Q 484 297 484 606 
L 484 3631 
Q 484 3938 412 4023 
Q 341 4109 134 4122 
L 134 4238 
L 1359 4238 
z
" transform="scale(0.015625)"/>
      <path id="TimesNewRomanPS-BoldMT-69" d="M 919 4338 
Q 1122 4338 1262 4195 
Q 1403 4053 1403 3853 
Q 1403 3653 1261 3512 
Q 1119 3372 919 3372 
Q 719 3372 578 3512 
Q 438 3653 438 3853 
Q 438 4053 578 4195 
Q 719 4338 919 4338 
z
M 1356 2922 
L 1356 606 
Q 1356 297 1428 211 
Q 1500 125 1709 113 
L 1709 0 
L 131 0 
L 131 113 
Q 325 119 419 225 
Q 481 297 481 606 
L 481 2313 
Q 481 2622 409 2708 
Q 338 2794 131 2806 
L 131 2922 
L 1356 2922 
z
" transform="scale(0.015625)"/>
      <path id="TimesNewRomanPS-BoldMT-61" d="M 1828 431 
Q 1294 -41 869 -41 
Q 619 -41 453 123 
Q 288 288 288 534 
Q 288 869 575 1136 
Q 863 1403 1828 1847 
L 1828 2141 
Q 1828 2472 1792 2558 
Q 1756 2644 1656 2708 
Q 1556 2772 1431 2772 
Q 1228 2772 1097 2681 
Q 1016 2625 1016 2550 
Q 1016 2484 1103 2388 
Q 1222 2253 1222 2128 
Q 1222 1975 1108 1867 
Q 994 1759 809 1759 
Q 613 1759 480 1878 
Q 347 1997 347 2156 
Q 347 2381 525 2586 
Q 703 2791 1022 2900 
Q 1341 3009 1684 3009 
Q 2100 3009 2342 2832 
Q 2584 2656 2656 2450 
Q 2700 2319 2700 1847 
L 2700 713 
Q 2700 513 2715 461 
Q 2731 409 2762 384 
Q 2794 359 2834 359 
Q 2916 359 3000 475 
L 3094 400 
Q 2938 169 2770 64 
Q 2603 -41 2391 -41 
Q 2141 -41 2000 76 
Q 1859 194 1828 431 
z
M 1828 659 
L 1828 1638 
Q 1450 1416 1266 1163 
Q 1144 994 1144 822 
Q 1144 678 1247 569 
Q 1325 484 1466 484 
Q 1622 484 1828 659 
z
" transform="scale(0.015625)"/>
      <path id="TimesNewRomanPS-BoldMT-20" transform="scale(0.015625)"/>
      <path id="TimesNewRomanPS-BoldMT-43" d="M 4272 4334 
L 4272 2866 
L 4150 2866 
Q 4013 3441 3638 3747 
Q 3263 4053 2788 4053 
Q 2391 4053 2059 3825 
Q 1728 3597 1575 3228 
Q 1378 2756 1378 2178 
Q 1378 1609 1522 1142 
Q 1666 675 1972 436 
Q 2278 197 2766 197 
Q 3166 197 3498 372 
Q 3831 547 4200 975 
L 4200 609 
Q 3844 238 3458 70 
Q 3072 -97 2556 -97 
Q 1878 -97 1351 175 
Q 825 447 539 956 
Q 253 1466 253 2041 
Q 253 2647 570 3190 
Q 888 3734 1427 4034 
Q 1966 4334 2572 4334 
Q 3019 4334 3516 4141 
Q 3803 4028 3881 4028 
Q 3981 4028 4054 4101 
Q 4128 4175 4150 4334 
L 4272 4334 
z
" transform="scale(0.015625)"/>
     </defs>
     <use xlink:href="#TimesNewRomanPS-BoldMT-45"/>
     <use xlink:href="#TimesNewRomanPS-BoldMT-6e" x="66.699219"/>
     <use xlink:href="#TimesNewRomanPS-BoldMT-64" x="122.314453"/>
     <use xlink:href="#TimesNewRomanPS-BoldMT-6f" x="177.929688"/>
     <use xlink:href="#TimesNewRomanPS-BoldMT-74" x="227.929688"/>
     <use xlink:href="#TimesNewRomanPS-BoldMT-68" x="261.230469"/>
     <use xlink:href="#TimesNewRomanPS-BoldMT-65" x="316.845703"/>
     <use xlink:href="#TimesNewRomanPS-BoldMT-6c" x="361.230469"/>
     <use xlink:href="#TimesNewRomanPS-BoldMT-69" x="389.013672"/>
     <use xlink:href="#TimesNewRomanPS-BoldMT-61" x="416.796875"/>
     <use xlink:href="#TimesNewRomanPS-BoldMT-6c" x="466.796875"/>
     <use xlink:href="#TimesNewRomanPS-BoldMT-20" x="494.580078"/>
     <use xlink:href="#TimesNewRomanPS-BoldMT-43" x="519.580078"/>
     <use xlink:href="#TimesNewRomanPS-BoldMT-65" x="591.796875"/>
     <use xlink:href="#TimesNewRomanPS-BoldMT-6c" x="636.181641"/>
     <use xlink:href="#TimesNewRomanPS-BoldMT-6c" x="663.964844"/>
     <use xlink:href="#TimesNewRomanPS-BoldMT-73" x="691.748047"/>
    </g>
   </g>
   <g id="text_3">
    <!-- Excitatory Neurons -->
    <g transform="translate(7.2 183.301307) scale(0.12 -0.12)">
     <defs>
      <path id="TimesNewRomanPS-BoldMT-78" d="M 1944 1791 
L 2450 828 
Q 2713 325 2866 191 
Q 2950 119 3097 113 
L 3097 0 
L 1469 0 
L 1469 113 
Q 1659 128 1704 162 
Q 1750 197 1750 256 
Q 1750 344 1650 531 
L 1397 1006 
L 1181 691 
Q 1034 475 1016 434 
Q 991 375 991 328 
Q 991 256 1020 207 
Q 1050 159 1101 136 
Q 1153 113 1291 113 
L 1291 0 
L 147 0 
L 147 113 
Q 359 113 536 230 
Q 713 347 1050 844 
L 1291 1200 
L 788 2131 
Q 541 2588 419 2691 
Q 297 2794 147 2806 
L 147 2922 
L 1766 2922 
L 1766 2806 
L 1681 2803 
L 1519 2747 
Q 1494 2725 1494 2675 
Q 1494 2628 1509 2578 
Q 1519 2556 1597 2409 
L 1825 1984 
L 1944 2153 
Q 2194 2497 2194 2634 
Q 2194 2700 2139 2745 
Q 2084 2791 1944 2806 
L 1944 2922 
L 2978 2922 
L 2978 2806 
Q 2788 2800 2622 2689 
Q 2456 2578 2250 2259 
L 1944 1791 
z
" transform="scale(0.015625)"/>
      <path id="TimesNewRomanPS-BoldMT-4e" d="M 1594 4238 
L 3684 1609 
L 3684 3431 
Q 3684 3813 3575 3947 
Q 3425 4128 3072 4122 
L 3072 4238 
L 4472 4238 
L 4472 4122 
Q 4203 4088 4111 4033 
Q 4019 3978 3967 3854 
Q 3916 3731 3916 3431 
L 3916 -97 
L 3809 -97 
L 944 3431 
L 944 738 
Q 944 372 1111 244 
Q 1278 116 1494 116 
L 1594 116 
L 1594 0 
L 91 0 
L 91 116 
Q 441 119 578 259 
Q 716 400 716 738 
L 716 3728 
L 625 3841 
Q 491 4009 387 4062 
Q 284 4116 91 4122 
L 91 4238 
L 1594 4238 
z
" transform="scale(0.015625)"/>
      <path id="TimesNewRomanPS-BoldMT-75" d="M 3038 2922 
L 3038 634 
Q 3038 300 3100 217 
Q 3163 134 3353 113 
L 3353 0 
L 2163 0 
L 2163 391 
Q 1953 141 1743 26 
Q 1534 -88 1275 -88 
Q 1028 -88 836 64 
Q 644 216 578 419 
Q 513 622 513 1128 
L 513 2288 
Q 513 2619 452 2700 
Q 391 2781 197 2806 
L 197 2922 
L 1388 2922 
L 1388 925 
Q 1388 613 1417 522 
Q 1447 431 1511 384 
Q 1575 338 1659 338 
Q 1772 338 1863 397 
Q 1988 478 2163 725 
L 2163 2288 
Q 2163 2619 2102 2700 
Q 2041 2781 1847 2806 
L 1847 2922 
L 3038 2922 
z
" transform="scale(0.015625)"/>
     </defs>
     <use xlink:href="#TimesNewRomanPS-BoldMT-45"/>
     <use xlink:href="#TimesNewRomanPS-BoldMT-78" x="66.699219"/>
     <use xlink:href="#TimesNewRomanPS-BoldMT-63" x="116.699219"/>
     <use xlink:href="#TimesNewRomanPS-BoldMT-69" x="161.083984"/>
     <use xlink:href="#TimesNewRomanPS-BoldMT-74" x="188.867188"/>
     <use xlink:href="#TimesNewRomanPS-BoldMT-61" x="222.167969"/>
     <use xlink:href="#TimesNewRomanPS-BoldMT-74" x="272.167969"/>
     <use xlink:href="#TimesNewRomanPS-BoldMT-6f" x="305.46875"/>
     <use xlink:href="#TimesNewRomanPS-BoldMT-72" x="355.46875"/>
     <use xlink:href="#TimesNewRomanPS-BoldMT-79" x="399.853516"/>
     <use xlink:href="#TimesNewRomanPS-BoldMT-20" x="449.853516"/>
     <use xlink:href="#TimesNewRomanPS-BoldMT-4e" x="474.853516"/>
     <use xlink:href="#TimesNewRomanPS-BoldMT-65" x="547.070312"/>
     <use xlink:href="#TimesNewRomanPS-BoldMT-75" x="591.455078"/>
     <use xlink:href="#TimesNewRomanPS-BoldMT-72" x="647.070312"/>
     <use xlink:href="#TimesNewRomanPS-BoldMT-6f" x="689.705078"/>
     <use xlink:href="#TimesNewRomanPS-BoldMT-6e" x="739.705078"/>
     <use xlink:href="#TimesNewRomanPS-BoldMT-73" x="795.320312"/>
    </g>
   </g>
   <g id="text_4">
    <!-- Inhibitory Neurons -->
    <g transform="translate(8.503125 117.196517) scale(0.12 -0.12)">
     <defs>
      <path id="TimesNewRomanPS-BoldMT-49" d="M 2344 116 
L 2344 0 
L 128 0 
L 128 116 
L 269 116 
Q 453 116 566 181 
Q 647 225 691 331 
Q 725 406 725 725 
L 725 3513 
Q 725 3838 690 3919 
Q 656 4000 551 4061 
Q 447 4122 269 4122 
L 128 4122 
L 128 4238 
L 2344 4238 
L 2344 4122 
L 2203 4122 
Q 2019 4122 1906 4056 
Q 1825 4013 1778 3906 
Q 1744 3831 1744 3513 
L 1744 725 
Q 1744 400 1780 319 
Q 1816 238 1920 177 
Q 2025 116 2203 116 
L 2344 116 
z
" transform="scale(0.015625)"/>
      <path id="TimesNewRomanPS-BoldMT-62" d="M 1347 4238 
L 1347 2628 
Q 1716 3009 2153 3009 
Q 2453 3009 2718 2832 
Q 2984 2656 3134 2331 
Q 3284 2006 3284 1581 
Q 3284 1103 3093 712 
Q 2903 322 2584 117 
Q 2266 -88 1856 -88 
Q 1619 -88 1434 -12 
Q 1250 63 1072 231 
L 588 -84 
L 481 -84 
L 481 3631 
Q 481 3884 459 3944 
Q 428 4031 361 4073 
Q 294 4116 134 4122 
L 134 4238 
L 1347 4238 
z
M 1347 2350 
L 1347 1050 
Q 1347 653 1366 544 
Q 1397 359 1515 245 
Q 1634 131 1819 131 
Q 1978 131 2092 222 
Q 2206 313 2282 581 
Q 2359 850 2359 1550 
Q 2359 2222 2191 2472 
Q 2069 2653 1863 2653 
Q 1594 2653 1347 2350 
z
" transform="scale(0.015625)"/>
     </defs>
     <use xlink:href="#TimesNewRomanPS-BoldMT-49"/>
     <use xlink:href="#TimesNewRomanPS-BoldMT-6e" x="38.916016"/>
     <use xlink:href="#TimesNewRomanPS-BoldMT-68" x="94.53125"/>
     <use xlink:href="#TimesNewRomanPS-BoldMT-69" x="150.146484"/>
     <use xlink:href="#TimesNewRomanPS-BoldMT-62" x="177.929688"/>
     <use xlink:href="#TimesNewRomanPS-BoldMT-69" x="233.544922"/>
     <use xlink:href="#TimesNewRomanPS-BoldMT-74" x="261.328125"/>
     <use xlink:href="#TimesNewRomanPS-BoldMT-6f" x="294.628906"/>
     <use xlink:href="#TimesNewRomanPS-BoldMT-72" x="344.628906"/>
     <use xlink:href="#TimesNewRomanPS-BoldMT-79" x="389.013672"/>
     <use xlink:href="#TimesNewRomanPS-BoldMT-20" x="439.013672"/>
     <use xlink:href="#TimesNewRomanPS-BoldMT-4e" x="464.013672"/>
     <use xlink:href="#TimesNewRomanPS-BoldMT-65" x="536.230469"/>
     <use xlink:href="#TimesNewRomanPS-BoldMT-75" x="580.615234"/>
     <use xlink:href="#TimesNewRomanPS-BoldMT-72" x="636.230469"/>
     <use xlink:href="#TimesNewRomanPS-BoldMT-6f" x="678.865234"/>
     <use xlink:href="#TimesNewRomanPS-BoldMT-6e" x="728.865234"/>
     <use xlink:href="#TimesNewRomanPS-BoldMT-73" x="784.480469"/>
    </g>
   </g>
   <g id="text_5">
    <!-- Microglia -->
    <g transform="translate(57.538125 74.966427) scale(0.12 -0.12)">
     <defs>
      <path id="TimesNewRomanPS-BoldMT-4d" d="M 3050 1444 
L 4200 4238 
L 5925 4238 
L 5925 4122 
L 5788 4122 
Q 5600 4122 5488 4056 
Q 5409 4013 5363 3909 
Q 5328 3834 5328 3519 
L 5328 725 
Q 5328 400 5362 319 
Q 5397 238 5503 177 
Q 5609 116 5788 116 
L 5925 116 
L 5925 0 
L 3713 0 
L 3713 116 
L 3850 116 
Q 4038 116 4150 181 
Q 4228 225 4275 331 
Q 4309 406 4309 725 
L 4309 3866 
L 2684 0 
L 2609 0 
L 959 3838 
L 959 853 
Q 959 541 975 469 
Q 1016 313 1152 214 
Q 1288 116 1578 116 
L 1578 0 
L 128 0 
L 128 116 
L 172 116 
Q 313 113 434 161 
Q 556 209 618 290 
Q 681 372 716 519 
Q 722 553 722 838 
L 722 3519 
Q 722 3841 687 3920 
Q 653 4000 547 4061 
Q 441 4122 263 4122 
L 128 4122 
L 128 4238 
L 1859 4238 
L 3050 1444 
z
" transform="scale(0.015625)"/>
      <path id="TimesNewRomanPS-BoldMT-67" d="M 2091 2888 
L 3075 2888 
L 3075 2544 
L 2516 2544 
Q 2669 2391 2728 2266 
Q 2803 2097 2803 1913 
Q 2803 1600 2629 1370 
Q 2456 1141 2157 1011 
Q 1859 881 1628 881 
Q 1609 881 1253 897 
Q 1113 897 1017 805 
Q 922 713 922 584 
Q 922 472 1008 400 
Q 1094 328 1288 328 
L 1828 334 
Q 2484 334 2731 191 
Q 3084 -9 3084 -425 
Q 3084 -691 2921 -908 
Q 2759 -1125 2494 -1228 
Q 2091 -1381 1566 -1381 
Q 1172 -1381 847 -1304 
Q 522 -1228 381 -1092 
Q 241 -956 241 -806 
Q 241 -663 348 -548 
Q 456 -434 750 -356 
Q 344 -156 344 200 
Q 344 416 509 619 
Q 675 822 1034 972 
Q 616 1125 428 1375 
Q 241 1625 241 1953 
Q 241 2381 591 2695 
Q 941 3009 1491 3009 
Q 1781 3009 2091 2888 
z
M 1550 2816 
Q 1369 2816 1244 2633 
Q 1119 2450 1119 1875 
Q 1119 1409 1242 1236 
Q 1366 1063 1534 1063 
Q 1722 1063 1847 1234 
Q 1972 1406 1972 1903 
Q 1972 2463 1831 2666 
Q 1731 2816 1550 2816 
z
M 1366 -431 
Q 1047 -431 944 -484 
Q 766 -581 766 -747 
Q 766 -906 950 -1036 
Q 1134 -1166 1644 -1166 
Q 2078 -1166 2326 -1050 
Q 2575 -934 2575 -725 
Q 2575 -647 2528 -594 
Q 2444 -500 2273 -465 
Q 2103 -431 1366 -431 
z
" transform="scale(0.015625)"/>
     </defs>
     <use xlink:href="#TimesNewRomanPS-BoldMT-4d"/>
     <use xlink:href="#TimesNewRomanPS-BoldMT-69" x="94.384766"/>
     <use xlink:href="#TimesNewRomanPS-BoldMT-63" x="122.167969"/>
     <use xlink:href="#TimesNewRomanPS-BoldMT-72" x="166.552734"/>
     <use xlink:href="#TimesNewRomanPS-BoldMT-6f" x="209.1875"/>
     <use xlink:href="#TimesNewRomanPS-BoldMT-67" x="259.1875"/>
     <use xlink:href="#TimesNewRomanPS-BoldMT-6c" x="309.1875"/>
     <use xlink:href="#TimesNewRomanPS-BoldMT-69" x="336.970703"/>
     <use xlink:href="#TimesNewRomanPS-BoldMT-61" x="364.753906"/>
    </g>
   </g>
   <g id="text_6">
    <!-- Oligodendrocytes -->
    <g transform="translate(17.525625 41.792257) scale(0.12 -0.12)">
     <defs>
      <path id="TimesNewRomanPS-BoldMT-4f" d="M 2472 4297 
Q 3484 4334 4117 3706 
Q 4750 3078 4750 2134 
Q 4750 1328 4278 716 
Q 3653 -97 2513 -97 
Q 1369 -97 744 678 
Q 250 1291 250 2131 
Q 250 3075 892 3704 
Q 1534 4334 2472 4297 
z
M 2509 4097 
Q 1928 4097 1625 3503 
Q 1378 3016 1378 2103 
Q 1378 1019 1759 500 
Q 2025 138 2503 138 
Q 2825 138 3041 294 
Q 3316 494 3469 933 
Q 3622 1372 3622 2078 
Q 3622 2919 3465 3336 
Q 3309 3753 3067 3925 
Q 2825 4097 2509 4097 
z
" transform="scale(0.015625)"/>
     </defs>
     <use xlink:href="#TimesNewRomanPS-BoldMT-4f"/>
     <use xlink:href="#TimesNewRomanPS-BoldMT-6c" x="77.783203"/>
     <use xlink:href="#TimesNewRomanPS-BoldMT-69" x="105.566406"/>
     <use xlink:href="#TimesNewRomanPS-BoldMT-67" x="133.349609"/>
     <use xlink:href="#TimesNewRomanPS-BoldMT-6f" x="183.349609"/>
     <use xlink:href="#TimesNewRomanPS-BoldMT-64" x="233.349609"/>
     <use xlink:href="#TimesNewRomanPS-BoldMT-65" x="288.964844"/>
     <use xlink:href="#TimesNewRomanPS-BoldMT-6e" x="333.349609"/>
     <use xlink:href="#TimesNewRomanPS-BoldMT-64" x="388.964844"/>
     <use xlink:href="#TimesNewRomanPS-BoldMT-72" x="444.580078"/>
     <use xlink:href="#TimesNewRomanPS-BoldMT-6f" x="487.214844"/>
     <use xlink:href="#TimesNewRomanPS-BoldMT-63" x="537.214844"/>
     <use xlink:href="#TimesNewRomanPS-BoldMT-79" x="581.599609"/>
     <use xlink:href="#TimesNewRomanPS-BoldMT-74" x="631.599609"/>
     <use xlink:href="#TimesNewRomanPS-BoldMT-65" x="664.900391"/>
     <use xlink:href="#TimesNewRomanPS-BoldMT-73" x="709.285156"/>
    </g>
   </g>
   <g id="text_7">
    <!-- Astrocytes -->
    <g transform="translate(450.694615 250.357816) scale(0.12 -0.12)">
     <use xlink:href="#TimesNewRomanPS-BoldMT-41"/>
     <use xlink:href="#TimesNewRomanPS-BoldMT-73" x="72.216797"/>
     <use xlink:href="#TimesNewRomanPS-BoldMT-74" x="111.132812"/>
     <use xlink:href="#TimesNewRomanPS-BoldMT-72" x="144.433594"/>
     <use xlink:href="#TimesNewRomanPS-BoldMT-6f" x="187.068359"/>
     <use xlink:href="#TimesNewRomanPS-BoldMT-63" x="237.068359"/>
     <use xlink:href="#TimesNewRomanPS-BoldMT-79" x="281.453125"/>
     <use xlink:href="#TimesNewRomanPS-BoldMT-74" x="331.453125"/>
     <use xlink:href="#TimesNewRomanPS-BoldMT-65" x="364.753906"/>
     <use xlink:href="#TimesNewRomanPS-BoldMT-73" x="409.138672"/>
    </g>
   </g>
   <g id="text_8">
    <!-- Endothelial Cells -->
    <g transform="translate(450.694615 224.111091) scale(0.12 -0.12)">
     <use xlink:href="#TimesNewRomanPS-BoldMT-45"/>
     <use xlink:href="#TimesNewRomanPS-BoldMT-6e" x="66.699219"/>
     <use xlink:href="#TimesNewRomanPS-BoldMT-64" x="122.314453"/>
     <use xlink:href="#TimesNewRomanPS-BoldMT-6f" x="177.929688"/>
     <use xlink:href="#TimesNewRomanPS-BoldMT-74" x="227.929688"/>
     <use xlink:href="#TimesNewRomanPS-BoldMT-68" x="261.230469"/>
     <use xlink:href="#TimesNewRomanPS-BoldMT-65" x="316.845703"/>
     <use xlink:href="#TimesNewRomanPS-BoldMT-6c" x="361.230469"/>
     <use xlink:href="#TimesNewRomanPS-BoldMT-69" x="389.013672"/>
     <use xlink:href="#TimesNewRomanPS-BoldMT-61" x="416.796875"/>
     <use xlink:href="#TimesNewRomanPS-BoldMT-6c" x="466.796875"/>
     <use xlink:href="#TimesNewRomanPS-BoldMT-20" x="494.580078"/>
     <use xlink:href="#TimesNewRomanPS-BoldMT-43" x="519.580078"/>
     <use xlink:href="#TimesNewRomanPS-BoldMT-65" x="591.796875"/>
     <use xlink:href="#TimesNewRomanPS-BoldMT-6c" x="636.181641"/>
     <use xlink:href="#TimesNewRomanPS-BoldMT-6c" x="663.964844"/>
     <use xlink:href="#TimesNewRomanPS-BoldMT-73" x="691.748047"/>
    </g>
   </g>
   <g id="text_9">
    <!-- Excitatory Neurons -->
    <g transform="translate(450.694615 177.915779) scale(0.12 -0.12)">
     <use xlink:href="#TimesNewRomanPS-BoldMT-45"/>
     <use xlink:href="#TimesNewRomanPS-BoldMT-78" x="66.699219"/>
     <use xlink:href="#TimesNewRomanPS-BoldMT-63" x="116.699219"/>
     <use xlink:href="#TimesNewRomanPS-BoldMT-69" x="161.083984"/>
     <use xlink:href="#TimesNewRomanPS-BoldMT-74" x="188.867188"/>
     <use xlink:href="#TimesNewRomanPS-BoldMT-61" x="222.167969"/>
     <use xlink:href="#TimesNewRomanPS-BoldMT-74" x="272.167969"/>
     <use xlink:href="#TimesNewRomanPS-BoldMT-6f" x="305.46875"/>
     <use xlink:href="#TimesNewRomanPS-BoldMT-72" x="355.46875"/>
     <use xlink:href="#TimesNewRomanPS-BoldMT-79" x="399.853516"/>
     <use xlink:href="#TimesNewRomanPS-BoldMT-20" x="449.853516"/>
     <use xlink:href="#TimesNewRomanPS-BoldMT-4e" x="474.853516"/>
     <use xlink:href="#TimesNewRomanPS-BoldMT-65" x="547.070312"/>
     <use xlink:href="#TimesNewRomanPS-BoldMT-75" x="591.455078"/>
     <use xlink:href="#TimesNewRomanPS-BoldMT-72" x="647.070312"/>
     <use xlink:href="#TimesNewRomanPS-BoldMT-6f" x="689.705078"/>
     <use xlink:href="#TimesNewRomanPS-BoldMT-6e" x="739.705078"/>
     <use xlink:href="#TimesNewRomanPS-BoldMT-73" x="795.320312"/>
    </g>
   </g>
   <g id="text_10">
    <!-- Inhibitory Neurons -->
    <g transform="translate(450.694615 107.55745) scale(0.12 -0.12)">
     <use xlink:href="#TimesNewRomanPS-BoldMT-49"/>
     <use xlink:href="#TimesNewRomanPS-BoldMT-6e" x="38.916016"/>
     <use xlink:href="#TimesNewRomanPS-BoldMT-68" x="94.53125"/>
     <use xlink:href="#TimesNewRomanPS-BoldMT-69" x="150.146484"/>
     <use xlink:href="#TimesNewRomanPS-BoldMT-62" x="177.929688"/>
     <use xlink:href="#TimesNewRomanPS-BoldMT-69" x="233.544922"/>
     <use xlink:href="#TimesNewRomanPS-BoldMT-74" x="261.328125"/>
     <use xlink:href="#TimesNewRomanPS-BoldMT-6f" x="294.628906"/>
     <use xlink:href="#TimesNewRomanPS-BoldMT-72" x="344.628906"/>
     <use xlink:href="#TimesNewRomanPS-BoldMT-79" x="389.013672"/>
     <use xlink:href="#TimesNewRomanPS-BoldMT-20" x="439.013672"/>
     <use xlink:href="#TimesNewRomanPS-BoldMT-4e" x="464.013672"/>
     <use xlink:href="#TimesNewRomanPS-BoldMT-65" x="536.230469"/>
     <use xlink:href="#TimesNewRomanPS-BoldMT-75" x="580.615234"/>
     <use xlink:href="#TimesNewRomanPS-BoldMT-72" x="636.230469"/>
     <use xlink:href="#TimesNewRomanPS-BoldMT-6f" x="678.865234"/>
     <use xlink:href="#TimesNewRomanPS-BoldMT-6e" x="728.865234"/>
     <use xlink:href="#TimesNewRomanPS-BoldMT-73" x="784.480469"/>
    </g>
   </g>
   <g id="text_11">
    <!-- Microglia -->
    <g transform="translate(450.694615 51.400452) scale(0.12 -0.12)">
     <use xlink:href="#TimesNewRomanPS-BoldMT-4d"/>
     <use xlink:href="#TimesNewRomanPS-BoldMT-69" x="94.384766"/>
     <use xlink:href="#TimesNewRomanPS-BoldMT-63" x="122.167969"/>
     <use xlink:href="#TimesNewRomanPS-BoldMT-72" x="166.552734"/>
     <use xlink:href="#TimesNewRomanPS-BoldMT-6f" x="209.1875"/>
     <use xlink:href="#TimesNewRomanPS-BoldMT-67" x="259.1875"/>
     <use xlink:href="#TimesNewRomanPS-BoldMT-6c" x="309.1875"/>
     <use xlink:href="#TimesNewRomanPS-BoldMT-69" x="336.970703"/>
     <use xlink:href="#TimesNewRomanPS-BoldMT-61" x="364.753906"/>
    </g>
   </g>
   <g id="text_12">
    <!-- Oligodendrocytes -->
    <g transform="translate(450.694615 22.136793) scale(0.12 -0.12)">
     <use xlink:href="#TimesNewRomanPS-BoldMT-4f"/>
     <use xlink:href="#TimesNewRomanPS-BoldMT-6c" x="77.783203"/>
     <use xlink:href="#TimesNewRomanPS-BoldMT-69" x="105.566406"/>
     <use xlink:href="#TimesNewRomanPS-BoldMT-67" x="133.349609"/>
     <use xlink:href="#TimesNewRomanPS-BoldMT-6f" x="183.349609"/>
     <use xlink:href="#TimesNewRomanPS-BoldMT-64" x="233.349609"/>
     <use xlink:href="#TimesNewRomanPS-BoldMT-65" x="288.964844"/>
     <use xlink:href="#TimesNewRomanPS-BoldMT-6e" x="333.349609"/>
     <use xlink:href="#TimesNewRomanPS-BoldMT-64" x="388.964844"/>
     <use xlink:href="#TimesNewRomanPS-BoldMT-72" x="444.580078"/>
     <use xlink:href="#TimesNewRomanPS-BoldMT-6f" x="487.214844"/>
     <use xlink:href="#TimesNewRomanPS-BoldMT-63" x="537.214844"/>
     <use xlink:href="#TimesNewRomanPS-BoldMT-79" x="581.599609"/>
     <use xlink:href="#TimesNewRomanPS-BoldMT-74" x="631.599609"/>
     <use xlink:href="#TimesNewRomanPS-BoldMT-65" x="664.900391"/>
     <use xlink:href="#TimesNewRomanPS-BoldMT-73" x="709.285156"/>
    </g>
   </g>
  </g>
 </g>
 <defs>
  <clipPath id="p83369d2010">
   <rect x="100.442308" y="7.2" width="357.12" height="266.112"/>
  </clipPath>
 </defs>
</svg>
