<?xml version="1.0" encoding="utf-8" standalone="no"?>
<!DOCTYPE svg PUBLIC "-//W3C//DTD SVG 1.1//EN"
  "http://www.w3.org/Graphics/SVG/1.1/DTD/svg11.dtd">
<svg xmlns:xlink="http://www.w3.org/1999/xlink" width="624.744615pt" height="280.512pt" viewBox="0 0 624.744615 280.512" xmlns="http://www.w3.org/2000/svg" version="1.1">
 <metadata>
  <rdf:RDF xmlns:dc="http://purl.org/dc/elements/1.1/" xmlns:cc="http://creativecommons.org/ns#" xmlns:rdf="http://www.w3.org/1999/02/22-rdf-syntax-ns#">
   <cc:Work>
    <dc:type rdf:resource="http://purl.org/dc/dcmitype/StillImage"/>
    <dc:date>2025-03-17T13:31:15.688020</dc:date>
    <dc:format>image/svg+xml</dc:format>
    <dc:creator>
     <cc:Agent>
      <dc:title>Matplotlib v3.9.3, https://matplotlib.org/</dc:title>
     </cc:Agent>
    </dc:creator>
   </cc:Work>
  </rdf:RDF>
 </metadata>
 <defs>
  <style type="text/css">*{stroke-linejoin: round; stroke-linecap: butt}</style>
 </defs>
 <g id="figure_1">
  <g id="patch_1">
   <path d="M 0 280.512 
L 624.744615 280.512 
L 624.744615 0 
L 0 0 
z
" style="fill: #ffffff"/>
  </g>
  <g id="axes_1">
   <g id="PolyCollection_1">
    <defs>
     <path id="m1e15cf2bf9" d="M 150.045035 -38.137656 
L 150.045035 -19.296 
L 156.288392 -19.296 
L 156.288392 -38.137656 
L 156.288392 -38.137656 
L 150.045035 -38.137656 
z
" style="stroke: #5f57db; stroke-opacity: 0.99"/>
    </defs>
    <g clip-path="url(#p4234eb8011)">
     <use xlink:href="#m1e15cf2bf9" x="0" y="280.512" style="fill: #5f57db; fill-opacity: 0.99; stroke: #5f57db; stroke-opacity: 0.99"/>
    </g>
   </g>
   <g id="PolyCollection_2">
    <defs>
     <path id="m065368775e" d="M 150.045035 -52.089453 
L 150.045035 -47.814456 
L 156.288392 -47.814456 
L 156.288392 -52.089453 
L 156.288392 -52.089453 
L 150.045035 -52.089453 
z
" style="stroke: #db57d3; stroke-opacity: 0.99"/>
    </defs>
    <g clip-path="url(#p4234eb8011)">
     <use xlink:href="#m065368775e" x="0" y="280.512" style="fill: #db57d3; fill-opacity: 0.99; stroke: #db57d3; stroke-opacity: 0.99"/>
    </g>
   </g>
   <g id="PolyCollection_3">
    <defs>
     <path id="me7b9d8b6f5" d="M 150.045035 -169.327303 
L 150.045035 -61.766253 
L 156.288392 -61.766253 
L 156.288392 -169.327303 
L 156.288392 -169.327303 
L 150.045035 -169.327303 
z
" style="stroke: #db5f57; stroke-opacity: 0.99"/>
    </defs>
    <g clip-path="url(#p4234eb8011)">
     <use xlink:href="#me7b9d8b6f5" x="0" y="280.512" style="fill: #db5f57; fill-opacity: 0.99; stroke: #db5f57; stroke-opacity: 0.99"/>
    </g>
   </g>
   <g id="PolyCollection_4">
    <defs>
     <path id="m5f8836df46" d="M 150.045035 -214.312416 
L 150.045035 -179.004103 
L 156.288392 -179.004103 
L 156.288392 -214.312416 
L 156.288392 -214.312416 
L 150.045035 -214.312416 
z
" style="stroke: #d3db57; stroke-opacity: 0.99"/>
    </defs>
    <g clip-path="url(#p4234eb8011)">
     <use xlink:href="#m5f8836df46" x="0" y="280.512" style="fill: #d3db57; fill-opacity: 0.99; stroke: #d3db57; stroke-opacity: 0.99"/>
    </g>
   </g>
   <g id="PolyCollection_5">
    <defs>
     <path id="mc9142cd0e4" d="M 150.045035 -246.15587 
L 150.045035 -223.989216 
L 156.288392 -223.989216 
L 156.288392 -246.15587 
L 156.288392 -246.15587 
L 150.045035 -246.15587 
z
" style="stroke: #57db5f; stroke-opacity: 0.99"/>
    </defs>
    <g clip-path="url(#p4234eb8011)">
     <use xlink:href="#mc9142cd0e4" x="0" y="280.512" style="fill: #57db5f; fill-opacity: 0.99; stroke: #57db5f; stroke-opacity: 0.99"/>
    </g>
   </g>
   <g id="PolyCollection_6">
    <defs>
     <path id="m6b2250092a" d="M 150.045035 -261.216 
L 150.045035 -255.83267 
L 156.288392 -255.83267 
L 156.288392 -261.216 
L 156.288392 -261.216 
L 150.045035 -261.216 
z
" style="stroke: #57d3db; stroke-opacity: 0.99"/>
    </defs>
    <g clip-path="url(#p4234eb8011)">
     <use xlink:href="#m6b2250092a" x="0" y="280.512" style="fill: #57d3db; fill-opacity: 0.99; stroke: #57d3db; stroke-opacity: 0.99"/>
    </g>
   </g>
   <g id="PolyCollection_7">
    <defs>
     <path id="md45c66a95f" d="M 468.456224 -37.451545 
L 468.456224 -19.296 
L 474.69958 -19.296 
L 474.69958 -37.451545 
L 474.69958 -37.451545 
L 468.456224 -37.451545 
z
" style="stroke: #5f57db; stroke-opacity: 0.99"/>
    </defs>
    <g clip-path="url(#p4234eb8011)">
     <use xlink:href="#md45c66a95f" x="0" y="280.512" style="fill: #5f57db; fill-opacity: 0.99; stroke: #5f57db; stroke-opacity: 0.99"/>
    </g>
   </g>
   <g id="PolyCollection_8">
    <defs>
     <path id="mb9e79f0506" d="M 468.456224 -51.403343 
L 468.456224 -47.128345 
L 474.69958 -47.128345 
L 474.69958 -51.403343 
L 474.69958 -51.403343 
L 468.456224 -51.403343 
z
" style="stroke: #db57d3; stroke-opacity: 0.99"/>
    </defs>
    <g clip-path="url(#p4234eb8011)">
     <use xlink:href="#mb9e79f0506" x="0" y="280.512" style="fill: #db57d3; fill-opacity: 0.99; stroke: #db57d3; stroke-opacity: 0.99"/>
    </g>
   </g>
   <g id="PolyCollection_9">
    <defs>
     <path id="md1c3ccdef6" d="M 468.456224 -167.163415 
L 468.456224 -61.080143 
L 474.69958 -61.080143 
L 474.69958 -167.163415 
L 474.69958 -167.163415 
L 468.456224 -167.163415 
z
" style="stroke: #db5f57; stroke-opacity: 0.99"/>
    </defs>
    <g clip-path="url(#p4234eb8011)">
     <use xlink:href="#md1c3ccdef6" x="0" y="280.512" style="fill: #db5f57; fill-opacity: 0.99; stroke: #db5f57; stroke-opacity: 0.99"/>
    </g>
   </g>
   <g id="PolyCollection_10">
    <defs>
     <path id="mdd8bc19197" d="M 468.456224 -214.048527 
L 468.456224 -176.840215 
L 474.69958 -176.840215 
L 474.69958 -214.048527 
L 474.69958 -214.048527 
L 468.456224 -214.048527 
z
" style="stroke: #d3db57; stroke-opacity: 0.99"/>
    </defs>
    <g clip-path="url(#p4234eb8011)">
     <use xlink:href="#mdd8bc19197" x="0" y="280.512" style="fill: #d3db57; fill-opacity: 0.99; stroke: #d3db57; stroke-opacity: 0.99"/>
    </g>
   </g>
   <g id="PolyCollection_11">
    <defs>
     <path id="m070860b4d3" d="M 468.456224 -245.733648 
L 468.456224 -223.725327 
L 474.69958 -223.725327 
L 474.69958 -245.733648 
L 474.69958 -245.733648 
L 468.456224 -245.733648 
z
" style="stroke: #57db5f; stroke-opacity: 0.99"/>
    </defs>
    <g clip-path="url(#p4234eb8011)">
     <use xlink:href="#m070860b4d3" x="0" y="280.512" style="fill: #57db5f; fill-opacity: 0.99; stroke: #57db5f; stroke-opacity: 0.99"/>
    </g>
   </g>
   <g id="PolyCollection_12">
    <defs>
     <path id="m7e11f5c5dd" d="M 468.456224 -261.216 
L 468.456224 -255.410448 
L 474.69958 -255.410448 
L 474.69958 -261.216 
L 474.69958 -261.216 
L 468.456224 -261.216 
z
" style="stroke: #57d3db; stroke-opacity: 0.99"/>
    </defs>
    <g clip-path="url(#p4234eb8011)">
     <use xlink:href="#m7e11f5c5dd" x="0" y="280.512" style="fill: #57d3db; fill-opacity: 0.99; stroke: #57d3db; stroke-opacity: 0.99"/>
    </g>
   </g>
   <g id="PolyCollection_13">
    <defs>
     <path id="m0ea7da57b1" d="M 156.288392 -37.240434 
L 156.288392 -19.296 
L 161.405897 -19.296 
L 166.523402 -19.296 
L 171.640908 -19.296 
L 176.758413 -19.296 
L 181.875919 -19.296 
L 186.993424 -19.296 
L 192.11093 -19.296 
L 197.228435 -19.296 
L 202.345941 -19.296 
L 207.463446 -19.296 
L 212.580952 -19.296 
L 217.698457 -19.296 
L 222.815962 -19.296 
L 227.933468 -19.296 
L 233.050973 -19.296 
L 238.168479 -19.296 
L 243.285984 -19.296 
L 248.40349 -19.296 
L 253.520995 -19.296 
L 258.638501 -19.296 
L 263.756006 -19.296 
L 268.873511 -19.296 
L 273.991017 -19.296 
L 279.108522 -19.296 
L 284.226028 -19.296 
L 289.343533 -19.296 
L 294.461039 -19.296 
L 299.578544 -19.296 
L 304.69605 -19.296 
L 309.813555 -19.296 
L 314.93106 -19.296 
L 320.048566 -19.296 
L 325.166071 -19.296 
L 330.283577 -19.296 
L 335.401082 -19.296 
L 340.518588 -19.296 
L 345.636093 -19.296 
L 350.753599 -19.296 
L 355.871104 -19.296 
L 360.988609 -19.296 
L 366.106115 -19.296 
L 371.22362 -19.296 
L 376.341126 -19.296 
L 381.458631 -19.296 
L 386.576137 -19.296 
L 391.693642 -19.296 
L 396.811148 -19.296 
L 401.928653 -19.296 
L 407.046158 -19.296 
L 412.163664 -19.296 
L 417.281169 -19.296 
L 422.398675 -19.296 
L 427.51618 -19.296 
L 432.633686 -19.296 
L 437.751191 -19.296 
L 442.868697 -19.296 
L 447.986202 -19.296 
L 453.103707 -19.296 
L 458.221213 -19.296 
L 463.338718 -19.296 
L 468.456224 -19.296 
L 468.456224 -37.240434 
L 468.456224 -37.240434 
L 463.338718 -37.240434 
L 458.221213 -37.240434 
L 453.103707 -37.240434 
L 447.986202 -37.240434 
L 442.868697 -37.240434 
L 437.751191 -37.240434 
L 432.633686 -37.240434 
L 427.51618 -37.240434 
L 422.398675 -37.240434 
L 417.281169 -37.240434 
L 412.163664 -37.240434 
L 407.046158 -37.240434 
L 401.928653 -37.240434 
L 396.811148 -37.240434 
L 391.693642 -37.240434 
L 386.576137 -37.240434 
L 381.458631 -37.240434 
L 376.341126 -37.240434 
L 371.22362 -37.240434 
L 366.106115 -37.240434 
L 360.988609 -37.240434 
L 355.871104 -37.240434 
L 350.753599 -37.240434 
L 345.636093 -37.240434 
L 340.518588 -37.240434 
L 335.401082 -37.240434 
L 330.283577 -37.240434 
L 325.166071 -37.240434 
L 320.048566 -37.240434 
L 314.93106 -37.240434 
L 309.813555 -37.240434 
L 304.69605 -37.240434 
L 299.578544 -37.240434 
L 294.461039 -37.240434 
L 289.343533 -37.240434 
L 284.226028 -37.240434 
L 279.108522 -37.240434 
L 273.991017 -37.240434 
L 268.873511 -37.240434 
L 263.756006 -37.240434 
L 258.638501 -37.240434 
L 253.520995 -37.240434 
L 248.40349 -37.240434 
L 243.285984 -37.240434 
L 238.168479 -37.240434 
L 233.050973 -37.240434 
L 227.933468 -37.240434 
L 222.815962 -37.240434 
L 217.698457 -37.240434 
L 212.580952 -37.240434 
L 207.463446 -37.240434 
L 202.345941 -37.240434 
L 197.228435 -37.240434 
L 192.11093 -37.240434 
L 186.993424 -37.240434 
L 181.875919 -37.240434 
L 176.758413 -37.240434 
L 171.640908 -37.240434 
L 166.523402 -37.240434 
L 161.405897 -37.240434 
L 156.288392 -37.240434 
z
" style="stroke: #5f57db; stroke-opacity: 0.65"/>
    </defs>
    <g clip-path="url(#p4234eb8011)">
     <use xlink:href="#m0ea7da57b1" x="0" y="280.512" style="fill: #5f57db; fill-opacity: 0.65; stroke: #5f57db; stroke-opacity: 0.65"/>
    </g>
   </g>
   <g id="PolyCollection_14">
    <defs>
     <path id="m43e8f8b66b" d="M 156.288392 -37.34599 
L 156.288392 -37.240434 
L 161.405897 -37.240434 
L 166.523402 -37.240434 
L 171.640908 -37.240434 
L 176.758413 -37.240434 
L 181.875919 -37.240434 
L 186.993424 -37.240434 
L 192.11093 -37.240434 
L 197.228435 -37.240434 
L 202.345941 -37.240434 
L 207.463446 -37.240434 
L 212.580952 -37.240434 
L 217.698457 -37.300033 
L 222.815962 -37.419232 
L 227.933468 -37.59803 
L 233.050973 -37.836427 
L 238.168479 -38.134423 
L 243.285984 -38.492019 
L 248.40349 -38.909214 
L 253.520995 -39.386008 
L 258.638501 -39.922401 
L 263.756006 -40.518394 
L 268.873511 -41.173986 
L 273.991017 -41.889177 
L 279.108522 -42.663968 
L 284.226028 -43.498358 
L 289.343533 -44.392347 
L 294.461039 -45.345935 
L 299.578544 -46.359123 
L 304.69605 -47.43191 
L 309.813555 -48.564296 
L 314.93106 -49.756281 
L 320.048566 -50.888667 
L 325.166071 -51.961454 
L 330.283577 -52.974642 
L 335.401082 -53.92823 
L 340.518588 -54.822219 
L 345.636093 -55.656609 
L 350.753599 -56.4314 
L 355.871104 -57.146591 
L 360.988609 -57.802183 
L 366.106115 -58.398175 
L 371.22362 -58.934569 
L 376.341126 -59.411363 
L 381.458631 -59.828558 
L 386.576137 -60.186154 
L 391.693642 -60.48415 
L 396.811148 -60.722547 
L 401.928653 -60.901345 
L 407.046158 -61.020543 
L 412.163664 -61.080143 
L 417.281169 -61.080143 
L 422.398675 -61.080143 
L 427.51618 -61.080143 
L 432.633686 -61.080143 
L 437.751191 -61.080143 
L 442.868697 -61.080143 
L 447.986202 -61.080143 
L 453.103707 -61.080143 
L 458.221213 -61.080143 
L 463.338718 -61.080143 
L 468.456224 -61.080143 
L 468.456224 -61.185698 
L 468.456224 -61.185698 
L 463.338718 -61.185698 
L 458.221213 -61.185698 
L 453.103707 -61.185698 
L 447.986202 -61.185698 
L 442.868697 -61.185698 
L 437.751191 -61.185698 
L 432.633686 -61.185698 
L 427.51618 -61.185698 
L 422.398675 -61.185698 
L 417.281169 -61.185698 
L 412.163664 -61.185698 
L 407.046158 -61.126099 
L 401.928653 -61.0069 
L 396.811148 -60.828103 
L 391.693642 -60.589705 
L 386.576137 -60.291709 
L 381.458631 -59.934113 
L 376.341126 -59.516919 
L 371.22362 -59.040124 
L 366.106115 -58.503731 
L 360.988609 -57.907738 
L 355.871104 -57.252146 
L 350.753599 -56.536955 
L 345.636093 -55.762164 
L 340.518588 -54.927775 
L 335.401082 -54.033786 
L 330.283577 -53.080197 
L 325.166071 -52.06701 
L 320.048566 -50.994223 
L 314.93106 -49.861837 
L 309.813555 -48.669851 
L 304.69605 -47.537465 
L 299.578544 -46.464678 
L 294.461039 -45.451491 
L 289.343533 -44.497902 
L 284.226028 -43.603913 
L 279.108522 -42.769523 
L 273.991017 -41.994733 
L 268.873511 -41.279542 
L 263.756006 -40.62395 
L 258.638501 -40.027957 
L 253.520995 -39.491563 
L 248.40349 -39.014769 
L 243.285984 -38.597574 
L 238.168479 -38.239979 
L 233.050973 -37.941982 
L 227.933468 -37.703585 
L 222.815962 -37.524787 
L 217.698457 -37.405589 
L 212.580952 -37.34599 
L 207.463446 -37.34599 
L 202.345941 -37.34599 
L 197.228435 -37.34599 
L 192.11093 -37.34599 
L 186.993424 -37.34599 
L 181.875919 -37.34599 
L 176.758413 -37.34599 
L 171.640908 -37.34599 
L 166.523402 -37.34599 
L 161.405897 -37.34599 
L 156.288392 -37.34599 
z
" style="stroke: #5f57db; stroke-opacity: 0.65"/>
    </defs>
    <g clip-path="url(#p4234eb8011)">
     <use xlink:href="#m43e8f8b66b" x="0" y="280.512" style="fill: #5f57db; fill-opacity: 0.65; stroke: #5f57db; stroke-opacity: 0.65"/>
    </g>
   </g>
   <g id="PolyCollection_15">
    <defs>
     <path id="ma7a22f18fb" d="M 156.288392 -38.137656 
L 156.288392 -37.34599 
L 161.405897 -37.34599 
L 166.523402 -37.34599 
L 171.640908 -37.34599 
L 176.758413 -37.34599 
L 181.875919 -37.34599 
L 186.993424 -37.34599 
L 192.11093 -37.34599 
L 197.228435 -37.34599 
L 202.345941 -37.34599 
L 207.463446 -37.34599 
L 212.580952 -37.34599 
L 217.698457 -37.694725 
L 222.815962 -38.392196 
L 227.933468 -39.438403 
L 233.050973 -40.833345 
L 238.168479 -42.577023 
L 243.285984 -44.669436 
L 248.40349 -47.110585 
L 253.520995 -49.90047 
L 258.638501 -53.03909 
L 263.756006 -56.526446 
L 268.873511 -60.362537 
L 273.991017 -64.547364 
L 279.108522 -69.080926 
L 284.226028 -73.963224 
L 289.343533 -79.194257 
L 294.461039 -84.774026 
L 299.578544 -90.702531 
L 304.69605 -96.979771 
L 309.813555 -103.605747 
L 314.93106 -110.580458 
L 320.048566 -117.206434 
L 325.166071 -123.483674 
L 330.283577 -129.412178 
L 335.401082 -134.991947 
L 340.518588 -140.222981 
L 345.636093 -145.105279 
L 350.753599 -149.638841 
L 355.871104 -153.823668 
L 360.988609 -157.659759 
L 366.106115 -161.147115 
L 371.22362 -164.285735 
L 376.341126 -167.075619 
L 381.458631 -169.516768 
L 386.576137 -171.609182 
L 391.693642 -173.352859 
L 396.811148 -174.747802 
L 401.928653 -175.794008 
L 407.046158 -176.49148 
L 412.163664 -176.840215 
L 417.281169 -176.840215 
L 422.398675 -176.840215 
L 427.51618 -176.840215 
L 432.633686 -176.840215 
L 437.751191 -176.840215 
L 442.868697 -176.840215 
L 447.986202 -176.840215 
L 453.103707 -176.840215 
L 458.221213 -176.840215 
L 463.338718 -176.840215 
L 468.456224 -176.840215 
L 468.456224 -177.631881 
L 468.456224 -177.631881 
L 463.338718 -177.631881 
L 458.221213 -177.631881 
L 453.103707 -177.631881 
L 447.986202 -177.631881 
L 442.868697 -177.631881 
L 437.751191 -177.631881 
L 432.633686 -177.631881 
L 427.51618 -177.631881 
L 422.398675 -177.631881 
L 417.281169 -177.631881 
L 412.163664 -177.631881 
L 407.046158 -177.283146 
L 401.928653 -176.585675 
L 396.811148 -175.539468 
L 391.693642 -174.144526 
L 386.576137 -172.400848 
L 381.458631 -170.308434 
L 376.341126 -167.867286 
L 371.22362 -165.077401 
L 366.106115 -161.938781 
L 360.988609 -158.451425 
L 355.871104 -154.615334 
L 350.753599 -150.430507 
L 345.636093 -145.896945 
L 340.518588 -141.014647 
L 335.401082 -135.783614 
L 330.283577 -130.203845 
L 325.166071 -124.27534 
L 320.048566 -117.9981 
L 314.93106 -111.372124 
L 309.813555 -104.397413 
L 304.69605 -97.771437 
L 299.578544 -91.494197 
L 294.461039 -85.565693 
L 289.343533 -79.985923 
L 284.226028 -74.75489 
L 279.108522 -69.872592 
L 273.991017 -65.33903 
L 268.873511 -61.154203 
L 263.756006 -57.318112 
L 258.638501 -53.830756 
L 253.520995 -50.692136 
L 248.40349 -47.902252 
L 243.285984 -45.461103 
L 238.168479 -43.368689 
L 233.050973 -41.625011 
L 227.933468 -40.230069 
L 222.815962 -39.183863 
L 217.698457 -38.486391 
L 212.580952 -38.137656 
L 207.463446 -38.137656 
L 202.345941 -38.137656 
L 197.228435 -38.137656 
L 192.11093 -38.137656 
L 186.993424 -38.137656 
L 181.875919 -38.137656 
L 176.758413 -38.137656 
L 171.640908 -38.137656 
L 166.523402 -38.137656 
L 161.405897 -38.137656 
L 156.288392 -38.137656 
z
" style="stroke: #5f57db; stroke-opacity: 0.65"/>
    </defs>
    <g clip-path="url(#p4234eb8011)">
     <use xlink:href="#ma7a22f18fb" x="0" y="280.512" style="fill: #5f57db; fill-opacity: 0.65; stroke: #5f57db; stroke-opacity: 0.65"/>
    </g>
   </g>
   <g id="PolyCollection_16">
    <defs>
     <path id="m892e031a2a" d="M 156.288392 -52.089453 
L 156.288392 -47.814456 
L 161.405897 -47.814456 
L 166.523402 -47.814456 
L 171.640908 -47.814456 
L 176.758413 -47.814456 
L 181.875919 -47.814456 
L 186.993424 -47.814456 
L 192.11093 -47.814456 
L 197.228435 -47.814456 
L 202.345941 -47.814456 
L 207.463446 -47.814456 
L 212.580952 -47.814456 
L 217.698457 -47.812741 
L 222.815962 -47.80931 
L 227.933468 -47.804164 
L 233.050973 -47.797303 
L 238.168479 -47.788727 
L 243.285984 -47.778435 
L 248.40349 -47.766428 
L 253.520995 -47.752706 
L 258.638501 -47.737268 
L 263.756006 -47.720116 
L 268.873511 -47.701248 
L 273.991017 -47.680664 
L 279.108522 -47.658366 
L 284.226028 -47.634352 
L 289.343533 -47.608623 
L 294.461039 -47.581178 
L 299.578544 -47.552019 
L 304.69605 -47.521144 
L 309.813555 -47.488553 
L 314.93106 -47.454248 
L 320.048566 -47.421657 
L 325.166071 -47.390782 
L 330.283577 -47.361623 
L 335.401082 -47.334178 
L 340.518588 -47.308449 
L 345.636093 -47.284435 
L 350.753599 -47.262137 
L 355.871104 -47.241553 
L 360.988609 -47.222685 
L 366.106115 -47.205533 
L 371.22362 -47.190095 
L 376.341126 -47.176373 
L 381.458631 -47.164366 
L 386.576137 -47.154074 
L 391.693642 -47.145498 
L 396.811148 -47.138637 
L 401.928653 -47.133491 
L 407.046158 -47.13006 
L 412.163664 -47.128345 
L 417.281169 -47.128345 
L 422.398675 -47.128345 
L 427.51618 -47.128345 
L 432.633686 -47.128345 
L 437.751191 -47.128345 
L 442.868697 -47.128345 
L 447.986202 -47.128345 
L 453.103707 -47.128345 
L 458.221213 -47.128345 
L 463.338718 -47.128345 
L 468.456224 -47.128345 
L 468.456224 -51.403343 
L 468.456224 -51.403343 
L 463.338718 -51.403343 
L 458.221213 -51.403343 
L 453.103707 -51.403343 
L 447.986202 -51.403343 
L 442.868697 -51.403343 
L 437.751191 -51.403343 
L 432.633686 -51.403343 
L 427.51618 -51.403343 
L 422.398675 -51.403343 
L 417.281169 -51.403343 
L 412.163664 -51.403343 
L 407.046158 -51.405058 
L 401.928653 -51.408489 
L 396.811148 -51.413634 
L 391.693642 -51.420495 
L 386.576137 -51.429072 
L 381.458631 -51.439363 
L 376.341126 -51.45137 
L 371.22362 -51.465093 
L 366.106115 -51.48053 
L 360.988609 -51.497683 
L 355.871104 -51.516551 
L 350.753599 -51.537134 
L 345.636093 -51.559433 
L 340.518588 -51.583447 
L 335.401082 -51.609176 
L 330.283577 -51.63662 
L 325.166071 -51.66578 
L 320.048566 -51.696655 
L 314.93106 -51.729245 
L 309.813555 -51.763551 
L 304.69605 -51.796141 
L 299.578544 -51.827016 
L 294.461039 -51.856176 
L 289.343533 -51.88362 
L 284.226028 -51.909349 
L 279.108522 -51.933363 
L 273.991017 -51.955662 
L 268.873511 -51.976245 
L 263.756006 -51.995113 
L 258.638501 -52.012266 
L 253.520995 -52.027703 
L 248.40349 -52.041426 
L 243.285984 -52.053433 
L 238.168479 -52.063724 
L 233.050973 -52.072301 
L 227.933468 -52.079162 
L 222.815962 -52.084308 
L 217.698457 -52.087738 
L 212.580952 -52.089453 
L 207.463446 -52.089453 
L 202.345941 -52.089453 
L 197.228435 -52.089453 
L 192.11093 -52.089453 
L 186.993424 -52.089453 
L 181.875919 -52.089453 
L 176.758413 -52.089453 
L 171.640908 -52.089453 
L 166.523402 -52.089453 
L 161.405897 -52.089453 
L 156.288392 -52.089453 
z
" style="stroke: #db57d3; stroke-opacity: 0.65"/>
    </defs>
    <g clip-path="url(#p4234eb8011)">
     <use xlink:href="#m892e031a2a" x="0" y="280.512" style="fill: #db57d3; fill-opacity: 0.65; stroke: #db57d3; stroke-opacity: 0.65"/>
    </g>
   </g>
   <g id="PolyCollection_17">
    <defs>
     <path id="m54b321060e" d="M 156.288392 -167.216193 
L 156.288392 -61.766253 
L 161.405897 -61.766253 
L 166.523402 -61.766253 
L 171.640908 -61.766253 
L 176.758413 -61.766253 
L 181.875919 -61.766253 
L 186.993424 -61.766253 
L 192.11093 -61.766253 
L 197.228435 -61.766253 
L 202.345941 -61.766253 
L 207.463446 -61.766253 
L 212.580952 -61.766253 
L 217.698457 -61.764802 
L 222.815962 -61.761899 
L 227.933468 -61.757545 
L 233.050973 -61.75174 
L 238.168479 -61.744483 
L 243.285984 -61.735774 
L 248.40349 -61.725615 
L 253.520995 -61.714003 
L 258.638501 -61.700941 
L 263.756006 -61.686427 
L 268.873511 -61.670462 
L 273.991017 -61.653045 
L 279.108522 -61.634177 
L 284.226028 -61.613858 
L 289.343533 -61.592087 
L 294.461039 -61.568865 
L 299.578544 -61.544191 
L 304.69605 -61.518066 
L 309.813555 -61.49049 
L 314.93106 -61.461462 
L 320.048566 -61.433886 
L 325.166071 -61.407761 
L 330.283577 -61.383087 
L 335.401082 -61.359865 
L 340.518588 -61.338094 
L 345.636093 -61.317774 
L 350.753599 -61.298906 
L 355.871104 -61.28149 
L 360.988609 -61.265525 
L 366.106115 -61.251011 
L 371.22362 -61.237948 
L 376.341126 -61.226337 
L 381.458631 -61.216177 
L 386.576137 -61.207469 
L 391.693642 -61.200212 
L 396.811148 -61.194407 
L 401.928653 -61.190052 
L 407.046158 -61.18715 
L 412.163664 -61.185698 
L 417.281169 -61.185698 
L 422.398675 -61.185698 
L 427.51618 -61.185698 
L 432.633686 -61.185698 
L 437.751191 -61.185698 
L 442.868697 -61.185698 
L 447.986202 -61.185698 
L 453.103707 -61.185698 
L 458.221213 -61.185698 
L 463.338718 -61.185698 
L 468.456224 -61.185698 
L 468.456224 -166.635638 
L 468.456224 -166.635638 
L 463.338718 -166.635638 
L 458.221213 -166.635638 
L 453.103707 -166.635638 
L 447.986202 -166.635638 
L 442.868697 -166.635638 
L 437.751191 -166.635638 
L 432.633686 -166.635638 
L 427.51618 -166.635638 
L 422.398675 -166.635638 
L 417.281169 -166.635638 
L 412.163664 -166.635638 
L 407.046158 -166.637089 
L 401.928653 -166.639992 
L 396.811148 -166.644346 
L 391.693642 -166.650152 
L 386.576137 -166.657408 
L 381.458631 -166.666117 
L 376.341126 -166.676276 
L 371.22362 -166.687888 
L 366.106115 -166.70095 
L 360.988609 -166.715464 
L 355.871104 -166.731429 
L 350.753599 -166.748846 
L 345.636093 -166.767714 
L 340.518588 -166.788033 
L 335.401082 -166.809804 
L 330.283577 -166.833026 
L 325.166071 -166.8577 
L 320.048566 -166.883825 
L 314.93106 -166.911401 
L 309.813555 -166.940429 
L 304.69605 -166.968005 
L 299.578544 -166.99413 
L 294.461039 -167.018804 
L 289.343533 -167.042026 
L 284.226028 -167.063797 
L 279.108522 -167.084117 
L 273.991017 -167.102985 
L 268.873511 -167.120401 
L 263.756006 -167.136367 
L 258.638501 -167.15088 
L 253.520995 -167.163943 
L 248.40349 -167.175554 
L 243.285984 -167.185714 
L 238.168479 -167.194422 
L 233.050973 -167.201679 
L 227.933468 -167.207485 
L 222.815962 -167.211839 
L 217.698457 -167.214741 
L 212.580952 -167.216193 
L 207.463446 -167.216193 
L 202.345941 -167.216193 
L 197.228435 -167.216193 
L 192.11093 -167.216193 
L 186.993424 -167.216193 
L 181.875919 -167.216193 
L 176.758413 -167.216193 
L 171.640908 -167.216193 
L 166.523402 -167.216193 
L 161.405897 -167.216193 
L 156.288392 -167.216193 
z
" style="stroke: #db5f57; stroke-opacity: 0.65"/>
    </defs>
    <g clip-path="url(#p4234eb8011)">
     <use xlink:href="#m54b321060e" x="0" y="280.512" style="fill: #db5f57; fill-opacity: 0.65; stroke: #db5f57; stroke-opacity: 0.65"/>
    </g>
   </g>
   <g id="PolyCollection_18">
    <defs>
     <path id="m5d89c934d8" d="M 156.288392 -169.327303 
L 156.288392 -167.216193 
L 161.405897 -167.216193 
L 166.523402 -167.216193 
L 171.640908 -167.216193 
L 176.758413 -167.216193 
L 181.875919 -167.216193 
L 186.993424 -167.216193 
L 192.11093 -167.216193 
L 197.228435 -167.216193 
L 202.345941 -167.216193 
L 207.463446 -167.216193 
L 212.580952 -167.216193 
L 217.698457 -167.242232 
L 222.815962 -167.294311 
L 227.933468 -167.372428 
L 233.050973 -167.476585 
L 238.168479 -167.606781 
L 243.285984 -167.763016 
L 248.40349 -167.945291 
L 253.520995 -168.153605 
L 258.638501 -168.387958 
L 263.756006 -168.64835 
L 268.873511 -168.934781 
L 273.991017 -169.247252 
L 279.108522 -169.585762 
L 284.226028 -169.950311 
L 289.343533 -170.340899 
L 294.461039 -170.757527 
L 299.578544 -171.200194 
L 304.69605 -171.6689 
L 309.813555 -172.163645 
L 314.93106 -172.684429 
L 320.048566 -173.179175 
L 325.166071 -173.64788 
L 330.283577 -174.090547 
L 335.401082 -174.507175 
L 340.518588 -174.897763 
L 345.636093 -175.262312 
L 350.753599 -175.600822 
L 355.871104 -175.913293 
L 360.988609 -176.199724 
L 366.106115 -176.460116 
L 371.22362 -176.694469 
L 376.341126 -176.902783 
L 381.458631 -177.085058 
L 386.576137 -177.241293 
L 391.693642 -177.371489 
L 396.811148 -177.475646 
L 401.928653 -177.553764 
L 407.046158 -177.605842 
L 412.163664 -177.631881 
L 417.281169 -177.631881 
L 422.398675 -177.631881 
L 427.51618 -177.631881 
L 432.633686 -177.631881 
L 437.751191 -177.631881 
L 442.868697 -177.631881 
L 447.986202 -177.631881 
L 453.103707 -177.631881 
L 458.221213 -177.631881 
L 463.338718 -177.631881 
L 468.456224 -177.631881 
L 468.456224 -179.742991 
L 468.456224 -179.742991 
L 463.338718 -179.742991 
L 458.221213 -179.742991 
L 453.103707 -179.742991 
L 447.986202 -179.742991 
L 442.868697 -179.742991 
L 437.751191 -179.742991 
L 432.633686 -179.742991 
L 427.51618 -179.742991 
L 422.398675 -179.742991 
L 417.281169 -179.742991 
L 412.163664 -179.742991 
L 407.046158 -179.716952 
L 401.928653 -179.664874 
L 396.811148 -179.586756 
L 391.693642 -179.482599 
L 386.576137 -179.352403 
L 381.458631 -179.196168 
L 376.341126 -179.013893 
L 371.22362 -178.805579 
L 366.106115 -178.571226 
L 360.988609 -178.310834 
L 355.871104 -178.024403 
L 350.753599 -177.711932 
L 345.636093 -177.373422 
L 340.518588 -177.008873 
L 335.401082 -176.618285 
L 330.283577 -176.201657 
L 325.166071 -175.75899 
L 320.048566 -175.290284 
L 314.93106 -174.795539 
L 309.813555 -174.274755 
L 304.69605 -173.78001 
L 299.578544 -173.311304 
L 294.461039 -172.868637 
L 289.343533 -172.452009 
L 284.226028 -172.061421 
L 279.108522 -171.696872 
L 273.991017 -171.358362 
L 268.873511 -171.045891 
L 263.756006 -170.75946 
L 258.638501 -170.499068 
L 253.520995 -170.264715 
L 248.40349 -170.056401 
L 243.285984 -169.874126 
L 238.168479 -169.717891 
L 233.050973 -169.587695 
L 227.933468 -169.483538 
L 222.815962 -169.40542 
L 217.698457 -169.353342 
L 212.580952 -169.327303 
L 207.463446 -169.327303 
L 202.345941 -169.327303 
L 197.228435 -169.327303 
L 192.11093 -169.327303 
L 186.993424 -169.327303 
L 181.875919 -169.327303 
L 176.758413 -169.327303 
L 171.640908 -169.327303 
L 166.523402 -169.327303 
L 161.405897 -169.327303 
L 156.288392 -169.327303 
z
" style="stroke: #db5f57; stroke-opacity: 0.65"/>
    </defs>
    <g clip-path="url(#p4234eb8011)">
     <use xlink:href="#m5d89c934d8" x="0" y="280.512" style="fill: #db5f57; fill-opacity: 0.65; stroke: #db5f57; stroke-opacity: 0.65"/>
    </g>
   </g>
   <g id="PolyCollection_19">
    <defs>
     <path id="mdd7dfc53db" d="M 156.288392 -179.215214 
L 156.288392 -179.004103 
L 161.405897 -179.004103 
L 166.523402 -179.004103 
L 171.640908 -179.004103 
L 176.758413 -179.004103 
L 181.875919 -179.004103 
L 186.993424 -179.004103 
L 192.11093 -179.004103 
L 197.228435 -179.004103 
L 202.345941 -179.004103 
L 207.463446 -179.004103 
L 212.580952 -179.004103 
L 217.698457 -178.649694 
L 222.815962 -177.940875 
L 227.933468 -176.877648 
L 233.050973 -175.460011 
L 238.168479 -173.687965 
L 243.285984 -171.56151 
L 248.40349 -169.080646 
L 253.520995 -166.245373 
L 258.638501 -163.05569 
L 263.756006 -159.511598 
L 268.873511 -155.613097 
L 273.991017 -151.360187 
L 279.108522 -146.752868 
L 284.226028 -141.79114 
L 289.343533 -136.475002 
L 294.461039 -130.804455 
L 299.578544 -124.7795 
L 304.69605 -118.400134 
L 309.813555 -111.66636 
L 314.93106 -104.578177 
L 320.048566 -97.844402 
L 325.166071 -91.465037 
L 330.283577 -85.440081 
L 335.401082 -79.769535 
L 340.518588 -74.453397 
L 345.636093 -69.491669 
L 350.753599 -64.88435 
L 355.871104 -60.631439 
L 360.988609 -56.732939 
L 366.106115 -53.188847 
L 371.22362 -49.999164 
L 376.341126 -47.163891 
L 381.458631 -44.683027 
L 386.576137 -42.556572 
L 391.693642 -40.784526 
L 396.811148 -39.366889 
L 401.928653 -38.303662 
L 407.046158 -37.594843 
L 412.163664 -37.240434 
L 417.281169 -37.240434 
L 422.398675 -37.240434 
L 427.51618 -37.240434 
L 432.633686 -37.240434 
L 437.751191 -37.240434 
L 442.868697 -37.240434 
L 447.986202 -37.240434 
L 453.103707 -37.240434 
L 458.221213 -37.240434 
L 463.338718 -37.240434 
L 468.456224 -37.240434 
L 468.456224 -37.451545 
L 468.456224 -37.451545 
L 463.338718 -37.451545 
L 458.221213 -37.451545 
L 453.103707 -37.451545 
L 447.986202 -37.451545 
L 442.868697 -37.451545 
L 437.751191 -37.451545 
L 432.633686 -37.451545 
L 427.51618 -37.451545 
L 422.398675 -37.451545 
L 417.281169 -37.451545 
L 412.163664 -37.451545 
L 407.046158 -37.805954 
L 401.928653 -38.514773 
L 396.811148 -39.578 
L 391.693642 -40.995637 
L 386.576137 -42.767683 
L 381.458631 -44.894138 
L 376.341126 -47.375002 
L 371.22362 -50.210275 
L 366.106115 -53.399958 
L 360.988609 -56.94405 
L 355.871104 -60.84255 
L 350.753599 -65.095461 
L 345.636093 -69.70278 
L 340.518588 -74.664508 
L 335.401082 -79.980646 
L 330.283577 -85.651192 
L 325.166071 -91.676148 
L 320.048566 -98.055513 
L 314.93106 -104.789288 
L 309.813555 -111.877471 
L 304.69605 -118.611245 
L 299.578544 -124.990611 
L 294.461039 -131.015566 
L 289.343533 -136.686113 
L 284.226028 -142.002251 
L 279.108522 -146.963979 
L 273.991017 -151.571298 
L 268.873511 -155.824208 
L 263.756006 -159.722709 
L 258.638501 -163.266801 
L 253.520995 -166.456484 
L 248.40349 -169.291757 
L 243.285984 -171.772621 
L 238.168479 -173.899076 
L 233.050973 -175.671122 
L 227.933468 -177.088759 
L 222.815962 -178.151986 
L 217.698457 -178.860805 
L 212.580952 -179.215214 
L 207.463446 -179.215214 
L 202.345941 -179.215214 
L 197.228435 -179.215214 
L 192.11093 -179.215214 
L 186.993424 -179.215214 
L 181.875919 -179.215214 
L 176.758413 -179.215214 
L 171.640908 -179.215214 
L 166.523402 -179.215214 
L 161.405897 -179.215214 
L 156.288392 -179.215214 
z
" style="stroke: #d3db57; stroke-opacity: 0.65"/>
    </defs>
    <g clip-path="url(#p4234eb8011)">
     <use xlink:href="#mdd7dfc53db" x="0" y="280.512" style="fill: #d3db57; fill-opacity: 0.65; stroke: #d3db57; stroke-opacity: 0.65"/>
    </g>
   </g>
   <g id="PolyCollection_20">
    <defs>
     <path id="mce47c81956" d="M 156.288392 -179.742991 
L 156.288392 -179.215214 
L 161.405897 -179.215214 
L 166.523402 -179.215214 
L 171.640908 -179.215214 
L 176.758413 -179.215214 
L 181.875919 -179.215214 
L 186.993424 -179.215214 
L 192.11093 -179.215214 
L 197.228435 -179.215214 
L 202.345941 -179.215214 
L 207.463446 -179.215214 
L 212.580952 -179.215214 
L 217.698457 -179.183765 
L 222.815962 -179.120867 
L 227.933468 -179.02652 
L 233.050973 -178.900724 
L 238.168479 -178.74348 
L 243.285984 -178.554786 
L 248.40349 -178.334643 
L 253.520995 -178.083052 
L 258.638501 -177.800011 
L 263.756006 -177.485522 
L 268.873511 -177.139584 
L 273.991017 -176.762196 
L 279.108522 -176.35336 
L 284.226028 -175.913075 
L 289.343533 -175.441341 
L 294.461039 -174.938158 
L 299.578544 -174.403526 
L 304.69605 -173.837445 
L 309.813555 -173.239915 
L 314.93106 -172.610936 
L 320.048566 -172.013406 
L 325.166071 -171.447325 
L 330.283577 -170.912694 
L 335.401082 -170.40951 
L 340.518588 -169.937776 
L 345.636093 -169.497491 
L 350.753599 -169.088655 
L 355.871104 -168.711268 
L 360.988609 -168.365329 
L 366.106115 -168.05084 
L 371.22362 -167.767799 
L 376.341126 -167.516208 
L 381.458631 -167.296065 
L 386.576137 -167.107372 
L 391.693642 -166.950127 
L 396.811148 -166.824331 
L 401.928653 -166.729984 
L 407.046158 -166.667087 
L 412.163664 -166.635638 
L 417.281169 -166.635638 
L 422.398675 -166.635638 
L 427.51618 -166.635638 
L 432.633686 -166.635638 
L 437.751191 -166.635638 
L 442.868697 -166.635638 
L 447.986202 -166.635638 
L 453.103707 -166.635638 
L 458.221213 -166.635638 
L 463.338718 -166.635638 
L 468.456224 -166.635638 
L 468.456224 -167.163415 
L 468.456224 -167.163415 
L 463.338718 -167.163415 
L 458.221213 -167.163415 
L 453.103707 -167.163415 
L 447.986202 -167.163415 
L 442.868697 -167.163415 
L 437.751191 -167.163415 
L 432.633686 -167.163415 
L 427.51618 -167.163415 
L 422.398675 -167.163415 
L 417.281169 -167.163415 
L 412.163664 -167.163415 
L 407.046158 -167.194864 
L 401.928653 -167.257762 
L 396.811148 -167.352109 
L 391.693642 -167.477905 
L 386.576137 -167.635149 
L 381.458631 -167.823843 
L 376.341126 -168.043985 
L 371.22362 -168.295577 
L 366.106115 -168.578617 
L 360.988609 -168.893107 
L 355.871104 -169.239045 
L 350.753599 -169.616432 
L 345.636093 -170.025269 
L 340.518588 -170.465554 
L 335.401082 -170.937288 
L 330.283577 -171.440471 
L 325.166071 -171.975103 
L 320.048566 -172.541184 
L 314.93106 -173.138714 
L 309.813555 -173.767693 
L 304.69605 -174.365222 
L 299.578544 -174.931303 
L 294.461039 -175.465935 
L 289.343533 -175.969118 
L 284.226028 -176.440852 
L 279.108522 -176.881138 
L 273.991017 -177.289974 
L 268.873511 -177.667361 
L 263.756006 -178.0133 
L 258.638501 -178.327789 
L 253.520995 -178.610829 
L 248.40349 -178.862421 
L 243.285984 -179.082563 
L 238.168479 -179.271257 
L 233.050973 -179.428502 
L 227.933468 -179.554298 
L 222.815962 -179.648644 
L 217.698457 -179.711542 
L 212.580952 -179.742991 
L 207.463446 -179.742991 
L 202.345941 -179.742991 
L 197.228435 -179.742991 
L 192.11093 -179.742991 
L 186.993424 -179.742991 
L 181.875919 -179.742991 
L 176.758413 -179.742991 
L 171.640908 -179.742991 
L 166.523402 -179.742991 
L 161.405897 -179.742991 
L 156.288392 -179.742991 
z
" style="stroke: #d3db57; stroke-opacity: 0.65"/>
    </defs>
    <g clip-path="url(#p4234eb8011)">
     <use xlink:href="#mce47c81956" x="0" y="280.512" style="fill: #d3db57; fill-opacity: 0.65; stroke: #d3db57; stroke-opacity: 0.65"/>
    </g>
   </g>
   <g id="PolyCollection_21">
    <defs>
     <path id="m6234953f2b" d="M 156.288392 -213.942972 
L 156.288392 -179.742991 
L 161.405897 -179.742991 
L 166.523402 -179.742991 
L 171.640908 -179.742991 
L 176.758413 -179.742991 
L 181.875919 -179.742991 
L 186.993424 -179.742991 
L 192.11093 -179.742991 
L 197.228435 -179.742991 
L 202.345941 -179.742991 
L 207.463446 -179.742991 
L 212.580952 -179.742991 
L 217.698457 -179.742991 
L 222.815962 -179.742991 
L 227.933468 -179.742991 
L 233.050973 -179.742991 
L 238.168479 -179.742991 
L 243.285984 -179.742991 
L 248.40349 -179.742991 
L 253.520995 -179.742991 
L 258.638501 -179.742991 
L 263.756006 -179.742991 
L 268.873511 -179.742991 
L 273.991017 -179.742991 
L 279.108522 -179.742991 
L 284.226028 -179.742991 
L 289.343533 -179.742991 
L 294.461039 -179.742991 
L 299.578544 -179.742991 
L 304.69605 -179.742991 
L 309.813555 -179.742991 
L 314.93106 -179.742991 
L 320.048566 -179.742991 
L 325.166071 -179.742991 
L 330.283577 -179.742991 
L 335.401082 -179.742991 
L 340.518588 -179.742991 
L 345.636093 -179.742991 
L 350.753599 -179.742991 
L 355.871104 -179.742991 
L 360.988609 -179.742991 
L 366.106115 -179.742991 
L 371.22362 -179.742991 
L 376.341126 -179.742991 
L 381.458631 -179.742991 
L 386.576137 -179.742991 
L 391.693642 -179.742991 
L 396.811148 -179.742991 
L 401.928653 -179.742991 
L 407.046158 -179.742991 
L 412.163664 -179.742991 
L 417.281169 -179.742991 
L 422.398675 -179.742991 
L 427.51618 -179.742991 
L 432.633686 -179.742991 
L 437.751191 -179.742991 
L 442.868697 -179.742991 
L 447.986202 -179.742991 
L 453.103707 -179.742991 
L 458.221213 -179.742991 
L 463.338718 -179.742991 
L 468.456224 -179.742991 
L 468.456224 -213.942972 
L 468.456224 -213.942972 
L 463.338718 -213.942972 
L 458.221213 -213.942972 
L 453.103707 -213.942972 
L 447.986202 -213.942972 
L 442.868697 -213.942972 
L 437.751191 -213.942972 
L 432.633686 -213.942972 
L 427.51618 -213.942972 
L 422.398675 -213.942972 
L 417.281169 -213.942972 
L 412.163664 -213.942972 
L 407.046158 -213.942972 
L 401.928653 -213.942972 
L 396.811148 -213.942972 
L 391.693642 -213.942972 
L 386.576137 -213.942972 
L 381.458631 -213.942972 
L 376.341126 -213.942972 
L 371.22362 -213.942972 
L 366.106115 -213.942972 
L 360.988609 -213.942972 
L 355.871104 -213.942972 
L 350.753599 -213.942972 
L 345.636093 -213.942972 
L 340.518588 -213.942972 
L 335.401082 -213.942972 
L 330.283577 -213.942972 
L 325.166071 -213.942972 
L 320.048566 -213.942972 
L 314.93106 -213.942972 
L 309.813555 -213.942972 
L 304.69605 -213.942972 
L 299.578544 -213.942972 
L 294.461039 -213.942972 
L 289.343533 -213.942972 
L 284.226028 -213.942972 
L 279.108522 -213.942972 
L 273.991017 -213.942972 
L 268.873511 -213.942972 
L 263.756006 -213.942972 
L 258.638501 -213.942972 
L 253.520995 -213.942972 
L 248.40349 -213.942972 
L 243.285984 -213.942972 
L 238.168479 -213.942972 
L 233.050973 -213.942972 
L 227.933468 -213.942972 
L 222.815962 -213.942972 
L 217.698457 -213.942972 
L 212.580952 -213.942972 
L 207.463446 -213.942972 
L 202.345941 -213.942972 
L 197.228435 -213.942972 
L 192.11093 -213.942972 
L 186.993424 -213.942972 
L 181.875919 -213.942972 
L 176.758413 -213.942972 
L 171.640908 -213.942972 
L 166.523402 -213.942972 
L 161.405897 -213.942972 
L 156.288392 -213.942972 
z
" style="stroke: #d3db57; stroke-opacity: 0.65"/>
    </defs>
    <g clip-path="url(#p4234eb8011)">
     <use xlink:href="#m6234953f2b" x="0" y="280.512" style="fill: #d3db57; fill-opacity: 0.65; stroke: #d3db57; stroke-opacity: 0.65"/>
    </g>
   </g>
   <g id="PolyCollection_22">
    <defs>
     <path id="m6487f97db2" d="M 156.288392 -213.995749 
L 156.288392 -213.942972 
L 161.405897 -213.942972 
L 166.523402 -213.942972 
L 171.640908 -213.942972 
L 176.758413 -213.942972 
L 181.875919 -213.942972 
L 186.993424 -213.942972 
L 192.11093 -213.942972 
L 197.228435 -213.942972 
L 202.345941 -213.942972 
L 207.463446 -213.942972 
L 212.580952 -213.942972 
L 217.698457 -213.967427 
L 222.815962 -214.016339 
L 227.933468 -214.089707 
L 233.050973 -214.18753 
L 238.168479 -214.30981 
L 243.285984 -214.456545 
L 248.40349 -214.627736 
L 253.520995 -214.823384 
L 258.638501 -215.043487 
L 263.756006 -215.288045 
L 268.873511 -215.55706 
L 273.991017 -215.850531 
L 279.108522 -216.168457 
L 284.226028 -216.51084 
L 289.343533 -216.877678 
L 294.461039 -217.268972 
L 299.578544 -217.684723 
L 304.69605 -218.124929 
L 309.813555 -218.58959 
L 314.93106 -219.078708 
L 320.048566 -219.54337 
L 325.166071 -219.983576 
L 330.283577 -220.399326 
L 335.401082 -220.79062 
L 340.518588 -221.157459 
L 345.636093 -221.499841 
L 350.753599 -221.817768 
L 355.871104 -222.111238 
L 360.988609 -222.380253 
L 366.106115 -222.624812 
L 371.22362 -222.844915 
L 376.341126 -223.040562 
L 381.458631 -223.211753 
L 386.576137 -223.358489 
L 391.693642 -223.480768 
L 396.811148 -223.578592 
L 401.928653 -223.651959 
L 407.046158 -223.700871 
L 412.163664 -223.725327 
L 417.281169 -223.725327 
L 422.398675 -223.725327 
L 427.51618 -223.725327 
L 432.633686 -223.725327 
L 437.751191 -223.725327 
L 442.868697 -223.725327 
L 447.986202 -223.725327 
L 453.103707 -223.725327 
L 458.221213 -223.725327 
L 463.338718 -223.725327 
L 468.456224 -223.725327 
L 468.456224 -223.778105 
L 468.456224 -223.778105 
L 463.338718 -223.778105 
L 458.221213 -223.778105 
L 453.103707 -223.778105 
L 447.986202 -223.778105 
L 442.868697 -223.778105 
L 437.751191 -223.778105 
L 432.633686 -223.778105 
L 427.51618 -223.778105 
L 422.398675 -223.778105 
L 417.281169 -223.778105 
L 412.163664 -223.778105 
L 407.046158 -223.753649 
L 401.928653 -223.704737 
L 396.811148 -223.631369 
L 391.693642 -223.533546 
L 386.576137 -223.411266 
L 381.458631 -223.264531 
L 376.341126 -223.09334 
L 371.22362 -222.897693 
L 366.106115 -222.67759 
L 360.988609 -222.433031 
L 355.871104 -222.164016 
L 350.753599 -221.870546 
L 345.636093 -221.552619 
L 340.518588 -221.210237 
L 335.401082 -220.843398 
L 330.283577 -220.452104 
L 325.166071 -220.036354 
L 320.048566 -219.596148 
L 314.93106 -219.131486 
L 309.813555 -218.642368 
L 304.69605 -218.177706 
L 299.578544 -217.7375 
L 294.461039 -217.32175 
L 289.343533 -216.930456 
L 284.226028 -216.563618 
L 279.108522 -216.221235 
L 273.991017 -215.903309 
L 268.873511 -215.609838 
L 263.756006 -215.340823 
L 258.638501 -215.096264 
L 253.520995 -214.876161 
L 248.40349 -214.680514 
L 243.285984 -214.509323 
L 238.168479 -214.362588 
L 233.050973 -214.240308 
L 227.933468 -214.142485 
L 222.815962 -214.069117 
L 217.698457 -214.020205 
L 212.580952 -213.995749 
L 207.463446 -213.995749 
L 202.345941 -213.995749 
L 197.228435 -213.995749 
L 192.11093 -213.995749 
L 186.993424 -213.995749 
L 181.875919 -213.995749 
L 176.758413 -213.995749 
L 171.640908 -213.995749 
L 166.523402 -213.995749 
L 161.405897 -213.995749 
L 156.288392 -213.995749 
z
" style="stroke: #d3db57; stroke-opacity: 0.65"/>
    </defs>
    <g clip-path="url(#p4234eb8011)">
     <use xlink:href="#m6487f97db2" x="0" y="280.512" style="fill: #d3db57; fill-opacity: 0.65; stroke: #d3db57; stroke-opacity: 0.65"/>
    </g>
   </g>
   <g id="PolyCollection_23">
    <defs>
     <path id="m6ef420a780" d="M 156.288392 -214.312416 
L 156.288392 -213.995749 
L 161.405897 -213.995749 
L 166.523402 -213.995749 
L 171.640908 -213.995749 
L 176.758413 -213.995749 
L 181.875919 -213.995749 
L 186.993424 -213.995749 
L 192.11093 -213.995749 
L 197.228435 -213.995749 
L 202.345941 -213.995749 
L 207.463446 -213.995749 
L 212.580952 -213.995749 
L 217.698457 -214.099286 
L 222.815962 -214.30636 
L 227.933468 -214.61697 
L 233.050973 -215.031117 
L 238.168479 -215.548801 
L 243.285984 -216.170021 
L 248.40349 -216.894778 
L 253.520995 -217.723072 
L 258.638501 -218.654903 
L 263.756006 -219.69027 
L 268.873511 -220.829175 
L 273.991017 -222.071616 
L 279.108522 -223.417593 
L 284.226028 -224.867108 
L 289.343533 -226.420159 
L 294.461039 -228.076747 
L 299.578544 -229.836871 
L 304.69605 -231.700533 
L 309.813555 -233.667731 
L 314.93106 -235.738466 
L 320.048566 -237.705664 
L 325.166071 -239.569326 
L 330.283577 -241.32945 
L 335.401082 -242.986038 
L 340.518588 -244.539089 
L 345.636093 -245.988604 
L 350.753599 -247.334582 
L 355.871104 -248.577023 
L 360.988609 -249.715927 
L 366.106115 -250.751294 
L 371.22362 -251.683125 
L 376.341126 -252.511419 
L 381.458631 -253.236176 
L 386.576137 -253.857397 
L 391.693642 -254.37508 
L 396.811148 -254.789227 
L 401.928653 -255.099838 
L 407.046158 -255.306911 
L 412.163664 -255.410448 
L 417.281169 -255.410448 
L 422.398675 -255.410448 
L 427.51618 -255.410448 
L 432.633686 -255.410448 
L 437.751191 -255.410448 
L 442.868697 -255.410448 
L 447.986202 -255.410448 
L 453.103707 -255.410448 
L 458.221213 -255.410448 
L 463.338718 -255.410448 
L 468.456224 -255.410448 
L 468.456224 -255.727114 
L 468.456224 -255.727114 
L 463.338718 -255.727114 
L 458.221213 -255.727114 
L 453.103707 -255.727114 
L 447.986202 -255.727114 
L 442.868697 -255.727114 
L 437.751191 -255.727114 
L 432.633686 -255.727114 
L 427.51618 -255.727114 
L 422.398675 -255.727114 
L 417.281169 -255.727114 
L 412.163664 -255.727114 
L 407.046158 -255.623578 
L 401.928653 -255.416504 
L 396.811148 -255.105894 
L 391.693642 -254.691747 
L 386.576137 -254.174063 
L 381.458631 -253.552843 
L 376.341126 -252.828085 
L 371.22362 -251.999791 
L 366.106115 -251.067961 
L 360.988609 -250.032593 
L 355.871104 -248.893689 
L 350.753599 -247.651248 
L 345.636093 -246.30527 
L 340.518588 -244.855756 
L 335.401082 -243.302705 
L 330.283577 -241.646117 
L 325.166071 -239.885992 
L 320.048566 -238.022331 
L 314.93106 -236.055133 
L 309.813555 -233.984398 
L 304.69605 -232.017199 
L 299.578544 -230.153538 
L 294.461039 -228.393413 
L 289.343533 -226.736825 
L 284.226028 -225.183774 
L 279.108522 -223.73426 
L 273.991017 -222.388282 
L 268.873511 -221.145841 
L 263.756006 -220.006937 
L 258.638501 -218.971569 
L 253.520995 -218.039739 
L 248.40349 -217.211445 
L 243.285984 -216.486687 
L 238.168479 -215.865467 
L 233.050973 -215.347783 
L 227.933468 -214.933636 
L 222.815962 -214.623026 
L 217.698457 -214.415953 
L 212.580952 -214.312416 
L 207.463446 -214.312416 
L 202.345941 -214.312416 
L 197.228435 -214.312416 
L 192.11093 -214.312416 
L 186.993424 -214.312416 
L 181.875919 -214.312416 
L 176.758413 -214.312416 
L 171.640908 -214.312416 
L 166.523402 -214.312416 
L 161.405897 -214.312416 
L 156.288392 -214.312416 
z
" style="stroke: #d3db57; stroke-opacity: 0.65"/>
    </defs>
    <g clip-path="url(#p4234eb8011)">
     <use xlink:href="#m6ef420a780" x="0" y="280.512" style="fill: #d3db57; fill-opacity: 0.65; stroke: #d3db57; stroke-opacity: 0.65"/>
    </g>
   </g>
   <g id="PolyCollection_24">
    <defs>
     <path id="m60890d1305" d="M 156.288392 -224.094771 
L 156.288392 -223.989216 
L 161.405897 -223.989216 
L 166.523402 -223.989216 
L 171.640908 -223.989216 
L 176.758413 -223.989216 
L 181.875919 -223.989216 
L 186.993424 -223.989216 
L 192.11093 -223.989216 
L 197.228435 -223.989216 
L 202.345941 -223.989216 
L 207.463446 -223.989216 
L 212.580952 -223.989216 
L 217.698457 -223.9641 
L 222.815962 -223.913869 
L 227.933468 -223.838522 
L 233.050973 -223.73806 
L 238.168479 -223.612482 
L 243.285984 -223.461788 
L 248.40349 -223.285979 
L 253.520995 -223.085054 
L 258.638501 -222.859013 
L 263.756006 -222.607857 
L 268.873511 -222.331586 
L 273.991017 -222.030198 
L 279.108522 -221.703695 
L 284.226028 -221.352077 
L 289.343533 -220.975343 
L 294.461039 -220.573493 
L 299.578544 -220.146527 
L 304.69605 -219.694446 
L 309.813555 -219.21725 
L 314.93106 -218.714938 
L 320.048566 -218.237741 
L 325.166071 -217.78566 
L 330.283577 -217.358695 
L 335.401082 -216.956845 
L 340.518588 -216.580111 
L 345.636093 -216.228492 
L 350.753599 -215.901989 
L 355.871104 -215.600602 
L 360.988609 -215.32433 
L 366.106115 -215.073174 
L 371.22362 -214.847134 
L 376.341126 -214.646209 
L 381.458631 -214.470399 
L 386.576137 -214.319706 
L 391.693642 -214.194128 
L 396.811148 -214.093665 
L 401.928653 -214.018318 
L 407.046158 -213.968087 
L 412.163664 -213.942972 
L 417.281169 -213.942972 
L 422.398675 -213.942972 
L 427.51618 -213.942972 
L 432.633686 -213.942972 
L 437.751191 -213.942972 
L 442.868697 -213.942972 
L 447.986202 -213.942972 
L 453.103707 -213.942972 
L 458.221213 -213.942972 
L 463.338718 -213.942972 
L 468.456224 -213.942972 
L 468.456224 -214.048527 
L 468.456224 -214.048527 
L 463.338718 -214.048527 
L 458.221213 -214.048527 
L 453.103707 -214.048527 
L 447.986202 -214.048527 
L 442.868697 -214.048527 
L 437.751191 -214.048527 
L 432.633686 -214.048527 
L 427.51618 -214.048527 
L 422.398675 -214.048527 
L 417.281169 -214.048527 
L 412.163664 -214.048527 
L 407.046158 -214.073643 
L 401.928653 -214.123874 
L 396.811148 -214.199221 
L 391.693642 -214.299683 
L 386.576137 -214.425261 
L 381.458631 -214.575955 
L 376.341126 -214.751764 
L 371.22362 -214.952689 
L 366.106115 -215.17873 
L 360.988609 -215.429886 
L 355.871104 -215.706157 
L 350.753599 -216.007545 
L 345.636093 -216.334048 
L 340.518588 -216.685666 
L 335.401082 -217.0624 
L 330.283577 -217.46425 
L 325.166071 -217.891215 
L 320.048566 -218.343296 
L 314.93106 -218.820493 
L 309.813555 -219.322805 
L 304.69605 -219.800002 
L 299.578544 -220.252083 
L 294.461039 -220.679048 
L 289.343533 -221.080898 
L 284.226028 -221.457632 
L 279.108522 -221.809251 
L 273.991017 -222.135754 
L 268.873511 -222.437141 
L 263.756006 -222.713413 
L 258.638501 -222.964569 
L 253.520995 -223.190609 
L 248.40349 -223.391534 
L 243.285984 -223.567343 
L 238.168479 -223.718037 
L 233.050973 -223.843615 
L 227.933468 -223.944078 
L 222.815962 -224.019424 
L 217.698457 -224.069656 
L 212.580952 -224.094771 
L 207.463446 -224.094771 
L 202.345941 -224.094771 
L 197.228435 -224.094771 
L 192.11093 -224.094771 
L 186.993424 -224.094771 
L 181.875919 -224.094771 
L 176.758413 -224.094771 
L 171.640908 -224.094771 
L 166.523402 -224.094771 
L 161.405897 -224.094771 
L 156.288392 -224.094771 
z
" style="stroke: #57db5f; stroke-opacity: 0.65"/>
    </defs>
    <g clip-path="url(#p4234eb8011)">
     <use xlink:href="#m60890d1305" x="0" y="280.512" style="fill: #57db5f; fill-opacity: 0.65; stroke: #57db5f; stroke-opacity: 0.65"/>
    </g>
   </g>
   <g id="PolyCollection_25">
    <defs>
     <path id="m842c4225cf" d="M 156.288392 -246.050314 
L 156.288392 -224.094771 
L 161.405897 -224.094771 
L 166.523402 -224.094771 
L 171.640908 -224.094771 
L 176.758413 -224.094771 
L 181.875919 -224.094771 
L 186.993424 -224.094771 
L 192.11093 -224.094771 
L 197.228435 -224.094771 
L 202.345941 -224.094771 
L 207.463446 -224.094771 
L 212.580952 -224.094771 
L 217.698457 -224.09398 
L 222.815962 -224.092396 
L 227.933468 -224.090021 
L 233.050973 -224.086855 
L 238.168479 -224.082896 
L 243.285984 -224.078146 
L 248.40349 -224.072605 
L 253.520995 -224.066271 
L 258.638501 -224.059146 
L 263.756006 -224.05123 
L 268.873511 -224.042521 
L 273.991017 -224.033021 
L 279.108522 -224.02273 
L 284.226028 -224.011646 
L 289.343533 -223.999771 
L 294.461039 -223.987105 
L 299.578544 -223.973646 
L 304.69605 -223.959396 
L 309.813555 -223.944355 
L 314.93106 -223.928521 
L 320.048566 -223.91348 
L 325.166071 -223.89923 
L 330.283577 -223.885771 
L 335.401082 -223.873105 
L 340.518588 -223.86123 
L 345.636093 -223.850146 
L 350.753599 -223.839855 
L 355.871104 -223.830355 
L 360.988609 -223.821646 
L 366.106115 -223.81373 
L 371.22362 -223.806605 
L 376.341126 -223.800271 
L 381.458631 -223.79473 
L 386.576137 -223.78998 
L 391.693642 -223.786021 
L 396.811148 -223.782855 
L 401.928653 -223.78048 
L 407.046158 -223.778896 
L 412.163664 -223.778105 
L 417.281169 -223.778105 
L 422.398675 -223.778105 
L 427.51618 -223.778105 
L 432.633686 -223.778105 
L 437.751191 -223.778105 
L 442.868697 -223.778105 
L 447.986202 -223.778105 
L 453.103707 -223.778105 
L 458.221213 -223.778105 
L 463.338718 -223.778105 
L 468.456224 -223.778105 
L 468.456224 -245.733648 
L 468.456224 -245.733648 
L 463.338718 -245.733648 
L 458.221213 -245.733648 
L 453.103707 -245.733648 
L 447.986202 -245.733648 
L 442.868697 -245.733648 
L 437.751191 -245.733648 
L 432.633686 -245.733648 
L 427.51618 -245.733648 
L 422.398675 -245.733648 
L 417.281169 -245.733648 
L 412.163664 -245.733648 
L 407.046158 -245.734439 
L 401.928653 -245.736023 
L 396.811148 -245.738398 
L 391.693642 -245.741564 
L 386.576137 -245.745523 
L 381.458631 -245.750273 
L 376.341126 -245.755814 
L 371.22362 -245.762148 
L 366.106115 -245.769273 
L 360.988609 -245.777189 
L 355.871104 -245.785898 
L 350.753599 -245.795398 
L 345.636093 -245.805689 
L 340.518588 -245.816773 
L 335.401082 -245.828648 
L 330.283577 -245.841314 
L 325.166071 -245.854773 
L 320.048566 -245.869023 
L 314.93106 -245.884064 
L 309.813555 -245.899898 
L 304.69605 -245.914939 
L 299.578544 -245.929189 
L 294.461039 -245.942648 
L 289.343533 -245.955314 
L 284.226028 -245.967189 
L 279.108522 -245.978273 
L 273.991017 -245.988564 
L 268.873511 -245.998064 
L 263.756006 -246.006773 
L 258.638501 -246.014689 
L 253.520995 -246.021814 
L 248.40349 -246.028148 
L 243.285984 -246.033689 
L 238.168479 -246.038439 
L 233.050973 -246.042398 
L 227.933468 -246.045564 
L 222.815962 -246.047939 
L 217.698457 -246.049523 
L 212.580952 -246.050314 
L 207.463446 -246.050314 
L 202.345941 -246.050314 
L 197.228435 -246.050314 
L 192.11093 -246.050314 
L 186.993424 -246.050314 
L 181.875919 -246.050314 
L 176.758413 -246.050314 
L 171.640908 -246.050314 
L 166.523402 -246.050314 
L 161.405897 -246.050314 
L 156.288392 -246.050314 
z
" style="stroke: #57db5f; stroke-opacity: 0.65"/>
    </defs>
    <g clip-path="url(#p4234eb8011)">
     <use xlink:href="#m842c4225cf" x="0" y="280.512" style="fill: #57db5f; fill-opacity: 0.65; stroke: #57db5f; stroke-opacity: 0.65"/>
    </g>
   </g>
   <g id="PolyCollection_26">
    <defs>
     <path id="m48a5be1317" d="M 156.288392 -246.15587 
L 156.288392 -246.050314 
L 161.405897 -246.050314 
L 166.523402 -246.050314 
L 171.640908 -246.050314 
L 176.758413 -246.050314 
L 181.875919 -246.050314 
L 186.993424 -246.050314 
L 192.11093 -246.050314 
L 197.228435 -246.050314 
L 202.345941 -246.050314 
L 207.463446 -246.050314 
L 212.580952 -246.050314 
L 217.698457 -246.074506 
L 222.815962 -246.12289 
L 227.933468 -246.195466 
L 233.050973 -246.292234 
L 238.168479 -246.413194 
L 243.285984 -246.558346 
L 248.40349 -246.72769 
L 253.520995 -246.921226 
L 258.638501 -247.138954 
L 263.756006 -247.380874 
L 268.873511 -247.646986 
L 273.991017 -247.93729 
L 279.108522 -248.251786 
L 284.226028 -248.590474 
L 289.343533 -248.953354 
L 294.461039 -249.340426 
L 299.578544 -249.75169 
L 304.69605 -250.187146 
L 309.813555 -250.646794 
L 314.93106 -251.130634 
L 320.048566 -251.590282 
L 325.166071 -252.025738 
L 330.283577 -252.437002 
L 335.401082 -252.824074 
L 340.518588 -253.186954 
L 345.636093 -253.525642 
L 350.753599 -253.840138 
L 355.871104 -254.130442 
L 360.988609 -254.396554 
L 366.106115 -254.638474 
L 371.22362 -254.856202 
L 376.341126 -255.049738 
L 381.458631 -255.219082 
L 386.576137 -255.364234 
L 391.693642 -255.485194 
L 396.811148 -255.581962 
L 401.928653 -255.654538 
L 407.046158 -255.702922 
L 412.163664 -255.727114 
L 417.281169 -255.727114 
L 422.398675 -255.727114 
L 427.51618 -255.727114 
L 432.633686 -255.727114 
L 437.751191 -255.727114 
L 442.868697 -255.727114 
L 447.986202 -255.727114 
L 453.103707 -255.727114 
L 458.221213 -255.727114 
L 463.338718 -255.727114 
L 468.456224 -255.727114 
L 468.456224 -255.83267 
L 468.456224 -255.83267 
L 463.338718 -255.83267 
L 458.221213 -255.83267 
L 453.103707 -255.83267 
L 447.986202 -255.83267 
L 442.868697 -255.83267 
L 437.751191 -255.83267 
L 432.633686 -255.83267 
L 427.51618 -255.83267 
L 422.398675 -255.83267 
L 417.281169 -255.83267 
L 412.163664 -255.83267 
L 407.046158 -255.808478 
L 401.928653 -255.760094 
L 396.811148 -255.687518 
L 391.693642 -255.59075 
L 386.576137 -255.46979 
L 381.458631 -255.324638 
L 376.341126 -255.155294 
L 371.22362 -254.961758 
L 366.106115 -254.74403 
L 360.988609 -254.50211 
L 355.871104 -254.235998 
L 350.753599 -253.945694 
L 345.636093 -253.631198 
L 340.518588 -253.29251 
L 335.401082 -252.92963 
L 330.283577 -252.542558 
L 325.166071 -252.131294 
L 320.048566 -251.695838 
L 314.93106 -251.23619 
L 309.813555 -250.75235 
L 304.69605 -250.292702 
L 299.578544 -249.857246 
L 294.461039 -249.445982 
L 289.343533 -249.05891 
L 284.226028 -248.69603 
L 279.108522 -248.357342 
L 273.991017 -248.042846 
L 268.873511 -247.752542 
L 263.756006 -247.48643 
L 258.638501 -247.24451 
L 253.520995 -247.026782 
L 248.40349 -246.833246 
L 243.285984 -246.663902 
L 238.168479 -246.51875 
L 233.050973 -246.39779 
L 227.933468 -246.301022 
L 222.815962 -246.228446 
L 217.698457 -246.180062 
L 212.580952 -246.15587 
L 207.463446 -246.15587 
L 202.345941 -246.15587 
L 197.228435 -246.15587 
L 192.11093 -246.15587 
L 186.993424 -246.15587 
L 181.875919 -246.15587 
L 176.758413 -246.15587 
L 171.640908 -246.15587 
L 166.523402 -246.15587 
L 161.405897 -246.15587 
L 156.288392 -246.15587 
z
" style="stroke: #57db5f; stroke-opacity: 0.65"/>
    </defs>
    <g clip-path="url(#p4234eb8011)">
     <use xlink:href="#m48a5be1317" x="0" y="280.512" style="fill: #57db5f; fill-opacity: 0.65; stroke: #57db5f; stroke-opacity: 0.65"/>
    </g>
   </g>
   <g id="PolyCollection_27">
    <defs>
     <path id="m79b64af4d6" d="M 156.288392 -261.216 
L 156.288392 -255.83267 
L 161.405897 -255.83267 
L 166.523402 -255.83267 
L 171.640908 -255.83267 
L 176.758413 -255.83267 
L 181.875919 -255.83267 
L 186.993424 -255.83267 
L 192.11093 -255.83267 
L 197.228435 -255.83267 
L 202.345941 -255.83267 
L 207.463446 -255.83267 
L 212.580952 -255.83267 
L 217.698457 -255.83267 
L 222.815962 -255.83267 
L 227.933468 -255.83267 
L 233.050973 -255.83267 
L 238.168479 -255.83267 
L 243.285984 -255.83267 
L 248.40349 -255.83267 
L 253.520995 -255.83267 
L 258.638501 -255.83267 
L 263.756006 -255.83267 
L 268.873511 -255.83267 
L 273.991017 -255.83267 
L 279.108522 -255.83267 
L 284.226028 -255.83267 
L 289.343533 -255.83267 
L 294.461039 -255.83267 
L 299.578544 -255.83267 
L 304.69605 -255.83267 
L 309.813555 -255.83267 
L 314.93106 -255.83267 
L 320.048566 -255.83267 
L 325.166071 -255.83267 
L 330.283577 -255.83267 
L 335.401082 -255.83267 
L 340.518588 -255.83267 
L 345.636093 -255.83267 
L 350.753599 -255.83267 
L 355.871104 -255.83267 
L 360.988609 -255.83267 
L 366.106115 -255.83267 
L 371.22362 -255.83267 
L 376.341126 -255.83267 
L 381.458631 -255.83267 
L 386.576137 -255.83267 
L 391.693642 -255.83267 
L 396.811148 -255.83267 
L 401.928653 -255.83267 
L 407.046158 -255.83267 
L 412.163664 -255.83267 
L 417.281169 -255.83267 
L 422.398675 -255.83267 
L 427.51618 -255.83267 
L 432.633686 -255.83267 
L 437.751191 -255.83267 
L 442.868697 -255.83267 
L 447.986202 -255.83267 
L 453.103707 -255.83267 
L 458.221213 -255.83267 
L 463.338718 -255.83267 
L 468.456224 -255.83267 
L 468.456224 -261.216 
L 468.456224 -261.216 
L 463.338718 -261.216 
L 458.221213 -261.216 
L 453.103707 -261.216 
L 447.986202 -261.216 
L 442.868697 -261.216 
L 437.751191 -261.216 
L 432.633686 -261.216 
L 427.51618 -261.216 
L 422.398675 -261.216 
L 417.281169 -261.216 
L 412.163664 -261.216 
L 407.046158 -261.216 
L 401.928653 -261.216 
L 396.811148 -261.216 
L 391.693642 -261.216 
L 386.576137 -261.216 
L 381.458631 -261.216 
L 376.341126 -261.216 
L 371.22362 -261.216 
L 366.106115 -261.216 
L 360.988609 -261.216 
L 355.871104 -261.216 
L 350.753599 -261.216 
L 345.636093 -261.216 
L 340.518588 -261.216 
L 335.401082 -261.216 
L 330.283577 -261.216 
L 325.166071 -261.216 
L 320.048566 -261.216 
L 314.93106 -261.216 
L 309.813555 -261.216 
L 304.69605 -261.216 
L 299.578544 -261.216 
L 294.461039 -261.216 
L 289.343533 -261.216 
L 284.226028 -261.216 
L 279.108522 -261.216 
L 273.991017 -261.216 
L 268.873511 -261.216 
L 263.756006 -261.216 
L 258.638501 -261.216 
L 253.520995 -261.216 
L 248.40349 -261.216 
L 243.285984 -261.216 
L 238.168479 -261.216 
L 233.050973 -261.216 
L 227.933468 -261.216 
L 222.815962 -261.216 
L 217.698457 -261.216 
L 212.580952 -261.216 
L 207.463446 -261.216 
L 202.345941 -261.216 
L 197.228435 -261.216 
L 192.11093 -261.216 
L 186.993424 -261.216 
L 181.875919 -261.216 
L 176.758413 -261.216 
L 171.640908 -261.216 
L 166.523402 -261.216 
L 161.405897 -261.216 
L 156.288392 -261.216 
z
" style="stroke: #57d3db; stroke-opacity: 0.65"/>
    </defs>
    <g clip-path="url(#p4234eb8011)">
     <use xlink:href="#m79b64af4d6" x="0" y="280.512" style="fill: #57d3db; fill-opacity: 0.65; stroke: #57d3db; stroke-opacity: 0.65"/>
    </g>
   </g>
   <g id="text_1">
    <!-- Astrocytes -->
    <g transform="translate(68.9875 255.475172) scale(0.16 -0.16)">
     <defs>
      <path id="TimesNewRomanPS-BoldMT-41" d="M 2663 1206 
L 1166 1206 
L 988 794 
Q 900 588 900 453 
Q 900 275 1044 191 
Q 1128 141 1459 116 
L 1459 0 
L 50 0 
L 50 116 
Q 278 150 425 304 
Q 572 459 788 944 
L 2303 4325 
L 2363 4325 
L 3891 850 
Q 4109 356 4250 228 
Q 4356 131 4550 116 
L 4550 0 
L 2500 0 
L 2500 116 
L 2584 116 
Q 2831 116 2931 184 
Q 3000 234 3000 328 
Q 3000 384 2981 444 
Q 2975 472 2888 678 
L 2663 1206 
z
M 2556 1438 
L 1925 2897 
L 1275 1438 
L 2556 1438 
z
" transform="scale(0.015625)"/>
      <path id="TimesNewRomanPS-BoldMT-73" d="M 2063 3003 
L 2109 2006 
L 2003 2006 
Q 1813 2450 1608 2612 
Q 1403 2775 1200 2775 
Q 1072 2775 981 2689 
Q 891 2603 891 2491 
Q 891 2406 953 2328 
Q 1053 2200 1512 1889 
Q 1972 1578 2117 1361 
Q 2263 1144 2263 875 
Q 2263 631 2141 397 
Q 2019 163 1797 37 
Q 1575 -88 1306 -88 
Q 1097 -88 747 44 
Q 653 78 619 78 
Q 516 78 447 -78 
L 344 -78 
L 294 972 
L 400 972 
Q 541 559 786 353 
Q 1031 147 1250 147 
Q 1400 147 1495 239 
Q 1591 331 1591 463 
Q 1591 613 1497 722 
Q 1403 831 1078 1053 
Q 600 1384 459 1559 
Q 253 1816 253 2125 
Q 253 2463 486 2736 
Q 719 3009 1159 3009 
Q 1397 3009 1619 2894 
Q 1703 2847 1756 2847 
Q 1813 2847 1847 2870 
Q 1881 2894 1956 3003 
L 2063 3003 
z
" transform="scale(0.015625)"/>
      <path id="TimesNewRomanPS-BoldMT-74" d="M 1375 3991 
L 1375 2922 
L 2069 2922 
L 2069 2613 
L 1375 2613 
L 1375 809 
Q 1375 556 1398 482 
Q 1422 409 1481 364 
Q 1541 319 1591 319 
Q 1794 319 1975 628 
L 2069 559 
Q 1816 -41 1247 -41 
Q 969 -41 776 114 
Q 584 269 531 459 
Q 500 566 500 1034 
L 500 2613 
L 119 2613 
L 119 2722 
Q 513 3000 789 3306 
Q 1066 3613 1272 3991 
L 1375 3991 
z
" transform="scale(0.015625)"/>
      <path id="TimesNewRomanPS-BoldMT-72" d="M 1428 2922 
L 1428 2259 
Q 1719 2713 1937 2861 
Q 2156 3009 2359 3009 
Q 2534 3009 2639 2901 
Q 2744 2794 2744 2597 
Q 2744 2388 2642 2272 
Q 2541 2156 2397 2156 
Q 2231 2156 2109 2262 
Q 1988 2369 1966 2381 
Q 1934 2400 1894 2400 
Q 1803 2400 1722 2331 
Q 1594 2225 1528 2028 
Q 1428 1725 1428 1359 
L 1428 688 
L 1431 513 
Q 1431 334 1453 284 
Q 1491 200 1564 161 
Q 1638 122 1813 113 
L 1813 0 
L 234 0 
L 234 113 
Q 425 128 492 217 
Q 559 306 559 688 
L 559 2303 
Q 559 2553 534 2622 
Q 503 2709 443 2750 
Q 384 2791 234 2806 
L 234 2922 
L 1428 2922 
z
" transform="scale(0.015625)"/>
      <path id="TimesNewRomanPS-BoldMT-6f" d="M 1594 3009 
Q 1975 3009 2303 2812 
Q 2631 2616 2801 2253 
Q 2972 1891 2972 1459 
Q 2972 838 2656 419 
Q 2275 -88 1603 -88 
Q 944 -88 587 375 
Q 231 838 231 1447 
Q 231 2075 595 2542 
Q 959 3009 1594 3009 
z
M 1606 2788 
Q 1447 2788 1333 2667 
Q 1219 2547 1183 2192 
Q 1147 1838 1147 1206 
Q 1147 872 1191 581 
Q 1225 359 1337 243 
Q 1450 128 1594 128 
Q 1734 128 1828 206 
Q 1950 313 1991 503 
Q 2053 800 2053 1703 
Q 2053 2234 1993 2432 
Q 1934 2631 1819 2722 
Q 1738 2788 1606 2788 
z
" transform="scale(0.015625)"/>
      <path id="TimesNewRomanPS-BoldMT-63" d="M 2600 753 
L 2697 678 
Q 2491 291 2183 101 
Q 1875 -88 1528 -88 
Q 944 -88 594 353 
Q 244 794 244 1413 
Q 244 2009 563 2463 
Q 947 3009 1622 3009 
Q 2075 3009 2342 2781 
Q 2609 2553 2609 2272 
Q 2609 2094 2501 1987 
Q 2394 1881 2219 1881 
Q 2034 1881 1914 2003 
Q 1794 2125 1766 2438 
Q 1747 2634 1675 2713 
Q 1603 2791 1506 2791 
Q 1356 2791 1250 2631 
Q 1088 2391 1088 1894 
Q 1088 1481 1219 1104 
Q 1350 728 1578 544 
Q 1750 409 1984 409 
Q 2138 409 2275 481 
Q 2413 553 2600 753 
z
" transform="scale(0.015625)"/>
      <path id="TimesNewRomanPS-BoldMT-79" d="M 1556 -119 
L 613 2047 
Q 400 2538 298 2650 
Q 197 2763 53 2806 
L 53 2922 
L 1606 2922 
L 1606 2806 
Q 1453 2800 1390 2747 
Q 1328 2694 1328 2619 
Q 1328 2500 1484 2150 
L 1984 1006 
L 2325 1891 
Q 2509 2363 2509 2547 
Q 2509 2663 2432 2731 
Q 2356 2800 2163 2806 
L 2163 2922 
L 3141 2922 
L 3141 2806 
Q 2997 2791 2906 2695 
Q 2816 2600 2603 2047 
L 1769 -119 
Q 1453 -931 1300 -1119 
Q 1084 -1381 759 -1381 
Q 500 -1381 339 -1232 
Q 178 -1084 178 -875 
Q 178 -694 289 -575 
Q 400 -456 563 -456 
Q 719 -456 814 -556 
Q 909 -656 913 -866 
Q 916 -984 941 -1019 
Q 966 -1053 1013 -1053 
Q 1088 -1053 1172 -963 
Q 1297 -831 1466 -363 
L 1556 -119 
z
" transform="scale(0.015625)"/>
      <path id="TimesNewRomanPS-BoldMT-65" d="M 2691 1566 
L 1088 1566 
Q 1116 984 1397 647 
Q 1613 388 1916 388 
Q 2103 388 2256 492 
Q 2409 597 2584 869 
L 2691 800 
Q 2453 316 2165 114 
Q 1878 -88 1500 -88 
Q 850 -88 516 413 
Q 247 816 247 1413 
Q 247 2144 642 2576 
Q 1038 3009 1569 3009 
Q 2013 3009 2339 2645 
Q 2666 2281 2691 1566 
z
M 1922 1775 
Q 1922 2278 1867 2465 
Q 1813 2653 1697 2750 
Q 1631 2806 1522 2806 
Q 1359 2806 1256 2647 
Q 1072 2369 1072 1884 
L 1072 1775 
L 1922 1775 
z
" transform="scale(0.015625)"/>
     </defs>
     <use xlink:href="#TimesNewRomanPS-BoldMT-41"/>
     <use xlink:href="#TimesNewRomanPS-BoldMT-73" x="72.216797"/>
     <use xlink:href="#TimesNewRomanPS-BoldMT-74" x="111.132812"/>
     <use xlink:href="#TimesNewRomanPS-BoldMT-72" x="144.433594"/>
     <use xlink:href="#TimesNewRomanPS-BoldMT-6f" x="187.068359"/>
     <use xlink:href="#TimesNewRomanPS-BoldMT-63" x="237.068359"/>
     <use xlink:href="#TimesNewRomanPS-BoldMT-79" x="281.453125"/>
     <use xlink:href="#TimesNewRomanPS-BoldMT-74" x="331.453125"/>
     <use xlink:href="#TimesNewRomanPS-BoldMT-65" x="364.753906"/>
     <use xlink:href="#TimesNewRomanPS-BoldMT-73" x="409.138672"/>
    </g>
   </g>
   <g id="text_2">
    <!-- Endothelial Cells -->
    <g transform="translate(23.775 234.146295) scale(0.16 -0.16)">
     <defs>
      <path id="TimesNewRomanPS-BoldMT-45" d="M 1744 3994 
L 1744 2269 
L 1828 2269 
Q 2231 2269 2412 2522 
Q 2594 2775 2644 3269 
L 2763 3269 
L 2763 1050 
L 2644 1050 
Q 2606 1413 2486 1644 
Q 2366 1875 2206 1954 
Q 2047 2034 1744 2034 
L 1744 841 
Q 1744 491 1773 412 
Q 1803 334 1884 284 
Q 1966 234 2147 234 
L 2400 234 
Q 2994 234 3351 509 
Q 3709 784 3866 1347 
L 3981 1347 
L 3791 0 
L 128 0 
L 128 116 
L 269 116 
Q 453 116 566 181 
Q 647 225 691 331 
Q 725 406 725 725 
L 725 3513 
Q 725 3800 709 3866 
Q 678 3975 594 4034 
Q 475 4122 269 4122 
L 128 4122 
L 128 4238 
L 3675 4238 
L 3675 2984 
L 3556 2984 
Q 3466 3444 3302 3644 
Q 3138 3844 2838 3938 
Q 2663 3994 2181 3994 
L 1744 3994 
z
" transform="scale(0.015625)"/>
      <path id="TimesNewRomanPS-BoldMT-6e" d="M 1409 2922 
L 1409 2544 
Q 1634 2788 1840 2898 
Q 2047 3009 2284 3009 
Q 2569 3009 2756 2851 
Q 2944 2694 3006 2459 
Q 3056 2281 3056 1775 
L 3056 638 
Q 3056 300 3117 217 
Q 3178 134 3372 113 
L 3372 0 
L 1894 0 
L 1894 113 
Q 2059 134 2131 250 
Q 2181 328 2181 638 
L 2181 1938 
Q 2181 2297 2153 2390 
Q 2125 2484 2058 2536 
Q 1991 2588 1909 2588 
Q 1641 2588 1409 2203 
L 1409 638 
Q 1409 309 1470 221 
Q 1531 134 1697 113 
L 1697 0 
L 219 0 
L 219 113 
Q 403 131 481 231 
Q 534 300 534 638 
L 534 2288 
Q 534 2619 473 2700 
Q 413 2781 219 2806 
L 219 2922 
L 1409 2922 
z
" transform="scale(0.015625)"/>
      <path id="TimesNewRomanPS-BoldMT-64" d="M 3056 4238 
L 3056 875 
Q 3056 534 3075 472 
Q 3100 369 3170 319 
Q 3241 269 3416 256 
L 3416 153 
L 2181 -88 
L 2181 375 
Q 1959 106 1786 9 
Q 1613 -88 1394 -88 
Q 834 -88 509 413 
Q 247 819 247 1409 
Q 247 1881 409 2254 
Q 572 2628 855 2818 
Q 1138 3009 1463 3009 
Q 1672 3009 1834 2928 
Q 1997 2847 2181 2644 
L 2181 3525 
Q 2181 3859 2153 3928 
Q 2116 4019 2041 4062 
Q 1966 4106 1759 4106 
L 1759 4238 
L 3056 4238 
z
M 2181 2256 
Q 1950 2700 1616 2700 
Q 1500 2700 1425 2638 
Q 1309 2541 1236 2297 
Q 1163 2053 1163 1550 
Q 1163 997 1244 731 
Q 1325 466 1466 347 
Q 1538 288 1663 288 
Q 1938 288 2181 719 
L 2181 2256 
z
" transform="scale(0.015625)"/>
      <path id="TimesNewRomanPS-BoldMT-68" d="M 1409 4238 
L 1409 2547 
Q 1650 2800 1850 2904 
Q 2050 3009 2266 3009 
Q 2541 3009 2736 2853 
Q 2931 2697 2995 2486 
Q 3059 2275 3059 1775 
L 3059 634 
Q 3059 300 3121 217 
Q 3184 134 3375 113 
L 3375 0 
L 1894 0 
L 1894 113 
Q 2050 134 2128 238 
Q 2184 319 2184 634 
L 2184 1938 
Q 2184 2300 2156 2392 
Q 2128 2484 2061 2536 
Q 1994 2588 1909 2588 
Q 1784 2588 1665 2502 
Q 1547 2416 1409 2200 
L 1409 634 
Q 1409 322 1456 244 
Q 1516 138 1700 113 
L 1700 0 
L 219 0 
L 219 113 
Q 403 131 481 231 
Q 534 300 534 634 
L 534 3603 
Q 534 3934 473 4015 
Q 413 4097 219 4122 
L 219 4238 
L 1409 4238 
z
" transform="scale(0.015625)"/>
      <path id="TimesNewRomanPS-BoldMT-6c" d="M 1359 4238 
L 1359 606 
Q 1359 297 1431 211 
Q 1503 125 1713 113 
L 1713 0 
L 134 0 
L 134 113 
Q 328 119 422 225 
Q 484 297 484 606 
L 484 3631 
Q 484 3938 412 4023 
Q 341 4109 134 4122 
L 134 4238 
L 1359 4238 
z
" transform="scale(0.015625)"/>
      <path id="TimesNewRomanPS-BoldMT-69" d="M 919 4338 
Q 1122 4338 1262 4195 
Q 1403 4053 1403 3853 
Q 1403 3653 1261 3512 
Q 1119 3372 919 3372 
Q 719 3372 578 3512 
Q 438 3653 438 3853 
Q 438 4053 578 4195 
Q 719 4338 919 4338 
z
M 1356 2922 
L 1356 606 
Q 1356 297 1428 211 
Q 1500 125 1709 113 
L 1709 0 
L 131 0 
L 131 113 
Q 325 119 419 225 
Q 481 297 481 606 
L 481 2313 
Q 481 2622 409 2708 
Q 338 2794 131 2806 
L 131 2922 
L 1356 2922 
z
" transform="scale(0.015625)"/>
      <path id="TimesNewRomanPS-BoldMT-61" d="M 1828 431 
Q 1294 -41 869 -41 
Q 619 -41 453 123 
Q 288 288 288 534 
Q 288 869 575 1136 
Q 863 1403 1828 1847 
L 1828 2141 
Q 1828 2472 1792 2558 
Q 1756 2644 1656 2708 
Q 1556 2772 1431 2772 
Q 1228 2772 1097 2681 
Q 1016 2625 1016 2550 
Q 1016 2484 1103 2388 
Q 1222 2253 1222 2128 
Q 1222 1975 1108 1867 
Q 994 1759 809 1759 
Q 613 1759 480 1878 
Q 347 1997 347 2156 
Q 347 2381 525 2586 
Q 703 2791 1022 2900 
Q 1341 3009 1684 3009 
Q 2100 3009 2342 2832 
Q 2584 2656 2656 2450 
Q 2700 2319 2700 1847 
L 2700 713 
Q 2700 513 2715 461 
Q 2731 409 2762 384 
Q 2794 359 2834 359 
Q 2916 359 3000 475 
L 3094 400 
Q 2938 169 2770 64 
Q 2603 -41 2391 -41 
Q 2141 -41 2000 76 
Q 1859 194 1828 431 
z
M 1828 659 
L 1828 1638 
Q 1450 1416 1266 1163 
Q 1144 994 1144 822 
Q 1144 678 1247 569 
Q 1325 484 1466 484 
Q 1622 484 1828 659 
z
" transform="scale(0.015625)"/>
      <path id="TimesNewRomanPS-BoldMT-20" transform="scale(0.015625)"/>
      <path id="TimesNewRomanPS-BoldMT-43" d="M 4272 4334 
L 4272 2866 
L 4150 2866 
Q 4013 3441 3638 3747 
Q 3263 4053 2788 4053 
Q 2391 4053 2059 3825 
Q 1728 3597 1575 3228 
Q 1378 2756 1378 2178 
Q 1378 1609 1522 1142 
Q 1666 675 1972 436 
Q 2278 197 2766 197 
Q 3166 197 3498 372 
Q 3831 547 4200 975 
L 4200 609 
Q 3844 238 3458 70 
Q 3072 -97 2556 -97 
Q 1878 -97 1351 175 
Q 825 447 539 956 
Q 253 1466 253 2041 
Q 253 2647 570 3190 
Q 888 3734 1427 4034 
Q 1966 4334 2572 4334 
Q 3019 4334 3516 4141 
Q 3803 4028 3881 4028 
Q 3981 4028 4054 4101 
Q 4128 4175 4150 4334 
L 4272 4334 
z
" transform="scale(0.015625)"/>
     </defs>
     <use xlink:href="#TimesNewRomanPS-BoldMT-45"/>
     <use xlink:href="#TimesNewRomanPS-BoldMT-6e" x="66.699219"/>
     <use xlink:href="#TimesNewRomanPS-BoldMT-64" x="122.314453"/>
     <use xlink:href="#TimesNewRomanPS-BoldMT-6f" x="177.929688"/>
     <use xlink:href="#TimesNewRomanPS-BoldMT-74" x="227.929688"/>
     <use xlink:href="#TimesNewRomanPS-BoldMT-68" x="261.230469"/>
     <use xlink:href="#TimesNewRomanPS-BoldMT-65" x="316.845703"/>
     <use xlink:href="#TimesNewRomanPS-BoldMT-6c" x="361.230469"/>
     <use xlink:href="#TimesNewRomanPS-BoldMT-69" x="389.013672"/>
     <use xlink:href="#TimesNewRomanPS-BoldMT-61" x="416.796875"/>
     <use xlink:href="#TimesNewRomanPS-BoldMT-6c" x="466.796875"/>
     <use xlink:href="#TimesNewRomanPS-BoldMT-20" x="494.580078"/>
     <use xlink:href="#TimesNewRomanPS-BoldMT-43" x="519.580078"/>
     <use xlink:href="#TimesNewRomanPS-BoldMT-65" x="591.796875"/>
     <use xlink:href="#TimesNewRomanPS-BoldMT-6c" x="636.181641"/>
     <use xlink:href="#TimesNewRomanPS-BoldMT-6c" x="663.964844"/>
     <use xlink:href="#TimesNewRomanPS-BoldMT-73" x="691.748047"/>
    </g>
   </g>
   <g id="text_3">
    <!-- Excitatory Neurons -->
    <g transform="translate(7.2 168.661472) scale(0.16 -0.16)">
     <defs>
      <path id="TimesNewRomanPS-BoldMT-78" d="M 1944 1791 
L 2450 828 
Q 2713 325 2866 191 
Q 2950 119 3097 113 
L 3097 0 
L 1469 0 
L 1469 113 
Q 1659 128 1704 162 
Q 1750 197 1750 256 
Q 1750 344 1650 531 
L 1397 1006 
L 1181 691 
Q 1034 475 1016 434 
Q 991 375 991 328 
Q 991 256 1020 207 
Q 1050 159 1101 136 
Q 1153 113 1291 113 
L 1291 0 
L 147 0 
L 147 113 
Q 359 113 536 230 
Q 713 347 1050 844 
L 1291 1200 
L 788 2131 
Q 541 2588 419 2691 
Q 297 2794 147 2806 
L 147 2922 
L 1766 2922 
L 1766 2806 
L 1681 2803 
L 1519 2747 
Q 1494 2725 1494 2675 
Q 1494 2628 1509 2578 
Q 1519 2556 1597 2409 
L 1825 1984 
L 1944 2153 
Q 2194 2497 2194 2634 
Q 2194 2700 2139 2745 
Q 2084 2791 1944 2806 
L 1944 2922 
L 2978 2922 
L 2978 2806 
Q 2788 2800 2622 2689 
Q 2456 2578 2250 2259 
L 1944 1791 
z
" transform="scale(0.015625)"/>
      <path id="TimesNewRomanPS-BoldMT-4e" d="M 1594 4238 
L 3684 1609 
L 3684 3431 
Q 3684 3813 3575 3947 
Q 3425 4128 3072 4122 
L 3072 4238 
L 4472 4238 
L 4472 4122 
Q 4203 4088 4111 4033 
Q 4019 3978 3967 3854 
Q 3916 3731 3916 3431 
L 3916 -97 
L 3809 -97 
L 944 3431 
L 944 738 
Q 944 372 1111 244 
Q 1278 116 1494 116 
L 1594 116 
L 1594 0 
L 91 0 
L 91 116 
Q 441 119 578 259 
Q 716 400 716 738 
L 716 3728 
L 625 3841 
Q 491 4009 387 4062 
Q 284 4116 91 4122 
L 91 4238 
L 1594 4238 
z
" transform="scale(0.015625)"/>
      <path id="TimesNewRomanPS-BoldMT-75" d="M 3038 2922 
L 3038 634 
Q 3038 300 3100 217 
Q 3163 134 3353 113 
L 3353 0 
L 2163 0 
L 2163 391 
Q 1953 141 1743 26 
Q 1534 -88 1275 -88 
Q 1028 -88 836 64 
Q 644 216 578 419 
Q 513 622 513 1128 
L 513 2288 
Q 513 2619 452 2700 
Q 391 2781 197 2806 
L 197 2922 
L 1388 2922 
L 1388 925 
Q 1388 613 1417 522 
Q 1447 431 1511 384 
Q 1575 338 1659 338 
Q 1772 338 1863 397 
Q 1988 478 2163 725 
L 2163 2288 
Q 2163 2619 2102 2700 
Q 2041 2781 1847 2806 
L 1847 2922 
L 3038 2922 
z
" transform="scale(0.015625)"/>
     </defs>
     <use xlink:href="#TimesNewRomanPS-BoldMT-45"/>
     <use xlink:href="#TimesNewRomanPS-BoldMT-78" x="66.699219"/>
     <use xlink:href="#TimesNewRomanPS-BoldMT-63" x="116.699219"/>
     <use xlink:href="#TimesNewRomanPS-BoldMT-69" x="161.083984"/>
     <use xlink:href="#TimesNewRomanPS-BoldMT-74" x="188.867188"/>
     <use xlink:href="#TimesNewRomanPS-BoldMT-61" x="222.167969"/>
     <use xlink:href="#TimesNewRomanPS-BoldMT-74" x="272.167969"/>
     <use xlink:href="#TimesNewRomanPS-BoldMT-6f" x="305.46875"/>
     <use xlink:href="#TimesNewRomanPS-BoldMT-72" x="355.46875"/>
     <use xlink:href="#TimesNewRomanPS-BoldMT-79" x="399.853516"/>
     <use xlink:href="#TimesNewRomanPS-BoldMT-20" x="449.853516"/>
     <use xlink:href="#TimesNewRomanPS-BoldMT-4e" x="474.853516"/>
     <use xlink:href="#TimesNewRomanPS-BoldMT-65" x="547.070312"/>
     <use xlink:href="#TimesNewRomanPS-BoldMT-75" x="591.455078"/>
     <use xlink:href="#TimesNewRomanPS-BoldMT-72" x="647.070312"/>
     <use xlink:href="#TimesNewRomanPS-BoldMT-6f" x="689.705078"/>
     <use xlink:href="#TimesNewRomanPS-BoldMT-6e" x="739.705078"/>
     <use xlink:href="#TimesNewRomanPS-BoldMT-73" x="795.320312"/>
    </g>
   </g>
   <g id="text_4">
    <!-- Inhibitory Neurons -->
    <g transform="translate(8.9375 87.549991) scale(0.16 -0.16)">
     <defs>
      <path id="TimesNewRomanPS-BoldMT-49" d="M 2344 116 
L 2344 0 
L 128 0 
L 128 116 
L 269 116 
Q 453 116 566 181 
Q 647 225 691 331 
Q 725 406 725 725 
L 725 3513 
Q 725 3838 690 3919 
Q 656 4000 551 4061 
Q 447 4122 269 4122 
L 128 4122 
L 128 4238 
L 2344 4238 
L 2344 4122 
L 2203 4122 
Q 2019 4122 1906 4056 
Q 1825 4013 1778 3906 
Q 1744 3831 1744 3513 
L 1744 725 
Q 1744 400 1780 319 
Q 1816 238 1920 177 
Q 2025 116 2203 116 
L 2344 116 
z
" transform="scale(0.015625)"/>
      <path id="TimesNewRomanPS-BoldMT-62" d="M 1347 4238 
L 1347 2628 
Q 1716 3009 2153 3009 
Q 2453 3009 2718 2832 
Q 2984 2656 3134 2331 
Q 3284 2006 3284 1581 
Q 3284 1103 3093 712 
Q 2903 322 2584 117 
Q 2266 -88 1856 -88 
Q 1619 -88 1434 -12 
Q 1250 63 1072 231 
L 588 -84 
L 481 -84 
L 481 3631 
Q 481 3884 459 3944 
Q 428 4031 361 4073 
Q 294 4116 134 4122 
L 134 4238 
L 1347 4238 
z
M 1347 2350 
L 1347 1050 
Q 1347 653 1366 544 
Q 1397 359 1515 245 
Q 1634 131 1819 131 
Q 1978 131 2092 222 
Q 2206 313 2282 581 
Q 2359 850 2359 1550 
Q 2359 2222 2191 2472 
Q 2069 2653 1863 2653 
Q 1594 2653 1347 2350 
z
" transform="scale(0.015625)"/>
     </defs>
     <use xlink:href="#TimesNewRomanPS-BoldMT-49"/>
     <use xlink:href="#TimesNewRomanPS-BoldMT-6e" x="38.916016"/>
     <use xlink:href="#TimesNewRomanPS-BoldMT-68" x="94.53125"/>
     <use xlink:href="#TimesNewRomanPS-BoldMT-69" x="150.146484"/>
     <use xlink:href="#TimesNewRomanPS-BoldMT-62" x="177.929688"/>
     <use xlink:href="#TimesNewRomanPS-BoldMT-69" x="233.544922"/>
     <use xlink:href="#TimesNewRomanPS-BoldMT-74" x="261.328125"/>
     <use xlink:href="#TimesNewRomanPS-BoldMT-6f" x="294.628906"/>
     <use xlink:href="#TimesNewRomanPS-BoldMT-72" x="344.628906"/>
     <use xlink:href="#TimesNewRomanPS-BoldMT-79" x="389.013672"/>
     <use xlink:href="#TimesNewRomanPS-BoldMT-20" x="439.013672"/>
     <use xlink:href="#TimesNewRomanPS-BoldMT-4e" x="464.013672"/>
     <use xlink:href="#TimesNewRomanPS-BoldMT-65" x="536.230469"/>
     <use xlink:href="#TimesNewRomanPS-BoldMT-75" x="580.615234"/>
     <use xlink:href="#TimesNewRomanPS-BoldMT-72" x="636.230469"/>
     <use xlink:href="#TimesNewRomanPS-BoldMT-6f" x="678.865234"/>
     <use xlink:href="#TimesNewRomanPS-BoldMT-6e" x="728.865234"/>
     <use xlink:href="#TimesNewRomanPS-BoldMT-73" x="784.480469"/>
    </g>
   </g>
   <g id="text_5">
    <!-- Microglia -->
    <g transform="translate(74.3175 49.135707) scale(0.16 -0.16)">
     <defs>
      <path id="TimesNewRomanPS-BoldMT-4d" d="M 3050 1444 
L 4200 4238 
L 5925 4238 
L 5925 4122 
L 5788 4122 
Q 5600 4122 5488 4056 
Q 5409 4013 5363 3909 
Q 5328 3834 5328 3519 
L 5328 725 
Q 5328 400 5362 319 
Q 5397 238 5503 177 
Q 5609 116 5788 116 
L 5925 116 
L 5925 0 
L 3713 0 
L 3713 116 
L 3850 116 
Q 4038 116 4150 181 
Q 4228 225 4275 331 
Q 4309 406 4309 725 
L 4309 3866 
L 2684 0 
L 2609 0 
L 959 3838 
L 959 853 
Q 959 541 975 469 
Q 1016 313 1152 214 
Q 1288 116 1578 116 
L 1578 0 
L 128 0 
L 128 116 
L 172 116 
Q 313 113 434 161 
Q 556 209 618 290 
Q 681 372 716 519 
Q 722 553 722 838 
L 722 3519 
Q 722 3841 687 3920 
Q 653 4000 547 4061 
Q 441 4122 263 4122 
L 128 4122 
L 128 4238 
L 1859 4238 
L 3050 1444 
z
" transform="scale(0.015625)"/>
      <path id="TimesNewRomanPS-BoldMT-67" d="M 2091 2888 
L 3075 2888 
L 3075 2544 
L 2516 2544 
Q 2669 2391 2728 2266 
Q 2803 2097 2803 1913 
Q 2803 1600 2629 1370 
Q 2456 1141 2157 1011 
Q 1859 881 1628 881 
Q 1609 881 1253 897 
Q 1113 897 1017 805 
Q 922 713 922 584 
Q 922 472 1008 400 
Q 1094 328 1288 328 
L 1828 334 
Q 2484 334 2731 191 
Q 3084 -9 3084 -425 
Q 3084 -691 2921 -908 
Q 2759 -1125 2494 -1228 
Q 2091 -1381 1566 -1381 
Q 1172 -1381 847 -1304 
Q 522 -1228 381 -1092 
Q 241 -956 241 -806 
Q 241 -663 348 -548 
Q 456 -434 750 -356 
Q 344 -156 344 200 
Q 344 416 509 619 
Q 675 822 1034 972 
Q 616 1125 428 1375 
Q 241 1625 241 1953 
Q 241 2381 591 2695 
Q 941 3009 1491 3009 
Q 1781 3009 2091 2888 
z
M 1550 2816 
Q 1369 2816 1244 2633 
Q 1119 2450 1119 1875 
Q 1119 1409 1242 1236 
Q 1366 1063 1534 1063 
Q 1722 1063 1847 1234 
Q 1972 1406 1972 1903 
Q 1972 2463 1831 2666 
Q 1731 2816 1550 2816 
z
M 1366 -431 
Q 1047 -431 944 -484 
Q 766 -581 766 -747 
Q 766 -906 950 -1036 
Q 1134 -1166 1644 -1166 
Q 2078 -1166 2326 -1050 
Q 2575 -934 2575 -725 
Q 2575 -647 2528 -594 
Q 2444 -500 2273 -465 
Q 2103 -431 1366 -431 
z
" transform="scale(0.015625)"/>
     </defs>
     <use xlink:href="#TimesNewRomanPS-BoldMT-4d"/>
     <use xlink:href="#TimesNewRomanPS-BoldMT-69" x="94.384766"/>
     <use xlink:href="#TimesNewRomanPS-BoldMT-63" x="122.167969"/>
     <use xlink:href="#TimesNewRomanPS-BoldMT-72" x="166.552734"/>
     <use xlink:href="#TimesNewRomanPS-BoldMT-6f" x="209.1875"/>
     <use xlink:href="#TimesNewRomanPS-BoldMT-67" x="259.1875"/>
     <use xlink:href="#TimesNewRomanPS-BoldMT-6c" x="309.1875"/>
     <use xlink:href="#TimesNewRomanPS-BoldMT-69" x="336.970703"/>
     <use xlink:href="#TimesNewRomanPS-BoldMT-61" x="364.753906"/>
    </g>
   </g>
   <g id="text_6">
    <!-- Oligodendrocytes -->
    <g transform="translate(20.9675 25.683915) scale(0.16 -0.16)">
     <defs>
      <path id="TimesNewRomanPS-BoldMT-4f" d="M 2472 4297 
Q 3484 4334 4117 3706 
Q 4750 3078 4750 2134 
Q 4750 1328 4278 716 
Q 3653 -97 2513 -97 
Q 1369 -97 744 678 
Q 250 1291 250 2131 
Q 250 3075 892 3704 
Q 1534 4334 2472 4297 
z
M 2509 4097 
Q 1928 4097 1625 3503 
Q 1378 3016 1378 2103 
Q 1378 1019 1759 500 
Q 2025 138 2503 138 
Q 2825 138 3041 294 
Q 3316 494 3469 933 
Q 3622 1372 3622 2078 
Q 3622 2919 3465 3336 
Q 3309 3753 3067 3925 
Q 2825 4097 2509 4097 
z
" transform="scale(0.015625)"/>
     </defs>
     <use xlink:href="#TimesNewRomanPS-BoldMT-4f"/>
     <use xlink:href="#TimesNewRomanPS-BoldMT-6c" x="77.783203"/>
     <use xlink:href="#TimesNewRomanPS-BoldMT-69" x="105.566406"/>
     <use xlink:href="#TimesNewRomanPS-BoldMT-67" x="133.349609"/>
     <use xlink:href="#TimesNewRomanPS-BoldMT-6f" x="183.349609"/>
     <use xlink:href="#TimesNewRomanPS-BoldMT-64" x="233.349609"/>
     <use xlink:href="#TimesNewRomanPS-BoldMT-65" x="288.964844"/>
     <use xlink:href="#TimesNewRomanPS-BoldMT-6e" x="333.349609"/>
     <use xlink:href="#TimesNewRomanPS-BoldMT-64" x="388.964844"/>
     <use xlink:href="#TimesNewRomanPS-BoldMT-72" x="444.580078"/>
     <use xlink:href="#TimesNewRomanPS-BoldMT-6f" x="487.214844"/>
     <use xlink:href="#TimesNewRomanPS-BoldMT-63" x="537.214844"/>
     <use xlink:href="#TimesNewRomanPS-BoldMT-79" x="581.599609"/>
     <use xlink:href="#TimesNewRomanPS-BoldMT-74" x="631.599609"/>
     <use xlink:href="#TimesNewRomanPS-BoldMT-65" x="664.900391"/>
     <use xlink:href="#TimesNewRomanPS-BoldMT-73" x="709.285156"/>
    </g>
   </g>
   <g id="text_7">
    <!-- Astrocytes -->
    <g transform="translate(484.064615 255.818227) scale(0.16 -0.16)">
     <use xlink:href="#TimesNewRomanPS-BoldMT-41"/>
     <use xlink:href="#TimesNewRomanPS-BoldMT-73" x="72.216797"/>
     <use xlink:href="#TimesNewRomanPS-BoldMT-74" x="111.132812"/>
     <use xlink:href="#TimesNewRomanPS-BoldMT-72" x="144.433594"/>
     <use xlink:href="#TimesNewRomanPS-BoldMT-6f" x="187.068359"/>
     <use xlink:href="#TimesNewRomanPS-BoldMT-63" x="237.068359"/>
     <use xlink:href="#TimesNewRomanPS-BoldMT-79" x="281.453125"/>
     <use xlink:href="#TimesNewRomanPS-BoldMT-74" x="331.453125"/>
     <use xlink:href="#TimesNewRomanPS-BoldMT-65" x="364.753906"/>
     <use xlink:href="#TimesNewRomanPS-BoldMT-73" x="409.138672"/>
    </g>
   </g>
   <g id="text_8">
    <!-- Endothelial Cells -->
    <g transform="translate(484.064615 234.832406) scale(0.16 -0.16)">
     <use xlink:href="#TimesNewRomanPS-BoldMT-45"/>
     <use xlink:href="#TimesNewRomanPS-BoldMT-6e" x="66.699219"/>
     <use xlink:href="#TimesNewRomanPS-BoldMT-64" x="122.314453"/>
     <use xlink:href="#TimesNewRomanPS-BoldMT-6f" x="177.929688"/>
     <use xlink:href="#TimesNewRomanPS-BoldMT-74" x="227.929688"/>
     <use xlink:href="#TimesNewRomanPS-BoldMT-68" x="261.230469"/>
     <use xlink:href="#TimesNewRomanPS-BoldMT-65" x="316.845703"/>
     <use xlink:href="#TimesNewRomanPS-BoldMT-6c" x="361.230469"/>
     <use xlink:href="#TimesNewRomanPS-BoldMT-69" x="389.013672"/>
     <use xlink:href="#TimesNewRomanPS-BoldMT-61" x="416.796875"/>
     <use xlink:href="#TimesNewRomanPS-BoldMT-6c" x="466.796875"/>
     <use xlink:href="#TimesNewRomanPS-BoldMT-20" x="494.580078"/>
     <use xlink:href="#TimesNewRomanPS-BoldMT-43" x="519.580078"/>
     <use xlink:href="#TimesNewRomanPS-BoldMT-65" x="591.796875"/>
     <use xlink:href="#TimesNewRomanPS-BoldMT-6c" x="636.181641"/>
     <use xlink:href="#TimesNewRomanPS-BoldMT-6c" x="663.964844"/>
     <use xlink:href="#TimesNewRomanPS-BoldMT-73" x="691.748047"/>
    </g>
   </g>
   <g id="text_9">
    <!-- Excitatory Neurons -->
    <g transform="translate(484.064615 170.086471) scale(0.16 -0.16)">
     <use xlink:href="#TimesNewRomanPS-BoldMT-45"/>
     <use xlink:href="#TimesNewRomanPS-BoldMT-78" x="66.699219"/>
     <use xlink:href="#TimesNewRomanPS-BoldMT-63" x="116.699219"/>
     <use xlink:href="#TimesNewRomanPS-BoldMT-69" x="161.083984"/>
     <use xlink:href="#TimesNewRomanPS-BoldMT-74" x="188.867188"/>
     <use xlink:href="#TimesNewRomanPS-BoldMT-61" x="222.167969"/>
     <use xlink:href="#TimesNewRomanPS-BoldMT-74" x="272.167969"/>
     <use xlink:href="#TimesNewRomanPS-BoldMT-6f" x="305.46875"/>
     <use xlink:href="#TimesNewRomanPS-BoldMT-72" x="355.46875"/>
     <use xlink:href="#TimesNewRomanPS-BoldMT-79" x="399.853516"/>
     <use xlink:href="#TimesNewRomanPS-BoldMT-20" x="449.853516"/>
     <use xlink:href="#TimesNewRomanPS-BoldMT-4e" x="474.853516"/>
     <use xlink:href="#TimesNewRomanPS-BoldMT-65" x="547.070312"/>
     <use xlink:href="#TimesNewRomanPS-BoldMT-75" x="591.455078"/>
     <use xlink:href="#TimesNewRomanPS-BoldMT-72" x="647.070312"/>
     <use xlink:href="#TimesNewRomanPS-BoldMT-6f" x="689.705078"/>
     <use xlink:href="#TimesNewRomanPS-BoldMT-6e" x="739.705078"/>
     <use xlink:href="#TimesNewRomanPS-BoldMT-73" x="795.320312"/>
    </g>
   </g>
   <g id="text_10">
    <!-- Inhibitory Neurons -->
    <g transform="translate(484.064615 88.763879) scale(0.16 -0.16)">
     <use xlink:href="#TimesNewRomanPS-BoldMT-49"/>
     <use xlink:href="#TimesNewRomanPS-BoldMT-6e" x="38.916016"/>
     <use xlink:href="#TimesNewRomanPS-BoldMT-68" x="94.53125"/>
     <use xlink:href="#TimesNewRomanPS-BoldMT-69" x="150.146484"/>
     <use xlink:href="#TimesNewRomanPS-BoldMT-62" x="177.929688"/>
     <use xlink:href="#TimesNewRomanPS-BoldMT-69" x="233.544922"/>
     <use xlink:href="#TimesNewRomanPS-BoldMT-74" x="261.328125"/>
     <use xlink:href="#TimesNewRomanPS-BoldMT-6f" x="294.628906"/>
     <use xlink:href="#TimesNewRomanPS-BoldMT-72" x="344.628906"/>
     <use xlink:href="#TimesNewRomanPS-BoldMT-79" x="389.013672"/>
     <use xlink:href="#TimesNewRomanPS-BoldMT-20" x="439.013672"/>
     <use xlink:href="#TimesNewRomanPS-BoldMT-4e" x="464.013672"/>
     <use xlink:href="#TimesNewRomanPS-BoldMT-65" x="536.230469"/>
     <use xlink:href="#TimesNewRomanPS-BoldMT-75" x="580.615234"/>
     <use xlink:href="#TimesNewRomanPS-BoldMT-72" x="636.230469"/>
     <use xlink:href="#TimesNewRomanPS-BoldMT-6f" x="678.865234"/>
     <use xlink:href="#TimesNewRomanPS-BoldMT-6e" x="728.865234"/>
     <use xlink:href="#TimesNewRomanPS-BoldMT-73" x="784.480469"/>
    </g>
   </g>
   <g id="text_11">
    <!-- Microglia -->
    <g transform="translate(484.064615 49.478763) scale(0.16 -0.16)">
     <use xlink:href="#TimesNewRomanPS-BoldMT-4d"/>
     <use xlink:href="#TimesNewRomanPS-BoldMT-69" x="94.384766"/>
     <use xlink:href="#TimesNewRomanPS-BoldMT-63" x="122.167969"/>
     <use xlink:href="#TimesNewRomanPS-BoldMT-72" x="166.552734"/>
     <use xlink:href="#TimesNewRomanPS-BoldMT-6f" x="209.1875"/>
     <use xlink:href="#TimesNewRomanPS-BoldMT-67" x="259.1875"/>
     <use xlink:href="#TimesNewRomanPS-BoldMT-6c" x="309.1875"/>
     <use xlink:href="#TimesNewRomanPS-BoldMT-69" x="336.970703"/>
     <use xlink:href="#TimesNewRomanPS-BoldMT-61" x="364.753906"/>
    </g>
   </g>
   <g id="text_12">
    <!-- Oligodendrocytes -->
    <g transform="translate(484.064615 25.895026) scale(0.16 -0.16)">
     <use xlink:href="#TimesNewRomanPS-BoldMT-4f"/>
     <use xlink:href="#TimesNewRomanPS-BoldMT-6c" x="77.783203"/>
     <use xlink:href="#TimesNewRomanPS-BoldMT-69" x="105.566406"/>
     <use xlink:href="#TimesNewRomanPS-BoldMT-67" x="133.349609"/>
     <use xlink:href="#TimesNewRomanPS-BoldMT-6f" x="183.349609"/>
     <use xlink:href="#TimesNewRomanPS-BoldMT-64" x="233.349609"/>
     <use xlink:href="#TimesNewRomanPS-BoldMT-65" x="288.964844"/>
     <use xlink:href="#TimesNewRomanPS-BoldMT-6e" x="333.349609"/>
     <use xlink:href="#TimesNewRomanPS-BoldMT-64" x="388.964844"/>
     <use xlink:href="#TimesNewRomanPS-BoldMT-72" x="444.580078"/>
     <use xlink:href="#TimesNewRomanPS-BoldMT-6f" x="487.214844"/>
     <use xlink:href="#TimesNewRomanPS-BoldMT-63" x="537.214844"/>
     <use xlink:href="#TimesNewRomanPS-BoldMT-79" x="581.599609"/>
     <use xlink:href="#TimesNewRomanPS-BoldMT-74" x="631.599609"/>
     <use xlink:href="#TimesNewRomanPS-BoldMT-65" x="664.900391"/>
     <use xlink:href="#TimesNewRomanPS-BoldMT-73" x="709.285156"/>
    </g>
   </g>
  </g>
 </g>
 <defs>
  <clipPath id="p4234eb8011">
   <rect x="133.812308" y="7.2" width="357.12" height="266.112"/>
  </clipPath>
 </defs>
</svg>
