<?xml version="1.0" encoding="utf-8" standalone="no"?>
<!DOCTYPE svg PUBLIC "-//W3C//DTD SVG 1.1//EN"
  "http://www.w3.org/Graphics/SVG/1.1/DTD/svg11.dtd">
<svg xmlns:xlink="http://www.w3.org/1999/xlink" width="558.004615pt" height="280.512pt" viewBox="0 0 558.004615 280.512" xmlns="http://www.w3.org/2000/svg" version="1.1">
 <metadata>
  <rdf:RDF xmlns:dc="http://purl.org/dc/elements/1.1/" xmlns:cc="http://creativecommons.org/ns#" xmlns:rdf="http://www.w3.org/1999/02/22-rdf-syntax-ns#">
   <cc:Work>
    <dc:type rdf:resource="http://purl.org/dc/dcmitype/StillImage"/>
    <dc:date>2025-03-16T19:59:22.195522</dc:date>
    <dc:format>image/svg+xml</dc:format>
    <dc:creator>
     <cc:Agent>
      <dc:title>Matplotlib v3.9.3, https://matplotlib.org/</dc:title>
     </cc:Agent>
    </dc:creator>
   </cc:Work>
  </rdf:RDF>
 </metadata>
 <defs>
  <style type="text/css">*{stroke-linejoin: round; stroke-linecap: butt}</style>
 </defs>
 <g id="figure_1">
  <g id="patch_1">
   <path d="M 0 280.512 
L 558.004615 280.512 
L 558.004615 0 
L 0 0 
z
" style="fill: #ffffff"/>
  </g>
  <g id="axes_1">
   <g id="PolyCollection_1">
    <defs>
     <path id="m0c9f317c55" d="M 116.675035 -46.806789 
L 116.675035 -19.296 
L 122.918392 -19.296 
L 122.918392 -46.806789 
L 122.918392 -46.806789 
L 116.675035 -46.806789 
z
" style="stroke: #57db5f; stroke-opacity: 0.99"/>
    </defs>
    <g clip-path="url(#p4f7660f543)">
     <use xlink:href="#m0c9f317c55" x="0" y="280.512" style="fill: #57db5f; fill-opacity: 0.99; stroke: #57db5f; stroke-opacity: 0.99"/>
    </g>
   </g>
   <g id="PolyCollection_2">
    <defs>
     <path id="m4386087eaf" d="M 116.675035 -62.65808 
L 116.675035 -56.483589 
L 122.918392 -56.483589 
L 122.918392 -62.65808 
L 122.918392 -62.65808 
L 116.675035 -62.65808 
z
" style="stroke: #5f57db; stroke-opacity: 0.99"/>
    </defs>
    <g clip-path="url(#p4f7660f543)">
     <use xlink:href="#m4386087eaf" x="0" y="280.512" style="fill: #5f57db; fill-opacity: 0.99; stroke: #5f57db; stroke-opacity: 0.99"/>
    </g>
   </g>
   <g id="PolyCollection_3">
    <defs>
     <path id="m17220ad787" d="M 116.675035 -127.63088 
L 116.675035 -72.33488 
L 122.918392 -72.33488 
L 122.918392 -127.63088 
L 122.918392 -127.63088 
L 116.675035 -127.63088 
z
" style="stroke: #db57d3; stroke-opacity: 0.99"/>
    </defs>
    <g clip-path="url(#p4f7660f543)">
     <use xlink:href="#m17220ad787" x="0" y="280.512" style="fill: #db57d3; fill-opacity: 0.99; stroke: #db57d3; stroke-opacity: 0.99"/>
    </g>
   </g>
   <g id="PolyCollection_4">
    <defs>
     <path id="m60e16fad5c" d="M 116.675035 -194.867661 
L 116.675035 -137.30768 
L 122.918392 -137.30768 
L 122.918392 -194.867661 
L 122.918392 -194.867661 
L 116.675035 -194.867661 
z
" style="stroke: #db5f57; stroke-opacity: 0.99"/>
    </defs>
    <g clip-path="url(#p4f7660f543)">
     <use xlink:href="#m60e16fad5c" x="0" y="280.512" style="fill: #db5f57; fill-opacity: 0.99; stroke: #db5f57; stroke-opacity: 0.99"/>
    </g>
   </g>
   <g id="PolyCollection_5">
    <defs>
     <path id="m18a1774fcf" d="M 116.675035 -212.091061 
L 116.675035 -204.544461 
L 122.918392 -204.544461 
L 122.918392 -212.091061 
L 122.918392 -212.091061 
L 116.675035 -212.091061 
z
" style="stroke: #d3db57; stroke-opacity: 0.99"/>
    </defs>
    <g clip-path="url(#p4f7660f543)">
     <use xlink:href="#m18a1774fcf" x="0" y="280.512" style="fill: #d3db57; fill-opacity: 0.99; stroke: #d3db57; stroke-opacity: 0.99"/>
    </g>
   </g>
   <g id="PolyCollection_6">
    <defs>
     <path id="me5bd080d14" d="M 116.675035 -261.216 
L 116.675035 -221.767861 
L 122.918392 -221.767861 
L 122.918392 -261.216 
L 122.918392 -261.216 
L 116.675035 -261.216 
z
" style="stroke: #57d3db; stroke-opacity: 0.99"/>
    </defs>
    <g clip-path="url(#p4f7660f543)">
     <use xlink:href="#me5bd080d14" x="0" y="280.512" style="fill: #57d3db; fill-opacity: 0.99; stroke: #57d3db; stroke-opacity: 0.99"/>
    </g>
   </g>
   <g id="PolyCollection_7">
    <defs>
     <path id="m676faa7ed7" d="M 435.086224 -48.178898 
L 435.086224 -19.296 
L 441.32958 -19.296 
L 441.32958 -48.178898 
L 441.32958 -48.178898 
L 435.086224 -48.178898 
z
" style="stroke: #57db5f; stroke-opacity: 0.99"/>
    </defs>
    <g clip-path="url(#p4f7660f543)">
     <use xlink:href="#m676faa7ed7" x="0" y="280.512" style="fill: #57db5f; fill-opacity: 0.99; stroke: #57db5f; stroke-opacity: 0.99"/>
    </g>
   </g>
   <g id="PolyCollection_8">
    <defs>
     <path id="m6851ea1138" d="M 435.086224 -64.03019 
L 435.086224 -57.855698 
L 441.32958 -57.855698 
L 441.32958 -64.03019 
L 441.32958 -64.03019 
L 435.086224 -64.03019 
z
" style="stroke: #5f57db; stroke-opacity: 0.99"/>
    </defs>
    <g clip-path="url(#p4f7660f543)">
     <use xlink:href="#m6851ea1138" x="0" y="280.512" style="fill: #5f57db; fill-opacity: 0.99; stroke: #5f57db; stroke-opacity: 0.99"/>
    </g>
   </g>
   <g id="PolyCollection_9">
    <defs>
     <path id="me256cff722" d="M 435.086224 -126.739009 
L 435.086224 -73.70699 
L 441.32958 -73.70699 
L 441.32958 -126.739009 
L 441.32958 -126.739009 
L 435.086224 -126.739009 
z
" style="stroke: #db57d3; stroke-opacity: 0.99"/>
    </defs>
    <g clip-path="url(#p4f7660f543)">
     <use xlink:href="#me256cff722" x="0" y="280.512" style="fill: #db57d3; fill-opacity: 0.99; stroke: #db57d3; stroke-opacity: 0.99"/>
    </g>
   </g>
   <g id="PolyCollection_10">
    <defs>
     <path id="ma2ab00c5a9" d="M 435.086224 -202.620077 
L 435.086224 -136.415809 
L 441.32958 -136.415809 
L 441.32958 -202.620077 
L 441.32958 -202.620077 
L 435.086224 -202.620077 
z
" style="stroke: #db5f57; stroke-opacity: 0.99"/>
    </defs>
    <g clip-path="url(#p4f7660f543)">
     <use xlink:href="#ma2ab00c5a9" x="0" y="280.512" style="fill: #db5f57; fill-opacity: 0.99; stroke: #db5f57; stroke-opacity: 0.99"/>
    </g>
   </g>
   <g id="PolyCollection_11">
    <defs>
     <path id="mb9a39b5ae3" d="M 435.086224 -251.5392 
L 435.086224 -212.296877 
L 441.32958 -212.296877 
L 441.32958 -251.5392 
L 441.32958 -251.5392 
L 435.086224 -251.5392 
z
" style="stroke: #d3db57; stroke-opacity: 0.99"/>
    </defs>
    <g clip-path="url(#p4f7660f543)">
     <use xlink:href="#mb9a39b5ae3" x="0" y="280.512" style="fill: #d3db57; fill-opacity: 0.99; stroke: #d3db57; stroke-opacity: 0.99"/>
    </g>
   </g>
   <g id="PolyCollection_12">
    <defs>
     <path id="m0f04e431f4" d="M 122.918392 -46.738184 
L 122.918392 -19.296 
L 128.035897 -19.296 
L 133.153402 -19.296 
L 138.270908 -19.296 
L 143.388413 -19.296 
L 148.505919 -19.296 
L 153.623424 -19.296 
L 158.74093 -19.296 
L 163.858435 -19.296 
L 168.975941 -19.296 
L 174.093446 -19.296 
L 179.210952 -19.296 
L 184.328457 -19.296 
L 189.445962 -19.296 
L 194.563468 -19.296 
L 199.680973 -19.296 
L 204.798479 -19.296 
L 209.915984 -19.296 
L 215.03349 -19.296 
L 220.150995 -19.296 
L 225.268501 -19.296 
L 230.386006 -19.296 
L 235.503511 -19.296 
L 240.621017 -19.296 
L 245.738522 -19.296 
L 250.856028 -19.296 
L 255.973533 -19.296 
L 261.091039 -19.296 
L 266.208544 -19.296 
L 271.32605 -19.296 
L 276.443555 -19.296 
L 281.56106 -19.296 
L 286.678566 -19.296 
L 291.796071 -19.296 
L 296.913577 -19.296 
L 302.031082 -19.296 
L 307.148588 -19.296 
L 312.266093 -19.296 
L 317.383599 -19.296 
L 322.501104 -19.296 
L 327.618609 -19.296 
L 332.736115 -19.296 
L 337.85362 -19.296 
L 342.971126 -19.296 
L 348.088631 -19.296 
L 353.206137 -19.296 
L 358.323642 -19.296 
L 363.441148 -19.296 
L 368.558653 -19.296 
L 373.676158 -19.296 
L 378.793664 -19.296 
L 383.911169 -19.296 
L 389.028675 -19.296 
L 394.14618 -19.296 
L 399.263686 -19.296 
L 404.381191 -19.296 
L 409.498697 -19.296 
L 414.616202 -19.296 
L 419.733707 -19.296 
L 424.851213 -19.296 
L 429.968718 -19.296 
L 435.086224 -19.296 
L 435.086224 -46.738184 
L 435.086224 -46.738184 
L 429.968718 -46.738184 
L 424.851213 -46.738184 
L 419.733707 -46.738184 
L 414.616202 -46.738184 
L 409.498697 -46.738184 
L 404.381191 -46.738184 
L 399.263686 -46.738184 
L 394.14618 -46.738184 
L 389.028675 -46.738184 
L 383.911169 -46.738184 
L 378.793664 -46.738184 
L 373.676158 -46.738184 
L 368.558653 -46.738184 
L 363.441148 -46.738184 
L 358.323642 -46.738184 
L 353.206137 -46.738184 
L 348.088631 -46.738184 
L 342.971126 -46.738184 
L 337.85362 -46.738184 
L 332.736115 -46.738184 
L 327.618609 -46.738184 
L 322.501104 -46.738184 
L 317.383599 -46.738184 
L 312.266093 -46.738184 
L 307.148588 -46.738184 
L 302.031082 -46.738184 
L 296.913577 -46.738184 
L 291.796071 -46.738184 
L 286.678566 -46.738184 
L 281.56106 -46.738184 
L 276.443555 -46.738184 
L 271.32605 -46.738184 
L 266.208544 -46.738184 
L 261.091039 -46.738184 
L 255.973533 -46.738184 
L 250.856028 -46.738184 
L 245.738522 -46.738184 
L 240.621017 -46.738184 
L 235.503511 -46.738184 
L 230.386006 -46.738184 
L 225.268501 -46.738184 
L 220.150995 -46.738184 
L 215.03349 -46.738184 
L 209.915984 -46.738184 
L 204.798479 -46.738184 
L 199.680973 -46.738184 
L 194.563468 -46.738184 
L 189.445962 -46.738184 
L 184.328457 -46.738184 
L 179.210952 -46.738184 
L 174.093446 -46.738184 
L 168.975941 -46.738184 
L 163.858435 -46.738184 
L 158.74093 -46.738184 
L 153.623424 -46.738184 
L 148.505919 -46.738184 
L 143.388413 -46.738184 
L 138.270908 -46.738184 
L 133.153402 -46.738184 
L 128.035897 -46.738184 
L 122.918392 -46.738184 
z
" style="stroke: #57db5f; stroke-opacity: 0.65"/>
    </defs>
    <g clip-path="url(#p4f7660f543)">
     <use xlink:href="#m0f04e431f4" x="0" y="280.512" style="fill: #57db5f; fill-opacity: 0.65; stroke: #57db5f; stroke-opacity: 0.65"/>
    </g>
   </g>
   <g id="PolyCollection_13">
    <defs>
     <path id="m6d1f0fe1e6" d="M 122.918392 -46.806789 
L 122.918392 -46.738184 
L 128.035897 -46.738184 
L 133.153402 -46.738184 
L 138.270908 -46.738184 
L 143.388413 -46.738184 
L 148.505919 -46.738184 
L 153.623424 -46.738184 
L 158.74093 -46.738184 
L 163.858435 -46.738184 
L 168.975941 -46.738184 
L 174.093446 -46.738184 
L 179.210952 -46.738184 
L 184.328457 -46.765977 
L 189.445962 -46.821565 
L 194.563468 -46.904946 
L 199.680973 -47.016121 
L 204.798479 -47.15509 
L 209.915984 -47.321853 
L 215.03349 -47.51641 
L 220.150995 -47.73876 
L 225.268501 -47.988904 
L 230.386006 -48.266842 
L 235.503511 -48.572574 
L 240.621017 -48.906099 
L 245.738522 -49.267418 
L 250.856028 -49.656531 
L 255.973533 -50.073438 
L 261.091039 -50.518139 
L 266.208544 -50.990633 
L 271.32605 -51.490921 
L 276.443555 -52.019003 
L 281.56106 -52.574879 
L 286.678566 -53.102961 
L 291.796071 -53.603249 
L 296.913577 -54.075743 
L 302.031082 -54.520444 
L 307.148588 -54.937351 
L 312.266093 -55.326464 
L 317.383599 -55.687783 
L 322.501104 -56.021308 
L 327.618609 -56.32704 
L 332.736115 -56.604978 
L 337.85362 -56.855122 
L 342.971126 -57.077472 
L 348.088631 -57.272029 
L 353.206137 -57.438791 
L 358.323642 -57.57776 
L 363.441148 -57.688936 
L 368.558653 -57.772317 
L 373.676158 -57.827904 
L 378.793664 -57.855698 
L 383.911169 -57.855698 
L 389.028675 -57.855698 
L 394.14618 -57.855698 
L 399.263686 -57.855698 
L 404.381191 -57.855698 
L 409.498697 -57.855698 
L 414.616202 -57.855698 
L 419.733707 -57.855698 
L 424.851213 -57.855698 
L 429.968718 -57.855698 
L 435.086224 -57.855698 
L 435.086224 -57.924304 
L 435.086224 -57.924304 
L 429.968718 -57.924304 
L 424.851213 -57.924304 
L 419.733707 -57.924304 
L 414.616202 -57.924304 
L 409.498697 -57.924304 
L 404.381191 -57.924304 
L 399.263686 -57.924304 
L 394.14618 -57.924304 
L 389.028675 -57.924304 
L 383.911169 -57.924304 
L 378.793664 -57.924304 
L 373.676158 -57.89651 
L 368.558653 -57.840922 
L 363.441148 -57.757541 
L 358.323642 -57.646366 
L 353.206137 -57.507397 
L 348.088631 -57.340634 
L 342.971126 -57.146078 
L 337.85362 -56.923727 
L 332.736115 -56.673583 
L 327.618609 -56.395645 
L 322.501104 -56.089914 
L 317.383599 -55.756388 
L 312.266093 -55.395069 
L 307.148588 -55.005956 
L 302.031082 -54.589049 
L 296.913577 -54.144349 
L 291.796071 -53.671854 
L 286.678566 -53.171566 
L 281.56106 -52.643484 
L 276.443555 -52.087609 
L 271.32605 -51.559527 
L 266.208544 -51.059238 
L 261.091039 -50.586744 
L 255.973533 -50.142043 
L 250.856028 -49.725137 
L 245.738522 -49.336024 
L 240.621017 -48.974704 
L 235.503511 -48.641179 
L 230.386006 -48.335447 
L 225.268501 -48.057509 
L 220.150995 -47.807365 
L 215.03349 -47.585015 
L 209.915984 -47.390459 
L 204.798479 -47.223696 
L 199.680973 -47.084727 
L 194.563468 -46.973552 
L 189.445962 -46.89017 
L 184.328457 -46.834583 
L 179.210952 -46.806789 
L 174.093446 -46.806789 
L 168.975941 -46.806789 
L 163.858435 -46.806789 
L 158.74093 -46.806789 
L 153.623424 -46.806789 
L 148.505919 -46.806789 
L 143.388413 -46.806789 
L 138.270908 -46.806789 
L 133.153402 -46.806789 
L 128.035897 -46.806789 
L 122.918392 -46.806789 
z
" style="stroke: #57db5f; stroke-opacity: 0.65"/>
    </defs>
    <g clip-path="url(#p4f7660f543)">
     <use xlink:href="#m6d1f0fe1e6" x="0" y="280.512" style="fill: #57db5f; fill-opacity: 0.65; stroke: #57db5f; stroke-opacity: 0.65"/>
    </g>
   </g>
   <g id="PolyCollection_14">
    <defs>
     <path id="m5a1a49001c" d="M 122.918392 -56.552195 
L 122.918392 -56.483589 
L 128.035897 -56.483589 
L 133.153402 -56.483589 
L 138.270908 -56.483589 
L 143.388413 -56.483589 
L 148.505919 -56.483589 
L 153.623424 -56.483589 
L 158.74093 -56.483589 
L 163.858435 -56.483589 
L 168.975941 -56.483589 
L 174.093446 -56.483589 
L 179.210952 -56.483589 
L 184.328457 -56.459226 
L 189.445962 -56.410499 
L 194.563468 -56.337408 
L 199.680973 -56.239954 
L 204.798479 -56.118136 
L 209.915984 -55.971955 
L 215.03349 -55.801411 
L 220.150995 -55.606503 
L 225.268501 -55.387231 
L 230.386006 -55.143596 
L 235.503511 -54.875597 
L 240.621017 -54.583235 
L 245.738522 -54.266509 
L 250.856028 -53.92542 
L 255.973533 -53.559967 
L 261.091039 -53.170151 
L 266.208544 -52.755971 
L 271.32605 -52.317428 
L 276.443555 -51.854521 
L 281.56106 -51.367251 
L 286.678566 -50.904344 
L 291.796071 -50.465801 
L 296.913577 -50.051621 
L 302.031082 -49.661805 
L 307.148588 -49.296353 
L 312.266093 -48.955263 
L 317.383599 -48.638538 
L 322.501104 -48.346176 
L 327.618609 -48.078177 
L 332.736115 -47.834542 
L 337.85362 -47.61527 
L 342.971126 -47.420362 
L 348.088631 -47.249817 
L 353.206137 -47.103636 
L 358.323642 -46.981819 
L 363.441148 -46.884365 
L 368.558653 -46.811274 
L 373.676158 -46.762547 
L 378.793664 -46.738184 
L 383.911169 -46.738184 
L 389.028675 -46.738184 
L 394.14618 -46.738184 
L 399.263686 -46.738184 
L 404.381191 -46.738184 
L 409.498697 -46.738184 
L 414.616202 -46.738184 
L 419.733707 -46.738184 
L 424.851213 -46.738184 
L 429.968718 -46.738184 
L 435.086224 -46.738184 
L 435.086224 -46.806789 
L 435.086224 -46.806789 
L 429.968718 -46.806789 
L 424.851213 -46.806789 
L 419.733707 -46.806789 
L 414.616202 -46.806789 
L 409.498697 -46.806789 
L 404.381191 -46.806789 
L 399.263686 -46.806789 
L 394.14618 -46.806789 
L 389.028675 -46.806789 
L 383.911169 -46.806789 
L 378.793664 -46.806789 
L 373.676158 -46.831153 
L 368.558653 -46.87988 
L 363.441148 -46.95297 
L 358.323642 -47.050424 
L 353.206137 -47.172242 
L 348.088631 -47.318423 
L 342.971126 -47.488967 
L 337.85362 -47.683876 
L 332.736115 -47.903147 
L 327.618609 -48.146782 
L 322.501104 -48.414781 
L 317.383599 -48.707143 
L 312.266093 -49.023869 
L 307.148588 -49.364958 
L 302.031082 -49.730411 
L 296.913577 -50.120227 
L 291.796071 -50.534407 
L 286.678566 -50.97295 
L 281.56106 -51.435857 
L 276.443555 -51.923127 
L 271.32605 -52.386034 
L 266.208544 -52.824577 
L 261.091039 -53.238757 
L 255.973533 -53.628573 
L 250.856028 -53.994026 
L 245.738522 -54.335115 
L 240.621017 -54.65184 
L 235.503511 -54.944203 
L 230.386006 -55.212201 
L 225.268501 -55.455836 
L 220.150995 -55.675108 
L 215.03349 -55.870016 
L 209.915984 -56.040561 
L 204.798479 -56.186742 
L 199.680973 -56.308559 
L 194.563468 -56.406013 
L 189.445962 -56.479104 
L 184.328457 -56.527831 
L 179.210952 -56.552195 
L 174.093446 -56.552195 
L 168.975941 -56.552195 
L 163.858435 -56.552195 
L 158.74093 -56.552195 
L 153.623424 -56.552195 
L 148.505919 -56.552195 
L 143.388413 -56.552195 
L 138.270908 -56.552195 
L 133.153402 -56.552195 
L 128.035897 -56.552195 
L 122.918392 -56.552195 
z
" style="stroke: #5f57db; stroke-opacity: 0.65"/>
    </defs>
    <g clip-path="url(#p4f7660f543)">
     <use xlink:href="#m5a1a49001c" x="0" y="280.512" style="fill: #5f57db; fill-opacity: 0.65; stroke: #5f57db; stroke-opacity: 0.65"/>
    </g>
   </g>
   <g id="PolyCollection_15">
    <defs>
     <path id="ma8c516a979" d="M 122.918392 -62.315053 
L 122.918392 -56.552195 
L 128.035897 -56.552195 
L 133.153402 -56.552195 
L 138.270908 -56.552195 
L 143.388413 -56.552195 
L 148.505919 -56.552195 
L 153.623424 -56.552195 
L 158.74093 -56.552195 
L 163.858435 -56.552195 
L 168.975941 -56.552195 
L 174.093446 -56.552195 
L 179.210952 -56.552195 
L 184.328457 -56.555625 
L 189.445962 -56.562485 
L 194.563468 -56.572776 
L 199.680973 -56.586497 
L 204.798479 -56.603649 
L 209.915984 -56.62423 
L 215.03349 -56.648242 
L 220.150995 -56.675684 
L 225.268501 -56.706557 
L 230.386006 -56.74086 
L 235.503511 -56.778593 
L 240.621017 -56.819756 
L 245.738522 -56.864349 
L 250.856028 -56.912373 
L 255.973533 -56.963827 
L 261.091039 -57.018712 
L 266.208544 -57.077026 
L 271.32605 -57.138771 
L 276.443555 -57.203946 
L 281.56106 -57.272552 
L 286.678566 -57.337727 
L 291.796071 -57.399472 
L 296.913577 -57.457787 
L 302.031082 -57.512671 
L 307.148588 -57.564125 
L 312.266093 -57.612149 
L 317.383599 -57.656742 
L 322.501104 -57.697906 
L 327.618609 -57.735639 
L 332.736115 -57.769941 
L 337.85362 -57.800814 
L 342.971126 -57.828256 
L 348.088631 -57.852268 
L 353.206137 -57.87285 
L 358.323642 -57.890001 
L 363.441148 -57.903722 
L 368.558653 -57.914013 
L 373.676158 -57.920873 
L 378.793664 -57.924304 
L 383.911169 -57.924304 
L 389.028675 -57.924304 
L 394.14618 -57.924304 
L 399.263686 -57.924304 
L 404.381191 -57.924304 
L 409.498697 -57.924304 
L 414.616202 -57.924304 
L 419.733707 -57.924304 
L 424.851213 -57.924304 
L 429.968718 -57.924304 
L 435.086224 -57.924304 
L 435.086224 -63.687162 
L 435.086224 -63.687162 
L 429.968718 -63.687162 
L 424.851213 -63.687162 
L 419.733707 -63.687162 
L 414.616202 -63.687162 
L 409.498697 -63.687162 
L 404.381191 -63.687162 
L 399.263686 -63.687162 
L 394.14618 -63.687162 
L 389.028675 -63.687162 
L 383.911169 -63.687162 
L 378.793664 -63.687162 
L 373.676158 -63.683732 
L 368.558653 -63.676871 
L 363.441148 -63.666581 
L 358.323642 -63.65286 
L 353.206137 -63.635708 
L 348.088631 -63.615127 
L 342.971126 -63.591115 
L 337.85362 -63.563672 
L 332.736115 -63.5328 
L 327.618609 -63.498497 
L 322.501104 -63.460764 
L 317.383599 -63.419601 
L 312.266093 -63.375007 
L 307.148588 -63.326984 
L 302.031082 -63.27553 
L 296.913577 -63.220645 
L 291.796071 -63.162331 
L 286.678566 -63.100586 
L 281.56106 -63.03541 
L 276.443555 -62.966805 
L 271.32605 -62.90163 
L 266.208544 -62.839885 
L 261.091039 -62.78157 
L 255.973533 -62.726686 
L 250.856028 -62.675232 
L 245.738522 -62.627208 
L 240.621017 -62.582614 
L 235.503511 -62.541451 
L 230.386006 -62.503718 
L 225.268501 -62.469415 
L 220.150995 -62.438543 
L 215.03349 -62.411101 
L 209.915984 -62.387089 
L 204.798479 -62.366507 
L 199.680973 -62.349356 
L 194.563468 -62.335635 
L 189.445962 -62.325344 
L 184.328457 -62.318483 
L 179.210952 -62.315053 
L 174.093446 -62.315053 
L 168.975941 -62.315053 
L 163.858435 -62.315053 
L 158.74093 -62.315053 
L 153.623424 -62.315053 
L 148.505919 -62.315053 
L 143.388413 -62.315053 
L 138.270908 -62.315053 
L 133.153402 -62.315053 
L 128.035897 -62.315053 
L 122.918392 -62.315053 
z
" style="stroke: #5f57db; stroke-opacity: 0.65"/>
    </defs>
    <g clip-path="url(#p4f7660f543)">
     <use xlink:href="#ma8c516a979" x="0" y="280.512" style="fill: #5f57db; fill-opacity: 0.65; stroke: #5f57db; stroke-opacity: 0.65"/>
    </g>
   </g>
   <g id="PolyCollection_16">
    <defs>
     <path id="mf03ee703e1" d="M 122.918392 -62.65808 
L 122.918392 -62.315053 
L 128.035897 -62.315053 
L 133.153402 -62.315053 
L 138.270908 -62.315053 
L 143.388413 -62.315053 
L 148.505919 -62.315053 
L 153.623424 -62.315053 
L 158.74093 -62.315053 
L 163.858435 -62.315053 
L 168.975941 -62.315053 
L 174.093446 -62.315053 
L 179.210952 -62.315053 
L 184.328457 -62.500305 
L 189.445962 -62.870809 
L 194.563468 -63.426564 
L 199.680973 -64.167572 
L 204.798479 -65.093831 
L 209.915984 -66.205343 
L 215.03349 -67.502106 
L 220.150995 -68.984121 
L 225.268501 -70.651388 
L 230.386006 -72.503907 
L 235.503511 -74.541678 
L 240.621017 -76.764701 
L 245.738522 -79.172975 
L 250.856028 -81.766502 
L 255.973533 -84.54528 
L 261.091039 -87.50931 
L 266.208544 -90.658592 
L 271.32605 -93.993126 
L 276.443555 -97.512912 
L 281.56106 -101.21795 
L 286.678566 -104.737736 
L 291.796071 -108.07227 
L 296.913577 -111.221552 
L 302.031082 -114.185583 
L 307.148588 -116.964361 
L 312.266093 -119.557887 
L 317.383599 -121.966162 
L 322.501104 -124.189185 
L 327.618609 -126.226955 
L 332.736115 -128.079474 
L 337.85362 -129.746741 
L 342.971126 -131.228756 
L 348.088631 -132.52552 
L 353.206137 -133.637031 
L 358.323642 -134.563291 
L 363.441148 -135.304298 
L 368.558653 -135.860054 
L 373.676158 -136.230558 
L 378.793664 -136.415809 
L 383.911169 -136.415809 
L 389.028675 -136.415809 
L 394.14618 -136.415809 
L 399.263686 -136.415809 
L 404.381191 -136.415809 
L 409.498697 -136.415809 
L 414.616202 -136.415809 
L 419.733707 -136.415809 
L 424.851213 -136.415809 
L 429.968718 -136.415809 
L 435.086224 -136.415809 
L 435.086224 -136.758837 
L 435.086224 -136.758837 
L 429.968718 -136.758837 
L 424.851213 -136.758837 
L 419.733707 -136.758837 
L 414.616202 -136.758837 
L 409.498697 -136.758837 
L 404.381191 -136.758837 
L 399.263686 -136.758837 
L 394.14618 -136.758837 
L 389.028675 -136.758837 
L 383.911169 -136.758837 
L 378.793664 -136.758837 
L 373.676158 -136.573585 
L 368.558653 -136.203081 
L 363.441148 -135.647325 
L 358.323642 -134.906318 
L 353.206137 -133.980058 
L 348.088631 -132.868547 
L 342.971126 -131.571784 
L 337.85362 -130.089769 
L 332.736115 -128.422502 
L 327.618609 -126.569983 
L 322.501104 -124.532212 
L 317.383599 -122.309189 
L 312.266093 -119.900915 
L 307.148588 -117.307388 
L 302.031082 -114.52861 
L 296.913577 -111.56458 
L 291.796071 -108.415297 
L 286.678566 -105.080763 
L 281.56106 -101.560977 
L 276.443555 -97.85594 
L 271.32605 -94.336154 
L 266.208544 -91.00162 
L 261.091039 -87.852338 
L 255.973533 -84.888307 
L 250.856028 -82.109529 
L 245.738522 -79.516002 
L 240.621017 -77.107728 
L 235.503511 -74.884705 
L 230.386006 -72.846934 
L 225.268501 -70.994415 
L 220.150995 -69.327148 
L 215.03349 -67.845133 
L 209.915984 -66.54837 
L 204.798479 -65.436859 
L 199.680973 -64.510599 
L 194.563468 -63.769592 
L 189.445962 -63.213836 
L 184.328457 -62.843332 
L 179.210952 -62.65808 
L 174.093446 -62.65808 
L 168.975941 -62.65808 
L 163.858435 -62.65808 
L 158.74093 -62.65808 
L 153.623424 -62.65808 
L 148.505919 -62.65808 
L 143.388413 -62.65808 
L 138.270908 -62.65808 
L 133.153402 -62.65808 
L 128.035897 -62.65808 
L 122.918392 -62.65808 
z
" style="stroke: #5f57db; stroke-opacity: 0.65"/>
    </defs>
    <g clip-path="url(#p4f7660f543)">
     <use xlink:href="#mf03ee703e1" x="0" y="280.512" style="fill: #5f57db; fill-opacity: 0.65; stroke: #5f57db; stroke-opacity: 0.65"/>
    </g>
   </g>
   <g id="PolyCollection_17">
    <defs>
     <path id="mccc5db739c" d="M 122.918392 -72.472091 
L 122.918392 -72.33488 
L 128.035897 -72.33488 
L 133.153402 -72.33488 
L 138.270908 -72.33488 
L 143.388413 -72.33488 
L 148.505919 -72.33488 
L 153.623424 -72.33488 
L 158.74093 -72.33488 
L 163.858435 -72.33488 
L 168.975941 -72.33488 
L 174.093446 -72.33488 
L 179.210952 -72.33488 
L 184.328457 -72.27106 
L 189.445962 -72.14342 
L 194.563468 -71.951959 
L 199.680973 -71.696678 
L 204.798479 -71.377577 
L 209.915984 -70.994656 
L 215.03349 -70.547914 
L 220.150995 -70.037352 
L 225.268501 -69.46297 
L 230.386006 -68.824768 
L 235.503511 -68.122745 
L 240.621017 -67.356903 
L 245.738522 -66.52724 
L 250.856028 -65.633756 
L 255.973533 -64.676453 
L 261.091039 -63.655329 
L 266.208544 -62.570385 
L 271.32605 -61.421621 
L 276.443555 -60.209037 
L 281.56106 -58.932632 
L 286.678566 -57.720048 
L 291.796071 -56.571284 
L 296.913577 -55.48634 
L 302.031082 -54.465216 
L 307.148588 -53.507913 
L 312.266093 -52.61443 
L 317.383599 -51.784767 
L 322.501104 -51.018924 
L 327.618609 -50.316902 
L 332.736115 -49.678699 
L 337.85362 -49.104317 
L 342.971126 -48.593755 
L 348.088631 -48.147014 
L 353.206137 -47.764093 
L 358.323642 -47.444991 
L 363.441148 -47.18971 
L 368.558653 -46.99825 
L 373.676158 -46.870609 
L 378.793664 -46.806789 
L 383.911169 -46.806789 
L 389.028675 -46.806789 
L 394.14618 -46.806789 
L 399.263686 -46.806789 
L 404.381191 -46.806789 
L 409.498697 -46.806789 
L 414.616202 -46.806789 
L 419.733707 -46.806789 
L 424.851213 -46.806789 
L 429.968718 -46.806789 
L 435.086224 -46.806789 
L 435.086224 -46.944 
L 435.086224 -46.944 
L 429.968718 -46.944 
L 424.851213 -46.944 
L 419.733707 -46.944 
L 414.616202 -46.944 
L 409.498697 -46.944 
L 404.381191 -46.944 
L 399.263686 -46.944 
L 394.14618 -46.944 
L 389.028675 -46.944 
L 383.911169 -46.944 
L 378.793664 -46.944 
L 373.676158 -47.00782 
L 368.558653 -47.135461 
L 363.441148 -47.326921 
L 358.323642 -47.582202 
L 353.206137 -47.901303 
L 348.088631 -48.284225 
L 342.971126 -48.730966 
L 337.85362 -49.241528 
L 332.736115 -49.81591 
L 327.618609 -50.454113 
L 322.501104 -51.156135 
L 317.383599 -51.921978 
L 312.266093 -52.751641 
L 307.148588 -53.645124 
L 302.031082 -54.602427 
L 296.913577 -55.623551 
L 291.796071 -56.708495 
L 286.678566 -57.857259 
L 281.56106 -59.069843 
L 276.443555 -60.346248 
L 271.32605 -61.558832 
L 266.208544 -62.707596 
L 261.091039 -63.79254 
L 255.973533 -64.813664 
L 250.856028 -65.770967 
L 245.738522 -66.664451 
L 240.621017 -67.494114 
L 235.503511 -68.259956 
L 230.386006 -68.961979 
L 225.268501 -69.600181 
L 220.150995 -70.174563 
L 215.03349 -70.685125 
L 209.915984 -71.131867 
L 204.798479 -71.514788 
L 199.680973 -71.833889 
L 194.563468 -72.08917 
L 189.445962 -72.280631 
L 184.328457 -72.408271 
L 179.210952 -72.472091 
L 174.093446 -72.472091 
L 168.975941 -72.472091 
L 163.858435 -72.472091 
L 158.74093 -72.472091 
L 153.623424 -72.472091 
L 148.505919 -72.472091 
L 143.388413 -72.472091 
L 138.270908 -72.472091 
L 133.153402 -72.472091 
L 128.035897 -72.472091 
L 122.918392 -72.472091 
z
" style="stroke: #db57d3; stroke-opacity: 0.65"/>
    </defs>
    <g clip-path="url(#p4f7660f543)">
     <use xlink:href="#mccc5db739c" x="0" y="280.512" style="fill: #db57d3; fill-opacity: 0.65; stroke: #db57d3; stroke-opacity: 0.65"/>
    </g>
   </g>
   <g id="PolyCollection_18">
    <defs>
     <path id="m96f3df4139" d="M 122.918392 -72.540697 
L 122.918392 -72.472091 
L 128.035897 -72.472091 
L 133.153402 -72.472091 
L 138.270908 -72.472091 
L 143.388413 -72.472091 
L 148.505919 -72.472091 
L 153.623424 -72.472091 
L 158.74093 -72.472091 
L 163.858435 -72.472091 
L 168.975941 -72.472091 
L 174.093446 -72.472091 
L 179.210952 -72.472091 
L 184.328457 -72.450129 
L 189.445962 -72.406204 
L 194.563468 -72.340317 
L 199.680973 -72.252468 
L 204.798479 -72.142656 
L 209.915984 -72.010883 
L 215.03349 -71.857146 
L 220.150995 -71.681448 
L 225.268501 -71.483787 
L 230.386006 -71.264164 
L 235.503511 -71.022578 
L 240.621017 -70.75903 
L 245.738522 -70.47352 
L 250.856028 -70.166047 
L 255.973533 -69.836613 
L 261.091039 -69.485215 
L 266.208544 -69.111856 
L 271.32605 -68.716534 
L 276.443555 -68.29925 
L 281.56106 -67.860004 
L 286.678566 -67.442719 
L 291.796071 -67.047398 
L 296.913577 -66.674038 
L 302.031082 -66.322641 
L 307.148588 -65.993206 
L 312.266093 -65.685734 
L 317.383599 -65.400223 
L 322.501104 -65.136676 
L 327.618609 -64.89509 
L 332.736115 -64.675467 
L 337.85362 -64.477806 
L 342.971126 -64.302107 
L 348.088631 -64.148371 
L 353.206137 -64.016597 
L 358.323642 -63.906786 
L 363.441148 -63.818936 
L 368.558653 -63.753049 
L 373.676158 -63.709125 
L 378.793664 -63.687162 
L 383.911169 -63.687162 
L 389.028675 -63.687162 
L 394.14618 -63.687162 
L 399.263686 -63.687162 
L 404.381191 -63.687162 
L 409.498697 -63.687162 
L 414.616202 -63.687162 
L 419.733707 -63.687162 
L 424.851213 -63.687162 
L 429.968718 -63.687162 
L 435.086224 -63.687162 
L 435.086224 -63.755768 
L 435.086224 -63.755768 
L 429.968718 -63.755768 
L 424.851213 -63.755768 
L 419.733707 -63.755768 
L 414.616202 -63.755768 
L 409.498697 -63.755768 
L 404.381191 -63.755768 
L 399.263686 -63.755768 
L 394.14618 -63.755768 
L 389.028675 -63.755768 
L 383.911169 -63.755768 
L 378.793664 -63.755768 
L 373.676158 -63.77773 
L 368.558653 -63.821655 
L 363.441148 -63.887542 
L 358.323642 -63.975391 
L 353.206137 -64.085203 
L 348.088631 -64.216977 
L 342.971126 -64.370713 
L 337.85362 -64.546411 
L 332.736115 -64.744072 
L 327.618609 -64.963695 
L 322.501104 -65.205281 
L 317.383599 -65.468829 
L 312.266093 -65.754339 
L 307.148588 -66.061812 
L 302.031082 -66.391246 
L 296.913577 -66.742644 
L 291.796071 -67.116003 
L 286.678566 -67.511325 
L 281.56106 -67.928609 
L 276.443555 -68.367855 
L 271.32605 -68.78514 
L 266.208544 -69.180461 
L 261.091039 -69.553821 
L 255.973533 -69.905218 
L 250.856028 -70.234653 
L 245.738522 -70.542125 
L 240.621017 -70.827636 
L 235.503511 -71.091183 
L 230.386006 -71.332769 
L 225.268501 -71.552392 
L 220.150995 -71.750053 
L 215.03349 -71.925752 
L 209.915984 -72.079488 
L 204.798479 -72.211262 
L 199.680973 -72.321074 
L 194.563468 -72.408923 
L 189.445962 -72.47481 
L 184.328457 -72.518734 
L 179.210952 -72.540697 
L 174.093446 -72.540697 
L 168.975941 -72.540697 
L 163.858435 -72.540697 
L 158.74093 -72.540697 
L 153.623424 -72.540697 
L 148.505919 -72.540697 
L 143.388413 -72.540697 
L 138.270908 -72.540697 
L 133.153402 -72.540697 
L 128.035897 -72.540697 
L 122.918392 -72.540697 
z
" style="stroke: #db57d3; stroke-opacity: 0.65"/>
    </defs>
    <g clip-path="url(#p4f7660f543)">
     <use xlink:href="#m96f3df4139" x="0" y="280.512" style="fill: #db57d3; fill-opacity: 0.65; stroke: #db57d3; stroke-opacity: 0.65"/>
    </g>
   </g>
   <g id="PolyCollection_19">
    <defs>
     <path id="mc5d3f8603e" d="M 122.918392 -124.475029 
L 122.918392 -72.540697 
L 128.035897 -72.540697 
L 133.153402 -72.540697 
L 138.270908 -72.540697 
L 143.388413 -72.540697 
L 148.505919 -72.540697 
L 153.623424 -72.540697 
L 158.74093 -72.540697 
L 163.858435 -72.540697 
L 168.975941 -72.540697 
L 174.093446 -72.540697 
L 179.210952 -72.540697 
L 184.328457 -72.543613 
L 189.445962 -72.549444 
L 194.563468 -72.558191 
L 199.680973 -72.569854 
L 204.798479 -72.584433 
L 209.915984 -72.601927 
L 215.03349 -72.622337 
L 220.150995 -72.645663 
L 225.268501 -72.671905 
L 230.386006 -72.701062 
L 235.503511 -72.733135 
L 240.621017 -72.768124 
L 245.738522 -72.806028 
L 250.856028 -72.846849 
L 255.973533 -72.890585 
L 261.091039 -72.937236 
L 266.208544 -72.986804 
L 271.32605 -73.039287 
L 276.443555 -73.094686 
L 281.56106 -73.153 
L 286.678566 -73.208399 
L 291.796071 -73.260883 
L 296.913577 -73.31045 
L 302.031082 -73.357102 
L 307.148588 -73.400838 
L 312.266093 -73.441658 
L 317.383599 -73.479562 
L 322.501104 -73.514551 
L 327.618609 -73.546624 
L 332.736115 -73.575782 
L 337.85362 -73.602023 
L 342.971126 -73.625349 
L 348.088631 -73.645759 
L 353.206137 -73.663254 
L 358.323642 -73.677832 
L 363.441148 -73.689495 
L 368.558653 -73.698242 
L 373.676158 -73.704074 
L 378.793664 -73.70699 
L 383.911169 -73.70699 
L 389.028675 -73.70699 
L 394.14618 -73.70699 
L 399.263686 -73.70699 
L 404.381191 -73.70699 
L 409.498697 -73.70699 
L 414.616202 -73.70699 
L 419.733707 -73.70699 
L 424.851213 -73.70699 
L 429.968718 -73.70699 
L 435.086224 -73.70699 
L 435.086224 -125.641322 
L 435.086224 -125.641322 
L 429.968718 -125.641322 
L 424.851213 -125.641322 
L 419.733707 -125.641322 
L 414.616202 -125.641322 
L 409.498697 -125.641322 
L 404.381191 -125.641322 
L 399.263686 -125.641322 
L 394.14618 -125.641322 
L 389.028675 -125.641322 
L 383.911169 -125.641322 
L 378.793664 -125.641322 
L 373.676158 -125.638406 
L 368.558653 -125.632575 
L 363.441148 -125.623828 
L 358.323642 -125.612165 
L 353.206137 -125.597586 
L 348.088631 -125.580092 
L 342.971126 -125.559682 
L 337.85362 -125.536356 
L 332.736115 -125.510114 
L 327.618609 -125.480957 
L 322.501104 -125.448884 
L 317.383599 -125.413895 
L 312.266093 -125.37599 
L 307.148588 -125.33517 
L 302.031082 -125.291434 
L 296.913577 -125.244783 
L 291.796071 -125.195215 
L 286.678566 -125.142732 
L 281.56106 -125.087333 
L 276.443555 -125.029018 
L 271.32605 -124.973619 
L 266.208544 -124.921136 
L 261.091039 -124.871569 
L 255.973533 -124.824917 
L 250.856028 -124.781181 
L 245.738522 -124.740361 
L 240.621017 -124.702456 
L 235.503511 -124.667468 
L 230.386006 -124.635395 
L 225.268501 -124.606237 
L 220.150995 -124.579996 
L 215.03349 -124.55667 
L 209.915984 -124.53626 
L 204.798479 -124.518765 
L 199.680973 -124.504187 
L 194.563468 -124.492524 
L 189.445962 -124.483776 
L 184.328457 -124.477945 
L 179.210952 -124.475029 
L 174.093446 -124.475029 
L 168.975941 -124.475029 
L 163.858435 -124.475029 
L 158.74093 -124.475029 
L 153.623424 -124.475029 
L 148.505919 -124.475029 
L 143.388413 -124.475029 
L 138.270908 -124.475029 
L 133.153402 -124.475029 
L 128.035897 -124.475029 
L 122.918392 -124.475029 
z
" style="stroke: #db57d3; stroke-opacity: 0.65"/>
    </defs>
    <g clip-path="url(#p4f7660f543)">
     <use xlink:href="#mc5d3f8603e" x="0" y="280.512" style="fill: #db57d3; fill-opacity: 0.65; stroke: #db57d3; stroke-opacity: 0.65"/>
    </g>
   </g>
   <g id="PolyCollection_20">
    <defs>
     <path id="m60baea5662" d="M 122.918392 -127.63088 
L 122.918392 -124.475029 
L 128.035897 -124.475029 
L 133.153402 -124.475029 
L 138.270908 -124.475029 
L 143.388413 -124.475029 
L 148.505919 -124.475029 
L 153.623424 -124.475029 
L 158.74093 -124.475029 
L 163.858435 -124.475029 
L 168.975941 -124.475029 
L 174.093446 -124.475029 
L 179.210952 -124.475029 
L 184.328457 -124.505739 
L 189.445962 -124.567158 
L 194.563468 -124.659286 
L 199.680973 -124.782124 
L 204.798479 -124.935672 
L 209.915984 -125.119929 
L 215.03349 -125.334896 
L 220.150995 -125.580572 
L 225.268501 -125.856958 
L 230.386006 -126.164053 
L 235.503511 -126.501858 
L 240.621017 -126.870372 
L 245.738522 -127.269595 
L 250.856028 -127.699529 
L 255.973533 -128.160172 
L 261.091039 -128.651524 
L 266.208544 -129.173586 
L 271.32605 -129.726357 
L 276.443555 -130.309838 
L 281.56106 -130.924028 
L 286.678566 -131.507509 
L 291.796071 -132.06028 
L 296.913577 -132.582342 
L 302.031082 -133.073694 
L 307.148588 -133.534337 
L 312.266093 -133.964271 
L 317.383599 -134.363494 
L 322.501104 -134.732008 
L 327.618609 -135.069813 
L 332.736115 -135.376908 
L 337.85362 -135.653294 
L 342.971126 -135.89897 
L 348.088631 -136.113937 
L 353.206137 -136.298194 
L 358.323642 -136.451742 
L 363.441148 -136.57458 
L 368.558653 -136.666708 
L 373.676158 -136.728127 
L 378.793664 -136.758837 
L 383.911169 -136.758837 
L 389.028675 -136.758837 
L 394.14618 -136.758837 
L 399.263686 -136.758837 
L 404.381191 -136.758837 
L 409.498697 -136.758837 
L 414.616202 -136.758837 
L 419.733707 -136.758837 
L 424.851213 -136.758837 
L 429.968718 -136.758837 
L 435.086224 -136.758837 
L 435.086224 -139.914688 
L 435.086224 -139.914688 
L 429.968718 -139.914688 
L 424.851213 -139.914688 
L 419.733707 -139.914688 
L 414.616202 -139.914688 
L 409.498697 -139.914688 
L 404.381191 -139.914688 
L 399.263686 -139.914688 
L 394.14618 -139.914688 
L 389.028675 -139.914688 
L 383.911169 -139.914688 
L 378.793664 -139.914688 
L 373.676158 -139.883978 
L 368.558653 -139.822559 
L 363.441148 -139.730431 
L 358.323642 -139.607593 
L 353.206137 -139.454045 
L 348.088631 -139.269788 
L 342.971126 -139.054821 
L 337.85362 -138.809145 
L 332.736115 -138.53276 
L 327.618609 -138.225664 
L 322.501104 -137.88786 
L 317.383599 -137.519345 
L 312.266093 -137.120122 
L 307.148588 -136.690188 
L 302.031082 -136.229546 
L 296.913577 -135.738193 
L 291.796071 -135.216131 
L 286.678566 -134.66336 
L 281.56106 -134.079879 
L 276.443555 -133.465689 
L 271.32605 -132.882208 
L 266.208544 -132.329437 
L 261.091039 -131.807375 
L 255.973533 -131.316023 
L 250.856028 -130.85538 
L 245.738522 -130.425447 
L 240.621017 -130.026223 
L 235.503511 -129.657709 
L 230.386006 -129.319904 
L 225.268501 -129.012809 
L 220.150995 -128.736423 
L 215.03349 -128.490747 
L 209.915984 -128.27578 
L 204.798479 -128.091523 
L 199.680973 -127.937976 
L 194.563468 -127.815138 
L 189.445962 -127.723009 
L 184.328457 -127.66159 
L 179.210952 -127.63088 
L 174.093446 -127.63088 
L 168.975941 -127.63088 
L 163.858435 -127.63088 
L 158.74093 -127.63088 
L 153.623424 -127.63088 
L 148.505919 -127.63088 
L 143.388413 -127.63088 
L 138.270908 -127.63088 
L 133.153402 -127.63088 
L 128.035897 -127.63088 
L 122.918392 -127.63088 
z
" style="stroke: #db57d3; stroke-opacity: 0.65"/>
    </defs>
    <g clip-path="url(#p4f7660f543)">
     <use xlink:href="#m60baea5662" x="0" y="280.512" style="fill: #db57d3; fill-opacity: 0.65; stroke: #db57d3; stroke-opacity: 0.65"/>
    </g>
   </g>
   <g id="PolyCollection_21">
    <defs>
     <path id="m1fcf09a7f0" d="M 122.918392 -138.542579 
L 122.918392 -137.30768 
L 128.035897 -137.30768 
L 133.153402 -137.30768 
L 138.270908 -137.30768 
L 143.388413 -137.30768 
L 148.505919 -137.30768 
L 153.623424 -137.30768 
L 158.74093 -137.30768 
L 163.858435 -137.30768 
L 168.975941 -137.30768 
L 174.093446 -137.30768 
L 179.210952 -137.30768 
L 184.328457 -137.081771 
L 189.445962 -136.629953 
L 194.563468 -135.952225 
L 199.680973 -135.048588 
L 204.798479 -133.919042 
L 209.915984 -132.563587 
L 215.03349 -130.982223 
L 220.150995 -129.174949 
L 225.268501 -127.141766 
L 230.386006 -124.882674 
L 235.503511 -122.397673 
L 240.621017 -119.686763 
L 245.738522 -116.749943 
L 250.856028 -113.587214 
L 255.973533 -110.198576 
L 261.091039 -106.584029 
L 266.208544 -102.743573 
L 271.32605 -98.677207 
L 276.443555 -94.384932 
L 281.56106 -89.866748 
L 286.678566 -85.574473 
L 291.796071 -81.508108 
L 296.913577 -77.667651 
L 302.031082 -74.053104 
L 307.148588 -70.664466 
L 312.266093 -67.501737 
L 317.383599 -64.564918 
L 322.501104 -61.854007 
L 327.618609 -59.369006 
L 332.736115 -57.109914 
L 337.85362 -55.076731 
L 342.971126 -53.269458 
L 348.088631 -51.688093 
L 353.206137 -50.332638 
L 358.323642 -49.203092 
L 363.441148 -48.299455 
L 368.558653 -47.621728 
L 373.676158 -47.169909 
L 378.793664 -46.944 
L 383.911169 -46.944 
L 389.028675 -46.944 
L 394.14618 -46.944 
L 399.263686 -46.944 
L 404.381191 -46.944 
L 409.498697 -46.944 
L 414.616202 -46.944 
L 419.733707 -46.944 
L 424.851213 -46.944 
L 429.968718 -46.944 
L 435.086224 -46.944 
L 435.086224 -48.178898 
L 435.086224 -48.178898 
L 429.968718 -48.178898 
L 424.851213 -48.178898 
L 419.733707 -48.178898 
L 414.616202 -48.178898 
L 409.498697 -48.178898 
L 404.381191 -48.178898 
L 399.263686 -48.178898 
L 394.14618 -48.178898 
L 389.028675 -48.178898 
L 383.911169 -48.178898 
L 378.793664 -48.178898 
L 373.676158 -48.404807 
L 368.558653 -48.856626 
L 363.441148 -49.534353 
L 358.323642 -50.43799 
L 353.206137 -51.567536 
L 348.088631 -52.922991 
L 342.971126 -54.504356 
L 337.85362 -56.311629 
L 332.736115 -58.344812 
L 327.618609 -60.603904 
L 322.501104 -63.088906 
L 317.383599 -65.799816 
L 312.266093 -68.736636 
L 307.148588 -71.899364 
L 302.031082 -75.288002 
L 296.913577 -78.90255 
L 291.796071 -82.743006 
L 286.678566 -86.809372 
L 281.56106 -91.101646 
L 276.443555 -95.61983 
L 271.32605 -99.912105 
L 266.208544 -103.978471 
L 261.091039 -107.818927 
L 255.973533 -111.433475 
L 250.856028 -114.822113 
L 245.738522 -117.984841 
L 240.621017 -120.921661 
L 235.503511 -123.632571 
L 230.386006 -126.117573 
L 225.268501 -128.376665 
L 220.150995 -130.409847 
L 215.03349 -132.217121 
L 209.915984 -133.798485 
L 204.798479 -135.153941 
L 199.680973 -136.283487 
L 194.563468 -137.187123 
L 189.445962 -137.864851 
L 184.328457 -138.316669 
L 179.210952 -138.542579 
L 174.093446 -138.542579 
L 168.975941 -138.542579 
L 163.858435 -138.542579 
L 158.74093 -138.542579 
L 153.623424 -138.542579 
L 148.505919 -138.542579 
L 143.388413 -138.542579 
L 138.270908 -138.542579 
L 133.153402 -138.542579 
L 128.035897 -138.542579 
L 122.918392 -138.542579 
z
" style="stroke: #db5f57; stroke-opacity: 0.65"/>
    </defs>
    <g clip-path="url(#p4f7660f543)">
     <use xlink:href="#m1fcf09a7f0" x="0" y="280.512" style="fill: #db5f57; fill-opacity: 0.65; stroke: #db5f57; stroke-opacity: 0.65"/>
    </g>
   </g>
   <g id="PolyCollection_22">
    <defs>
     <path id="m8b53579b3a" d="M 122.918392 -138.67979 
L 122.918392 -138.542579 
L 128.035897 -138.542579 
L 133.153402 -138.542579 
L 138.270908 -138.542579 
L 143.388413 -138.542579 
L 148.505919 -138.542579 
L 153.623424 -138.542579 
L 158.74093 -138.542579 
L 163.858435 -138.542579 
L 168.975941 -138.542579 
L 174.093446 -138.542579 
L 179.210952 -138.542579 
L 184.328457 -138.355612 
L 189.445962 -137.981678 
L 194.563468 -137.420776 
L 199.680973 -136.672908 
L 204.798479 -135.738073 
L 209.915984 -134.616271 
L 215.03349 -133.307502 
L 220.150995 -131.811766 
L 225.268501 -130.129062 
L 230.386006 -128.259392 
L 235.503511 -126.202755 
L 240.621017 -123.959151 
L 245.738522 -121.528579 
L 250.856028 -118.911041 
L 255.973533 -116.106535 
L 261.091039 -113.115063 
L 266.208544 -109.936623 
L 271.32605 -106.571217 
L 276.443555 -103.018843 
L 281.56106 -99.279503 
L 286.678566 -95.727129 
L 291.796071 -92.361723 
L 296.913577 -89.183283 
L 302.031082 -86.191811 
L 307.148588 -83.387306 
L 312.266093 -80.769767 
L 317.383599 -78.339196 
L 322.501104 -76.095592 
L 327.618609 -74.038954 
L 332.736115 -72.169284 
L 337.85362 -70.486581 
L 342.971126 -68.990845 
L 348.088631 -67.682075 
L 353.206137 -66.560273 
L 358.323642 -65.625438 
L 363.441148 -64.87757 
L 368.558653 -64.316669 
L 373.676158 -63.942735 
L 378.793664 -63.755768 
L 383.911169 -63.755768 
L 389.028675 -63.755768 
L 394.14618 -63.755768 
L 399.263686 -63.755768 
L 404.381191 -63.755768 
L 409.498697 -63.755768 
L 414.616202 -63.755768 
L 419.733707 -63.755768 
L 424.851213 -63.755768 
L 429.968718 -63.755768 
L 435.086224 -63.755768 
L 435.086224 -63.892979 
L 435.086224 -63.892979 
L 429.968718 -63.892979 
L 424.851213 -63.892979 
L 419.733707 -63.892979 
L 414.616202 -63.892979 
L 409.498697 -63.892979 
L 404.381191 -63.892979 
L 399.263686 -63.892979 
L 394.14618 -63.892979 
L 389.028675 -63.892979 
L 383.911169 -63.892979 
L 378.793664 -63.892979 
L 373.676158 -64.079946 
L 368.558653 -64.45388 
L 363.441148 -65.014781 
L 358.323642 -65.762649 
L 353.206137 -66.697484 
L 348.088631 -67.819286 
L 342.971126 -69.128055 
L 337.85362 -70.623792 
L 332.736115 -72.306495 
L 327.618609 -74.176165 
L 322.501104 -76.232802 
L 317.383599 -78.476407 
L 312.266093 -80.906978 
L 307.148588 -83.524517 
L 302.031082 -86.329022 
L 296.913577 -89.320494 
L 291.796071 -92.498934 
L 286.678566 -95.86434 
L 281.56106 -99.416714 
L 276.443555 -103.156054 
L 271.32605 -106.708428 
L 266.208544 -110.073834 
L 261.091039 -113.252274 
L 255.973533 -116.243746 
L 250.856028 -119.048252 
L 245.738522 -121.66579 
L 240.621017 -124.096361 
L 235.503511 -126.339966 
L 230.386006 -128.396603 
L 225.268501 -130.266273 
L 220.150995 -131.948977 
L 215.03349 -133.444713 
L 209.915984 -134.753482 
L 204.798479 -135.875284 
L 199.680973 -136.810119 
L 194.563468 -137.557987 
L 189.445962 -138.118888 
L 184.328457 -138.492823 
L 179.210952 -138.67979 
L 174.093446 -138.67979 
L 168.975941 -138.67979 
L 163.858435 -138.67979 
L 158.74093 -138.67979 
L 153.623424 -138.67979 
L 148.505919 -138.67979 
L 143.388413 -138.67979 
L 138.270908 -138.67979 
L 133.153402 -138.67979 
L 128.035897 -138.67979 
L 122.918392 -138.67979 
z
" style="stroke: #db5f57; stroke-opacity: 0.65"/>
    </defs>
    <g clip-path="url(#p4f7660f543)">
     <use xlink:href="#m8b53579b3a" x="0" y="280.512" style="fill: #db5f57; fill-opacity: 0.65; stroke: #db5f57; stroke-opacity: 0.65"/>
    </g>
   </g>
   <g id="PolyCollection_23">
    <defs>
     <path id="md40abdf6d1" d="M 122.918392 -139.777477 
L 122.918392 -138.67979 
L 128.035897 -138.67979 
L 133.153402 -138.67979 
L 138.270908 -138.67979 
L 143.388413 -138.67979 
L 148.505919 -138.67979 
L 153.623424 -138.67979 
L 158.74093 -138.67979 
L 163.858435 -138.67979 
L 168.975941 -138.67979 
L 174.093446 -138.67979 
L 179.210952 -138.67979 
L 184.328457 -138.647193 
L 189.445962 -138.582001 
L 194.563468 -138.484213 
L 199.680973 -138.353828 
L 204.798479 -138.190847 
L 209.915984 -137.99527 
L 215.03349 -137.767097 
L 220.150995 -137.506328 
L 225.268501 -137.212962 
L 230.386006 -136.887 
L 235.503511 -136.528442 
L 240.621017 -136.137288 
L 245.738522 -135.713538 
L 250.856028 -135.257192 
L 255.973533 -134.768249 
L 261.091039 -134.246711 
L 266.208544 -133.692576 
L 271.32605 -133.105845 
L 276.443555 -132.486518 
L 281.56106 -131.834594 
L 286.678566 -131.215267 
L 291.796071 -130.628536 
L 296.913577 -130.074401 
L 302.031082 -129.552862 
L 307.148588 -129.06392 
L 312.266093 -128.607573 
L 317.383599 -128.183823 
L 322.501104 -127.792669 
L 327.618609 -127.434111 
L 332.736115 -127.10815 
L 337.85362 -126.814784 
L 342.971126 -126.554015 
L 348.088631 -126.325842 
L 353.206137 -126.130265 
L 358.323642 -125.967284 
L 363.441148 -125.836899 
L 368.558653 -125.739111 
L 373.676158 -125.673918 
L 378.793664 -125.641322 
L 383.911169 -125.641322 
L 389.028675 -125.641322 
L 394.14618 -125.641322 
L 399.263686 -125.641322 
L 404.381191 -125.641322 
L 409.498697 -125.641322 
L 414.616202 -125.641322 
L 419.733707 -125.641322 
L 424.851213 -125.641322 
L 429.968718 -125.641322 
L 435.086224 -125.641322 
L 435.086224 -126.739009 
L 435.086224 -126.739009 
L 429.968718 -126.739009 
L 424.851213 -126.739009 
L 419.733707 -126.739009 
L 414.616202 -126.739009 
L 409.498697 -126.739009 
L 404.381191 -126.739009 
L 399.263686 -126.739009 
L 394.14618 -126.739009 
L 389.028675 -126.739009 
L 383.911169 -126.739009 
L 378.793664 -126.739009 
L 373.676158 -126.771606 
L 368.558653 -126.836798 
L 363.441148 -126.934586 
L 358.323642 -127.064971 
L 353.206137 -127.227952 
L 348.088631 -127.423529 
L 342.971126 -127.651702 
L 337.85362 -127.912472 
L 332.736115 -128.205837 
L 327.618609 -128.531799 
L 322.501104 -128.890357 
L 317.383599 -129.281511 
L 312.266093 -129.705261 
L 307.148588 -130.161607 
L 302.031082 -130.65055 
L 296.913577 -131.172088 
L 291.796071 -131.726223 
L 286.678566 -132.312954 
L 281.56106 -132.932281 
L 276.443555 -133.584205 
L 271.32605 -134.203532 
L 266.208544 -134.790263 
L 261.091039 -135.344398 
L 255.973533 -135.865937 
L 250.856028 -136.354879 
L 245.738522 -136.811226 
L 240.621017 -137.234976 
L 235.503511 -137.62613 
L 230.386006 -137.984688 
L 225.268501 -138.310649 
L 220.150995 -138.604015 
L 215.03349 -138.864784 
L 209.915984 -139.092957 
L 204.798479 -139.288534 
L 199.680973 -139.451515 
L 194.563468 -139.5819 
L 189.445962 -139.679688 
L 184.328457 -139.744881 
L 179.210952 -139.777477 
L 174.093446 -139.777477 
L 168.975941 -139.777477 
L 163.858435 -139.777477 
L 158.74093 -139.777477 
L 153.623424 -139.777477 
L 148.505919 -139.777477 
L 143.388413 -139.777477 
L 138.270908 -139.777477 
L 133.153402 -139.777477 
L 128.035897 -139.777477 
L 122.918392 -139.777477 
z
" style="stroke: #db5f57; stroke-opacity: 0.65"/>
    </defs>
    <g clip-path="url(#p4f7660f543)">
     <use xlink:href="#md40abdf6d1" x="0" y="280.512" style="fill: #db5f57; fill-opacity: 0.65; stroke: #db5f57; stroke-opacity: 0.65"/>
    </g>
   </g>
   <g id="PolyCollection_24">
    <defs>
     <path id="mb02e73b722" d="M 122.918392 -194.867661 
L 122.918392 -139.777477 
L 128.035897 -139.777477 
L 133.153402 -139.777477 
L 138.270908 -139.777477 
L 143.388413 -139.777477 
L 148.505919 -139.777477 
L 153.623424 -139.777477 
L 158.74093 -139.777477 
L 163.858435 -139.777477 
L 168.975941 -139.777477 
L 174.093446 -139.777477 
L 179.210952 -139.777477 
L 184.328457 -139.77782 
L 189.445962 -139.778506 
L 194.563468 -139.779535 
L 199.680973 -139.780907 
L 204.798479 -139.782622 
L 209.915984 -139.78468 
L 215.03349 -139.787082 
L 220.150995 -139.789826 
L 225.268501 -139.792913 
L 230.386006 -139.796343 
L 235.503511 -139.800117 
L 240.621017 -139.804233 
L 245.738522 -139.808692 
L 250.856028 -139.813495 
L 255.973533 -139.81864 
L 261.091039 -139.824129 
L 266.208544 -139.82996 
L 271.32605 -139.836135 
L 276.443555 -139.842652 
L 281.56106 -139.849513 
L 286.678566 -139.85603 
L 291.796071 -139.862205 
L 296.913577 -139.868036 
L 302.031082 -139.873525 
L 307.148588 -139.87867 
L 312.266093 -139.883472 
L 317.383599 -139.887932 
L 322.501104 -139.892048 
L 327.618609 -139.895821 
L 332.736115 -139.899252 
L 337.85362 -139.902339 
L 342.971126 -139.905083 
L 348.088631 -139.907484 
L 353.206137 -139.909542 
L 358.323642 -139.911258 
L 363.441148 -139.91263 
L 368.558653 -139.913659 
L 373.676158 -139.914345 
L 378.793664 -139.914688 
L 383.911169 -139.914688 
L 389.028675 -139.914688 
L 394.14618 -139.914688 
L 399.263686 -139.914688 
L 404.381191 -139.914688 
L 409.498697 -139.914688 
L 414.616202 -139.914688 
L 419.733707 -139.914688 
L 424.851213 -139.914688 
L 429.968718 -139.914688 
L 435.086224 -139.914688 
L 435.086224 -195.004871 
L 435.086224 -195.004871 
L 429.968718 -195.004871 
L 424.851213 -195.004871 
L 419.733707 -195.004871 
L 414.616202 -195.004871 
L 409.498697 -195.004871 
L 404.381191 -195.004871 
L 399.263686 -195.004871 
L 394.14618 -195.004871 
L 389.028675 -195.004871 
L 383.911169 -195.004871 
L 378.793664 -195.004871 
L 373.676158 -195.004528 
L 368.558653 -195.003842 
L 363.441148 -195.002813 
L 358.323642 -195.001441 
L 353.206137 -194.999726 
L 348.088631 -194.997668 
L 342.971126 -194.995267 
L 337.85362 -194.992522 
L 332.736115 -194.989435 
L 327.618609 -194.986005 
L 322.501104 -194.982232 
L 317.383599 -194.978115 
L 312.266093 -194.973656 
L 307.148588 -194.968854 
L 302.031082 -194.963708 
L 296.913577 -194.95822 
L 291.796071 -194.952388 
L 286.678566 -194.946214 
L 281.56106 -194.939696 
L 276.443555 -194.932836 
L 271.32605 -194.926318 
L 266.208544 -194.920144 
L 261.091039 -194.914312 
L 255.973533 -194.908824 
L 250.856028 -194.903678 
L 245.738522 -194.898876 
L 240.621017 -194.894417 
L 235.503511 -194.8903 
L 230.386006 -194.886527 
L 225.268501 -194.883097 
L 220.150995 -194.88001 
L 215.03349 -194.877265 
L 209.915984 -194.874864 
L 204.798479 -194.872806 
L 199.680973 -194.871091 
L 194.563468 -194.869719 
L 189.445962 -194.86869 
L 184.328457 -194.868004 
L 179.210952 -194.867661 
L 174.093446 -194.867661 
L 168.975941 -194.867661 
L 163.858435 -194.867661 
L 158.74093 -194.867661 
L 153.623424 -194.867661 
L 148.505919 -194.867661 
L 143.388413 -194.867661 
L 138.270908 -194.867661 
L 133.153402 -194.867661 
L 128.035897 -194.867661 
L 122.918392 -194.867661 
z
" style="stroke: #db5f57; stroke-opacity: 0.65"/>
    </defs>
    <g clip-path="url(#p4f7660f543)">
     <use xlink:href="#mb02e73b722" x="0" y="280.512" style="fill: #db5f57; fill-opacity: 0.65; stroke: #db5f57; stroke-opacity: 0.65"/>
    </g>
   </g>
   <g id="PolyCollection_25">
    <defs>
     <path id="m2f595112a0" d="M 122.918392 -204.613066 
L 122.918392 -204.544461 
L 128.035897 -204.544461 
L 133.153402 -204.544461 
L 138.270908 -204.544461 
L 143.388413 -204.544461 
L 148.505919 -204.544461 
L 153.623424 -204.544461 
L 158.74093 -204.544461 
L 163.858435 -204.544461 
L 168.975941 -204.544461 
L 174.093446 -204.544461 
L 179.210952 -204.544461 
L 184.328457 -204.192832 
L 189.445962 -203.489574 
L 194.563468 -202.434688 
L 199.680973 -201.028173 
L 204.798479 -199.27003 
L 209.915984 -197.160258 
L 215.03349 -194.698857 
L 220.150995 -191.885827 
L 225.268501 -188.721169 
L 230.386006 -185.204882 
L 235.503511 -181.336966 
L 240.621017 -177.117422 
L 245.738522 -172.546248 
L 250.856028 -167.623447 
L 255.973533 -162.349016 
L 261.091039 -156.722957 
L 266.208544 -150.745269 
L 271.32605 -144.415952 
L 276.443555 -137.735007 
L 281.56106 -130.702433 
L 286.678566 -124.021487 
L 291.796071 -117.69217 
L 296.913577 -111.714483 
L 302.031082 -106.088423 
L 307.148588 -100.813993 
L 312.266093 -95.891191 
L 317.383599 -91.320018 
L 322.501104 -87.100473 
L 327.618609 -83.232557 
L 332.736115 -79.71627 
L 337.85362 -76.551612 
L 342.971126 -73.738582 
L 348.088631 -71.277181 
L 353.206137 -69.167409 
L 358.323642 -67.409266 
L 363.441148 -66.002751 
L 368.558653 -64.947865 
L 373.676158 -64.244607 
L 378.793664 -63.892979 
L 383.911169 -63.892979 
L 389.028675 -63.892979 
L 394.14618 -63.892979 
L 399.263686 -63.892979 
L 404.381191 -63.892979 
L 409.498697 -63.892979 
L 414.616202 -63.892979 
L 419.733707 -63.892979 
L 424.851213 -63.892979 
L 429.968718 -63.892979 
L 435.086224 -63.892979 
L 435.086224 -63.961584 
L 435.086224 -63.961584 
L 429.968718 -63.961584 
L 424.851213 -63.961584 
L 419.733707 -63.961584 
L 414.616202 -63.961584 
L 409.498697 -63.961584 
L 404.381191 -63.961584 
L 399.263686 -63.961584 
L 394.14618 -63.961584 
L 389.028675 -63.961584 
L 383.911169 -63.961584 
L 378.793664 -63.961584 
L 373.676158 -64.313213 
L 368.558653 -65.01647 
L 363.441148 -66.071356 
L 358.323642 -67.477871 
L 353.206137 -69.236015 
L 348.088631 -71.345787 
L 342.971126 -73.807188 
L 337.85362 -76.620217 
L 332.736115 -79.784876 
L 327.618609 -83.301163 
L 322.501104 -87.169079 
L 317.383599 -91.388623 
L 312.266093 -95.959796 
L 307.148588 -100.882598 
L 302.031082 -106.157029 
L 296.913577 -111.783088 
L 291.796071 -117.760776 
L 286.678566 -124.090093 
L 281.56106 -130.771038 
L 276.443555 -137.803612 
L 271.32605 -144.484557 
L 266.208544 -150.813874 
L 261.091039 -156.791562 
L 255.973533 -162.417621 
L 250.856028 -167.692052 
L 245.738522 -172.614854 
L 240.621017 -177.186027 
L 235.503511 -181.405571 
L 230.386006 -185.273487 
L 225.268501 -188.789774 
L 220.150995 -191.954433 
L 215.03349 -194.767462 
L 209.915984 -197.228863 
L 204.798479 -199.338635 
L 199.680973 -201.096779 
L 194.563468 -202.503294 
L 189.445962 -203.55818 
L 184.328457 -204.261437 
L 179.210952 -204.613066 
L 174.093446 -204.613066 
L 168.975941 -204.613066 
L 163.858435 -204.613066 
L 158.74093 -204.613066 
L 153.623424 -204.613066 
L 148.505919 -204.613066 
L 143.388413 -204.613066 
L 138.270908 -204.613066 
L 133.153402 -204.613066 
L 128.035897 -204.613066 
L 122.918392 -204.613066 
z
" style="stroke: #d3db57; stroke-opacity: 0.65"/>
    </defs>
    <g clip-path="url(#p4f7660f543)">
     <use xlink:href="#m2f595112a0" x="0" y="280.512" style="fill: #d3db57; fill-opacity: 0.65; stroke: #d3db57; stroke-opacity: 0.65"/>
    </g>
   </g>
   <g id="PolyCollection_26">
    <defs>
     <path id="m008454b855" d="M 122.918392 -212.091061 
L 122.918392 -204.613066 
L 128.035897 -204.613066 
L 133.153402 -204.613066 
L 138.270908 -204.613066 
L 143.388413 -204.613066 
L 148.505919 -204.613066 
L 153.623424 -204.613066 
L 158.74093 -204.613066 
L 163.858435 -204.613066 
L 168.975941 -204.613066 
L 174.093446 -204.613066 
L 179.210952 -204.613066 
L 184.328457 -204.589046 
L 189.445962 -204.541005 
L 194.563468 -204.468943 
L 199.680973 -204.372861 
L 204.798479 -204.252759 
L 209.915984 -204.108636 
L 215.03349 -203.940492 
L 220.150995 -203.748328 
L 225.268501 -203.532144 
L 230.386006 -203.291939 
L 235.503511 -203.027714 
L 240.621017 -202.739468 
L 245.738522 -202.427202 
L 250.856028 -202.090915 
L 255.973533 -201.730608 
L 261.091039 -201.34628 
L 266.208544 -200.937932 
L 271.32605 -200.505563 
L 276.443555 -200.049174 
L 281.56106 -199.568764 
L 286.678566 -199.112375 
L 291.796071 -198.680006 
L 296.913577 -198.271658 
L 302.031082 -197.88733 
L 307.148588 -197.527023 
L 312.266093 -197.190736 
L 317.383599 -196.878469 
L 322.501104 -196.590224 
L 327.618609 -196.325998 
L 332.736115 -196.085793 
L 337.85362 -195.869609 
L 342.971126 -195.677445 
L 348.088631 -195.509302 
L 353.206137 -195.365179 
L 358.323642 -195.245076 
L 363.441148 -195.148994 
L 368.558653 -195.076933 
L 373.676158 -195.028892 
L 378.793664 -195.004871 
L 383.911169 -195.004871 
L 389.028675 -195.004871 
L 394.14618 -195.004871 
L 399.263686 -195.004871 
L 404.381191 -195.004871 
L 409.498697 -195.004871 
L 414.616202 -195.004871 
L 419.733707 -195.004871 
L 424.851213 -195.004871 
L 429.968718 -195.004871 
L 435.086224 -195.004871 
L 435.086224 -202.482867 
L 435.086224 -202.482867 
L 429.968718 -202.482867 
L 424.851213 -202.482867 
L 419.733707 -202.482867 
L 414.616202 -202.482867 
L 409.498697 -202.482867 
L 404.381191 -202.482867 
L 399.263686 -202.482867 
L 394.14618 -202.482867 
L 389.028675 -202.482867 
L 383.911169 -202.482867 
L 378.793664 -202.482867 
L 373.676158 -202.506887 
L 368.558653 -202.554928 
L 363.441148 -202.626989 
L 358.323642 -202.723071 
L 353.206137 -202.843174 
L 348.088631 -202.987297 
L 342.971126 -203.15544 
L 337.85362 -203.347604 
L 332.736115 -203.563788 
L 327.618609 -203.803993 
L 322.501104 -204.068219 
L 317.383599 -204.356464 
L 312.266093 -204.668731 
L 307.148588 -205.005018 
L 302.031082 -205.365325 
L 296.913577 -205.749653 
L 291.796071 -206.158001 
L 286.678566 -206.59037 
L 281.56106 -207.046759 
L 276.443555 -207.527169 
L 271.32605 -207.983558 
L 266.208544 -208.415927 
L 261.091039 -208.824275 
L 255.973533 -209.208603 
L 250.856028 -209.56891 
L 245.738522 -209.905197 
L 240.621017 -210.217463 
L 235.503511 -210.505709 
L 230.386006 -210.769934 
L 225.268501 -211.010139 
L 220.150995 -211.226324 
L 215.03349 -211.418487 
L 209.915984 -211.586631 
L 204.798479 -211.730754 
L 199.680973 -211.850856 
L 194.563468 -211.946938 
L 189.445962 -212.019 
L 184.328457 -212.067041 
L 179.210952 -212.091061 
L 174.093446 -212.091061 
L 168.975941 -212.091061 
L 163.858435 -212.091061 
L 158.74093 -212.091061 
L 153.623424 -212.091061 
L 148.505919 -212.091061 
L 143.388413 -212.091061 
L 138.270908 -212.091061 
L 133.153402 -212.091061 
L 128.035897 -212.091061 
L 122.918392 -212.091061 
z
" style="stroke: #d3db57; stroke-opacity: 0.65"/>
    </defs>
    <g clip-path="url(#p4f7660f543)">
     <use xlink:href="#m008454b855" x="0" y="280.512" style="fill: #d3db57; fill-opacity: 0.65; stroke: #d3db57; stroke-opacity: 0.65"/>
    </g>
   </g>
   <g id="PolyCollection_27">
    <defs>
     <path id="m9a8be5684f" d="M 122.918392 -221.836467 
L 122.918392 -221.767861 
L 128.035897 -221.767861 
L 133.153402 -221.767861 
L 138.270908 -221.767861 
L 143.388413 -221.767861 
L 148.505919 -221.767861 
L 153.623424 -221.767861 
L 158.74093 -221.767861 
L 163.858435 -221.767861 
L 168.975941 -221.767861 
L 174.093446 -221.767861 
L 179.210952 -221.767861 
L 184.328457 -221.373345 
L 189.445962 -220.584314 
L 194.563468 -219.400767 
L 199.680973 -217.822704 
L 204.798479 -215.850126 
L 209.915984 -213.483032 
L 215.03349 -210.721422 
L 220.150995 -207.565296 
L 225.268501 -204.014655 
L 230.386006 -200.069498 
L 235.503511 -195.729825 
L 240.621017 -190.995637 
L 245.738522 -185.866933 
L 250.856028 -180.343713 
L 255.973533 -174.425978 
L 261.091039 -168.113727 
L 266.208544 -161.40696 
L 271.32605 -154.305678 
L 276.443555 -146.80988 
L 281.56106 -138.919566 
L 286.678566 -131.423768 
L 291.796071 -124.322485 
L 296.913577 -117.615718 
L 302.031082 -111.303467 
L 307.148588 -105.385732 
L 312.266093 -99.862512 
L 317.383599 -94.733808 
L 322.501104 -89.99962 
L 327.618609 -85.659947 
L 332.736115 -81.71479 
L 337.85362 -78.164149 
L 342.971126 -75.008024 
L 348.088631 -72.246414 
L 353.206137 -69.87932 
L 358.323642 -67.906741 
L 363.441148 -66.328678 
L 368.558653 -65.145131 
L 373.676158 -64.3561 
L 378.793664 -63.961584 
L 383.911169 -63.961584 
L 389.028675 -63.961584 
L 394.14618 -63.961584 
L 399.263686 -63.961584 
L 404.381191 -63.961584 
L 409.498697 -63.961584 
L 414.616202 -63.961584 
L 419.733707 -63.961584 
L 424.851213 -63.961584 
L 429.968718 -63.961584 
L 435.086224 -63.961584 
L 435.086224 -64.03019 
L 435.086224 -64.03019 
L 429.968718 -64.03019 
L 424.851213 -64.03019 
L 419.733707 -64.03019 
L 414.616202 -64.03019 
L 409.498697 -64.03019 
L 404.381191 -64.03019 
L 399.263686 -64.03019 
L 394.14618 -64.03019 
L 389.028675 -64.03019 
L 383.911169 -64.03019 
L 378.793664 -64.03019 
L 373.676158 -64.424705 
L 368.558653 -65.213737 
L 363.441148 -66.397284 
L 358.323642 -67.975347 
L 353.206137 -69.947925 
L 348.088631 -72.315019 
L 342.971126 -75.076629 
L 337.85362 -78.232755 
L 332.736115 -81.783396 
L 327.618609 -85.728553 
L 322.501104 -90.068225 
L 317.383599 -94.802414 
L 312.266093 -99.931118 
L 307.148588 -105.454337 
L 302.031082 -111.372073 
L 296.913577 -117.684324 
L 291.796071 -124.391091 
L 286.678566 -131.492373 
L 281.56106 -138.988171 
L 276.443555 -146.878485 
L 271.32605 -154.374283 
L 266.208544 -161.475566 
L 261.091039 -168.182332 
L 255.973533 -174.494583 
L 250.856028 -180.412319 
L 245.738522 -185.935539 
L 240.621017 -191.064243 
L 235.503511 -195.798431 
L 230.386006 -200.138103 
L 225.268501 -204.08326 
L 220.150995 -207.633902 
L 215.03349 -210.790027 
L 209.915984 -213.551637 
L 204.798479 -215.918731 
L 199.680973 -217.89131 
L 194.563468 -219.469372 
L 189.445962 -220.652919 
L 184.328457 -221.441951 
L 179.210952 -221.836467 
L 174.093446 -221.836467 
L 168.975941 -221.836467 
L 163.858435 -221.836467 
L 158.74093 -221.836467 
L 153.623424 -221.836467 
L 148.505919 -221.836467 
L 143.388413 -221.836467 
L 138.270908 -221.836467 
L 133.153402 -221.836467 
L 128.035897 -221.836467 
L 122.918392 -221.836467 
z
" style="stroke: #57d3db; stroke-opacity: 0.65"/>
    </defs>
    <g clip-path="url(#p4f7660f543)">
     <use xlink:href="#m9a8be5684f" x="0" y="280.512" style="fill: #57d3db; fill-opacity: 0.65; stroke: #57d3db; stroke-opacity: 0.65"/>
    </g>
   </g>
   <g id="PolyCollection_28">
    <defs>
     <path id="mda1144292c" d="M 122.918392 -221.973677 
L 122.918392 -221.836467 
L 128.035897 -221.836467 
L 133.153402 -221.836467 
L 138.270908 -221.836467 
L 143.388413 -221.836467 
L 148.505919 -221.836467 
L 153.623424 -221.836467 
L 158.74093 -221.836467 
L 163.858435 -221.836467 
L 168.975941 -221.836467 
L 174.093446 -221.836467 
L 179.210952 -221.836467 
L 184.328457 -221.788083 
L 189.445962 -221.691315 
L 194.563468 -221.546163 
L 199.680973 -221.352627 
L 204.798479 -221.110707 
L 209.915984 -220.820403 
L 215.03349 -220.481715 
L 220.150995 -220.094643 
L 225.268501 -219.659187 
L 230.386006 -219.175347 
L 235.503511 -218.643123 
L 240.621017 -218.062515 
L 245.738522 -217.433523 
L 250.856028 -216.756147 
L 255.973533 -216.030387 
L 261.091039 -215.256243 
L 266.208544 -214.433715 
L 271.32605 -213.562803 
L 276.443555 -212.643507 
L 281.56106 -211.675827 
L 286.678566 -210.756531 
L 291.796071 -209.885619 
L 296.913577 -209.063091 
L 302.031082 -208.288947 
L 307.148588 -207.563187 
L 312.266093 -206.885811 
L 317.383599 -206.256819 
L 322.501104 -205.676211 
L 327.618609 -205.143987 
L 332.736115 -204.660147 
L 337.85362 -204.224691 
L 342.971126 -203.837619 
L 348.088631 -203.498931 
L 353.206137 -203.208627 
L 358.323642 -202.966707 
L 363.441148 -202.773171 
L 368.558653 -202.628019 
L 373.676158 -202.531251 
L 378.793664 -202.482867 
L 383.911169 -202.482867 
L 389.028675 -202.482867 
L 394.14618 -202.482867 
L 399.263686 -202.482867 
L 404.381191 -202.482867 
L 409.498697 -202.482867 
L 414.616202 -202.482867 
L 419.733707 -202.482867 
L 424.851213 -202.482867 
L 429.968718 -202.482867 
L 435.086224 -202.482867 
L 435.086224 -202.620077 
L 435.086224 -202.620077 
L 429.968718 -202.620077 
L 424.851213 -202.620077 
L 419.733707 -202.620077 
L 414.616202 -202.620077 
L 409.498697 -202.620077 
L 404.381191 -202.620077 
L 399.263686 -202.620077 
L 394.14618 -202.620077 
L 389.028675 -202.620077 
L 383.911169 -202.620077 
L 378.793664 -202.620077 
L 373.676158 -202.668461 
L 368.558653 -202.765229 
L 363.441148 -202.910381 
L 358.323642 -203.103917 
L 353.206137 -203.345837 
L 348.088631 -203.636141 
L 342.971126 -203.974829 
L 337.85362 -204.361901 
L 332.736115 -204.797357 
L 327.618609 -205.281197 
L 322.501104 -205.813421 
L 317.383599 -206.394029 
L 312.266093 -207.023021 
L 307.148588 -207.700397 
L 302.031082 -208.426157 
L 296.913577 -209.200301 
L 291.796071 -210.022829 
L 286.678566 -210.893741 
L 281.56106 -211.813037 
L 276.443555 -212.780717 
L 271.32605 -213.700013 
L 266.208544 -214.570925 
L 261.091039 -215.393453 
L 255.973533 -216.167597 
L 250.856028 -216.893357 
L 245.738522 -217.570733 
L 240.621017 -218.199725 
L 235.503511 -218.780333 
L 230.386006 -219.312557 
L 225.268501 -219.796397 
L 220.150995 -220.231853 
L 215.03349 -220.618925 
L 209.915984 -220.957613 
L 204.798479 -221.247917 
L 199.680973 -221.489837 
L 194.563468 -221.683373 
L 189.445962 -221.828525 
L 184.328457 -221.925293 
L 179.210952 -221.973677 
L 174.093446 -221.973677 
L 168.975941 -221.973677 
L 163.858435 -221.973677 
L 158.74093 -221.973677 
L 153.623424 -221.973677 
L 148.505919 -221.973677 
L 143.388413 -221.973677 
L 138.270908 -221.973677 
L 133.153402 -221.973677 
L 128.035897 -221.973677 
L 122.918392 -221.973677 
z
" style="stroke: #57d3db; stroke-opacity: 0.65"/>
    </defs>
    <g clip-path="url(#p4f7660f543)">
     <use xlink:href="#mda1144292c" x="0" y="280.512" style="fill: #57d3db; fill-opacity: 0.65; stroke: #57d3db; stroke-opacity: 0.65"/>
    </g>
   </g>
   <g id="PolyCollection_29">
    <defs>
     <path id="mc981688a3a" d="M 122.918392 -261.216 
L 122.918392 -221.973677 
L 128.035897 -221.973677 
L 133.153402 -221.973677 
L 138.270908 -221.973677 
L 143.388413 -221.973677 
L 148.505919 -221.973677 
L 153.623424 -221.973677 
L 158.74093 -221.973677 
L 163.858435 -221.973677 
L 168.975941 -221.973677 
L 174.093446 -221.973677 
L 179.210952 -221.973677 
L 184.328457 -221.949485 
L 189.445962 -221.901101 
L 194.563468 -221.828525 
L 199.680973 -221.731757 
L 204.798479 -221.610797 
L 209.915984 -221.465645 
L 215.03349 -221.296301 
L 220.150995 -221.102765 
L 225.268501 -220.885037 
L 230.386006 -220.643117 
L 235.503511 -220.377005 
L 240.621017 -220.086701 
L 245.738522 -219.772205 
L 250.856028 -219.433517 
L 255.973533 -219.070637 
L 261.091039 -218.683565 
L 266.208544 -218.272301 
L 271.32605 -217.836845 
L 276.443555 -217.377197 
L 281.56106 -216.893357 
L 286.678566 -216.433709 
L 291.796071 -215.998253 
L 296.913577 -215.586989 
L 302.031082 -215.199917 
L 307.148588 -214.837037 
L 312.266093 -214.498349 
L 317.383599 -214.183853 
L 322.501104 -213.893549 
L 327.618609 -213.627437 
L 332.736115 -213.385517 
L 337.85362 -213.167789 
L 342.971126 -212.974253 
L 348.088631 -212.804909 
L 353.206137 -212.659757 
L 358.323642 -212.538797 
L 363.441148 -212.442029 
L 368.558653 -212.369453 
L 373.676158 -212.321069 
L 378.793664 -212.296877 
L 383.911169 -212.296877 
L 389.028675 -212.296877 
L 394.14618 -212.296877 
L 399.263686 -212.296877 
L 404.381191 -212.296877 
L 409.498697 -212.296877 
L 414.616202 -212.296877 
L 419.733707 -212.296877 
L 424.851213 -212.296877 
L 429.968718 -212.296877 
L 435.086224 -212.296877 
L 435.086224 -251.5392 
L 435.086224 -251.5392 
L 429.968718 -251.5392 
L 424.851213 -251.5392 
L 419.733707 -251.5392 
L 414.616202 -251.5392 
L 409.498697 -251.5392 
L 404.381191 -251.5392 
L 399.263686 -251.5392 
L 394.14618 -251.5392 
L 389.028675 -251.5392 
L 383.911169 -251.5392 
L 378.793664 -251.5392 
L 373.676158 -251.563392 
L 368.558653 -251.611776 
L 363.441148 -251.684352 
L 358.323642 -251.78112 
L 353.206137 -251.90208 
L 348.088631 -252.047232 
L 342.971126 -252.216576 
L 337.85362 -252.410112 
L 332.736115 -252.62784 
L 327.618609 -252.86976 
L 322.501104 -253.135872 
L 317.383599 -253.426176 
L 312.266093 -253.740672 
L 307.148588 -254.07936 
L 302.031082 -254.44224 
L 296.913577 -254.829312 
L 291.796071 -255.240576 
L 286.678566 -255.676032 
L 281.56106 -256.13568 
L 276.443555 -256.61952 
L 271.32605 -257.079168 
L 266.208544 -257.514624 
L 261.091039 -257.925888 
L 255.973533 -258.31296 
L 250.856028 -258.67584 
L 245.738522 -259.014528 
L 240.621017 -259.329024 
L 235.503511 -259.619328 
L 230.386006 -259.88544 
L 225.268501 -260.12736 
L 220.150995 -260.345088 
L 215.03349 -260.538624 
L 209.915984 -260.707968 
L 204.798479 -260.85312 
L 199.680973 -260.97408 
L 194.563468 -261.070848 
L 189.445962 -261.143424 
L 184.328457 -261.191808 
L 179.210952 -261.216 
L 174.093446 -261.216 
L 168.975941 -261.216 
L 163.858435 -261.216 
L 158.74093 -261.216 
L 153.623424 -261.216 
L 148.505919 -261.216 
L 143.388413 -261.216 
L 138.270908 -261.216 
L 133.153402 -261.216 
L 128.035897 -261.216 
L 122.918392 -261.216 
z
" style="stroke: #57d3db; stroke-opacity: 0.65"/>
    </defs>
    <g clip-path="url(#p4f7660f543)">
     <use xlink:href="#mc981688a3a" x="0" y="280.512" style="fill: #57d3db; fill-opacity: 0.65; stroke: #57d3db; stroke-opacity: 0.65"/>
    </g>
   </g>
   <g id="text_1">
    <!-- Astrocytes -->
    <g transform="translate(53.540625 250.220605) scale(0.12 -0.12)">
     <defs>
      <path id="TimesNewRomanPS-BoldMT-41" d="M 2663 1206 
L 1166 1206 
L 988 794 
Q 900 588 900 453 
Q 900 275 1044 191 
Q 1128 141 1459 116 
L 1459 0 
L 50 0 
L 50 116 
Q 278 150 425 304 
Q 572 459 788 944 
L 2303 4325 
L 2363 4325 
L 3891 850 
Q 4109 356 4250 228 
Q 4356 131 4550 116 
L 4550 0 
L 2500 0 
L 2500 116 
L 2584 116 
Q 2831 116 2931 184 
Q 3000 234 3000 328 
Q 3000 384 2981 444 
Q 2975 472 2888 678 
L 2663 1206 
z
M 2556 1438 
L 1925 2897 
L 1275 1438 
L 2556 1438 
z
" transform="scale(0.015625)"/>
      <path id="TimesNewRomanPS-BoldMT-73" d="M 2063 3003 
L 2109 2006 
L 2003 2006 
Q 1813 2450 1608 2612 
Q 1403 2775 1200 2775 
Q 1072 2775 981 2689 
Q 891 2603 891 2491 
Q 891 2406 953 2328 
Q 1053 2200 1512 1889 
Q 1972 1578 2117 1361 
Q 2263 1144 2263 875 
Q 2263 631 2141 397 
Q 2019 163 1797 37 
Q 1575 -88 1306 -88 
Q 1097 -88 747 44 
Q 653 78 619 78 
Q 516 78 447 -78 
L 344 -78 
L 294 972 
L 400 972 
Q 541 559 786 353 
Q 1031 147 1250 147 
Q 1400 147 1495 239 
Q 1591 331 1591 463 
Q 1591 613 1497 722 
Q 1403 831 1078 1053 
Q 600 1384 459 1559 
Q 253 1816 253 2125 
Q 253 2463 486 2736 
Q 719 3009 1159 3009 
Q 1397 3009 1619 2894 
Q 1703 2847 1756 2847 
Q 1813 2847 1847 2870 
Q 1881 2894 1956 3003 
L 2063 3003 
z
" transform="scale(0.015625)"/>
      <path id="TimesNewRomanPS-BoldMT-74" d="M 1375 3991 
L 1375 2922 
L 2069 2922 
L 2069 2613 
L 1375 2613 
L 1375 809 
Q 1375 556 1398 482 
Q 1422 409 1481 364 
Q 1541 319 1591 319 
Q 1794 319 1975 628 
L 2069 559 
Q 1816 -41 1247 -41 
Q 969 -41 776 114 
Q 584 269 531 459 
Q 500 566 500 1034 
L 500 2613 
L 119 2613 
L 119 2722 
Q 513 3000 789 3306 
Q 1066 3613 1272 3991 
L 1375 3991 
z
" transform="scale(0.015625)"/>
      <path id="TimesNewRomanPS-BoldMT-72" d="M 1428 2922 
L 1428 2259 
Q 1719 2713 1937 2861 
Q 2156 3009 2359 3009 
Q 2534 3009 2639 2901 
Q 2744 2794 2744 2597 
Q 2744 2388 2642 2272 
Q 2541 2156 2397 2156 
Q 2231 2156 2109 2262 
Q 1988 2369 1966 2381 
Q 1934 2400 1894 2400 
Q 1803 2400 1722 2331 
Q 1594 2225 1528 2028 
Q 1428 1725 1428 1359 
L 1428 688 
L 1431 513 
Q 1431 334 1453 284 
Q 1491 200 1564 161 
Q 1638 122 1813 113 
L 1813 0 
L 234 0 
L 234 113 
Q 425 128 492 217 
Q 559 306 559 688 
L 559 2303 
Q 559 2553 534 2622 
Q 503 2709 443 2750 
Q 384 2791 234 2806 
L 234 2922 
L 1428 2922 
z
" transform="scale(0.015625)"/>
      <path id="TimesNewRomanPS-BoldMT-6f" d="M 1594 3009 
Q 1975 3009 2303 2812 
Q 2631 2616 2801 2253 
Q 2972 1891 2972 1459 
Q 2972 838 2656 419 
Q 2275 -88 1603 -88 
Q 944 -88 587 375 
Q 231 838 231 1447 
Q 231 2075 595 2542 
Q 959 3009 1594 3009 
z
M 1606 2788 
Q 1447 2788 1333 2667 
Q 1219 2547 1183 2192 
Q 1147 1838 1147 1206 
Q 1147 872 1191 581 
Q 1225 359 1337 243 
Q 1450 128 1594 128 
Q 1734 128 1828 206 
Q 1950 313 1991 503 
Q 2053 800 2053 1703 
Q 2053 2234 1993 2432 
Q 1934 2631 1819 2722 
Q 1738 2788 1606 2788 
z
" transform="scale(0.015625)"/>
      <path id="TimesNewRomanPS-BoldMT-63" d="M 2600 753 
L 2697 678 
Q 2491 291 2183 101 
Q 1875 -88 1528 -88 
Q 944 -88 594 353 
Q 244 794 244 1413 
Q 244 2009 563 2463 
Q 947 3009 1622 3009 
Q 2075 3009 2342 2781 
Q 2609 2553 2609 2272 
Q 2609 2094 2501 1987 
Q 2394 1881 2219 1881 
Q 2034 1881 1914 2003 
Q 1794 2125 1766 2438 
Q 1747 2634 1675 2713 
Q 1603 2791 1506 2791 
Q 1356 2791 1250 2631 
Q 1088 2391 1088 1894 
Q 1088 1481 1219 1104 
Q 1350 728 1578 544 
Q 1750 409 1984 409 
Q 2138 409 2275 481 
Q 2413 553 2600 753 
z
" transform="scale(0.015625)"/>
      <path id="TimesNewRomanPS-BoldMT-79" d="M 1556 -119 
L 613 2047 
Q 400 2538 298 2650 
Q 197 2763 53 2806 
L 53 2922 
L 1606 2922 
L 1606 2806 
Q 1453 2800 1390 2747 
Q 1328 2694 1328 2619 
Q 1328 2500 1484 2150 
L 1984 1006 
L 2325 1891 
Q 2509 2363 2509 2547 
Q 2509 2663 2432 2731 
Q 2356 2800 2163 2806 
L 2163 2922 
L 3141 2922 
L 3141 2806 
Q 2997 2791 2906 2695 
Q 2816 2600 2603 2047 
L 1769 -119 
Q 1453 -931 1300 -1119 
Q 1084 -1381 759 -1381 
Q 500 -1381 339 -1232 
Q 178 -1084 178 -875 
Q 178 -694 289 -575 
Q 400 -456 563 -456 
Q 719 -456 814 -556 
Q 909 -656 913 -866 
Q 916 -984 941 -1019 
Q 966 -1053 1013 -1053 
Q 1088 -1053 1172 -963 
Q 1297 -831 1466 -363 
L 1556 -119 
z
" transform="scale(0.015625)"/>
      <path id="TimesNewRomanPS-BoldMT-65" d="M 2691 1566 
L 1088 1566 
Q 1116 984 1397 647 
Q 1613 388 1916 388 
Q 2103 388 2256 492 
Q 2409 597 2584 869 
L 2691 800 
Q 2453 316 2165 114 
Q 1878 -88 1500 -88 
Q 850 -88 516 413 
Q 247 816 247 1413 
Q 247 2144 642 2576 
Q 1038 3009 1569 3009 
Q 2013 3009 2339 2645 
Q 2666 2281 2691 1566 
z
M 1922 1775 
Q 1922 2278 1867 2465 
Q 1813 2653 1697 2750 
Q 1631 2806 1522 2806 
Q 1359 2806 1256 2647 
Q 1072 2369 1072 1884 
L 1072 1775 
L 1922 1775 
z
" transform="scale(0.015625)"/>
     </defs>
     <use xlink:href="#TimesNewRomanPS-BoldMT-41"/>
     <use xlink:href="#TimesNewRomanPS-BoldMT-73" x="72.216797"/>
     <use xlink:href="#TimesNewRomanPS-BoldMT-74" x="111.132812"/>
     <use xlink:href="#TimesNewRomanPS-BoldMT-72" x="144.433594"/>
     <use xlink:href="#TimesNewRomanPS-BoldMT-6f" x="187.068359"/>
     <use xlink:href="#TimesNewRomanPS-BoldMT-63" x="237.068359"/>
     <use xlink:href="#TimesNewRomanPS-BoldMT-79" x="281.453125"/>
     <use xlink:href="#TimesNewRomanPS-BoldMT-74" x="331.453125"/>
     <use xlink:href="#TimesNewRomanPS-BoldMT-65" x="364.753906"/>
     <use xlink:href="#TimesNewRomanPS-BoldMT-73" x="409.138672"/>
    </g>
   </g>
   <g id="text_2">
    <!-- Endothelial Cells -->
    <g transform="translate(19.63125 223.630853) scale(0.12 -0.12)">
     <defs>
      <path id="TimesNewRomanPS-BoldMT-45" d="M 1744 3994 
L 1744 2269 
L 1828 2269 
Q 2231 2269 2412 2522 
Q 2594 2775 2644 3269 
L 2763 3269 
L 2763 1050 
L 2644 1050 
Q 2606 1413 2486 1644 
Q 2366 1875 2206 1954 
Q 2047 2034 1744 2034 
L 1744 841 
Q 1744 491 1773 412 
Q 1803 334 1884 284 
Q 1966 234 2147 234 
L 2400 234 
Q 2994 234 3351 509 
Q 3709 784 3866 1347 
L 3981 1347 
L 3791 0 
L 128 0 
L 128 116 
L 269 116 
Q 453 116 566 181 
Q 647 225 691 331 
Q 725 406 725 725 
L 725 3513 
Q 725 3800 709 3866 
Q 678 3975 594 4034 
Q 475 4122 269 4122 
L 128 4122 
L 128 4238 
L 3675 4238 
L 3675 2984 
L 3556 2984 
Q 3466 3444 3302 3644 
Q 3138 3844 2838 3938 
Q 2663 3994 2181 3994 
L 1744 3994 
z
" transform="scale(0.015625)"/>
      <path id="TimesNewRomanPS-BoldMT-6e" d="M 1409 2922 
L 1409 2544 
Q 1634 2788 1840 2898 
Q 2047 3009 2284 3009 
Q 2569 3009 2756 2851 
Q 2944 2694 3006 2459 
Q 3056 2281 3056 1775 
L 3056 638 
Q 3056 300 3117 217 
Q 3178 134 3372 113 
L 3372 0 
L 1894 0 
L 1894 113 
Q 2059 134 2131 250 
Q 2181 328 2181 638 
L 2181 1938 
Q 2181 2297 2153 2390 
Q 2125 2484 2058 2536 
Q 1991 2588 1909 2588 
Q 1641 2588 1409 2203 
L 1409 638 
Q 1409 309 1470 221 
Q 1531 134 1697 113 
L 1697 0 
L 219 0 
L 219 113 
Q 403 131 481 231 
Q 534 300 534 638 
L 534 2288 
Q 534 2619 473 2700 
Q 413 2781 219 2806 
L 219 2922 
L 1409 2922 
z
" transform="scale(0.015625)"/>
      <path id="TimesNewRomanPS-BoldMT-64" d="M 3056 4238 
L 3056 875 
Q 3056 534 3075 472 
Q 3100 369 3170 319 
Q 3241 269 3416 256 
L 3416 153 
L 2181 -88 
L 2181 375 
Q 1959 106 1786 9 
Q 1613 -88 1394 -88 
Q 834 -88 509 413 
Q 247 819 247 1409 
Q 247 1881 409 2254 
Q 572 2628 855 2818 
Q 1138 3009 1463 3009 
Q 1672 3009 1834 2928 
Q 1997 2847 2181 2644 
L 2181 3525 
Q 2181 3859 2153 3928 
Q 2116 4019 2041 4062 
Q 1966 4106 1759 4106 
L 1759 4238 
L 3056 4238 
z
M 2181 2256 
Q 1950 2700 1616 2700 
Q 1500 2700 1425 2638 
Q 1309 2541 1236 2297 
Q 1163 2053 1163 1550 
Q 1163 997 1244 731 
Q 1325 466 1466 347 
Q 1538 288 1663 288 
Q 1938 288 2181 719 
L 2181 2256 
z
" transform="scale(0.015625)"/>
      <path id="TimesNewRomanPS-BoldMT-68" d="M 1409 4238 
L 1409 2547 
Q 1650 2800 1850 2904 
Q 2050 3009 2266 3009 
Q 2541 3009 2736 2853 
Q 2931 2697 2995 2486 
Q 3059 2275 3059 1775 
L 3059 634 
Q 3059 300 3121 217 
Q 3184 134 3375 113 
L 3375 0 
L 1894 0 
L 1894 113 
Q 2050 134 2128 238 
Q 2184 319 2184 634 
L 2184 1938 
Q 2184 2300 2156 2392 
Q 2128 2484 2061 2536 
Q 1994 2588 1909 2588 
Q 1784 2588 1665 2502 
Q 1547 2416 1409 2200 
L 1409 634 
Q 1409 322 1456 244 
Q 1516 138 1700 113 
L 1700 0 
L 219 0 
L 219 113 
Q 403 131 481 231 
Q 534 300 534 634 
L 534 3603 
Q 534 3934 473 4015 
Q 413 4097 219 4122 
L 219 4238 
L 1409 4238 
z
" transform="scale(0.015625)"/>
      <path id="TimesNewRomanPS-BoldMT-6c" d="M 1359 4238 
L 1359 606 
Q 1359 297 1431 211 
Q 1503 125 1713 113 
L 1713 0 
L 134 0 
L 134 113 
Q 328 119 422 225 
Q 484 297 484 606 
L 484 3631 
Q 484 3938 412 4023 
Q 341 4109 134 4122 
L 134 4238 
L 1359 4238 
z
" transform="scale(0.015625)"/>
      <path id="TimesNewRomanPS-BoldMT-69" d="M 919 4338 
Q 1122 4338 1262 4195 
Q 1403 4053 1403 3853 
Q 1403 3653 1261 3512 
Q 1119 3372 919 3372 
Q 719 3372 578 3512 
Q 438 3653 438 3853 
Q 438 4053 578 4195 
Q 719 4338 919 4338 
z
M 1356 2922 
L 1356 606 
Q 1356 297 1428 211 
Q 1500 125 1709 113 
L 1709 0 
L 131 0 
L 131 113 
Q 325 119 419 225 
Q 481 297 481 606 
L 481 2313 
Q 481 2622 409 2708 
Q 338 2794 131 2806 
L 131 2922 
L 1356 2922 
z
" transform="scale(0.015625)"/>
      <path id="TimesNewRomanPS-BoldMT-61" d="M 1828 431 
Q 1294 -41 869 -41 
Q 619 -41 453 123 
Q 288 288 288 534 
Q 288 869 575 1136 
Q 863 1403 1828 1847 
L 1828 2141 
Q 1828 2472 1792 2558 
Q 1756 2644 1656 2708 
Q 1556 2772 1431 2772 
Q 1228 2772 1097 2681 
Q 1016 2625 1016 2550 
Q 1016 2484 1103 2388 
Q 1222 2253 1222 2128 
Q 1222 1975 1108 1867 
Q 994 1759 809 1759 
Q 613 1759 480 1878 
Q 347 1997 347 2156 
Q 347 2381 525 2586 
Q 703 2791 1022 2900 
Q 1341 3009 1684 3009 
Q 2100 3009 2342 2832 
Q 2584 2656 2656 2450 
Q 2700 2319 2700 1847 
L 2700 713 
Q 2700 513 2715 461 
Q 2731 409 2762 384 
Q 2794 359 2834 359 
Q 2916 359 3000 475 
L 3094 400 
Q 2938 169 2770 64 
Q 2603 -41 2391 -41 
Q 2141 -41 2000 76 
Q 1859 194 1828 431 
z
M 1828 659 
L 1828 1638 
Q 1450 1416 1266 1163 
Q 1144 994 1144 822 
Q 1144 678 1247 569 
Q 1325 484 1466 484 
Q 1622 484 1828 659 
z
" transform="scale(0.015625)"/>
      <path id="TimesNewRomanPS-BoldMT-20" transform="scale(0.015625)"/>
      <path id="TimesNewRomanPS-BoldMT-43" d="M 4272 4334 
L 4272 2866 
L 4150 2866 
Q 4013 3441 3638 3747 
Q 3263 4053 2788 4053 
Q 2391 4053 2059 3825 
Q 1728 3597 1575 3228 
Q 1378 2756 1378 2178 
Q 1378 1609 1522 1142 
Q 1666 675 1972 436 
Q 2278 197 2766 197 
Q 3166 197 3498 372 
Q 3831 547 4200 975 
L 4200 609 
Q 3844 238 3458 70 
Q 3072 -97 2556 -97 
Q 1878 -97 1351 175 
Q 825 447 539 956 
Q 253 1466 253 2041 
Q 253 2647 570 3190 
Q 888 3734 1427 4034 
Q 1966 4334 2572 4334 
Q 3019 4334 3516 4141 
Q 3803 4028 3881 4028 
Q 3981 4028 4054 4101 
Q 4128 4175 4150 4334 
L 4272 4334 
z
" transform="scale(0.015625)"/>
     </defs>
     <use xlink:href="#TimesNewRomanPS-BoldMT-45"/>
     <use xlink:href="#TimesNewRomanPS-BoldMT-6e" x="66.699219"/>
     <use xlink:href="#TimesNewRomanPS-BoldMT-64" x="122.314453"/>
     <use xlink:href="#TimesNewRomanPS-BoldMT-6f" x="177.929688"/>
     <use xlink:href="#TimesNewRomanPS-BoldMT-74" x="227.929688"/>
     <use xlink:href="#TimesNewRomanPS-BoldMT-68" x="261.230469"/>
     <use xlink:href="#TimesNewRomanPS-BoldMT-65" x="316.845703"/>
     <use xlink:href="#TimesNewRomanPS-BoldMT-6c" x="361.230469"/>
     <use xlink:href="#TimesNewRomanPS-BoldMT-69" x="389.013672"/>
     <use xlink:href="#TimesNewRomanPS-BoldMT-61" x="416.796875"/>
     <use xlink:href="#TimesNewRomanPS-BoldMT-6c" x="466.796875"/>
     <use xlink:href="#TimesNewRomanPS-BoldMT-20" x="494.580078"/>
     <use xlink:href="#TimesNewRomanPS-BoldMT-43" x="519.580078"/>
     <use xlink:href="#TimesNewRomanPS-BoldMT-65" x="591.796875"/>
     <use xlink:href="#TimesNewRomanPS-BoldMT-6c" x="636.181641"/>
     <use xlink:href="#TimesNewRomanPS-BoldMT-6c" x="663.964844"/>
     <use xlink:href="#TimesNewRomanPS-BoldMT-73" x="691.748047"/>
    </g>
   </g>
   <g id="text_3">
    <!-- Excitatory Neurons -->
    <g transform="translate(7.2 183.301307) scale(0.12 -0.12)">
     <defs>
      <path id="TimesNewRomanPS-BoldMT-78" d="M 1944 1791 
L 2450 828 
Q 2713 325 2866 191 
Q 2950 119 3097 113 
L 3097 0 
L 1469 0 
L 1469 113 
Q 1659 128 1704 162 
Q 1750 197 1750 256 
Q 1750 344 1650 531 
L 1397 1006 
L 1181 691 
Q 1034 475 1016 434 
Q 991 375 991 328 
Q 991 256 1020 207 
Q 1050 159 1101 136 
Q 1153 113 1291 113 
L 1291 0 
L 147 0 
L 147 113 
Q 359 113 536 230 
Q 713 347 1050 844 
L 1291 1200 
L 788 2131 
Q 541 2588 419 2691 
Q 297 2794 147 2806 
L 147 2922 
L 1766 2922 
L 1766 2806 
L 1681 2803 
L 1519 2747 
Q 1494 2725 1494 2675 
Q 1494 2628 1509 2578 
Q 1519 2556 1597 2409 
L 1825 1984 
L 1944 2153 
Q 2194 2497 2194 2634 
Q 2194 2700 2139 2745 
Q 2084 2791 1944 2806 
L 1944 2922 
L 2978 2922 
L 2978 2806 
Q 2788 2800 2622 2689 
Q 2456 2578 2250 2259 
L 1944 1791 
z
" transform="scale(0.015625)"/>
      <path id="TimesNewRomanPS-BoldMT-4e" d="M 1594 4238 
L 3684 1609 
L 3684 3431 
Q 3684 3813 3575 3947 
Q 3425 4128 3072 4122 
L 3072 4238 
L 4472 4238 
L 4472 4122 
Q 4203 4088 4111 4033 
Q 4019 3978 3967 3854 
Q 3916 3731 3916 3431 
L 3916 -97 
L 3809 -97 
L 944 3431 
L 944 738 
Q 944 372 1111 244 
Q 1278 116 1494 116 
L 1594 116 
L 1594 0 
L 91 0 
L 91 116 
Q 441 119 578 259 
Q 716 400 716 738 
L 716 3728 
L 625 3841 
Q 491 4009 387 4062 
Q 284 4116 91 4122 
L 91 4238 
L 1594 4238 
z
" transform="scale(0.015625)"/>
      <path id="TimesNewRomanPS-BoldMT-75" d="M 3038 2922 
L 3038 634 
Q 3038 300 3100 217 
Q 3163 134 3353 113 
L 3353 0 
L 2163 0 
L 2163 391 
Q 1953 141 1743 26 
Q 1534 -88 1275 -88 
Q 1028 -88 836 64 
Q 644 216 578 419 
Q 513 622 513 1128 
L 513 2288 
Q 513 2619 452 2700 
Q 391 2781 197 2806 
L 197 2922 
L 1388 2922 
L 1388 925 
Q 1388 613 1417 522 
Q 1447 431 1511 384 
Q 1575 338 1659 338 
Q 1772 338 1863 397 
Q 1988 478 2163 725 
L 2163 2288 
Q 2163 2619 2102 2700 
Q 2041 2781 1847 2806 
L 1847 2922 
L 3038 2922 
z
" transform="scale(0.015625)"/>
     </defs>
     <use xlink:href="#TimesNewRomanPS-BoldMT-45"/>
     <use xlink:href="#TimesNewRomanPS-BoldMT-78" x="66.699219"/>
     <use xlink:href="#TimesNewRomanPS-BoldMT-63" x="116.699219"/>
     <use xlink:href="#TimesNewRomanPS-BoldMT-69" x="161.083984"/>
     <use xlink:href="#TimesNewRomanPS-BoldMT-74" x="188.867188"/>
     <use xlink:href="#TimesNewRomanPS-BoldMT-61" x="222.167969"/>
     <use xlink:href="#TimesNewRomanPS-BoldMT-74" x="272.167969"/>
     <use xlink:href="#TimesNewRomanPS-BoldMT-6f" x="305.46875"/>
     <use xlink:href="#TimesNewRomanPS-BoldMT-72" x="355.46875"/>
     <use xlink:href="#TimesNewRomanPS-BoldMT-79" x="399.853516"/>
     <use xlink:href="#TimesNewRomanPS-BoldMT-20" x="449.853516"/>
     <use xlink:href="#TimesNewRomanPS-BoldMT-4e" x="474.853516"/>
     <use xlink:href="#TimesNewRomanPS-BoldMT-65" x="547.070312"/>
     <use xlink:href="#TimesNewRomanPS-BoldMT-75" x="591.455078"/>
     <use xlink:href="#TimesNewRomanPS-BoldMT-72" x="647.070312"/>
     <use xlink:href="#TimesNewRomanPS-BoldMT-6f" x="689.705078"/>
     <use xlink:href="#TimesNewRomanPS-BoldMT-6e" x="739.705078"/>
     <use xlink:href="#TimesNewRomanPS-BoldMT-73" x="795.320312"/>
    </g>
   </g>
   <g id="text_4">
    <!-- Inhibitory Neurons -->
    <g transform="translate(8.503125 117.196517) scale(0.12 -0.12)">
     <defs>
      <path id="TimesNewRomanPS-BoldMT-49" d="M 2344 116 
L 2344 0 
L 128 0 
L 128 116 
L 269 116 
Q 453 116 566 181 
Q 647 225 691 331 
Q 725 406 725 725 
L 725 3513 
Q 725 3838 690 3919 
Q 656 4000 551 4061 
Q 447 4122 269 4122 
L 128 4122 
L 128 4238 
L 2344 4238 
L 2344 4122 
L 2203 4122 
Q 2019 4122 1906 4056 
Q 1825 4013 1778 3906 
Q 1744 3831 1744 3513 
L 1744 725 
Q 1744 400 1780 319 
Q 1816 238 1920 177 
Q 2025 116 2203 116 
L 2344 116 
z
" transform="scale(0.015625)"/>
      <path id="TimesNewRomanPS-BoldMT-62" d="M 1347 4238 
L 1347 2628 
Q 1716 3009 2153 3009 
Q 2453 3009 2718 2832 
Q 2984 2656 3134 2331 
Q 3284 2006 3284 1581 
Q 3284 1103 3093 712 
Q 2903 322 2584 117 
Q 2266 -88 1856 -88 
Q 1619 -88 1434 -12 
Q 1250 63 1072 231 
L 588 -84 
L 481 -84 
L 481 3631 
Q 481 3884 459 3944 
Q 428 4031 361 4073 
Q 294 4116 134 4122 
L 134 4238 
L 1347 4238 
z
M 1347 2350 
L 1347 1050 
Q 1347 653 1366 544 
Q 1397 359 1515 245 
Q 1634 131 1819 131 
Q 1978 131 2092 222 
Q 2206 313 2282 581 
Q 2359 850 2359 1550 
Q 2359 2222 2191 2472 
Q 2069 2653 1863 2653 
Q 1594 2653 1347 2350 
z
" transform="scale(0.015625)"/>
     </defs>
     <use xlink:href="#TimesNewRomanPS-BoldMT-49"/>
     <use xlink:href="#TimesNewRomanPS-BoldMT-6e" x="38.916016"/>
     <use xlink:href="#TimesNewRomanPS-BoldMT-68" x="94.53125"/>
     <use xlink:href="#TimesNewRomanPS-BoldMT-69" x="150.146484"/>
     <use xlink:href="#TimesNewRomanPS-BoldMT-62" x="177.929688"/>
     <use xlink:href="#TimesNewRomanPS-BoldMT-69" x="233.544922"/>
     <use xlink:href="#TimesNewRomanPS-BoldMT-74" x="261.328125"/>
     <use xlink:href="#TimesNewRomanPS-BoldMT-6f" x="294.628906"/>
     <use xlink:href="#TimesNewRomanPS-BoldMT-72" x="344.628906"/>
     <use xlink:href="#TimesNewRomanPS-BoldMT-79" x="389.013672"/>
     <use xlink:href="#TimesNewRomanPS-BoldMT-20" x="439.013672"/>
     <use xlink:href="#TimesNewRomanPS-BoldMT-4e" x="464.013672"/>
     <use xlink:href="#TimesNewRomanPS-BoldMT-65" x="536.230469"/>
     <use xlink:href="#TimesNewRomanPS-BoldMT-75" x="580.615234"/>
     <use xlink:href="#TimesNewRomanPS-BoldMT-72" x="636.230469"/>
     <use xlink:href="#TimesNewRomanPS-BoldMT-6f" x="678.865234"/>
     <use xlink:href="#TimesNewRomanPS-BoldMT-6e" x="728.865234"/>
     <use xlink:href="#TimesNewRomanPS-BoldMT-73" x="784.480469"/>
    </g>
   </g>
   <g id="text_5">
    <!-- Microglia -->
    <g transform="translate(57.538125 74.966427) scale(0.12 -0.12)">
     <defs>
      <path id="TimesNewRomanPS-BoldMT-4d" d="M 3050 1444 
L 4200 4238 
L 5925 4238 
L 5925 4122 
L 5788 4122 
Q 5600 4122 5488 4056 
Q 5409 4013 5363 3909 
Q 5328 3834 5328 3519 
L 5328 725 
Q 5328 400 5362 319 
Q 5397 238 5503 177 
Q 5609 116 5788 116 
L 5925 116 
L 5925 0 
L 3713 0 
L 3713 116 
L 3850 116 
Q 4038 116 4150 181 
Q 4228 225 4275 331 
Q 4309 406 4309 725 
L 4309 3866 
L 2684 0 
L 2609 0 
L 959 3838 
L 959 853 
Q 959 541 975 469 
Q 1016 313 1152 214 
Q 1288 116 1578 116 
L 1578 0 
L 128 0 
L 128 116 
L 172 116 
Q 313 113 434 161 
Q 556 209 618 290 
Q 681 372 716 519 
Q 722 553 722 838 
L 722 3519 
Q 722 3841 687 3920 
Q 653 4000 547 4061 
Q 441 4122 263 4122 
L 128 4122 
L 128 4238 
L 1859 4238 
L 3050 1444 
z
" transform="scale(0.015625)"/>
      <path id="TimesNewRomanPS-BoldMT-67" d="M 2091 2888 
L 3075 2888 
L 3075 2544 
L 2516 2544 
Q 2669 2391 2728 2266 
Q 2803 2097 2803 1913 
Q 2803 1600 2629 1370 
Q 2456 1141 2157 1011 
Q 1859 881 1628 881 
Q 1609 881 1253 897 
Q 1113 897 1017 805 
Q 922 713 922 584 
Q 922 472 1008 400 
Q 1094 328 1288 328 
L 1828 334 
Q 2484 334 2731 191 
Q 3084 -9 3084 -425 
Q 3084 -691 2921 -908 
Q 2759 -1125 2494 -1228 
Q 2091 -1381 1566 -1381 
Q 1172 -1381 847 -1304 
Q 522 -1228 381 -1092 
Q 241 -956 241 -806 
Q 241 -663 348 -548 
Q 456 -434 750 -356 
Q 344 -156 344 200 
Q 344 416 509 619 
Q 675 822 1034 972 
Q 616 1125 428 1375 
Q 241 1625 241 1953 
Q 241 2381 591 2695 
Q 941 3009 1491 3009 
Q 1781 3009 2091 2888 
z
M 1550 2816 
Q 1369 2816 1244 2633 
Q 1119 2450 1119 1875 
Q 1119 1409 1242 1236 
Q 1366 1063 1534 1063 
Q 1722 1063 1847 1234 
Q 1972 1406 1972 1903 
Q 1972 2463 1831 2666 
Q 1731 2816 1550 2816 
z
M 1366 -431 
Q 1047 -431 944 -484 
Q 766 -581 766 -747 
Q 766 -906 950 -1036 
Q 1134 -1166 1644 -1166 
Q 2078 -1166 2326 -1050 
Q 2575 -934 2575 -725 
Q 2575 -647 2528 -594 
Q 2444 -500 2273 -465 
Q 2103 -431 1366 -431 
z
" transform="scale(0.015625)"/>
     </defs>
     <use xlink:href="#TimesNewRomanPS-BoldMT-4d"/>
     <use xlink:href="#TimesNewRomanPS-BoldMT-69" x="94.384766"/>
     <use xlink:href="#TimesNewRomanPS-BoldMT-63" x="122.167969"/>
     <use xlink:href="#TimesNewRomanPS-BoldMT-72" x="166.552734"/>
     <use xlink:href="#TimesNewRomanPS-BoldMT-6f" x="209.1875"/>
     <use xlink:href="#TimesNewRomanPS-BoldMT-67" x="259.1875"/>
     <use xlink:href="#TimesNewRomanPS-BoldMT-6c" x="309.1875"/>
     <use xlink:href="#TimesNewRomanPS-BoldMT-69" x="336.970703"/>
     <use xlink:href="#TimesNewRomanPS-BoldMT-61" x="364.753906"/>
    </g>
   </g>
   <g id="text_6">
    <!-- Oligodendrocytes -->
    <g transform="translate(17.525625 41.792257) scale(0.12 -0.12)">
     <defs>
      <path id="TimesNewRomanPS-BoldMT-4f" d="M 2472 4297 
Q 3484 4334 4117 3706 
Q 4750 3078 4750 2134 
Q 4750 1328 4278 716 
Q 3653 -97 2513 -97 
Q 1369 -97 744 678 
Q 250 1291 250 2131 
Q 250 3075 892 3704 
Q 1534 4334 2472 4297 
z
M 2509 4097 
Q 1928 4097 1625 3503 
Q 1378 3016 1378 2103 
Q 1378 1019 1759 500 
Q 2025 138 2503 138 
Q 2825 138 3041 294 
Q 3316 494 3469 933 
Q 3622 1372 3622 2078 
Q 3622 2919 3465 3336 
Q 3309 3753 3067 3925 
Q 2825 4097 2509 4097 
z
" transform="scale(0.015625)"/>
     </defs>
     <use xlink:href="#TimesNewRomanPS-BoldMT-4f"/>
     <use xlink:href="#TimesNewRomanPS-BoldMT-6c" x="77.783203"/>
     <use xlink:href="#TimesNewRomanPS-BoldMT-69" x="105.566406"/>
     <use xlink:href="#TimesNewRomanPS-BoldMT-67" x="133.349609"/>
     <use xlink:href="#TimesNewRomanPS-BoldMT-6f" x="183.349609"/>
     <use xlink:href="#TimesNewRomanPS-BoldMT-64" x="233.349609"/>
     <use xlink:href="#TimesNewRomanPS-BoldMT-65" x="288.964844"/>
     <use xlink:href="#TimesNewRomanPS-BoldMT-6e" x="333.349609"/>
     <use xlink:href="#TimesNewRomanPS-BoldMT-64" x="388.964844"/>
     <use xlink:href="#TimesNewRomanPS-BoldMT-72" x="444.580078"/>
     <use xlink:href="#TimesNewRomanPS-BoldMT-6f" x="487.214844"/>
     <use xlink:href="#TimesNewRomanPS-BoldMT-63" x="537.214844"/>
     <use xlink:href="#TimesNewRomanPS-BoldMT-79" x="581.599609"/>
     <use xlink:href="#TimesNewRomanPS-BoldMT-74" x="631.599609"/>
     <use xlink:href="#TimesNewRomanPS-BoldMT-65" x="664.900391"/>
     <use xlink:href="#TimesNewRomanPS-BoldMT-73" x="709.285156"/>
    </g>
   </g>
   <g id="text_7">
    <!-- Astrocytes -->
    <g transform="translate(450.694615 249.534551) scale(0.12 -0.12)">
     <use xlink:href="#TimesNewRomanPS-BoldMT-41"/>
     <use xlink:href="#TimesNewRomanPS-BoldMT-73" x="72.216797"/>
     <use xlink:href="#TimesNewRomanPS-BoldMT-74" x="111.132812"/>
     <use xlink:href="#TimesNewRomanPS-BoldMT-72" x="144.433594"/>
     <use xlink:href="#TimesNewRomanPS-BoldMT-6f" x="187.068359"/>
     <use xlink:href="#TimesNewRomanPS-BoldMT-63" x="237.068359"/>
     <use xlink:href="#TimesNewRomanPS-BoldMT-79" x="281.453125"/>
     <use xlink:href="#TimesNewRomanPS-BoldMT-74" x="331.453125"/>
     <use xlink:href="#TimesNewRomanPS-BoldMT-65" x="364.753906"/>
     <use xlink:href="#TimesNewRomanPS-BoldMT-73" x="409.138672"/>
    </g>
   </g>
   <g id="text_8">
    <!-- Endothelial Cells -->
    <g transform="translate(450.694615 222.258744) scale(0.12 -0.12)">
     <use xlink:href="#TimesNewRomanPS-BoldMT-45"/>
     <use xlink:href="#TimesNewRomanPS-BoldMT-6e" x="66.699219"/>
     <use xlink:href="#TimesNewRomanPS-BoldMT-64" x="122.314453"/>
     <use xlink:href="#TimesNewRomanPS-BoldMT-6f" x="177.929688"/>
     <use xlink:href="#TimesNewRomanPS-BoldMT-74" x="227.929688"/>
     <use xlink:href="#TimesNewRomanPS-BoldMT-68" x="261.230469"/>
     <use xlink:href="#TimesNewRomanPS-BoldMT-65" x="316.845703"/>
     <use xlink:href="#TimesNewRomanPS-BoldMT-6c" x="361.230469"/>
     <use xlink:href="#TimesNewRomanPS-BoldMT-69" x="389.013672"/>
     <use xlink:href="#TimesNewRomanPS-BoldMT-61" x="416.796875"/>
     <use xlink:href="#TimesNewRomanPS-BoldMT-6c" x="466.796875"/>
     <use xlink:href="#TimesNewRomanPS-BoldMT-20" x="494.580078"/>
     <use xlink:href="#TimesNewRomanPS-BoldMT-43" x="519.580078"/>
     <use xlink:href="#TimesNewRomanPS-BoldMT-65" x="591.796875"/>
     <use xlink:href="#TimesNewRomanPS-BoldMT-6c" x="636.181641"/>
     <use xlink:href="#TimesNewRomanPS-BoldMT-6c" x="663.964844"/>
     <use xlink:href="#TimesNewRomanPS-BoldMT-73" x="691.748047"/>
    </g>
   </g>
   <g id="text_9">
    <!-- Excitatory Neurons -->
    <g transform="translate(450.694615 183.061188) scale(0.12 -0.12)">
     <use xlink:href="#TimesNewRomanPS-BoldMT-45"/>
     <use xlink:href="#TimesNewRomanPS-BoldMT-78" x="66.699219"/>
     <use xlink:href="#TimesNewRomanPS-BoldMT-63" x="116.699219"/>
     <use xlink:href="#TimesNewRomanPS-BoldMT-69" x="161.083984"/>
     <use xlink:href="#TimesNewRomanPS-BoldMT-74" x="188.867188"/>
     <use xlink:href="#TimesNewRomanPS-BoldMT-61" x="222.167969"/>
     <use xlink:href="#TimesNewRomanPS-BoldMT-74" x="272.167969"/>
     <use xlink:href="#TimesNewRomanPS-BoldMT-6f" x="305.46875"/>
     <use xlink:href="#TimesNewRomanPS-BoldMT-72" x="355.46875"/>
     <use xlink:href="#TimesNewRomanPS-BoldMT-79" x="399.853516"/>
     <use xlink:href="#TimesNewRomanPS-BoldMT-20" x="449.853516"/>
     <use xlink:href="#TimesNewRomanPS-BoldMT-4e" x="474.853516"/>
     <use xlink:href="#TimesNewRomanPS-BoldMT-65" x="547.070312"/>
     <use xlink:href="#TimesNewRomanPS-BoldMT-75" x="591.455078"/>
     <use xlink:href="#TimesNewRomanPS-BoldMT-72" x="647.070312"/>
     <use xlink:href="#TimesNewRomanPS-BoldMT-6f" x="689.705078"/>
     <use xlink:href="#TimesNewRomanPS-BoldMT-6e" x="739.705078"/>
     <use xlink:href="#TimesNewRomanPS-BoldMT-73" x="795.320312"/>
    </g>
   </g>
   <g id="text_10">
    <!-- Inhibitory Neurons -->
    <g transform="translate(450.694615 113.766244) scale(0.12 -0.12)">
     <use xlink:href="#TimesNewRomanPS-BoldMT-49"/>
     <use xlink:href="#TimesNewRomanPS-BoldMT-6e" x="38.916016"/>
     <use xlink:href="#TimesNewRomanPS-BoldMT-68" x="94.53125"/>
     <use xlink:href="#TimesNewRomanPS-BoldMT-69" x="150.146484"/>
     <use xlink:href="#TimesNewRomanPS-BoldMT-62" x="177.929688"/>
     <use xlink:href="#TimesNewRomanPS-BoldMT-69" x="233.544922"/>
     <use xlink:href="#TimesNewRomanPS-BoldMT-74" x="261.328125"/>
     <use xlink:href="#TimesNewRomanPS-BoldMT-6f" x="294.628906"/>
     <use xlink:href="#TimesNewRomanPS-BoldMT-72" x="344.628906"/>
     <use xlink:href="#TimesNewRomanPS-BoldMT-79" x="389.013672"/>
     <use xlink:href="#TimesNewRomanPS-BoldMT-20" x="439.013672"/>
     <use xlink:href="#TimesNewRomanPS-BoldMT-4e" x="464.013672"/>
     <use xlink:href="#TimesNewRomanPS-BoldMT-65" x="536.230469"/>
     <use xlink:href="#TimesNewRomanPS-BoldMT-75" x="580.615234"/>
     <use xlink:href="#TimesNewRomanPS-BoldMT-72" x="636.230469"/>
     <use xlink:href="#TimesNewRomanPS-BoldMT-6f" x="678.865234"/>
     <use xlink:href="#TimesNewRomanPS-BoldMT-6e" x="728.865234"/>
     <use xlink:href="#TimesNewRomanPS-BoldMT-73" x="784.480469"/>
    </g>
   </g>
   <g id="text_11">
    <!-- Microglia -->
    <g transform="translate(450.694615 51.366149) scale(0.12 -0.12)">
     <use xlink:href="#TimesNewRomanPS-BoldMT-4d"/>
     <use xlink:href="#TimesNewRomanPS-BoldMT-69" x="94.384766"/>
     <use xlink:href="#TimesNewRomanPS-BoldMT-63" x="122.167969"/>
     <use xlink:href="#TimesNewRomanPS-BoldMT-72" x="166.552734"/>
     <use xlink:href="#TimesNewRomanPS-BoldMT-6f" x="209.1875"/>
     <use xlink:href="#TimesNewRomanPS-BoldMT-67" x="259.1875"/>
     <use xlink:href="#TimesNewRomanPS-BoldMT-6c" x="309.1875"/>
     <use xlink:href="#TimesNewRomanPS-BoldMT-69" x="336.970703"/>
     <use xlink:href="#TimesNewRomanPS-BoldMT-61" x="364.753906"/>
    </g>
   </g>
  </g>
 </g>
 <defs>
  <clipPath id="p4f7660f543">
   <rect x="100.442308" y="7.2" width="357.12" height="266.112"/>
  </clipPath>
 </defs>
</svg>
