<?xml version="1.0" encoding="utf-8" standalone="no"?>
<!DOCTYPE svg PUBLIC "-//W3C//DTD SVG 1.1//EN"
  "http://www.w3.org/Graphics/SVG/1.1/DTD/svg11.dtd">
<svg xmlns:xlink="http://www.w3.org/1999/xlink" width="558.004615pt" height="280.512pt" viewBox="0 0 558.004615 280.512" xmlns="http://www.w3.org/2000/svg" version="1.1">
 <metadata>
  <rdf:RDF xmlns:dc="http://purl.org/dc/elements/1.1/" xmlns:cc="http://creativecommons.org/ns#" xmlns:rdf="http://www.w3.org/1999/02/22-rdf-syntax-ns#">
   <cc:Work>
    <dc:type rdf:resource="http://purl.org/dc/dcmitype/StillImage"/>
    <dc:date>2025-03-16T19:45:19.370631</dc:date>
    <dc:format>image/svg+xml</dc:format>
    <dc:creator>
     <cc:Agent>
      <dc:title>Matplotlib v3.9.3, https://matplotlib.org/</dc:title>
     </cc:Agent>
    </dc:creator>
   </cc:Work>
  </rdf:RDF>
 </metadata>
 <defs>
  <style type="text/css">*{stroke-linejoin: round; stroke-linecap: butt}</style>
 </defs>
 <g id="figure_1">
  <g id="patch_1">
   <path d="M 0 280.512 
L 558.004615 280.512 
L 558.004615 0 
L 0 0 
z
" style="fill: #ffffff"/>
  </g>
  <g id="axes_1">
   <g id="PolyCollection_1">
    <defs>
     <path id="mb33c3c0236" d="M 116.675035 -57.628685 
L 116.675035 -19.296 
L 122.918392 -19.296 
L 122.918392 -57.628685 
L 122.918392 -57.628685 
L 116.675035 -57.628685 
z
" style="stroke: #57db5f; stroke-opacity: 0.99"/>
    </defs>
    <g clip-path="url(#pa19346fddb)">
     <use xlink:href="#mb33c3c0236" x="0" y="280.512" style="fill: #57db5f; fill-opacity: 0.99; stroke: #57db5f; stroke-opacity: 0.99"/>
    </g>
   </g>
   <g id="PolyCollection_2">
    <defs>
     <path id="m54b3154b42" d="M 116.675035 -77.108959 
L 116.675035 -67.305485 
L 122.918392 -67.305485 
L 122.918392 -77.108959 
L 122.918392 -77.108959 
L 116.675035 -77.108959 
z
" style="stroke: #5f57db; stroke-opacity: 0.99"/>
    </defs>
    <g clip-path="url(#pa19346fddb)">
     <use xlink:href="#m54b3154b42" x="0" y="280.512" style="fill: #5f57db; fill-opacity: 0.99; stroke: #5f57db; stroke-opacity: 0.99"/>
    </g>
   </g>
   <g id="PolyCollection_3">
    <defs>
     <path id="me93c4faa81" d="M 116.675035 -139.548277 
L 116.675035 -86.785759 
L 122.918392 -86.785759 
L 122.918392 -139.548277 
L 122.918392 -139.548277 
L 116.675035 -139.548277 
z
" style="stroke: #db57d3; stroke-opacity: 0.99"/>
    </defs>
    <g clip-path="url(#pa19346fddb)">
     <use xlink:href="#me93c4faa81" x="0" y="280.512" style="fill: #db57d3; fill-opacity: 0.99; stroke: #db57d3; stroke-opacity: 0.99"/>
    </g>
   </g>
   <g id="PolyCollection_4">
    <defs>
     <path id="m7307fb31e3" d="M 116.675035 -189.540488 
L 116.675035 -149.225077 
L 122.918392 -149.225077 
L 122.918392 -189.540488 
L 122.918392 -189.540488 
L 116.675035 -189.540488 
z
" style="stroke: #db5f57; stroke-opacity: 0.99"/>
    </defs>
    <g clip-path="url(#pa19346fddb)">
     <use xlink:href="#m7307fb31e3" x="0" y="280.512" style="fill: #db5f57; fill-opacity: 0.99; stroke: #db5f57; stroke-opacity: 0.99"/>
    </g>
   </g>
   <g id="PolyCollection_5">
    <defs>
     <path id="mdc25628225" d="M 116.675035 -208.139551 
L 116.675035 -199.217288 
L 122.918392 -199.217288 
L 122.918392 -208.139551 
L 122.918392 -208.139551 
L 116.675035 -208.139551 
z
" style="stroke: #d3db57; stroke-opacity: 0.99"/>
    </defs>
    <g clip-path="url(#pa19346fddb)">
     <use xlink:href="#mdc25628225" x="0" y="280.512" style="fill: #d3db57; fill-opacity: 0.99; stroke: #d3db57; stroke-opacity: 0.99"/>
    </g>
   </g>
   <g id="PolyCollection_6">
    <defs>
     <path id="m34650b5b37" d="M 116.675035 -261.216 
L 116.675035 -217.816351 
L 122.918392 -217.816351 
L 122.918392 -261.216 
L 122.918392 -261.216 
L 116.675035 -261.216 
z
" style="stroke: #57d3db; stroke-opacity: 0.99"/>
    </defs>
    <g clip-path="url(#pa19346fddb)">
     <use xlink:href="#m34650b5b37" x="0" y="280.512" style="fill: #57d3db; fill-opacity: 0.99; stroke: #57d3db; stroke-opacity: 0.99"/>
    </g>
   </g>
   <g id="PolyCollection_7">
    <defs>
     <path id="ma7555f9d5c" d="M 435.086224 -54.544446 
L 435.086224 -19.296 
L 441.32958 -19.296 
L 441.32958 -54.544446 
L 441.32958 -54.544446 
L 435.086224 -54.544446 
z
" style="stroke: #57db5f; stroke-opacity: 0.99"/>
    </defs>
    <g clip-path="url(#pa19346fddb)">
     <use xlink:href="#ma7555f9d5c" x="0" y="280.512" style="fill: #57db5f; fill-opacity: 0.99; stroke: #57db5f; stroke-opacity: 0.99"/>
    </g>
   </g>
   <g id="PolyCollection_8">
    <defs>
     <path id="m246ca95a93" d="M 435.086224 -74.02472 
L 435.086224 -64.221246 
L 441.32958 -64.221246 
L 441.32958 -74.02472 
L 441.32958 -74.02472 
L 435.086224 -74.02472 
z
" style="stroke: #5f57db; stroke-opacity: 0.99"/>
    </defs>
    <g clip-path="url(#pa19346fddb)">
     <use xlink:href="#m246ca95a93" x="0" y="280.512" style="fill: #5f57db; fill-opacity: 0.99; stroke: #5f57db; stroke-opacity: 0.99"/>
    </g>
   </g>
   <g id="PolyCollection_9">
    <defs>
     <path id="mef1c4a3620" d="M 435.086224 -136.904644 
L 435.086224 -83.70152 
L 441.32958 -83.70152 
L 441.32958 -136.904644 
L 441.32958 -136.904644 
L 435.086224 -136.904644 
z
" style="stroke: #db57d3; stroke-opacity: 0.99"/>
    </defs>
    <g clip-path="url(#pa19346fddb)">
     <use xlink:href="#mef1c4a3620" x="0" y="280.512" style="fill: #db57d3; fill-opacity: 0.99; stroke: #db57d3; stroke-opacity: 0.99"/>
    </g>
   </g>
   <g id="PolyCollection_10">
    <defs>
     <path id="me7fade8ac0" d="M 435.086224 -195.929269 
L 435.086224 -146.581444 
L 441.32958 -146.581444 
L 441.32958 -195.929269 
L 441.32958 -195.929269 
L 435.086224 -195.929269 
z
" style="stroke: #db5f57; stroke-opacity: 0.99"/>
    </defs>
    <g clip-path="url(#pa19346fddb)">
     <use xlink:href="#me7fade8ac0" x="0" y="280.512" style="fill: #db5f57; fill-opacity: 0.99; stroke: #db5f57; stroke-opacity: 0.99"/>
    </g>
   </g>
   <g id="PolyCollection_11">
    <defs>
     <path id="mce9053f6cf" d="M 435.086224 -248.454961 
L 435.086224 -205.606069 
L 441.32958 -205.606069 
L 441.32958 -248.454961 
L 441.32958 -248.454961 
L 435.086224 -248.454961 
z
" style="stroke: #d3db57; stroke-opacity: 0.99"/>
    </defs>
    <g clip-path="url(#pa19346fddb)">
     <use xlink:href="#mce9053f6cf" x="0" y="280.512" style="fill: #d3db57; fill-opacity: 0.99; stroke: #d3db57; stroke-opacity: 0.99"/>
    </g>
   </g>
   <g id="PolyCollection_12">
    <defs>
     <path id="m2f081d005e" d="M 435.086224 -261.216 
L 435.086224 -258.131761 
L 441.32958 -258.131761 
L 441.32958 -261.216 
L 441.32958 -261.216 
L 435.086224 -261.216 
z
" style="stroke: #57d3db; stroke-opacity: 0.99"/>
    </defs>
    <g clip-path="url(#pa19346fddb)">
     <use xlink:href="#m2f081d005e" x="0" y="280.512" style="fill: #57d3db; fill-opacity: 0.99; stroke: #57d3db; stroke-opacity: 0.99"/>
    </g>
   </g>
   <g id="PolyCollection_13">
    <defs>
     <path id="mdceeac1bfe" d="M 122.918392 -54.434295 
L 122.918392 -19.296 
L 128.035897 -19.296 
L 133.153402 -19.296 
L 138.270908 -19.296 
L 143.388413 -19.296 
L 148.505919 -19.296 
L 153.623424 -19.296 
L 158.74093 -19.296 
L 163.858435 -19.296 
L 168.975941 -19.296 
L 174.093446 -19.296 
L 179.210952 -19.296 
L 184.328457 -19.296 
L 189.445962 -19.296 
L 194.563468 -19.296 
L 199.680973 -19.296 
L 204.798479 -19.296 
L 209.915984 -19.296 
L 215.03349 -19.296 
L 220.150995 -19.296 
L 225.268501 -19.296 
L 230.386006 -19.296 
L 235.503511 -19.296 
L 240.621017 -19.296 
L 245.738522 -19.296 
L 250.856028 -19.296 
L 255.973533 -19.296 
L 261.091039 -19.296 
L 266.208544 -19.296 
L 271.32605 -19.296 
L 276.443555 -19.296 
L 281.56106 -19.296 
L 286.678566 -19.296 
L 291.796071 -19.296 
L 296.913577 -19.296 
L 302.031082 -19.296 
L 307.148588 -19.296 
L 312.266093 -19.296 
L 317.383599 -19.296 
L 322.501104 -19.296 
L 327.618609 -19.296 
L 332.736115 -19.296 
L 337.85362 -19.296 
L 342.971126 -19.296 
L 348.088631 -19.296 
L 353.206137 -19.296 
L 358.323642 -19.296 
L 363.441148 -19.296 
L 368.558653 -19.296 
L 373.676158 -19.296 
L 378.793664 -19.296 
L 383.911169 -19.296 
L 389.028675 -19.296 
L 394.14618 -19.296 
L 399.263686 -19.296 
L 404.381191 -19.296 
L 409.498697 -19.296 
L 414.616202 -19.296 
L 419.733707 -19.296 
L 424.851213 -19.296 
L 429.968718 -19.296 
L 435.086224 -19.296 
L 435.086224 -54.434295 
L 435.086224 -54.434295 
L 429.968718 -54.434295 
L 424.851213 -54.434295 
L 419.733707 -54.434295 
L 414.616202 -54.434295 
L 409.498697 -54.434295 
L 404.381191 -54.434295 
L 399.263686 -54.434295 
L 394.14618 -54.434295 
L 389.028675 -54.434295 
L 383.911169 -54.434295 
L 378.793664 -54.434295 
L 373.676158 -54.434295 
L 368.558653 -54.434295 
L 363.441148 -54.434295 
L 358.323642 -54.434295 
L 353.206137 -54.434295 
L 348.088631 -54.434295 
L 342.971126 -54.434295 
L 337.85362 -54.434295 
L 332.736115 -54.434295 
L 327.618609 -54.434295 
L 322.501104 -54.434295 
L 317.383599 -54.434295 
L 312.266093 -54.434295 
L 307.148588 -54.434295 
L 302.031082 -54.434295 
L 296.913577 -54.434295 
L 291.796071 -54.434295 
L 286.678566 -54.434295 
L 281.56106 -54.434295 
L 276.443555 -54.434295 
L 271.32605 -54.434295 
L 266.208544 -54.434295 
L 261.091039 -54.434295 
L 255.973533 -54.434295 
L 250.856028 -54.434295 
L 245.738522 -54.434295 
L 240.621017 -54.434295 
L 235.503511 -54.434295 
L 230.386006 -54.434295 
L 225.268501 -54.434295 
L 220.150995 -54.434295 
L 215.03349 -54.434295 
L 209.915984 -54.434295 
L 204.798479 -54.434295 
L 199.680973 -54.434295 
L 194.563468 -54.434295 
L 189.445962 -54.434295 
L 184.328457 -54.434295 
L 179.210952 -54.434295 
L 174.093446 -54.434295 
L 168.975941 -54.434295 
L 163.858435 -54.434295 
L 158.74093 -54.434295 
L 153.623424 -54.434295 
L 148.505919 -54.434295 
L 143.388413 -54.434295 
L 138.270908 -54.434295 
L 133.153402 -54.434295 
L 128.035897 -54.434295 
L 122.918392 -54.434295 
z
" style="stroke: #57db5f; stroke-opacity: 0.65"/>
    </defs>
    <g clip-path="url(#pa19346fddb)">
     <use xlink:href="#mdceeac1bfe" x="0" y="280.512" style="fill: #57db5f; fill-opacity: 0.65; stroke: #57db5f; stroke-opacity: 0.65"/>
    </g>
   </g>
   <g id="PolyCollection_14">
    <defs>
     <path id="md749ea53fe" d="M 122.918392 -54.544446 
L 122.918392 -54.434295 
L 128.035897 -54.434295 
L 133.153402 -54.434295 
L 138.270908 -54.434295 
L 143.388413 -54.434295 
L 148.505919 -54.434295 
L 153.623424 -54.434295 
L 158.74093 -54.434295 
L 163.858435 -54.434295 
L 168.975941 -54.434295 
L 174.093446 -54.434295 
L 179.210952 -54.434295 
L 184.328457 -54.458762 
L 189.445962 -54.507697 
L 194.563468 -54.581099 
L 199.680973 -54.678969 
L 204.798479 -54.801305 
L 209.915984 -54.94811 
L 215.03349 -55.119381 
L 220.150995 -55.31512 
L 225.268501 -55.535327 
L 230.386006 -55.780001 
L 235.503511 -56.049142 
L 240.621017 -56.34275 
L 245.738522 -56.660826 
L 250.856028 -57.00337 
L 255.973533 -57.37038 
L 261.091039 -57.761858 
L 266.208544 -58.177804 
L 271.32605 -58.618217 
L 276.443555 -59.083097 
L 281.56106 -59.572444 
L 286.678566 -60.037324 
L 291.796071 -60.477737 
L 296.913577 -60.893683 
L 302.031082 -61.285161 
L 307.148588 -61.652171 
L 312.266093 -61.994715 
L 317.383599 -62.312791 
L 322.501104 -62.606399 
L 327.618609 -62.87554 
L 332.736115 -63.120214 
L 337.85362 -63.340421 
L 342.971126 -63.53616 
L 348.088631 -63.707431 
L 353.206137 -63.854236 
L 358.323642 -63.976572 
L 363.441148 -64.074442 
L 368.558653 -64.147844 
L 373.676158 -64.196779 
L 378.793664 -64.221246 
L 383.911169 -64.221246 
L 389.028675 -64.221246 
L 394.14618 -64.221246 
L 399.263686 -64.221246 
L 404.381191 -64.221246 
L 409.498697 -64.221246 
L 414.616202 -64.221246 
L 419.733707 -64.221246 
L 424.851213 -64.221246 
L 429.968718 -64.221246 
L 435.086224 -64.221246 
L 435.086224 -64.331398 
L 435.086224 -64.331398 
L 429.968718 -64.331398 
L 424.851213 -64.331398 
L 419.733707 -64.331398 
L 414.616202 -64.331398 
L 409.498697 -64.331398 
L 404.381191 -64.331398 
L 399.263686 -64.331398 
L 394.14618 -64.331398 
L 389.028675 -64.331398 
L 383.911169 -64.331398 
L 378.793664 -64.331398 
L 373.676158 -64.30693 
L 368.558653 -64.257995 
L 363.441148 -64.184593 
L 358.323642 -64.086724 
L 353.206137 -63.964387 
L 348.088631 -63.817583 
L 342.971126 -63.646311 
L 337.85362 -63.450572 
L 332.736115 -63.230366 
L 327.618609 -62.985692 
L 322.501104 -62.716551 
L 317.383599 -62.422942 
L 312.266093 -62.104866 
L 307.148588 -61.762323 
L 302.031082 -61.395312 
L 296.913577 -61.003834 
L 291.796071 -60.587889 
L 286.678566 -60.147476 
L 281.56106 -59.682596 
L 276.443555 -59.193248 
L 271.32605 -58.728368 
L 266.208544 -58.287955 
L 261.091039 -57.87201 
L 255.973533 -57.480532 
L 250.856028 -57.113521 
L 245.738522 -56.770978 
L 240.621017 -56.452902 
L 235.503511 -56.159293 
L 230.386006 -55.890152 
L 225.268501 -55.645478 
L 220.150995 -55.425272 
L 215.03349 -55.229533 
L 209.915984 -55.058261 
L 204.798479 -54.911457 
L 199.680973 -54.78912 
L 194.563468 -54.69125 
L 189.445962 -54.617848 
L 184.328457 -54.568914 
L 179.210952 -54.544446 
L 174.093446 -54.544446 
L 168.975941 -54.544446 
L 163.858435 -54.544446 
L 158.74093 -54.544446 
L 153.623424 -54.544446 
L 148.505919 -54.544446 
L 143.388413 -54.544446 
L 138.270908 -54.544446 
L 133.153402 -54.544446 
L 128.035897 -54.544446 
L 122.918392 -54.544446 
z
" style="stroke: #57db5f; stroke-opacity: 0.65"/>
    </defs>
    <g clip-path="url(#pa19346fddb)">
     <use xlink:href="#md749ea53fe" x="0" y="280.512" style="fill: #57db5f; fill-opacity: 0.65; stroke: #57db5f; stroke-opacity: 0.65"/>
    </g>
   </g>
   <g id="PolyCollection_15">
    <defs>
     <path id="m364cebaa11" d="M 122.918392 -55.095203 
L 122.918392 -54.544446 
L 128.035897 -54.544446 
L 133.153402 -54.544446 
L 138.270908 -54.544446 
L 143.388413 -54.544446 
L 148.505919 -54.544446 
L 153.623424 -54.544446 
L 158.74093 -54.544446 
L 163.858435 -54.544446 
L 168.975941 -54.544446 
L 174.093446 -54.544446 
L 179.210952 -54.544446 
L 184.328457 -54.774539 
L 189.445962 -55.234724 
L 194.563468 -55.925001 
L 199.680973 -56.845371 
L 204.798479 -57.995834 
L 209.915984 -59.376389 
L 215.03349 -60.987036 
L 220.150995 -62.827776 
L 225.268501 -64.898608 
L 230.386006 -67.199533 
L 235.503511 -69.730551 
L 240.621017 -72.491661 
L 245.738522 -75.482863 
L 250.856028 -78.704158 
L 255.973533 -82.155545 
L 261.091039 -85.837025 
L 266.208544 -89.748598 
L 271.32605 -93.890263 
L 276.443555 -98.26202 
L 281.56106 -102.86387 
L 286.678566 -107.235627 
L 291.796071 -111.377292 
L 296.913577 -115.288865 
L 302.031082 -118.970345 
L 307.148588 -122.421732 
L 312.266093 -125.643027 
L 317.383599 -128.634229 
L 322.501104 -131.395339 
L 327.618609 -133.926357 
L 332.736115 -136.227282 
L 337.85362 -138.298114 
L 342.971126 -140.138854 
L 348.088631 -141.749501 
L 353.206137 -143.130056 
L 358.323642 -144.280519 
L 363.441148 -145.200889 
L 368.558653 -145.891166 
L 373.676158 -146.351351 
L 378.793664 -146.581444 
L 383.911169 -146.581444 
L 389.028675 -146.581444 
L 394.14618 -146.581444 
L 399.263686 -146.581444 
L 404.381191 -146.581444 
L 409.498697 -146.581444 
L 414.616202 -146.581444 
L 419.733707 -146.581444 
L 424.851213 -146.581444 
L 429.968718 -146.581444 
L 435.086224 -146.581444 
L 435.086224 -147.132201 
L 435.086224 -147.132201 
L 429.968718 -147.132201 
L 424.851213 -147.132201 
L 419.733707 -147.132201 
L 414.616202 -147.132201 
L 409.498697 -147.132201 
L 404.381191 -147.132201 
L 399.263686 -147.132201 
L 394.14618 -147.132201 
L 389.028675 -147.132201 
L 383.911169 -147.132201 
L 378.793664 -147.132201 
L 373.676158 -146.902108 
L 368.558653 -146.441923 
L 363.441148 -145.751646 
L 358.323642 -144.831276 
L 353.206137 -143.680813 
L 348.088631 -142.300258 
L 342.971126 -140.689611 
L 337.85362 -138.848871 
L 332.736115 -136.778039 
L 327.618609 -134.477114 
L 322.501104 -131.946096 
L 317.383599 -129.184986 
L 312.266093 -126.193784 
L 307.148588 -122.972489 
L 302.031082 -119.521102 
L 296.913577 -115.839622 
L 291.796071 -111.928049 
L 286.678566 -107.786384 
L 281.56106 -103.414627 
L 276.443555 -98.812777 
L 271.32605 -94.44102 
L 266.208544 -90.299355 
L 261.091039 -86.387782 
L 255.973533 -82.706302 
L 250.856028 -79.254915 
L 245.738522 -76.03362 
L 240.621017 -73.042418 
L 235.503511 -70.281308 
L 230.386006 -67.75029 
L 225.268501 -65.449365 
L 220.150995 -63.378533 
L 215.03349 -61.537793 
L 209.915984 -59.927146 
L 204.798479 -58.546591 
L 199.680973 -57.396128 
L 194.563468 -56.475758 
L 189.445962 -55.785481 
L 184.328457 -55.325296 
L 179.210952 -55.095203 
L 174.093446 -55.095203 
L 168.975941 -55.095203 
L 163.858435 -55.095203 
L 158.74093 -55.095203 
L 153.623424 -55.095203 
L 148.505919 -55.095203 
L 143.388413 -55.095203 
L 138.270908 -55.095203 
L 133.153402 -55.095203 
L 128.035897 -55.095203 
L 122.918392 -55.095203 
z
" style="stroke: #57db5f; stroke-opacity: 0.65"/>
    </defs>
    <g clip-path="url(#pa19346fddb)">
     <use xlink:href="#m364cebaa11" x="0" y="280.512" style="fill: #57db5f; fill-opacity: 0.65; stroke: #57db5f; stroke-opacity: 0.65"/>
    </g>
   </g>
   <g id="PolyCollection_16">
    <defs>
     <path id="m36651b90c8" d="M 122.918392 -57.628685 
L 122.918392 -55.095203 
L 128.035897 -55.095203 
L 133.153402 -55.095203 
L 138.270908 -55.095203 
L 143.388413 -55.095203 
L 148.505919 -55.095203 
L 153.623424 -55.095203 
L 158.74093 -55.095203 
L 163.858435 -55.095203 
L 168.975941 -55.095203 
L 174.093446 -55.095203 
L 179.210952 -55.095203 
L 184.328457 -55.602795 
L 189.445962 -56.617977 
L 194.563468 -58.140752 
L 199.680973 -60.171117 
L 204.798479 -62.709074 
L 209.915984 -65.754622 
L 215.03349 -69.307762 
L 220.150995 -73.368493 
L 225.268501 -77.936816 
L 230.386006 -83.01273 
L 235.503511 -88.596235 
L 240.621017 -94.687332 
L 245.738522 -101.28602 
L 250.856028 -108.3923 
L 255.973533 -116.006171 
L 261.091039 -124.127633 
L 266.208544 -132.756687 
L 271.32605 -141.893332 
L 276.443555 -151.537568 
L 281.56106 -161.689396 
L 286.678566 -171.333633 
L 291.796071 -180.470278 
L 296.913577 -189.099331 
L 302.031082 -197.220794 
L 307.148588 -204.834665 
L 312.266093 -211.940944 
L 317.383599 -218.539632 
L 322.501104 -224.630729 
L 327.618609 -230.214234 
L 332.736115 -235.290148 
L 337.85362 -239.858471 
L 342.971126 -243.919202 
L 348.088631 -247.472342 
L 353.206137 -250.51789 
L 358.323642 -253.055847 
L 363.441148 -255.086213 
L 368.558653 -256.608987 
L 373.676158 -257.62417 
L 378.793664 -258.131761 
L 383.911169 -258.131761 
L 389.028675 -258.131761 
L 394.14618 -258.131761 
L 399.263686 -258.131761 
L 404.381191 -258.131761 
L 409.498697 -258.131761 
L 414.616202 -258.131761 
L 419.733707 -258.131761 
L 424.851213 -258.131761 
L 429.968718 -258.131761 
L 435.086224 -258.131761 
L 435.086224 -260.665243 
L 435.086224 -260.665243 
L 429.968718 -260.665243 
L 424.851213 -260.665243 
L 419.733707 -260.665243 
L 414.616202 -260.665243 
L 409.498697 -260.665243 
L 404.381191 -260.665243 
L 399.263686 -260.665243 
L 394.14618 -260.665243 
L 389.028675 -260.665243 
L 383.911169 -260.665243 
L 378.793664 -260.665243 
L 373.676158 -260.157652 
L 368.558653 -259.142469 
L 363.441148 -257.619695 
L 358.323642 -255.589329 
L 353.206137 -253.051372 
L 348.088631 -250.005824 
L 342.971126 -246.452684 
L 337.85362 -242.391953 
L 332.736115 -237.82363 
L 327.618609 -232.747716 
L 322.501104 -227.164211 
L 317.383599 -221.073114 
L 312.266093 -214.474426 
L 307.148588 -207.368147 
L 302.031082 -199.754276 
L 296.913577 -191.632813 
L 291.796071 -183.00376 
L 286.678566 -173.867115 
L 281.56106 -164.222878 
L 276.443555 -154.07105 
L 271.32605 -144.426814 
L 266.208544 -135.290169 
L 261.091039 -126.661115 
L 255.973533 -118.539653 
L 250.856028 -110.925782 
L 245.738522 -103.819502 
L 240.621017 -97.220814 
L 235.503511 -91.129717 
L 230.386006 -85.546212 
L 225.268501 -80.470298 
L 220.150995 -75.901975 
L 215.03349 -71.841244 
L 209.915984 -68.288105 
L 204.798479 -65.242556 
L 199.680973 -62.704599 
L 194.563468 -60.674234 
L 189.445962 -59.151459 
L 184.328457 -58.136277 
L 179.210952 -57.628685 
L 174.093446 -57.628685 
L 168.975941 -57.628685 
L 163.858435 -57.628685 
L 158.74093 -57.628685 
L 153.623424 -57.628685 
L 148.505919 -57.628685 
L 143.388413 -57.628685 
L 138.270908 -57.628685 
L 133.153402 -57.628685 
L 128.035897 -57.628685 
L 122.918392 -57.628685 
z
" style="stroke: #57db5f; stroke-opacity: 0.65"/>
    </defs>
    <g clip-path="url(#pa19346fddb)">
     <use xlink:href="#m36651b90c8" x="0" y="280.512" style="fill: #57db5f; fill-opacity: 0.65; stroke: #57db5f; stroke-opacity: 0.65"/>
    </g>
   </g>
   <g id="PolyCollection_17">
    <defs>
     <path id="m817d63f9b2" d="M 122.918392 -76.998808 
L 122.918392 -67.305485 
L 128.035897 -67.305485 
L 133.153402 -67.305485 
L 138.270908 -67.305485 
L 143.388413 -67.305485 
L 148.505919 -67.305485 
L 153.623424 -67.305485 
L 158.74093 -67.305485 
L 163.858435 -67.305485 
L 168.975941 -67.305485 
L 174.093446 -67.305485 
L 179.210952 -67.305485 
L 184.328457 -67.29805 
L 189.445962 -67.28318 
L 194.563468 -67.260874 
L 199.680973 -67.231133 
L 204.798479 -67.193957 
L 209.915984 -67.149346 
L 215.03349 -67.097299 
L 220.150995 -67.037817 
L 225.268501 -66.9709 
L 230.386006 -66.896548 
L 235.503511 -66.814761 
L 240.621017 -66.725538 
L 245.738522 -66.62888 
L 250.856028 -66.524787 
L 255.973533 -66.413259 
L 261.091039 -66.294295 
L 266.208544 -66.167897 
L 271.32605 -66.034063 
L 276.443555 -65.892794 
L 281.56106 -65.744089 
L 286.678566 -65.60282 
L 291.796071 -65.468986 
L 296.913577 -65.342587 
L 302.031082 -65.223624 
L 307.148588 -65.112096 
L 312.266093 -65.008003 
L 317.383599 -64.911345 
L 322.501104 -64.822122 
L 327.618609 -64.740335 
L 332.736115 -64.665982 
L 337.85362 -64.599065 
L 342.971126 -64.539584 
L 348.088631 -64.487537 
L 353.206137 -64.442926 
L 358.323642 -64.40575 
L 363.441148 -64.376009 
L 368.558653 -64.353703 
L 373.676158 -64.338833 
L 378.793664 -64.331398 
L 383.911169 -64.331398 
L 389.028675 -64.331398 
L 394.14618 -64.331398 
L 399.263686 -64.331398 
L 404.381191 -64.331398 
L 409.498697 -64.331398 
L 414.616202 -64.331398 
L 419.733707 -64.331398 
L 424.851213 -64.331398 
L 429.968718 -64.331398 
L 435.086224 -64.331398 
L 435.086224 -74.02472 
L 435.086224 -74.02472 
L 429.968718 -74.02472 
L 424.851213 -74.02472 
L 419.733707 -74.02472 
L 414.616202 -74.02472 
L 409.498697 -74.02472 
L 404.381191 -74.02472 
L 399.263686 -74.02472 
L 394.14618 -74.02472 
L 389.028675 -74.02472 
L 383.911169 -74.02472 
L 378.793664 -74.02472 
L 373.676158 -74.032156 
L 368.558653 -74.047026 
L 363.441148 -74.069332 
L 358.323642 -74.099073 
L 353.206137 -74.136249 
L 348.088631 -74.18086 
L 342.971126 -74.232906 
L 337.85362 -74.292388 
L 332.736115 -74.359305 
L 327.618609 -74.433657 
L 322.501104 -74.515445 
L 317.383599 -74.604667 
L 312.266093 -74.701325 
L 307.148588 -74.805418 
L 302.031082 -74.916947 
L 296.913577 -75.03591 
L 291.796071 -75.162309 
L 286.678566 -75.296143 
L 281.56106 -75.437412 
L 276.443555 -75.586116 
L 271.32605 -75.727385 
L 266.208544 -75.861219 
L 261.091039 -75.987618 
L 255.973533 -76.106582 
L 250.856028 -76.21811 
L 245.738522 -76.322203 
L 240.621017 -76.418861 
L 235.503511 -76.508084 
L 230.386006 -76.589871 
L 225.268501 -76.664223 
L 220.150995 -76.73114 
L 215.03349 -76.790622 
L 209.915984 -76.842668 
L 204.798479 -76.88728 
L 199.680973 -76.924456 
L 194.563468 -76.954197 
L 189.445962 -76.976502 
L 184.328457 -76.991373 
L 179.210952 -76.998808 
L 174.093446 -76.998808 
L 168.975941 -76.998808 
L 163.858435 -76.998808 
L 158.74093 -76.998808 
L 153.623424 -76.998808 
L 148.505919 -76.998808 
L 143.388413 -76.998808 
L 138.270908 -76.998808 
L 133.153402 -76.998808 
L 128.035897 -76.998808 
L 122.918392 -76.998808 
z
" style="stroke: #5f57db; stroke-opacity: 0.65"/>
    </defs>
    <g clip-path="url(#pa19346fddb)">
     <use xlink:href="#m817d63f9b2" x="0" y="280.512" style="fill: #5f57db; fill-opacity: 0.65; stroke: #5f57db; stroke-opacity: 0.65"/>
    </g>
   </g>
   <g id="PolyCollection_18">
    <defs>
     <path id="m4db36f7177" d="M 122.918392 -77.108959 
L 122.918392 -76.998808 
L 128.035897 -76.998808 
L 133.153402 -76.998808 
L 138.270908 -76.998808 
L 143.388413 -76.998808 
L 148.505919 -76.998808 
L 153.623424 -76.998808 
L 158.74093 -76.998808 
L 163.858435 -76.998808 
L 168.975941 -76.998808 
L 174.093446 -76.998808 
L 179.210952 -76.998808 
L 184.328457 -77.174141 
L 189.445962 -77.524808 
L 194.563468 -78.050809 
L 199.680973 -78.752143 
L 204.798479 -79.62881 
L 209.915984 -80.680811 
L 215.03349 -81.908145 
L 220.150995 -83.310813 
L 225.268501 -84.888815 
L 230.386006 -86.642149 
L 235.503511 -88.570818 
L 240.621017 -90.67482 
L 245.738522 -92.954155 
L 250.856028 -95.408824 
L 255.973533 -98.038826 
L 261.091039 -100.844162 
L 266.208544 -103.824831 
L 271.32605 -106.980833 
L 276.443555 -110.31217 
L 281.56106 -113.818839 
L 286.678566 -117.150175 
L 291.796071 -120.306178 
L 296.913577 -123.286847 
L 302.031082 -126.092183 
L 307.148588 -128.722185 
L 312.266093 -131.176854 
L 317.383599 -133.456189 
L 322.501104 -135.560191 
L 327.618609 -137.488859 
L 332.736115 -139.242194 
L 337.85362 -140.820195 
L 342.971126 -142.222863 
L 348.088631 -143.450198 
L 353.206137 -144.502199 
L 358.323642 -145.378866 
L 363.441148 -146.0802 
L 368.558653 -146.6062 
L 373.676158 -146.956867 
L 378.793664 -147.132201 
L 383.911169 -147.132201 
L 389.028675 -147.132201 
L 394.14618 -147.132201 
L 399.263686 -147.132201 
L 404.381191 -147.132201 
L 409.498697 -147.132201 
L 414.616202 -147.132201 
L 419.733707 -147.132201 
L 424.851213 -147.132201 
L 429.968718 -147.132201 
L 435.086224 -147.132201 
L 435.086224 -147.242352 
L 435.086224 -147.242352 
L 429.968718 -147.242352 
L 424.851213 -147.242352 
L 419.733707 -147.242352 
L 414.616202 -147.242352 
L 409.498697 -147.242352 
L 404.381191 -147.242352 
L 399.263686 -147.242352 
L 394.14618 -147.242352 
L 389.028675 -147.242352 
L 383.911169 -147.242352 
L 378.793664 -147.242352 
L 373.676158 -147.067019 
L 368.558653 -146.716352 
L 363.441148 -146.190351 
L 358.323642 -145.489017 
L 353.206137 -144.61235 
L 348.088631 -143.560349 
L 342.971126 -142.333015 
L 337.85362 -140.930347 
L 332.736115 -139.352345 
L 327.618609 -137.599011 
L 322.501104 -135.670342 
L 317.383599 -133.566341 
L 312.266093 -131.287005 
L 307.148588 -128.832337 
L 302.031082 -126.202334 
L 296.913577 -123.396999 
L 291.796071 -120.416329 
L 286.678566 -117.260327 
L 281.56106 -113.928991 
L 276.443555 -110.422321 
L 271.32605 -107.090985 
L 266.208544 -103.934982 
L 261.091039 -100.954313 
L 255.973533 -98.148977 
L 250.856028 -95.518975 
L 245.738522 -93.064306 
L 240.621017 -90.784971 
L 235.503511 -88.680969 
L 230.386006 -86.752301 
L 225.268501 -84.998966 
L 220.150995 -83.420965 
L 215.03349 -82.018297 
L 209.915984 -80.790962 
L 204.798479 -79.738962 
L 199.680973 -78.862294 
L 194.563468 -78.16096 
L 189.445962 -77.63496 
L 184.328457 -77.284293 
L 179.210952 -77.108959 
L 174.093446 -77.108959 
L 168.975941 -77.108959 
L 163.858435 -77.108959 
L 158.74093 -77.108959 
L 153.623424 -77.108959 
L 148.505919 -77.108959 
L 143.388413 -77.108959 
L 138.270908 -77.108959 
L 133.153402 -77.108959 
L 128.035897 -77.108959 
L 122.918392 -77.108959 
z
" style="stroke: #5f57db; stroke-opacity: 0.65"/>
    </defs>
    <g clip-path="url(#pa19346fddb)">
     <use xlink:href="#m4db36f7177" x="0" y="280.512" style="fill: #5f57db; fill-opacity: 0.65; stroke: #5f57db; stroke-opacity: 0.65"/>
    </g>
   </g>
   <g id="PolyCollection_19">
    <defs>
     <path id="mb781b5babd" d="M 122.918392 -137.675704 
L 122.918392 -86.785759 
L 128.035897 -86.785759 
L 133.153402 -86.785759 
L 138.270908 -86.785759 
L 143.388413 -86.785759 
L 148.505919 -86.785759 
L 153.623424 -86.785759 
L 158.74093 -86.785759 
L 163.858435 -86.785759 
L 168.975941 -86.785759 
L 174.093446 -86.785759 
L 179.210952 -86.785759 
L 184.328457 -86.778049 
L 189.445962 -86.762628 
L 194.563468 -86.739496 
L 199.680973 -86.708653 
L 204.798479 -86.6701 
L 209.915984 -86.623837 
L 215.03349 -86.569863 
L 220.150995 -86.508178 
L 225.268501 -86.438782 
L 230.386006 -86.361676 
L 235.503511 -86.27686 
L 240.621017 -86.184333 
L 245.738522 -86.084095 
L 250.856028 -85.976147 
L 255.973533 -85.860488 
L 261.091039 -85.737118 
L 266.208544 -85.606038 
L 271.32605 -85.467247 
L 276.443555 -85.320746 
L 281.56106 -85.166534 
L 286.678566 -85.020033 
L 291.796071 -84.881242 
L 296.913577 -84.750162 
L 302.031082 -84.626792 
L 307.148588 -84.511133 
L 312.266093 -84.403185 
L 317.383599 -84.302947 
L 322.501104 -84.21042 
L 327.618609 -84.125603 
L 332.736115 -84.048497 
L 337.85362 -83.979102 
L 342.971126 -83.917417 
L 348.088631 -83.863443 
L 353.206137 -83.817179 
L 358.323642 -83.778626 
L 363.441148 -83.747784 
L 368.558653 -83.724652 
L 373.676158 -83.709231 
L 378.793664 -83.70152 
L 383.911169 -83.70152 
L 389.028675 -83.70152 
L 394.14618 -83.70152 
L 399.263686 -83.70152 
L 404.381191 -83.70152 
L 409.498697 -83.70152 
L 414.616202 -83.70152 
L 419.733707 -83.70152 
L 424.851213 -83.70152 
L 429.968718 -83.70152 
L 435.086224 -83.70152 
L 435.086224 -134.591465 
L 435.086224 -134.591465 
L 429.968718 -134.591465 
L 424.851213 -134.591465 
L 419.733707 -134.591465 
L 414.616202 -134.591465 
L 409.498697 -134.591465 
L 404.381191 -134.591465 
L 399.263686 -134.591465 
L 394.14618 -134.591465 
L 389.028675 -134.591465 
L 383.911169 -134.591465 
L 378.793664 -134.591465 
L 373.676158 -134.599175 
L 368.558653 -134.614596 
L 363.441148 -134.637728 
L 358.323642 -134.668571 
L 353.206137 -134.707124 
L 348.088631 -134.753387 
L 342.971126 -134.807361 
L 337.85362 -134.869046 
L 332.736115 -134.938441 
L 327.618609 -135.015547 
L 322.501104 -135.100364 
L 317.383599 -135.192891 
L 312.266093 -135.293129 
L 307.148588 -135.401077 
L 302.031082 -135.516736 
L 296.913577 -135.640106 
L 291.796071 -135.771186 
L 286.678566 -135.909977 
L 281.56106 -136.056478 
L 276.443555 -136.21069 
L 271.32605 -136.357191 
L 266.208544 -136.495982 
L 261.091039 -136.627062 
L 255.973533 -136.750432 
L 250.856028 -136.866091 
L 245.738522 -136.974039 
L 240.621017 -137.074277 
L 235.503511 -137.166804 
L 230.386006 -137.251621 
L 225.268501 -137.328727 
L 220.150995 -137.398122 
L 215.03349 -137.459807 
L 209.915984 -137.513781 
L 204.798479 -137.560045 
L 199.680973 -137.598598 
L 194.563468 -137.62944 
L 189.445962 -137.652572 
L 184.328457 -137.667993 
L 179.210952 -137.675704 
L 174.093446 -137.675704 
L 168.975941 -137.675704 
L 163.858435 -137.675704 
L 158.74093 -137.675704 
L 153.623424 -137.675704 
L 148.505919 -137.675704 
L 143.388413 -137.675704 
L 138.270908 -137.675704 
L 133.153402 -137.675704 
L 128.035897 -137.675704 
L 122.918392 -137.675704 
z
" style="stroke: #db57d3; stroke-opacity: 0.65"/>
    </defs>
    <g clip-path="url(#pa19346fddb)">
     <use xlink:href="#mb781b5babd" x="0" y="280.512" style="fill: #db57d3; fill-opacity: 0.65; stroke: #db57d3; stroke-opacity: 0.65"/>
    </g>
   </g>
   <g id="PolyCollection_20">
    <defs>
     <path id="mf43a6f9f3f" d="M 122.918392 -139.548277 
L 122.918392 -137.675704 
L 128.035897 -137.675704 
L 133.153402 -137.675704 
L 138.270908 -137.675704 
L 143.388413 -137.675704 
L 148.505919 -137.675704 
L 153.623424 -137.675704 
L 158.74093 -137.675704 
L 163.858435 -137.675704 
L 168.975941 -137.675704 
L 174.093446 -137.675704 
L 179.210952 -137.675704 
L 184.328457 -137.69962 
L 189.445962 -137.747453 
L 194.563468 -137.819203 
L 199.680973 -137.91487 
L 204.798479 -138.034453 
L 209.915984 -138.177953 
L 215.03349 -138.345369 
L 220.150995 -138.536702 
L 225.268501 -138.751952 
L 230.386006 -138.991118 
L 235.503511 -139.254201 
L 240.621017 -139.5412 
L 245.738522 -139.852116 
L 250.856028 -140.186949 
L 255.973533 -140.545698 
L 261.091039 -140.928364 
L 266.208544 -141.334947 
L 271.32605 -141.765446 
L 276.443555 -142.219862 
L 281.56106 -142.698194 
L 286.678566 -143.15261 
L 291.796071 -143.583109 
L 296.913577 -143.989692 
L 302.031082 -144.372358 
L 307.148588 -144.731107 
L 312.266093 -145.06594 
L 317.383599 -145.376856 
L 322.501104 -145.663855 
L 327.618609 -145.926938 
L 332.736115 -146.166104 
L 337.85362 -146.381354 
L 342.971126 -146.572687 
L 348.088631 -146.740103 
L 353.206137 -146.883603 
L 358.323642 -147.003186 
L 363.441148 -147.098852 
L 368.558653 -147.170602 
L 373.676158 -147.218436 
L 378.793664 -147.242352 
L 383.911169 -147.242352 
L 389.028675 -147.242352 
L 394.14618 -147.242352 
L 399.263686 -147.242352 
L 404.381191 -147.242352 
L 409.498697 -147.242352 
L 414.616202 -147.242352 
L 419.733707 -147.242352 
L 424.851213 -147.242352 
L 429.968718 -147.242352 
L 435.086224 -147.242352 
L 435.086224 -149.114926 
L 435.086224 -149.114926 
L 429.968718 -149.114926 
L 424.851213 -149.114926 
L 419.733707 -149.114926 
L 414.616202 -149.114926 
L 409.498697 -149.114926 
L 404.381191 -149.114926 
L 399.263686 -149.114926 
L 394.14618 -149.114926 
L 389.028675 -149.114926 
L 383.911169 -149.114926 
L 378.793664 -149.114926 
L 373.676158 -149.091009 
L 368.558653 -149.043176 
L 363.441148 -148.971426 
L 358.323642 -148.87576 
L 353.206137 -148.756177 
L 348.088631 -148.612677 
L 342.971126 -148.44526 
L 337.85362 -148.253928 
L 332.736115 -148.038678 
L 327.618609 -147.799512 
L 322.501104 -147.536429 
L 317.383599 -147.249429 
L 312.266093 -146.938513 
L 307.148588 -146.603681 
L 302.031082 -146.244931 
L 296.913577 -145.862265 
L 291.796071 -145.455683 
L 286.678566 -145.025184 
L 281.56106 -144.570768 
L 276.443555 -144.092435 
L 271.32605 -143.63802 
L 266.208544 -143.20752 
L 261.091039 -142.800938 
L 255.973533 -142.418272 
L 250.856028 -142.059523 
L 245.738522 -141.72469 
L 240.621017 -141.413774 
L 235.503511 -141.126774 
L 230.386006 -140.863691 
L 225.268501 -140.624525 
L 220.150995 -140.409276 
L 215.03349 -140.217943 
L 209.915984 -140.050526 
L 204.798479 -139.907027 
L 199.680973 -139.787444 
L 194.563468 -139.691777 
L 189.445962 -139.620027 
L 184.328457 -139.572194 
L 179.210952 -139.548277 
L 174.093446 -139.548277 
L 168.975941 -139.548277 
L 163.858435 -139.548277 
L 158.74093 -139.548277 
L 153.623424 -139.548277 
L 148.505919 -139.548277 
L 143.388413 -139.548277 
L 138.270908 -139.548277 
L 133.153402 -139.548277 
L 128.035897 -139.548277 
L 122.918392 -139.548277 
z
" style="stroke: #db57d3; stroke-opacity: 0.65"/>
    </defs>
    <g clip-path="url(#pa19346fddb)">
     <use xlink:href="#mf43a6f9f3f" x="0" y="280.512" style="fill: #db57d3; fill-opacity: 0.65; stroke: #db57d3; stroke-opacity: 0.65"/>
    </g>
   </g>
   <g id="PolyCollection_21">
    <defs>
     <path id="ma1d70e2344" d="M 122.918392 -151.317954 
L 122.918392 -149.225077 
L 128.035897 -149.225077 
L 133.153402 -149.225077 
L 138.270908 -149.225077 
L 143.388413 -149.225077 
L 148.505919 -149.225077 
L 153.623424 -149.225077 
L 158.74093 -149.225077 
L 163.858435 -149.225077 
L 168.975941 -149.225077 
L 174.093446 -149.225077 
L 179.210952 -149.225077 
L 184.328457 -149.188493 
L 189.445962 -149.115325 
L 194.563468 -149.005573 
L 199.680973 -148.859237 
L 204.798479 -148.676317 
L 209.915984 -148.456813 
L 215.03349 -148.200724 
L 220.150995 -147.908052 
L 225.268501 -147.578796 
L 230.386006 -147.212956 
L 235.503511 -146.810531 
L 240.621017 -146.371523 
L 245.738522 -145.89593 
L 250.856028 -145.383754 
L 255.973533 -144.834993 
L 261.091039 -144.249649 
L 266.208544 -143.62772 
L 271.32605 -142.969208 
L 276.443555 -142.274111 
L 281.56106 -141.542431 
L 286.678566 -140.847334 
L 291.796071 -140.188821 
L 296.913577 -139.566893 
L 302.031082 -138.981548 
L 307.148588 -138.432788 
L 312.266093 -137.920611 
L 317.383599 -137.445019 
L 322.501104 -137.006011 
L 327.618609 -136.603586 
L 332.736115 -136.237746 
L 337.85362 -135.90849 
L 342.971126 -135.615817 
L 348.088631 -135.359729 
L 353.206137 -135.140225 
L 358.323642 -134.957305 
L 363.441148 -134.810969 
L 368.558653 -134.701217 
L 373.676158 -134.628049 
L 378.793664 -134.591465 
L 383.911169 -134.591465 
L 389.028675 -134.591465 
L 394.14618 -134.591465 
L 399.263686 -134.591465 
L 404.381191 -134.591465 
L 409.498697 -134.591465 
L 414.616202 -134.591465 
L 419.733707 -134.591465 
L 424.851213 -134.591465 
L 429.968718 -134.591465 
L 435.086224 -134.591465 
L 435.086224 -136.684341 
L 435.086224 -136.684341 
L 429.968718 -136.684341 
L 424.851213 -136.684341 
L 419.733707 -136.684341 
L 414.616202 -136.684341 
L 409.498697 -136.684341 
L 404.381191 -136.684341 
L 399.263686 -136.684341 
L 394.14618 -136.684341 
L 389.028675 -136.684341 
L 383.911169 -136.684341 
L 378.793664 -136.684341 
L 373.676158 -136.720925 
L 368.558653 -136.794093 
L 363.441148 -136.903845 
L 358.323642 -137.050181 
L 353.206137 -137.233102 
L 348.088631 -137.452606 
L 342.971126 -137.708694 
L 337.85362 -138.001366 
L 332.736115 -138.330622 
L 327.618609 -138.696463 
L 322.501104 -139.098887 
L 317.383599 -139.537896 
L 312.266093 -140.013488 
L 307.148588 -140.525664 
L 302.031082 -141.074425 
L 296.913577 -141.659769 
L 291.796071 -142.281698 
L 286.678566 -142.94021 
L 281.56106 -143.635307 
L 276.443555 -144.366988 
L 271.32605 -145.062084 
L 266.208544 -145.720597 
L 261.091039 -146.342525 
L 255.973533 -146.92787 
L 250.856028 -147.47663 
L 245.738522 -147.988807 
L 240.621017 -148.464399 
L 235.503511 -148.903408 
L 230.386006 -149.305832 
L 225.268501 -149.671672 
L 220.150995 -150.000929 
L 215.03349 -150.293601 
L 209.915984 -150.549689 
L 204.798479 -150.769193 
L 199.680973 -150.952113 
L 194.563468 -151.09845 
L 189.445962 -151.208202 
L 184.328457 -151.28137 
L 179.210952 -151.317954 
L 174.093446 -151.317954 
L 168.975941 -151.317954 
L 163.858435 -151.317954 
L 158.74093 -151.317954 
L 153.623424 -151.317954 
L 148.505919 -151.317954 
L 143.388413 -151.317954 
L 138.270908 -151.317954 
L 133.153402 -151.317954 
L 128.035897 -151.317954 
L 122.918392 -151.317954 
z
" style="stroke: #db5f57; stroke-opacity: 0.65"/>
    </defs>
    <g clip-path="url(#pa19346fddb)">
     <use xlink:href="#ma1d70e2344" x="0" y="280.512" style="fill: #db5f57; fill-opacity: 0.65; stroke: #db5f57; stroke-opacity: 0.65"/>
    </g>
   </g>
   <g id="PolyCollection_22">
    <defs>
     <path id="m61721f11e6" d="M 122.918392 -189.430336 
L 122.918392 -151.317954 
L 128.035897 -151.317954 
L 133.153402 -151.317954 
L 138.270908 -151.317954 
L 143.388413 -151.317954 
L 148.505919 -151.317954 
L 153.623424 -151.317954 
L 158.74093 -151.317954 
L 163.858435 -151.317954 
L 168.975941 -151.317954 
L 174.093446 -151.317954 
L 179.210952 -151.317954 
L 184.328457 -151.312446 
L 189.445962 -151.301431 
L 194.563468 -151.284908 
L 199.680973 -151.262878 
L 204.798479 -151.23534 
L 209.915984 -151.202295 
L 215.03349 -151.163742 
L 220.150995 -151.119681 
L 225.268501 -151.070113 
L 230.386006 -151.015037 
L 235.503511 -150.954454 
L 240.621017 -150.888363 
L 245.738522 -150.816765 
L 250.856028 -150.739659 
L 255.973533 -150.657045 
L 261.091039 -150.568924 
L 266.208544 -150.475296 
L 271.32605 -150.376159 
L 276.443555 -150.271516 
L 281.56106 -150.161364 
L 286.678566 -150.05672 
L 291.796071 -149.957584 
L 296.913577 -149.863955 
L 302.031082 -149.775834 
L 307.148588 -149.693221 
L 312.266093 -149.616115 
L 317.383599 -149.544516 
L 322.501104 -149.478425 
L 327.618609 -149.417842 
L 332.736115 -149.362767 
L 337.85362 -149.313198 
L 342.971126 -149.269138 
L 348.088631 -149.230585 
L 353.206137 -149.197539 
L 358.323642 -149.170002 
L 363.441148 -149.147971 
L 368.558653 -149.131449 
L 373.676158 -149.120433 
L 378.793664 -149.114926 
L 383.911169 -149.114926 
L 389.028675 -149.114926 
L 394.14618 -149.114926 
L 399.263686 -149.114926 
L 404.381191 -149.114926 
L 409.498697 -149.114926 
L 414.616202 -149.114926 
L 419.733707 -149.114926 
L 424.851213 -149.114926 
L 429.968718 -149.114926 
L 435.086224 -149.114926 
L 435.086224 -187.227308 
L 435.086224 -187.227308 
L 429.968718 -187.227308 
L 424.851213 -187.227308 
L 419.733707 -187.227308 
L 414.616202 -187.227308 
L 409.498697 -187.227308 
L 404.381191 -187.227308 
L 399.263686 -187.227308 
L 394.14618 -187.227308 
L 389.028675 -187.227308 
L 383.911169 -187.227308 
L 378.793664 -187.227308 
L 373.676158 -187.232816 
L 368.558653 -187.243831 
L 363.441148 -187.260354 
L 358.323642 -187.282384 
L 353.206137 -187.309922 
L 348.088631 -187.342967 
L 342.971126 -187.38152 
L 337.85362 -187.425581 
L 332.736115 -187.475149 
L 327.618609 -187.530225 
L 322.501104 -187.590808 
L 317.383599 -187.656899 
L 312.266093 -187.728497 
L 307.148588 -187.805603 
L 302.031082 -187.888217 
L 296.913577 -187.976338 
L 291.796071 -188.069967 
L 286.678566 -188.169103 
L 281.56106 -188.273747 
L 276.443555 -188.383898 
L 271.32605 -188.488542 
L 266.208544 -188.587678 
L 261.091039 -188.681307 
L 255.973533 -188.769428 
L 250.856028 -188.852041 
L 245.738522 -188.929147 
L 240.621017 -189.000746 
L 235.503511 -189.066837 
L 230.386006 -189.12742 
L 225.268501 -189.182496 
L 220.150995 -189.232064 
L 215.03349 -189.276124 
L 209.915984 -189.314677 
L 204.798479 -189.347723 
L 199.680973 -189.375261 
L 194.563468 -189.397291 
L 189.445962 -189.413814 
L 184.328457 -189.424829 
L 179.210952 -189.430336 
L 174.093446 -189.430336 
L 168.975941 -189.430336 
L 163.858435 -189.430336 
L 158.74093 -189.430336 
L 153.623424 -189.430336 
L 148.505919 -189.430336 
L 143.388413 -189.430336 
L 138.270908 -189.430336 
L 133.153402 -189.430336 
L 128.035897 -189.430336 
L 122.918392 -189.430336 
z
" style="stroke: #db5f57; stroke-opacity: 0.65"/>
    </defs>
    <g clip-path="url(#pa19346fddb)">
     <use xlink:href="#m61721f11e6" x="0" y="280.512" style="fill: #db5f57; fill-opacity: 0.65; stroke: #db5f57; stroke-opacity: 0.65"/>
    </g>
   </g>
   <g id="PolyCollection_23">
    <defs>
     <path id="me0c865f366" d="M 122.918392 -189.540488 
L 122.918392 -189.430336 
L 128.035897 -189.430336 
L 133.153402 -189.430336 
L 138.270908 -189.430336 
L 143.388413 -189.430336 
L 148.505919 -189.430336 
L 153.623424 -189.430336 
L 158.74093 -189.430336 
L 163.858435 -189.430336 
L 168.975941 -189.430336 
L 174.093446 -189.430336 
L 179.210952 -189.430336 
L 184.328457 -189.608424 
L 189.445962 -189.964598 
L 194.563468 -190.49886 
L 199.680973 -191.211209 
L 204.798479 -192.101645 
L 209.915984 -193.170169 
L 215.03349 -194.41678 
L 220.150995 -195.841478 
L 225.268501 -197.444263 
L 230.386006 -199.225136 
L 235.503511 -201.184096 
L 240.621017 -203.321143 
L 245.738522 -205.636278 
L 250.856028 -208.129499 
L 255.973533 -210.800808 
L 261.091039 -213.650205 
L 266.208544 -216.677688 
L 271.32605 -219.883259 
L 276.443555 -223.266917 
L 281.56106 -226.828662 
L 286.678566 -230.21232 
L 291.796071 -233.417891 
L 296.913577 -236.445375 
L 302.031082 -239.294771 
L 307.148588 -241.96608 
L 312.266093 -244.459302 
L 317.383599 -246.774436 
L 322.501104 -248.911483 
L 327.618609 -250.870443 
L 332.736115 -252.651316 
L 337.85362 -254.254101 
L 342.971126 -255.6788 
L 348.088631 -256.92541 
L 353.206137 -257.993934 
L 358.323642 -258.88437 
L 363.441148 -259.596719 
L 368.558653 -260.130981 
L 373.676158 -260.487156 
L 378.793664 -260.665243 
L 383.911169 -260.665243 
L 389.028675 -260.665243 
L 394.14618 -260.665243 
L 399.263686 -260.665243 
L 404.381191 -260.665243 
L 409.498697 -260.665243 
L 414.616202 -260.665243 
L 419.733707 -260.665243 
L 424.851213 -260.665243 
L 429.968718 -260.665243 
L 435.086224 -260.665243 
L 435.086224 -260.775394 
L 435.086224 -260.775394 
L 429.968718 -260.775394 
L 424.851213 -260.775394 
L 419.733707 -260.775394 
L 414.616202 -260.775394 
L 409.498697 -260.775394 
L 404.381191 -260.775394 
L 399.263686 -260.775394 
L 394.14618 -260.775394 
L 389.028675 -260.775394 
L 383.911169 -260.775394 
L 378.793664 -260.775394 
L 373.676158 -260.597307 
L 368.558653 -260.241133 
L 363.441148 -259.706871 
L 358.323642 -258.994522 
L 353.206137 -258.104085 
L 348.088631 -257.035562 
L 342.971126 -255.788951 
L 337.85362 -254.364253 
L 332.736115 -252.761467 
L 327.618609 -250.980595 
L 322.501104 -249.021635 
L 317.383599 -246.884588 
L 312.266093 -244.569453 
L 307.148588 -242.076231 
L 302.031082 -239.404922 
L 296.913577 -236.555526 
L 291.796071 -233.528043 
L 286.678566 -230.322472 
L 281.56106 -226.938814 
L 276.443555 -223.377068 
L 271.32605 -219.99341 
L 266.208544 -216.787839 
L 261.091039 -213.760356 
L 255.973533 -210.91096 
L 250.856028 -208.239651 
L 245.738522 -205.746429 
L 240.621017 -203.431294 
L 235.503511 -201.294247 
L 230.386006 -199.335287 
L 225.268501 -197.554415 
L 220.150995 -195.951629 
L 215.03349 -194.526931 
L 209.915984 -193.28032 
L 204.798479 -192.211797 
L 199.680973 -191.32136 
L 194.563468 -190.609011 
L 189.445962 -190.074749 
L 184.328457 -189.718575 
L 179.210952 -189.540488 
L 174.093446 -189.540488 
L 168.975941 -189.540488 
L 163.858435 -189.540488 
L 158.74093 -189.540488 
L 153.623424 -189.540488 
L 148.505919 -189.540488 
L 143.388413 -189.540488 
L 138.270908 -189.540488 
L 133.153402 -189.540488 
L 128.035897 -189.540488 
L 122.918392 -189.540488 
z
" style="stroke: #db5f57; stroke-opacity: 0.65"/>
    </defs>
    <g clip-path="url(#pa19346fddb)">
     <use xlink:href="#me0c865f366" x="0" y="280.512" style="fill: #db5f57; fill-opacity: 0.65; stroke: #db5f57; stroke-opacity: 0.65"/>
    </g>
   </g>
   <g id="PolyCollection_24">
    <defs>
     <path id="m42594ab3f4" d="M 122.918392 -199.327439 
L 122.918392 -199.217288 
L 128.035897 -199.217288 
L 133.153402 -199.217288 
L 138.270908 -199.217288 
L 143.388413 -199.217288 
L 148.505919 -199.217288 
L 153.623424 -199.217288 
L 158.74093 -199.217288 
L 163.858435 -199.217288 
L 168.975941 -199.217288 
L 174.093446 -199.217288 
L 179.210952 -199.217288 
L 184.328457 -198.85533 
L 189.445962 -198.131415 
L 194.563468 -197.045543 
L 199.680973 -195.597713 
L 204.798479 -193.787925 
L 209.915984 -191.616181 
L 215.03349 -189.082478 
L 220.150995 -186.186818 
L 225.268501 -182.929201 
L 230.386006 -179.309626 
L 235.503511 -175.328094 
L 240.621017 -170.984604 
L 245.738522 -166.279157 
L 250.856028 -161.211752 
L 255.973533 -155.78239 
L 261.091039 -149.99107 
L 266.208544 -143.837793 
L 271.32605 -137.322558 
L 276.443555 -130.445366 
L 281.56106 -123.206216 
L 286.678566 -116.329024 
L 291.796071 -109.81379 
L 296.913577 -103.660512 
L 302.031082 -97.869193 
L 307.148588 -92.43983 
L 312.266093 -87.372426 
L 317.383599 -82.666978 
L 322.501104 -78.323489 
L 327.618609 -74.341956 
L 332.736115 -70.722382 
L 337.85362 -67.464764 
L 342.971126 -64.569104 
L 348.088631 -62.035402 
L 353.206137 -59.863657 
L 358.323642 -58.05387 
L 363.441148 -56.60604 
L 368.558653 -55.520167 
L 373.676158 -54.796252 
L 378.793664 -54.434295 
L 383.911169 -54.434295 
L 389.028675 -54.434295 
L 394.14618 -54.434295 
L 399.263686 -54.434295 
L 404.381191 -54.434295 
L 409.498697 -54.434295 
L 414.616202 -54.434295 
L 419.733707 -54.434295 
L 424.851213 -54.434295 
L 429.968718 -54.434295 
L 435.086224 -54.434295 
L 435.086224 -54.544446 
L 435.086224 -54.544446 
L 429.968718 -54.544446 
L 424.851213 -54.544446 
L 419.733707 -54.544446 
L 414.616202 -54.544446 
L 409.498697 -54.544446 
L 404.381191 -54.544446 
L 399.263686 -54.544446 
L 394.14618 -54.544446 
L 389.028675 -54.544446 
L 383.911169 -54.544446 
L 378.793664 -54.544446 
L 373.676158 -54.906404 
L 368.558653 -55.630319 
L 363.441148 -56.716191 
L 358.323642 -58.164021 
L 353.206137 -59.973808 
L 348.088631 -62.145553 
L 342.971126 -64.679256 
L 337.85362 -67.574916 
L 332.736115 -70.832533 
L 327.618609 -74.452108 
L 322.501104 -78.43364 
L 317.383599 -82.77713 
L 312.266093 -87.482577 
L 307.148588 -92.549982 
L 302.031082 -97.979344 
L 296.913577 -103.770664 
L 291.796071 -109.923941 
L 286.678566 -116.439176 
L 281.56106 -123.316368 
L 276.443555 -130.555517 
L 271.32605 -137.43271 
L 266.208544 -143.947944 
L 261.091039 -150.101221 
L 255.973533 -155.892541 
L 250.856028 -161.321903 
L 245.738522 -166.389308 
L 240.621017 -171.094755 
L 235.503511 -175.438245 
L 230.386006 -179.419778 
L 225.268501 -183.039352 
L 220.150995 -186.29697 
L 215.03349 -189.19263 
L 209.915984 -191.726332 
L 204.798479 -193.898077 
L 199.680973 -195.707864 
L 194.563468 -197.155694 
L 189.445962 -198.241567 
L 184.328457 -198.965482 
L 179.210952 -199.327439 
L 174.093446 -199.327439 
L 168.975941 -199.327439 
L 163.858435 -199.327439 
L 158.74093 -199.327439 
L 153.623424 -199.327439 
L 148.505919 -199.327439 
L 143.388413 -199.327439 
L 138.270908 -199.327439 
L 133.153402 -199.327439 
L 128.035897 -199.327439 
L 122.918392 -199.327439 
z
" style="stroke: #d3db57; stroke-opacity: 0.65"/>
    </defs>
    <g clip-path="url(#pa19346fddb)">
     <use xlink:href="#m42594ab3f4" x="0" y="280.512" style="fill: #d3db57; fill-opacity: 0.65; stroke: #d3db57; stroke-opacity: 0.65"/>
    </g>
   </g>
   <g id="PolyCollection_25">
    <defs>
     <path id="mbeb2578f94" d="M 122.918392 -208.029399 
L 122.918392 -199.327439 
L 128.035897 -199.327439 
L 133.153402 -199.327439 
L 138.270908 -199.327439 
L 143.388413 -199.327439 
L 148.505919 -199.327439 
L 153.623424 -199.327439 
L 158.74093 -199.327439 
L 163.858435 -199.327439 
L 168.975941 -199.327439 
L 174.093446 -199.327439 
L 179.210952 -199.327439 
L 184.328457 -199.297189 
L 189.445962 -199.236688 
L 194.563468 -199.145937 
L 199.680973 -199.024936 
L 204.798479 -198.873684 
L 209.915984 -198.692182 
L 215.03349 -198.48043 
L 220.150995 -198.238427 
L 225.268501 -197.966174 
L 230.386006 -197.663671 
L 235.503511 -197.330917 
L 240.621017 -196.967914 
L 245.738522 -196.574659 
L 250.856028 -196.151155 
L 255.973533 -195.6974 
L 261.091039 -195.213395 
L 266.208544 -194.699139 
L 271.32605 -194.154633 
L 276.443555 -193.579877 
L 281.56106 -192.97487 
L 286.678566 -192.400114 
L 291.796071 -191.855608 
L 296.913577 -191.341353 
L 302.031082 -190.857348 
L 307.148588 -190.403593 
L 312.266093 -189.980088 
L 317.383599 -189.586834 
L 322.501104 -189.22383 
L 327.618609 -188.891076 
L 332.736115 -188.588573 
L 337.85362 -188.31632 
L 342.971126 -188.074318 
L 348.088631 -187.862565 
L 353.206137 -187.681063 
L 358.323642 -187.529812 
L 363.441148 -187.40881 
L 368.558653 -187.318059 
L 373.676158 -187.257559 
L 378.793664 -187.227308 
L 383.911169 -187.227308 
L 389.028675 -187.227308 
L 394.14618 -187.227308 
L 399.263686 -187.227308 
L 404.381191 -187.227308 
L 409.498697 -187.227308 
L 414.616202 -187.227308 
L 419.733707 -187.227308 
L 424.851213 -187.227308 
L 429.968718 -187.227308 
L 435.086224 -187.227308 
L 435.086224 -195.929269 
L 435.086224 -195.929269 
L 429.968718 -195.929269 
L 424.851213 -195.929269 
L 419.733707 -195.929269 
L 414.616202 -195.929269 
L 409.498697 -195.929269 
L 404.381191 -195.929269 
L 399.263686 -195.929269 
L 394.14618 -195.929269 
L 389.028675 -195.929269 
L 383.911169 -195.929269 
L 378.793664 -195.929269 
L 373.676158 -195.959519 
L 368.558653 -196.02002 
L 363.441148 -196.11077 
L 358.323642 -196.231772 
L 353.206137 -196.383023 
L 348.088631 -196.564525 
L 342.971126 -196.776278 
L 337.85362 -197.01828 
L 332.736115 -197.290533 
L 327.618609 -197.593036 
L 322.501104 -197.92579 
L 317.383599 -198.288794 
L 312.266093 -198.682048 
L 307.148588 -199.105553 
L 302.031082 -199.559308 
L 296.913577 -200.043313 
L 291.796071 -200.557569 
L 286.678566 -201.102074 
L 281.56106 -201.676831 
L 276.443555 -202.281837 
L 271.32605 -202.856593 
L 266.208544 -203.401099 
L 261.091039 -203.915355 
L 255.973533 -204.39936 
L 250.856028 -204.853115 
L 245.738522 -205.276619 
L 240.621017 -205.669874 
L 235.503511 -206.032878 
L 230.386006 -206.365631 
L 225.268501 -206.668135 
L 220.150995 -206.940387 
L 215.03349 -207.18239 
L 209.915984 -207.394142 
L 204.798479 -207.575644 
L 199.680973 -207.726896 
L 194.563468 -207.847897 
L 189.445962 -207.938648 
L 184.328457 -207.999149 
L 179.210952 -208.029399 
L 174.093446 -208.029399 
L 168.975941 -208.029399 
L 163.858435 -208.029399 
L 158.74093 -208.029399 
L 153.623424 -208.029399 
L 148.505919 -208.029399 
L 143.388413 -208.029399 
L 138.270908 -208.029399 
L 133.153402 -208.029399 
L 128.035897 -208.029399 
L 122.918392 -208.029399 
z
" style="stroke: #d3db57; stroke-opacity: 0.65"/>
    </defs>
    <g clip-path="url(#pa19346fddb)">
     <use xlink:href="#mbeb2578f94" x="0" y="280.512" style="fill: #d3db57; fill-opacity: 0.65; stroke: #d3db57; stroke-opacity: 0.65"/>
    </g>
   </g>
   <g id="PolyCollection_26">
    <defs>
     <path id="me3ddd28476" d="M 122.918392 -208.139551 
L 122.918392 -208.029399 
L 128.035897 -208.029399 
L 133.153402 -208.029399 
L 138.270908 -208.029399 
L 143.388413 -208.029399 
L 148.505919 -208.029399 
L 153.623424 -208.029399 
L 158.74093 -208.029399 
L 163.858435 -208.029399 
L 168.975941 -208.029399 
L 174.093446 -208.029399 
L 179.210952 -208.029399 
L 184.328457 -208.023341 
L 189.445962 -208.011224 
L 194.563468 -207.993049 
L 199.680973 -207.968816 
L 204.798479 -207.938524 
L 209.915984 -207.902174 
L 215.03349 -207.859766 
L 220.150995 -207.811299 
L 225.268501 -207.756775 
L 230.386006 -207.696191 
L 235.503511 -207.62955 
L 240.621017 -207.55685 
L 245.738522 -207.478091 
L 250.856028 -207.393275 
L 255.973533 -207.3024 
L 261.091039 -207.205467 
L 266.208544 -207.102475 
L 271.32605 -206.993425 
L 276.443555 -206.878317 
L 281.56106 -206.757151 
L 286.678566 -206.642042 
L 291.796071 -206.532993 
L 296.913577 -206.430001 
L 302.031082 -206.333068 
L 307.148588 -206.242193 
L 312.266093 -206.157376 
L 317.383599 -206.078618 
L 322.501104 -206.005918 
L 327.618609 -205.939276 
L 332.736115 -205.878693 
L 337.85362 -205.824168 
L 342.971126 -205.775702 
L 348.088631 -205.733293 
L 353.206137 -205.696943 
L 358.323642 -205.666652 
L 363.441148 -205.642418 
L 368.558653 -205.624244 
L 373.676158 -205.612127 
L 378.793664 -205.606069 
L 383.911169 -205.606069 
L 389.028675 -205.606069 
L 394.14618 -205.606069 
L 399.263686 -205.606069 
L 404.381191 -205.606069 
L 409.498697 -205.606069 
L 414.616202 -205.606069 
L 419.733707 -205.606069 
L 424.851213 -205.606069 
L 429.968718 -205.606069 
L 435.086224 -205.606069 
L 435.086224 -205.71622 
L 435.086224 -205.71622 
L 429.968718 -205.71622 
L 424.851213 -205.71622 
L 419.733707 -205.71622 
L 414.616202 -205.71622 
L 409.498697 -205.71622 
L 404.381191 -205.71622 
L 399.263686 -205.71622 
L 394.14618 -205.71622 
L 389.028675 -205.71622 
L 383.911169 -205.71622 
L 378.793664 -205.71622 
L 373.676158 -205.722278 
L 368.558653 -205.734395 
L 363.441148 -205.75257 
L 358.323642 -205.776803 
L 353.206137 -205.807095 
L 348.088631 -205.843445 
L 342.971126 -205.885853 
L 337.85362 -205.93432 
L 332.736115 -205.988845 
L 327.618609 -206.049428 
L 322.501104 -206.116069 
L 317.383599 -206.188769 
L 312.266093 -206.267528 
L 307.148588 -206.352344 
L 302.031082 -206.443219 
L 296.913577 -206.540152 
L 291.796071 -206.643144 
L 286.678566 -206.752194 
L 281.56106 -206.867302 
L 276.443555 -206.988469 
L 271.32605 -207.103577 
L 266.208544 -207.212627 
L 261.091039 -207.315618 
L 255.973533 -207.412551 
L 250.856028 -207.503426 
L 245.738522 -207.588243 
L 240.621017 -207.667001 
L 235.503511 -207.739701 
L 230.386006 -207.806343 
L 225.268501 -207.866926 
L 220.150995 -207.921451 
L 215.03349 -207.969917 
L 209.915984 -208.012326 
L 204.798479 -208.048676 
L 199.680973 -208.078967 
L 194.563468 -208.103201 
L 189.445962 -208.121376 
L 184.328457 -208.133492 
L 179.210952 -208.139551 
L 174.093446 -208.139551 
L 168.975941 -208.139551 
L 163.858435 -208.139551 
L 158.74093 -208.139551 
L 153.623424 -208.139551 
L 148.505919 -208.139551 
L 143.388413 -208.139551 
L 138.270908 -208.139551 
L 133.153402 -208.139551 
L 128.035897 -208.139551 
L 122.918392 -208.139551 
z
" style="stroke: #d3db57; stroke-opacity: 0.65"/>
    </defs>
    <g clip-path="url(#pa19346fddb)">
     <use xlink:href="#me3ddd28476" x="0" y="280.512" style="fill: #d3db57; fill-opacity: 0.65; stroke: #d3db57; stroke-opacity: 0.65"/>
    </g>
   </g>
   <g id="PolyCollection_27">
    <defs>
     <path id="mca10cfb745" d="M 122.918392 -218.036653 
L 122.918392 -217.816351 
L 128.035897 -217.816351 
L 133.153402 -217.816351 
L 138.270908 -217.816351 
L 143.388413 -217.816351 
L 148.505919 -217.816351 
L 153.623424 -217.816351 
L 158.74093 -217.816351 
L 163.858435 -217.816351 
L 168.975941 -217.816351 
L 174.093446 -217.816351 
L 179.210952 -217.816351 
L 184.328457 -217.613521 
L 189.445962 -217.207861 
L 194.563468 -216.59937 
L 199.680973 -215.78805 
L 204.798479 -214.7739 
L 209.915984 -213.55692 
L 215.03349 -212.13711 
L 220.150995 -210.51447 
L 225.268501 -208.689 
L 230.386006 -206.660699 
L 235.503511 -204.429569 
L 240.621017 -201.995609 
L 245.738522 -199.358818 
L 250.856028 -196.519198 
L 255.973533 -193.476748 
L 261.091039 -190.231467 
L 266.208544 -186.783357 
L 271.32605 -183.132417 
L 276.443555 -179.278646 
L 281.56106 -175.222046 
L 286.678566 -171.368275 
L 291.796071 -167.717335 
L 296.913577 -164.269224 
L 302.031082 -161.023944 
L 307.148588 -157.981494 
L 312.266093 -155.141873 
L 317.383599 -152.505083 
L 322.501104 -150.071123 
L 327.618609 -147.839992 
L 332.736115 -145.811692 
L 337.85362 -143.986222 
L 342.971126 -142.363582 
L 348.088631 -140.943772 
L 353.206137 -139.726791 
L 358.323642 -138.712641 
L 363.441148 -137.901321 
L 368.558653 -137.292831 
L 373.676158 -136.887171 
L 378.793664 -136.684341 
L 383.911169 -136.684341 
L 389.028675 -136.684341 
L 394.14618 -136.684341 
L 399.263686 -136.684341 
L 404.381191 -136.684341 
L 409.498697 -136.684341 
L 414.616202 -136.684341 
L 419.733707 -136.684341 
L 424.851213 -136.684341 
L 429.968718 -136.684341 
L 435.086224 -136.684341 
L 435.086224 -136.904644 
L 435.086224 -136.904644 
L 429.968718 -136.904644 
L 424.851213 -136.904644 
L 419.733707 -136.904644 
L 414.616202 -136.904644 
L 409.498697 -136.904644 
L 404.381191 -136.904644 
L 399.263686 -136.904644 
L 394.14618 -136.904644 
L 389.028675 -136.904644 
L 383.911169 -136.904644 
L 378.793664 -136.904644 
L 373.676158 -137.107474 
L 368.558653 -137.513134 
L 363.441148 -138.121624 
L 358.323642 -138.932944 
L 353.206137 -139.947094 
L 348.088631 -141.164074 
L 342.971126 -142.583884 
L 337.85362 -144.206525 
L 332.736115 -146.031995 
L 327.618609 -148.060295 
L 322.501104 -150.291425 
L 317.383599 -152.725386 
L 312.266093 -155.362176 
L 307.148588 -158.201796 
L 302.031082 -161.244247 
L 296.913577 -164.489527 
L 291.796071 -167.937637 
L 286.678566 -171.588578 
L 281.56106 -175.442348 
L 276.443555 -179.498949 
L 271.32605 -183.352719 
L 266.208544 -187.00366 
L 261.091039 -190.45177 
L 255.973533 -193.697051 
L 250.856028 -196.739501 
L 245.738522 -199.579121 
L 240.621017 -202.215912 
L 235.503511 -204.649872 
L 230.386006 -206.881002 
L 225.268501 -208.909302 
L 220.150995 -210.734773 
L 215.03349 -212.357413 
L 209.915984 -213.777223 
L 204.798479 -214.994203 
L 199.680973 -216.008353 
L 194.563468 -216.819673 
L 189.445962 -217.428163 
L 184.328457 -217.833823 
L 179.210952 -218.036653 
L 174.093446 -218.036653 
L 168.975941 -218.036653 
L 163.858435 -218.036653 
L 158.74093 -218.036653 
L 153.623424 -218.036653 
L 148.505919 -218.036653 
L 143.388413 -218.036653 
L 138.270908 -218.036653 
L 133.153402 -218.036653 
L 128.035897 -218.036653 
L 122.918392 -218.036653 
z
" style="stroke: #57d3db; stroke-opacity: 0.65"/>
    </defs>
    <g clip-path="url(#pa19346fddb)">
     <use xlink:href="#mca10cfb745" x="0" y="280.512" style="fill: #57d3db; fill-opacity: 0.65; stroke: #57d3db; stroke-opacity: 0.65"/>
    </g>
   </g>
   <g id="PolyCollection_28">
    <defs>
     <path id="m05beba12b3" d="M 122.918392 -260.775394 
L 122.918392 -218.036653 
L 128.035897 -218.036653 
L 133.153402 -218.036653 
L 138.270908 -218.036653 
L 143.388413 -218.036653 
L 148.505919 -218.036653 
L 153.623424 -218.036653 
L 158.74093 -218.036653 
L 163.858435 -218.036653 
L 168.975941 -218.036653 
L 174.093446 -218.036653 
L 179.210952 -218.036653 
L 184.328457 -218.005852 
L 189.445962 -217.94425 
L 194.563468 -217.851847 
L 199.680973 -217.728643 
L 204.798479 -217.574637 
L 209.915984 -217.389831 
L 215.03349 -217.174223 
L 220.150995 -216.927814 
L 225.268501 -216.650605 
L 230.386006 -216.342594 
L 235.503511 -216.003782 
L 240.621017 -215.634169 
L 245.738522 -215.233755 
L 250.856028 -214.80254 
L 255.973533 -214.340523 
L 261.091039 -213.847706 
L 266.208544 -213.324088 
L 271.32605 -212.769668 
L 276.443555 -212.184447 
L 281.56106 -211.568426 
L 286.678566 -210.983205 
L 291.796071 -210.428786 
L 296.913577 -209.905167 
L 302.031082 -209.41235 
L 307.148588 -208.950334 
L 312.266093 -208.519119 
L 317.383599 -208.118704 
L 322.501104 -207.749091 
L 327.618609 -207.41028 
L 332.736115 -207.102269 
L 337.85362 -206.825059 
L 342.971126 -206.57865 
L 348.088631 -206.363043 
L 353.206137 -206.178236 
L 358.323642 -206.024231 
L 363.441148 -205.901026 
L 368.558653 -205.808623 
L 373.676158 -205.747021 
L 378.793664 -205.71622 
L 383.911169 -205.71622 
L 389.028675 -205.71622 
L 394.14618 -205.71622 
L 399.263686 -205.71622 
L 404.381191 -205.71622 
L 409.498697 -205.71622 
L 414.616202 -205.71622 
L 419.733707 -205.71622 
L 424.851213 -205.71622 
L 429.968718 -205.71622 
L 435.086224 -205.71622 
L 435.086224 -248.454961 
L 435.086224 -248.454961 
L 429.968718 -248.454961 
L 424.851213 -248.454961 
L 419.733707 -248.454961 
L 414.616202 -248.454961 
L 409.498697 -248.454961 
L 404.381191 -248.454961 
L 399.263686 -248.454961 
L 394.14618 -248.454961 
L 389.028675 -248.454961 
L 383.911169 -248.454961 
L 378.793664 -248.454961 
L 373.676158 -248.485762 
L 368.558653 -248.547364 
L 363.441148 -248.639767 
L 358.323642 -248.762972 
L 353.206137 -248.916977 
L 348.088631 -249.101784 
L 342.971126 -249.317391 
L 337.85362 -249.5638 
L 332.736115 -249.84101 
L 327.618609 -250.149021 
L 322.501104 -250.487832 
L 317.383599 -250.857445 
L 312.266093 -251.25786 
L 307.148588 -251.689075 
L 302.031082 -252.151091 
L 296.913577 -252.643908 
L 291.796071 -253.167527 
L 286.678566 -253.721946 
L 281.56106 -254.307167 
L 276.443555 -254.923189 
L 271.32605 -255.508409 
L 266.208544 -256.062829 
L 261.091039 -256.586447 
L 255.973533 -257.079264 
L 250.856028 -257.541281 
L 245.738522 -257.972496 
L 240.621017 -258.37291 
L 235.503511 -258.742523 
L 230.386006 -259.081335 
L 225.268501 -259.389346 
L 220.150995 -259.666555 
L 215.03349 -259.912964 
L 209.915984 -260.128572 
L 204.798479 -260.313378 
L 199.680973 -260.467384 
L 194.563468 -260.590588 
L 189.445962 -260.682991 
L 184.328457 -260.744593 
L 179.210952 -260.775394 
L 174.093446 -260.775394 
L 168.975941 -260.775394 
L 163.858435 -260.775394 
L 158.74093 -260.775394 
L 153.623424 -260.775394 
L 148.505919 -260.775394 
L 143.388413 -260.775394 
L 138.270908 -260.775394 
L 133.153402 -260.775394 
L 128.035897 -260.775394 
L 122.918392 -260.775394 
z
" style="stroke: #57d3db; stroke-opacity: 0.65"/>
    </defs>
    <g clip-path="url(#pa19346fddb)">
     <use xlink:href="#m05beba12b3" x="0" y="280.512" style="fill: #57d3db; fill-opacity: 0.65; stroke: #57d3db; stroke-opacity: 0.65"/>
    </g>
   </g>
   <g id="PolyCollection_29">
    <defs>
     <path id="m32979590c4" d="M 122.918392 -261.216 
L 122.918392 -260.775394 
L 128.035897 -260.775394 
L 133.153402 -260.775394 
L 138.270908 -260.775394 
L 143.388413 -260.775394 
L 148.505919 -260.775394 
L 153.623424 -260.775394 
L 158.74093 -260.775394 
L 163.858435 -260.775394 
L 168.975941 -260.775394 
L 174.093446 -260.775394 
L 179.210952 -260.775394 
L 184.328457 -260.775394 
L 189.445962 -260.775394 
L 194.563468 -260.775394 
L 199.680973 -260.775394 
L 204.798479 -260.775394 
L 209.915984 -260.775394 
L 215.03349 -260.775394 
L 220.150995 -260.775394 
L 225.268501 -260.775394 
L 230.386006 -260.775394 
L 235.503511 -260.775394 
L 240.621017 -260.775394 
L 245.738522 -260.775394 
L 250.856028 -260.775394 
L 255.973533 -260.775394 
L 261.091039 -260.775394 
L 266.208544 -260.775394 
L 271.32605 -260.775394 
L 276.443555 -260.775394 
L 281.56106 -260.775394 
L 286.678566 -260.775394 
L 291.796071 -260.775394 
L 296.913577 -260.775394 
L 302.031082 -260.775394 
L 307.148588 -260.775394 
L 312.266093 -260.775394 
L 317.383599 -260.775394 
L 322.501104 -260.775394 
L 327.618609 -260.775394 
L 332.736115 -260.775394 
L 337.85362 -260.775394 
L 342.971126 -260.775394 
L 348.088631 -260.775394 
L 353.206137 -260.775394 
L 358.323642 -260.775394 
L 363.441148 -260.775394 
L 368.558653 -260.775394 
L 373.676158 -260.775394 
L 378.793664 -260.775394 
L 383.911169 -260.775394 
L 389.028675 -260.775394 
L 394.14618 -260.775394 
L 399.263686 -260.775394 
L 404.381191 -260.775394 
L 409.498697 -260.775394 
L 414.616202 -260.775394 
L 419.733707 -260.775394 
L 424.851213 -260.775394 
L 429.968718 -260.775394 
L 435.086224 -260.775394 
L 435.086224 -261.216 
L 435.086224 -261.216 
L 429.968718 -261.216 
L 424.851213 -261.216 
L 419.733707 -261.216 
L 414.616202 -261.216 
L 409.498697 -261.216 
L 404.381191 -261.216 
L 399.263686 -261.216 
L 394.14618 -261.216 
L 389.028675 -261.216 
L 383.911169 -261.216 
L 378.793664 -261.216 
L 373.676158 -261.216 
L 368.558653 -261.216 
L 363.441148 -261.216 
L 358.323642 -261.216 
L 353.206137 -261.216 
L 348.088631 -261.216 
L 342.971126 -261.216 
L 337.85362 -261.216 
L 332.736115 -261.216 
L 327.618609 -261.216 
L 322.501104 -261.216 
L 317.383599 -261.216 
L 312.266093 -261.216 
L 307.148588 -261.216 
L 302.031082 -261.216 
L 296.913577 -261.216 
L 291.796071 -261.216 
L 286.678566 -261.216 
L 281.56106 -261.216 
L 276.443555 -261.216 
L 271.32605 -261.216 
L 266.208544 -261.216 
L 261.091039 -261.216 
L 255.973533 -261.216 
L 250.856028 -261.216 
L 245.738522 -261.216 
L 240.621017 -261.216 
L 235.503511 -261.216 
L 230.386006 -261.216 
L 225.268501 -261.216 
L 220.150995 -261.216 
L 215.03349 -261.216 
L 209.915984 -261.216 
L 204.798479 -261.216 
L 199.680973 -261.216 
L 194.563468 -261.216 
L 189.445962 -261.216 
L 184.328457 -261.216 
L 179.210952 -261.216 
L 174.093446 -261.216 
L 168.975941 -261.216 
L 163.858435 -261.216 
L 158.74093 -261.216 
L 153.623424 -261.216 
L 148.505919 -261.216 
L 143.388413 -261.216 
L 138.270908 -261.216 
L 133.153402 -261.216 
L 128.035897 -261.216 
L 122.918392 -261.216 
z
" style="stroke: #57d3db; stroke-opacity: 0.65"/>
    </defs>
    <g clip-path="url(#pa19346fddb)">
     <use xlink:href="#m32979590c4" x="0" y="280.512" style="fill: #57d3db; fill-opacity: 0.65; stroke: #57d3db; stroke-opacity: 0.65"/>
    </g>
   </g>
   <g id="text_1">
    <!-- Astrocytes -->
    <g transform="translate(53.540625 244.809657) scale(0.12 -0.12)">
     <defs>
      <path id="TimesNewRomanPS-BoldMT-41" d="M 2663 1206 
L 1166 1206 
L 988 794 
Q 900 588 900 453 
Q 900 275 1044 191 
Q 1128 141 1459 116 
L 1459 0 
L 50 0 
L 50 116 
Q 278 150 425 304 
Q 572 459 788 944 
L 2303 4325 
L 2363 4325 
L 3891 850 
Q 4109 356 4250 228 
Q 4356 131 4550 116 
L 4550 0 
L 2500 0 
L 2500 116 
L 2584 116 
Q 2831 116 2931 184 
Q 3000 234 3000 328 
Q 3000 384 2981 444 
Q 2975 472 2888 678 
L 2663 1206 
z
M 2556 1438 
L 1925 2897 
L 1275 1438 
L 2556 1438 
z
" transform="scale(0.015625)"/>
      <path id="TimesNewRomanPS-BoldMT-73" d="M 2063 3003 
L 2109 2006 
L 2003 2006 
Q 1813 2450 1608 2612 
Q 1403 2775 1200 2775 
Q 1072 2775 981 2689 
Q 891 2603 891 2491 
Q 891 2406 953 2328 
Q 1053 2200 1512 1889 
Q 1972 1578 2117 1361 
Q 2263 1144 2263 875 
Q 2263 631 2141 397 
Q 2019 163 1797 37 
Q 1575 -88 1306 -88 
Q 1097 -88 747 44 
Q 653 78 619 78 
Q 516 78 447 -78 
L 344 -78 
L 294 972 
L 400 972 
Q 541 559 786 353 
Q 1031 147 1250 147 
Q 1400 147 1495 239 
Q 1591 331 1591 463 
Q 1591 613 1497 722 
Q 1403 831 1078 1053 
Q 600 1384 459 1559 
Q 253 1816 253 2125 
Q 253 2463 486 2736 
Q 719 3009 1159 3009 
Q 1397 3009 1619 2894 
Q 1703 2847 1756 2847 
Q 1813 2847 1847 2870 
Q 1881 2894 1956 3003 
L 2063 3003 
z
" transform="scale(0.015625)"/>
      <path id="TimesNewRomanPS-BoldMT-74" d="M 1375 3991 
L 1375 2922 
L 2069 2922 
L 2069 2613 
L 1375 2613 
L 1375 809 
Q 1375 556 1398 482 
Q 1422 409 1481 364 
Q 1541 319 1591 319 
Q 1794 319 1975 628 
L 2069 559 
Q 1816 -41 1247 -41 
Q 969 -41 776 114 
Q 584 269 531 459 
Q 500 566 500 1034 
L 500 2613 
L 119 2613 
L 119 2722 
Q 513 3000 789 3306 
Q 1066 3613 1272 3991 
L 1375 3991 
z
" transform="scale(0.015625)"/>
      <path id="TimesNewRomanPS-BoldMT-72" d="M 1428 2922 
L 1428 2259 
Q 1719 2713 1937 2861 
Q 2156 3009 2359 3009 
Q 2534 3009 2639 2901 
Q 2744 2794 2744 2597 
Q 2744 2388 2642 2272 
Q 2541 2156 2397 2156 
Q 2231 2156 2109 2262 
Q 1988 2369 1966 2381 
Q 1934 2400 1894 2400 
Q 1803 2400 1722 2331 
Q 1594 2225 1528 2028 
Q 1428 1725 1428 1359 
L 1428 688 
L 1431 513 
Q 1431 334 1453 284 
Q 1491 200 1564 161 
Q 1638 122 1813 113 
L 1813 0 
L 234 0 
L 234 113 
Q 425 128 492 217 
Q 559 306 559 688 
L 559 2303 
Q 559 2553 534 2622 
Q 503 2709 443 2750 
Q 384 2791 234 2806 
L 234 2922 
L 1428 2922 
z
" transform="scale(0.015625)"/>
      <path id="TimesNewRomanPS-BoldMT-6f" d="M 1594 3009 
Q 1975 3009 2303 2812 
Q 2631 2616 2801 2253 
Q 2972 1891 2972 1459 
Q 2972 838 2656 419 
Q 2275 -88 1603 -88 
Q 944 -88 587 375 
Q 231 838 231 1447 
Q 231 2075 595 2542 
Q 959 3009 1594 3009 
z
M 1606 2788 
Q 1447 2788 1333 2667 
Q 1219 2547 1183 2192 
Q 1147 1838 1147 1206 
Q 1147 872 1191 581 
Q 1225 359 1337 243 
Q 1450 128 1594 128 
Q 1734 128 1828 206 
Q 1950 313 1991 503 
Q 2053 800 2053 1703 
Q 2053 2234 1993 2432 
Q 1934 2631 1819 2722 
Q 1738 2788 1606 2788 
z
" transform="scale(0.015625)"/>
      <path id="TimesNewRomanPS-BoldMT-63" d="M 2600 753 
L 2697 678 
Q 2491 291 2183 101 
Q 1875 -88 1528 -88 
Q 944 -88 594 353 
Q 244 794 244 1413 
Q 244 2009 563 2463 
Q 947 3009 1622 3009 
Q 2075 3009 2342 2781 
Q 2609 2553 2609 2272 
Q 2609 2094 2501 1987 
Q 2394 1881 2219 1881 
Q 2034 1881 1914 2003 
Q 1794 2125 1766 2438 
Q 1747 2634 1675 2713 
Q 1603 2791 1506 2791 
Q 1356 2791 1250 2631 
Q 1088 2391 1088 1894 
Q 1088 1481 1219 1104 
Q 1350 728 1578 544 
Q 1750 409 1984 409 
Q 2138 409 2275 481 
Q 2413 553 2600 753 
z
" transform="scale(0.015625)"/>
      <path id="TimesNewRomanPS-BoldMT-79" d="M 1556 -119 
L 613 2047 
Q 400 2538 298 2650 
Q 197 2763 53 2806 
L 53 2922 
L 1606 2922 
L 1606 2806 
Q 1453 2800 1390 2747 
Q 1328 2694 1328 2619 
Q 1328 2500 1484 2150 
L 1984 1006 
L 2325 1891 
Q 2509 2363 2509 2547 
Q 2509 2663 2432 2731 
Q 2356 2800 2163 2806 
L 2163 2922 
L 3141 2922 
L 3141 2806 
Q 2997 2791 2906 2695 
Q 2816 2600 2603 2047 
L 1769 -119 
Q 1453 -931 1300 -1119 
Q 1084 -1381 759 -1381 
Q 500 -1381 339 -1232 
Q 178 -1084 178 -875 
Q 178 -694 289 -575 
Q 400 -456 563 -456 
Q 719 -456 814 -556 
Q 909 -656 913 -866 
Q 916 -984 941 -1019 
Q 966 -1053 1013 -1053 
Q 1088 -1053 1172 -963 
Q 1297 -831 1466 -363 
L 1556 -119 
z
" transform="scale(0.015625)"/>
      <path id="TimesNewRomanPS-BoldMT-65" d="M 2691 1566 
L 1088 1566 
Q 1116 984 1397 647 
Q 1613 388 1916 388 
Q 2103 388 2256 492 
Q 2409 597 2584 869 
L 2691 800 
Q 2453 316 2165 114 
Q 1878 -88 1500 -88 
Q 850 -88 516 413 
Q 247 816 247 1413 
Q 247 2144 642 2576 
Q 1038 3009 1569 3009 
Q 2013 3009 2339 2645 
Q 2666 2281 2691 1566 
z
M 1922 1775 
Q 1922 2278 1867 2465 
Q 1813 2653 1697 2750 
Q 1631 2806 1522 2806 
Q 1359 2806 1256 2647 
Q 1072 2369 1072 1884 
L 1072 1775 
L 1922 1775 
z
" transform="scale(0.015625)"/>
     </defs>
     <use xlink:href="#TimesNewRomanPS-BoldMT-41"/>
     <use xlink:href="#TimesNewRomanPS-BoldMT-73" x="72.216797"/>
     <use xlink:href="#TimesNewRomanPS-BoldMT-74" x="111.132812"/>
     <use xlink:href="#TimesNewRomanPS-BoldMT-72" x="144.433594"/>
     <use xlink:href="#TimesNewRomanPS-BoldMT-6f" x="187.068359"/>
     <use xlink:href="#TimesNewRomanPS-BoldMT-63" x="237.068359"/>
     <use xlink:href="#TimesNewRomanPS-BoldMT-79" x="281.453125"/>
     <use xlink:href="#TimesNewRomanPS-BoldMT-74" x="331.453125"/>
     <use xlink:href="#TimesNewRomanPS-BoldMT-65" x="364.753906"/>
     <use xlink:href="#TimesNewRomanPS-BoldMT-73" x="409.138672"/>
    </g>
   </g>
   <g id="text_2">
    <!-- Endothelial Cells -->
    <g transform="translate(19.63125 210.994465) scale(0.12 -0.12)">
     <defs>
      <path id="TimesNewRomanPS-BoldMT-45" d="M 1744 3994 
L 1744 2269 
L 1828 2269 
Q 2231 2269 2412 2522 
Q 2594 2775 2644 3269 
L 2763 3269 
L 2763 1050 
L 2644 1050 
Q 2606 1413 2486 1644 
Q 2366 1875 2206 1954 
Q 2047 2034 1744 2034 
L 1744 841 
Q 1744 491 1773 412 
Q 1803 334 1884 284 
Q 1966 234 2147 234 
L 2400 234 
Q 2994 234 3351 509 
Q 3709 784 3866 1347 
L 3981 1347 
L 3791 0 
L 128 0 
L 128 116 
L 269 116 
Q 453 116 566 181 
Q 647 225 691 331 
Q 725 406 725 725 
L 725 3513 
Q 725 3800 709 3866 
Q 678 3975 594 4034 
Q 475 4122 269 4122 
L 128 4122 
L 128 4238 
L 3675 4238 
L 3675 2984 
L 3556 2984 
Q 3466 3444 3302 3644 
Q 3138 3844 2838 3938 
Q 2663 3994 2181 3994 
L 1744 3994 
z
" transform="scale(0.015625)"/>
      <path id="TimesNewRomanPS-BoldMT-6e" d="M 1409 2922 
L 1409 2544 
Q 1634 2788 1840 2898 
Q 2047 3009 2284 3009 
Q 2569 3009 2756 2851 
Q 2944 2694 3006 2459 
Q 3056 2281 3056 1775 
L 3056 638 
Q 3056 300 3117 217 
Q 3178 134 3372 113 
L 3372 0 
L 1894 0 
L 1894 113 
Q 2059 134 2131 250 
Q 2181 328 2181 638 
L 2181 1938 
Q 2181 2297 2153 2390 
Q 2125 2484 2058 2536 
Q 1991 2588 1909 2588 
Q 1641 2588 1409 2203 
L 1409 638 
Q 1409 309 1470 221 
Q 1531 134 1697 113 
L 1697 0 
L 219 0 
L 219 113 
Q 403 131 481 231 
Q 534 300 534 638 
L 534 2288 
Q 534 2619 473 2700 
Q 413 2781 219 2806 
L 219 2922 
L 1409 2922 
z
" transform="scale(0.015625)"/>
      <path id="TimesNewRomanPS-BoldMT-64" d="M 3056 4238 
L 3056 875 
Q 3056 534 3075 472 
Q 3100 369 3170 319 
Q 3241 269 3416 256 
L 3416 153 
L 2181 -88 
L 2181 375 
Q 1959 106 1786 9 
Q 1613 -88 1394 -88 
Q 834 -88 509 413 
Q 247 819 247 1409 
Q 247 1881 409 2254 
Q 572 2628 855 2818 
Q 1138 3009 1463 3009 
Q 1672 3009 1834 2928 
Q 1997 2847 2181 2644 
L 2181 3525 
Q 2181 3859 2153 3928 
Q 2116 4019 2041 4062 
Q 1966 4106 1759 4106 
L 1759 4238 
L 3056 4238 
z
M 2181 2256 
Q 1950 2700 1616 2700 
Q 1500 2700 1425 2638 
Q 1309 2541 1236 2297 
Q 1163 2053 1163 1550 
Q 1163 997 1244 731 
Q 1325 466 1466 347 
Q 1538 288 1663 288 
Q 1938 288 2181 719 
L 2181 2256 
z
" transform="scale(0.015625)"/>
      <path id="TimesNewRomanPS-BoldMT-68" d="M 1409 4238 
L 1409 2547 
Q 1650 2800 1850 2904 
Q 2050 3009 2266 3009 
Q 2541 3009 2736 2853 
Q 2931 2697 2995 2486 
Q 3059 2275 3059 1775 
L 3059 634 
Q 3059 300 3121 217 
Q 3184 134 3375 113 
L 3375 0 
L 1894 0 
L 1894 113 
Q 2050 134 2128 238 
Q 2184 319 2184 634 
L 2184 1938 
Q 2184 2300 2156 2392 
Q 2128 2484 2061 2536 
Q 1994 2588 1909 2588 
Q 1784 2588 1665 2502 
Q 1547 2416 1409 2200 
L 1409 634 
Q 1409 322 1456 244 
Q 1516 138 1700 113 
L 1700 0 
L 219 0 
L 219 113 
Q 403 131 481 231 
Q 534 300 534 634 
L 534 3603 
Q 534 3934 473 4015 
Q 413 4097 219 4122 
L 219 4238 
L 1409 4238 
z
" transform="scale(0.015625)"/>
      <path id="TimesNewRomanPS-BoldMT-6c" d="M 1359 4238 
L 1359 606 
Q 1359 297 1431 211 
Q 1503 125 1713 113 
L 1713 0 
L 134 0 
L 134 113 
Q 328 119 422 225 
Q 484 297 484 606 
L 484 3631 
Q 484 3938 412 4023 
Q 341 4109 134 4122 
L 134 4238 
L 1359 4238 
z
" transform="scale(0.015625)"/>
      <path id="TimesNewRomanPS-BoldMT-69" d="M 919 4338 
Q 1122 4338 1262 4195 
Q 1403 4053 1403 3853 
Q 1403 3653 1261 3512 
Q 1119 3372 919 3372 
Q 719 3372 578 3512 
Q 438 3653 438 3853 
Q 438 4053 578 4195 
Q 719 4338 919 4338 
z
M 1356 2922 
L 1356 606 
Q 1356 297 1428 211 
Q 1500 125 1709 113 
L 1709 0 
L 131 0 
L 131 113 
Q 325 119 419 225 
Q 481 297 481 606 
L 481 2313 
Q 481 2622 409 2708 
Q 338 2794 131 2806 
L 131 2922 
L 1356 2922 
z
" transform="scale(0.015625)"/>
      <path id="TimesNewRomanPS-BoldMT-61" d="M 1828 431 
Q 1294 -41 869 -41 
Q 619 -41 453 123 
Q 288 288 288 534 
Q 288 869 575 1136 
Q 863 1403 1828 1847 
L 1828 2141 
Q 1828 2472 1792 2558 
Q 1756 2644 1656 2708 
Q 1556 2772 1431 2772 
Q 1228 2772 1097 2681 
Q 1016 2625 1016 2550 
Q 1016 2484 1103 2388 
Q 1222 2253 1222 2128 
Q 1222 1975 1108 1867 
Q 994 1759 809 1759 
Q 613 1759 480 1878 
Q 347 1997 347 2156 
Q 347 2381 525 2586 
Q 703 2791 1022 2900 
Q 1341 3009 1684 3009 
Q 2100 3009 2342 2832 
Q 2584 2656 2656 2450 
Q 2700 2319 2700 1847 
L 2700 713 
Q 2700 513 2715 461 
Q 2731 409 2762 384 
Q 2794 359 2834 359 
Q 2916 359 3000 475 
L 3094 400 
Q 2938 169 2770 64 
Q 2603 -41 2391 -41 
Q 2141 -41 2000 76 
Q 1859 194 1828 431 
z
M 1828 659 
L 1828 1638 
Q 1450 1416 1266 1163 
Q 1144 994 1144 822 
Q 1144 678 1247 569 
Q 1325 484 1466 484 
Q 1622 484 1828 659 
z
" transform="scale(0.015625)"/>
      <path id="TimesNewRomanPS-BoldMT-20" transform="scale(0.015625)"/>
      <path id="TimesNewRomanPS-BoldMT-43" d="M 4272 4334 
L 4272 2866 
L 4150 2866 
Q 4013 3441 3638 3747 
Q 3263 4053 2788 4053 
Q 2391 4053 2059 3825 
Q 1728 3597 1575 3228 
Q 1378 2756 1378 2178 
Q 1378 1609 1522 1142 
Q 1666 675 1972 436 
Q 2278 197 2766 197 
Q 3166 197 3498 372 
Q 3831 547 4200 975 
L 4200 609 
Q 3844 238 3458 70 
Q 3072 -97 2556 -97 
Q 1878 -97 1351 175 
Q 825 447 539 956 
Q 253 1466 253 2041 
Q 253 2647 570 3190 
Q 888 3734 1427 4034 
Q 1966 4334 2572 4334 
Q 3019 4334 3516 4141 
Q 3803 4028 3881 4028 
Q 3981 4028 4054 4101 
Q 4128 4175 4150 4334 
L 4272 4334 
z
" transform="scale(0.015625)"/>
     </defs>
     <use xlink:href="#TimesNewRomanPS-BoldMT-45"/>
     <use xlink:href="#TimesNewRomanPS-BoldMT-6e" x="66.699219"/>
     <use xlink:href="#TimesNewRomanPS-BoldMT-64" x="122.314453"/>
     <use xlink:href="#TimesNewRomanPS-BoldMT-6f" x="177.929688"/>
     <use xlink:href="#TimesNewRomanPS-BoldMT-74" x="227.929688"/>
     <use xlink:href="#TimesNewRomanPS-BoldMT-68" x="261.230469"/>
     <use xlink:href="#TimesNewRomanPS-BoldMT-65" x="316.845703"/>
     <use xlink:href="#TimesNewRomanPS-BoldMT-6c" x="361.230469"/>
     <use xlink:href="#TimesNewRomanPS-BoldMT-69" x="389.013672"/>
     <use xlink:href="#TimesNewRomanPS-BoldMT-61" x="416.796875"/>
     <use xlink:href="#TimesNewRomanPS-BoldMT-6c" x="466.796875"/>
     <use xlink:href="#TimesNewRomanPS-BoldMT-20" x="494.580078"/>
     <use xlink:href="#TimesNewRomanPS-BoldMT-43" x="519.580078"/>
     <use xlink:href="#TimesNewRomanPS-BoldMT-65" x="591.796875"/>
     <use xlink:href="#TimesNewRomanPS-BoldMT-6c" x="636.181641"/>
     <use xlink:href="#TimesNewRomanPS-BoldMT-6c" x="663.964844"/>
     <use xlink:href="#TimesNewRomanPS-BoldMT-73" x="691.748047"/>
    </g>
   </g>
   <g id="text_3">
    <!-- Excitatory Neurons -->
    <g transform="translate(7.2 170.117169) scale(0.12 -0.12)">
     <defs>
      <path id="TimesNewRomanPS-BoldMT-78" d="M 1944 1791 
L 2450 828 
Q 2713 325 2866 191 
Q 2950 119 3097 113 
L 3097 0 
L 1469 0 
L 1469 113 
Q 1659 128 1704 162 
Q 1750 197 1750 256 
Q 1750 344 1650 531 
L 1397 1006 
L 1181 691 
Q 1034 475 1016 434 
Q 991 375 991 328 
Q 991 256 1020 207 
Q 1050 159 1101 136 
Q 1153 113 1291 113 
L 1291 0 
L 147 0 
L 147 113 
Q 359 113 536 230 
Q 713 347 1050 844 
L 1291 1200 
L 788 2131 
Q 541 2588 419 2691 
Q 297 2794 147 2806 
L 147 2922 
L 1766 2922 
L 1766 2806 
L 1681 2803 
L 1519 2747 
Q 1494 2725 1494 2675 
Q 1494 2628 1509 2578 
Q 1519 2556 1597 2409 
L 1825 1984 
L 1944 2153 
Q 2194 2497 2194 2634 
Q 2194 2700 2139 2745 
Q 2084 2791 1944 2806 
L 1944 2922 
L 2978 2922 
L 2978 2806 
Q 2788 2800 2622 2689 
Q 2456 2578 2250 2259 
L 1944 1791 
z
" transform="scale(0.015625)"/>
      <path id="TimesNewRomanPS-BoldMT-4e" d="M 1594 4238 
L 3684 1609 
L 3684 3431 
Q 3684 3813 3575 3947 
Q 3425 4128 3072 4122 
L 3072 4238 
L 4472 4238 
L 4472 4122 
Q 4203 4088 4111 4033 
Q 4019 3978 3967 3854 
Q 3916 3731 3916 3431 
L 3916 -97 
L 3809 -97 
L 944 3431 
L 944 738 
Q 944 372 1111 244 
Q 1278 116 1494 116 
L 1594 116 
L 1594 0 
L 91 0 
L 91 116 
Q 441 119 578 259 
Q 716 400 716 738 
L 716 3728 
L 625 3841 
Q 491 4009 387 4062 
Q 284 4116 91 4122 
L 91 4238 
L 1594 4238 
z
" transform="scale(0.015625)"/>
      <path id="TimesNewRomanPS-BoldMT-75" d="M 3038 2922 
L 3038 634 
Q 3038 300 3100 217 
Q 3163 134 3353 113 
L 3353 0 
L 2163 0 
L 2163 391 
Q 1953 141 1743 26 
Q 1534 -88 1275 -88 
Q 1028 -88 836 64 
Q 644 216 578 419 
Q 513 622 513 1128 
L 513 2288 
Q 513 2619 452 2700 
Q 391 2781 197 2806 
L 197 2922 
L 1388 2922 
L 1388 925 
Q 1388 613 1417 522 
Q 1447 431 1511 384 
Q 1575 338 1659 338 
Q 1772 338 1863 397 
Q 1988 478 2163 725 
L 2163 2288 
Q 2163 2619 2102 2700 
Q 2041 2781 1847 2806 
L 1847 2922 
L 3038 2922 
z
" transform="scale(0.015625)"/>
     </defs>
     <use xlink:href="#TimesNewRomanPS-BoldMT-45"/>
     <use xlink:href="#TimesNewRomanPS-BoldMT-78" x="66.699219"/>
     <use xlink:href="#TimesNewRomanPS-BoldMT-63" x="116.699219"/>
     <use xlink:href="#TimesNewRomanPS-BoldMT-69" x="161.083984"/>
     <use xlink:href="#TimesNewRomanPS-BoldMT-74" x="188.867188"/>
     <use xlink:href="#TimesNewRomanPS-BoldMT-61" x="222.167969"/>
     <use xlink:href="#TimesNewRomanPS-BoldMT-74" x="272.167969"/>
     <use xlink:href="#TimesNewRomanPS-BoldMT-6f" x="305.46875"/>
     <use xlink:href="#TimesNewRomanPS-BoldMT-72" x="355.46875"/>
     <use xlink:href="#TimesNewRomanPS-BoldMT-79" x="399.853516"/>
     <use xlink:href="#TimesNewRomanPS-BoldMT-20" x="449.853516"/>
     <use xlink:href="#TimesNewRomanPS-BoldMT-4e" x="474.853516"/>
     <use xlink:href="#TimesNewRomanPS-BoldMT-65" x="547.070312"/>
     <use xlink:href="#TimesNewRomanPS-BoldMT-75" x="591.455078"/>
     <use xlink:href="#TimesNewRomanPS-BoldMT-72" x="647.070312"/>
     <use xlink:href="#TimesNewRomanPS-BoldMT-6f" x="689.705078"/>
     <use xlink:href="#TimesNewRomanPS-BoldMT-6e" x="739.705078"/>
     <use xlink:href="#TimesNewRomanPS-BoldMT-73" x="795.320312"/>
    </g>
   </g>
   <g id="text_4">
    <!-- Inhibitory Neurons -->
    <g transform="translate(8.503125 113.901405) scale(0.12 -0.12)">
     <defs>
      <path id="TimesNewRomanPS-BoldMT-49" d="M 2344 116 
L 2344 0 
L 128 0 
L 128 116 
L 269 116 
Q 453 116 566 181 
Q 647 225 691 331 
Q 725 406 725 725 
L 725 3513 
Q 725 3838 690 3919 
Q 656 4000 551 4061 
Q 447 4122 269 4122 
L 128 4122 
L 128 4238 
L 2344 4238 
L 2344 4122 
L 2203 4122 
Q 2019 4122 1906 4056 
Q 1825 4013 1778 3906 
Q 1744 3831 1744 3513 
L 1744 725 
Q 1744 400 1780 319 
Q 1816 238 1920 177 
Q 2025 116 2203 116 
L 2344 116 
z
" transform="scale(0.015625)"/>
      <path id="TimesNewRomanPS-BoldMT-62" d="M 1347 4238 
L 1347 2628 
Q 1716 3009 2153 3009 
Q 2453 3009 2718 2832 
Q 2984 2656 3134 2331 
Q 3284 2006 3284 1581 
Q 3284 1103 3093 712 
Q 2903 322 2584 117 
Q 2266 -88 1856 -88 
Q 1619 -88 1434 -12 
Q 1250 63 1072 231 
L 588 -84 
L 481 -84 
L 481 3631 
Q 481 3884 459 3944 
Q 428 4031 361 4073 
Q 294 4116 134 4122 
L 134 4238 
L 1347 4238 
z
M 1347 2350 
L 1347 1050 
Q 1347 653 1366 544 
Q 1397 359 1515 245 
Q 1634 131 1819 131 
Q 1978 131 2092 222 
Q 2206 313 2282 581 
Q 2359 850 2359 1550 
Q 2359 2222 2191 2472 
Q 2069 2653 1863 2653 
Q 1594 2653 1347 2350 
z
" transform="scale(0.015625)"/>
     </defs>
     <use xlink:href="#TimesNewRomanPS-BoldMT-49"/>
     <use xlink:href="#TimesNewRomanPS-BoldMT-6e" x="38.916016"/>
     <use xlink:href="#TimesNewRomanPS-BoldMT-68" x="94.53125"/>
     <use xlink:href="#TimesNewRomanPS-BoldMT-69" x="150.146484"/>
     <use xlink:href="#TimesNewRomanPS-BoldMT-62" x="177.929688"/>
     <use xlink:href="#TimesNewRomanPS-BoldMT-69" x="233.544922"/>
     <use xlink:href="#TimesNewRomanPS-BoldMT-74" x="261.328125"/>
     <use xlink:href="#TimesNewRomanPS-BoldMT-6f" x="294.628906"/>
     <use xlink:href="#TimesNewRomanPS-BoldMT-72" x="344.628906"/>
     <use xlink:href="#TimesNewRomanPS-BoldMT-79" x="389.013672"/>
     <use xlink:href="#TimesNewRomanPS-BoldMT-20" x="439.013672"/>
     <use xlink:href="#TimesNewRomanPS-BoldMT-4e" x="464.013672"/>
     <use xlink:href="#TimesNewRomanPS-BoldMT-65" x="536.230469"/>
     <use xlink:href="#TimesNewRomanPS-BoldMT-75" x="580.615234"/>
     <use xlink:href="#TimesNewRomanPS-BoldMT-72" x="636.230469"/>
     <use xlink:href="#TimesNewRomanPS-BoldMT-6f" x="678.865234"/>
     <use xlink:href="#TimesNewRomanPS-BoldMT-6e" x="728.865234"/>
     <use xlink:href="#TimesNewRomanPS-BoldMT-73" x="784.480469"/>
    </g>
   </g>
   <g id="text_5">
    <!-- Microglia -->
    <g transform="translate(57.538125 79.605768) scale(0.12 -0.12)">
     <defs>
      <path id="TimesNewRomanPS-BoldMT-4d" d="M 3050 1444 
L 4200 4238 
L 5925 4238 
L 5925 4122 
L 5788 4122 
Q 5600 4122 5488 4056 
Q 5409 4013 5363 3909 
Q 5328 3834 5328 3519 
L 5328 725 
Q 5328 400 5362 319 
Q 5397 238 5503 177 
Q 5609 116 5788 116 
L 5925 116 
L 5925 0 
L 3713 0 
L 3713 116 
L 3850 116 
Q 4038 116 4150 181 
Q 4228 225 4275 331 
Q 4309 406 4309 725 
L 4309 3866 
L 2684 0 
L 2609 0 
L 959 3838 
L 959 853 
Q 959 541 975 469 
Q 1016 313 1152 214 
Q 1288 116 1578 116 
L 1578 0 
L 128 0 
L 128 116 
L 172 116 
Q 313 113 434 161 
Q 556 209 618 290 
Q 681 372 716 519 
Q 722 553 722 838 
L 722 3519 
Q 722 3841 687 3920 
Q 653 4000 547 4061 
Q 441 4122 263 4122 
L 128 4122 
L 128 4238 
L 1859 4238 
L 3050 1444 
z
" transform="scale(0.015625)"/>
      <path id="TimesNewRomanPS-BoldMT-67" d="M 2091 2888 
L 3075 2888 
L 3075 2544 
L 2516 2544 
Q 2669 2391 2728 2266 
Q 2803 2097 2803 1913 
Q 2803 1600 2629 1370 
Q 2456 1141 2157 1011 
Q 1859 881 1628 881 
Q 1609 881 1253 897 
Q 1113 897 1017 805 
Q 922 713 922 584 
Q 922 472 1008 400 
Q 1094 328 1288 328 
L 1828 334 
Q 2484 334 2731 191 
Q 3084 -9 3084 -425 
Q 3084 -691 2921 -908 
Q 2759 -1125 2494 -1228 
Q 2091 -1381 1566 -1381 
Q 1172 -1381 847 -1304 
Q 522 -1228 381 -1092 
Q 241 -956 241 -806 
Q 241 -663 348 -548 
Q 456 -434 750 -356 
Q 344 -156 344 200 
Q 344 416 509 619 
Q 675 822 1034 972 
Q 616 1125 428 1375 
Q 241 1625 241 1953 
Q 241 2381 591 2695 
Q 941 3009 1491 3009 
Q 1781 3009 2091 2888 
z
M 1550 2816 
Q 1369 2816 1244 2633 
Q 1119 2450 1119 1875 
Q 1119 1409 1242 1236 
Q 1366 1063 1534 1063 
Q 1722 1063 1847 1234 
Q 1972 1406 1972 1903 
Q 1972 2463 1831 2666 
Q 1731 2816 1550 2816 
z
M 1366 -431 
Q 1047 -431 944 -484 
Q 766 -581 766 -747 
Q 766 -906 950 -1036 
Q 1134 -1166 1644 -1166 
Q 2078 -1166 2326 -1050 
Q 2575 -934 2575 -725 
Q 2575 -647 2528 -594 
Q 2444 -500 2273 -465 
Q 2103 -431 1366 -431 
z
" transform="scale(0.015625)"/>
     </defs>
     <use xlink:href="#TimesNewRomanPS-BoldMT-4d"/>
     <use xlink:href="#TimesNewRomanPS-BoldMT-69" x="94.384766"/>
     <use xlink:href="#TimesNewRomanPS-BoldMT-63" x="122.167969"/>
     <use xlink:href="#TimesNewRomanPS-BoldMT-72" x="166.552734"/>
     <use xlink:href="#TimesNewRomanPS-BoldMT-6f" x="209.1875"/>
     <use xlink:href="#TimesNewRomanPS-BoldMT-67" x="259.1875"/>
     <use xlink:href="#TimesNewRomanPS-BoldMT-6c" x="309.1875"/>
     <use xlink:href="#TimesNewRomanPS-BoldMT-69" x="336.970703"/>
     <use xlink:href="#TimesNewRomanPS-BoldMT-61" x="364.753906"/>
    </g>
   </g>
   <g id="text_6">
    <!-- Oligodendrocytes -->
    <g transform="translate(17.525625 43.768012) scale(0.12 -0.12)">
     <defs>
      <path id="TimesNewRomanPS-BoldMT-4f" d="M 2472 4297 
Q 3484 4334 4117 3706 
Q 4750 3078 4750 2134 
Q 4750 1328 4278 716 
Q 3653 -97 2513 -97 
Q 1369 -97 744 678 
Q 250 1291 250 2131 
Q 250 3075 892 3704 
Q 1534 4334 2472 4297 
z
M 2509 4097 
Q 1928 4097 1625 3503 
Q 1378 3016 1378 2103 
Q 1378 1019 1759 500 
Q 2025 138 2503 138 
Q 2825 138 3041 294 
Q 3316 494 3469 933 
Q 3622 1372 3622 2078 
Q 3622 2919 3465 3336 
Q 3309 3753 3067 3925 
Q 2825 4097 2509 4097 
z
" transform="scale(0.015625)"/>
     </defs>
     <use xlink:href="#TimesNewRomanPS-BoldMT-4f"/>
     <use xlink:href="#TimesNewRomanPS-BoldMT-6c" x="77.783203"/>
     <use xlink:href="#TimesNewRomanPS-BoldMT-69" x="105.566406"/>
     <use xlink:href="#TimesNewRomanPS-BoldMT-67" x="133.349609"/>
     <use xlink:href="#TimesNewRomanPS-BoldMT-6f" x="183.349609"/>
     <use xlink:href="#TimesNewRomanPS-BoldMT-64" x="233.349609"/>
     <use xlink:href="#TimesNewRomanPS-BoldMT-65" x="288.964844"/>
     <use xlink:href="#TimesNewRomanPS-BoldMT-6e" x="333.349609"/>
     <use xlink:href="#TimesNewRomanPS-BoldMT-64" x="388.964844"/>
     <use xlink:href="#TimesNewRomanPS-BoldMT-72" x="444.580078"/>
     <use xlink:href="#TimesNewRomanPS-BoldMT-6f" x="487.214844"/>
     <use xlink:href="#TimesNewRomanPS-BoldMT-63" x="537.214844"/>
     <use xlink:href="#TimesNewRomanPS-BoldMT-79" x="581.599609"/>
     <use xlink:href="#TimesNewRomanPS-BoldMT-74" x="631.599609"/>
     <use xlink:href="#TimesNewRomanPS-BoldMT-65" x="664.900391"/>
     <use xlink:href="#TimesNewRomanPS-BoldMT-73" x="709.285156"/>
    </g>
   </g>
   <g id="text_7">
    <!-- Astrocytes -->
    <g transform="translate(450.694615 246.351777) scale(0.12 -0.12)">
     <use xlink:href="#TimesNewRomanPS-BoldMT-41"/>
     <use xlink:href="#TimesNewRomanPS-BoldMT-73" x="72.216797"/>
     <use xlink:href="#TimesNewRomanPS-BoldMT-74" x="111.132812"/>
     <use xlink:href="#TimesNewRomanPS-BoldMT-72" x="144.433594"/>
     <use xlink:href="#TimesNewRomanPS-BoldMT-6f" x="187.068359"/>
     <use xlink:href="#TimesNewRomanPS-BoldMT-63" x="237.068359"/>
     <use xlink:href="#TimesNewRomanPS-BoldMT-79" x="281.453125"/>
     <use xlink:href="#TimesNewRomanPS-BoldMT-74" x="331.453125"/>
     <use xlink:href="#TimesNewRomanPS-BoldMT-65" x="364.753906"/>
     <use xlink:href="#TimesNewRomanPS-BoldMT-73" x="409.138672"/>
    </g>
   </g>
   <g id="text_8">
    <!-- Endothelial Cells -->
    <g transform="translate(450.694615 214.078704) scale(0.12 -0.12)">
     <use xlink:href="#TimesNewRomanPS-BoldMT-45"/>
     <use xlink:href="#TimesNewRomanPS-BoldMT-6e" x="66.699219"/>
     <use xlink:href="#TimesNewRomanPS-BoldMT-64" x="122.314453"/>
     <use xlink:href="#TimesNewRomanPS-BoldMT-6f" x="177.929688"/>
     <use xlink:href="#TimesNewRomanPS-BoldMT-74" x="227.929688"/>
     <use xlink:href="#TimesNewRomanPS-BoldMT-68" x="261.230469"/>
     <use xlink:href="#TimesNewRomanPS-BoldMT-65" x="316.845703"/>
     <use xlink:href="#TimesNewRomanPS-BoldMT-6c" x="361.230469"/>
     <use xlink:href="#TimesNewRomanPS-BoldMT-69" x="389.013672"/>
     <use xlink:href="#TimesNewRomanPS-BoldMT-61" x="416.796875"/>
     <use xlink:href="#TimesNewRomanPS-BoldMT-6c" x="466.796875"/>
     <use xlink:href="#TimesNewRomanPS-BoldMT-20" x="494.580078"/>
     <use xlink:href="#TimesNewRomanPS-BoldMT-43" x="519.580078"/>
     <use xlink:href="#TimesNewRomanPS-BoldMT-65" x="591.796875"/>
     <use xlink:href="#TimesNewRomanPS-BoldMT-6c" x="636.181641"/>
     <use xlink:href="#TimesNewRomanPS-BoldMT-6c" x="663.964844"/>
     <use xlink:href="#TimesNewRomanPS-BoldMT-73" x="691.748047"/>
    </g>
   </g>
   <g id="text_9">
    <!-- Excitatory Neurons -->
    <g transform="translate(450.694615 172.981105) scale(0.12 -0.12)">
     <use xlink:href="#TimesNewRomanPS-BoldMT-45"/>
     <use xlink:href="#TimesNewRomanPS-BoldMT-78" x="66.699219"/>
     <use xlink:href="#TimesNewRomanPS-BoldMT-63" x="116.699219"/>
     <use xlink:href="#TimesNewRomanPS-BoldMT-69" x="161.083984"/>
     <use xlink:href="#TimesNewRomanPS-BoldMT-74" x="188.867188"/>
     <use xlink:href="#TimesNewRomanPS-BoldMT-61" x="222.167969"/>
     <use xlink:href="#TimesNewRomanPS-BoldMT-74" x="272.167969"/>
     <use xlink:href="#TimesNewRomanPS-BoldMT-6f" x="305.46875"/>
     <use xlink:href="#TimesNewRomanPS-BoldMT-72" x="355.46875"/>
     <use xlink:href="#TimesNewRomanPS-BoldMT-79" x="399.853516"/>
     <use xlink:href="#TimesNewRomanPS-BoldMT-20" x="449.853516"/>
     <use xlink:href="#TimesNewRomanPS-BoldMT-4e" x="474.853516"/>
     <use xlink:href="#TimesNewRomanPS-BoldMT-65" x="547.070312"/>
     <use xlink:href="#TimesNewRomanPS-BoldMT-75" x="591.455078"/>
     <use xlink:href="#TimesNewRomanPS-BoldMT-72" x="647.070312"/>
     <use xlink:href="#TimesNewRomanPS-BoldMT-6f" x="689.705078"/>
     <use xlink:href="#TimesNewRomanPS-BoldMT-6e" x="739.705078"/>
     <use xlink:href="#TimesNewRomanPS-BoldMT-73" x="795.320312"/>
    </g>
   </g>
   <g id="text_10">
    <!-- Inhibitory Neurons -->
    <g transform="translate(450.694615 112.028831) scale(0.12 -0.12)">
     <use xlink:href="#TimesNewRomanPS-BoldMT-49"/>
     <use xlink:href="#TimesNewRomanPS-BoldMT-6e" x="38.916016"/>
     <use xlink:href="#TimesNewRomanPS-BoldMT-68" x="94.53125"/>
     <use xlink:href="#TimesNewRomanPS-BoldMT-69" x="150.146484"/>
     <use xlink:href="#TimesNewRomanPS-BoldMT-62" x="177.929688"/>
     <use xlink:href="#TimesNewRomanPS-BoldMT-69" x="233.544922"/>
     <use xlink:href="#TimesNewRomanPS-BoldMT-74" x="261.328125"/>
     <use xlink:href="#TimesNewRomanPS-BoldMT-6f" x="294.628906"/>
     <use xlink:href="#TimesNewRomanPS-BoldMT-72" x="344.628906"/>
     <use xlink:href="#TimesNewRomanPS-BoldMT-79" x="389.013672"/>
     <use xlink:href="#TimesNewRomanPS-BoldMT-20" x="439.013672"/>
     <use xlink:href="#TimesNewRomanPS-BoldMT-4e" x="464.013672"/>
     <use xlink:href="#TimesNewRomanPS-BoldMT-65" x="536.230469"/>
     <use xlink:href="#TimesNewRomanPS-BoldMT-75" x="580.615234"/>
     <use xlink:href="#TimesNewRomanPS-BoldMT-72" x="636.230469"/>
     <use xlink:href="#TimesNewRomanPS-BoldMT-6f" x="678.865234"/>
     <use xlink:href="#TimesNewRomanPS-BoldMT-6e" x="728.865234"/>
     <use xlink:href="#TimesNewRomanPS-BoldMT-73" x="784.480469"/>
    </g>
   </g>
   <g id="text_11">
    <!-- Microglia -->
    <g transform="translate(450.694615 56.253673) scale(0.12 -0.12)">
     <use xlink:href="#TimesNewRomanPS-BoldMT-4d"/>
     <use xlink:href="#TimesNewRomanPS-BoldMT-69" x="94.384766"/>
     <use xlink:href="#TimesNewRomanPS-BoldMT-63" x="122.167969"/>
     <use xlink:href="#TimesNewRomanPS-BoldMT-72" x="166.552734"/>
     <use xlink:href="#TimesNewRomanPS-BoldMT-6f" x="209.1875"/>
     <use xlink:href="#TimesNewRomanPS-BoldMT-67" x="259.1875"/>
     <use xlink:href="#TimesNewRomanPS-BoldMT-6c" x="309.1875"/>
     <use xlink:href="#TimesNewRomanPS-BoldMT-69" x="336.970703"/>
     <use xlink:href="#TimesNewRomanPS-BoldMT-61" x="364.753906"/>
    </g>
   </g>
   <g id="text_12">
    <!-- Oligodendrocytes -->
    <g transform="translate(450.694615 23.610307) scale(0.12 -0.12)">
     <use xlink:href="#TimesNewRomanPS-BoldMT-4f"/>
     <use xlink:href="#TimesNewRomanPS-BoldMT-6c" x="77.783203"/>
     <use xlink:href="#TimesNewRomanPS-BoldMT-69" x="105.566406"/>
     <use xlink:href="#TimesNewRomanPS-BoldMT-67" x="133.349609"/>
     <use xlink:href="#TimesNewRomanPS-BoldMT-6f" x="183.349609"/>
     <use xlink:href="#TimesNewRomanPS-BoldMT-64" x="233.349609"/>
     <use xlink:href="#TimesNewRomanPS-BoldMT-65" x="288.964844"/>
     <use xlink:href="#TimesNewRomanPS-BoldMT-6e" x="333.349609"/>
     <use xlink:href="#TimesNewRomanPS-BoldMT-64" x="388.964844"/>
     <use xlink:href="#TimesNewRomanPS-BoldMT-72" x="444.580078"/>
     <use xlink:href="#TimesNewRomanPS-BoldMT-6f" x="487.214844"/>
     <use xlink:href="#TimesNewRomanPS-BoldMT-63" x="537.214844"/>
     <use xlink:href="#TimesNewRomanPS-BoldMT-79" x="581.599609"/>
     <use xlink:href="#TimesNewRomanPS-BoldMT-74" x="631.599609"/>
     <use xlink:href="#TimesNewRomanPS-BoldMT-65" x="664.900391"/>
     <use xlink:href="#TimesNewRomanPS-BoldMT-73" x="709.285156"/>
    </g>
   </g>
  </g>
 </g>
 <defs>
  <clipPath id="pa19346fddb">
   <rect x="100.442308" y="7.2" width="357.12" height="266.112"/>
  </clipPath>
 </defs>
</svg>
