<?xml version="1.0" encoding="utf-8" standalone="no"?>
<!DOCTYPE svg PUBLIC "-//W3C//DTD SVG 1.1//EN"
  "http://www.w3.org/Graphics/SVG/1.1/DTD/svg11.dtd">
<svg xmlns:xlink="http://www.w3.org/1999/xlink" width="541.804615pt" height="280.512pt" viewBox="0 0 541.804615 280.512" xmlns="http://www.w3.org/2000/svg" version="1.1">
 <metadata>
  <rdf:RDF xmlns:dc="http://purl.org/dc/elements/1.1/" xmlns:cc="http://creativecommons.org/ns#" xmlns:rdf="http://www.w3.org/1999/02/22-rdf-syntax-ns#">
   <cc:Work>
    <dc:type rdf:resource="http://purl.org/dc/dcmitype/StillImage"/>
    <dc:date>2025-02-27T22:30:59.219994</dc:date>
    <dc:format>image/svg+xml</dc:format>
    <dc:creator>
     <cc:Agent>
      <dc:title>Matplotlib v3.9.3, https://matplotlib.org/</dc:title>
     </cc:Agent>
    </dc:creator>
   </cc:Work>
  </rdf:RDF>
 </metadata>
 <defs>
  <style type="text/css">*{stroke-linejoin: round; stroke-linecap: butt}</style>
 </defs>
 <g id="figure_1">
  <g id="patch_1">
   <path d="M 0 280.512 
L 541.804615 280.512 
L 541.804615 0 
L 0 0 
z
" style="fill: #ffffff"/>
  </g>
  <g id="axes_1">
   <g id="PolyCollection_1">
    <defs>
     <path id="m76acd81646" d="M 108.575035 -52.421088 
L 108.575035 -19.296 
L 114.818392 -19.296 
L 114.818392 -52.421088 
L 114.818392 -52.421088 
L 108.575035 -52.421088 
z
" style="stroke: #b9db57; stroke-opacity: 0.99"/>
    </defs>
    <g clip-path="url(#p741f51570d)">
     <use xlink:href="#m76acd81646" x="0" y="280.512" style="fill: #b9db57; fill-opacity: 0.99; stroke: #b9db57; stroke-opacity: 0.99"/>
    </g>
   </g>
   <g id="PolyCollection_2">
    <defs>
     <path id="m0b0b368a7b" d="M 108.575035 -63.807095 
L 108.575035 -62.501088 
L 114.818392 -62.501088 
L 114.818392 -63.807095 
L 114.818392 -63.807095 
L 108.575035 -63.807095 
z
" style="stroke: #5784db; stroke-opacity: 0.99"/>
    </defs>
    <g clip-path="url(#p741f51570d)">
     <use xlink:href="#m0b0b368a7b" x="0" y="280.512" style="fill: #5784db; fill-opacity: 0.99; stroke: #5784db; stroke-opacity: 0.99"/>
    </g>
   </g>
   <g id="PolyCollection_3">
    <defs>
     <path id="md80edaaebd" d="M 108.575035 -225.858827 
L 108.575035 -73.887095 
L 114.818392 -73.887095 
L 114.818392 -225.858827 
L 114.818392 -225.858827 
L 108.575035 -225.858827 
z
" style="stroke: #c957db; stroke-opacity: 0.99"/>
    </defs>
    <g clip-path="url(#p741f51570d)">
     <use xlink:href="#md80edaaebd" x="0" y="280.512" style="fill: #c957db; fill-opacity: 0.99; stroke: #c957db; stroke-opacity: 0.99"/>
    </g>
   </g>
   <g id="PolyCollection_4">
    <defs>
     <path id="mf3194e774b" d="M 108.575035 -237.957201 
L 108.575035 -235.938827 
L 114.818392 -235.938827 
L 114.818392 -237.957201 
L 114.818392 -237.957201 
L 108.575035 -237.957201 
z
" style="stroke: #57db94; stroke-opacity: 0.99"/>
    </defs>
    <g clip-path="url(#p741f51570d)">
     <use xlink:href="#mf3194e774b" x="0" y="280.512" style="fill: #57db94; fill-opacity: 0.99; stroke: #57db94; stroke-opacity: 0.99"/>
    </g>
   </g>
   <g id="PolyCollection_5">
    <defs>
     <path id="m8c91e01331" d="M 108.575035 -261.216 
L 108.575035 -248.037201 
L 114.818392 -248.037201 
L 114.818392 -261.216 
L 114.818392 -261.216 
L 108.575035 -261.216 
z
" style="stroke: #db5f57; stroke-opacity: 0.99"/>
    </defs>
    <g clip-path="url(#p741f51570d)">
     <use xlink:href="#m8c91e01331" x="0" y="280.512" style="fill: #db5f57; fill-opacity: 0.99; stroke: #db5f57; stroke-opacity: 0.99"/>
    </g>
   </g>
   <g id="PolyCollection_6">
    <defs>
     <path id="m692f224291" d="M 426.986224 -49.927802 
L 426.986224 -19.296 
L 433.22958 -19.296 
L 433.22958 -49.927802 
L 433.22958 -49.927802 
L 426.986224 -49.927802 
z
" style="stroke: #b9db57; stroke-opacity: 0.99"/>
    </defs>
    <g clip-path="url(#p741f51570d)">
     <use xlink:href="#m692f224291" x="0" y="280.512" style="fill: #b9db57; fill-opacity: 0.99; stroke: #b9db57; stroke-opacity: 0.99"/>
    </g>
   </g>
   <g id="PolyCollection_7">
    <defs>
     <path id="m9a749731b7" d="M 426.986224 -61.313809 
L 426.986224 -60.007802 
L 433.22958 -60.007802 
L 433.22958 -61.313809 
L 433.22958 -61.313809 
L 426.986224 -61.313809 
z
" style="stroke: #5784db; stroke-opacity: 0.99"/>
    </defs>
    <g clip-path="url(#p741f51570d)">
     <use xlink:href="#m9a749731b7" x="0" y="280.512" style="fill: #5784db; fill-opacity: 0.99; stroke: #5784db; stroke-opacity: 0.99"/>
    </g>
   </g>
   <g id="PolyCollection_8">
    <defs>
     <path id="m2152672476" d="M 426.986224 -225.383915 
L 426.986224 -71.393809 
L 433.22958 -71.393809 
L 433.22958 -225.383915 
L 433.22958 -225.383915 
L 426.986224 -225.383915 
z
" style="stroke: #c957db; stroke-opacity: 0.99"/>
    </defs>
    <g clip-path="url(#p741f51570d)">
     <use xlink:href="#m2152672476" x="0" y="280.512" style="fill: #c957db; fill-opacity: 0.99; stroke: #c957db; stroke-opacity: 0.99"/>
    </g>
   </g>
   <g id="PolyCollection_9">
    <defs>
     <path id="m0b799b915b" d="M 426.986224 -237.244834 
L 426.986224 -235.463915 
L 433.22958 -235.463915 
L 433.22958 -237.244834 
L 433.22958 -237.244834 
L 426.986224 -237.244834 
z
" style="stroke: #57db94; stroke-opacity: 0.99"/>
    </defs>
    <g clip-path="url(#p741f51570d)">
     <use xlink:href="#m0b799b915b" x="0" y="280.512" style="fill: #57db94; fill-opacity: 0.99; stroke: #57db94; stroke-opacity: 0.99"/>
    </g>
   </g>
   <g id="PolyCollection_10">
    <defs>
     <path id="m53c4092fbf" d="M 426.986224 -261.216 
L 426.986224 -247.324834 
L 433.22958 -247.324834 
L 433.22958 -261.216 
L 433.22958 -261.216 
L 426.986224 -261.216 
z
" style="stroke: #db5f57; stroke-opacity: 0.99"/>
    </defs>
    <g clip-path="url(#p741f51570d)">
     <use xlink:href="#m53c4092fbf" x="0" y="280.512" style="fill: #db5f57; fill-opacity: 0.99; stroke: #db5f57; stroke-opacity: 0.99"/>
    </g>
   </g>
   <g id="PolyCollection_11">
    <defs>
     <path id="m9b9510004e" d="M 114.818392 -47.909428 
L 114.818392 -19.296 
L 119.935897 -19.296 
L 125.053402 -19.296 
L 130.170908 -19.296 
L 135.288413 -19.296 
L 140.405919 -19.296 
L 145.523424 -19.296 
L 150.64093 -19.296 
L 155.758435 -19.296 
L 160.875941 -19.296 
L 165.993446 -19.296 
L 171.110952 -19.296 
L 176.228457 -19.296 
L 181.345962 -19.296 
L 186.463468 -19.296 
L 191.580973 -19.296 
L 196.698479 -19.296 
L 201.815984 -19.296 
L 206.93349 -19.296 
L 212.050995 -19.296 
L 217.168501 -19.296 
L 222.286006 -19.296 
L 227.403511 -19.296 
L 232.521017 -19.296 
L 237.638522 -19.296 
L 242.756028 -19.296 
L 247.873533 -19.296 
L 252.991039 -19.296 
L 258.108544 -19.296 
L 263.22605 -19.296 
L 268.343555 -19.296 
L 273.46106 -19.296 
L 278.578566 -19.296 
L 283.696071 -19.296 
L 288.813577 -19.296 
L 293.931082 -19.296 
L 299.048588 -19.296 
L 304.166093 -19.296 
L 309.283599 -19.296 
L 314.401104 -19.296 
L 319.518609 -19.296 
L 324.636115 -19.296 
L 329.75362 -19.296 
L 334.871126 -19.296 
L 339.988631 -19.296 
L 345.106137 -19.296 
L 350.223642 -19.296 
L 355.341148 -19.296 
L 360.458653 -19.296 
L 365.576158 -19.296 
L 370.693664 -19.296 
L 375.811169 -19.296 
L 380.928675 -19.296 
L 386.04618 -19.296 
L 391.163686 -19.296 
L 396.281191 -19.296 
L 401.398697 -19.296 
L 406.516202 -19.296 
L 411.633707 -19.296 
L 416.751213 -19.296 
L 421.868718 -19.296 
L 426.986224 -19.296 
L 426.986224 -47.909428 
L 426.986224 -47.909428 
L 421.868718 -47.909428 
L 416.751213 -47.909428 
L 411.633707 -47.909428 
L 406.516202 -47.909428 
L 401.398697 -47.909428 
L 396.281191 -47.909428 
L 391.163686 -47.909428 
L 386.04618 -47.909428 
L 380.928675 -47.909428 
L 375.811169 -47.909428 
L 370.693664 -47.909428 
L 365.576158 -47.909428 
L 360.458653 -47.909428 
L 355.341148 -47.909428 
L 350.223642 -47.909428 
L 345.106137 -47.909428 
L 339.988631 -47.909428 
L 334.871126 -47.909428 
L 329.75362 -47.909428 
L 324.636115 -47.909428 
L 319.518609 -47.909428 
L 314.401104 -47.909428 
L 309.283599 -47.909428 
L 304.166093 -47.909428 
L 299.048588 -47.909428 
L 293.931082 -47.909428 
L 288.813577 -47.909428 
L 283.696071 -47.909428 
L 278.578566 -47.909428 
L 273.46106 -47.909428 
L 268.343555 -47.909428 
L 263.22605 -47.909428 
L 258.108544 -47.909428 
L 252.991039 -47.909428 
L 247.873533 -47.909428 
L 242.756028 -47.909428 
L 237.638522 -47.909428 
L 232.521017 -47.909428 
L 227.403511 -47.909428 
L 222.286006 -47.909428 
L 217.168501 -47.909428 
L 212.050995 -47.909428 
L 206.93349 -47.909428 
L 201.815984 -47.909428 
L 196.698479 -47.909428 
L 191.580973 -47.909428 
L 186.463468 -47.909428 
L 181.345962 -47.909428 
L 176.228457 -47.909428 
L 171.110952 -47.909428 
L 165.993446 -47.909428 
L 160.875941 -47.909428 
L 155.758435 -47.909428 
L 150.64093 -47.909428 
L 145.523424 -47.909428 
L 140.405919 -47.909428 
L 135.288413 -47.909428 
L 130.170908 -47.909428 
L 125.053402 -47.909428 
L 119.935897 -47.909428 
L 114.818392 -47.909428 
z
" style="stroke: #b9db57; stroke-opacity: 0.65"/>
    </defs>
    <g clip-path="url(#p741f51570d)">
     <use xlink:href="#m9b9510004e" x="0" y="280.512" style="fill: #b9db57; fill-opacity: 0.65; stroke: #b9db57; stroke-opacity: 0.65"/>
    </g>
   </g>
   <g id="PolyCollection_12">
    <defs>
     <path id="m63551d1dbf" d="M 114.818392 -48.028155 
L 114.818392 -47.909428 
L 119.935897 -47.909428 
L 125.053402 -47.909428 
L 130.170908 -47.909428 
L 135.288413 -47.909428 
L 140.405919 -47.909428 
L 145.523424 -47.909428 
L 150.64093 -47.909428 
L 155.758435 -47.909428 
L 160.875941 -47.909428 
L 165.993446 -47.909428 
L 171.110952 -47.909428 
L 176.228457 -47.939673 
L 181.345962 -48.000165 
L 186.463468 -48.090903 
L 191.580973 -48.211887 
L 196.698479 -48.363117 
L 201.815984 -48.544592 
L 206.93349 -48.756314 
L 212.050995 -48.998281 
L 217.168501 -49.270495 
L 222.286006 -49.572954 
L 227.403511 -49.905659 
L 232.521017 -50.268611 
L 237.638522 -50.661808 
L 242.756028 -51.085251 
L 247.873533 -51.53894 
L 252.991039 -52.022875 
L 258.108544 -52.537056 
L 263.22605 -53.081483 
L 268.343555 -53.656155 
L 273.46106 -54.261074 
L 278.578566 -54.835747 
L 283.696071 -55.380174 
L 288.813577 -55.894355 
L 293.931082 -56.37829 
L 299.048588 -56.831979 
L 304.166093 -57.255422 
L 309.283599 -57.648619 
L 314.401104 -58.01157 
L 319.518609 -58.344276 
L 324.636115 -58.646735 
L 329.75362 -58.918948 
L 334.871126 -59.160916 
L 339.988631 -59.372637 
L 345.106137 -59.554113 
L 350.223642 -59.705343 
L 355.341148 -59.826327 
L 360.458653 -59.917064 
L 365.576158 -59.977556 
L 370.693664 -60.007802 
L 375.811169 -60.007802 
L 380.928675 -60.007802 
L 386.04618 -60.007802 
L 391.163686 -60.007802 
L 396.281191 -60.007802 
L 401.398697 -60.007802 
L 406.516202 -60.007802 
L 411.633707 -60.007802 
L 416.751213 -60.007802 
L 421.868718 -60.007802 
L 426.986224 -60.007802 
L 426.986224 -60.12653 
L 426.986224 -60.12653 
L 421.868718 -60.12653 
L 416.751213 -60.12653 
L 411.633707 -60.12653 
L 406.516202 -60.12653 
L 401.398697 -60.12653 
L 396.281191 -60.12653 
L 391.163686 -60.12653 
L 386.04618 -60.12653 
L 380.928675 -60.12653 
L 375.811169 -60.12653 
L 370.693664 -60.12653 
L 365.576158 -60.096284 
L 360.458653 -60.035792 
L 355.341148 -59.945054 
L 350.223642 -59.824071 
L 345.106137 -59.672841 
L 339.988631 -59.491365 
L 334.871126 -59.279644 
L 329.75362 -59.037676 
L 324.636115 -58.765463 
L 319.518609 -58.463004 
L 314.401104 -58.130298 
L 309.283599 -57.767347 
L 304.166093 -57.37415 
L 299.048588 -56.950707 
L 293.931082 -56.497018 
L 288.813577 -56.013083 
L 283.696071 -55.498902 
L 278.578566 -54.954475 
L 273.46106 -54.379802 
L 268.343555 -53.774883 
L 263.22605 -53.200211 
L 258.108544 -52.655784 
L 252.991039 -52.141603 
L 247.873533 -51.657668 
L 242.756028 -51.203979 
L 237.638522 -50.780536 
L 232.521017 -50.387339 
L 227.403511 -50.024387 
L 222.286006 -49.691682 
L 217.168501 -49.389223 
L 212.050995 -49.117009 
L 206.93349 -48.875042 
L 201.815984 -48.66332 
L 196.698479 -48.481845 
L 191.580973 -48.330615 
L 186.463468 -48.209631 
L 181.345962 -48.118893 
L 176.228457 -48.058401 
L 171.110952 -48.028155 
L 165.993446 -48.028155 
L 160.875941 -48.028155 
L 155.758435 -48.028155 
L 150.64093 -48.028155 
L 145.523424 -48.028155 
L 140.405919 -48.028155 
L 135.288413 -48.028155 
L 130.170908 -48.028155 
L 125.053402 -48.028155 
L 119.935897 -48.028155 
L 114.818392 -48.028155 
z
" style="stroke: #b9db57; stroke-opacity: 0.65"/>
    </defs>
    <g clip-path="url(#p741f51570d)">
     <use xlink:href="#m63551d1dbf" x="0" y="280.512" style="fill: #b9db57; fill-opacity: 0.65; stroke: #b9db57; stroke-opacity: 0.65"/>
    </g>
   </g>
   <g id="PolyCollection_13">
    <defs>
     <path id="macb05f6642" d="M 114.818392 -49.809074 
L 114.818392 -48.028155 
L 119.935897 -48.028155 
L 125.053402 -48.028155 
L 130.170908 -48.028155 
L 135.288413 -48.028155 
L 140.405919 -48.028155 
L 145.523424 -48.028155 
L 150.64093 -48.028155 
L 155.758435 -48.028155 
L 160.875941 -48.028155 
L 165.993446 -48.028155 
L 171.110952 -48.028155 
L 176.228457 -48.08657 
L 181.345962 -48.203398 
L 186.463468 -48.37864 
L 191.580973 -48.612297 
L 196.698479 -48.904367 
L 201.815984 -49.254852 
L 206.93349 -49.663751 
L 212.050995 -50.131064 
L 217.168501 -50.656792 
L 222.286006 -51.240933 
L 227.403511 -51.883488 
L 232.521017 -52.584458 
L 237.638522 -53.343842 
L 242.756028 -54.16164 
L 247.873533 -55.037852 
L 252.991039 -55.972478 
L 258.108544 -56.965518 
L 263.22605 -58.016972 
L 268.343555 -59.126841 
L 273.46106 -60.295124 
L 278.578566 -61.404992 
L 283.696071 -62.456447 
L 288.813577 -63.449487 
L 293.931082 -64.384113 
L 299.048588 -65.260325 
L 304.166093 -66.078123 
L 309.283599 -66.837507 
L 314.401104 -67.538476 
L 319.518609 -68.181032 
L 324.636115 -68.765173 
L 329.75362 -69.2909 
L 334.871126 -69.758213 
L 339.988631 -70.167112 
L 345.106137 -70.517597 
L 350.223642 -70.809668 
L 355.341148 -71.043324 
L 360.458653 -71.218567 
L 365.576158 -71.335395 
L 370.693664 -71.393809 
L 375.811169 -71.393809 
L 380.928675 -71.393809 
L 386.04618 -71.393809 
L 391.163686 -71.393809 
L 396.281191 -71.393809 
L 401.398697 -71.393809 
L 406.516202 -71.393809 
L 411.633707 -71.393809 
L 416.751213 -71.393809 
L 421.868718 -71.393809 
L 426.986224 -71.393809 
L 426.986224 -73.174728 
L 426.986224 -73.174728 
L 421.868718 -73.174728 
L 416.751213 -73.174728 
L 411.633707 -73.174728 
L 406.516202 -73.174728 
L 401.398697 -73.174728 
L 396.281191 -73.174728 
L 391.163686 -73.174728 
L 386.04618 -73.174728 
L 380.928675 -73.174728 
L 375.811169 -73.174728 
L 370.693664 -73.174728 
L 365.576158 -73.116314 
L 360.458653 -72.999486 
L 355.341148 -72.824243 
L 350.223642 -72.590587 
L 345.106137 -72.298516 
L 339.988631 -71.948031 
L 334.871126 -71.539132 
L 329.75362 -71.071819 
L 324.636115 -70.546092 
L 319.518609 -69.961951 
L 314.401104 -69.319395 
L 309.283599 -68.618425 
L 304.166093 -67.859042 
L 299.048588 -67.041244 
L 293.931082 -66.165032 
L 288.813577 -65.230406 
L 283.696071 -64.237365 
L 278.578566 -63.185911 
L 273.46106 -62.076042 
L 268.343555 -60.90776 
L 263.22605 -59.797891 
L 258.108544 -58.746437 
L 252.991039 -57.753396 
L 247.873533 -56.81877 
L 242.756028 -55.942558 
L 237.638522 -55.12476 
L 232.521017 -54.365377 
L 227.403511 -53.664407 
L 222.286006 -53.021852 
L 217.168501 -52.43771 
L 212.050995 -51.911983 
L 206.93349 -51.44467 
L 201.815984 -51.035771 
L 196.698479 -50.685286 
L 191.580973 -50.393216 
L 186.463468 -50.159559 
L 181.345962 -49.984317 
L 176.228457 -49.867488 
L 171.110952 -49.809074 
L 165.993446 -49.809074 
L 160.875941 -49.809074 
L 155.758435 -49.809074 
L 150.64093 -49.809074 
L 145.523424 -49.809074 
L 140.405919 -49.809074 
L 135.288413 -49.809074 
L 130.170908 -49.809074 
L 125.053402 -49.809074 
L 119.935897 -49.809074 
L 114.818392 -49.809074 
z
" style="stroke: #b9db57; stroke-opacity: 0.65"/>
    </defs>
    <g clip-path="url(#p741f51570d)">
     <use xlink:href="#macb05f6642" x="0" y="280.512" style="fill: #b9db57; fill-opacity: 0.65; stroke: #b9db57; stroke-opacity: 0.65"/>
    </g>
   </g>
   <g id="PolyCollection_14">
    <defs>
     <path id="me69fd1b862" d="M 114.818392 -50.64017 
L 114.818392 -49.809074 
L 119.935897 -49.809074 
L 125.053402 -49.809074 
L 130.170908 -49.809074 
L 135.288413 -49.809074 
L 140.405919 -49.809074 
L 145.523424 -49.809074 
L 150.64093 -49.809074 
L 155.758435 -49.809074 
L 160.875941 -49.809074 
L 165.993446 -49.809074 
L 171.110952 -49.809074 
L 176.228457 -50.273211 
L 181.345962 -51.201486 
L 186.463468 -52.593897 
L 191.580973 -54.450445 
L 196.698479 -56.771131 
L 201.815984 -59.555953 
L 206.93349 -62.804913 
L 212.050995 -66.51801 
L 217.168501 -70.695244 
L 222.286006 -75.336615 
L 227.403511 -80.442123 
L 232.521017 -86.011768 
L 237.638522 -92.045551 
L 242.756028 -98.54347 
L 247.873533 -105.505527 
L 252.991039 -112.93172 
L 258.108544 -120.822051 
L 263.22605 -129.176519 
L 268.343555 -137.995124 
L 273.46106 -147.277866 
L 278.578566 -156.096471 
L 283.696071 -164.450939 
L 288.813577 -172.341269 
L 293.931082 -179.767463 
L 299.048588 -186.729519 
L 304.166093 -193.227439 
L 309.283599 -199.261221 
L 314.401104 -204.830866 
L 319.518609 -209.936375 
L 324.636115 -214.577746 
L 329.75362 -218.75498 
L 334.871126 -222.468076 
L 339.988631 -225.717036 
L 345.106137 -228.501859 
L 350.223642 -230.822544 
L 355.341148 -232.679093 
L 360.458653 -234.071504 
L 365.576158 -234.999778 
L 370.693664 -235.463915 
L 375.811169 -235.463915 
L 380.928675 -235.463915 
L 386.04618 -235.463915 
L 391.163686 -235.463915 
L 396.281191 -235.463915 
L 401.398697 -235.463915 
L 406.516202 -235.463915 
L 411.633707 -235.463915 
L 416.751213 -235.463915 
L 421.868718 -235.463915 
L 426.986224 -235.463915 
L 426.986224 -236.295011 
L 426.986224 -236.295011 
L 421.868718 -236.295011 
L 416.751213 -236.295011 
L 411.633707 -236.295011 
L 406.516202 -236.295011 
L 401.398697 -236.295011 
L 396.281191 -236.295011 
L 391.163686 -236.295011 
L 386.04618 -236.295011 
L 380.928675 -236.295011 
L 375.811169 -236.295011 
L 370.693664 -236.295011 
L 365.576158 -235.830873 
L 360.458653 -234.902599 
L 355.341148 -233.510188 
L 350.223642 -231.65364 
L 345.106137 -229.332954 
L 339.988631 -226.548131 
L 334.871126 -223.299172 
L 329.75362 -219.586075 
L 324.636115 -215.408841 
L 319.518609 -210.76747 
L 314.401104 -205.661962 
L 309.283599 -200.092317 
L 304.166093 -194.058534 
L 299.048588 -187.560615 
L 293.931082 -180.598558 
L 288.813577 -173.172365 
L 283.696071 -165.282034 
L 278.578566 -156.927566 
L 273.46106 -148.108961 
L 268.343555 -138.826219 
L 263.22605 -130.007614 
L 258.108544 -121.653146 
L 252.991039 -113.762816 
L 247.873533 -106.336622 
L 242.756028 -99.374565 
L 237.638522 -92.876646 
L 232.521017 -86.842864 
L 227.403511 -81.273218 
L 222.286006 -76.16771 
L 217.168501 -71.526339 
L 212.050995 -67.349105 
L 206.93349 -63.636008 
L 201.815984 -60.387049 
L 196.698479 -57.602226 
L 191.580973 -55.281541 
L 186.463468 -53.424992 
L 181.345962 -52.032581 
L 176.228457 -51.104307 
L 171.110952 -50.64017 
L 165.993446 -50.64017 
L 160.875941 -50.64017 
L 155.758435 -50.64017 
L 150.64093 -50.64017 
L 145.523424 -50.64017 
L 140.405919 -50.64017 
L 135.288413 -50.64017 
L 130.170908 -50.64017 
L 125.053402 -50.64017 
L 119.935897 -50.64017 
L 114.818392 -50.64017 
z
" style="stroke: #b9db57; stroke-opacity: 0.65"/>
    </defs>
    <g clip-path="url(#p741f51570d)">
     <use xlink:href="#me69fd1b862" x="0" y="280.512" style="fill: #b9db57; fill-opacity: 0.65; stroke: #b9db57; stroke-opacity: 0.65"/>
    </g>
   </g>
   <g id="PolyCollection_15">
    <defs>
     <path id="m380ecda23e" d="M 114.818392 -52.421088 
L 114.818392 -50.64017 
L 119.935897 -50.64017 
L 125.053402 -50.64017 
L 130.170908 -50.64017 
L 135.288413 -50.64017 
L 140.405919 -50.64017 
L 145.523424 -50.64017 
L 150.64093 -50.64017 
L 155.758435 -50.64017 
L 160.875941 -50.64017 
L 165.993446 -50.64017 
L 171.110952 -50.64017 
L 176.228457 -51.131881 
L 181.345962 -52.115305 
L 186.463468 -53.59044 
L 191.580973 -55.557286 
L 196.698479 -58.015845 
L 201.815984 -60.966114 
L 206.93349 -64.408096 
L 212.050995 -68.341789 
L 217.168501 -72.767194 
L 222.286006 -77.684311 
L 227.403511 -83.093139 
L 232.521017 -88.993679 
L 237.638522 -95.385931 
L 242.756028 -102.269894 
L 247.873533 -109.645569 
L 252.991039 -117.512955 
L 258.108544 -125.872054 
L 263.22605 -134.722864 
L 268.343555 -144.065385 
L 273.46106 -153.899618 
L 278.578566 -163.24214 
L 283.696071 -172.09295 
L 288.813577 -180.452048 
L 293.931082 -188.319435 
L 299.048588 -195.69511 
L 304.166093 -202.579073 
L 309.283599 -208.971324 
L 314.401104 -214.871864 
L 319.518609 -220.280693 
L 324.636115 -225.197809 
L 329.75362 -229.623214 
L 334.871126 -233.556907 
L 339.988631 -236.998889 
L 345.106137 -239.949159 
L 350.223642 -242.407717 
L 355.341148 -244.374564 
L 360.458653 -245.849699 
L 365.576158 -246.833122 
L 370.693664 -247.324834 
L 375.811169 -247.324834 
L 380.928675 -247.324834 
L 386.04618 -247.324834 
L 391.163686 -247.324834 
L 396.281191 -247.324834 
L 401.398697 -247.324834 
L 406.516202 -247.324834 
L 411.633707 -247.324834 
L 416.751213 -247.324834 
L 421.868718 -247.324834 
L 426.986224 -247.324834 
L 426.986224 -249.105753 
L 426.986224 -249.105753 
L 421.868718 -249.105753 
L 416.751213 -249.105753 
L 411.633707 -249.105753 
L 406.516202 -249.105753 
L 401.398697 -249.105753 
L 396.281191 -249.105753 
L 391.163686 -249.105753 
L 386.04618 -249.105753 
L 380.928675 -249.105753 
L 375.811169 -249.105753 
L 370.693664 -249.105753 
L 365.576158 -248.614041 
L 360.458653 -247.630618 
L 355.341148 -246.155483 
L 350.223642 -244.188636 
L 345.106137 -241.730078 
L 339.988631 -238.779808 
L 334.871126 -235.337826 
L 329.75362 -231.404133 
L 324.636115 -226.978728 
L 319.518609 -222.061611 
L 314.401104 -216.652783 
L 309.283599 -210.752243 
L 304.166093 -204.359992 
L 299.048588 -197.476028 
L 293.931082 -190.100353 
L 288.813577 -182.232967 
L 283.696071 -173.873869 
L 278.578566 -165.023059 
L 273.46106 -155.680537 
L 268.343555 -145.846304 
L 263.22605 -136.503782 
L 258.108544 -127.652972 
L 252.991039 -119.293874 
L 247.873533 -111.426488 
L 242.756028 -104.050813 
L 237.638522 -97.166849 
L 232.521017 -90.774598 
L 227.403511 -84.874058 
L 222.286006 -79.46523 
L 217.168501 -74.548113 
L 212.050995 -70.122708 
L 206.93349 -66.189015 
L 201.815984 -62.747033 
L 196.698479 -59.796763 
L 191.580973 -57.338205 
L 186.463468 -55.371358 
L 181.345962 -53.896223 
L 176.228457 -52.9128 
L 171.110952 -52.421088 
L 165.993446 -52.421088 
L 160.875941 -52.421088 
L 155.758435 -52.421088 
L 150.64093 -52.421088 
L 145.523424 -52.421088 
L 140.405919 -52.421088 
L 135.288413 -52.421088 
L 130.170908 -52.421088 
L 125.053402 -52.421088 
L 119.935897 -52.421088 
L 114.818392 -52.421088 
z
" style="stroke: #b9db57; stroke-opacity: 0.65"/>
    </defs>
    <g clip-path="url(#p741f51570d)">
     <use xlink:href="#m380ecda23e" x="0" y="280.512" style="fill: #b9db57; fill-opacity: 0.65; stroke: #b9db57; stroke-opacity: 0.65"/>
    </g>
   </g>
   <g id="PolyCollection_16">
    <defs>
     <path id="m182a77cf21" d="M 114.818392 -63.56964 
L 114.818392 -62.501088 
L 119.935897 -62.501088 
L 125.053402 -62.501088 
L 130.170908 -62.501088 
L 135.288413 -62.501088 
L 140.405919 -62.501088 
L 145.523424 -62.501088 
L 150.64093 -62.501088 
L 155.758435 -62.501088 
L 160.875941 -62.501088 
L 165.993446 -62.501088 
L 171.110952 -62.501088 
L 176.228457 -62.495152 
L 181.345962 -62.483279 
L 186.463468 -62.46547 
L 191.580973 -62.441724 
L 196.698479 -62.412042 
L 201.815984 -62.376424 
L 206.93349 -62.334869 
L 212.050995 -62.287378 
L 217.168501 -62.233951 
L 222.286006 -62.174587 
L 227.403511 -62.109286 
L 232.521017 -62.038049 
L 237.638522 -61.960876 
L 242.756028 -61.877767 
L 247.873533 -61.788721 
L 252.991039 -61.693739 
L 258.108544 -61.59282 
L 263.22605 -61.485965 
L 268.343555 -61.373173 
L 273.46106 -61.254445 
L 278.578566 -61.141654 
L 283.696071 -61.034799 
L 288.813577 -60.93388 
L 293.931082 -60.838898 
L 299.048588 -60.749852 
L 304.166093 -60.666742 
L 309.283599 -60.589569 
L 314.401104 -60.518332 
L 319.518609 -60.453032 
L 324.636115 -60.393668 
L 329.75362 -60.34024 
L 334.871126 -60.292749 
L 339.988631 -60.251194 
L 345.106137 -60.215576 
L 350.223642 -60.185894 
L 355.341148 -60.162148 
L 360.458653 -60.144339 
L 365.576158 -60.132466 
L 370.693664 -60.12653 
L 375.811169 -60.12653 
L 380.928675 -60.12653 
L 386.04618 -60.12653 
L 391.163686 -60.12653 
L 396.281191 -60.12653 
L 401.398697 -60.12653 
L 406.516202 -60.12653 
L 411.633707 -60.12653 
L 416.751213 -60.12653 
L 421.868718 -60.12653 
L 426.986224 -60.12653 
L 426.986224 -61.195081 
L 426.986224 -61.195081 
L 421.868718 -61.195081 
L 416.751213 -61.195081 
L 411.633707 -61.195081 
L 406.516202 -61.195081 
L 401.398697 -61.195081 
L 396.281191 -61.195081 
L 391.163686 -61.195081 
L 386.04618 -61.195081 
L 380.928675 -61.195081 
L 375.811169 -61.195081 
L 370.693664 -61.195081 
L 365.576158 -61.201018 
L 360.458653 -61.21289 
L 355.341148 -61.2307 
L 350.223642 -61.254445 
L 345.106137 -61.284127 
L 339.988631 -61.319746 
L 334.871126 -61.3613 
L 329.75362 -61.408792 
L 324.636115 -61.462219 
L 319.518609 -61.521583 
L 314.401104 -61.586883 
L 309.283599 -61.65812 
L 304.166093 -61.735293 
L 299.048588 -61.818403 
L 293.931082 -61.907449 
L 288.813577 -62.002431 
L 283.696071 -62.10335 
L 278.578566 -62.210205 
L 273.46106 -62.322996 
L 268.343555 -62.441724 
L 263.22605 -62.554516 
L 258.108544 -62.661371 
L 252.991039 -62.76229 
L 247.873533 -62.857272 
L 242.756028 -62.946318 
L 237.638522 -63.029428 
L 232.521017 -63.106601 
L 227.403511 -63.177837 
L 222.286006 -63.243138 
L 217.168501 -63.302502 
L 212.050995 -63.355929 
L 206.93349 -63.40342 
L 201.815984 -63.444975 
L 196.698479 -63.480594 
L 191.580973 -63.510276 
L 186.463468 -63.534021 
L 181.345962 -63.55183 
L 176.228457 -63.563703 
L 171.110952 -63.56964 
L 165.993446 -63.56964 
L 160.875941 -63.56964 
L 155.758435 -63.56964 
L 150.64093 -63.56964 
L 145.523424 -63.56964 
L 140.405919 -63.56964 
L 135.288413 -63.56964 
L 130.170908 -63.56964 
L 125.053402 -63.56964 
L 119.935897 -63.56964 
L 114.818392 -63.56964 
z
" style="stroke: #5784db; stroke-opacity: 0.65"/>
    </defs>
    <g clip-path="url(#p741f51570d)">
     <use xlink:href="#m182a77cf21" x="0" y="280.512" style="fill: #5784db; fill-opacity: 0.65; stroke: #5784db; stroke-opacity: 0.65"/>
    </g>
   </g>
   <g id="PolyCollection_17">
    <defs>
     <path id="m15a0c5b728" d="M 114.818392 -63.807095 
L 114.818392 -63.56964 
L 119.935897 -63.56964 
L 125.053402 -63.56964 
L 130.170908 -63.56964 
L 135.288413 -63.56964 
L 140.405919 -63.56964 
L 145.523424 -63.56964 
L 150.64093 -63.56964 
L 155.758435 -63.56964 
L 160.875941 -63.56964 
L 165.993446 -63.56964 
L 171.110952 -63.56964 
L 176.228457 -64.001453 
L 181.345962 -64.86508 
L 186.463468 -66.16052 
L 191.580973 -67.887774 
L 196.698479 -70.046841 
L 201.815984 -72.637722 
L 206.93349 -75.660416 
L 212.050995 -79.114923 
L 217.168501 -83.001244 
L 222.286006 -87.319378 
L 227.403511 -92.069326 
L 232.521017 -97.251087 
L 237.638522 -102.864661 
L 242.756028 -108.910049 
L 247.873533 -115.387251 
L 252.991039 -122.296266 
L 258.108544 -129.637094 
L 263.22605 -137.409736 
L 268.343555 -145.614191 
L 273.46106 -154.250459 
L 278.578566 -162.454914 
L 283.696071 -170.227556 
L 288.813577 -177.568384 
L 293.931082 -184.477399 
L 299.048588 -190.954601 
L 304.166093 -196.999989 
L 309.283599 -202.613563 
L 314.401104 -207.795324 
L 319.518609 -212.545272 
L 324.636115 -216.863406 
L 329.75362 -220.749727 
L 334.871126 -224.204235 
L 339.988631 -227.226929 
L 345.106137 -229.817809 
L 350.223642 -231.976876 
L 355.341148 -233.70413 
L 360.458653 -234.99957 
L 365.576158 -235.863197 
L 370.693664 -236.295011 
L 375.811169 -236.295011 
L 380.928675 -236.295011 
L 386.04618 -236.295011 
L 391.163686 -236.295011 
L 396.281191 -236.295011 
L 401.398697 -236.295011 
L 406.516202 -236.295011 
L 411.633707 -236.295011 
L 416.751213 -236.295011 
L 421.868718 -236.295011 
L 426.986224 -236.295011 
L 426.986224 -236.532466 
L 426.986224 -236.532466 
L 421.868718 -236.532466 
L 416.751213 -236.532466 
L 411.633707 -236.532466 
L 406.516202 -236.532466 
L 401.398697 -236.532466 
L 396.281191 -236.532466 
L 391.163686 -236.532466 
L 386.04618 -236.532466 
L 380.928675 -236.532466 
L 375.811169 -236.532466 
L 370.693664 -236.532466 
L 365.576158 -236.100653 
L 360.458653 -235.237026 
L 355.341148 -233.941586 
L 350.223642 -232.214332 
L 345.106137 -230.055265 
L 339.988631 -227.464384 
L 334.871126 -224.44169 
L 329.75362 -220.987183 
L 324.636115 -217.100862 
L 319.518609 -212.782728 
L 314.401104 -208.03278 
L 309.283599 -202.851019 
L 304.166093 -197.237445 
L 299.048588 -191.192057 
L 293.931082 -184.714855 
L 288.813577 -177.80584 
L 283.696071 -170.465012 
L 278.578566 -162.69237 
L 273.46106 -154.487915 
L 268.343555 -145.851647 
L 263.22605 -137.647192 
L 258.108544 -129.87455 
L 252.991039 -122.533722 
L 247.873533 -115.624707 
L 242.756028 -109.147505 
L 237.638522 -103.102117 
L 232.521017 -97.488543 
L 227.403511 -92.306782 
L 222.286006 -87.556834 
L 217.168501 -83.2387 
L 212.050995 -79.352379 
L 206.93349 -75.897871 
L 201.815984 -72.875177 
L 196.698479 -70.284297 
L 191.580973 -68.12523 
L 186.463468 -66.397976 
L 181.345962 -65.102536 
L 176.228457 -64.238909 
L 171.110952 -63.807095 
L 165.993446 -63.807095 
L 160.875941 -63.807095 
L 155.758435 -63.807095 
L 150.64093 -63.807095 
L 145.523424 -63.807095 
L 140.405919 -63.807095 
L 135.288413 -63.807095 
L 130.170908 -63.807095 
L 125.053402 -63.807095 
L 119.935897 -63.807095 
L 114.818392 -63.807095 
z
" style="stroke: #5784db; stroke-opacity: 0.65"/>
    </defs>
    <g clip-path="url(#p741f51570d)">
     <use xlink:href="#m15a0c5b728" x="0" y="280.512" style="fill: #5784db; fill-opacity: 0.65; stroke: #5784db; stroke-opacity: 0.65"/>
    </g>
   </g>
   <g id="PolyCollection_18">
    <defs>
     <path id="m654c00d7bb" d="M 114.818392 -225.858827 
L 114.818392 -73.887095 
L 119.935897 -73.887095 
L 125.053402 -73.887095 
L 130.170908 -73.887095 
L 135.288413 -73.887095 
L 140.405919 -73.887095 
L 145.523424 -73.887095 
L 150.64093 -73.887095 
L 155.758435 -73.887095 
L 160.875941 -73.887095 
L 165.993446 -73.887095 
L 171.110952 -73.887095 
L 176.228457 -73.885314 
L 181.345962 -73.881753 
L 186.463468 -73.87641 
L 191.580973 -73.869286 
L 196.698479 -73.860382 
L 201.815984 -73.849696 
L 206.93349 -73.83723 
L 212.050995 -73.822982 
L 217.168501 -73.806954 
L 222.286006 -73.789145 
L 227.403511 -73.769555 
L 232.521017 -73.748184 
L 237.638522 -73.725032 
L 242.756028 -73.700099 
L 247.873533 -73.673385 
L 252.991039 -73.64489 
L 258.108544 -73.614615 
L 263.22605 -73.582558 
L 268.343555 -73.548721 
L 273.46106 -73.513102 
L 278.578566 -73.479265 
L 283.696071 -73.447208 
L 288.813577 -73.416933 
L 293.931082 -73.388438 
L 299.048588 -73.361724 
L 304.166093 -73.336792 
L 309.283599 -73.31364 
L 314.401104 -73.292269 
L 319.518609 -73.272678 
L 324.636115 -73.254869 
L 329.75362 -73.238841 
L 334.871126 -73.224594 
L 339.988631 -73.212127 
L 345.106137 -73.201442 
L 350.223642 -73.192537 
L 355.341148 -73.185413 
L 360.458653 -73.180071 
L 365.576158 -73.176509 
L 370.693664 -73.174728 
L 375.811169 -73.174728 
L 380.928675 -73.174728 
L 386.04618 -73.174728 
L 391.163686 -73.174728 
L 396.281191 -73.174728 
L 401.398697 -73.174728 
L 406.516202 -73.174728 
L 411.633707 -73.174728 
L 416.751213 -73.174728 
L 421.868718 -73.174728 
L 426.986224 -73.174728 
L 426.986224 -225.146459 
L 426.986224 -225.146459 
L 421.868718 -225.146459 
L 416.751213 -225.146459 
L 411.633707 -225.146459 
L 406.516202 -225.146459 
L 401.398697 -225.146459 
L 396.281191 -225.146459 
L 391.163686 -225.146459 
L 386.04618 -225.146459 
L 380.928675 -225.146459 
L 375.811169 -225.146459 
L 370.693664 -225.146459 
L 365.576158 -225.14824 
L 360.458653 -225.151802 
L 355.341148 -225.157145 
L 350.223642 -225.164269 
L 345.106137 -225.173173 
L 339.988631 -225.183859 
L 334.871126 -225.196325 
L 329.75362 -225.210572 
L 324.636115 -225.226601 
L 319.518609 -225.24441 
L 314.401104 -225.264 
L 309.283599 -225.285371 
L 304.166093 -225.308523 
L 299.048588 -225.333456 
L 293.931082 -225.36017 
L 288.813577 -225.388664 
L 283.696071 -225.41894 
L 278.578566 -225.450996 
L 273.46106 -225.484834 
L 268.343555 -225.520452 
L 263.22605 -225.55429 
L 258.108544 -225.586346 
L 252.991039 -225.616622 
L 247.873533 -225.645117 
L 242.756028 -225.67183 
L 237.638522 -225.696763 
L 232.521017 -225.719915 
L 227.403511 -225.741286 
L 222.286006 -225.760876 
L 217.168501 -225.778686 
L 212.050995 -225.794714 
L 206.93349 -225.808961 
L 201.815984 -225.821428 
L 196.698479 -225.832113 
L 191.580973 -225.841018 
L 186.463468 -225.848141 
L 181.345962 -225.853484 
L 176.228457 -225.857046 
L 171.110952 -225.858827 
L 165.993446 -225.858827 
L 160.875941 -225.858827 
L 155.758435 -225.858827 
L 150.64093 -225.858827 
L 145.523424 -225.858827 
L 140.405919 -225.858827 
L 135.288413 -225.858827 
L 130.170908 -225.858827 
L 125.053402 -225.858827 
L 119.935897 -225.858827 
L 114.818392 -225.858827 
z
" style="stroke: #c957db; stroke-opacity: 0.65"/>
    </defs>
    <g clip-path="url(#p741f51570d)">
     <use xlink:href="#m654c00d7bb" x="0" y="280.512" style="fill: #c957db; fill-opacity: 0.65; stroke: #c957db; stroke-opacity: 0.65"/>
    </g>
   </g>
   <g id="PolyCollection_19">
    <defs>
     <path id="m634fbfc791" d="M 114.818392 -237.007378 
L 114.818392 -235.938827 
L 119.935897 -235.938827 
L 125.053402 -235.938827 
L 130.170908 -235.938827 
L 135.288413 -235.938827 
L 140.405919 -235.938827 
L 145.523424 -235.938827 
L 150.64093 -235.938827 
L 155.758435 -235.938827 
L 160.875941 -235.938827 
L 165.993446 -235.938827 
L 171.110952 -235.938827 
L 176.228457 -235.468753 
L 181.345962 -234.528606 
L 186.463468 -233.118386 
L 191.580973 -231.238092 
L 196.698479 -228.887724 
L 201.815984 -226.067283 
L 206.93349 -222.776769 
L 212.050995 -219.016181 
L 217.168501 -214.785519 
L 222.286006 -210.084784 
L 227.403511 -204.913976 
L 232.521017 -199.273094 
L 237.638522 -193.162139 
L 242.756028 -186.58111 
L 247.873533 -179.530007 
L 252.991039 -172.008831 
L 258.108544 -164.017582 
L 263.22605 -155.556259 
L 268.343555 -146.624862 
L 273.46106 -137.223392 
L 278.578566 -128.291996 
L 283.696071 -119.830673 
L 288.813577 -111.839423 
L 293.931082 -104.318247 
L 299.048588 -97.267145 
L 304.166093 -90.686116 
L 309.283599 -84.57516 
L 314.401104 -78.934278 
L 319.518609 -73.76347 
L 324.636115 -69.062735 
L 329.75362 -64.832073 
L 334.871126 -61.071486 
L 339.988631 -57.780971 
L 345.106137 -54.96053 
L 350.223642 -52.610163 
L 355.341148 -50.729869 
L 360.458653 -49.319648 
L 365.576158 -48.379501 
L 370.693664 -47.909428 
L 375.811169 -47.909428 
L 380.928675 -47.909428 
L 386.04618 -47.909428 
L 391.163686 -47.909428 
L 396.281191 -47.909428 
L 401.398697 -47.909428 
L 406.516202 -47.909428 
L 411.633707 -47.909428 
L 416.751213 -47.909428 
L 421.868718 -47.909428 
L 426.986224 -47.909428 
L 426.986224 -48.977979 
L 426.986224 -48.977979 
L 421.868718 -48.977979 
L 416.751213 -48.977979 
L 411.633707 -48.977979 
L 406.516202 -48.977979 
L 401.398697 -48.977979 
L 396.281191 -48.977979 
L 391.163686 -48.977979 
L 386.04618 -48.977979 
L 380.928675 -48.977979 
L 375.811169 -48.977979 
L 370.693664 -48.977979 
L 365.576158 -49.448052 
L 360.458653 -50.388199 
L 355.341148 -51.79842 
L 350.223642 -53.678714 
L 345.106137 -56.029081 
L 339.988631 -58.849522 
L 334.871126 -62.140037 
L 329.75362 -65.900625 
L 324.636115 -70.131286 
L 319.518609 -74.832021 
L 314.401104 -80.00283 
L 309.283599 -85.643712 
L 304.166093 -91.754667 
L 299.048588 -98.335696 
L 293.931082 -105.386799 
L 288.813577 -112.907975 
L 283.696071 -120.899224 
L 278.578566 -129.360547 
L 273.46106 -138.291943 
L 268.343555 -147.693413 
L 263.22605 -156.62481 
L 258.108544 -165.086133 
L 252.991039 -173.077382 
L 247.873533 -180.598558 
L 242.756028 -187.649661 
L 237.638522 -194.23069 
L 232.521017 -200.341645 
L 227.403511 -205.982527 
L 222.286006 -211.153336 
L 217.168501 -215.854071 
L 212.050995 -220.084732 
L 206.93349 -223.84532 
L 201.815984 -227.135835 
L 196.698479 -229.956276 
L 191.580973 -232.306643 
L 186.463468 -234.186937 
L 181.345962 -235.597158 
L 176.228457 -236.537305 
L 171.110952 -237.007378 
L 165.993446 -237.007378 
L 160.875941 -237.007378 
L 155.758435 -237.007378 
L 150.64093 -237.007378 
L 145.523424 -237.007378 
L 140.405919 -237.007378 
L 135.288413 -237.007378 
L 130.170908 -237.007378 
L 125.053402 -237.007378 
L 119.935897 -237.007378 
L 114.818392 -237.007378 
z
" style="stroke: #57db94; stroke-opacity: 0.65"/>
    </defs>
    <g clip-path="url(#p741f51570d)">
     <use xlink:href="#m634fbfc791" x="0" y="280.512" style="fill: #57db94; fill-opacity: 0.65; stroke: #57db94; stroke-opacity: 0.65"/>
    </g>
   </g>
   <g id="PolyCollection_20">
    <defs>
     <path id="md44f44a677" d="M 114.818392 -237.126106 
L 114.818392 -237.007378 
L 119.935897 -237.007378 
L 125.053402 -237.007378 
L 130.170908 -237.007378 
L 135.288413 -237.007378 
L 140.405919 -237.007378 
L 145.523424 -237.007378 
L 150.64093 -237.007378 
L 155.758435 -237.007378 
L 160.875941 -237.007378 
L 165.993446 -237.007378 
L 171.110952 -237.007378 
L 176.228457 -236.567847 
L 181.345962 -235.688786 
L 186.463468 -234.370194 
L 191.580973 -232.612071 
L 196.698479 -230.414417 
L 201.815984 -227.777233 
L 206.93349 -224.700517 
L 212.050995 -221.184271 
L 217.168501 -217.228495 
L 222.286006 -212.833187 
L 227.403511 -207.998349 
L 232.521017 -202.72398 
L 237.638522 -197.010081 
L 242.756028 -190.85665 
L 247.873533 -184.263689 
L 252.991039 -177.231197 
L 258.108544 -169.759175 
L 263.22605 -161.847621 
L 268.343555 -153.496537 
L 273.46106 -144.705922 
L 278.578566 -136.354838 
L 283.696071 -128.443285 
L 288.813577 -120.971262 
L 293.931082 -113.93877 
L 299.048588 -107.345809 
L 304.166093 -101.192379 
L 309.283599 -95.478479 
L 314.401104 -90.20411 
L 319.518609 -85.369272 
L 324.636115 -80.973965 
L 329.75362 -77.018188 
L 334.871126 -73.501942 
L 339.988631 -70.425227 
L 345.106137 -67.788042 
L 350.223642 -65.590389 
L 355.341148 -63.832266 
L 360.458653 -62.513673 
L 365.576158 -61.634612 
L 370.693664 -61.195081 
L 375.811169 -61.195081 
L 380.928675 -61.195081 
L 386.04618 -61.195081 
L 391.163686 -61.195081 
L 396.281191 -61.195081 
L 401.398697 -61.195081 
L 406.516202 -61.195081 
L 411.633707 -61.195081 
L 416.751213 -61.195081 
L 421.868718 -61.195081 
L 426.986224 -61.195081 
L 426.986224 -61.313809 
L 426.986224 -61.313809 
L 421.868718 -61.313809 
L 416.751213 -61.313809 
L 411.633707 -61.313809 
L 406.516202 -61.313809 
L 401.398697 -61.313809 
L 396.281191 -61.313809 
L 391.163686 -61.313809 
L 386.04618 -61.313809 
L 380.928675 -61.313809 
L 375.811169 -61.313809 
L 370.693664 -61.313809 
L 365.576158 -61.75334 
L 360.458653 -62.632401 
L 355.341148 -63.950994 
L 350.223642 -65.709117 
L 345.106137 -67.90677 
L 339.988631 -70.543955 
L 334.871126 -73.62067 
L 329.75362 -77.136916 
L 324.636115 -81.092693 
L 319.518609 -85.488 
L 314.401104 -90.322838 
L 309.283599 -95.597207 
L 304.166093 -101.311107 
L 299.048588 -107.464537 
L 293.931082 -114.057498 
L 288.813577 -121.08999 
L 283.696071 -128.562013 
L 278.578566 -136.473566 
L 273.46106 -144.82465 
L 268.343555 -153.615265 
L 263.22605 -161.966349 
L 258.108544 -169.877902 
L 252.991039 -177.349925 
L 247.873533 -184.382417 
L 242.756028 -190.975378 
L 237.638522 -197.128808 
L 232.521017 -202.842708 
L 227.403511 -208.117077 
L 222.286006 -212.951915 
L 217.168501 -217.347223 
L 212.050995 -221.302999 
L 206.93349 -224.819245 
L 201.815984 -227.89596 
L 196.698479 -230.533145 
L 191.580973 -232.730799 
L 186.463468 -234.488922 
L 181.345962 -235.807514 
L 176.228457 -236.686575 
L 171.110952 -237.126106 
L 165.993446 -237.126106 
L 160.875941 -237.126106 
L 155.758435 -237.126106 
L 150.64093 -237.126106 
L 145.523424 -237.126106 
L 140.405919 -237.126106 
L 135.288413 -237.126106 
L 130.170908 -237.126106 
L 125.053402 -237.126106 
L 119.935897 -237.126106 
L 114.818392 -237.126106 
z
" style="stroke: #57db94; stroke-opacity: 0.65"/>
    </defs>
    <g clip-path="url(#p741f51570d)">
     <use xlink:href="#md44f44a677" x="0" y="280.512" style="fill: #57db94; fill-opacity: 0.65; stroke: #57db94; stroke-opacity: 0.65"/>
    </g>
   </g>
   <g id="PolyCollection_21">
    <defs>
     <path id="mbc64114913" d="M 114.818392 -237.244834 
L 114.818392 -237.126106 
L 119.935897 -237.126106 
L 125.053402 -237.126106 
L 130.170908 -237.126106 
L 135.288413 -237.126106 
L 140.405919 -237.126106 
L 145.523424 -237.126106 
L 150.64093 -237.126106 
L 155.758435 -237.126106 
L 160.875941 -237.126106 
L 165.993446 -237.126106 
L 171.110952 -237.126106 
L 176.228457 -237.096157 
L 181.345962 -237.036259 
L 186.463468 -236.946411 
L 191.580973 -236.826615 
L 196.698479 -236.676869 
L 201.815984 -236.497175 
L 206.93349 -236.287531 
L 212.050995 -236.047938 
L 217.168501 -235.778396 
L 222.286006 -235.478905 
L 227.403511 -235.149464 
L 232.521017 -234.790075 
L 237.638522 -234.400736 
L 242.756028 -233.981449 
L 247.873533 -233.532212 
L 252.991039 -233.053026 
L 258.108544 -232.543891 
L 263.22605 -232.004807 
L 268.343555 -231.435774 
L 273.46106 -230.836792 
L 278.578566 -230.267758 
L 283.696071 -229.728674 
L 288.813577 -229.219539 
L 293.931082 -228.740353 
L 299.048588 -228.291117 
L 304.166093 -227.871829 
L 309.283599 -227.48249 
L 314.401104 -227.123101 
L 319.518609 -226.793661 
L 324.636115 -226.49417 
L 329.75362 -226.224628 
L 334.871126 -225.985035 
L 339.988631 -225.775391 
L 345.106137 -225.595696 
L 350.223642 -225.445951 
L 355.341148 -225.326154 
L 360.458653 -225.236307 
L 365.576158 -225.176408 
L 370.693664 -225.146459 
L 375.811169 -225.146459 
L 380.928675 -225.146459 
L 386.04618 -225.146459 
L 391.163686 -225.146459 
L 396.281191 -225.146459 
L 401.398697 -225.146459 
L 406.516202 -225.146459 
L 411.633707 -225.146459 
L 416.751213 -225.146459 
L 421.868718 -225.146459 
L 426.986224 -225.146459 
L 426.986224 -225.265187 
L 426.986224 -225.265187 
L 421.868718 -225.265187 
L 416.751213 -225.265187 
L 411.633707 -225.265187 
L 406.516202 -225.265187 
L 401.398697 -225.265187 
L 396.281191 -225.265187 
L 391.163686 -225.265187 
L 386.04618 -225.265187 
L 380.928675 -225.265187 
L 375.811169 -225.265187 
L 370.693664 -225.265187 
L 365.576158 -225.295136 
L 360.458653 -225.355035 
L 355.341148 -225.444882 
L 350.223642 -225.564678 
L 345.106137 -225.714424 
L 339.988631 -225.894119 
L 334.871126 -226.103763 
L 329.75362 -226.343355 
L 324.636115 -226.612898 
L 319.518609 -226.912389 
L 314.401104 -227.241829 
L 309.283599 -227.601218 
L 304.166093 -227.990557 
L 299.048588 -228.409845 
L 293.931082 -228.859081 
L 288.813577 -229.338267 
L 283.696071 -229.847402 
L 278.578566 -230.386486 
L 273.46106 -230.955519 
L 268.343555 -231.554502 
L 263.22605 -232.123535 
L 258.108544 -232.662619 
L 252.991039 -233.171754 
L 247.873533 -233.65094 
L 242.756028 -234.100177 
L 237.638522 -234.519464 
L 232.521017 -234.908803 
L 227.403511 -235.268192 
L 222.286006 -235.597633 
L 217.168501 -235.897124 
L 212.050995 -236.166666 
L 206.93349 -236.406259 
L 201.815984 -236.615902 
L 196.698479 -236.795597 
L 191.580973 -236.945343 
L 186.463468 -237.065139 
L 181.345962 -237.154987 
L 176.228457 -237.214885 
L 171.110952 -237.244834 
L 165.993446 -237.244834 
L 160.875941 -237.244834 
L 155.758435 -237.244834 
L 150.64093 -237.244834 
L 145.523424 -237.244834 
L 140.405919 -237.244834 
L 135.288413 -237.244834 
L 130.170908 -237.244834 
L 125.053402 -237.244834 
L 119.935897 -237.244834 
L 114.818392 -237.244834 
z
" style="stroke: #57db94; stroke-opacity: 0.65"/>
    </defs>
    <g clip-path="url(#p741f51570d)">
     <use xlink:href="#mbc64114913" x="0" y="280.512" style="fill: #57db94; fill-opacity: 0.65; stroke: #57db94; stroke-opacity: 0.65"/>
    </g>
   </g>
   <g id="PolyCollection_22">
    <defs>
     <path id="m0861ff7878" d="M 114.818392 -237.957201 
L 114.818392 -237.244834 
L 119.935897 -237.244834 
L 125.053402 -237.244834 
L 130.170908 -237.244834 
L 135.288413 -237.244834 
L 140.405919 -237.244834 
L 145.523424 -237.244834 
L 150.64093 -237.244834 
L 155.758435 -237.244834 
L 160.875941 -237.244834 
L 165.993446 -237.244834 
L 171.110952 -237.244834 
L 176.228457 -237.243053 
L 181.345962 -237.239491 
L 186.463468 -237.234148 
L 191.580973 -237.227025 
L 196.698479 -237.21812 
L 201.815984 -237.207435 
L 206.93349 -237.194968 
L 212.050995 -237.180721 
L 217.168501 -237.164693 
L 222.286006 -237.146883 
L 227.403511 -237.127293 
L 232.521017 -237.105922 
L 237.638522 -237.08277 
L 242.756028 -237.057837 
L 247.873533 -237.031124 
L 252.991039 -237.002629 
L 258.108544 -236.972353 
L 263.22605 -236.940297 
L 268.343555 -236.906459 
L 273.46106 -236.870841 
L 278.578566 -236.837004 
L 283.696071 -236.804947 
L 288.813577 -236.774671 
L 293.931082 -236.746177 
L 299.048588 -236.719463 
L 304.166093 -236.69453 
L 309.283599 -236.671378 
L 314.401104 -236.650007 
L 319.518609 -236.630417 
L 324.636115 -236.612608 
L 329.75362 -236.59658 
L 334.871126 -236.582332 
L 339.988631 -236.569866 
L 345.106137 -236.55918 
L 350.223642 -236.550276 
L 355.341148 -236.543152 
L 360.458653 -236.537809 
L 365.576158 -236.534247 
L 370.693664 -236.532466 
L 375.811169 -236.532466 
L 380.928675 -236.532466 
L 386.04618 -236.532466 
L 391.163686 -236.532466 
L 396.281191 -236.532466 
L 401.398697 -236.532466 
L 406.516202 -236.532466 
L 411.633707 -236.532466 
L 416.751213 -236.532466 
L 421.868718 -236.532466 
L 426.986224 -236.532466 
L 426.986224 -237.244834 
L 426.986224 -237.244834 
L 421.868718 -237.244834 
L 416.751213 -237.244834 
L 411.633707 -237.244834 
L 406.516202 -237.244834 
L 401.398697 -237.244834 
L 396.281191 -237.244834 
L 391.163686 -237.244834 
L 386.04618 -237.244834 
L 380.928675 -237.244834 
L 375.811169 -237.244834 
L 370.693664 -237.244834 
L 365.576158 -237.246615 
L 360.458653 -237.250177 
L 355.341148 -237.255519 
L 350.223642 -237.262643 
L 345.106137 -237.271548 
L 339.988631 -237.282233 
L 334.871126 -237.2947 
L 329.75362 -237.308947 
L 324.636115 -237.324975 
L 319.518609 -237.342784 
L 314.401104 -237.362375 
L 309.283599 -237.383746 
L 304.166093 -237.406898 
L 299.048588 -237.43183 
L 293.931082 -237.458544 
L 288.813577 -237.487039 
L 283.696071 -237.517314 
L 278.578566 -237.549371 
L 273.46106 -237.583208 
L 268.343555 -237.618827 
L 263.22605 -237.652664 
L 258.108544 -237.684721 
L 252.991039 -237.714996 
L 247.873533 -237.743491 
L 242.756028 -237.770205 
L 237.638522 -237.795138 
L 232.521017 -237.81829 
L 227.403511 -237.839661 
L 222.286006 -237.859251 
L 217.168501 -237.87706 
L 212.050995 -237.893088 
L 206.93349 -237.907336 
L 201.815984 -237.919802 
L 196.698479 -237.930488 
L 191.580973 -237.939392 
L 186.463468 -237.946516 
L 181.345962 -237.951859 
L 176.228457 -237.95542 
L 171.110952 -237.957201 
L 165.993446 -237.957201 
L 160.875941 -237.957201 
L 155.758435 -237.957201 
L 150.64093 -237.957201 
L 145.523424 -237.957201 
L 140.405919 -237.957201 
L 135.288413 -237.957201 
L 130.170908 -237.957201 
L 125.053402 -237.957201 
L 119.935897 -237.957201 
L 114.818392 -237.957201 
z
" style="stroke: #57db94; stroke-opacity: 0.65"/>
    </defs>
    <g clip-path="url(#p741f51570d)">
     <use xlink:href="#m0861ff7878" x="0" y="280.512" style="fill: #57db94; fill-opacity: 0.65; stroke: #57db94; stroke-opacity: 0.65"/>
    </g>
   </g>
   <g id="PolyCollection_23">
    <defs>
     <path id="m327667669c" d="M 114.818392 -248.987025 
L 114.818392 -248.037201 
L 119.935897 -248.037201 
L 125.053402 -248.037201 
L 130.170908 -248.037201 
L 135.288413 -248.037201 
L 140.405919 -248.037201 
L 145.523424 -248.037201 
L 150.64093 -248.037201 
L 155.758435 -248.037201 
L 160.875941 -248.037201 
L 165.993446 -248.037201 
L 171.110952 -248.037201 
L 176.228457 -247.539553 
L 181.345962 -246.544257 
L 186.463468 -245.051313 
L 191.580973 -243.060721 
L 196.698479 -240.572481 
L 201.815984 -237.586592 
L 206.93349 -234.103056 
L 212.050995 -230.121871 
L 217.168501 -225.643039 
L 222.286006 -220.666558 
L 227.403511 -215.19243 
L 232.521017 -209.220653 
L 237.638522 -202.751228 
L 242.756028 -195.784155 
L 247.873533 -188.319435 
L 252.991039 -180.357066 
L 258.108544 -171.897049 
L 263.22605 -162.939384 
L 268.343555 -153.484071 
L 273.46106 -143.53111 
L 278.578566 -134.075796 
L 283.696071 -125.118131 
L 288.813577 -116.658114 
L 293.931082 -108.695746 
L 299.048588 -101.231025 
L 304.166093 -94.263952 
L 309.283599 -87.794527 
L 314.401104 -81.822751 
L 319.518609 -76.348622 
L 324.636115 -71.372141 
L 329.75362 -66.893309 
L 334.871126 -62.912124 
L 339.988631 -59.428588 
L 345.106137 -56.4427 
L 350.223642 -53.954459 
L 355.341148 -51.963867 
L 360.458653 -50.470923 
L 365.576158 -49.475627 
L 370.693664 -48.977979 
L 375.811169 -48.977979 
L 380.928675 -48.977979 
L 386.04618 -48.977979 
L 391.163686 -48.977979 
L 396.281191 -48.977979 
L 401.398697 -48.977979 
L 406.516202 -48.977979 
L 411.633707 -48.977979 
L 416.751213 -48.977979 
L 421.868718 -48.977979 
L 426.986224 -48.977979 
L 426.986224 -49.927802 
L 426.986224 -49.927802 
L 421.868718 -49.927802 
L 416.751213 -49.927802 
L 411.633707 -49.927802 
L 406.516202 -49.927802 
L 401.398697 -49.927802 
L 396.281191 -49.927802 
L 391.163686 -49.927802 
L 386.04618 -49.927802 
L 380.928675 -49.927802 
L 375.811169 -49.927802 
L 370.693664 -49.927802 
L 365.576158 -50.42545 
L 360.458653 -51.420746 
L 355.341148 -52.91369 
L 350.223642 -54.904283 
L 345.106137 -57.392523 
L 339.988631 -60.378411 
L 334.871126 -63.861948 
L 329.75362 -67.843132 
L 324.636115 -72.321965 
L 319.518609 -77.298445 
L 314.401104 -82.772574 
L 309.283599 -88.744351 
L 304.166093 -95.213775 
L 299.048588 -102.180848 
L 293.931082 -109.645569 
L 288.813577 -117.607938 
L 283.696071 -126.067955 
L 278.578566 -135.02562 
L 273.46106 -144.480933 
L 268.343555 -154.433894 
L 263.22605 -163.889207 
L 258.108544 -172.846872 
L 252.991039 -181.306889 
L 247.873533 -189.269258 
L 242.756028 -196.733979 
L 237.638522 -203.701052 
L 232.521017 -210.170476 
L 227.403511 -216.142253 
L 222.286006 -221.616382 
L 217.168501 -226.592862 
L 212.050995 -231.071695 
L 206.93349 -235.052879 
L 201.815984 -238.536416 
L 196.698479 -241.522304 
L 191.580973 -244.010544 
L 186.463468 -246.001136 
L 181.345962 -247.494081 
L 176.228457 -248.489377 
L 171.110952 -248.987025 
L 165.993446 -248.987025 
L 160.875941 -248.987025 
L 155.758435 -248.987025 
L 150.64093 -248.987025 
L 145.523424 -248.987025 
L 140.405919 -248.987025 
L 135.288413 -248.987025 
L 130.170908 -248.987025 
L 125.053402 -248.987025 
L 119.935897 -248.987025 
L 114.818392 -248.987025 
z
" style="stroke: #db5f57; stroke-opacity: 0.65"/>
    </defs>
    <g clip-path="url(#p741f51570d)">
     <use xlink:href="#m327667669c" x="0" y="280.512" style="fill: #db5f57; fill-opacity: 0.65; stroke: #db5f57; stroke-opacity: 0.65"/>
    </g>
   </g>
   <g id="PolyCollection_24">
    <defs>
     <path id="m0808bd5e76" d="M 114.818392 -249.105753 
L 114.818392 -248.987025 
L 119.935897 -248.987025 
L 125.053402 -248.987025 
L 130.170908 -248.987025 
L 135.288413 -248.987025 
L 140.405919 -248.987025 
L 145.523424 -248.987025 
L 150.64093 -248.987025 
L 155.758435 -248.987025 
L 160.875941 -248.987025 
L 165.993446 -248.987025 
L 171.110952 -248.987025 
L 176.228457 -248.92772 
L 181.345962 -248.809111 
L 186.463468 -248.631197 
L 191.580973 -248.393979 
L 196.698479 -248.097456 
L 201.815984 -247.741628 
L 206.93349 -247.326496 
L 212.050995 -246.852059 
L 217.168501 -246.318318 
L 222.286006 -245.725272 
L 227.403511 -245.072922 
L 232.521017 -244.361266 
L 237.638522 -243.590307 
L 242.756028 -242.760042 
L 247.873533 -241.870473 
L 252.991039 -240.9216 
L 258.108544 -239.913422 
L 263.22605 -238.845939 
L 268.343555 -237.719152 
L 273.46106 -236.53306 
L 278.578566 -235.406273 
L 283.696071 -234.33879 
L 288.813577 -233.330612 
L 293.931082 -232.381739 
L 299.048588 -231.49217 
L 304.166093 -230.661905 
L 309.283599 -229.890946 
L 314.401104 -229.17929 
L 319.518609 -228.52694 
L 324.636115 -227.933894 
L 329.75362 -227.400153 
L 334.871126 -226.925716 
L 339.988631 -226.510584 
L 345.106137 -226.154756 
L 350.223642 -225.858233 
L 355.341148 -225.621015 
L 360.458653 -225.443101 
L 365.576158 -225.324492 
L 370.693664 -225.265187 
L 375.811169 -225.265187 
L 380.928675 -225.265187 
L 386.04618 -225.265187 
L 391.163686 -225.265187 
L 396.281191 -225.265187 
L 401.398697 -225.265187 
L 406.516202 -225.265187 
L 411.633707 -225.265187 
L 416.751213 -225.265187 
L 421.868718 -225.265187 
L 426.986224 -225.265187 
L 426.986224 -225.383915 
L 426.986224 -225.383915 
L 421.868718 -225.383915 
L 416.751213 -225.383915 
L 411.633707 -225.383915 
L 406.516202 -225.383915 
L 401.398697 -225.383915 
L 396.281191 -225.383915 
L 391.163686 -225.383915 
L 386.04618 -225.383915 
L 380.928675 -225.383915 
L 375.811169 -225.383915 
L 370.693664 -225.383915 
L 365.576158 -225.44322 
L 360.458653 -225.561829 
L 355.341148 -225.739743 
L 350.223642 -225.976961 
L 345.106137 -226.273484 
L 339.988631 -226.629312 
L 334.871126 -227.044444 
L 329.75362 -227.518881 
L 324.636115 -228.052622 
L 319.518609 -228.645668 
L 314.401104 -229.298018 
L 309.283599 -230.009673 
L 304.166093 -230.780633 
L 299.048588 -231.610898 
L 293.931082 -232.500466 
L 288.813577 -233.44934 
L 283.696071 -234.457518 
L 278.578566 -235.525001 
L 273.46106 -236.651788 
L 268.343555 -237.83788 
L 263.22605 -238.964667 
L 258.108544 -240.03215 
L 252.991039 -241.040328 
L 247.873533 -241.989201 
L 242.756028 -242.87877 
L 237.638522 -243.709035 
L 232.521017 -244.479994 
L 227.403511 -245.191649 
L 222.286006 -245.844 
L 217.168501 -246.437046 
L 212.050995 -246.970787 
L 206.93349 -247.445224 
L 201.815984 -247.860356 
L 196.698479 -248.216184 
L 191.580973 -248.512707 
L 186.463468 -248.749925 
L 181.345962 -248.927839 
L 176.228457 -249.046448 
L 171.110952 -249.105753 
L 165.993446 -249.105753 
L 160.875941 -249.105753 
L 155.758435 -249.105753 
L 150.64093 -249.105753 
L 145.523424 -249.105753 
L 140.405919 -249.105753 
L 135.288413 -249.105753 
L 130.170908 -249.105753 
L 125.053402 -249.105753 
L 119.935897 -249.105753 
L 114.818392 -249.105753 
z
" style="stroke: #db5f57; stroke-opacity: 0.65"/>
    </defs>
    <g clip-path="url(#p741f51570d)">
     <use xlink:href="#m0808bd5e76" x="0" y="280.512" style="fill: #db5f57; fill-opacity: 0.65; stroke: #db5f57; stroke-opacity: 0.65"/>
    </g>
   </g>
   <g id="PolyCollection_25">
    <defs>
     <path id="m9f1dfcf7d4" d="M 114.818392 -261.216 
L 114.818392 -249.105753 
L 119.935897 -249.105753 
L 125.053402 -249.105753 
L 130.170908 -249.105753 
L 135.288413 -249.105753 
L 140.405919 -249.105753 
L 145.523424 -249.105753 
L 150.64093 -249.105753 
L 155.758435 -249.105753 
L 160.875941 -249.105753 
L 165.993446 -249.105753 
L 171.110952 -249.105753 
L 176.228457 -249.105753 
L 181.345962 -249.105753 
L 186.463468 -249.105753 
L 191.580973 -249.105753 
L 196.698479 -249.105753 
L 201.815984 -249.105753 
L 206.93349 -249.105753 
L 212.050995 -249.105753 
L 217.168501 -249.105753 
L 222.286006 -249.105753 
L 227.403511 -249.105753 
L 232.521017 -249.105753 
L 237.638522 -249.105753 
L 242.756028 -249.105753 
L 247.873533 -249.105753 
L 252.991039 -249.105753 
L 258.108544 -249.105753 
L 263.22605 -249.105753 
L 268.343555 -249.105753 
L 273.46106 -249.105753 
L 278.578566 -249.105753 
L 283.696071 -249.105753 
L 288.813577 -249.105753 
L 293.931082 -249.105753 
L 299.048588 -249.105753 
L 304.166093 -249.105753 
L 309.283599 -249.105753 
L 314.401104 -249.105753 
L 319.518609 -249.105753 
L 324.636115 -249.105753 
L 329.75362 -249.105753 
L 334.871126 -249.105753 
L 339.988631 -249.105753 
L 345.106137 -249.105753 
L 350.223642 -249.105753 
L 355.341148 -249.105753 
L 360.458653 -249.105753 
L 365.576158 -249.105753 
L 370.693664 -249.105753 
L 375.811169 -249.105753 
L 380.928675 -249.105753 
L 386.04618 -249.105753 
L 391.163686 -249.105753 
L 396.281191 -249.105753 
L 401.398697 -249.105753 
L 406.516202 -249.105753 
L 411.633707 -249.105753 
L 416.751213 -249.105753 
L 421.868718 -249.105753 
L 426.986224 -249.105753 
L 426.986224 -261.216 
L 426.986224 -261.216 
L 421.868718 -261.216 
L 416.751213 -261.216 
L 411.633707 -261.216 
L 406.516202 -261.216 
L 401.398697 -261.216 
L 396.281191 -261.216 
L 391.163686 -261.216 
L 386.04618 -261.216 
L 380.928675 -261.216 
L 375.811169 -261.216 
L 370.693664 -261.216 
L 365.576158 -261.216 
L 360.458653 -261.216 
L 355.341148 -261.216 
L 350.223642 -261.216 
L 345.106137 -261.216 
L 339.988631 -261.216 
L 334.871126 -261.216 
L 329.75362 -261.216 
L 324.636115 -261.216 
L 319.518609 -261.216 
L 314.401104 -261.216 
L 309.283599 -261.216 
L 304.166093 -261.216 
L 299.048588 -261.216 
L 293.931082 -261.216 
L 288.813577 -261.216 
L 283.696071 -261.216 
L 278.578566 -261.216 
L 273.46106 -261.216 
L 268.343555 -261.216 
L 263.22605 -261.216 
L 258.108544 -261.216 
L 252.991039 -261.216 
L 247.873533 -261.216 
L 242.756028 -261.216 
L 237.638522 -261.216 
L 232.521017 -261.216 
L 227.403511 -261.216 
L 222.286006 -261.216 
L 217.168501 -261.216 
L 212.050995 -261.216 
L 206.93349 -261.216 
L 201.815984 -261.216 
L 196.698479 -261.216 
L 191.580973 -261.216 
L 186.463468 -261.216 
L 181.345962 -261.216 
L 176.228457 -261.216 
L 171.110952 -261.216 
L 165.993446 -261.216 
L 160.875941 -261.216 
L 155.758435 -261.216 
L 150.64093 -261.216 
L 145.523424 -261.216 
L 140.405919 -261.216 
L 135.288413 -261.216 
L 130.170908 -261.216 
L 125.053402 -261.216 
L 119.935897 -261.216 
L 114.818392 -261.216 
z
" style="stroke: #db5f57; stroke-opacity: 0.65"/>
    </defs>
    <g clip-path="url(#p741f51570d)">
     <use xlink:href="#m9f1dfcf7d4" x="0" y="280.512" style="fill: #db5f57; fill-opacity: 0.65; stroke: #db5f57; stroke-opacity: 0.65"/>
    </g>
   </g>
   <g id="text_1">
    <!-- B cells -->
    <g transform="translate(66.21375 247.343143) scale(0.12 -0.12)">
     <defs>
      <path id="TimesNewRomanPS-BoldMT-42" d="M 2847 2247 
Q 3450 2106 3694 1906 
Q 4044 1622 4044 1169 
Q 4044 691 3659 378 
Q 3188 0 2288 0 
L 134 0 
L 134 116 
Q 428 116 533 170 
Q 638 225 680 312 
Q 722 400 722 744 
L 722 3494 
Q 722 3838 680 3927 
Q 638 4016 531 4069 
Q 425 4122 134 4122 
L 134 4238 
L 2166 4238 
Q 2894 4238 3197 4108 
Q 3500 3978 3675 3720 
Q 3850 3463 3850 3172 
Q 3850 2866 3628 2627 
Q 3406 2388 2847 2247 
z
M 1709 2331 
Q 2153 2331 2364 2431 
Q 2575 2531 2687 2712 
Q 2800 2894 2800 3175 
Q 2800 3456 2689 3636 
Q 2578 3816 2372 3909 
Q 2166 4003 1709 4000 
L 1709 2331 
z
M 1709 2088 
L 1709 728 
L 1706 572 
Q 1706 403 1792 317 
Q 1878 231 2047 231 
Q 2297 231 2508 342 
Q 2719 453 2831 664 
Q 2944 875 2944 1134 
Q 2944 1431 2806 1667 
Q 2669 1903 2428 1997 
Q 2188 2091 1709 2088 
z
" transform="scale(0.015625)"/>
      <path id="TimesNewRomanPS-BoldMT-20" transform="scale(0.015625)"/>
      <path id="TimesNewRomanPS-BoldMT-63" d="M 2600 753 
L 2697 678 
Q 2491 291 2183 101 
Q 1875 -88 1528 -88 
Q 944 -88 594 353 
Q 244 794 244 1413 
Q 244 2009 563 2463 
Q 947 3009 1622 3009 
Q 2075 3009 2342 2781 
Q 2609 2553 2609 2272 
Q 2609 2094 2501 1987 
Q 2394 1881 2219 1881 
Q 2034 1881 1914 2003 
Q 1794 2125 1766 2438 
Q 1747 2634 1675 2713 
Q 1603 2791 1506 2791 
Q 1356 2791 1250 2631 
Q 1088 2391 1088 1894 
Q 1088 1481 1219 1104 
Q 1350 728 1578 544 
Q 1750 409 1984 409 
Q 2138 409 2275 481 
Q 2413 553 2600 753 
z
" transform="scale(0.015625)"/>
      <path id="TimesNewRomanPS-BoldMT-65" d="M 2691 1566 
L 1088 1566 
Q 1116 984 1397 647 
Q 1613 388 1916 388 
Q 2103 388 2256 492 
Q 2409 597 2584 869 
L 2691 800 
Q 2453 316 2165 114 
Q 1878 -88 1500 -88 
Q 850 -88 516 413 
Q 247 816 247 1413 
Q 247 2144 642 2576 
Q 1038 3009 1569 3009 
Q 2013 3009 2339 2645 
Q 2666 2281 2691 1566 
z
M 1922 1775 
Q 1922 2278 1867 2465 
Q 1813 2653 1697 2750 
Q 1631 2806 1522 2806 
Q 1359 2806 1256 2647 
Q 1072 2369 1072 1884 
L 1072 1775 
L 1922 1775 
z
" transform="scale(0.015625)"/>
      <path id="TimesNewRomanPS-BoldMT-6c" d="M 1359 4238 
L 1359 606 
Q 1359 297 1431 211 
Q 1503 125 1713 113 
L 1713 0 
L 134 0 
L 134 113 
Q 328 119 422 225 
Q 484 297 484 606 
L 484 3631 
Q 484 3938 412 4023 
Q 341 4109 134 4122 
L 134 4238 
L 1359 4238 
z
" transform="scale(0.015625)"/>
      <path id="TimesNewRomanPS-BoldMT-73" d="M 2063 3003 
L 2109 2006 
L 2003 2006 
Q 1813 2450 1608 2612 
Q 1403 2775 1200 2775 
Q 1072 2775 981 2689 
Q 891 2603 891 2491 
Q 891 2406 953 2328 
Q 1053 2200 1512 1889 
Q 1972 1578 2117 1361 
Q 2263 1144 2263 875 
Q 2263 631 2141 397 
Q 2019 163 1797 37 
Q 1575 -88 1306 -88 
Q 1097 -88 747 44 
Q 653 78 619 78 
Q 516 78 447 -78 
L 344 -78 
L 294 972 
L 400 972 
Q 541 559 786 353 
Q 1031 147 1250 147 
Q 1400 147 1495 239 
Q 1591 331 1591 463 
Q 1591 613 1497 722 
Q 1403 831 1078 1053 
Q 600 1384 459 1559 
Q 253 1816 253 2125 
Q 253 2463 486 2736 
Q 719 3009 1159 3009 
Q 1397 3009 1619 2894 
Q 1703 2847 1756 2847 
Q 1813 2847 1847 2870 
Q 1881 2894 1956 3003 
L 2063 3003 
z
" transform="scale(0.015625)"/>
     </defs>
     <use xlink:href="#TimesNewRomanPS-BoldMT-42"/>
     <use xlink:href="#TimesNewRomanPS-BoldMT-20" x="66.699219"/>
     <use xlink:href="#TimesNewRomanPS-BoldMT-63" x="91.699219"/>
     <use xlink:href="#TimesNewRomanPS-BoldMT-65" x="136.083984"/>
     <use xlink:href="#TimesNewRomanPS-BoldMT-6c" x="180.46875"/>
     <use xlink:href="#TimesNewRomanPS-BoldMT-6c" x="208.251953"/>
     <use xlink:href="#TimesNewRomanPS-BoldMT-73" x="236.035156"/>
    </g>
   </g>
   <g id="text_2">
    <!-- Endothelial I cells -->
    <g transform="translate(7.2 220.047596) scale(0.12 -0.12)">
     <defs>
      <path id="TimesNewRomanPS-BoldMT-45" d="M 1744 3994 
L 1744 2269 
L 1828 2269 
Q 2231 2269 2412 2522 
Q 2594 2775 2644 3269 
L 2763 3269 
L 2763 1050 
L 2644 1050 
Q 2606 1413 2486 1644 
Q 2366 1875 2206 1954 
Q 2047 2034 1744 2034 
L 1744 841 
Q 1744 491 1773 412 
Q 1803 334 1884 284 
Q 1966 234 2147 234 
L 2400 234 
Q 2994 234 3351 509 
Q 3709 784 3866 1347 
L 3981 1347 
L 3791 0 
L 128 0 
L 128 116 
L 269 116 
Q 453 116 566 181 
Q 647 225 691 331 
Q 725 406 725 725 
L 725 3513 
Q 725 3800 709 3866 
Q 678 3975 594 4034 
Q 475 4122 269 4122 
L 128 4122 
L 128 4238 
L 3675 4238 
L 3675 2984 
L 3556 2984 
Q 3466 3444 3302 3644 
Q 3138 3844 2838 3938 
Q 2663 3994 2181 3994 
L 1744 3994 
z
" transform="scale(0.015625)"/>
      <path id="TimesNewRomanPS-BoldMT-6e" d="M 1409 2922 
L 1409 2544 
Q 1634 2788 1840 2898 
Q 2047 3009 2284 3009 
Q 2569 3009 2756 2851 
Q 2944 2694 3006 2459 
Q 3056 2281 3056 1775 
L 3056 638 
Q 3056 300 3117 217 
Q 3178 134 3372 113 
L 3372 0 
L 1894 0 
L 1894 113 
Q 2059 134 2131 250 
Q 2181 328 2181 638 
L 2181 1938 
Q 2181 2297 2153 2390 
Q 2125 2484 2058 2536 
Q 1991 2588 1909 2588 
Q 1641 2588 1409 2203 
L 1409 638 
Q 1409 309 1470 221 
Q 1531 134 1697 113 
L 1697 0 
L 219 0 
L 219 113 
Q 403 131 481 231 
Q 534 300 534 638 
L 534 2288 
Q 534 2619 473 2700 
Q 413 2781 219 2806 
L 219 2922 
L 1409 2922 
z
" transform="scale(0.015625)"/>
      <path id="TimesNewRomanPS-BoldMT-64" d="M 3056 4238 
L 3056 875 
Q 3056 534 3075 472 
Q 3100 369 3170 319 
Q 3241 269 3416 256 
L 3416 153 
L 2181 -88 
L 2181 375 
Q 1959 106 1786 9 
Q 1613 -88 1394 -88 
Q 834 -88 509 413 
Q 247 819 247 1409 
Q 247 1881 409 2254 
Q 572 2628 855 2818 
Q 1138 3009 1463 3009 
Q 1672 3009 1834 2928 
Q 1997 2847 2181 2644 
L 2181 3525 
Q 2181 3859 2153 3928 
Q 2116 4019 2041 4062 
Q 1966 4106 1759 4106 
L 1759 4238 
L 3056 4238 
z
M 2181 2256 
Q 1950 2700 1616 2700 
Q 1500 2700 1425 2638 
Q 1309 2541 1236 2297 
Q 1163 2053 1163 1550 
Q 1163 997 1244 731 
Q 1325 466 1466 347 
Q 1538 288 1663 288 
Q 1938 288 2181 719 
L 2181 2256 
z
" transform="scale(0.015625)"/>
      <path id="TimesNewRomanPS-BoldMT-6f" d="M 1594 3009 
Q 1975 3009 2303 2812 
Q 2631 2616 2801 2253 
Q 2972 1891 2972 1459 
Q 2972 838 2656 419 
Q 2275 -88 1603 -88 
Q 944 -88 587 375 
Q 231 838 231 1447 
Q 231 2075 595 2542 
Q 959 3009 1594 3009 
z
M 1606 2788 
Q 1447 2788 1333 2667 
Q 1219 2547 1183 2192 
Q 1147 1838 1147 1206 
Q 1147 872 1191 581 
Q 1225 359 1337 243 
Q 1450 128 1594 128 
Q 1734 128 1828 206 
Q 1950 313 1991 503 
Q 2053 800 2053 1703 
Q 2053 2234 1993 2432 
Q 1934 2631 1819 2722 
Q 1738 2788 1606 2788 
z
" transform="scale(0.015625)"/>
      <path id="TimesNewRomanPS-BoldMT-74" d="M 1375 3991 
L 1375 2922 
L 2069 2922 
L 2069 2613 
L 1375 2613 
L 1375 809 
Q 1375 556 1398 482 
Q 1422 409 1481 364 
Q 1541 319 1591 319 
Q 1794 319 1975 628 
L 2069 559 
Q 1816 -41 1247 -41 
Q 969 -41 776 114 
Q 584 269 531 459 
Q 500 566 500 1034 
L 500 2613 
L 119 2613 
L 119 2722 
Q 513 3000 789 3306 
Q 1066 3613 1272 3991 
L 1375 3991 
z
" transform="scale(0.015625)"/>
      <path id="TimesNewRomanPS-BoldMT-68" d="M 1409 4238 
L 1409 2547 
Q 1650 2800 1850 2904 
Q 2050 3009 2266 3009 
Q 2541 3009 2736 2853 
Q 2931 2697 2995 2486 
Q 3059 2275 3059 1775 
L 3059 634 
Q 3059 300 3121 217 
Q 3184 134 3375 113 
L 3375 0 
L 1894 0 
L 1894 113 
Q 2050 134 2128 238 
Q 2184 319 2184 634 
L 2184 1938 
Q 2184 2300 2156 2392 
Q 2128 2484 2061 2536 
Q 1994 2588 1909 2588 
Q 1784 2588 1665 2502 
Q 1547 2416 1409 2200 
L 1409 634 
Q 1409 322 1456 244 
Q 1516 138 1700 113 
L 1700 0 
L 219 0 
L 219 113 
Q 403 131 481 231 
Q 534 300 534 634 
L 534 3603 
Q 534 3934 473 4015 
Q 413 4097 219 4122 
L 219 4238 
L 1409 4238 
z
" transform="scale(0.015625)"/>
      <path id="TimesNewRomanPS-BoldMT-69" d="M 919 4338 
Q 1122 4338 1262 4195 
Q 1403 4053 1403 3853 
Q 1403 3653 1261 3512 
Q 1119 3372 919 3372 
Q 719 3372 578 3512 
Q 438 3653 438 3853 
Q 438 4053 578 4195 
Q 719 4338 919 4338 
z
M 1356 2922 
L 1356 606 
Q 1356 297 1428 211 
Q 1500 125 1709 113 
L 1709 0 
L 131 0 
L 131 113 
Q 325 119 419 225 
Q 481 297 481 606 
L 481 2313 
Q 481 2622 409 2708 
Q 338 2794 131 2806 
L 131 2922 
L 1356 2922 
z
" transform="scale(0.015625)"/>
      <path id="TimesNewRomanPS-BoldMT-61" d="M 1828 431 
Q 1294 -41 869 -41 
Q 619 -41 453 123 
Q 288 288 288 534 
Q 288 869 575 1136 
Q 863 1403 1828 1847 
L 1828 2141 
Q 1828 2472 1792 2558 
Q 1756 2644 1656 2708 
Q 1556 2772 1431 2772 
Q 1228 2772 1097 2681 
Q 1016 2625 1016 2550 
Q 1016 2484 1103 2388 
Q 1222 2253 1222 2128 
Q 1222 1975 1108 1867 
Q 994 1759 809 1759 
Q 613 1759 480 1878 
Q 347 1997 347 2156 
Q 347 2381 525 2586 
Q 703 2791 1022 2900 
Q 1341 3009 1684 3009 
Q 2100 3009 2342 2832 
Q 2584 2656 2656 2450 
Q 2700 2319 2700 1847 
L 2700 713 
Q 2700 513 2715 461 
Q 2731 409 2762 384 
Q 2794 359 2834 359 
Q 2916 359 3000 475 
L 3094 400 
Q 2938 169 2770 64 
Q 2603 -41 2391 -41 
Q 2141 -41 2000 76 
Q 1859 194 1828 431 
z
M 1828 659 
L 1828 1638 
Q 1450 1416 1266 1163 
Q 1144 994 1144 822 
Q 1144 678 1247 569 
Q 1325 484 1466 484 
Q 1622 484 1828 659 
z
" transform="scale(0.015625)"/>
      <path id="TimesNewRomanPS-BoldMT-49" d="M 2344 116 
L 2344 0 
L 128 0 
L 128 116 
L 269 116 
Q 453 116 566 181 
Q 647 225 691 331 
Q 725 406 725 725 
L 725 3513 
Q 725 3838 690 3919 
Q 656 4000 551 4061 
Q 447 4122 269 4122 
L 128 4122 
L 128 4238 
L 2344 4238 
L 2344 4122 
L 2203 4122 
Q 2019 4122 1906 4056 
Q 1825 4013 1778 3906 
Q 1744 3831 1744 3513 
L 1744 725 
Q 1744 400 1780 319 
Q 1816 238 1920 177 
Q 2025 116 2203 116 
L 2344 116 
z
" transform="scale(0.015625)"/>
     </defs>
     <use xlink:href="#TimesNewRomanPS-BoldMT-45"/>
     <use xlink:href="#TimesNewRomanPS-BoldMT-6e" x="66.699219"/>
     <use xlink:href="#TimesNewRomanPS-BoldMT-64" x="122.314453"/>
     <use xlink:href="#TimesNewRomanPS-BoldMT-6f" x="177.929688"/>
     <use xlink:href="#TimesNewRomanPS-BoldMT-74" x="227.929688"/>
     <use xlink:href="#TimesNewRomanPS-BoldMT-68" x="261.230469"/>
     <use xlink:href="#TimesNewRomanPS-BoldMT-65" x="316.845703"/>
     <use xlink:href="#TimesNewRomanPS-BoldMT-6c" x="361.230469"/>
     <use xlink:href="#TimesNewRomanPS-BoldMT-69" x="389.013672"/>
     <use xlink:href="#TimesNewRomanPS-BoldMT-61" x="416.796875"/>
     <use xlink:href="#TimesNewRomanPS-BoldMT-6c" x="466.796875"/>
     <use xlink:href="#TimesNewRomanPS-BoldMT-20" x="494.580078"/>
     <use xlink:href="#TimesNewRomanPS-BoldMT-49" x="519.580078"/>
     <use xlink:href="#TimesNewRomanPS-BoldMT-20" x="558.496094"/>
     <use xlink:href="#TimesNewRomanPS-BoldMT-63" x="583.496094"/>
     <use xlink:href="#TimesNewRomanPS-BoldMT-65" x="627.880859"/>
     <use xlink:href="#TimesNewRomanPS-BoldMT-6c" x="672.265625"/>
     <use xlink:href="#TimesNewRomanPS-BoldMT-6c" x="700.048828"/>
     <use xlink:href="#TimesNewRomanPS-BoldMT-73" x="727.832031"/>
    </g>
   </g>
   <g id="text_3">
    <!-- Enterocytes -->
    <g transform="translate(38.773125 133.317476) scale(0.12 -0.12)">
     <defs>
      <path id="TimesNewRomanPS-BoldMT-72" d="M 1428 2922 
L 1428 2259 
Q 1719 2713 1937 2861 
Q 2156 3009 2359 3009 
Q 2534 3009 2639 2901 
Q 2744 2794 2744 2597 
Q 2744 2388 2642 2272 
Q 2541 2156 2397 2156 
Q 2231 2156 2109 2262 
Q 1988 2369 1966 2381 
Q 1934 2400 1894 2400 
Q 1803 2400 1722 2331 
Q 1594 2225 1528 2028 
Q 1428 1725 1428 1359 
L 1428 688 
L 1431 513 
Q 1431 334 1453 284 
Q 1491 200 1564 161 
Q 1638 122 1813 113 
L 1813 0 
L 234 0 
L 234 113 
Q 425 128 492 217 
Q 559 306 559 688 
L 559 2303 
Q 559 2553 534 2622 
Q 503 2709 443 2750 
Q 384 2791 234 2806 
L 234 2922 
L 1428 2922 
z
" transform="scale(0.015625)"/>
      <path id="TimesNewRomanPS-BoldMT-79" d="M 1556 -119 
L 613 2047 
Q 400 2538 298 2650 
Q 197 2763 53 2806 
L 53 2922 
L 1606 2922 
L 1606 2806 
Q 1453 2800 1390 2747 
Q 1328 2694 1328 2619 
Q 1328 2500 1484 2150 
L 1984 1006 
L 2325 1891 
Q 2509 2363 2509 2547 
Q 2509 2663 2432 2731 
Q 2356 2800 2163 2806 
L 2163 2922 
L 3141 2922 
L 3141 2806 
Q 2997 2791 2906 2695 
Q 2816 2600 2603 2047 
L 1769 -119 
Q 1453 -931 1300 -1119 
Q 1084 -1381 759 -1381 
Q 500 -1381 339 -1232 
Q 178 -1084 178 -875 
Q 178 -694 289 -575 
Q 400 -456 563 -456 
Q 719 -456 814 -556 
Q 909 -656 913 -866 
Q 916 -984 941 -1019 
Q 966 -1053 1013 -1053 
Q 1088 -1053 1172 -963 
Q 1297 -831 1466 -363 
L 1556 -119 
z
" transform="scale(0.015625)"/>
     </defs>
     <use xlink:href="#TimesNewRomanPS-BoldMT-45"/>
     <use xlink:href="#TimesNewRomanPS-BoldMT-6e" x="66.699219"/>
     <use xlink:href="#TimesNewRomanPS-BoldMT-74" x="122.314453"/>
     <use xlink:href="#TimesNewRomanPS-BoldMT-65" x="155.615234"/>
     <use xlink:href="#TimesNewRomanPS-BoldMT-72" x="200"/>
     <use xlink:href="#TimesNewRomanPS-BoldMT-6f" x="242.634766"/>
     <use xlink:href="#TimesNewRomanPS-BoldMT-63" x="292.634766"/>
     <use xlink:href="#TimesNewRomanPS-BoldMT-79" x="337.019531"/>
     <use xlink:href="#TimesNewRomanPS-BoldMT-74" x="387.019531"/>
     <use xlink:href="#TimesNewRomanPS-BoldMT-65" x="420.320312"/>
     <use xlink:href="#TimesNewRomanPS-BoldMT-73" x="464.705078"/>
    </g>
   </g>
   <g id="text_4">
    <!-- Macrophages -->
    <g transform="translate(30.095625 46.242423) scale(0.12 -0.12)">
     <defs>
      <path id="TimesNewRomanPS-BoldMT-4d" d="M 3050 1444 
L 4200 4238 
L 5925 4238 
L 5925 4122 
L 5788 4122 
Q 5600 4122 5488 4056 
Q 5409 4013 5363 3909 
Q 5328 3834 5328 3519 
L 5328 725 
Q 5328 400 5362 319 
Q 5397 238 5503 177 
Q 5609 116 5788 116 
L 5925 116 
L 5925 0 
L 3713 0 
L 3713 116 
L 3850 116 
Q 4038 116 4150 181 
Q 4228 225 4275 331 
Q 4309 406 4309 725 
L 4309 3866 
L 2684 0 
L 2609 0 
L 959 3838 
L 959 853 
Q 959 541 975 469 
Q 1016 313 1152 214 
Q 1288 116 1578 116 
L 1578 0 
L 128 0 
L 128 116 
L 172 116 
Q 313 113 434 161 
Q 556 209 618 290 
Q 681 372 716 519 
Q 722 553 722 838 
L 722 3519 
Q 722 3841 687 3920 
Q 653 4000 547 4061 
Q 441 4122 263 4122 
L 128 4122 
L 128 4238 
L 1859 4238 
L 3050 1444 
z
" transform="scale(0.015625)"/>
      <path id="TimesNewRomanPS-BoldMT-70" d="M 1347 297 
L 1347 -791 
Q 1347 -1016 1383 -1097 
Q 1419 -1178 1494 -1215 
Q 1569 -1253 1788 -1253 
L 1788 -1369 
L 122 -1369 
L 122 -1253 
Q 316 -1247 409 -1144 
Q 472 -1072 472 -772 
L 472 2313 
Q 472 2622 400 2708 
Q 328 2794 122 2806 
L 122 2922 
L 1347 2922 
L 1347 2538 
Q 1500 2763 1659 2863 
Q 1888 3009 2156 3009 
Q 2478 3009 2742 2806 
Q 3006 2603 3143 2245 
Q 3281 1888 3281 1475 
Q 3281 1031 3139 664 
Q 2997 297 2726 104 
Q 2456 -88 2125 -88 
Q 1884 -88 1675 19 
Q 1519 100 1347 297 
z
M 1347 613 
Q 1616 231 1922 231 
Q 2091 231 2200 409 
Q 2363 672 2363 1409 
Q 2363 2166 2184 2444 
Q 2066 2628 1866 2628 
Q 1550 2628 1347 2172 
L 1347 613 
z
" transform="scale(0.015625)"/>
      <path id="TimesNewRomanPS-BoldMT-67" d="M 2091 2888 
L 3075 2888 
L 3075 2544 
L 2516 2544 
Q 2669 2391 2728 2266 
Q 2803 2097 2803 1913 
Q 2803 1600 2629 1370 
Q 2456 1141 2157 1011 
Q 1859 881 1628 881 
Q 1609 881 1253 897 
Q 1113 897 1017 805 
Q 922 713 922 584 
Q 922 472 1008 400 
Q 1094 328 1288 328 
L 1828 334 
Q 2484 334 2731 191 
Q 3084 -9 3084 -425 
Q 3084 -691 2921 -908 
Q 2759 -1125 2494 -1228 
Q 2091 -1381 1566 -1381 
Q 1172 -1381 847 -1304 
Q 522 -1228 381 -1092 
Q 241 -956 241 -806 
Q 241 -663 348 -548 
Q 456 -434 750 -356 
Q 344 -156 344 200 
Q 344 416 509 619 
Q 675 822 1034 972 
Q 616 1125 428 1375 
Q 241 1625 241 1953 
Q 241 2381 591 2695 
Q 941 3009 1491 3009 
Q 1781 3009 2091 2888 
z
M 1550 2816 
Q 1369 2816 1244 2633 
Q 1119 2450 1119 1875 
Q 1119 1409 1242 1236 
Q 1366 1063 1534 1063 
Q 1722 1063 1847 1234 
Q 1972 1406 1972 1903 
Q 1972 2463 1831 2666 
Q 1731 2816 1550 2816 
z
M 1366 -431 
Q 1047 -431 944 -484 
Q 766 -581 766 -747 
Q 766 -906 950 -1036 
Q 1134 -1166 1644 -1166 
Q 2078 -1166 2326 -1050 
Q 2575 -934 2575 -725 
Q 2575 -647 2528 -594 
Q 2444 -500 2273 -465 
Q 2103 -431 1366 -431 
z
" transform="scale(0.015625)"/>
     </defs>
     <use xlink:href="#TimesNewRomanPS-BoldMT-4d"/>
     <use xlink:href="#TimesNewRomanPS-BoldMT-61" x="94.384766"/>
     <use xlink:href="#TimesNewRomanPS-BoldMT-63" x="144.384766"/>
     <use xlink:href="#TimesNewRomanPS-BoldMT-72" x="188.769531"/>
     <use xlink:href="#TimesNewRomanPS-BoldMT-6f" x="231.404297"/>
     <use xlink:href="#TimesNewRomanPS-BoldMT-70" x="281.404297"/>
     <use xlink:href="#TimesNewRomanPS-BoldMT-68" x="337.019531"/>
     <use xlink:href="#TimesNewRomanPS-BoldMT-61" x="392.634766"/>
     <use xlink:href="#TimesNewRomanPS-BoldMT-67" x="442.634766"/>
     <use xlink:href="#TimesNewRomanPS-BoldMT-65" x="492.634766"/>
     <use xlink:href="#TimesNewRomanPS-BoldMT-73" x="537.019531"/>
    </g>
   </g>
   <g id="text_5">
    <!-- T cells -->
    <g transform="translate(66.42375 28.575087) scale(0.12 -0.12)">
     <defs>
      <path id="TimesNewRomanPS-BoldMT-54" d="M 4038 4238 
L 4038 3091 
L 3925 3091 
Q 3825 3488 3703 3661 
Q 3581 3834 3369 3938 
Q 3250 3994 2953 3994 
L 2638 3994 
L 2638 725 
Q 2638 400 2673 319 
Q 2709 238 2814 177 
Q 2919 116 3100 116 
L 3241 116 
L 3241 0 
L 1022 0 
L 1022 116 
L 1163 116 
Q 1347 116 1459 181 
Q 1541 225 1588 331 
Q 1622 406 1622 725 
L 1622 3994 
L 1316 3994 
Q 888 3994 694 3813 
Q 422 3559 350 3091 
L 231 3091 
L 231 4238 
L 4038 4238 
z
" transform="scale(0.015625)"/>
     </defs>
     <use xlink:href="#TimesNewRomanPS-BoldMT-54"/>
     <use xlink:href="#TimesNewRomanPS-BoldMT-20" x="64.949219"/>
     <use xlink:href="#TimesNewRomanPS-BoldMT-63" x="89.949219"/>
     <use xlink:href="#TimesNewRomanPS-BoldMT-65" x="134.333984"/>
     <use xlink:href="#TimesNewRomanPS-BoldMT-6c" x="178.71875"/>
     <use xlink:href="#TimesNewRomanPS-BoldMT-6c" x="206.501953"/>
     <use xlink:href="#TimesNewRomanPS-BoldMT-73" x="234.285156"/>
    </g>
   </g>
   <g id="text_6">
    <!-- B cells -->
    <g transform="translate(442.594615 248.589786) scale(0.12 -0.12)">
     <use xlink:href="#TimesNewRomanPS-BoldMT-42"/>
     <use xlink:href="#TimesNewRomanPS-BoldMT-20" x="66.699219"/>
     <use xlink:href="#TimesNewRomanPS-BoldMT-63" x="91.699219"/>
     <use xlink:href="#TimesNewRomanPS-BoldMT-65" x="136.083984"/>
     <use xlink:href="#TimesNewRomanPS-BoldMT-6c" x="180.46875"/>
     <use xlink:href="#TimesNewRomanPS-BoldMT-6c" x="208.251953"/>
     <use xlink:href="#TimesNewRomanPS-BoldMT-73" x="236.035156"/>
    </g>
   </g>
   <g id="text_7">
    <!-- Endothelial I cells -->
    <g transform="translate(442.594615 222.540882) scale(0.12 -0.12)">
     <use xlink:href="#TimesNewRomanPS-BoldMT-45"/>
     <use xlink:href="#TimesNewRomanPS-BoldMT-6e" x="66.699219"/>
     <use xlink:href="#TimesNewRomanPS-BoldMT-64" x="122.314453"/>
     <use xlink:href="#TimesNewRomanPS-BoldMT-6f" x="177.929688"/>
     <use xlink:href="#TimesNewRomanPS-BoldMT-74" x="227.929688"/>
     <use xlink:href="#TimesNewRomanPS-BoldMT-68" x="261.230469"/>
     <use xlink:href="#TimesNewRomanPS-BoldMT-65" x="316.845703"/>
     <use xlink:href="#TimesNewRomanPS-BoldMT-6c" x="361.230469"/>
     <use xlink:href="#TimesNewRomanPS-BoldMT-69" x="389.013672"/>
     <use xlink:href="#TimesNewRomanPS-BoldMT-61" x="416.796875"/>
     <use xlink:href="#TimesNewRomanPS-BoldMT-6c" x="466.796875"/>
     <use xlink:href="#TimesNewRomanPS-BoldMT-20" x="494.580078"/>
     <use xlink:href="#TimesNewRomanPS-BoldMT-49" x="519.580078"/>
     <use xlink:href="#TimesNewRomanPS-BoldMT-20" x="558.496094"/>
     <use xlink:href="#TimesNewRomanPS-BoldMT-63" x="583.496094"/>
     <use xlink:href="#TimesNewRomanPS-BoldMT-65" x="627.880859"/>
     <use xlink:href="#TimesNewRomanPS-BoldMT-6c" x="672.265625"/>
     <use xlink:href="#TimesNewRomanPS-BoldMT-6c" x="700.048828"/>
     <use xlink:href="#TimesNewRomanPS-BoldMT-73" x="727.832031"/>
    </g>
   </g>
   <g id="text_8">
    <!-- Enterocytes -->
    <g transform="translate(442.594615 134.801575) scale(0.12 -0.12)">
     <use xlink:href="#TimesNewRomanPS-BoldMT-45"/>
     <use xlink:href="#TimesNewRomanPS-BoldMT-6e" x="66.699219"/>
     <use xlink:href="#TimesNewRomanPS-BoldMT-74" x="122.314453"/>
     <use xlink:href="#TimesNewRomanPS-BoldMT-65" x="155.615234"/>
     <use xlink:href="#TimesNewRomanPS-BoldMT-72" x="200"/>
     <use xlink:href="#TimesNewRomanPS-BoldMT-6f" x="242.634766"/>
     <use xlink:href="#TimesNewRomanPS-BoldMT-63" x="292.634766"/>
     <use xlink:href="#TimesNewRomanPS-BoldMT-79" x="337.019531"/>
     <use xlink:href="#TimesNewRomanPS-BoldMT-74" x="387.019531"/>
     <use xlink:href="#TimesNewRomanPS-BoldMT-65" x="420.320312"/>
     <use xlink:href="#TimesNewRomanPS-BoldMT-73" x="464.705078"/>
    </g>
   </g>
   <g id="text_9">
    <!-- Macrophages -->
    <g transform="translate(442.594615 46.836063) scale(0.12 -0.12)">
     <use xlink:href="#TimesNewRomanPS-BoldMT-4d"/>
     <use xlink:href="#TimesNewRomanPS-BoldMT-61" x="94.384766"/>
     <use xlink:href="#TimesNewRomanPS-BoldMT-63" x="144.384766"/>
     <use xlink:href="#TimesNewRomanPS-BoldMT-72" x="188.769531"/>
     <use xlink:href="#TimesNewRomanPS-BoldMT-6f" x="231.404297"/>
     <use xlink:href="#TimesNewRomanPS-BoldMT-70" x="281.404297"/>
     <use xlink:href="#TimesNewRomanPS-BoldMT-68" x="337.019531"/>
     <use xlink:href="#TimesNewRomanPS-BoldMT-61" x="392.634766"/>
     <use xlink:href="#TimesNewRomanPS-BoldMT-67" x="442.634766"/>
     <use xlink:href="#TimesNewRomanPS-BoldMT-65" x="492.634766"/>
     <use xlink:href="#TimesNewRomanPS-BoldMT-73" x="537.019531"/>
    </g>
   </g>
   <g id="text_10">
    <!-- T cells -->
    <g transform="translate(442.594615 28.931271) scale(0.12 -0.12)">
     <use xlink:href="#TimesNewRomanPS-BoldMT-54"/>
     <use xlink:href="#TimesNewRomanPS-BoldMT-20" x="64.949219"/>
     <use xlink:href="#TimesNewRomanPS-BoldMT-63" x="89.949219"/>
     <use xlink:href="#TimesNewRomanPS-BoldMT-65" x="134.333984"/>
     <use xlink:href="#TimesNewRomanPS-BoldMT-6c" x="178.71875"/>
     <use xlink:href="#TimesNewRomanPS-BoldMT-6c" x="206.501953"/>
     <use xlink:href="#TimesNewRomanPS-BoldMT-73" x="234.285156"/>
    </g>
   </g>
  </g>
 </g>
 <defs>
  <clipPath id="p741f51570d">
   <rect x="92.342308" y="7.2" width="357.12" height="266.112"/>
  </clipPath>
 </defs>
</svg>
