<?xml version="1.0" encoding="utf-8" standalone="no"?>
<!DOCTYPE svg PUBLIC "-//W3C//DTD SVG 1.1//EN"
  "http://www.w3.org/Graphics/SVG/1.1/DTD/svg11.dtd">
<svg xmlns:xlink="http://www.w3.org/1999/xlink" width="558.004615pt" height="280.512pt" viewBox="0 0 558.004615 280.512" xmlns="http://www.w3.org/2000/svg" version="1.1">
 <metadata>
  <rdf:RDF xmlns:dc="http://purl.org/dc/elements/1.1/" xmlns:cc="http://creativecommons.org/ns#" xmlns:rdf="http://www.w3.org/1999/02/22-rdf-syntax-ns#">
   <cc:Work>
    <dc:type rdf:resource="http://purl.org/dc/dcmitype/StillImage"/>
    <dc:date>2025-03-16T19:55:45.269424</dc:date>
    <dc:format>image/svg+xml</dc:format>
    <dc:creator>
     <cc:Agent>
      <dc:title>Matplotlib v3.9.3, https://matplotlib.org/</dc:title>
     </cc:Agent>
    </dc:creator>
   </cc:Work>
  </rdf:RDF>
 </metadata>
 <defs>
  <style type="text/css">*{stroke-linejoin: round; stroke-linecap: butt}</style>
 </defs>
 <g id="figure_1">
  <g id="patch_1">
   <path d="M 0 280.512 
L 558.004615 280.512 
L 558.004615 0 
L 0 0 
z
" style="fill: #ffffff"/>
  </g>
  <g id="axes_1">
   <g id="PolyCollection_1">
    <defs>
     <path id="mbb8b19f8dd" d="M 116.675035 -57.628685 
L 116.675035 -19.296 
L 122.918392 -19.296 
L 122.918392 -57.628685 
L 122.918392 -57.628685 
L 116.675035 -57.628685 
z
" style="stroke: #57db5f; stroke-opacity: 0.99"/>
    </defs>
    <g clip-path="url(#p5a8593a5ea)">
     <use xlink:href="#mbb8b19f8dd" x="0" y="280.512" style="fill: #57db5f; fill-opacity: 0.99; stroke: #57db5f; stroke-opacity: 0.99"/>
    </g>
   </g>
   <g id="PolyCollection_2">
    <defs>
     <path id="m48960839eb" d="M 116.675035 -77.108959 
L 116.675035 -67.305485 
L 122.918392 -67.305485 
L 122.918392 -77.108959 
L 122.918392 -77.108959 
L 116.675035 -77.108959 
z
" style="stroke: #5f57db; stroke-opacity: 0.99"/>
    </defs>
    <g clip-path="url(#p5a8593a5ea)">
     <use xlink:href="#m48960839eb" x="0" y="280.512" style="fill: #5f57db; fill-opacity: 0.99; stroke: #5f57db; stroke-opacity: 0.99"/>
    </g>
   </g>
   <g id="PolyCollection_3">
    <defs>
     <path id="ma110ad2778" d="M 116.675035 -139.548277 
L 116.675035 -86.785759 
L 122.918392 -86.785759 
L 122.918392 -139.548277 
L 122.918392 -139.548277 
L 116.675035 -139.548277 
z
" style="stroke: #db57d3; stroke-opacity: 0.99"/>
    </defs>
    <g clip-path="url(#p5a8593a5ea)">
     <use xlink:href="#ma110ad2778" x="0" y="280.512" style="fill: #db57d3; fill-opacity: 0.99; stroke: #db57d3; stroke-opacity: 0.99"/>
    </g>
   </g>
   <g id="PolyCollection_4">
    <defs>
     <path id="m5ce78d4d08" d="M 116.675035 -189.540488 
L 116.675035 -149.225077 
L 122.918392 -149.225077 
L 122.918392 -189.540488 
L 122.918392 -189.540488 
L 116.675035 -189.540488 
z
" style="stroke: #db5f57; stroke-opacity: 0.99"/>
    </defs>
    <g clip-path="url(#p5a8593a5ea)">
     <use xlink:href="#m5ce78d4d08" x="0" y="280.512" style="fill: #db5f57; fill-opacity: 0.99; stroke: #db5f57; stroke-opacity: 0.99"/>
    </g>
   </g>
   <g id="PolyCollection_5">
    <defs>
     <path id="m3cc9fc7425" d="M 116.675035 -208.139551 
L 116.675035 -199.217288 
L 122.918392 -199.217288 
L 122.918392 -208.139551 
L 122.918392 -208.139551 
L 116.675035 -208.139551 
z
" style="stroke: #d3db57; stroke-opacity: 0.99"/>
    </defs>
    <g clip-path="url(#p5a8593a5ea)">
     <use xlink:href="#m3cc9fc7425" x="0" y="280.512" style="fill: #d3db57; fill-opacity: 0.99; stroke: #d3db57; stroke-opacity: 0.99"/>
    </g>
   </g>
   <g id="PolyCollection_6">
    <defs>
     <path id="m2f10c27144" d="M 116.675035 -261.216 
L 116.675035 -217.816351 
L 122.918392 -217.816351 
L 122.918392 -261.216 
L 122.918392 -261.216 
L 116.675035 -261.216 
z
" style="stroke: #57d3db; stroke-opacity: 0.99"/>
    </defs>
    <g clip-path="url(#p5a8593a5ea)">
     <use xlink:href="#m2f10c27144" x="0" y="280.512" style="fill: #57d3db; fill-opacity: 0.99; stroke: #57d3db; stroke-opacity: 0.99"/>
    </g>
   </g>
   <g id="PolyCollection_7">
    <defs>
     <path id="m24d34e4ea9" d="M 435.086224 -56.086566 
L 435.086224 -19.296 
L 441.32958 -19.296 
L 441.32958 -56.086566 
L 441.32958 -56.086566 
L 435.086224 -56.086566 
z
" style="stroke: #57db5f; stroke-opacity: 0.99"/>
    </defs>
    <g clip-path="url(#p5a8593a5ea)">
     <use xlink:href="#m24d34e4ea9" x="0" y="280.512" style="fill: #57db5f; fill-opacity: 0.99; stroke: #57db5f; stroke-opacity: 0.99"/>
    </g>
   </g>
   <g id="PolyCollection_8">
    <defs>
     <path id="m9010b9568d" d="M 435.086224 -75.56684 
L 435.086224 -65.763366 
L 441.32958 -65.763366 
L 441.32958 -75.56684 
L 441.32958 -75.56684 
L 435.086224 -75.56684 
z
" style="stroke: #5f57db; stroke-opacity: 0.99"/>
    </defs>
    <g clip-path="url(#p5a8593a5ea)">
     <use xlink:href="#m9010b9568d" x="0" y="280.512" style="fill: #5f57db; fill-opacity: 0.99; stroke: #5f57db; stroke-opacity: 0.99"/>
    </g>
   </g>
   <g id="PolyCollection_9">
    <defs>
     <path id="me26b9c8aa2" d="M 435.086224 -153.647656 
L 435.086224 -85.24364 
L 441.32958 -85.24364 
L 441.32958 -153.647656 
L 441.32958 -153.647656 
L 435.086224 -153.647656 
z
" style="stroke: #db57d3; stroke-opacity: 0.99"/>
    </defs>
    <g clip-path="url(#p5a8593a5ea)">
     <use xlink:href="#me26b9c8aa2" x="0" y="280.512" style="fill: #db57d3; fill-opacity: 0.99; stroke: #db57d3; stroke-opacity: 0.99"/>
    </g>
   </g>
   <g id="PolyCollection_10">
    <defs>
     <path id="m79f504ce5e" d="M 435.086224 -202.428201 
L 435.086224 -163.324456 
L 441.32958 -163.324456 
L 441.32958 -202.428201 
L 441.32958 -202.428201 
L 435.086224 -202.428201 
z
" style="stroke: #db5f57; stroke-opacity: 0.99"/>
    </defs>
    <g clip-path="url(#p5a8593a5ea)">
     <use xlink:href="#m79f504ce5e" x="0" y="280.512" style="fill: #db5f57; fill-opacity: 0.99; stroke: #db5f57; stroke-opacity: 0.99"/>
    </g>
   </g>
   <g id="PolyCollection_11">
    <defs>
     <path id="m2dfdae6e1f" d="M 435.086224 -250.657989 
L 435.086224 -212.105001 
L 441.32958 -212.105001 
L 441.32958 -250.657989 
L 441.32958 -250.657989 
L 435.086224 -250.657989 
z
" style="stroke: #d3db57; stroke-opacity: 0.99"/>
    </defs>
    <g clip-path="url(#p5a8593a5ea)">
     <use xlink:href="#m2dfdae6e1f" x="0" y="280.512" style="fill: #d3db57; fill-opacity: 0.99; stroke: #d3db57; stroke-opacity: 0.99"/>
    </g>
   </g>
   <g id="PolyCollection_12">
    <defs>
     <path id="m883c750f89" d="M 435.086224 -261.216 
L 435.086224 -260.334789 
L 441.32958 -260.334789 
L 441.32958 -261.216 
L 441.32958 -261.216 
L 435.086224 -261.216 
z
" style="stroke: #57d3db; stroke-opacity: 0.99"/>
    </defs>
    <g clip-path="url(#p5a8593a5ea)">
     <use xlink:href="#m883c750f89" x="0" y="280.512" style="fill: #57d3db; fill-opacity: 0.99; stroke: #57d3db; stroke-opacity: 0.99"/>
    </g>
   </g>
   <g id="PolyCollection_13">
    <defs>
     <path id="m88f3a9fd64" d="M 122.918392 -55.756112 
L 122.918392 -19.296 
L 128.035897 -19.296 
L 133.153402 -19.296 
L 138.270908 -19.296 
L 143.388413 -19.296 
L 148.505919 -19.296 
L 153.623424 -19.296 
L 158.74093 -19.296 
L 163.858435 -19.296 
L 168.975941 -19.296 
L 174.093446 -19.296 
L 179.210952 -19.296 
L 184.328457 -19.296 
L 189.445962 -19.296 
L 194.563468 -19.296 
L 199.680973 -19.296 
L 204.798479 -19.296 
L 209.915984 -19.296 
L 215.03349 -19.296 
L 220.150995 -19.296 
L 225.268501 -19.296 
L 230.386006 -19.296 
L 235.503511 -19.296 
L 240.621017 -19.296 
L 245.738522 -19.296 
L 250.856028 -19.296 
L 255.973533 -19.296 
L 261.091039 -19.296 
L 266.208544 -19.296 
L 271.32605 -19.296 
L 276.443555 -19.296 
L 281.56106 -19.296 
L 286.678566 -19.296 
L 291.796071 -19.296 
L 296.913577 -19.296 
L 302.031082 -19.296 
L 307.148588 -19.296 
L 312.266093 -19.296 
L 317.383599 -19.296 
L 322.501104 -19.296 
L 327.618609 -19.296 
L 332.736115 -19.296 
L 337.85362 -19.296 
L 342.971126 -19.296 
L 348.088631 -19.296 
L 353.206137 -19.296 
L 358.323642 -19.296 
L 363.441148 -19.296 
L 368.558653 -19.296 
L 373.676158 -19.296 
L 378.793664 -19.296 
L 383.911169 -19.296 
L 389.028675 -19.296 
L 394.14618 -19.296 
L 399.263686 -19.296 
L 404.381191 -19.296 
L 409.498697 -19.296 
L 414.616202 -19.296 
L 419.733707 -19.296 
L 424.851213 -19.296 
L 429.968718 -19.296 
L 435.086224 -19.296 
L 435.086224 -55.756112 
L 435.086224 -55.756112 
L 429.968718 -55.756112 
L 424.851213 -55.756112 
L 419.733707 -55.756112 
L 414.616202 -55.756112 
L 409.498697 -55.756112 
L 404.381191 -55.756112 
L 399.263686 -55.756112 
L 394.14618 -55.756112 
L 389.028675 -55.756112 
L 383.911169 -55.756112 
L 378.793664 -55.756112 
L 373.676158 -55.756112 
L 368.558653 -55.756112 
L 363.441148 -55.756112 
L 358.323642 -55.756112 
L 353.206137 -55.756112 
L 348.088631 -55.756112 
L 342.971126 -55.756112 
L 337.85362 -55.756112 
L 332.736115 -55.756112 
L 327.618609 -55.756112 
L 322.501104 -55.756112 
L 317.383599 -55.756112 
L 312.266093 -55.756112 
L 307.148588 -55.756112 
L 302.031082 -55.756112 
L 296.913577 -55.756112 
L 291.796071 -55.756112 
L 286.678566 -55.756112 
L 281.56106 -55.756112 
L 276.443555 -55.756112 
L 271.32605 -55.756112 
L 266.208544 -55.756112 
L 261.091039 -55.756112 
L 255.973533 -55.756112 
L 250.856028 -55.756112 
L 245.738522 -55.756112 
L 240.621017 -55.756112 
L 235.503511 -55.756112 
L 230.386006 -55.756112 
L 225.268501 -55.756112 
L 220.150995 -55.756112 
L 215.03349 -55.756112 
L 209.915984 -55.756112 
L 204.798479 -55.756112 
L 199.680973 -55.756112 
L 194.563468 -55.756112 
L 189.445962 -55.756112 
L 184.328457 -55.756112 
L 179.210952 -55.756112 
L 174.093446 -55.756112 
L 168.975941 -55.756112 
L 163.858435 -55.756112 
L 158.74093 -55.756112 
L 153.623424 -55.756112 
L 148.505919 -55.756112 
L 143.388413 -55.756112 
L 138.270908 -55.756112 
L 133.153402 -55.756112 
L 128.035897 -55.756112 
L 122.918392 -55.756112 
z
" style="stroke: #57db5f; stroke-opacity: 0.65"/>
    </defs>
    <g clip-path="url(#p5a8593a5ea)">
     <use xlink:href="#m88f3a9fd64" x="0" y="280.512" style="fill: #57db5f; fill-opacity: 0.65; stroke: #57db5f; stroke-opacity: 0.65"/>
    </g>
   </g>
   <g id="PolyCollection_14">
    <defs>
     <path id="mbc0080ea38" d="M 122.918392 -56.857625 
L 122.918392 -55.756112 
L 128.035897 -55.756112 
L 133.153402 -55.756112 
L 138.270908 -55.756112 
L 143.388413 -55.756112 
L 148.505919 -55.756112 
L 153.623424 -55.756112 
L 158.74093 -55.756112 
L 163.858435 -55.756112 
L 168.975941 -55.756112 
L 174.093446 -55.756112 
L 179.210952 -55.756112 
L 184.328457 -55.82983 
L 189.445962 -55.977268 
L 194.563468 -56.198424 
L 199.680973 -56.4933 
L 204.798479 -56.861894 
L 209.915984 -57.304207 
L 215.03349 -57.820239 
L 220.150995 -58.409989 
L 225.268501 -59.073458 
L 230.386006 -59.810647 
L 235.503511 -60.621554 
L 240.621017 -61.50618 
L 245.738522 -62.464524 
L 250.856028 -63.496588 
L 255.973533 -64.60237 
L 261.091039 -65.781871 
L 266.208544 -67.035091 
L 271.32605 -68.36203 
L 276.443555 -69.762687 
L 281.56106 -71.237064 
L 286.678566 -72.637721 
L 291.796071 -73.96466 
L 296.913577 -75.21788 
L 302.031082 -76.397381 
L 307.148588 -77.503164 
L 312.266093 -78.535227 
L 317.383599 -79.493572 
L 322.501104 -80.378198 
L 327.618609 -81.189105 
L 332.736115 -81.926293 
L 337.85362 -82.589762 
L 342.971126 -83.179513 
L 348.088631 -83.695545 
L 353.206137 -84.137858 
L 358.323642 -84.506452 
L 363.441148 -84.801327 
L 368.558653 -85.022483 
L 373.676158 -85.169921 
L 378.793664 -85.24364 
L 383.911169 -85.24364 
L 389.028675 -85.24364 
L 394.14618 -85.24364 
L 399.263686 -85.24364 
L 404.381191 -85.24364 
L 409.498697 -85.24364 
L 414.616202 -85.24364 
L 419.733707 -85.24364 
L 424.851213 -85.24364 
L 429.968718 -85.24364 
L 435.086224 -85.24364 
L 435.086224 -86.345154 
L 435.086224 -86.345154 
L 429.968718 -86.345154 
L 424.851213 -86.345154 
L 419.733707 -86.345154 
L 414.616202 -86.345154 
L 409.498697 -86.345154 
L 404.381191 -86.345154 
L 399.263686 -86.345154 
L 394.14618 -86.345154 
L 389.028675 -86.345154 
L 383.911169 -86.345154 
L 378.793664 -86.345154 
L 373.676158 -86.271435 
L 368.558653 -86.123997 
L 363.441148 -85.902841 
L 358.323642 -85.607966 
L 353.206137 -85.239371 
L 348.088631 -84.797059 
L 342.971126 -84.281027 
L 337.85362 -83.691276 
L 332.736115 -83.027807 
L 327.618609 -82.290619 
L 322.501104 -81.479712 
L 317.383599 -80.595086 
L 312.266093 -79.636741 
L 307.148588 -78.604678 
L 302.031082 -77.498895 
L 296.913577 -76.319394 
L 291.796071 -75.066174 
L 286.678566 -73.739235 
L 281.56106 -72.338578 
L 276.443555 -70.864201 
L 271.32605 -69.463544 
L 266.208544 -68.136605 
L 261.091039 -66.883385 
L 255.973533 -65.703884 
L 250.856028 -64.598102 
L 245.738522 -63.566038 
L 240.621017 -62.607694 
L 235.503511 -61.723068 
L 230.386006 -60.912161 
L 225.268501 -60.174972 
L 220.150995 -59.511503 
L 215.03349 -58.921752 
L 209.915984 -58.405721 
L 204.798479 -57.963408 
L 199.680973 -57.594814 
L 194.563468 -57.299938 
L 189.445962 -57.078782 
L 184.328457 -56.931344 
L 179.210952 -56.857625 
L 174.093446 -56.857625 
L 168.975941 -56.857625 
L 163.858435 -56.857625 
L 158.74093 -56.857625 
L 153.623424 -56.857625 
L 148.505919 -56.857625 
L 143.388413 -56.857625 
L 138.270908 -56.857625 
L 133.153402 -56.857625 
L 128.035897 -56.857625 
L 122.918392 -56.857625 
z
" style="stroke: #57db5f; stroke-opacity: 0.65"/>
    </defs>
    <g clip-path="url(#p5a8593a5ea)">
     <use xlink:href="#mbc0080ea38" x="0" y="280.512" style="fill: #57db5f; fill-opacity: 0.65; stroke: #57db5f; stroke-opacity: 0.65"/>
    </g>
   </g>
   <g id="PolyCollection_15">
    <defs>
     <path id="m9bd50a9e34" d="M 122.918392 -57.518534 
L 122.918392 -56.857625 
L 128.035897 -56.857625 
L 133.153402 -56.857625 
L 138.270908 -56.857625 
L 143.388413 -56.857625 
L 148.505919 -56.857625 
L 153.623424 -56.857625 
L 158.74093 -56.857625 
L 163.858435 -56.857625 
L 168.975941 -56.857625 
L 174.093446 -56.857625 
L 179.210952 -56.857625 
L 184.328457 -57.123793 
L 189.445962 -57.656127 
L 194.563468 -58.454628 
L 199.680973 -59.519296 
L 204.798479 -60.850132 
L 209.915984 -62.447134 
L 215.03349 -64.310304 
L 220.150995 -66.43964 
L 225.268501 -68.835144 
L 230.386006 -71.496815 
L 235.503511 -74.424652 
L 240.621017 -77.618657 
L 245.738522 -81.078829 
L 250.856028 -84.805168 
L 255.973533 -88.797675 
L 261.091039 -93.056348 
L 266.208544 -97.581188 
L 271.32605 -102.372195 
L 276.443555 -107.42937 
L 281.56106 -112.752711 
L 286.678566 -117.809886 
L 291.796071 -122.600893 
L 296.913577 -127.125733 
L 302.031082 -131.384407 
L 307.148588 -135.376913 
L 312.266093 -139.103252 
L 317.383599 -142.563424 
L 322.501104 -145.757429 
L 327.618609 -148.685267 
L 332.736115 -151.346937 
L 337.85362 -153.742441 
L 342.971126 -155.871778 
L 348.088631 -157.734947 
L 353.206137 -159.33195 
L 358.323642 -160.662785 
L 363.441148 -161.727453 
L 368.558653 -162.525955 
L 373.676158 -163.058289 
L 378.793664 -163.324456 
L 383.911169 -163.324456 
L 389.028675 -163.324456 
L 394.14618 -163.324456 
L 399.263686 -163.324456 
L 404.381191 -163.324456 
L 409.498697 -163.324456 
L 414.616202 -163.324456 
L 419.733707 -163.324456 
L 424.851213 -163.324456 
L 429.968718 -163.324456 
L 435.086224 -163.324456 
L 435.086224 -163.985364 
L 435.086224 -163.985364 
L 429.968718 -163.985364 
L 424.851213 -163.985364 
L 419.733707 -163.985364 
L 414.616202 -163.985364 
L 409.498697 -163.985364 
L 404.381191 -163.985364 
L 399.263686 -163.985364 
L 394.14618 -163.985364 
L 389.028675 -163.985364 
L 383.911169 -163.985364 
L 378.793664 -163.985364 
L 373.676158 -163.719197 
L 368.558653 -163.186863 
L 363.441148 -162.388362 
L 358.323642 -161.323693 
L 353.206137 -159.992858 
L 348.088631 -158.395856 
L 342.971126 -156.532686 
L 337.85362 -154.403349 
L 332.736115 -152.007846 
L 327.618609 -149.346175 
L 322.501104 -146.418337 
L 317.383599 -143.224332 
L 312.266093 -139.76416 
L 307.148588 -136.037821 
L 302.031082 -132.045315 
L 296.913577 -127.786642 
L 291.796071 -123.261802 
L 286.678566 -118.470794 
L 281.56106 -113.41362 
L 276.443555 -108.090278 
L 271.32605 -103.033104 
L 266.208544 -98.242096 
L 261.091039 -93.717256 
L 255.973533 -89.458583 
L 250.856028 -85.466077 
L 245.738522 -81.739738 
L 240.621017 -78.279566 
L 235.503511 -75.085561 
L 230.386006 -72.157723 
L 225.268501 -69.496052 
L 220.150995 -67.100549 
L 215.03349 -64.971212 
L 209.915984 -63.108042 
L 204.798479 -61.51104 
L 199.680973 -60.180205 
L 194.563468 -59.115536 
L 189.445962 -58.317035 
L 184.328457 -57.784701 
L 179.210952 -57.518534 
L 174.093446 -57.518534 
L 168.975941 -57.518534 
L 163.858435 -57.518534 
L 158.74093 -57.518534 
L 153.623424 -57.518534 
L 148.505919 -57.518534 
L 143.388413 -57.518534 
L 138.270908 -57.518534 
L 133.153402 -57.518534 
L 128.035897 -57.518534 
L 122.918392 -57.518534 
z
" style="stroke: #57db5f; stroke-opacity: 0.65"/>
    </defs>
    <g clip-path="url(#p5a8593a5ea)">
     <use xlink:href="#m9bd50a9e34" x="0" y="280.512" style="fill: #57db5f; fill-opacity: 0.65; stroke: #57db5f; stroke-opacity: 0.65"/>
    </g>
   </g>
   <g id="PolyCollection_16">
    <defs>
     <path id="m2f9c636d92" d="M 122.918392 -57.628685 
L 122.918392 -57.518534 
L 128.035897 -57.518534 
L 133.153402 -57.518534 
L 138.270908 -57.518534 
L 143.388413 -57.518534 
L 148.505919 -57.518534 
L 153.623424 -57.518534 
L 158.74093 -57.518534 
L 163.858435 -57.518534 
L 168.975941 -57.518534 
L 174.093446 -57.518534 
L 179.210952 -57.518534 
L 184.328457 -58.025575 
L 189.445962 -59.039656 
L 194.563468 -60.560778 
L 199.680973 -62.58894 
L 204.798479 -65.124143 
L 209.915984 -68.166387 
L 215.03349 -71.715672 
L 220.150995 -75.771997 
L 225.268501 -80.335363 
L 230.386006 -85.405769 
L 235.503511 -90.983216 
L 240.621017 -97.067704 
L 245.738522 -103.659232 
L 250.856028 -110.757801 
L 255.973533 -118.36341 
L 261.091039 -126.476061 
L 266.208544 -135.095751 
L 271.32605 -144.222483 
L 276.443555 -153.856255 
L 281.56106 -163.997068 
L 286.678566 -173.63084 
L 291.796071 -182.757571 
L 296.913577 -191.377262 
L 302.031082 -199.489912 
L 307.148588 -207.095522 
L 312.266093 -214.194091 
L 317.383599 -220.785619 
L 322.501104 -226.870107 
L 327.618609 -232.447554 
L 332.736115 -237.51796 
L 337.85362 -242.081326 
L 342.971126 -246.137651 
L 348.088631 -249.686935 
L 353.206137 -252.729179 
L 358.323642 -255.264382 
L 363.441148 -257.292545 
L 368.558653 -258.813667 
L 373.676158 -259.827748 
L 378.793664 -260.334789 
L 383.911169 -260.334789 
L 389.028675 -260.334789 
L 394.14618 -260.334789 
L 399.263686 -260.334789 
L 404.381191 -260.334789 
L 409.498697 -260.334789 
L 414.616202 -260.334789 
L 419.733707 -260.334789 
L 424.851213 -260.334789 
L 429.968718 -260.334789 
L 435.086224 -260.334789 
L 435.086224 -260.44494 
L 435.086224 -260.44494 
L 429.968718 -260.44494 
L 424.851213 -260.44494 
L 419.733707 -260.44494 
L 414.616202 -260.44494 
L 409.498697 -260.44494 
L 404.381191 -260.44494 
L 399.263686 -260.44494 
L 394.14618 -260.44494 
L 389.028675 -260.44494 
L 383.911169 -260.44494 
L 378.793664 -260.44494 
L 373.676158 -259.9379 
L 368.558653 -258.923818 
L 363.441148 -257.402696 
L 358.323642 -255.374534 
L 353.206137 -252.839331 
L 348.088631 -249.797087 
L 342.971126 -246.247802 
L 337.85362 -242.191477 
L 332.736115 -237.628112 
L 327.618609 -232.557705 
L 322.501104 -226.980258 
L 317.383599 -220.895771 
L 312.266093 -214.304242 
L 307.148588 -207.205673 
L 302.031082 -199.600064 
L 296.913577 -191.487414 
L 291.796071 -182.867723 
L 286.678566 -173.740991 
L 281.56106 -164.107219 
L 276.443555 -153.966406 
L 271.32605 -144.332634 
L 266.208544 -135.205903 
L 261.091039 -126.586212 
L 255.973533 -118.473562 
L 250.856028 -110.867952 
L 245.738522 -103.769383 
L 240.621017 -97.177855 
L 235.503511 -91.093367 
L 230.386006 -85.51592 
L 225.268501 -80.445514 
L 220.150995 -75.882148 
L 215.03349 -71.825823 
L 209.915984 -68.276539 
L 204.798479 -65.234295 
L 199.680973 -62.699092 
L 194.563468 -60.670929 
L 189.445962 -59.149807 
L 184.328457 -58.135726 
L 179.210952 -57.628685 
L 174.093446 -57.628685 
L 168.975941 -57.628685 
L 163.858435 -57.628685 
L 158.74093 -57.628685 
L 153.623424 -57.628685 
L 148.505919 -57.628685 
L 143.388413 -57.628685 
L 138.270908 -57.628685 
L 133.153402 -57.628685 
L 128.035897 -57.628685 
L 122.918392 -57.628685 
z
" style="stroke: #57db5f; stroke-opacity: 0.65"/>
    </defs>
    <g clip-path="url(#p5a8593a5ea)">
     <use xlink:href="#m2f9c636d92" x="0" y="280.512" style="fill: #57db5f; fill-opacity: 0.65; stroke: #57db5f; stroke-opacity: 0.65"/>
    </g>
   </g>
   <g id="PolyCollection_17">
    <defs>
     <path id="ma3d17a435d" d="M 122.918392 -77.108959 
L 122.918392 -67.305485 
L 128.035897 -67.305485 
L 133.153402 -67.305485 
L 138.270908 -67.305485 
L 143.388413 -67.305485 
L 148.505919 -67.305485 
L 153.623424 -67.305485 
L 158.74093 -67.305485 
L 163.858435 -67.305485 
L 168.975941 -67.305485 
L 174.093446 -67.305485 
L 179.210952 -67.305485 
L 184.328457 -67.30163 
L 189.445962 -67.293919 
L 194.563468 -67.282353 
L 199.680973 -67.266932 
L 204.798479 -67.247656 
L 209.915984 -67.224524 
L 215.03349 -67.197537 
L 220.150995 -67.166695 
L 225.268501 -67.131997 
L 230.386006 -67.093444 
L 235.503511 -67.051036 
L 240.621017 -67.004772 
L 245.738522 -66.954653 
L 250.856028 -66.900679 
L 255.973533 -66.842849 
L 261.091039 -66.781165 
L 266.208544 -66.715625 
L 271.32605 -66.646229 
L 276.443555 -66.572978 
L 281.56106 -66.495873 
L 286.678566 -66.422622 
L 291.796071 -66.353226 
L 296.913577 -66.287686 
L 302.031082 -66.226002 
L 307.148588 -66.168172 
L 312.266093 -66.114198 
L 317.383599 -66.064079 
L 322.501104 -66.017815 
L 327.618609 -65.975407 
L 332.736115 -65.936854 
L 337.85362 -65.902156 
L 342.971126 -65.871314 
L 348.088631 -65.844327 
L 353.206137 -65.821195 
L 358.323642 -65.801919 
L 363.441148 -65.786498 
L 368.558653 -65.774932 
L 373.676158 -65.767221 
L 378.793664 -65.763366 
L 383.911169 -65.763366 
L 389.028675 -65.763366 
L 394.14618 -65.763366 
L 399.263686 -65.763366 
L 404.381191 -65.763366 
L 409.498697 -65.763366 
L 414.616202 -65.763366 
L 419.733707 -65.763366 
L 424.851213 -65.763366 
L 429.968718 -65.763366 
L 435.086224 -65.763366 
L 435.086224 -75.56684 
L 435.086224 -75.56684 
L 429.968718 -75.56684 
L 424.851213 -75.56684 
L 419.733707 -75.56684 
L 414.616202 -75.56684 
L 409.498697 -75.56684 
L 404.381191 -75.56684 
L 399.263686 -75.56684 
L 394.14618 -75.56684 
L 389.028675 -75.56684 
L 383.911169 -75.56684 
L 378.793664 -75.56684 
L 373.676158 -75.570695 
L 368.558653 -75.578406 
L 363.441148 -75.589972 
L 358.323642 -75.605393 
L 353.206137 -75.624669 
L 348.088631 -75.647801 
L 342.971126 -75.674788 
L 337.85362 -75.705631 
L 332.736115 -75.740328 
L 327.618609 -75.778881 
L 322.501104 -75.82129 
L 317.383599 -75.867553 
L 312.266093 -75.917672 
L 307.148588 -75.971646 
L 302.031082 -76.029476 
L 296.913577 -76.09116 
L 291.796071 -76.156701 
L 286.678566 -76.226096 
L 281.56106 -76.299347 
L 276.443555 -76.376453 
L 271.32605 -76.449703 
L 266.208544 -76.519099 
L 261.091039 -76.584639 
L 255.973533 -76.646324 
L 250.856028 -76.704153 
L 245.738522 -76.758127 
L 240.621017 -76.808246 
L 235.503511 -76.85451 
L 230.386006 -76.896918 
L 225.268501 -76.935471 
L 220.150995 -76.970169 
L 215.03349 -77.001011 
L 209.915984 -77.027998 
L 204.798479 -77.05113 
L 199.680973 -77.070406 
L 194.563468 -77.085828 
L 189.445962 -77.097393 
L 184.328457 -77.105104 
L 179.210952 -77.108959 
L 174.093446 -77.108959 
L 168.975941 -77.108959 
L 163.858435 -77.108959 
L 158.74093 -77.108959 
L 153.623424 -77.108959 
L 148.505919 -77.108959 
L 143.388413 -77.108959 
L 138.270908 -77.108959 
L 133.153402 -77.108959 
L 128.035897 -77.108959 
L 122.918392 -77.108959 
z
" style="stroke: #5f57db; stroke-opacity: 0.65"/>
    </defs>
    <g clip-path="url(#p5a8593a5ea)">
     <use xlink:href="#ma3d17a435d" x="0" y="280.512" style="fill: #5f57db; fill-opacity: 0.65; stroke: #5f57db; stroke-opacity: 0.65"/>
    </g>
   </g>
   <g id="PolyCollection_18">
    <defs>
     <path id="m8575f5683c" d="M 122.918392 -138.887369 
L 122.918392 -86.785759 
L 128.035897 -86.785759 
L 133.153402 -86.785759 
L 138.270908 -86.785759 
L 143.388413 -86.785759 
L 148.505919 -86.785759 
L 153.623424 -86.785759 
L 158.74093 -86.785759 
L 163.858435 -86.785759 
L 168.975941 -86.785759 
L 174.093446 -86.785759 
L 179.210952 -86.785759 
L 184.328457 -86.784658 
L 189.445962 -86.782455 
L 194.563468 -86.77915 
L 199.680973 -86.774744 
L 204.798479 -86.769237 
L 209.915984 -86.762628 
L 215.03349 -86.754917 
L 220.150995 -86.746105 
L 225.268501 -86.736191 
L 230.386006 -86.725176 
L 235.503511 -86.713059 
L 240.621017 -86.699841 
L 245.738522 -86.685522 
L 250.856028 -86.6701 
L 255.973533 -86.653578 
L 261.091039 -86.635953 
L 266.208544 -86.617228 
L 271.32605 -86.5974 
L 276.443555 -86.576472 
L 281.56106 -86.554441 
L 286.678566 -86.533513 
L 291.796071 -86.513685 
L 296.913577 -86.49496 
L 302.031082 -86.477335 
L 307.148588 -86.460813 
L 312.266093 -86.445392 
L 317.383599 -86.431072 
L 322.501104 -86.417854 
L 327.618609 -86.405737 
L 332.736115 -86.394722 
L 337.85362 -86.384808 
L 342.971126 -86.375996 
L 348.088631 -86.368286 
L 353.206137 -86.361676 
L 358.323642 -86.356169 
L 363.441148 -86.351763 
L 368.558653 -86.348458 
L 373.676158 -86.346255 
L 378.793664 -86.345154 
L 383.911169 -86.345154 
L 389.028675 -86.345154 
L 394.14618 -86.345154 
L 399.263686 -86.345154 
L 404.381191 -86.345154 
L 409.498697 -86.345154 
L 414.616202 -86.345154 
L 419.733707 -86.345154 
L 424.851213 -86.345154 
L 429.968718 -86.345154 
L 435.086224 -86.345154 
L 435.086224 -138.446763 
L 435.086224 -138.446763 
L 429.968718 -138.446763 
L 424.851213 -138.446763 
L 419.733707 -138.446763 
L 414.616202 -138.446763 
L 409.498697 -138.446763 
L 404.381191 -138.446763 
L 399.263686 -138.446763 
L 394.14618 -138.446763 
L 389.028675 -138.446763 
L 383.911169 -138.446763 
L 378.793664 -138.446763 
L 373.676158 -138.447865 
L 368.558653 -138.450068 
L 363.441148 -138.453372 
L 358.323642 -138.457778 
L 353.206137 -138.463286 
L 348.088631 -138.469895 
L 342.971126 -138.477606 
L 337.85362 -138.486418 
L 332.736115 -138.496331 
L 327.618609 -138.507347 
L 322.501104 -138.519463 
L 317.383599 -138.532681 
L 312.266093 -138.547001 
L 307.148588 -138.562422 
L 302.031082 -138.578945 
L 296.913577 -138.596569 
L 291.796071 -138.615295 
L 286.678566 -138.635122 
L 281.56106 -138.656051 
L 276.443555 -138.678081 
L 271.32605 -138.69901 
L 266.208544 -138.718837 
L 261.091039 -138.737563 
L 255.973533 -138.755187 
L 250.856028 -138.77171 
L 245.738522 -138.787131 
L 240.621017 -138.801451 
L 235.503511 -138.814669 
L 230.386006 -138.826786 
L 225.268501 -138.837801 
L 220.150995 -138.847714 
L 215.03349 -138.856527 
L 209.915984 -138.864237 
L 204.798479 -138.870846 
L 199.680973 -138.876354 
L 194.563468 -138.88076 
L 189.445962 -138.884064 
L 184.328457 -138.886267 
L 179.210952 -138.887369 
L 174.093446 -138.887369 
L 168.975941 -138.887369 
L 163.858435 -138.887369 
L 158.74093 -138.887369 
L 153.623424 -138.887369 
L 148.505919 -138.887369 
L 143.388413 -138.887369 
L 138.270908 -138.887369 
L 133.153402 -138.887369 
L 128.035897 -138.887369 
L 122.918392 -138.887369 
z
" style="stroke: #db57d3; stroke-opacity: 0.65"/>
    </defs>
    <g clip-path="url(#p5a8593a5ea)">
     <use xlink:href="#m8575f5683c" x="0" y="280.512" style="fill: #db57d3; fill-opacity: 0.65; stroke: #db57d3; stroke-opacity: 0.65"/>
    </g>
   </g>
   <g id="PolyCollection_19">
    <defs>
     <path id="md82fd35c45" d="M 122.918392 -139.548277 
L 122.918392 -138.887369 
L 128.035897 -138.887369 
L 133.153402 -138.887369 
L 138.270908 -138.887369 
L 143.388413 -138.887369 
L 148.505919 -138.887369 
L 153.623424 -138.887369 
L 158.74093 -138.887369 
L 163.858435 -138.887369 
L 168.975941 -138.887369 
L 174.093446 -138.887369 
L 179.210952 -138.887369 
L 184.328457 -138.950114 
L 189.445962 -139.075604 
L 194.563468 -139.263839 
L 199.680973 -139.514819 
L 204.798479 -139.828544 
L 209.915984 -140.205014 
L 215.03349 -140.644229 
L 220.150995 -141.146188 
L 225.268501 -141.710893 
L 230.386006 -142.338343 
L 235.503511 -143.028538 
L 240.621017 -143.781478 
L 245.738522 -144.597163 
L 250.856028 -145.475593 
L 255.973533 -146.416767 
L 261.091039 -147.420687 
L 266.208544 -148.487352 
L 271.32605 -149.616762 
L 276.443555 -150.808917 
L 281.56106 -152.063816 
L 286.678566 -153.255971 
L 291.796071 -154.385381 
L 296.913577 -155.452046 
L 302.031082 -156.455966 
L 307.148588 -157.39714 
L 312.266093 -158.27557 
L 317.383599 -159.091255 
L 322.501104 -159.844195 
L 327.618609 -160.53439 
L 332.736115 -161.16184 
L 337.85362 -161.726545 
L 342.971126 -162.228504 
L 348.088631 -162.667719 
L 353.206137 -163.044189 
L 358.323642 -163.357914 
L 363.441148 -163.608894 
L 368.558653 -163.797129 
L 373.676158 -163.922619 
L 378.793664 -163.985364 
L 383.911169 -163.985364 
L 389.028675 -163.985364 
L 394.14618 -163.985364 
L 399.263686 -163.985364 
L 404.381191 -163.985364 
L 409.498697 -163.985364 
L 414.616202 -163.985364 
L 419.733707 -163.985364 
L 424.851213 -163.985364 
L 429.968718 -163.985364 
L 435.086224 -163.985364 
L 435.086224 -164.646273 
L 435.086224 -164.646273 
L 429.968718 -164.646273 
L 424.851213 -164.646273 
L 419.733707 -164.646273 
L 414.616202 -164.646273 
L 409.498697 -164.646273 
L 404.381191 -164.646273 
L 399.263686 -164.646273 
L 394.14618 -164.646273 
L 389.028675 -164.646273 
L 383.911169 -164.646273 
L 378.793664 -164.646273 
L 373.676158 -164.583528 
L 368.558653 -164.458038 
L 363.441148 -164.269803 
L 358.323642 -164.018823 
L 353.206137 -163.705098 
L 348.088631 -163.328628 
L 342.971126 -162.889413 
L 337.85362 -162.387453 
L 332.736115 -161.822748 
L 327.618609 -161.195298 
L 322.501104 -160.505103 
L 317.383599 -159.752163 
L 312.266093 -158.936479 
L 307.148588 -158.058049 
L 302.031082 -157.116874 
L 296.913577 -156.112954 
L 291.796071 -155.046289 
L 286.678566 -153.91688 
L 281.56106 -152.724725 
L 276.443555 -151.469825 
L 271.32605 -150.27767 
L 266.208544 -149.14826 
L 261.091039 -148.081596 
L 255.973533 -147.077676 
L 250.856028 -146.136501 
L 245.738522 -145.258071 
L 240.621017 -144.442386 
L 235.503511 -143.689447 
L 230.386006 -142.999252 
L 225.268501 -142.371802 
L 220.150995 -141.807097 
L 215.03349 -141.305137 
L 209.915984 -140.865922 
L 204.798479 -140.489452 
L 199.680973 -140.175727 
L 194.563468 -139.924747 
L 189.445962 -139.736512 
L 184.328457 -139.611022 
L 179.210952 -139.548277 
L 174.093446 -139.548277 
L 168.975941 -139.548277 
L 163.858435 -139.548277 
L 158.74093 -139.548277 
L 153.623424 -139.548277 
L 148.505919 -139.548277 
L 143.388413 -139.548277 
L 138.270908 -139.548277 
L 133.153402 -139.548277 
L 128.035897 -139.548277 
L 122.918392 -139.548277 
z
" style="stroke: #db57d3; stroke-opacity: 0.65"/>
    </defs>
    <g clip-path="url(#p5a8593a5ea)">
     <use xlink:href="#md82fd35c45" x="0" y="280.512" style="fill: #db57d3; fill-opacity: 0.65; stroke: #db57d3; stroke-opacity: 0.65"/>
    </g>
   </g>
   <g id="PolyCollection_20">
    <defs>
     <path id="m8730fae015" d="M 122.918392 -149.335229 
L 122.918392 -149.225077 
L 128.035897 -149.225077 
L 133.153402 -149.225077 
L 138.270908 -149.225077 
L 143.388413 -149.225077 
L 148.505919 -149.225077 
L 153.623424 -149.225077 
L 158.74093 -149.225077 
L 163.858435 -149.225077 
L 168.975941 -149.225077 
L 174.093446 -149.225077 
L 179.210952 -149.225077 
L 184.328457 -148.991405 
L 189.445962 -148.52406 
L 194.563468 -147.823043 
L 199.680973 -146.888353 
L 204.798479 -145.719991 
L 209.915984 -144.317957 
L 215.03349 -142.68225 
L 220.150995 -140.81287 
L 225.268501 -138.709819 
L 230.386006 -136.373095 
L 235.503511 -133.802698 
L 240.621017 -130.998629 
L 245.738522 -127.960888 
L 250.856028 -124.689474 
L 255.973533 -121.184388 
L 261.091039 -117.445629 
L 266.208544 -113.473198 
L 271.32605 -109.267094 
L 276.443555 -104.827319 
L 281.56106 -100.15387 
L 286.678566 -95.714094 
L 291.796071 -91.507991 
L 296.913577 -87.53556 
L 302.031082 -83.796801 
L 307.148588 -80.291715 
L 312.266093 -77.020301 
L 317.383599 -73.98256 
L 322.501104 -71.178491 
L 327.618609 -68.608094 
L 332.736115 -66.27137 
L 337.85362 -64.168318 
L 342.971126 -62.298939 
L 348.088631 -60.663232 
L 353.206137 -59.261198 
L 358.323642 -58.092836 
L 363.441148 -57.158146 
L 368.558653 -56.457129 
L 373.676158 -55.989784 
L 378.793664 -55.756112 
L 383.911169 -55.756112 
L 389.028675 -55.756112 
L 394.14618 -55.756112 
L 399.263686 -55.756112 
L 404.381191 -55.756112 
L 409.498697 -55.756112 
L 414.616202 -55.756112 
L 419.733707 -55.756112 
L 424.851213 -55.756112 
L 429.968718 -55.756112 
L 435.086224 -55.756112 
L 435.086224 -55.866263 
L 435.086224 -55.866263 
L 429.968718 -55.866263 
L 424.851213 -55.866263 
L 419.733707 -55.866263 
L 414.616202 -55.866263 
L 409.498697 -55.866263 
L 404.381191 -55.866263 
L 399.263686 -55.866263 
L 394.14618 -55.866263 
L 389.028675 -55.866263 
L 383.911169 -55.866263 
L 378.793664 -55.866263 
L 373.676158 -56.099935 
L 368.558653 -56.56728 
L 363.441148 -57.268297 
L 358.323642 -58.202987 
L 353.206137 -59.371349 
L 348.088631 -60.773384 
L 342.971126 -62.409091 
L 337.85362 -64.27847 
L 332.736115 -66.381522 
L 327.618609 -68.718246 
L 322.501104 -71.288642 
L 317.383599 -74.092711 
L 312.266093 -77.130453 
L 307.148588 -80.401866 
L 302.031082 -83.906953 
L 296.913577 -87.645711 
L 291.796071 -91.618142 
L 286.678566 -95.824246 
L 281.56106 -100.264022 
L 276.443555 -104.93747 
L 271.32605 -109.377246 
L 266.208544 -113.583349 
L 261.091039 -117.55578 
L 255.973533 -121.294539 
L 250.856028 -124.799625 
L 245.738522 -128.071039 
L 240.621017 -131.10878 
L 235.503511 -133.912849 
L 230.386006 -136.483246 
L 225.268501 -138.81997 
L 220.150995 -140.923022 
L 215.03349 -142.792401 
L 209.915984 -144.428108 
L 204.798479 -145.830142 
L 199.680973 -146.998505 
L 194.563468 -147.933194 
L 189.445962 -148.634211 
L 184.328457 -149.101556 
L 179.210952 -149.335229 
L 174.093446 -149.335229 
L 168.975941 -149.335229 
L 163.858435 -149.335229 
L 158.74093 -149.335229 
L 153.623424 -149.335229 
L 148.505919 -149.335229 
L 143.388413 -149.335229 
L 138.270908 -149.335229 
L 133.153402 -149.335229 
L 128.035897 -149.335229 
L 122.918392 -149.335229 
z
" style="stroke: #db5f57; stroke-opacity: 0.65"/>
    </defs>
    <g clip-path="url(#p5a8593a5ea)">
     <use xlink:href="#m8730fae015" x="0" y="280.512" style="fill: #db5f57; fill-opacity: 0.65; stroke: #db5f57; stroke-opacity: 0.65"/>
    </g>
   </g>
   <g id="PolyCollection_21">
    <defs>
     <path id="m887281c104" d="M 122.918392 -161.782336 
L 122.918392 -149.335229 
L 128.035897 -149.335229 
L 133.153402 -149.335229 
L 138.270908 -149.335229 
L 143.388413 -149.335229 
L 148.505919 -149.335229 
L 153.623424 -149.335229 
L 158.74093 -149.335229 
L 163.858435 -149.335229 
L 168.975941 -149.335229 
L 174.093446 -149.335229 
L 179.210952 -149.335229 
L 184.328457 -149.308008 
L 189.445962 -149.253565 
L 194.563468 -149.171902 
L 199.680973 -149.063017 
L 204.798479 -148.926911 
L 209.915984 -148.763584 
L 215.03349 -148.573036 
L 220.150995 -148.355267 
L 225.268501 -148.110276 
L 230.386006 -147.838065 
L 235.503511 -147.538632 
L 240.621017 -147.211978 
L 245.738522 -146.858103 
L 250.856028 -146.477007 
L 255.973533 -146.068689 
L 261.091039 -145.63315 
L 266.208544 -145.170391 
L 271.32605 -144.68041 
L 276.443555 -144.163208 
L 281.56106 -143.618784 
L 286.678566 -143.101582 
L 291.796071 -142.611601 
L 296.913577 -142.148842 
L 302.031082 -141.713303 
L 307.148588 -141.304985 
L 312.266093 -140.923889 
L 317.383599 -140.570014 
L 322.501104 -140.24336 
L 327.618609 -139.943927 
L 332.736115 -139.671716 
L 337.85362 -139.426725 
L 342.971126 -139.208956 
L 348.088631 -139.018408 
L 353.206137 -138.855081 
L 358.323642 -138.718975 
L 363.441148 -138.61009 
L 368.558653 -138.528427 
L 373.676158 -138.473985 
L 378.793664 -138.446763 
L 383.911169 -138.446763 
L 389.028675 -138.446763 
L 394.14618 -138.446763 
L 399.263686 -138.446763 
L 404.381191 -138.446763 
L 409.498697 -138.446763 
L 414.616202 -138.446763 
L 419.733707 -138.446763 
L 424.851213 -138.446763 
L 429.968718 -138.446763 
L 435.086224 -138.446763 
L 435.086224 -150.893871 
L 435.086224 -150.893871 
L 429.968718 -150.893871 
L 424.851213 -150.893871 
L 419.733707 -150.893871 
L 414.616202 -150.893871 
L 409.498697 -150.893871 
L 404.381191 -150.893871 
L 399.263686 -150.893871 
L 394.14618 -150.893871 
L 389.028675 -150.893871 
L 383.911169 -150.893871 
L 378.793664 -150.893871 
L 373.676158 -150.921092 
L 368.558653 -150.975534 
L 363.441148 -151.057198 
L 358.323642 -151.166083 
L 353.206137 -151.302188 
L 348.088631 -151.465515 
L 342.971126 -151.656063 
L 337.85362 -151.873833 
L 332.736115 -152.118823 
L 327.618609 -152.391035 
L 322.501104 -152.690468 
L 317.383599 -153.017122 
L 312.266093 -153.370997 
L 307.148588 -153.752093 
L 302.031082 -154.160411 
L 296.913577 -154.595949 
L 291.796071 -155.058709 
L 286.678566 -155.54869 
L 281.56106 -156.065892 
L 276.443555 -156.610315 
L 271.32605 -157.127517 
L 266.208544 -157.617498 
L 261.091039 -158.080258 
L 255.973533 -158.515797 
L 250.856028 -158.924114 
L 245.738522 -159.30521 
L 240.621017 -159.659086 
L 235.503511 -159.985739 
L 230.386006 -160.285172 
L 225.268501 -160.557384 
L 220.150995 -160.802374 
L 215.03349 -161.020144 
L 209.915984 -161.210692 
L 204.798479 -161.374019 
L 199.680973 -161.510125 
L 194.563468 -161.619009 
L 189.445962 -161.700673 
L 184.328457 -161.755115 
L 179.210952 -161.782336 
L 174.093446 -161.782336 
L 168.975941 -161.782336 
L 163.858435 -161.782336 
L 158.74093 -161.782336 
L 153.623424 -161.782336 
L 148.505919 -161.782336 
L 143.388413 -161.782336 
L 138.270908 -161.782336 
L 133.153402 -161.782336 
L 128.035897 -161.782336 
L 122.918392 -161.782336 
z
" style="stroke: #db5f57; stroke-opacity: 0.65"/>
    </defs>
    <g clip-path="url(#p5a8593a5ea)">
     <use xlink:href="#m887281c104" x="0" y="280.512" style="fill: #db5f57; fill-opacity: 0.65; stroke: #db5f57; stroke-opacity: 0.65"/>
    </g>
   </g>
   <g id="PolyCollection_22">
    <defs>
     <path id="m89bdafef8e" d="M 122.918392 -189.540488 
L 122.918392 -161.782336 
L 128.035897 -161.782336 
L 133.153402 -161.782336 
L 138.270908 -161.782336 
L 143.388413 -161.782336 
L 148.505919 -161.782336 
L 153.623424 -161.782336 
L 158.74093 -161.782336 
L 163.858435 -161.782336 
L 168.975941 -161.782336 
L 174.093446 -161.782336 
L 179.210952 -161.782336 
L 184.328457 -161.789496 
L 189.445962 -161.803816 
L 194.563468 -161.825295 
L 199.680973 -161.853935 
L 204.798479 -161.889734 
L 209.915984 -161.932693 
L 215.03349 -161.982812 
L 220.150995 -162.040091 
L 225.268501 -162.104529 
L 230.386006 -162.176127 
L 235.503511 -162.254886 
L 240.621017 -162.340804 
L 245.738522 -162.433882 
L 250.856028 -162.53412 
L 255.973533 -162.641517 
L 261.091039 -162.756075 
L 266.208544 -162.877792 
L 271.32605 -163.006669 
L 276.443555 -163.142706 
L 281.56106 -163.285903 
L 286.678566 -163.42194 
L 291.796071 -163.550817 
L 296.913577 -163.672534 
L 302.031082 -163.787092 
L 307.148588 -163.894489 
L 312.266093 -163.994727 
L 317.383599 -164.087805 
L 322.501104 -164.173723 
L 327.618609 -164.252481 
L 332.736115 -164.32408 
L 337.85362 -164.388518 
L 342.971126 -164.445797 
L 348.088631 -164.495916 
L 353.206137 -164.538875 
L 358.323642 -164.574674 
L 363.441148 -164.603313 
L 368.558653 -164.624793 
L 373.676158 -164.639113 
L 378.793664 -164.646273 
L 383.911169 -164.646273 
L 389.028675 -164.646273 
L 394.14618 -164.646273 
L 399.263686 -164.646273 
L 404.381191 -164.646273 
L 409.498697 -164.646273 
L 414.616202 -164.646273 
L 419.733707 -164.646273 
L 424.851213 -164.646273 
L 429.968718 -164.646273 
L 435.086224 -164.646273 
L 435.086224 -192.404424 
L 435.086224 -192.404424 
L 429.968718 -192.404424 
L 424.851213 -192.404424 
L 419.733707 -192.404424 
L 414.616202 -192.404424 
L 409.498697 -192.404424 
L 404.381191 -192.404424 
L 399.263686 -192.404424 
L 394.14618 -192.404424 
L 389.028675 -192.404424 
L 383.911169 -192.404424 
L 378.793664 -192.404424 
L 373.676158 -192.397264 
L 368.558653 -192.382944 
L 363.441148 -192.361465 
L 358.323642 -192.332825 
L 353.206137 -192.297026 
L 348.088631 -192.254067 
L 342.971126 -192.203948 
L 337.85362 -192.14667 
L 332.736115 -192.082231 
L 327.618609 -192.010633 
L 322.501104 -191.931874 
L 317.383599 -191.845956 
L 312.266093 -191.752878 
L 307.148588 -191.652641 
L 302.031082 -191.545243 
L 296.913577 -191.430686 
L 291.796071 -191.308968 
L 286.678566 -191.180091 
L 281.56106 -191.044054 
L 276.443555 -190.900857 
L 271.32605 -190.76482 
L 266.208544 -190.635943 
L 261.091039 -190.514226 
L 255.973533 -190.399669 
L 250.856028 -190.292271 
L 245.738522 -190.192033 
L 240.621017 -190.098955 
L 235.503511 -190.013037 
L 230.386006 -189.934279 
L 225.268501 -189.86268 
L 220.150995 -189.798242 
L 215.03349 -189.740963 
L 209.915984 -189.690844 
L 204.798479 -189.647885 
L 199.680973 -189.612086 
L 194.563468 -189.583447 
L 189.445962 -189.561967 
L 184.328457 -189.547647 
L 179.210952 -189.540488 
L 174.093446 -189.540488 
L 168.975941 -189.540488 
L 163.858435 -189.540488 
L 158.74093 -189.540488 
L 153.623424 -189.540488 
L 148.505919 -189.540488 
L 143.388413 -189.540488 
L 138.270908 -189.540488 
L 133.153402 -189.540488 
L 128.035897 -189.540488 
L 122.918392 -189.540488 
z
" style="stroke: #db5f57; stroke-opacity: 0.65"/>
    </defs>
    <g clip-path="url(#p5a8593a5ea)">
     <use xlink:href="#m89bdafef8e" x="0" y="280.512" style="fill: #db5f57; fill-opacity: 0.65; stroke: #db5f57; stroke-opacity: 0.65"/>
    </g>
   </g>
   <g id="PolyCollection_23">
    <defs>
     <path id="m7fe90c0e01" d="M 122.918392 -199.327439 
L 122.918392 -199.217288 
L 128.035897 -199.217288 
L 133.153402 -199.217288 
L 138.270908 -199.217288 
L 143.388413 -199.217288 
L 148.505919 -199.217288 
L 153.623424 -199.217288 
L 158.74093 -199.217288 
L 163.858435 -199.217288 
L 168.975941 -199.217288 
L 174.093446 -199.217288 
L 179.210952 -199.217288 
L 184.328457 -199.096479 
L 189.445962 -198.854862 
L 194.563468 -198.492436 
L 199.680973 -198.009202 
L 204.798479 -197.40516 
L 209.915984 -196.680308 
L 215.03349 -195.834648 
L 220.150995 -194.86818 
L 225.268501 -193.780903 
L 230.386006 -192.572818 
L 235.503511 -191.243924 
L 240.621017 -189.794221 
L 245.738522 -188.22371 
L 250.856028 -186.532391 
L 255.973533 -184.720263 
L 261.091039 -182.787326 
L 266.208544 -180.733581 
L 271.32605 -178.559027 
L 276.443555 -176.263665 
L 281.56106 -173.847494 
L 286.678566 -171.552132 
L 291.796071 -169.377578 
L 296.913577 -167.323833 
L 302.031082 -165.390896 
L 307.148588 -163.578768 
L 312.266093 -161.887448 
L 317.383599 -160.316937 
L 322.501104 -158.867235 
L 327.618609 -157.538341 
L 332.736115 -156.330255 
L 337.85362 -155.242978 
L 342.971126 -154.27651 
L 348.088631 -153.43085 
L 353.206137 -152.705999 
L 358.323642 -152.101956 
L 363.441148 -151.618722 
L 368.558653 -151.256297 
L 373.676158 -151.014679 
L 378.793664 -150.893871 
L 383.911169 -150.893871 
L 389.028675 -150.893871 
L 394.14618 -150.893871 
L 399.263686 -150.893871 
L 404.381191 -150.893871 
L 409.498697 -150.893871 
L 414.616202 -150.893871 
L 419.733707 -150.893871 
L 424.851213 -150.893871 
L 429.968718 -150.893871 
L 435.086224 -150.893871 
L 435.086224 -151.004022 
L 435.086224 -151.004022 
L 429.968718 -151.004022 
L 424.851213 -151.004022 
L 419.733707 -151.004022 
L 414.616202 -151.004022 
L 409.498697 -151.004022 
L 404.381191 -151.004022 
L 399.263686 -151.004022 
L 394.14618 -151.004022 
L 389.028675 -151.004022 
L 383.911169 -151.004022 
L 378.793664 -151.004022 
L 373.676158 -151.124831 
L 368.558653 -151.366448 
L 363.441148 -151.728874 
L 358.323642 -152.212108 
L 353.206137 -152.81615 
L 348.088631 -153.541002 
L 342.971126 -154.386661 
L 337.85362 -155.35313 
L 332.736115 -156.440407 
L 327.618609 -157.648492 
L 322.501104 -158.977386 
L 317.383599 -160.427089 
L 312.266093 -161.9976 
L 307.148588 -163.688919 
L 302.031082 -165.501047 
L 296.913577 -167.433984 
L 291.796071 -169.487729 
L 286.678566 -171.662283 
L 281.56106 -173.957645 
L 276.443555 -176.373816 
L 271.32605 -178.669178 
L 266.208544 -180.843732 
L 261.091039 -182.897477 
L 255.973533 -184.830414 
L 250.856028 -186.642542 
L 245.738522 -188.333862 
L 240.621017 -189.904373 
L 235.503511 -191.354075 
L 230.386006 -192.682969 
L 225.268501 -193.891055 
L 220.150995 -194.978332 
L 215.03349 -195.9448 
L 209.915984 -196.79046 
L 204.798479 -197.515311 
L 199.680973 -198.119354 
L 194.563468 -198.602588 
L 189.445962 -198.965013 
L 184.328457 -199.206631 
L 179.210952 -199.327439 
L 174.093446 -199.327439 
L 168.975941 -199.327439 
L 163.858435 -199.327439 
L 158.74093 -199.327439 
L 153.623424 -199.327439 
L 148.505919 -199.327439 
L 143.388413 -199.327439 
L 138.270908 -199.327439 
L 133.153402 -199.327439 
L 128.035897 -199.327439 
L 122.918392 -199.327439 
z
" style="stroke: #d3db57; stroke-opacity: 0.65"/>
    </defs>
    <g clip-path="url(#p5a8593a5ea)">
     <use xlink:href="#m7fe90c0e01" x="0" y="280.512" style="fill: #d3db57; fill-opacity: 0.65; stroke: #d3db57; stroke-opacity: 0.65"/>
    </g>
   </g>
   <g id="PolyCollection_24">
    <defs>
     <path id="md2f3a5061c" d="M 122.918392 -208.139551 
L 122.918392 -199.327439 
L 128.035897 -199.327439 
L 133.153402 -199.327439 
L 138.270908 -199.327439 
L 143.388413 -199.327439 
L 148.505919 -199.327439 
L 153.623424 -199.327439 
L 158.74093 -199.327439 
L 163.858435 -199.327439 
L 168.975941 -199.327439 
L 174.093446 -199.327439 
L 179.210952 -199.327439 
L 184.328457 -199.310132 
L 189.445962 -199.275516 
L 194.563468 -199.223594 
L 199.680973 -199.154364 
L 204.798479 -199.067826 
L 209.915984 -198.963981 
L 215.03349 -198.842828 
L 220.150995 -198.704368 
L 225.268501 -198.5486 
L 230.386006 -198.375524 
L 235.503511 -198.185142 
L 240.621017 -197.977451 
L 245.738522 -197.752453 
L 250.856028 -197.510148 
L 255.973533 -197.250535 
L 261.091039 -196.973614 
L 266.208544 -196.679386 
L 271.32605 -196.36785 
L 276.443555 -196.039007 
L 281.56106 -195.692856 
L 286.678566 -195.364013 
L 291.796071 -195.052477 
L 296.913577 -194.758249 
L 302.031082 -194.481328 
L 307.148588 -194.221715 
L 312.266093 -193.97941 
L 317.383599 -193.754412 
L 322.501104 -193.546721 
L 327.618609 -193.356338 
L 332.736115 -193.183263 
L 337.85362 -193.027495 
L 342.971126 -192.889035 
L 348.088631 -192.767882 
L 353.206137 -192.664037 
L 358.323642 -192.577499 
L 363.441148 -192.508269 
L 368.558653 -192.456347 
L 373.676158 -192.421731 
L 378.793664 -192.404424 
L 383.911169 -192.404424 
L 389.028675 -192.404424 
L 394.14618 -192.404424 
L 399.263686 -192.404424 
L 404.381191 -192.404424 
L 409.498697 -192.404424 
L 414.616202 -192.404424 
L 419.733707 -192.404424 
L 424.851213 -192.404424 
L 429.968718 -192.404424 
L 435.086224 -192.404424 
L 435.086224 -201.216535 
L 435.086224 -201.216535 
L 429.968718 -201.216535 
L 424.851213 -201.216535 
L 419.733707 -201.216535 
L 414.616202 -201.216535 
L 409.498697 -201.216535 
L 404.381191 -201.216535 
L 399.263686 -201.216535 
L 394.14618 -201.216535 
L 389.028675 -201.216535 
L 383.911169 -201.216535 
L 378.793664 -201.216535 
L 373.676158 -201.233843 
L 368.558653 -201.268458 
L 363.441148 -201.320381 
L 358.323642 -201.389611 
L 353.206137 -201.476149 
L 348.088631 -201.579994 
L 342.971126 -201.701147 
L 337.85362 -201.839607 
L 332.736115 -201.995375 
L 327.618609 -202.16845 
L 322.501104 -202.358833 
L 317.383599 -202.566523 
L 312.266093 -202.791521 
L 307.148588 -203.033827 
L 302.031082 -203.29344 
L 296.913577 -203.570361 
L 291.796071 -203.864589 
L 286.678566 -204.176124 
L 281.56106 -204.504968 
L 276.443555 -204.851118 
L 271.32605 -205.179962 
L 266.208544 -205.491497 
L 261.091039 -205.785725 
L 255.973533 -206.062646 
L 250.856028 -206.322259 
L 245.738522 -206.564565 
L 240.621017 -206.789563 
L 235.503511 -206.997253 
L 230.386006 -207.187636 
L 225.268501 -207.360711 
L 220.150995 -207.516479 
L 215.03349 -207.65494 
L 209.915984 -207.776092 
L 204.798479 -207.879938 
L 199.680973 -207.966475 
L 194.563468 -208.035705 
L 189.445962 -208.087628 
L 184.328457 -208.122243 
L 179.210952 -208.139551 
L 174.093446 -208.139551 
L 168.975941 -208.139551 
L 163.858435 -208.139551 
L 158.74093 -208.139551 
L 153.623424 -208.139551 
L 148.505919 -208.139551 
L 143.388413 -208.139551 
L 138.270908 -208.139551 
L 133.153402 -208.139551 
L 128.035897 -208.139551 
L 122.918392 -208.139551 
z
" style="stroke: #d3db57; stroke-opacity: 0.65"/>
    </defs>
    <g clip-path="url(#p5a8593a5ea)">
     <use xlink:href="#md2f3a5061c" x="0" y="280.512" style="fill: #d3db57; fill-opacity: 0.65; stroke: #d3db57; stroke-opacity: 0.65"/>
    </g>
   </g>
   <g id="PolyCollection_25">
    <defs>
     <path id="m5bee8f4254" d="M 122.918392 -218.036653 
L 122.918392 -217.816351 
L 128.035897 -217.816351 
L 133.153402 -217.816351 
L 138.270908 -217.816351 
L 143.388413 -217.816351 
L 148.505919 -217.816351 
L 153.623424 -217.816351 
L 158.74093 -217.816351 
L 163.858435 -217.816351 
L 168.975941 -217.816351 
L 174.093446 -217.816351 
L 179.210952 -217.816351 
L 184.328457 -217.411475 
L 189.445962 -216.601725 
L 194.563468 -215.387099 
L 199.680973 -213.767598 
L 204.798479 -211.743222 
L 209.915984 -209.313971 
L 215.03349 -206.479844 
L 220.150995 -203.240843 
L 225.268501 -199.596966 
L 230.386006 -195.548214 
L 235.503511 -191.094586 
L 240.621017 -186.236084 
L 245.738522 -180.972706 
L 250.856028 -175.304453 
L 255.973533 -169.231324 
L 261.091039 -162.753321 
L 266.208544 -155.870442 
L 271.32605 -148.582688 
L 276.443555 -140.890059 
L 281.56106 -132.792555 
L 286.678566 -125.099925 
L 291.796071 -117.812171 
L 296.913577 -110.929293 
L 302.031082 -104.451289 
L 307.148588 -98.378161 
L 312.266093 -92.709908 
L 317.383599 -87.44653 
L 322.501104 -82.588027 
L 327.618609 -78.1344 
L 332.736115 -74.085648 
L 337.85362 -70.441771 
L 342.971126 -67.202769 
L 348.088631 -64.368643 
L 353.206137 -61.939391 
L 358.323642 -59.915015 
L 363.441148 -58.295514 
L 368.558653 -57.080889 
L 373.676158 -56.271138 
L 378.793664 -55.866263 
L 383.911169 -55.866263 
L 389.028675 -55.866263 
L 394.14618 -55.866263 
L 399.263686 -55.866263 
L 404.381191 -55.866263 
L 409.498697 -55.866263 
L 414.616202 -55.866263 
L 419.733707 -55.866263 
L 424.851213 -55.866263 
L 429.968718 -55.866263 
L 435.086224 -55.866263 
L 435.086224 -56.086566 
L 435.086224 -56.086566 
L 429.968718 -56.086566 
L 424.851213 -56.086566 
L 419.733707 -56.086566 
L 414.616202 -56.086566 
L 409.498697 -56.086566 
L 404.381191 -56.086566 
L 399.263686 -56.086566 
L 394.14618 -56.086566 
L 389.028675 -56.086566 
L 383.911169 -56.086566 
L 378.793664 -56.086566 
L 373.676158 -56.491441 
L 368.558653 -57.301191 
L 363.441148 -58.515817 
L 358.323642 -60.135318 
L 353.206137 -62.159694 
L 348.088631 -64.588945 
L 342.971126 -67.423072 
L 337.85362 -70.662074 
L 332.736115 -74.305951 
L 327.618609 -78.354703 
L 322.501104 -82.80833 
L 317.383599 -87.666833 
L 312.266093 -92.930211 
L 307.148588 -98.598464 
L 302.031082 -104.671592 
L 296.913577 -111.149596 
L 291.796071 -118.032474 
L 286.678566 -125.320228 
L 281.56106 -133.012857 
L 276.443555 -141.110362 
L 271.32605 -148.802991 
L 266.208544 -156.090745 
L 261.091039 -162.973624 
L 255.973533 -169.451627 
L 250.856028 -175.524755 
L 245.738522 -181.193008 
L 240.621017 -186.456386 
L 235.503511 -191.314889 
L 230.386006 -195.768516 
L 225.268501 -199.817269 
L 220.150995 -203.461145 
L 215.03349 -206.700147 
L 209.915984 -209.534274 
L 204.798479 -211.963525 
L 199.680973 -213.987901 
L 194.563468 -215.607402 
L 189.445962 -216.822028 
L 184.328457 -217.631778 
L 179.210952 -218.036653 
L 174.093446 -218.036653 
L 168.975941 -218.036653 
L 163.858435 -218.036653 
L 158.74093 -218.036653 
L 153.623424 -218.036653 
L 148.505919 -218.036653 
L 143.388413 -218.036653 
L 138.270908 -218.036653 
L 133.153402 -218.036653 
L 128.035897 -218.036653 
L 122.918392 -218.036653 
z
" style="stroke: #57d3db; stroke-opacity: 0.65"/>
    </defs>
    <g clip-path="url(#p5a8593a5ea)">
     <use xlink:href="#m5bee8f4254" x="0" y="280.512" style="fill: #57d3db; fill-opacity: 0.65; stroke: #57d3db; stroke-opacity: 0.65"/>
    </g>
   </g>
   <g id="PolyCollection_26">
    <defs>
     <path id="m1590739eac" d="M 122.918392 -220.680287 
L 122.918392 -218.036653 
L 128.035897 -218.036653 
L 133.153402 -218.036653 
L 138.270908 -218.036653 
L 143.388413 -218.036653 
L 148.505919 -218.036653 
L 153.623424 -218.036653 
L 158.74093 -218.036653 
L 163.858435 -218.036653 
L 168.975941 -218.036653 
L 174.093446 -218.036653 
L 179.210952 -218.036653 
L 184.328457 -217.869072 
L 189.445962 -217.533909 
L 194.563468 -217.031164 
L 199.680973 -216.360838 
L 204.798479 -215.52293 
L 209.915984 -214.51744 
L 215.03349 -213.344369 
L 220.150995 -212.003717 
L 225.268501 -210.495482 
L 230.386006 -208.819667 
L 235.503511 -206.976269 
L 240.621017 -204.96529 
L 245.738522 -202.78673 
L 250.856028 -200.440588 
L 255.973533 -197.926864 
L 261.091039 -195.245559 
L 266.208544 -192.396672 
L 271.32605 -189.380204 
L 276.443555 -186.196154 
L 281.56106 -182.844522 
L 286.678566 -179.660472 
L 291.796071 -176.644004 
L 296.913577 -173.795117 
L 302.031082 -171.113812 
L 307.148588 -168.600088 
L 312.266093 -166.253946 
L 317.383599 -164.075385 
L 322.501104 -162.064406 
L 327.618609 -160.221009 
L 332.736115 -158.545193 
L 337.85362 -157.036959 
L 342.971126 -155.696306 
L 348.088631 -154.523235 
L 353.206137 -153.517746 
L 358.323642 -152.679838 
L 363.441148 -152.009512 
L 368.558653 -151.506767 
L 373.676158 -151.171604 
L 378.793664 -151.004022 
L 383.911169 -151.004022 
L 389.028675 -151.004022 
L 394.14618 -151.004022 
L 399.263686 -151.004022 
L 404.381191 -151.004022 
L 409.498697 -151.004022 
L 414.616202 -151.004022 
L 419.733707 -151.004022 
L 424.851213 -151.004022 
L 429.968718 -151.004022 
L 435.086224 -151.004022 
L 435.086224 -153.647656 
L 435.086224 -153.647656 
L 429.968718 -153.647656 
L 424.851213 -153.647656 
L 419.733707 -153.647656 
L 414.616202 -153.647656 
L 409.498697 -153.647656 
L 404.381191 -153.647656 
L 399.263686 -153.647656 
L 394.14618 -153.647656 
L 389.028675 -153.647656 
L 383.911169 -153.647656 
L 378.793664 -153.647656 
L 373.676158 -153.815237 
L 368.558653 -154.150401 
L 363.441148 -154.653145 
L 358.323642 -155.323472 
L 353.206137 -156.161379 
L 348.088631 -157.166869 
L 342.971126 -158.33994 
L 337.85362 -159.680593 
L 332.736115 -161.188827 
L 327.618609 -162.864643 
L 322.501104 -164.70804 
L 317.383599 -166.719019 
L 312.266093 -168.897579 
L 307.148588 -171.243721 
L 302.031082 -173.757445 
L 296.913577 -176.43875 
L 291.796071 -179.287637 
L 286.678566 -182.304106 
L 281.56106 -185.488156 
L 276.443555 -188.839787 
L 271.32605 -192.023837 
L 266.208544 -195.040305 
L 261.091039 -197.889192 
L 255.973533 -200.570498 
L 250.856028 -203.084221 
L 245.738522 -205.430363 
L 240.621017 -207.608924 
L 235.503511 -209.619903 
L 230.386006 -211.4633 
L 225.268501 -213.139116 
L 220.150995 -214.64735 
L 215.03349 -215.988003 
L 209.915984 -217.161074 
L 204.798479 -218.166563 
L 199.680973 -219.004471 
L 194.563468 -219.674797 
L 189.445962 -220.177542 
L 184.328457 -220.512705 
L 179.210952 -220.680287 
L 174.093446 -220.680287 
L 168.975941 -220.680287 
L 163.858435 -220.680287 
L 158.74093 -220.680287 
L 153.623424 -220.680287 
L 148.505919 -220.680287 
L 143.388413 -220.680287 
L 138.270908 -220.680287 
L 133.153402 -220.680287 
L 128.035897 -220.680287 
L 122.918392 -220.680287 
z
" style="stroke: #57d3db; stroke-opacity: 0.65"/>
    </defs>
    <g clip-path="url(#p5a8593a5ea)">
     <use xlink:href="#m1590739eac" x="0" y="280.512" style="fill: #57d3db; fill-opacity: 0.65; stroke: #57d3db; stroke-opacity: 0.65"/>
    </g>
   </g>
   <g id="PolyCollection_27">
    <defs>
     <path id="m320dbb5d06" d="M 122.918392 -221.891952 
L 122.918392 -220.680287 
L 128.035897 -220.680287 
L 133.153402 -220.680287 
L 138.270908 -220.680287 
L 143.388413 -220.680287 
L 148.505919 -220.680287 
L 153.623424 -220.680287 
L 158.74093 -220.680287 
L 163.858435 -220.680287 
L 168.975941 -220.680287 
L 174.093446 -220.680287 
L 179.210952 -220.680287 
L 184.328457 -220.631627 
L 189.445962 -220.534309 
L 194.563468 -220.388331 
L 199.680973 -220.193693 
L 204.798479 -219.950396 
L 209.915984 -219.65844 
L 215.03349 -219.317824 
L 220.150995 -218.928549 
L 225.268501 -218.490615 
L 230.386006 -218.004021 
L 235.503511 -217.468768 
L 240.621017 -216.884855 
L 245.738522 -216.252283 
L 250.856028 -215.571052 
L 255.973533 -214.841161 
L 261.091039 -214.062611 
L 266.208544 -213.235402 
L 271.32605 -212.359533 
L 276.443555 -211.435005 
L 281.56106 -210.461817 
L 286.678566 -209.537289 
L 291.796071 -208.66142 
L 296.913577 -207.834211 
L 302.031082 -207.055661 
L 307.148588 -206.32577 
L 312.266093 -205.644539 
L 317.383599 -205.011967 
L 322.501104 -204.428054 
L 327.618609 -203.892801 
L 332.736115 -203.406207 
L 337.85362 -202.968273 
L 342.971126 -202.578998 
L 348.088631 -202.238382 
L 353.206137 -201.946426 
L 358.323642 -201.703129 
L 363.441148 -201.508492 
L 368.558653 -201.362514 
L 373.676158 -201.265195 
L 378.793664 -201.216535 
L 383.911169 -201.216535 
L 389.028675 -201.216535 
L 394.14618 -201.216535 
L 399.263686 -201.216535 
L 404.381191 -201.216535 
L 409.498697 -201.216535 
L 414.616202 -201.216535 
L 419.733707 -201.216535 
L 424.851213 -201.216535 
L 429.968718 -201.216535 
L 435.086224 -201.216535 
L 435.086224 -202.428201 
L 435.086224 -202.428201 
L 429.968718 -202.428201 
L 424.851213 -202.428201 
L 419.733707 -202.428201 
L 414.616202 -202.428201 
L 409.498697 -202.428201 
L 404.381191 -202.428201 
L 399.263686 -202.428201 
L 394.14618 -202.428201 
L 389.028675 -202.428201 
L 383.911169 -202.428201 
L 378.793664 -202.428201 
L 373.676158 -202.47686 
L 368.558653 -202.574179 
L 363.441148 -202.720157 
L 358.323642 -202.914795 
L 353.206137 -203.158091 
L 348.088631 -203.450048 
L 342.971126 -203.790663 
L 337.85362 -204.179938 
L 332.736115 -204.617873 
L 327.618609 -205.104467 
L 322.501104 -205.63972 
L 317.383599 -206.223632 
L 312.266093 -206.856204 
L 307.148588 -207.537436 
L 302.031082 -208.267326 
L 296.913577 -209.045876 
L 291.796071 -209.873086 
L 286.678566 -210.748955 
L 281.56106 -211.673483 
L 276.443555 -212.64667 
L 271.32605 -213.571198 
L 266.208544 -214.447067 
L 261.091039 -215.274277 
L 255.973533 -216.052827 
L 250.856028 -216.782717 
L 245.738522 -217.463949 
L 240.621017 -218.096521 
L 235.503511 -218.680433 
L 230.386006 -219.215686 
L 225.268501 -219.70228 
L 220.150995 -220.140215 
L 215.03349 -220.52949 
L 209.915984 -220.870105 
L 204.798479 -221.162062 
L 199.680973 -221.405358 
L 194.563468 -221.599996 
L 189.445962 -221.745974 
L 184.328457 -221.843293 
L 179.210952 -221.891952 
L 174.093446 -221.891952 
L 168.975941 -221.891952 
L 163.858435 -221.891952 
L 158.74093 -221.891952 
L 153.623424 -221.891952 
L 148.505919 -221.891952 
L 143.388413 -221.891952 
L 138.270908 -221.891952 
L 133.153402 -221.891952 
L 128.035897 -221.891952 
L 122.918392 -221.891952 
z
" style="stroke: #57d3db; stroke-opacity: 0.65"/>
    </defs>
    <g clip-path="url(#p5a8593a5ea)">
     <use xlink:href="#m320dbb5d06" x="0" y="280.512" style="fill: #57d3db; fill-opacity: 0.65; stroke: #57d3db; stroke-opacity: 0.65"/>
    </g>
   </g>
   <g id="PolyCollection_28">
    <defs>
     <path id="mf3267f1628" d="M 122.918392 -260.44494 
L 122.918392 -221.891952 
L 128.035897 -221.891952 
L 133.153402 -221.891952 
L 138.270908 -221.891952 
L 143.388413 -221.891952 
L 148.505919 -221.891952 
L 153.623424 -221.891952 
L 158.74093 -221.891952 
L 163.858435 -221.891952 
L 168.975941 -221.891952 
L 174.093446 -221.891952 
L 179.210952 -221.891952 
L 184.328457 -221.867485 
L 189.445962 -221.81855 
L 194.563468 -221.745148 
L 199.680973 -221.647278 
L 204.798479 -221.524942 
L 209.915984 -221.378137 
L 215.03349 -221.206866 
L 220.150995 -221.011127 
L 225.268501 -220.79092 
L 230.386006 -220.546246 
L 235.503511 -220.277105 
L 240.621017 -219.983497 
L 245.738522 -219.665421 
L 250.856028 -219.322877 
L 255.973533 -218.955867 
L 261.091039 -218.564389 
L 266.208544 -218.148443 
L 271.32605 -217.70803 
L 276.443555 -217.24315 
L 281.56106 -216.753803 
L 286.678566 -216.288923 
L 291.796071 -215.84851 
L 296.913577 -215.432564 
L 302.031082 -215.041086 
L 307.148588 -214.674076 
L 312.266093 -214.331532 
L 317.383599 -214.013456 
L 322.501104 -213.719848 
L 327.618609 -213.450707 
L 332.736115 -213.206033 
L 337.85362 -212.985826 
L 342.971126 -212.790087 
L 348.088631 -212.618816 
L 353.206137 -212.472011 
L 358.323642 -212.349675 
L 363.441148 -212.251805 
L 368.558653 -212.178403 
L 373.676158 -212.129468 
L 378.793664 -212.105001 
L 383.911169 -212.105001 
L 389.028675 -212.105001 
L 394.14618 -212.105001 
L 399.263686 -212.105001 
L 404.381191 -212.105001 
L 409.498697 -212.105001 
L 414.616202 -212.105001 
L 419.733707 -212.105001 
L 424.851213 -212.105001 
L 429.968718 -212.105001 
L 435.086224 -212.105001 
L 435.086224 -250.657989 
L 435.086224 -250.657989 
L 429.968718 -250.657989 
L 424.851213 -250.657989 
L 419.733707 -250.657989 
L 414.616202 -250.657989 
L 409.498697 -250.657989 
L 404.381191 -250.657989 
L 399.263686 -250.657989 
L 394.14618 -250.657989 
L 389.028675 -250.657989 
L 383.911169 -250.657989 
L 378.793664 -250.657989 
L 373.676158 -250.682456 
L 368.558653 -250.731391 
L 363.441148 -250.804793 
L 358.323642 -250.902663 
L 353.206137 -251.025 
L 348.088631 -251.171804 
L 342.971126 -251.343075 
L 337.85362 -251.538814 
L 332.736115 -251.759021 
L 327.618609 -252.003695 
L 322.501104 -252.272836 
L 317.383599 -252.566444 
L 312.266093 -252.88452 
L 307.148588 -253.227064 
L 302.031082 -253.594074 
L 296.913577 -253.985552 
L 291.796071 -254.401498 
L 286.678566 -254.841911 
L 281.56106 -255.306791 
L 276.443555 -255.796138 
L 271.32605 -256.261019 
L 266.208544 -256.701431 
L 261.091039 -257.117377 
L 255.973533 -257.508855 
L 250.856028 -257.875865 
L 245.738522 -258.218409 
L 240.621017 -258.536485 
L 235.503511 -258.830093 
L 230.386006 -259.099234 
L 225.268501 -259.343908 
L 220.150995 -259.564115 
L 215.03349 -259.759854 
L 209.915984 -259.931125 
L 204.798479 -260.07793 
L 199.680973 -260.200266 
L 194.563468 -260.298136 
L 189.445962 -260.371538 
L 184.328457 -260.420473 
L 179.210952 -260.44494 
L 174.093446 -260.44494 
L 168.975941 -260.44494 
L 163.858435 -260.44494 
L 158.74093 -260.44494 
L 153.623424 -260.44494 
L 148.505919 -260.44494 
L 143.388413 -260.44494 
L 138.270908 -260.44494 
L 133.153402 -260.44494 
L 128.035897 -260.44494 
L 122.918392 -260.44494 
z
" style="stroke: #57d3db; stroke-opacity: 0.65"/>
    </defs>
    <g clip-path="url(#p5a8593a5ea)">
     <use xlink:href="#mf3267f1628" x="0" y="280.512" style="fill: #57d3db; fill-opacity: 0.65; stroke: #57d3db; stroke-opacity: 0.65"/>
    </g>
   </g>
   <g id="PolyCollection_29">
    <defs>
     <path id="m1bb46b416d" d="M 122.918392 -261.216 
L 122.918392 -260.44494 
L 128.035897 -260.44494 
L 133.153402 -260.44494 
L 138.270908 -260.44494 
L 143.388413 -260.44494 
L 148.505919 -260.44494 
L 153.623424 -260.44494 
L 158.74093 -260.44494 
L 163.858435 -260.44494 
L 168.975941 -260.44494 
L 174.093446 -260.44494 
L 179.210952 -260.44494 
L 184.328457 -260.44494 
L 189.445962 -260.44494 
L 194.563468 -260.44494 
L 199.680973 -260.44494 
L 204.798479 -260.44494 
L 209.915984 -260.44494 
L 215.03349 -260.44494 
L 220.150995 -260.44494 
L 225.268501 -260.44494 
L 230.386006 -260.44494 
L 235.503511 -260.44494 
L 240.621017 -260.44494 
L 245.738522 -260.44494 
L 250.856028 -260.44494 
L 255.973533 -260.44494 
L 261.091039 -260.44494 
L 266.208544 -260.44494 
L 271.32605 -260.44494 
L 276.443555 -260.44494 
L 281.56106 -260.44494 
L 286.678566 -260.44494 
L 291.796071 -260.44494 
L 296.913577 -260.44494 
L 302.031082 -260.44494 
L 307.148588 -260.44494 
L 312.266093 -260.44494 
L 317.383599 -260.44494 
L 322.501104 -260.44494 
L 327.618609 -260.44494 
L 332.736115 -260.44494 
L 337.85362 -260.44494 
L 342.971126 -260.44494 
L 348.088631 -260.44494 
L 353.206137 -260.44494 
L 358.323642 -260.44494 
L 363.441148 -260.44494 
L 368.558653 -260.44494 
L 373.676158 -260.44494 
L 378.793664 -260.44494 
L 383.911169 -260.44494 
L 389.028675 -260.44494 
L 394.14618 -260.44494 
L 399.263686 -260.44494 
L 404.381191 -260.44494 
L 409.498697 -260.44494 
L 414.616202 -260.44494 
L 419.733707 -260.44494 
L 424.851213 -260.44494 
L 429.968718 -260.44494 
L 435.086224 -260.44494 
L 435.086224 -261.216 
L 435.086224 -261.216 
L 429.968718 -261.216 
L 424.851213 -261.216 
L 419.733707 -261.216 
L 414.616202 -261.216 
L 409.498697 -261.216 
L 404.381191 -261.216 
L 399.263686 -261.216 
L 394.14618 -261.216 
L 389.028675 -261.216 
L 383.911169 -261.216 
L 378.793664 -261.216 
L 373.676158 -261.216 
L 368.558653 -261.216 
L 363.441148 -261.216 
L 358.323642 -261.216 
L 353.206137 -261.216 
L 348.088631 -261.216 
L 342.971126 -261.216 
L 337.85362 -261.216 
L 332.736115 -261.216 
L 327.618609 -261.216 
L 322.501104 -261.216 
L 317.383599 -261.216 
L 312.266093 -261.216 
L 307.148588 -261.216 
L 302.031082 -261.216 
L 296.913577 -261.216 
L 291.796071 -261.216 
L 286.678566 -261.216 
L 281.56106 -261.216 
L 276.443555 -261.216 
L 271.32605 -261.216 
L 266.208544 -261.216 
L 261.091039 -261.216 
L 255.973533 -261.216 
L 250.856028 -261.216 
L 245.738522 -261.216 
L 240.621017 -261.216 
L 235.503511 -261.216 
L 230.386006 -261.216 
L 225.268501 -261.216 
L 220.150995 -261.216 
L 215.03349 -261.216 
L 209.915984 -261.216 
L 204.798479 -261.216 
L 199.680973 -261.216 
L 194.563468 -261.216 
L 189.445962 -261.216 
L 184.328457 -261.216 
L 179.210952 -261.216 
L 174.093446 -261.216 
L 168.975941 -261.216 
L 163.858435 -261.216 
L 158.74093 -261.216 
L 153.623424 -261.216 
L 148.505919 -261.216 
L 143.388413 -261.216 
L 138.270908 -261.216 
L 133.153402 -261.216 
L 128.035897 -261.216 
L 122.918392 -261.216 
z
" style="stroke: #57d3db; stroke-opacity: 0.65"/>
    </defs>
    <g clip-path="url(#p5a8593a5ea)">
     <use xlink:href="#m1bb46b416d" x="0" y="280.512" style="fill: #57d3db; fill-opacity: 0.65; stroke: #57d3db; stroke-opacity: 0.65"/>
    </g>
   </g>
   <g id="text_1">
    <!-- Astrocytes -->
    <g transform="translate(53.540625 244.809657) scale(0.12 -0.12)">
     <defs>
      <path id="TimesNewRomanPS-BoldMT-41" d="M 2663 1206 
L 1166 1206 
L 988 794 
Q 900 588 900 453 
Q 900 275 1044 191 
Q 1128 141 1459 116 
L 1459 0 
L 50 0 
L 50 116 
Q 278 150 425 304 
Q 572 459 788 944 
L 2303 4325 
L 2363 4325 
L 3891 850 
Q 4109 356 4250 228 
Q 4356 131 4550 116 
L 4550 0 
L 2500 0 
L 2500 116 
L 2584 116 
Q 2831 116 2931 184 
Q 3000 234 3000 328 
Q 3000 384 2981 444 
Q 2975 472 2888 678 
L 2663 1206 
z
M 2556 1438 
L 1925 2897 
L 1275 1438 
L 2556 1438 
z
" transform="scale(0.015625)"/>
      <path id="TimesNewRomanPS-BoldMT-73" d="M 2063 3003 
L 2109 2006 
L 2003 2006 
Q 1813 2450 1608 2612 
Q 1403 2775 1200 2775 
Q 1072 2775 981 2689 
Q 891 2603 891 2491 
Q 891 2406 953 2328 
Q 1053 2200 1512 1889 
Q 1972 1578 2117 1361 
Q 2263 1144 2263 875 
Q 2263 631 2141 397 
Q 2019 163 1797 37 
Q 1575 -88 1306 -88 
Q 1097 -88 747 44 
Q 653 78 619 78 
Q 516 78 447 -78 
L 344 -78 
L 294 972 
L 400 972 
Q 541 559 786 353 
Q 1031 147 1250 147 
Q 1400 147 1495 239 
Q 1591 331 1591 463 
Q 1591 613 1497 722 
Q 1403 831 1078 1053 
Q 600 1384 459 1559 
Q 253 1816 253 2125 
Q 253 2463 486 2736 
Q 719 3009 1159 3009 
Q 1397 3009 1619 2894 
Q 1703 2847 1756 2847 
Q 1813 2847 1847 2870 
Q 1881 2894 1956 3003 
L 2063 3003 
z
" transform="scale(0.015625)"/>
      <path id="TimesNewRomanPS-BoldMT-74" d="M 1375 3991 
L 1375 2922 
L 2069 2922 
L 2069 2613 
L 1375 2613 
L 1375 809 
Q 1375 556 1398 482 
Q 1422 409 1481 364 
Q 1541 319 1591 319 
Q 1794 319 1975 628 
L 2069 559 
Q 1816 -41 1247 -41 
Q 969 -41 776 114 
Q 584 269 531 459 
Q 500 566 500 1034 
L 500 2613 
L 119 2613 
L 119 2722 
Q 513 3000 789 3306 
Q 1066 3613 1272 3991 
L 1375 3991 
z
" transform="scale(0.015625)"/>
      <path id="TimesNewRomanPS-BoldMT-72" d="M 1428 2922 
L 1428 2259 
Q 1719 2713 1937 2861 
Q 2156 3009 2359 3009 
Q 2534 3009 2639 2901 
Q 2744 2794 2744 2597 
Q 2744 2388 2642 2272 
Q 2541 2156 2397 2156 
Q 2231 2156 2109 2262 
Q 1988 2369 1966 2381 
Q 1934 2400 1894 2400 
Q 1803 2400 1722 2331 
Q 1594 2225 1528 2028 
Q 1428 1725 1428 1359 
L 1428 688 
L 1431 513 
Q 1431 334 1453 284 
Q 1491 200 1564 161 
Q 1638 122 1813 113 
L 1813 0 
L 234 0 
L 234 113 
Q 425 128 492 217 
Q 559 306 559 688 
L 559 2303 
Q 559 2553 534 2622 
Q 503 2709 443 2750 
Q 384 2791 234 2806 
L 234 2922 
L 1428 2922 
z
" transform="scale(0.015625)"/>
      <path id="TimesNewRomanPS-BoldMT-6f" d="M 1594 3009 
Q 1975 3009 2303 2812 
Q 2631 2616 2801 2253 
Q 2972 1891 2972 1459 
Q 2972 838 2656 419 
Q 2275 -88 1603 -88 
Q 944 -88 587 375 
Q 231 838 231 1447 
Q 231 2075 595 2542 
Q 959 3009 1594 3009 
z
M 1606 2788 
Q 1447 2788 1333 2667 
Q 1219 2547 1183 2192 
Q 1147 1838 1147 1206 
Q 1147 872 1191 581 
Q 1225 359 1337 243 
Q 1450 128 1594 128 
Q 1734 128 1828 206 
Q 1950 313 1991 503 
Q 2053 800 2053 1703 
Q 2053 2234 1993 2432 
Q 1934 2631 1819 2722 
Q 1738 2788 1606 2788 
z
" transform="scale(0.015625)"/>
      <path id="TimesNewRomanPS-BoldMT-63" d="M 2600 753 
L 2697 678 
Q 2491 291 2183 101 
Q 1875 -88 1528 -88 
Q 944 -88 594 353 
Q 244 794 244 1413 
Q 244 2009 563 2463 
Q 947 3009 1622 3009 
Q 2075 3009 2342 2781 
Q 2609 2553 2609 2272 
Q 2609 2094 2501 1987 
Q 2394 1881 2219 1881 
Q 2034 1881 1914 2003 
Q 1794 2125 1766 2438 
Q 1747 2634 1675 2713 
Q 1603 2791 1506 2791 
Q 1356 2791 1250 2631 
Q 1088 2391 1088 1894 
Q 1088 1481 1219 1104 
Q 1350 728 1578 544 
Q 1750 409 1984 409 
Q 2138 409 2275 481 
Q 2413 553 2600 753 
z
" transform="scale(0.015625)"/>
      <path id="TimesNewRomanPS-BoldMT-79" d="M 1556 -119 
L 613 2047 
Q 400 2538 298 2650 
Q 197 2763 53 2806 
L 53 2922 
L 1606 2922 
L 1606 2806 
Q 1453 2800 1390 2747 
Q 1328 2694 1328 2619 
Q 1328 2500 1484 2150 
L 1984 1006 
L 2325 1891 
Q 2509 2363 2509 2547 
Q 2509 2663 2432 2731 
Q 2356 2800 2163 2806 
L 2163 2922 
L 3141 2922 
L 3141 2806 
Q 2997 2791 2906 2695 
Q 2816 2600 2603 2047 
L 1769 -119 
Q 1453 -931 1300 -1119 
Q 1084 -1381 759 -1381 
Q 500 -1381 339 -1232 
Q 178 -1084 178 -875 
Q 178 -694 289 -575 
Q 400 -456 563 -456 
Q 719 -456 814 -556 
Q 909 -656 913 -866 
Q 916 -984 941 -1019 
Q 966 -1053 1013 -1053 
Q 1088 -1053 1172 -963 
Q 1297 -831 1466 -363 
L 1556 -119 
z
" transform="scale(0.015625)"/>
      <path id="TimesNewRomanPS-BoldMT-65" d="M 2691 1566 
L 1088 1566 
Q 1116 984 1397 647 
Q 1613 388 1916 388 
Q 2103 388 2256 492 
Q 2409 597 2584 869 
L 2691 800 
Q 2453 316 2165 114 
Q 1878 -88 1500 -88 
Q 850 -88 516 413 
Q 247 816 247 1413 
Q 247 2144 642 2576 
Q 1038 3009 1569 3009 
Q 2013 3009 2339 2645 
Q 2666 2281 2691 1566 
z
M 1922 1775 
Q 1922 2278 1867 2465 
Q 1813 2653 1697 2750 
Q 1631 2806 1522 2806 
Q 1359 2806 1256 2647 
Q 1072 2369 1072 1884 
L 1072 1775 
L 1922 1775 
z
" transform="scale(0.015625)"/>
     </defs>
     <use xlink:href="#TimesNewRomanPS-BoldMT-41"/>
     <use xlink:href="#TimesNewRomanPS-BoldMT-73" x="72.216797"/>
     <use xlink:href="#TimesNewRomanPS-BoldMT-74" x="111.132812"/>
     <use xlink:href="#TimesNewRomanPS-BoldMT-72" x="144.433594"/>
     <use xlink:href="#TimesNewRomanPS-BoldMT-6f" x="187.068359"/>
     <use xlink:href="#TimesNewRomanPS-BoldMT-63" x="237.068359"/>
     <use xlink:href="#TimesNewRomanPS-BoldMT-79" x="281.453125"/>
     <use xlink:href="#TimesNewRomanPS-BoldMT-74" x="331.453125"/>
     <use xlink:href="#TimesNewRomanPS-BoldMT-65" x="364.753906"/>
     <use xlink:href="#TimesNewRomanPS-BoldMT-73" x="409.138672"/>
    </g>
   </g>
   <g id="text_2">
    <!-- Endothelial Cells -->
    <g transform="translate(19.63125 210.994465) scale(0.12 -0.12)">
     <defs>
      <path id="TimesNewRomanPS-BoldMT-45" d="M 1744 3994 
L 1744 2269 
L 1828 2269 
Q 2231 2269 2412 2522 
Q 2594 2775 2644 3269 
L 2763 3269 
L 2763 1050 
L 2644 1050 
Q 2606 1413 2486 1644 
Q 2366 1875 2206 1954 
Q 2047 2034 1744 2034 
L 1744 841 
Q 1744 491 1773 412 
Q 1803 334 1884 284 
Q 1966 234 2147 234 
L 2400 234 
Q 2994 234 3351 509 
Q 3709 784 3866 1347 
L 3981 1347 
L 3791 0 
L 128 0 
L 128 116 
L 269 116 
Q 453 116 566 181 
Q 647 225 691 331 
Q 725 406 725 725 
L 725 3513 
Q 725 3800 709 3866 
Q 678 3975 594 4034 
Q 475 4122 269 4122 
L 128 4122 
L 128 4238 
L 3675 4238 
L 3675 2984 
L 3556 2984 
Q 3466 3444 3302 3644 
Q 3138 3844 2838 3938 
Q 2663 3994 2181 3994 
L 1744 3994 
z
" transform="scale(0.015625)"/>
      <path id="TimesNewRomanPS-BoldMT-6e" d="M 1409 2922 
L 1409 2544 
Q 1634 2788 1840 2898 
Q 2047 3009 2284 3009 
Q 2569 3009 2756 2851 
Q 2944 2694 3006 2459 
Q 3056 2281 3056 1775 
L 3056 638 
Q 3056 300 3117 217 
Q 3178 134 3372 113 
L 3372 0 
L 1894 0 
L 1894 113 
Q 2059 134 2131 250 
Q 2181 328 2181 638 
L 2181 1938 
Q 2181 2297 2153 2390 
Q 2125 2484 2058 2536 
Q 1991 2588 1909 2588 
Q 1641 2588 1409 2203 
L 1409 638 
Q 1409 309 1470 221 
Q 1531 134 1697 113 
L 1697 0 
L 219 0 
L 219 113 
Q 403 131 481 231 
Q 534 300 534 638 
L 534 2288 
Q 534 2619 473 2700 
Q 413 2781 219 2806 
L 219 2922 
L 1409 2922 
z
" transform="scale(0.015625)"/>
      <path id="TimesNewRomanPS-BoldMT-64" d="M 3056 4238 
L 3056 875 
Q 3056 534 3075 472 
Q 3100 369 3170 319 
Q 3241 269 3416 256 
L 3416 153 
L 2181 -88 
L 2181 375 
Q 1959 106 1786 9 
Q 1613 -88 1394 -88 
Q 834 -88 509 413 
Q 247 819 247 1409 
Q 247 1881 409 2254 
Q 572 2628 855 2818 
Q 1138 3009 1463 3009 
Q 1672 3009 1834 2928 
Q 1997 2847 2181 2644 
L 2181 3525 
Q 2181 3859 2153 3928 
Q 2116 4019 2041 4062 
Q 1966 4106 1759 4106 
L 1759 4238 
L 3056 4238 
z
M 2181 2256 
Q 1950 2700 1616 2700 
Q 1500 2700 1425 2638 
Q 1309 2541 1236 2297 
Q 1163 2053 1163 1550 
Q 1163 997 1244 731 
Q 1325 466 1466 347 
Q 1538 288 1663 288 
Q 1938 288 2181 719 
L 2181 2256 
z
" transform="scale(0.015625)"/>
      <path id="TimesNewRomanPS-BoldMT-68" d="M 1409 4238 
L 1409 2547 
Q 1650 2800 1850 2904 
Q 2050 3009 2266 3009 
Q 2541 3009 2736 2853 
Q 2931 2697 2995 2486 
Q 3059 2275 3059 1775 
L 3059 634 
Q 3059 300 3121 217 
Q 3184 134 3375 113 
L 3375 0 
L 1894 0 
L 1894 113 
Q 2050 134 2128 238 
Q 2184 319 2184 634 
L 2184 1938 
Q 2184 2300 2156 2392 
Q 2128 2484 2061 2536 
Q 1994 2588 1909 2588 
Q 1784 2588 1665 2502 
Q 1547 2416 1409 2200 
L 1409 634 
Q 1409 322 1456 244 
Q 1516 138 1700 113 
L 1700 0 
L 219 0 
L 219 113 
Q 403 131 481 231 
Q 534 300 534 634 
L 534 3603 
Q 534 3934 473 4015 
Q 413 4097 219 4122 
L 219 4238 
L 1409 4238 
z
" transform="scale(0.015625)"/>
      <path id="TimesNewRomanPS-BoldMT-6c" d="M 1359 4238 
L 1359 606 
Q 1359 297 1431 211 
Q 1503 125 1713 113 
L 1713 0 
L 134 0 
L 134 113 
Q 328 119 422 225 
Q 484 297 484 606 
L 484 3631 
Q 484 3938 412 4023 
Q 341 4109 134 4122 
L 134 4238 
L 1359 4238 
z
" transform="scale(0.015625)"/>
      <path id="TimesNewRomanPS-BoldMT-69" d="M 919 4338 
Q 1122 4338 1262 4195 
Q 1403 4053 1403 3853 
Q 1403 3653 1261 3512 
Q 1119 3372 919 3372 
Q 719 3372 578 3512 
Q 438 3653 438 3853 
Q 438 4053 578 4195 
Q 719 4338 919 4338 
z
M 1356 2922 
L 1356 606 
Q 1356 297 1428 211 
Q 1500 125 1709 113 
L 1709 0 
L 131 0 
L 131 113 
Q 325 119 419 225 
Q 481 297 481 606 
L 481 2313 
Q 481 2622 409 2708 
Q 338 2794 131 2806 
L 131 2922 
L 1356 2922 
z
" transform="scale(0.015625)"/>
      <path id="TimesNewRomanPS-BoldMT-61" d="M 1828 431 
Q 1294 -41 869 -41 
Q 619 -41 453 123 
Q 288 288 288 534 
Q 288 869 575 1136 
Q 863 1403 1828 1847 
L 1828 2141 
Q 1828 2472 1792 2558 
Q 1756 2644 1656 2708 
Q 1556 2772 1431 2772 
Q 1228 2772 1097 2681 
Q 1016 2625 1016 2550 
Q 1016 2484 1103 2388 
Q 1222 2253 1222 2128 
Q 1222 1975 1108 1867 
Q 994 1759 809 1759 
Q 613 1759 480 1878 
Q 347 1997 347 2156 
Q 347 2381 525 2586 
Q 703 2791 1022 2900 
Q 1341 3009 1684 3009 
Q 2100 3009 2342 2832 
Q 2584 2656 2656 2450 
Q 2700 2319 2700 1847 
L 2700 713 
Q 2700 513 2715 461 
Q 2731 409 2762 384 
Q 2794 359 2834 359 
Q 2916 359 3000 475 
L 3094 400 
Q 2938 169 2770 64 
Q 2603 -41 2391 -41 
Q 2141 -41 2000 76 
Q 1859 194 1828 431 
z
M 1828 659 
L 1828 1638 
Q 1450 1416 1266 1163 
Q 1144 994 1144 822 
Q 1144 678 1247 569 
Q 1325 484 1466 484 
Q 1622 484 1828 659 
z
" transform="scale(0.015625)"/>
      <path id="TimesNewRomanPS-BoldMT-20" transform="scale(0.015625)"/>
      <path id="TimesNewRomanPS-BoldMT-43" d="M 4272 4334 
L 4272 2866 
L 4150 2866 
Q 4013 3441 3638 3747 
Q 3263 4053 2788 4053 
Q 2391 4053 2059 3825 
Q 1728 3597 1575 3228 
Q 1378 2756 1378 2178 
Q 1378 1609 1522 1142 
Q 1666 675 1972 436 
Q 2278 197 2766 197 
Q 3166 197 3498 372 
Q 3831 547 4200 975 
L 4200 609 
Q 3844 238 3458 70 
Q 3072 -97 2556 -97 
Q 1878 -97 1351 175 
Q 825 447 539 956 
Q 253 1466 253 2041 
Q 253 2647 570 3190 
Q 888 3734 1427 4034 
Q 1966 4334 2572 4334 
Q 3019 4334 3516 4141 
Q 3803 4028 3881 4028 
Q 3981 4028 4054 4101 
Q 4128 4175 4150 4334 
L 4272 4334 
z
" transform="scale(0.015625)"/>
     </defs>
     <use xlink:href="#TimesNewRomanPS-BoldMT-45"/>
     <use xlink:href="#TimesNewRomanPS-BoldMT-6e" x="66.699219"/>
     <use xlink:href="#TimesNewRomanPS-BoldMT-64" x="122.314453"/>
     <use xlink:href="#TimesNewRomanPS-BoldMT-6f" x="177.929688"/>
     <use xlink:href="#TimesNewRomanPS-BoldMT-74" x="227.929688"/>
     <use xlink:href="#TimesNewRomanPS-BoldMT-68" x="261.230469"/>
     <use xlink:href="#TimesNewRomanPS-BoldMT-65" x="316.845703"/>
     <use xlink:href="#TimesNewRomanPS-BoldMT-6c" x="361.230469"/>
     <use xlink:href="#TimesNewRomanPS-BoldMT-69" x="389.013672"/>
     <use xlink:href="#TimesNewRomanPS-BoldMT-61" x="416.796875"/>
     <use xlink:href="#TimesNewRomanPS-BoldMT-6c" x="466.796875"/>
     <use xlink:href="#TimesNewRomanPS-BoldMT-20" x="494.580078"/>
     <use xlink:href="#TimesNewRomanPS-BoldMT-43" x="519.580078"/>
     <use xlink:href="#TimesNewRomanPS-BoldMT-65" x="591.796875"/>
     <use xlink:href="#TimesNewRomanPS-BoldMT-6c" x="636.181641"/>
     <use xlink:href="#TimesNewRomanPS-BoldMT-6c" x="663.964844"/>
     <use xlink:href="#TimesNewRomanPS-BoldMT-73" x="691.748047"/>
    </g>
   </g>
   <g id="text_3">
    <!-- Excitatory Neurons -->
    <g transform="translate(7.2 170.117169) scale(0.12 -0.12)">
     <defs>
      <path id="TimesNewRomanPS-BoldMT-78" d="M 1944 1791 
L 2450 828 
Q 2713 325 2866 191 
Q 2950 119 3097 113 
L 3097 0 
L 1469 0 
L 1469 113 
Q 1659 128 1704 162 
Q 1750 197 1750 256 
Q 1750 344 1650 531 
L 1397 1006 
L 1181 691 
Q 1034 475 1016 434 
Q 991 375 991 328 
Q 991 256 1020 207 
Q 1050 159 1101 136 
Q 1153 113 1291 113 
L 1291 0 
L 147 0 
L 147 113 
Q 359 113 536 230 
Q 713 347 1050 844 
L 1291 1200 
L 788 2131 
Q 541 2588 419 2691 
Q 297 2794 147 2806 
L 147 2922 
L 1766 2922 
L 1766 2806 
L 1681 2803 
L 1519 2747 
Q 1494 2725 1494 2675 
Q 1494 2628 1509 2578 
Q 1519 2556 1597 2409 
L 1825 1984 
L 1944 2153 
Q 2194 2497 2194 2634 
Q 2194 2700 2139 2745 
Q 2084 2791 1944 2806 
L 1944 2922 
L 2978 2922 
L 2978 2806 
Q 2788 2800 2622 2689 
Q 2456 2578 2250 2259 
L 1944 1791 
z
" transform="scale(0.015625)"/>
      <path id="TimesNewRomanPS-BoldMT-4e" d="M 1594 4238 
L 3684 1609 
L 3684 3431 
Q 3684 3813 3575 3947 
Q 3425 4128 3072 4122 
L 3072 4238 
L 4472 4238 
L 4472 4122 
Q 4203 4088 4111 4033 
Q 4019 3978 3967 3854 
Q 3916 3731 3916 3431 
L 3916 -97 
L 3809 -97 
L 944 3431 
L 944 738 
Q 944 372 1111 244 
Q 1278 116 1494 116 
L 1594 116 
L 1594 0 
L 91 0 
L 91 116 
Q 441 119 578 259 
Q 716 400 716 738 
L 716 3728 
L 625 3841 
Q 491 4009 387 4062 
Q 284 4116 91 4122 
L 91 4238 
L 1594 4238 
z
" transform="scale(0.015625)"/>
      <path id="TimesNewRomanPS-BoldMT-75" d="M 3038 2922 
L 3038 634 
Q 3038 300 3100 217 
Q 3163 134 3353 113 
L 3353 0 
L 2163 0 
L 2163 391 
Q 1953 141 1743 26 
Q 1534 -88 1275 -88 
Q 1028 -88 836 64 
Q 644 216 578 419 
Q 513 622 513 1128 
L 513 2288 
Q 513 2619 452 2700 
Q 391 2781 197 2806 
L 197 2922 
L 1388 2922 
L 1388 925 
Q 1388 613 1417 522 
Q 1447 431 1511 384 
Q 1575 338 1659 338 
Q 1772 338 1863 397 
Q 1988 478 2163 725 
L 2163 2288 
Q 2163 2619 2102 2700 
Q 2041 2781 1847 2806 
L 1847 2922 
L 3038 2922 
z
" transform="scale(0.015625)"/>
     </defs>
     <use xlink:href="#TimesNewRomanPS-BoldMT-45"/>
     <use xlink:href="#TimesNewRomanPS-BoldMT-78" x="66.699219"/>
     <use xlink:href="#TimesNewRomanPS-BoldMT-63" x="116.699219"/>
     <use xlink:href="#TimesNewRomanPS-BoldMT-69" x="161.083984"/>
     <use xlink:href="#TimesNewRomanPS-BoldMT-74" x="188.867188"/>
     <use xlink:href="#TimesNewRomanPS-BoldMT-61" x="222.167969"/>
     <use xlink:href="#TimesNewRomanPS-BoldMT-74" x="272.167969"/>
     <use xlink:href="#TimesNewRomanPS-BoldMT-6f" x="305.46875"/>
     <use xlink:href="#TimesNewRomanPS-BoldMT-72" x="355.46875"/>
     <use xlink:href="#TimesNewRomanPS-BoldMT-79" x="399.853516"/>
     <use xlink:href="#TimesNewRomanPS-BoldMT-20" x="449.853516"/>
     <use xlink:href="#TimesNewRomanPS-BoldMT-4e" x="474.853516"/>
     <use xlink:href="#TimesNewRomanPS-BoldMT-65" x="547.070312"/>
     <use xlink:href="#TimesNewRomanPS-BoldMT-75" x="591.455078"/>
     <use xlink:href="#TimesNewRomanPS-BoldMT-72" x="647.070312"/>
     <use xlink:href="#TimesNewRomanPS-BoldMT-6f" x="689.705078"/>
     <use xlink:href="#TimesNewRomanPS-BoldMT-6e" x="739.705078"/>
     <use xlink:href="#TimesNewRomanPS-BoldMT-73" x="795.320312"/>
    </g>
   </g>
   <g id="text_4">
    <!-- Inhibitory Neurons -->
    <g transform="translate(8.503125 113.901405) scale(0.12 -0.12)">
     <defs>
      <path id="TimesNewRomanPS-BoldMT-49" d="M 2344 116 
L 2344 0 
L 128 0 
L 128 116 
L 269 116 
Q 453 116 566 181 
Q 647 225 691 331 
Q 725 406 725 725 
L 725 3513 
Q 725 3838 690 3919 
Q 656 4000 551 4061 
Q 447 4122 269 4122 
L 128 4122 
L 128 4238 
L 2344 4238 
L 2344 4122 
L 2203 4122 
Q 2019 4122 1906 4056 
Q 1825 4013 1778 3906 
Q 1744 3831 1744 3513 
L 1744 725 
Q 1744 400 1780 319 
Q 1816 238 1920 177 
Q 2025 116 2203 116 
L 2344 116 
z
" transform="scale(0.015625)"/>
      <path id="TimesNewRomanPS-BoldMT-62" d="M 1347 4238 
L 1347 2628 
Q 1716 3009 2153 3009 
Q 2453 3009 2718 2832 
Q 2984 2656 3134 2331 
Q 3284 2006 3284 1581 
Q 3284 1103 3093 712 
Q 2903 322 2584 117 
Q 2266 -88 1856 -88 
Q 1619 -88 1434 -12 
Q 1250 63 1072 231 
L 588 -84 
L 481 -84 
L 481 3631 
Q 481 3884 459 3944 
Q 428 4031 361 4073 
Q 294 4116 134 4122 
L 134 4238 
L 1347 4238 
z
M 1347 2350 
L 1347 1050 
Q 1347 653 1366 544 
Q 1397 359 1515 245 
Q 1634 131 1819 131 
Q 1978 131 2092 222 
Q 2206 313 2282 581 
Q 2359 850 2359 1550 
Q 2359 2222 2191 2472 
Q 2069 2653 1863 2653 
Q 1594 2653 1347 2350 
z
" transform="scale(0.015625)"/>
     </defs>
     <use xlink:href="#TimesNewRomanPS-BoldMT-49"/>
     <use xlink:href="#TimesNewRomanPS-BoldMT-6e" x="38.916016"/>
     <use xlink:href="#TimesNewRomanPS-BoldMT-68" x="94.53125"/>
     <use xlink:href="#TimesNewRomanPS-BoldMT-69" x="150.146484"/>
     <use xlink:href="#TimesNewRomanPS-BoldMT-62" x="177.929688"/>
     <use xlink:href="#TimesNewRomanPS-BoldMT-69" x="233.544922"/>
     <use xlink:href="#TimesNewRomanPS-BoldMT-74" x="261.328125"/>
     <use xlink:href="#TimesNewRomanPS-BoldMT-6f" x="294.628906"/>
     <use xlink:href="#TimesNewRomanPS-BoldMT-72" x="344.628906"/>
     <use xlink:href="#TimesNewRomanPS-BoldMT-79" x="389.013672"/>
     <use xlink:href="#TimesNewRomanPS-BoldMT-20" x="439.013672"/>
     <use xlink:href="#TimesNewRomanPS-BoldMT-4e" x="464.013672"/>
     <use xlink:href="#TimesNewRomanPS-BoldMT-65" x="536.230469"/>
     <use xlink:href="#TimesNewRomanPS-BoldMT-75" x="580.615234"/>
     <use xlink:href="#TimesNewRomanPS-BoldMT-72" x="636.230469"/>
     <use xlink:href="#TimesNewRomanPS-BoldMT-6f" x="678.865234"/>
     <use xlink:href="#TimesNewRomanPS-BoldMT-6e" x="728.865234"/>
     <use xlink:href="#TimesNewRomanPS-BoldMT-73" x="784.480469"/>
    </g>
   </g>
   <g id="text_5">
    <!-- Microglia -->
    <g transform="translate(57.538125 79.605768) scale(0.12 -0.12)">
     <defs>
      <path id="TimesNewRomanPS-BoldMT-4d" d="M 3050 1444 
L 4200 4238 
L 5925 4238 
L 5925 4122 
L 5788 4122 
Q 5600 4122 5488 4056 
Q 5409 4013 5363 3909 
Q 5328 3834 5328 3519 
L 5328 725 
Q 5328 400 5362 319 
Q 5397 238 5503 177 
Q 5609 116 5788 116 
L 5925 116 
L 5925 0 
L 3713 0 
L 3713 116 
L 3850 116 
Q 4038 116 4150 181 
Q 4228 225 4275 331 
Q 4309 406 4309 725 
L 4309 3866 
L 2684 0 
L 2609 0 
L 959 3838 
L 959 853 
Q 959 541 975 469 
Q 1016 313 1152 214 
Q 1288 116 1578 116 
L 1578 0 
L 128 0 
L 128 116 
L 172 116 
Q 313 113 434 161 
Q 556 209 618 290 
Q 681 372 716 519 
Q 722 553 722 838 
L 722 3519 
Q 722 3841 687 3920 
Q 653 4000 547 4061 
Q 441 4122 263 4122 
L 128 4122 
L 128 4238 
L 1859 4238 
L 3050 1444 
z
" transform="scale(0.015625)"/>
      <path id="TimesNewRomanPS-BoldMT-67" d="M 2091 2888 
L 3075 2888 
L 3075 2544 
L 2516 2544 
Q 2669 2391 2728 2266 
Q 2803 2097 2803 1913 
Q 2803 1600 2629 1370 
Q 2456 1141 2157 1011 
Q 1859 881 1628 881 
Q 1609 881 1253 897 
Q 1113 897 1017 805 
Q 922 713 922 584 
Q 922 472 1008 400 
Q 1094 328 1288 328 
L 1828 334 
Q 2484 334 2731 191 
Q 3084 -9 3084 -425 
Q 3084 -691 2921 -908 
Q 2759 -1125 2494 -1228 
Q 2091 -1381 1566 -1381 
Q 1172 -1381 847 -1304 
Q 522 -1228 381 -1092 
Q 241 -956 241 -806 
Q 241 -663 348 -548 
Q 456 -434 750 -356 
Q 344 -156 344 200 
Q 344 416 509 619 
Q 675 822 1034 972 
Q 616 1125 428 1375 
Q 241 1625 241 1953 
Q 241 2381 591 2695 
Q 941 3009 1491 3009 
Q 1781 3009 2091 2888 
z
M 1550 2816 
Q 1369 2816 1244 2633 
Q 1119 2450 1119 1875 
Q 1119 1409 1242 1236 
Q 1366 1063 1534 1063 
Q 1722 1063 1847 1234 
Q 1972 1406 1972 1903 
Q 1972 2463 1831 2666 
Q 1731 2816 1550 2816 
z
M 1366 -431 
Q 1047 -431 944 -484 
Q 766 -581 766 -747 
Q 766 -906 950 -1036 
Q 1134 -1166 1644 -1166 
Q 2078 -1166 2326 -1050 
Q 2575 -934 2575 -725 
Q 2575 -647 2528 -594 
Q 2444 -500 2273 -465 
Q 2103 -431 1366 -431 
z
" transform="scale(0.015625)"/>
     </defs>
     <use xlink:href="#TimesNewRomanPS-BoldMT-4d"/>
     <use xlink:href="#TimesNewRomanPS-BoldMT-69" x="94.384766"/>
     <use xlink:href="#TimesNewRomanPS-BoldMT-63" x="122.167969"/>
     <use xlink:href="#TimesNewRomanPS-BoldMT-72" x="166.552734"/>
     <use xlink:href="#TimesNewRomanPS-BoldMT-6f" x="209.1875"/>
     <use xlink:href="#TimesNewRomanPS-BoldMT-67" x="259.1875"/>
     <use xlink:href="#TimesNewRomanPS-BoldMT-6c" x="309.1875"/>
     <use xlink:href="#TimesNewRomanPS-BoldMT-69" x="336.970703"/>
     <use xlink:href="#TimesNewRomanPS-BoldMT-61" x="364.753906"/>
    </g>
   </g>
   <g id="text_6">
    <!-- Oligodendrocytes -->
    <g transform="translate(17.525625 43.768012) scale(0.12 -0.12)">
     <defs>
      <path id="TimesNewRomanPS-BoldMT-4f" d="M 2472 4297 
Q 3484 4334 4117 3706 
Q 4750 3078 4750 2134 
Q 4750 1328 4278 716 
Q 3653 -97 2513 -97 
Q 1369 -97 744 678 
Q 250 1291 250 2131 
Q 250 3075 892 3704 
Q 1534 4334 2472 4297 
z
M 2509 4097 
Q 1928 4097 1625 3503 
Q 1378 3016 1378 2103 
Q 1378 1019 1759 500 
Q 2025 138 2503 138 
Q 2825 138 3041 294 
Q 3316 494 3469 933 
Q 3622 1372 3622 2078 
Q 3622 2919 3465 3336 
Q 3309 3753 3067 3925 
Q 2825 4097 2509 4097 
z
" transform="scale(0.015625)"/>
     </defs>
     <use xlink:href="#TimesNewRomanPS-BoldMT-4f"/>
     <use xlink:href="#TimesNewRomanPS-BoldMT-6c" x="77.783203"/>
     <use xlink:href="#TimesNewRomanPS-BoldMT-69" x="105.566406"/>
     <use xlink:href="#TimesNewRomanPS-BoldMT-67" x="133.349609"/>
     <use xlink:href="#TimesNewRomanPS-BoldMT-6f" x="183.349609"/>
     <use xlink:href="#TimesNewRomanPS-BoldMT-64" x="233.349609"/>
     <use xlink:href="#TimesNewRomanPS-BoldMT-65" x="288.964844"/>
     <use xlink:href="#TimesNewRomanPS-BoldMT-6e" x="333.349609"/>
     <use xlink:href="#TimesNewRomanPS-BoldMT-64" x="388.964844"/>
     <use xlink:href="#TimesNewRomanPS-BoldMT-72" x="444.580078"/>
     <use xlink:href="#TimesNewRomanPS-BoldMT-6f" x="487.214844"/>
     <use xlink:href="#TimesNewRomanPS-BoldMT-63" x="537.214844"/>
     <use xlink:href="#TimesNewRomanPS-BoldMT-79" x="581.599609"/>
     <use xlink:href="#TimesNewRomanPS-BoldMT-74" x="631.599609"/>
     <use xlink:href="#TimesNewRomanPS-BoldMT-65" x="664.900391"/>
     <use xlink:href="#TimesNewRomanPS-BoldMT-73" x="709.285156"/>
    </g>
   </g>
   <g id="text_7">
    <!-- Astrocytes -->
    <g transform="translate(450.694615 245.580717) scale(0.12 -0.12)">
     <use xlink:href="#TimesNewRomanPS-BoldMT-41"/>
     <use xlink:href="#TimesNewRomanPS-BoldMT-73" x="72.216797"/>
     <use xlink:href="#TimesNewRomanPS-BoldMT-74" x="111.132812"/>
     <use xlink:href="#TimesNewRomanPS-BoldMT-72" x="144.433594"/>
     <use xlink:href="#TimesNewRomanPS-BoldMT-6f" x="187.068359"/>
     <use xlink:href="#TimesNewRomanPS-BoldMT-63" x="237.068359"/>
     <use xlink:href="#TimesNewRomanPS-BoldMT-79" x="281.453125"/>
     <use xlink:href="#TimesNewRomanPS-BoldMT-74" x="331.453125"/>
     <use xlink:href="#TimesNewRomanPS-BoldMT-65" x="364.753906"/>
     <use xlink:href="#TimesNewRomanPS-BoldMT-73" x="409.138672"/>
    </g>
   </g>
   <g id="text_8">
    <!-- Endothelial Cells -->
    <g transform="translate(450.694615 212.536585) scale(0.12 -0.12)">
     <use xlink:href="#TimesNewRomanPS-BoldMT-45"/>
     <use xlink:href="#TimesNewRomanPS-BoldMT-6e" x="66.699219"/>
     <use xlink:href="#TimesNewRomanPS-BoldMT-64" x="122.314453"/>
     <use xlink:href="#TimesNewRomanPS-BoldMT-6f" x="177.929688"/>
     <use xlink:href="#TimesNewRomanPS-BoldMT-74" x="227.929688"/>
     <use xlink:href="#TimesNewRomanPS-BoldMT-68" x="261.230469"/>
     <use xlink:href="#TimesNewRomanPS-BoldMT-65" x="316.845703"/>
     <use xlink:href="#TimesNewRomanPS-BoldMT-6c" x="361.230469"/>
     <use xlink:href="#TimesNewRomanPS-BoldMT-69" x="389.013672"/>
     <use xlink:href="#TimesNewRomanPS-BoldMT-61" x="416.796875"/>
     <use xlink:href="#TimesNewRomanPS-BoldMT-6c" x="466.796875"/>
     <use xlink:href="#TimesNewRomanPS-BoldMT-20" x="494.580078"/>
     <use xlink:href="#TimesNewRomanPS-BoldMT-43" x="519.580078"/>
     <use xlink:href="#TimesNewRomanPS-BoldMT-65" x="591.796875"/>
     <use xlink:href="#TimesNewRomanPS-BoldMT-6c" x="636.181641"/>
     <use xlink:href="#TimesNewRomanPS-BoldMT-6c" x="663.964844"/>
     <use xlink:href="#TimesNewRomanPS-BoldMT-73" x="691.748047"/>
    </g>
   </g>
   <g id="text_9">
    <!-- Excitatory Neurons -->
    <g transform="translate(450.694615 163.83854) scale(0.12 -0.12)">
     <use xlink:href="#TimesNewRomanPS-BoldMT-45"/>
     <use xlink:href="#TimesNewRomanPS-BoldMT-78" x="66.699219"/>
     <use xlink:href="#TimesNewRomanPS-BoldMT-63" x="116.699219"/>
     <use xlink:href="#TimesNewRomanPS-BoldMT-69" x="161.083984"/>
     <use xlink:href="#TimesNewRomanPS-BoldMT-74" x="188.867188"/>
     <use xlink:href="#TimesNewRomanPS-BoldMT-61" x="222.167969"/>
     <use xlink:href="#TimesNewRomanPS-BoldMT-74" x="272.167969"/>
     <use xlink:href="#TimesNewRomanPS-BoldMT-6f" x="305.46875"/>
     <use xlink:href="#TimesNewRomanPS-BoldMT-72" x="355.46875"/>
     <use xlink:href="#TimesNewRomanPS-BoldMT-79" x="399.853516"/>
     <use xlink:href="#TimesNewRomanPS-BoldMT-20" x="449.853516"/>
     <use xlink:href="#TimesNewRomanPS-BoldMT-4e" x="474.853516"/>
     <use xlink:href="#TimesNewRomanPS-BoldMT-65" x="547.070312"/>
     <use xlink:href="#TimesNewRomanPS-BoldMT-75" x="591.455078"/>
     <use xlink:href="#TimesNewRomanPS-BoldMT-72" x="647.070312"/>
     <use xlink:href="#TimesNewRomanPS-BoldMT-6f" x="689.705078"/>
     <use xlink:href="#TimesNewRomanPS-BoldMT-6e" x="739.705078"/>
     <use xlink:href="#TimesNewRomanPS-BoldMT-73" x="795.320312"/>
    </g>
   </g>
   <g id="text_10">
    <!-- Inhibitory Neurons -->
    <g transform="translate(450.694615 100.407859) scale(0.12 -0.12)">
     <use xlink:href="#TimesNewRomanPS-BoldMT-49"/>
     <use xlink:href="#TimesNewRomanPS-BoldMT-6e" x="38.916016"/>
     <use xlink:href="#TimesNewRomanPS-BoldMT-68" x="94.53125"/>
     <use xlink:href="#TimesNewRomanPS-BoldMT-69" x="150.146484"/>
     <use xlink:href="#TimesNewRomanPS-BoldMT-62" x="177.929688"/>
     <use xlink:href="#TimesNewRomanPS-BoldMT-69" x="233.544922"/>
     <use xlink:href="#TimesNewRomanPS-BoldMT-74" x="261.328125"/>
     <use xlink:href="#TimesNewRomanPS-BoldMT-6f" x="294.628906"/>
     <use xlink:href="#TimesNewRomanPS-BoldMT-72" x="344.628906"/>
     <use xlink:href="#TimesNewRomanPS-BoldMT-79" x="389.013672"/>
     <use xlink:href="#TimesNewRomanPS-BoldMT-20" x="439.013672"/>
     <use xlink:href="#TimesNewRomanPS-BoldMT-4e" x="464.013672"/>
     <use xlink:href="#TimesNewRomanPS-BoldMT-65" x="536.230469"/>
     <use xlink:href="#TimesNewRomanPS-BoldMT-75" x="580.615234"/>
     <use xlink:href="#TimesNewRomanPS-BoldMT-72" x="636.230469"/>
     <use xlink:href="#TimesNewRomanPS-BoldMT-6f" x="678.865234"/>
     <use xlink:href="#TimesNewRomanPS-BoldMT-6e" x="728.865234"/>
     <use xlink:href="#TimesNewRomanPS-BoldMT-73" x="784.480469"/>
    </g>
   </g>
   <g id="text_11">
    <!-- Microglia -->
    <g transform="translate(450.694615 51.902693) scale(0.12 -0.12)">
     <use xlink:href="#TimesNewRomanPS-BoldMT-4d"/>
     <use xlink:href="#TimesNewRomanPS-BoldMT-69" x="94.384766"/>
     <use xlink:href="#TimesNewRomanPS-BoldMT-63" x="122.167969"/>
     <use xlink:href="#TimesNewRomanPS-BoldMT-72" x="166.552734"/>
     <use xlink:href="#TimesNewRomanPS-BoldMT-6f" x="209.1875"/>
     <use xlink:href="#TimesNewRomanPS-BoldMT-67" x="259.1875"/>
     <use xlink:href="#TimesNewRomanPS-BoldMT-6c" x="309.1875"/>
     <use xlink:href="#TimesNewRomanPS-BoldMT-69" x="336.970703"/>
     <use xlink:href="#TimesNewRomanPS-BoldMT-61" x="364.753906"/>
    </g>
   </g>
   <g id="text_12">
    <!-- Oligodendrocytes -->
    <g transform="translate(450.694615 22.508793) scale(0.12 -0.12)">
     <use xlink:href="#TimesNewRomanPS-BoldMT-4f"/>
     <use xlink:href="#TimesNewRomanPS-BoldMT-6c" x="77.783203"/>
     <use xlink:href="#TimesNewRomanPS-BoldMT-69" x="105.566406"/>
     <use xlink:href="#TimesNewRomanPS-BoldMT-67" x="133.349609"/>
     <use xlink:href="#TimesNewRomanPS-BoldMT-6f" x="183.349609"/>
     <use xlink:href="#TimesNewRomanPS-BoldMT-64" x="233.349609"/>
     <use xlink:href="#TimesNewRomanPS-BoldMT-65" x="288.964844"/>
     <use xlink:href="#TimesNewRomanPS-BoldMT-6e" x="333.349609"/>
     <use xlink:href="#TimesNewRomanPS-BoldMT-64" x="388.964844"/>
     <use xlink:href="#TimesNewRomanPS-BoldMT-72" x="444.580078"/>
     <use xlink:href="#TimesNewRomanPS-BoldMT-6f" x="487.214844"/>
     <use xlink:href="#TimesNewRomanPS-BoldMT-63" x="537.214844"/>
     <use xlink:href="#TimesNewRomanPS-BoldMT-79" x="581.599609"/>
     <use xlink:href="#TimesNewRomanPS-BoldMT-74" x="631.599609"/>
     <use xlink:href="#TimesNewRomanPS-BoldMT-65" x="664.900391"/>
     <use xlink:href="#TimesNewRomanPS-BoldMT-73" x="709.285156"/>
    </g>
   </g>
  </g>
 </g>
 <defs>
  <clipPath id="p5a8593a5ea">
   <rect x="100.442308" y="7.2" width="357.12" height="266.112"/>
  </clipPath>
 </defs>
</svg>
