<?xml version="1.0" encoding="utf-8" standalone="no"?>
<!DOCTYPE svg PUBLIC "-//W3C//DTD SVG 1.1//EN"
  "http://www.w3.org/Graphics/SVG/1.1/DTD/svg11.dtd">
<svg xmlns:xlink="http://www.w3.org/1999/xlink" width="558.004615pt" height="280.512pt" viewBox="0 0 558.004615 280.512" xmlns="http://www.w3.org/2000/svg" version="1.1">
 <metadata>
  <rdf:RDF xmlns:dc="http://purl.org/dc/elements/1.1/" xmlns:cc="http://creativecommons.org/ns#" xmlns:rdf="http://www.w3.org/1999/02/22-rdf-syntax-ns#">
   <cc:Work>
    <dc:type rdf:resource="http://purl.org/dc/dcmitype/StillImage"/>
    <dc:date>2025-03-16T19:48:05.417207</dc:date>
    <dc:format>image/svg+xml</dc:format>
    <dc:creator>
     <cc:Agent>
      <dc:title>Matplotlib v3.9.3, https://matplotlib.org/</dc:title>
     </cc:Agent>
    </dc:creator>
   </cc:Work>
  </rdf:RDF>
 </metadata>
 <defs>
  <style type="text/css">*{stroke-linejoin: round; stroke-linecap: butt}</style>
 </defs>
 <g id="figure_1">
  <g id="patch_1">
   <path d="M 0 280.512 
L 558.004615 280.512 
L 558.004615 0 
L 0 0 
z
" style="fill: #ffffff"/>
  </g>
  <g id="axes_1">
   <g id="PolyCollection_1">
    <defs>
     <path id="m4efe8f05c2" d="M 116.675035 -38.137656 
L 116.675035 -19.296 
L 122.918392 -19.296 
L 122.918392 -38.137656 
L 122.918392 -38.137656 
L 116.675035 -38.137656 
z
" style="stroke: #5f57db; stroke-opacity: 0.99"/>
    </defs>
    <g clip-path="url(#p51ea4a4689)">
     <use xlink:href="#m4efe8f05c2" x="0" y="280.512" style="fill: #5f57db; fill-opacity: 0.99; stroke: #5f57db; stroke-opacity: 0.99"/>
    </g>
   </g>
   <g id="PolyCollection_2">
    <defs>
     <path id="mdcbc448e5a" d="M 116.675035 -52.089453 
L 116.675035 -47.814456 
L 122.918392 -47.814456 
L 122.918392 -52.089453 
L 122.918392 -52.089453 
L 116.675035 -52.089453 
z
" style="stroke: #db57d3; stroke-opacity: 0.99"/>
    </defs>
    <g clip-path="url(#p51ea4a4689)">
     <use xlink:href="#mdcbc448e5a" x="0" y="280.512" style="fill: #db57d3; fill-opacity: 0.99; stroke: #db57d3; stroke-opacity: 0.99"/>
    </g>
   </g>
   <g id="PolyCollection_3">
    <defs>
     <path id="mb251c5a2aa" d="M 116.675035 -169.327303 
L 116.675035 -61.766253 
L 122.918392 -61.766253 
L 122.918392 -169.327303 
L 122.918392 -169.327303 
L 116.675035 -169.327303 
z
" style="stroke: #db5f57; stroke-opacity: 0.99"/>
    </defs>
    <g clip-path="url(#p51ea4a4689)">
     <use xlink:href="#mb251c5a2aa" x="0" y="280.512" style="fill: #db5f57; fill-opacity: 0.99; stroke: #db5f57; stroke-opacity: 0.99"/>
    </g>
   </g>
   <g id="PolyCollection_4">
    <defs>
     <path id="mfa2552700c" d="M 116.675035 -214.312416 
L 116.675035 -179.004103 
L 122.918392 -179.004103 
L 122.918392 -214.312416 
L 122.918392 -214.312416 
L 116.675035 -214.312416 
z
" style="stroke: #d3db57; stroke-opacity: 0.99"/>
    </defs>
    <g clip-path="url(#p51ea4a4689)">
     <use xlink:href="#mfa2552700c" x="0" y="280.512" style="fill: #d3db57; fill-opacity: 0.99; stroke: #d3db57; stroke-opacity: 0.99"/>
    </g>
   </g>
   <g id="PolyCollection_5">
    <defs>
     <path id="m9780191fb9" d="M 116.675035 -246.15587 
L 116.675035 -223.989216 
L 122.918392 -223.989216 
L 122.918392 -246.15587 
L 122.918392 -246.15587 
L 116.675035 -246.15587 
z
" style="stroke: #57db5f; stroke-opacity: 0.99"/>
    </defs>
    <g clip-path="url(#p51ea4a4689)">
     <use xlink:href="#m9780191fb9" x="0" y="280.512" style="fill: #57db5f; fill-opacity: 0.99; stroke: #57db5f; stroke-opacity: 0.99"/>
    </g>
   </g>
   <g id="PolyCollection_6">
    <defs>
     <path id="mc65ab981d4" d="M 116.675035 -261.216 
L 116.675035 -255.83267 
L 122.918392 -255.83267 
L 122.918392 -261.216 
L 122.918392 -261.216 
L 116.675035 -261.216 
z
" style="stroke: #57d3db; stroke-opacity: 0.99"/>
    </defs>
    <g clip-path="url(#p51ea4a4689)">
     <use xlink:href="#mc65ab981d4" x="0" y="280.512" style="fill: #57d3db; fill-opacity: 0.99; stroke: #57d3db; stroke-opacity: 0.99"/>
    </g>
   </g>
   <g id="PolyCollection_7">
    <defs>
     <path id="m9866efeec5" d="M 435.086224 -37.398767 
L 435.086224 -19.296 
L 441.32958 -19.296 
L 441.32958 -37.398767 
L 441.32958 -37.398767 
L 435.086224 -37.398767 
z
" style="stroke: #5f57db; stroke-opacity: 0.99"/>
    </defs>
    <g clip-path="url(#p51ea4a4689)">
     <use xlink:href="#m9866efeec5" x="0" y="280.512" style="fill: #5f57db; fill-opacity: 0.99; stroke: #5f57db; stroke-opacity: 0.99"/>
    </g>
   </g>
   <g id="PolyCollection_8">
    <defs>
     <path id="mada686500f" d="M 435.086224 -51.297787 
L 435.086224 -47.075567 
L 441.32958 -47.075567 
L 441.32958 -51.297787 
L 441.32958 -51.297787 
L 435.086224 -51.297787 
z
" style="stroke: #db57d3; stroke-opacity: 0.99"/>
    </defs>
    <g clip-path="url(#p51ea4a4689)">
     <use xlink:href="#mada686500f" x="0" y="280.512" style="fill: #db57d3; fill-opacity: 0.99; stroke: #db57d3; stroke-opacity: 0.99"/>
    </g>
   </g>
   <g id="PolyCollection_9">
    <defs>
     <path id="m00e7704cfa" d="M 435.086224 -165.791194 
L 435.086224 -60.974587 
L 441.32958 -60.974587 
L 441.32958 -165.791194 
L 441.32958 -165.791194 
L 435.086224 -165.791194 
z
" style="stroke: #db5f57; stroke-opacity: 0.99"/>
    </defs>
    <g clip-path="url(#p51ea4a4689)">
     <use xlink:href="#m00e7704cfa" x="0" y="280.512" style="fill: #db5f57; fill-opacity: 0.99; stroke: #db5f57; stroke-opacity: 0.99"/>
    </g>
   </g>
   <g id="PolyCollection_10">
    <defs>
     <path id="m113b3cda15" d="M 435.086224 -214.101305 
L 435.086224 -175.467994 
L 441.32958 -175.467994 
L 441.32958 -214.101305 
L 441.32958 -214.101305 
L 435.086224 -214.101305 
z
" style="stroke: #d3db57; stroke-opacity: 0.99"/>
    </defs>
    <g clip-path="url(#p51ea4a4689)">
     <use xlink:href="#m113b3cda15" x="0" y="280.512" style="fill: #d3db57; fill-opacity: 0.99; stroke: #d3db57; stroke-opacity: 0.99"/>
    </g>
   </g>
   <g id="PolyCollection_11">
    <defs>
     <path id="m2efe5061b9" d="M 435.086224 -246.15587 
L 435.086224 -223.778105 
L 441.32958 -223.778105 
L 441.32958 -246.15587 
L 441.32958 -246.15587 
L 435.086224 -246.15587 
z
" style="stroke: #57db5f; stroke-opacity: 0.99"/>
    </defs>
    <g clip-path="url(#p51ea4a4689)">
     <use xlink:href="#m2efe5061b9" x="0" y="280.512" style="fill: #57db5f; fill-opacity: 0.99; stroke: #57db5f; stroke-opacity: 0.99"/>
    </g>
   </g>
   <g id="PolyCollection_12">
    <defs>
     <path id="m0ff4746c7b" d="M 435.086224 -261.216 
L 435.086224 -255.83267 
L 441.32958 -255.83267 
L 441.32958 -261.216 
L 441.32958 -261.216 
L 435.086224 -261.216 
z
" style="stroke: #57d3db; stroke-opacity: 0.99"/>
    </defs>
    <g clip-path="url(#p51ea4a4689)">
     <use xlink:href="#m0ff4746c7b" x="0" y="280.512" style="fill: #57d3db; fill-opacity: 0.99; stroke: #57d3db; stroke-opacity: 0.99"/>
    </g>
   </g>
   <g id="PolyCollection_13">
    <defs>
     <path id="m90f5a186e0" d="M 122.918392 -37.187656 
L 122.918392 -19.296 
L 128.035897 -19.296 
L 133.153402 -19.296 
L 138.270908 -19.296 
L 143.388413 -19.296 
L 148.505919 -19.296 
L 153.623424 -19.296 
L 158.74093 -19.296 
L 163.858435 -19.296 
L 168.975941 -19.296 
L 174.093446 -19.296 
L 179.210952 -19.296 
L 184.328457 -19.296 
L 189.445962 -19.296 
L 194.563468 -19.296 
L 199.680973 -19.296 
L 204.798479 -19.296 
L 209.915984 -19.296 
L 215.03349 -19.296 
L 220.150995 -19.296 
L 225.268501 -19.296 
L 230.386006 -19.296 
L 235.503511 -19.296 
L 240.621017 -19.296 
L 245.738522 -19.296 
L 250.856028 -19.296 
L 255.973533 -19.296 
L 261.091039 -19.296 
L 266.208544 -19.296 
L 271.32605 -19.296 
L 276.443555 -19.296 
L 281.56106 -19.296 
L 286.678566 -19.296 
L 291.796071 -19.296 
L 296.913577 -19.296 
L 302.031082 -19.296 
L 307.148588 -19.296 
L 312.266093 -19.296 
L 317.383599 -19.296 
L 322.501104 -19.296 
L 327.618609 -19.296 
L 332.736115 -19.296 
L 337.85362 -19.296 
L 342.971126 -19.296 
L 348.088631 -19.296 
L 353.206137 -19.296 
L 358.323642 -19.296 
L 363.441148 -19.296 
L 368.558653 -19.296 
L 373.676158 -19.296 
L 378.793664 -19.296 
L 383.911169 -19.296 
L 389.028675 -19.296 
L 394.14618 -19.296 
L 399.263686 -19.296 
L 404.381191 -19.296 
L 409.498697 -19.296 
L 414.616202 -19.296 
L 419.733707 -19.296 
L 424.851213 -19.296 
L 429.968718 -19.296 
L 435.086224 -19.296 
L 435.086224 -37.187656 
L 435.086224 -37.187656 
L 429.968718 -37.187656 
L 424.851213 -37.187656 
L 419.733707 -37.187656 
L 414.616202 -37.187656 
L 409.498697 -37.187656 
L 404.381191 -37.187656 
L 399.263686 -37.187656 
L 394.14618 -37.187656 
L 389.028675 -37.187656 
L 383.911169 -37.187656 
L 378.793664 -37.187656 
L 373.676158 -37.187656 
L 368.558653 -37.187656 
L 363.441148 -37.187656 
L 358.323642 -37.187656 
L 353.206137 -37.187656 
L 348.088631 -37.187656 
L 342.971126 -37.187656 
L 337.85362 -37.187656 
L 332.736115 -37.187656 
L 327.618609 -37.187656 
L 322.501104 -37.187656 
L 317.383599 -37.187656 
L 312.266093 -37.187656 
L 307.148588 -37.187656 
L 302.031082 -37.187656 
L 296.913577 -37.187656 
L 291.796071 -37.187656 
L 286.678566 -37.187656 
L 281.56106 -37.187656 
L 276.443555 -37.187656 
L 271.32605 -37.187656 
L 266.208544 -37.187656 
L 261.091039 -37.187656 
L 255.973533 -37.187656 
L 250.856028 -37.187656 
L 245.738522 -37.187656 
L 240.621017 -37.187656 
L 235.503511 -37.187656 
L 230.386006 -37.187656 
L 225.268501 -37.187656 
L 220.150995 -37.187656 
L 215.03349 -37.187656 
L 209.915984 -37.187656 
L 204.798479 -37.187656 
L 199.680973 -37.187656 
L 194.563468 -37.187656 
L 189.445962 -37.187656 
L 184.328457 -37.187656 
L 179.210952 -37.187656 
L 174.093446 -37.187656 
L 168.975941 -37.187656 
L 163.858435 -37.187656 
L 158.74093 -37.187656 
L 153.623424 -37.187656 
L 148.505919 -37.187656 
L 143.388413 -37.187656 
L 138.270908 -37.187656 
L 133.153402 -37.187656 
L 128.035897 -37.187656 
L 122.918392 -37.187656 
z
" style="stroke: #5f57db; stroke-opacity: 0.65"/>
    </defs>
    <g clip-path="url(#p51ea4a4689)">
     <use xlink:href="#m90f5a186e0" x="0" y="280.512" style="fill: #5f57db; fill-opacity: 0.65; stroke: #5f57db; stroke-opacity: 0.65"/>
    </g>
   </g>
   <g id="PolyCollection_14">
    <defs>
     <path id="m38c2b2497a" d="M 122.918392 -37.240434 
L 122.918392 -37.187656 
L 128.035897 -37.187656 
L 133.153402 -37.187656 
L 138.270908 -37.187656 
L 143.388413 -37.187656 
L 148.505919 -37.187656 
L 153.623424 -37.187656 
L 158.74093 -37.187656 
L 163.858435 -37.187656 
L 168.975941 -37.187656 
L 174.093446 -37.187656 
L 179.210952 -37.187656 
L 184.328457 -37.247124 
L 189.445962 -37.366058 
L 194.563468 -37.54446 
L 199.680973 -37.78233 
L 204.798479 -38.079666 
L 209.915984 -38.43647 
L 215.03349 -38.852742 
L 220.150995 -39.32848 
L 225.268501 -39.863686 
L 230.386006 -40.458359 
L 235.503511 -41.1125 
L 240.621017 -41.826108 
L 245.738522 -42.599183 
L 250.856028 -43.431726 
L 255.973533 -44.323736 
L 261.091039 -45.275213 
L 266.208544 -46.286157 
L 271.32605 -47.356569 
L 276.443555 -48.486449 
L 281.56106 -49.675795 
L 286.678566 -50.805674 
L 291.796071 -51.876086 
L 296.913577 -52.887031 
L 302.031082 -53.838508 
L 307.148588 -54.730518 
L 312.266093 -55.56306 
L 317.383599 -56.336136 
L 322.501104 -57.049744 
L 327.618609 -57.703884 
L 332.736115 -58.298557 
L 337.85362 -58.833763 
L 342.971126 -59.309502 
L 348.088631 -59.725773 
L 353.206137 -60.082577 
L 358.323642 -60.379914 
L 363.441148 -60.617783 
L 368.558653 -60.796185 
L 373.676158 -60.91512 
L 378.793664 -60.974587 
L 383.911169 -60.974587 
L 389.028675 -60.974587 
L 394.14618 -60.974587 
L 399.263686 -60.974587 
L 404.381191 -60.974587 
L 409.498697 -60.974587 
L 414.616202 -60.974587 
L 419.733707 -60.974587 
L 424.851213 -60.974587 
L 429.968718 -60.974587 
L 435.086224 -60.974587 
L 435.086224 -61.027365 
L 435.086224 -61.027365 
L 429.968718 -61.027365 
L 424.851213 -61.027365 
L 419.733707 -61.027365 
L 414.616202 -61.027365 
L 409.498697 -61.027365 
L 404.381191 -61.027365 
L 399.263686 -61.027365 
L 394.14618 -61.027365 
L 389.028675 -61.027365 
L 383.911169 -61.027365 
L 378.793664 -61.027365 
L 373.676158 -60.967898 
L 368.558653 -60.848963 
L 363.441148 -60.670561 
L 358.323642 -60.432692 
L 353.206137 -60.135355 
L 348.088631 -59.778551 
L 342.971126 -59.36228 
L 337.85362 -58.886541 
L 332.736115 -58.351335 
L 327.618609 -57.756662 
L 322.501104 -57.102521 
L 317.383599 -56.388913 
L 312.266093 -55.615838 
L 307.148588 -54.783296 
L 302.031082 -53.891286 
L 296.913577 -52.939808 
L 291.796071 -51.928864 
L 286.678566 -50.858452 
L 281.56106 -49.728573 
L 276.443555 -48.539226 
L 271.32605 -47.409347 
L 266.208544 -46.338935 
L 261.091039 -45.327991 
L 255.973533 -44.376513 
L 250.856028 -43.484503 
L 245.738522 -42.651961 
L 240.621017 -41.878886 
L 235.503511 -41.165278 
L 230.386006 -40.511137 
L 225.268501 -39.916464 
L 220.150995 -39.381258 
L 215.03349 -38.905519 
L 209.915984 -38.489248 
L 204.798479 -38.132444 
L 199.680973 -37.835107 
L 194.563468 -37.597238 
L 189.445962 -37.418836 
L 184.328457 -37.299901 
L 179.210952 -37.240434 
L 174.093446 -37.240434 
L 168.975941 -37.240434 
L 163.858435 -37.240434 
L 158.74093 -37.240434 
L 153.623424 -37.240434 
L 148.505919 -37.240434 
L 143.388413 -37.240434 
L 138.270908 -37.240434 
L 133.153402 -37.240434 
L 128.035897 -37.240434 
L 122.918392 -37.240434 
z
" style="stroke: #5f57db; stroke-opacity: 0.65"/>
    </defs>
    <g clip-path="url(#p51ea4a4689)">
     <use xlink:href="#m38c2b2497a" x="0" y="280.512" style="fill: #5f57db; fill-opacity: 0.65; stroke: #5f57db; stroke-opacity: 0.65"/>
    </g>
   </g>
   <g id="PolyCollection_15">
    <defs>
     <path id="m98d610dbc8" d="M 122.918392 -38.137656 
L 122.918392 -37.240434 
L 128.035897 -37.240434 
L 133.153402 -37.240434 
L 138.270908 -37.240434 
L 143.388413 -37.240434 
L 148.505919 -37.240434 
L 153.623424 -37.240434 
L 158.74093 -37.240434 
L 163.858435 -37.240434 
L 168.975941 -37.240434 
L 174.093446 -37.240434 
L 179.210952 -37.240434 
L 184.328457 -37.586003 
L 189.445962 -38.277141 
L 194.563468 -39.313848 
L 199.680973 -40.696123 
L 204.798479 -42.423968 
L 209.915984 -44.497381 
L 215.03349 -46.916363 
L 220.150995 -49.680915 
L 225.268501 -52.791035 
L 230.386006 -56.246724 
L 235.503511 -60.047981 
L 240.621017 -64.194808 
L 245.738522 -68.687204 
L 250.856028 -73.525169 
L 255.973533 -78.708702 
L 261.091039 -84.237804 
L 266.208544 -90.112476 
L 271.32605 -96.332716 
L 276.443555 -102.898525 
L 281.56106 -109.809903 
L 286.678566 -116.375712 
L 291.796071 -122.595952 
L 296.913577 -128.470623 
L 302.031082 -133.999726 
L 307.148588 -139.183259 
L 312.266093 -144.021224 
L 317.383599 -148.51362 
L 322.501104 -152.660446 
L 327.618609 -156.461704 
L 332.736115 -159.917393 
L 337.85362 -163.027513 
L 342.971126 -165.792065 
L 348.088631 -168.211047 
L 353.206137 -170.28446 
L 358.323642 -172.012305 
L 363.441148 -173.39458 
L 368.558653 -174.431287 
L 373.676158 -175.122425 
L 378.793664 -175.467994 
L 383.911169 -175.467994 
L 389.028675 -175.467994 
L 394.14618 -175.467994 
L 399.263686 -175.467994 
L 404.381191 -175.467994 
L 409.498697 -175.467994 
L 414.616202 -175.467994 
L 419.733707 -175.467994 
L 424.851213 -175.467994 
L 429.968718 -175.467994 
L 435.086224 -175.467994 
L 435.086224 -176.365215 
L 435.086224 -176.365215 
L 429.968718 -176.365215 
L 424.851213 -176.365215 
L 419.733707 -176.365215 
L 414.616202 -176.365215 
L 409.498697 -176.365215 
L 404.381191 -176.365215 
L 399.263686 -176.365215 
L 394.14618 -176.365215 
L 389.028675 -176.365215 
L 383.911169 -176.365215 
L 378.793664 -176.365215 
L 373.676158 -176.019646 
L 368.558653 -175.328509 
L 363.441148 -174.291802 
L 358.323642 -172.909526 
L 353.206137 -171.181682 
L 348.088631 -169.108269 
L 342.971126 -166.689286 
L 337.85362 -163.924735 
L 332.736115 -160.814615 
L 327.618609 -157.358926 
L 322.501104 -153.557668 
L 317.383599 -149.410841 
L 312.266093 -144.918446 
L 307.148588 -140.080481 
L 302.031082 -134.896948 
L 296.913577 -129.367845 
L 291.796071 -123.493174 
L 286.678566 -117.272934 
L 281.56106 -110.707125 
L 276.443555 -103.795747 
L 271.32605 -97.229938 
L 266.208544 -91.009697 
L 261.091039 -85.135026 
L 255.973533 -79.605924 
L 250.856028 -74.42239 
L 245.738522 -69.584426 
L 240.621017 -65.09203 
L 235.503511 -60.945203 
L 230.386006 -57.143945 
L 225.268501 -53.688256 
L 220.150995 -50.578136 
L 215.03349 -47.813585 
L 209.915984 -45.394603 
L 204.798479 -43.321189 
L 199.680973 -41.593345 
L 194.563468 -40.211069 
L 189.445962 -39.174363 
L 184.328457 -38.483225 
L 179.210952 -38.137656 
L 174.093446 -38.137656 
L 168.975941 -38.137656 
L 163.858435 -38.137656 
L 158.74093 -38.137656 
L 153.623424 -38.137656 
L 148.505919 -38.137656 
L 143.388413 -38.137656 
L 138.270908 -38.137656 
L 133.153402 -38.137656 
L 128.035897 -38.137656 
L 122.918392 -38.137656 
z
" style="stroke: #5f57db; stroke-opacity: 0.65"/>
    </defs>
    <g clip-path="url(#p51ea4a4689)">
     <use xlink:href="#m98d610dbc8" x="0" y="280.512" style="fill: #5f57db; fill-opacity: 0.65; stroke: #5f57db; stroke-opacity: 0.65"/>
    </g>
   </g>
   <g id="PolyCollection_16">
    <defs>
     <path id="mc5ede12f22" d="M 122.918392 -52.036676 
L 122.918392 -47.814456 
L 128.035897 -47.814456 
L 133.153402 -47.814456 
L 138.270908 -47.814456 
L 143.388413 -47.814456 
L 148.505919 -47.814456 
L 153.623424 -47.814456 
L 158.74093 -47.814456 
L 163.858435 -47.814456 
L 168.975941 -47.814456 
L 174.093446 -47.814456 
L 179.210952 -47.814456 
L 184.328457 -47.812609 
L 189.445962 -47.808914 
L 194.563468 -47.803373 
L 199.680973 -47.795984 
L 204.798479 -47.786748 
L 209.915984 -47.775664 
L 215.03349 -47.762734 
L 220.150995 -47.747956 
L 225.268501 -47.731331 
L 230.386006 -47.712859 
L 235.503511 -47.692539 
L 240.621017 -47.670373 
L 245.738522 -47.646359 
L 250.856028 -47.620498 
L 255.973533 -47.592789 
L 261.091039 -47.563234 
L 266.208544 -47.531831 
L 271.32605 -47.498581 
L 276.443555 -47.463484 
L 281.56106 -47.426539 
L 286.678566 -47.391442 
L 291.796071 -47.358192 
L 296.913577 -47.326789 
L 302.031082 -47.297234 
L 307.148588 -47.269526 
L 312.266093 -47.243665 
L 317.383599 -47.219651 
L 322.501104 -47.197484 
L 327.618609 -47.177165 
L 332.736115 -47.158692 
L 337.85362 -47.142067 
L 342.971126 -47.12729 
L 348.088631 -47.114359 
L 353.206137 -47.103276 
L 358.323642 -47.09404 
L 363.441148 -47.086651 
L 368.558653 -47.081109 
L 373.676158 -47.077415 
L 378.793664 -47.075567 
L 383.911169 -47.075567 
L 389.028675 -47.075567 
L 394.14618 -47.075567 
L 399.263686 -47.075567 
L 404.381191 -47.075567 
L 409.498697 -47.075567 
L 414.616202 -47.075567 
L 419.733707 -47.075567 
L 424.851213 -47.075567 
L 429.968718 -47.075567 
L 435.086224 -47.075567 
L 435.086224 -51.297787 
L 435.086224 -51.297787 
L 429.968718 -51.297787 
L 424.851213 -51.297787 
L 419.733707 -51.297787 
L 414.616202 -51.297787 
L 409.498697 -51.297787 
L 404.381191 -51.297787 
L 399.263686 -51.297787 
L 394.14618 -51.297787 
L 389.028675 -51.297787 
L 383.911169 -51.297787 
L 378.793664 -51.297787 
L 373.676158 -51.299634 
L 368.558653 -51.303329 
L 363.441148 -51.308871 
L 358.323642 -51.316259 
L 353.206137 -51.325496 
L 348.088631 -51.336579 
L 342.971126 -51.349509 
L 337.85362 -51.364287 
L 332.736115 -51.380912 
L 327.618609 -51.399384 
L 322.501104 -51.419704 
L 317.383599 -51.44187 
L 312.266093 -51.465884 
L 307.148588 -51.491745 
L 302.031082 -51.519454 
L 296.913577 -51.549009 
L 291.796071 -51.580412 
L 286.678566 -51.613662 
L 281.56106 -51.648759 
L 276.443555 -51.685704 
L 271.32605 -51.720801 
L 266.208544 -51.754051 
L 261.091039 -51.785454 
L 255.973533 -51.815009 
L 250.856028 -51.842717 
L 245.738522 -51.868579 
L 240.621017 -51.892592 
L 235.503511 -51.914759 
L 230.386006 -51.935078 
L 225.268501 -51.953551 
L 220.150995 -51.970176 
L 215.03349 -51.984953 
L 209.915984 -51.997884 
L 204.798479 -52.008967 
L 199.680973 -52.018203 
L 194.563468 -52.025592 
L 189.445962 -52.031134 
L 184.328457 -52.034828 
L 179.210952 -52.036676 
L 174.093446 -52.036676 
L 168.975941 -52.036676 
L 163.858435 -52.036676 
L 158.74093 -52.036676 
L 153.623424 -52.036676 
L 148.505919 -52.036676 
L 143.388413 -52.036676 
L 138.270908 -52.036676 
L 133.153402 -52.036676 
L 128.035897 -52.036676 
L 122.918392 -52.036676 
z
" style="stroke: #db57d3; stroke-opacity: 0.65"/>
    </defs>
    <g clip-path="url(#p51ea4a4689)">
     <use xlink:href="#mc5ede12f22" x="0" y="280.512" style="fill: #db57d3; fill-opacity: 0.65; stroke: #db57d3; stroke-opacity: 0.65"/>
    </g>
   </g>
   <g id="PolyCollection_17">
    <defs>
     <path id="m62e9f9726b" d="M 122.918392 -52.089453 
L 122.918392 -52.036676 
L 128.035897 -52.036676 
L 133.153402 -52.036676 
L 138.270908 -52.036676 
L 143.388413 -52.036676 
L 148.505919 -52.036676 
L 153.623424 -52.036676 
L 158.74093 -52.036676 
L 163.858435 -52.036676 
L 168.975941 -52.036676 
L 174.093446 -52.036676 
L 179.210952 -52.036676 
L 184.328457 -52.466029 
L 189.445962 -53.324736 
L 194.563468 -54.612797 
L 199.680973 -56.330211 
L 204.798479 -58.476979 
L 209.915984 -61.053101 
L 215.03349 -64.058576 
L 220.150995 -67.493404 
L 225.268501 -71.357586 
L 230.386006 -75.651122 
L 235.503511 -80.374011 
L 240.621017 -85.526254 
L 245.738522 -91.107851 
L 250.856028 -97.118801 
L 255.973533 -103.559104 
L 261.091039 -110.428762 
L 266.208544 -117.727772 
L 271.32605 -125.456137 
L 276.443555 -133.613855 
L 281.56106 -142.200926 
L 286.678566 -150.358644 
L 291.796071 -158.087008 
L 296.913577 -165.386019 
L 302.031082 -172.255676 
L 307.148588 -178.69598 
L 312.266093 -184.70693 
L 317.383599 -190.288526 
L 322.501104 -195.440769 
L 327.618609 -200.163658 
L 332.736115 -204.457194 
L 337.85362 -208.321376 
L 342.971126 -211.756205 
L 348.088631 -214.76168 
L 353.206137 -217.337801 
L 358.323642 -219.484569 
L 363.441148 -221.201983 
L 368.558653 -222.490044 
L 373.676158 -223.348751 
L 378.793664 -223.778105 
L 383.911169 -223.778105 
L 389.028675 -223.778105 
L 394.14618 -223.778105 
L 399.263686 -223.778105 
L 404.381191 -223.778105 
L 409.498697 -223.778105 
L 414.616202 -223.778105 
L 419.733707 -223.778105 
L 424.851213 -223.778105 
L 429.968718 -223.778105 
L 435.086224 -223.778105 
L 435.086224 -223.830883 
L 435.086224 -223.830883 
L 429.968718 -223.830883 
L 424.851213 -223.830883 
L 419.733707 -223.830883 
L 414.616202 -223.830883 
L 409.498697 -223.830883 
L 404.381191 -223.830883 
L 399.263686 -223.830883 
L 394.14618 -223.830883 
L 389.028675 -223.830883 
L 383.911169 -223.830883 
L 378.793664 -223.830883 
L 373.676158 -223.401529 
L 368.558653 -222.542822 
L 363.441148 -221.254761 
L 358.323642 -219.537347 
L 353.206137 -217.390579 
L 348.088631 -214.814458 
L 342.971126 -211.808983 
L 337.85362 -208.374154 
L 332.736115 -204.509972 
L 327.618609 -200.216436 
L 322.501104 -195.493547 
L 317.383599 -190.341304 
L 312.266093 -184.759707 
L 307.148588 -178.748757 
L 302.031082 -172.308454 
L 296.913577 -165.438797 
L 291.796071 -158.139786 
L 286.678566 -150.411422 
L 281.56106 -142.253704 
L 276.443555 -133.666632 
L 271.32605 -125.508914 
L 266.208544 -117.78055 
L 261.091039 -110.481539 
L 255.973533 -103.611882 
L 250.856028 -97.171579 
L 245.738522 -91.160629 
L 240.621017 -85.579032 
L 235.503511 -80.426789 
L 230.386006 -75.7039 
L 225.268501 -71.410364 
L 220.150995 -67.546182 
L 215.03349 -64.111353 
L 209.915984 -61.105878 
L 204.798479 -58.529757 
L 199.680973 -56.382989 
L 194.563468 -54.665575 
L 189.445962 -53.377514 
L 184.328457 -52.518807 
L 179.210952 -52.089453 
L 174.093446 -52.089453 
L 168.975941 -52.089453 
L 163.858435 -52.089453 
L 158.74093 -52.089453 
L 153.623424 -52.089453 
L 148.505919 -52.089453 
L 143.388413 -52.089453 
L 138.270908 -52.089453 
L 133.153402 -52.089453 
L 128.035897 -52.089453 
L 122.918392 -52.089453 
z
" style="stroke: #db57d3; stroke-opacity: 0.65"/>
    </defs>
    <g clip-path="url(#p51ea4a4689)">
     <use xlink:href="#m62e9f9726b" x="0" y="280.512" style="fill: #db57d3; fill-opacity: 0.65; stroke: #db57d3; stroke-opacity: 0.65"/>
    </g>
   </g>
   <g id="PolyCollection_18">
    <defs>
     <path id="mae6e7a398f" d="M 122.918392 -166.318971 
L 122.918392 -61.766253 
L 128.035897 -61.766253 
L 133.153402 -61.766253 
L 138.270908 -61.766253 
L 143.388413 -61.766253 
L 148.505919 -61.766253 
L 153.623424 -61.766253 
L 158.74093 -61.766253 
L 163.858435 -61.766253 
L 168.975941 -61.766253 
L 174.093446 -61.766253 
L 179.210952 -61.766253 
L 184.328457 -61.764406 
L 189.445962 -61.760712 
L 194.563468 -61.75517 
L 199.680973 -61.747781 
L 204.798479 -61.738545 
L 209.915984 -61.727462 
L 215.03349 -61.714531 
L 220.150995 -61.699753 
L 225.268501 -61.683128 
L 230.386006 -61.664656 
L 235.503511 -61.644337 
L 240.621017 -61.62217 
L 245.738522 -61.598156 
L 250.856028 -61.572295 
L 255.973533 -61.544587 
L 261.091039 -61.515031 
L 266.208544 -61.483629 
L 271.32605 -61.450379 
L 276.443555 -61.415281 
L 281.56106 -61.378337 
L 286.678566 -61.34324 
L 291.796071 -61.30999 
L 296.913577 -61.278587 
L 302.031082 -61.249031 
L 307.148588 -61.221323 
L 312.266093 -61.195462 
L 317.383599 -61.171448 
L 322.501104 -61.149282 
L 327.618609 -61.128962 
L 332.736115 -61.11049 
L 337.85362 -61.093865 
L 342.971126 -61.079087 
L 348.088631 -61.066157 
L 353.206137 -61.055073 
L 358.323642 -61.045837 
L 363.441148 -61.038448 
L 368.558653 -61.032907 
L 373.676158 -61.029212 
L 378.793664 -61.027365 
L 383.911169 -61.027365 
L 389.028675 -61.027365 
L 394.14618 -61.027365 
L 399.263686 -61.027365 
L 404.381191 -61.027365 
L 409.498697 -61.027365 
L 414.616202 -61.027365 
L 419.733707 -61.027365 
L 424.851213 -61.027365 
L 429.968718 -61.027365 
L 435.086224 -61.027365 
L 435.086224 -165.580083 
L 435.086224 -165.580083 
L 429.968718 -165.580083 
L 424.851213 -165.580083 
L 419.733707 -165.580083 
L 414.616202 -165.580083 
L 409.498697 -165.580083 
L 404.381191 -165.580083 
L 399.263686 -165.580083 
L 394.14618 -165.580083 
L 389.028675 -165.580083 
L 383.911169 -165.580083 
L 378.793664 -165.580083 
L 373.676158 -165.58193 
L 368.558653 -165.585624 
L 363.441148 -165.591166 
L 358.323642 -165.598555 
L 353.206137 -165.607791 
L 348.088631 -165.618874 
L 342.971126 -165.631805 
L 337.85362 -165.646583 
L 332.736115 -165.663208 
L 327.618609 -165.68168 
L 322.501104 -165.701999 
L 317.383599 -165.724166 
L 312.266093 -165.74818 
L 307.148588 -165.774041 
L 302.031082 -165.801749 
L 296.913577 -165.831305 
L 291.796071 -165.862708 
L 286.678566 -165.895958 
L 281.56106 -165.931055 
L 276.443555 -165.967999 
L 271.32605 -166.003096 
L 266.208544 -166.036346 
L 261.091039 -166.067749 
L 255.973533 -166.097305 
L 250.856028 -166.125013 
L 245.738522 -166.150874 
L 240.621017 -166.174888 
L 235.503511 -166.197055 
L 230.386006 -166.217374 
L 225.268501 -166.235846 
L 220.150995 -166.252471 
L 215.03349 -166.267249 
L 209.915984 -166.28018 
L 204.798479 -166.291263 
L 199.680973 -166.300499 
L 194.563468 -166.307888 
L 189.445962 -166.313429 
L 184.328457 -166.317124 
L 179.210952 -166.318971 
L 174.093446 -166.318971 
L 168.975941 -166.318971 
L 163.858435 -166.318971 
L 158.74093 -166.318971 
L 153.623424 -166.318971 
L 148.505919 -166.318971 
L 143.388413 -166.318971 
L 138.270908 -166.318971 
L 133.153402 -166.318971 
L 128.035897 -166.318971 
L 122.918392 -166.318971 
z
" style="stroke: #db5f57; stroke-opacity: 0.65"/>
    </defs>
    <g clip-path="url(#p51ea4a4689)">
     <use xlink:href="#mae6e7a398f" x="0" y="280.512" style="fill: #db5f57; fill-opacity: 0.65; stroke: #db5f57; stroke-opacity: 0.65"/>
    </g>
   </g>
   <g id="PolyCollection_19">
    <defs>
     <path id="mca979f49ad" d="M 122.918392 -169.327303 
L 122.918392 -166.318971 
L 128.035897 -166.318971 
L 133.153402 -166.318971 
L 138.270908 -166.318971 
L 143.388413 -166.318971 
L 148.505919 -166.318971 
L 153.623424 -166.318971 
L 158.74093 -166.318971 
L 163.858435 -166.318971 
L 168.975941 -166.318971 
L 174.093446 -166.318971 
L 179.210952 -166.318971 
L 184.328457 -166.344087 
L 189.445962 -166.394318 
L 194.563468 -166.469665 
L 199.680973 -166.570127 
L 204.798479 -166.695705 
L 209.915984 -166.846399 
L 215.03349 -167.022208 
L 220.150995 -167.223133 
L 225.268501 -167.449174 
L 230.386006 -167.70033 
L 235.503511 -167.976601 
L 240.621017 -168.277989 
L 245.738522 -168.604492 
L 250.856028 -168.95611 
L 255.973533 -169.332844 
L 261.091039 -169.734694 
L 266.208544 -170.16166 
L 271.32605 -170.613741 
L 276.443555 -171.090937 
L 281.56106 -171.593249 
L 286.678566 -172.070446 
L 291.796071 -172.522527 
L 296.913577 -172.949492 
L 302.031082 -173.351342 
L 307.148588 -173.728076 
L 312.266093 -174.079695 
L 317.383599 -174.406198 
L 322.501104 -174.707585 
L 327.618609 -174.983857 
L 332.736115 -175.235013 
L 337.85362 -175.461053 
L 342.971126 -175.661978 
L 348.088631 -175.837788 
L 353.206137 -175.988481 
L 358.323642 -176.114059 
L 363.441148 -176.214522 
L 368.558653 -176.289869 
L 373.676158 -176.3401 
L 378.793664 -176.365215 
L 383.911169 -176.365215 
L 389.028675 -176.365215 
L 394.14618 -176.365215 
L 399.263686 -176.365215 
L 404.381191 -176.365215 
L 409.498697 -176.365215 
L 414.616202 -176.365215 
L 419.733707 -176.365215 
L 424.851213 -176.365215 
L 429.968718 -176.365215 
L 435.086224 -176.365215 
L 435.086224 -179.373547 
L 435.086224 -179.373547 
L 429.968718 -179.373547 
L 424.851213 -179.373547 
L 419.733707 -179.373547 
L 414.616202 -179.373547 
L 409.498697 -179.373547 
L 404.381191 -179.373547 
L 399.263686 -179.373547 
L 394.14618 -179.373547 
L 389.028675 -179.373547 
L 383.911169 -179.373547 
L 378.793664 -179.373547 
L 373.676158 -179.348431 
L 368.558653 -179.2982 
L 363.441148 -179.222853 
L 358.323642 -179.122391 
L 353.206137 -178.996813 
L 348.088631 -178.846119 
L 342.971126 -178.67031 
L 337.85362 -178.469385 
L 332.736115 -178.243345 
L 327.618609 -177.992188 
L 322.501104 -177.715917 
L 317.383599 -177.414529 
L 312.266093 -177.088026 
L 307.148588 -176.736408 
L 302.031082 -176.359674 
L 296.913577 -175.957824 
L 291.796071 -175.530859 
L 286.678566 -175.078778 
L 281.56106 -174.601581 
L 276.443555 -174.099269 
L 271.32605 -173.622072 
L 266.208544 -173.169991 
L 261.091039 -172.743026 
L 255.973533 -172.341176 
L 250.856028 -171.964442 
L 245.738522 -171.612823 
L 240.621017 -171.28632 
L 235.503511 -170.984933 
L 230.386006 -170.708661 
L 225.268501 -170.457505 
L 220.150995 -170.231465 
L 215.03349 -170.03054 
L 209.915984 -169.854731 
L 204.798479 -169.704037 
L 199.680973 -169.578459 
L 194.563468 -169.477996 
L 189.445962 -169.40265 
L 184.328457 -169.352418 
L 179.210952 -169.327303 
L 174.093446 -169.327303 
L 168.975941 -169.327303 
L 163.858435 -169.327303 
L 158.74093 -169.327303 
L 153.623424 -169.327303 
L 148.505919 -169.327303 
L 143.388413 -169.327303 
L 138.270908 -169.327303 
L 133.153402 -169.327303 
L 128.035897 -169.327303 
L 122.918392 -169.327303 
z
" style="stroke: #db5f57; stroke-opacity: 0.65"/>
    </defs>
    <g clip-path="url(#p51ea4a4689)">
     <use xlink:href="#mca979f49ad" x="0" y="280.512" style="fill: #db5f57; fill-opacity: 0.65; stroke: #db5f57; stroke-opacity: 0.65"/>
    </g>
   </g>
   <g id="PolyCollection_20">
    <defs>
     <path id="macf6c17f14" d="M 122.918392 -179.215214 
L 122.918392 -179.004103 
L 128.035897 -179.004103 
L 133.153402 -179.004103 
L 138.270908 -179.004103 
L 143.388413 -179.004103 
L 148.505919 -179.004103 
L 153.623424 -179.004103 
L 158.74093 -179.004103 
L 163.858435 -179.004103 
L 168.975941 -179.004103 
L 174.093446 -179.004103 
L 179.210952 -179.004103 
L 184.328457 -178.649562 
L 189.445962 -177.940479 
L 194.563468 -176.876856 
L 199.680973 -175.458692 
L 204.798479 -173.685986 
L 209.915984 -171.558739 
L 215.03349 -169.076952 
L 220.150995 -166.240623 
L 225.268501 -163.049753 
L 230.386006 -159.504341 
L 235.503511 -155.604389 
L 240.621017 -151.349896 
L 245.738522 -146.740861 
L 250.856028 -141.777286 
L 255.973533 -136.459169 
L 261.091039 -130.786511 
L 266.208544 -124.759312 
L 271.32605 -118.377572 
L 276.443555 -111.641291 
L 281.56106 -104.550468 
L 286.678566 -97.814187 
L 291.796071 -91.432447 
L 296.913577 -85.405248 
L 302.031082 -79.73259 
L 307.148588 -74.414474 
L 312.266093 -69.450898 
L 317.383599 -64.841863 
L 322.501104 -60.58737 
L 327.618609 -56.687418 
L 332.736115 -53.142007 
L 337.85362 -49.951137 
L 342.971126 -47.114808 
L 348.088631 -44.63302 
L 353.206137 -42.505773 
L 358.323642 -40.733068 
L 363.441148 -39.314903 
L 368.558653 -38.25128 
L 373.676158 -37.542198 
L 378.793664 -37.187656 
L 383.911169 -37.187656 
L 389.028675 -37.187656 
L 394.14618 -37.187656 
L 399.263686 -37.187656 
L 404.381191 -37.187656 
L 409.498697 -37.187656 
L 414.616202 -37.187656 
L 419.733707 -37.187656 
L 424.851213 -37.187656 
L 429.968718 -37.187656 
L 435.086224 -37.187656 
L 435.086224 -37.398767 
L 435.086224 -37.398767 
L 429.968718 -37.398767 
L 424.851213 -37.398767 
L 419.733707 -37.398767 
L 414.616202 -37.398767 
L 409.498697 -37.398767 
L 404.381191 -37.398767 
L 399.263686 -37.398767 
L 394.14618 -37.398767 
L 389.028675 -37.398767 
L 383.911169 -37.398767 
L 378.793664 -37.398767 
L 373.676158 -37.753309 
L 368.558653 -38.462391 
L 363.441148 -39.526014 
L 358.323642 -40.944179 
L 353.206137 -42.716884 
L 348.088631 -44.844131 
L 342.971126 -47.325919 
L 337.85362 -50.162248 
L 332.736115 -53.353118 
L 327.618609 -56.898529 
L 322.501104 -60.798481 
L 317.383599 -65.052974 
L 312.266093 -69.662009 
L 307.148588 -74.625585 
L 302.031082 -79.943701 
L 296.913577 -85.616359 
L 291.796071 -91.643558 
L 286.678566 -98.025298 
L 281.56106 -104.761579 
L 276.443555 -111.852402 
L 271.32605 -118.588683 
L 266.208544 -124.970423 
L 261.091039 -130.997622 
L 255.973533 -136.67028 
L 250.856028 -141.988397 
L 245.738522 -146.951972 
L 240.621017 -151.561007 
L 235.503511 -155.8155 
L 230.386006 -159.715452 
L 225.268501 -163.260864 
L 220.150995 -166.451734 
L 215.03349 -169.288062 
L 209.915984 -171.76985 
L 204.798479 -173.897097 
L 199.680973 -175.669803 
L 194.563468 -177.087967 
L 189.445962 -178.15159 
L 184.328457 -178.860673 
L 179.210952 -179.215214 
L 174.093446 -179.215214 
L 168.975941 -179.215214 
L 163.858435 -179.215214 
L 158.74093 -179.215214 
L 153.623424 -179.215214 
L 148.505919 -179.215214 
L 143.388413 -179.215214 
L 138.270908 -179.215214 
L 133.153402 -179.215214 
L 128.035897 -179.215214 
L 122.918392 -179.215214 
z
" style="stroke: #d3db57; stroke-opacity: 0.65"/>
    </defs>
    <g clip-path="url(#p51ea4a4689)">
     <use xlink:href="#macf6c17f14" x="0" y="280.512" style="fill: #d3db57; fill-opacity: 0.65; stroke: #d3db57; stroke-opacity: 0.65"/>
    </g>
   </g>
   <g id="PolyCollection_21">
    <defs>
     <path id="mc84f84b1e8" d="M 122.918392 -179.426325 
L 122.918392 -179.215214 
L 128.035897 -179.215214 
L 133.153402 -179.215214 
L 138.270908 -179.215214 
L 143.388413 -179.215214 
L 148.505919 -179.215214 
L 153.623424 -179.215214 
L 158.74093 -179.215214 
L 163.858435 -179.215214 
L 168.975941 -179.215214 
L 174.093446 -179.215214 
L 179.210952 -179.215214 
L 184.328457 -179.181126 
L 189.445962 -179.11295 
L 194.563468 -179.010687 
L 199.680973 -178.874335 
L 204.798479 -178.703896 
L 209.915984 -178.499369 
L 215.03349 -178.260755 
L 220.150995 -177.988052 
L 225.268501 -177.681261 
L 230.386006 -177.340383 
L 235.503511 -176.965417 
L 240.621017 -176.556363 
L 245.738522 -176.113221 
L 250.856028 -175.635992 
L 255.973533 -175.124674 
L 261.091039 -174.579269 
L 266.208544 -173.999776 
L 271.32605 -173.386195 
L 276.443555 -172.738526 
L 281.56106 -172.05677 
L 286.678566 -171.409101 
L 291.796071 -170.79552 
L 296.913577 -170.216027 
L 302.031082 -169.670622 
L 307.148588 -169.159305 
L 312.266093 -168.682075 
L 317.383599 -168.238933 
L 322.501104 -167.829879 
L 327.618609 -167.454913 
L 332.736115 -167.114035 
L 337.85362 -166.807244 
L 342.971126 -166.534542 
L 348.088631 -166.295927 
L 353.206137 -166.0914 
L 358.323642 -165.920961 
L 363.441148 -165.78461 
L 368.558653 -165.682346 
L 373.676158 -165.614171 
L 378.793664 -165.580083 
L 383.911169 -165.580083 
L 389.028675 -165.580083 
L 394.14618 -165.580083 
L 399.263686 -165.580083 
L 404.381191 -165.580083 
L 409.498697 -165.580083 
L 414.616202 -165.580083 
L 419.733707 -165.580083 
L 424.851213 -165.580083 
L 429.968718 -165.580083 
L 435.086224 -165.580083 
L 435.086224 -165.791194 
L 435.086224 -165.791194 
L 429.968718 -165.791194 
L 424.851213 -165.791194 
L 419.733707 -165.791194 
L 414.616202 -165.791194 
L 409.498697 -165.791194 
L 404.381191 -165.791194 
L 399.263686 -165.791194 
L 394.14618 -165.791194 
L 389.028675 -165.791194 
L 383.911169 -165.791194 
L 378.793664 -165.791194 
L 373.676158 -165.825282 
L 368.558653 -165.893457 
L 363.441148 -165.995721 
L 358.323642 -166.132072 
L 353.206137 -166.302511 
L 348.088631 -166.507038 
L 342.971126 -166.745653 
L 337.85362 -167.018355 
L 332.736115 -167.325146 
L 327.618609 -167.666024 
L 322.501104 -168.04099 
L 317.383599 -168.450044 
L 312.266093 -168.893186 
L 307.148588 -169.370416 
L 302.031082 -169.881733 
L 296.913577 -170.427138 
L 291.796071 -171.006631 
L 286.678566 -171.620212 
L 281.56106 -172.267881 
L 276.443555 -172.949637 
L 271.32605 -173.597306 
L 266.208544 -174.210887 
L 261.091039 -174.79038 
L 255.973533 -175.335785 
L 250.856028 -175.847103 
L 245.738522 -176.324332 
L 240.621017 -176.767474 
L 235.503511 -177.176528 
L 230.386006 -177.551494 
L 225.268501 -177.892372 
L 220.150995 -178.199163 
L 215.03349 -178.471866 
L 209.915984 -178.71048 
L 204.798479 -178.915007 
L 199.680973 -179.085446 
L 194.563468 -179.221798 
L 189.445962 -179.324061 
L 184.328457 -179.392237 
L 179.210952 -179.426325 
L 174.093446 -179.426325 
L 168.975941 -179.426325 
L 163.858435 -179.426325 
L 158.74093 -179.426325 
L 153.623424 -179.426325 
L 148.505919 -179.426325 
L 143.388413 -179.426325 
L 138.270908 -179.426325 
L 133.153402 -179.426325 
L 128.035897 -179.426325 
L 122.918392 -179.426325 
z
" style="stroke: #d3db57; stroke-opacity: 0.65"/>
    </defs>
    <g clip-path="url(#p51ea4a4689)">
     <use xlink:href="#mc84f84b1e8" x="0" y="280.512" style="fill: #d3db57; fill-opacity: 0.65; stroke: #d3db57; stroke-opacity: 0.65"/>
    </g>
   </g>
   <g id="PolyCollection_22">
    <defs>
     <path id="m7a1608193e" d="M 122.918392 -213.995749 
L 122.918392 -179.426325 
L 128.035897 -179.426325 
L 133.153402 -179.426325 
L 138.270908 -179.426325 
L 143.388413 -179.426325 
L 148.505919 -179.426325 
L 153.623424 -179.426325 
L 158.74093 -179.426325 
L 163.858435 -179.426325 
L 168.975941 -179.426325 
L 174.093446 -179.426325 
L 179.210952 -179.426325 
L 184.328457 -179.426193 
L 189.445962 -179.425929 
L 194.563468 -179.425533 
L 199.680973 -179.425005 
L 204.798479 -179.424346 
L 209.915984 -179.423554 
L 215.03349 -179.42263 
L 220.150995 -179.421575 
L 225.268501 -179.420387 
L 230.386006 -179.419068 
L 235.503511 -179.417616 
L 240.621017 -179.416033 
L 245.738522 -179.414318 
L 250.856028 -179.412471 
L 255.973533 -179.410491 
L 261.091039 -179.40838 
L 266.208544 -179.406137 
L 271.32605 -179.403762 
L 276.443555 -179.401255 
L 281.56106 -179.398616 
L 286.678566 -179.396109 
L 291.796071 -179.393734 
L 296.913577 -179.391491 
L 302.031082 -179.38938 
L 307.148588 -179.387401 
L 312.266093 -179.385554 
L 317.383599 -179.383839 
L 322.501104 -179.382255 
L 327.618609 -179.380804 
L 332.736115 -179.379484 
L 337.85362 -179.378297 
L 342.971126 -179.377241 
L 348.088631 -179.376318 
L 353.206137 -179.375526 
L 358.323642 -179.374866 
L 363.441148 -179.374339 
L 368.558653 -179.373943 
L 373.676158 -179.373679 
L 378.793664 -179.373547 
L 383.911169 -179.373547 
L 389.028675 -179.373547 
L 394.14618 -179.373547 
L 399.263686 -179.373547 
L 404.381191 -179.373547 
L 409.498697 -179.373547 
L 414.616202 -179.373547 
L 419.733707 -179.373547 
L 424.851213 -179.373547 
L 429.968718 -179.373547 
L 435.086224 -179.373547 
L 435.086224 -213.942972 
L 435.086224 -213.942972 
L 429.968718 -213.942972 
L 424.851213 -213.942972 
L 419.733707 -213.942972 
L 414.616202 -213.942972 
L 409.498697 -213.942972 
L 404.381191 -213.942972 
L 399.263686 -213.942972 
L 394.14618 -213.942972 
L 389.028675 -213.942972 
L 383.911169 -213.942972 
L 378.793664 -213.942972 
L 373.676158 -213.943104 
L 368.558653 -213.943367 
L 363.441148 -213.943763 
L 358.323642 -213.944291 
L 353.206137 -213.944951 
L 348.088631 -213.945742 
L 342.971126 -213.946666 
L 337.85362 -213.947722 
L 332.736115 -213.948909 
L 327.618609 -213.950229 
L 322.501104 -213.95168 
L 317.383599 -213.953263 
L 312.266093 -213.954979 
L 307.148588 -213.956826 
L 302.031082 -213.958805 
L 296.913577 -213.960916 
L 291.796071 -213.963159 
L 286.678566 -213.965534 
L 281.56106 -213.968041 
L 276.443555 -213.97068 
L 271.32605 -213.973187 
L 266.208544 -213.975562 
L 261.091039 -213.977805 
L 255.973533 -213.979916 
L 250.856028 -213.981895 
L 245.738522 -213.983742 
L 240.621017 -213.985458 
L 235.503511 -213.987041 
L 230.386006 -213.988492 
L 225.268501 -213.989812 
L 220.150995 -213.990999 
L 215.03349 -213.992055 
L 209.915984 -213.992979 
L 204.798479 -213.99377 
L 199.680973 -213.99443 
L 194.563468 -213.994958 
L 189.445962 -213.995353 
L 184.328457 -213.995617 
L 179.210952 -213.995749 
L 174.093446 -213.995749 
L 168.975941 -213.995749 
L 163.858435 -213.995749 
L 158.74093 -213.995749 
L 153.623424 -213.995749 
L 148.505919 -213.995749 
L 143.388413 -213.995749 
L 138.270908 -213.995749 
L 133.153402 -213.995749 
L 128.035897 -213.995749 
L 122.918392 -213.995749 
z
" style="stroke: #d3db57; stroke-opacity: 0.65"/>
    </defs>
    <g clip-path="url(#p51ea4a4689)">
     <use xlink:href="#m7a1608193e" x="0" y="280.512" style="fill: #d3db57; fill-opacity: 0.65; stroke: #d3db57; stroke-opacity: 0.65"/>
    </g>
   </g>
   <g id="PolyCollection_23">
    <defs>
     <path id="m3f495efc4c" d="M 122.918392 -214.312416 
L 122.918392 -213.995749 
L 128.035897 -213.995749 
L 133.153402 -213.995749 
L 138.270908 -213.995749 
L 143.388413 -213.995749 
L 148.505919 -213.995749 
L 153.623424 -213.995749 
L 158.74093 -213.995749 
L 163.858435 -213.995749 
L 168.975941 -213.995749 
L 174.093446 -213.995749 
L 179.210952 -213.995749 
L 184.328457 -214.020337 
L 189.445962 -214.069513 
L 194.563468 -214.143276 
L 199.680973 -214.241628 
L 204.798479 -214.364567 
L 209.915984 -214.512094 
L 215.03349 -214.684209 
L 220.150995 -214.880911 
L 225.268501 -215.102202 
L 230.386006 -215.34808 
L 235.503511 -215.618546 
L 240.621017 -215.9136 
L 245.738522 -216.233242 
L 250.856028 -216.577472 
L 255.973533 -216.946289 
L 261.091039 -217.339695 
L 266.208544 -217.757688 
L 271.32605 -218.200269 
L 276.443555 -218.667438 
L 281.56106 -219.159194 
L 286.678566 -219.626363 
L 291.796071 -220.068944 
L 296.913577 -220.486937 
L 302.031082 -220.880343 
L 307.148588 -221.24916 
L 312.266093 -221.59339 
L 317.383599 -221.913032 
L 322.501104 -222.208086 
L 327.618609 -222.478552 
L 332.736115 -222.72443 
L 337.85362 -222.945721 
L 342.971126 -223.142423 
L 348.088631 -223.314538 
L 353.206137 -223.462065 
L 358.323642 -223.585004 
L 363.441148 -223.683356 
L 368.558653 -223.757119 
L 373.676158 -223.806295 
L 378.793664 -223.830883 
L 383.911169 -223.830883 
L 389.028675 -223.830883 
L 394.14618 -223.830883 
L 399.263686 -223.830883 
L 404.381191 -223.830883 
L 409.498697 -223.830883 
L 414.616202 -223.830883 
L 419.733707 -223.830883 
L 424.851213 -223.830883 
L 429.968718 -223.830883 
L 435.086224 -223.830883 
L 435.086224 -224.147549 
L 435.086224 -224.147549 
L 429.968718 -224.147549 
L 424.851213 -224.147549 
L 419.733707 -224.147549 
L 414.616202 -224.147549 
L 409.498697 -224.147549 
L 404.381191 -224.147549 
L 399.263686 -224.147549 
L 394.14618 -224.147549 
L 389.028675 -224.147549 
L 383.911169 -224.147549 
L 378.793664 -224.147549 
L 373.676158 -224.122961 
L 368.558653 -224.073786 
L 363.441148 -224.000022 
L 358.323642 -223.901671 
L 353.206137 -223.778732 
L 348.088631 -223.631205 
L 342.971126 -223.45909 
L 337.85362 -223.262387 
L 332.736115 -223.041097 
L 327.618609 -222.795218 
L 322.501104 -222.524752 
L 317.383599 -222.229698 
L 312.266093 -221.910056 
L 307.148588 -221.565827 
L 302.031082 -221.197009 
L 296.913577 -220.803604 
L 291.796071 -220.385611 
L 286.678566 -219.94303 
L 281.56106 -219.475861 
L 276.443555 -218.984104 
L 271.32605 -218.516935 
L 266.208544 -218.074354 
L 261.091039 -217.656361 
L 255.973533 -217.262956 
L 250.856028 -216.894138 
L 245.738522 -216.549909 
L 240.621017 -216.230267 
L 235.503511 -215.935213 
L 230.386006 -215.664747 
L 225.268501 -215.418868 
L 220.150995 -215.197578 
L 215.03349 -215.000875 
L 209.915984 -214.82876 
L 204.798479 -214.681233 
L 199.680973 -214.558294 
L 194.563468 -214.459943 
L 189.445962 -214.386179 
L 184.328457 -214.337004 
L 179.210952 -214.312416 
L 174.093446 -214.312416 
L 168.975941 -214.312416 
L 163.858435 -214.312416 
L 158.74093 -214.312416 
L 153.623424 -214.312416 
L 148.505919 -214.312416 
L 143.388413 -214.312416 
L 138.270908 -214.312416 
L 133.153402 -214.312416 
L 128.035897 -214.312416 
L 122.918392 -214.312416 
z
" style="stroke: #d3db57; stroke-opacity: 0.65"/>
    </defs>
    <g clip-path="url(#p51ea4a4689)">
     <use xlink:href="#m3f495efc4c" x="0" y="280.512" style="fill: #d3db57; fill-opacity: 0.65; stroke: #d3db57; stroke-opacity: 0.65"/>
    </g>
   </g>
   <g id="PolyCollection_24">
    <defs>
     <path id="mb144060c6a" d="M 122.918392 -224.147549 
L 122.918392 -223.989216 
L 128.035897 -223.989216 
L 133.153402 -223.989216 
L 138.270908 -223.989216 
L 143.388413 -223.989216 
L 148.505919 -223.989216 
L 153.623424 -223.989216 
L 158.74093 -223.989216 
L 163.858435 -223.989216 
L 168.975941 -223.989216 
L 174.093446 -223.989216 
L 179.210952 -223.989216 
L 184.328457 -223.9641 
L 189.445962 -223.913869 
L 194.563468 -223.838522 
L 199.680973 -223.73806 
L 204.798479 -223.612482 
L 209.915984 -223.461788 
L 215.03349 -223.285979 
L 220.150995 -223.085054 
L 225.268501 -222.859013 
L 230.386006 -222.607857 
L 235.503511 -222.331586 
L 240.621017 -222.030198 
L 245.738522 -221.703695 
L 250.856028 -221.352077 
L 255.973533 -220.975343 
L 261.091039 -220.573493 
L 266.208544 -220.146527 
L 271.32605 -219.694446 
L 276.443555 -219.21725 
L 281.56106 -218.714938 
L 286.678566 -218.237741 
L 291.796071 -217.78566 
L 296.913577 -217.358695 
L 302.031082 -216.956845 
L 307.148588 -216.580111 
L 312.266093 -216.228492 
L 317.383599 -215.901989 
L 322.501104 -215.600602 
L 327.618609 -215.32433 
L 332.736115 -215.073174 
L 337.85362 -214.847134 
L 342.971126 -214.646209 
L 348.088631 -214.470399 
L 353.206137 -214.319706 
L 358.323642 -214.194128 
L 363.441148 -214.093665 
L 368.558653 -214.018318 
L 373.676158 -213.968087 
L 378.793664 -213.942972 
L 383.911169 -213.942972 
L 389.028675 -213.942972 
L 394.14618 -213.942972 
L 399.263686 -213.942972 
L 404.381191 -213.942972 
L 409.498697 -213.942972 
L 414.616202 -213.942972 
L 419.733707 -213.942972 
L 424.851213 -213.942972 
L 429.968718 -213.942972 
L 435.086224 -213.942972 
L 435.086224 -214.101305 
L 435.086224 -214.101305 
L 429.968718 -214.101305 
L 424.851213 -214.101305 
L 419.733707 -214.101305 
L 414.616202 -214.101305 
L 409.498697 -214.101305 
L 404.381191 -214.101305 
L 399.263686 -214.101305 
L 394.14618 -214.101305 
L 389.028675 -214.101305 
L 383.911169 -214.101305 
L 378.793664 -214.101305 
L 373.676158 -214.12642 
L 368.558653 -214.176652 
L 363.441148 -214.251998 
L 358.323642 -214.352461 
L 353.206137 -214.478039 
L 348.088631 -214.628733 
L 342.971126 -214.804542 
L 337.85362 -215.005467 
L 332.736115 -215.231507 
L 327.618609 -215.482663 
L 322.501104 -215.758935 
L 317.383599 -216.060322 
L 312.266093 -216.386825 
L 307.148588 -216.738444 
L 302.031082 -217.115178 
L 296.913577 -217.517028 
L 291.796071 -217.943993 
L 286.678566 -218.396074 
L 281.56106 -218.873271 
L 276.443555 -219.375583 
L 271.32605 -219.85278 
L 266.208544 -220.304861 
L 261.091039 -220.731826 
L 255.973533 -221.133676 
L 250.856028 -221.51041 
L 245.738522 -221.862028 
L 240.621017 -222.188531 
L 235.503511 -222.489919 
L 230.386006 -222.76619 
L 225.268501 -223.017347 
L 220.150995 -223.243387 
L 215.03349 -223.444312 
L 209.915984 -223.620121 
L 204.798479 -223.770815 
L 199.680973 -223.896393 
L 194.563468 -223.996855 
L 189.445962 -224.072202 
L 184.328457 -224.122433 
L 179.210952 -224.147549 
L 174.093446 -224.147549 
L 168.975941 -224.147549 
L 163.858435 -224.147549 
L 158.74093 -224.147549 
L 153.623424 -224.147549 
L 148.505919 -224.147549 
L 143.388413 -224.147549 
L 138.270908 -224.147549 
L 133.153402 -224.147549 
L 128.035897 -224.147549 
L 122.918392 -224.147549 
z
" style="stroke: #57db5f; stroke-opacity: 0.65"/>
    </defs>
    <g clip-path="url(#p51ea4a4689)">
     <use xlink:href="#mb144060c6a" x="0" y="280.512" style="fill: #57db5f; fill-opacity: 0.65; stroke: #57db5f; stroke-opacity: 0.65"/>
    </g>
   </g>
   <g id="PolyCollection_25">
    <defs>
     <path id="ma80944c244" d="M 122.918392 -246.15587 
L 122.918392 -224.147549 
L 128.035897 -224.147549 
L 133.153402 -224.147549 
L 138.270908 -224.147549 
L 143.388413 -224.147549 
L 148.505919 -224.147549 
L 153.623424 -224.147549 
L 158.74093 -224.147549 
L 163.858435 -224.147549 
L 168.975941 -224.147549 
L 174.093446 -224.147549 
L 179.210952 -224.147549 
L 184.328457 -224.147549 
L 189.445962 -224.147549 
L 194.563468 -224.147549 
L 199.680973 -224.147549 
L 204.798479 -224.147549 
L 209.915984 -224.147549 
L 215.03349 -224.147549 
L 220.150995 -224.147549 
L 225.268501 -224.147549 
L 230.386006 -224.147549 
L 235.503511 -224.147549 
L 240.621017 -224.147549 
L 245.738522 -224.147549 
L 250.856028 -224.147549 
L 255.973533 -224.147549 
L 261.091039 -224.147549 
L 266.208544 -224.147549 
L 271.32605 -224.147549 
L 276.443555 -224.147549 
L 281.56106 -224.147549 
L 286.678566 -224.147549 
L 291.796071 -224.147549 
L 296.913577 -224.147549 
L 302.031082 -224.147549 
L 307.148588 -224.147549 
L 312.266093 -224.147549 
L 317.383599 -224.147549 
L 322.501104 -224.147549 
L 327.618609 -224.147549 
L 332.736115 -224.147549 
L 337.85362 -224.147549 
L 342.971126 -224.147549 
L 348.088631 -224.147549 
L 353.206137 -224.147549 
L 358.323642 -224.147549 
L 363.441148 -224.147549 
L 368.558653 -224.147549 
L 373.676158 -224.147549 
L 378.793664 -224.147549 
L 383.911169 -224.147549 
L 389.028675 -224.147549 
L 394.14618 -224.147549 
L 399.263686 -224.147549 
L 404.381191 -224.147549 
L 409.498697 -224.147549 
L 414.616202 -224.147549 
L 419.733707 -224.147549 
L 424.851213 -224.147549 
L 429.968718 -224.147549 
L 435.086224 -224.147549 
L 435.086224 -246.15587 
L 435.086224 -246.15587 
L 429.968718 -246.15587 
L 424.851213 -246.15587 
L 419.733707 -246.15587 
L 414.616202 -246.15587 
L 409.498697 -246.15587 
L 404.381191 -246.15587 
L 399.263686 -246.15587 
L 394.14618 -246.15587 
L 389.028675 -246.15587 
L 383.911169 -246.15587 
L 378.793664 -246.15587 
L 373.676158 -246.15587 
L 368.558653 -246.15587 
L 363.441148 -246.15587 
L 358.323642 -246.15587 
L 353.206137 -246.15587 
L 348.088631 -246.15587 
L 342.971126 -246.15587 
L 337.85362 -246.15587 
L 332.736115 -246.15587 
L 327.618609 -246.15587 
L 322.501104 -246.15587 
L 317.383599 -246.15587 
L 312.266093 -246.15587 
L 307.148588 -246.15587 
L 302.031082 -246.15587 
L 296.913577 -246.15587 
L 291.796071 -246.15587 
L 286.678566 -246.15587 
L 281.56106 -246.15587 
L 276.443555 -246.15587 
L 271.32605 -246.15587 
L 266.208544 -246.15587 
L 261.091039 -246.15587 
L 255.973533 -246.15587 
L 250.856028 -246.15587 
L 245.738522 -246.15587 
L 240.621017 -246.15587 
L 235.503511 -246.15587 
L 230.386006 -246.15587 
L 225.268501 -246.15587 
L 220.150995 -246.15587 
L 215.03349 -246.15587 
L 209.915984 -246.15587 
L 204.798479 -246.15587 
L 199.680973 -246.15587 
L 194.563468 -246.15587 
L 189.445962 -246.15587 
L 184.328457 -246.15587 
L 179.210952 -246.15587 
L 174.093446 -246.15587 
L 168.975941 -246.15587 
L 163.858435 -246.15587 
L 158.74093 -246.15587 
L 153.623424 -246.15587 
L 148.505919 -246.15587 
L 143.388413 -246.15587 
L 138.270908 -246.15587 
L 133.153402 -246.15587 
L 128.035897 -246.15587 
L 122.918392 -246.15587 
z
" style="stroke: #57db5f; stroke-opacity: 0.65"/>
    </defs>
    <g clip-path="url(#p51ea4a4689)">
     <use xlink:href="#ma80944c244" x="0" y="280.512" style="fill: #57db5f; fill-opacity: 0.65; stroke: #57db5f; stroke-opacity: 0.65"/>
    </g>
   </g>
   <g id="PolyCollection_26">
    <defs>
     <path id="m37e463b90c" d="M 122.918392 -261.216 
L 122.918392 -255.83267 
L 128.035897 -255.83267 
L 133.153402 -255.83267 
L 138.270908 -255.83267 
L 143.388413 -255.83267 
L 148.505919 -255.83267 
L 153.623424 -255.83267 
L 158.74093 -255.83267 
L 163.858435 -255.83267 
L 168.975941 -255.83267 
L 174.093446 -255.83267 
L 179.210952 -255.83267 
L 184.328457 -255.83267 
L 189.445962 -255.83267 
L 194.563468 -255.83267 
L 199.680973 -255.83267 
L 204.798479 -255.83267 
L 209.915984 -255.83267 
L 215.03349 -255.83267 
L 220.150995 -255.83267 
L 225.268501 -255.83267 
L 230.386006 -255.83267 
L 235.503511 -255.83267 
L 240.621017 -255.83267 
L 245.738522 -255.83267 
L 250.856028 -255.83267 
L 255.973533 -255.83267 
L 261.091039 -255.83267 
L 266.208544 -255.83267 
L 271.32605 -255.83267 
L 276.443555 -255.83267 
L 281.56106 -255.83267 
L 286.678566 -255.83267 
L 291.796071 -255.83267 
L 296.913577 -255.83267 
L 302.031082 -255.83267 
L 307.148588 -255.83267 
L 312.266093 -255.83267 
L 317.383599 -255.83267 
L 322.501104 -255.83267 
L 327.618609 -255.83267 
L 332.736115 -255.83267 
L 337.85362 -255.83267 
L 342.971126 -255.83267 
L 348.088631 -255.83267 
L 353.206137 -255.83267 
L 358.323642 -255.83267 
L 363.441148 -255.83267 
L 368.558653 -255.83267 
L 373.676158 -255.83267 
L 378.793664 -255.83267 
L 383.911169 -255.83267 
L 389.028675 -255.83267 
L 394.14618 -255.83267 
L 399.263686 -255.83267 
L 404.381191 -255.83267 
L 409.498697 -255.83267 
L 414.616202 -255.83267 
L 419.733707 -255.83267 
L 424.851213 -255.83267 
L 429.968718 -255.83267 
L 435.086224 -255.83267 
L 435.086224 -261.216 
L 435.086224 -261.216 
L 429.968718 -261.216 
L 424.851213 -261.216 
L 419.733707 -261.216 
L 414.616202 -261.216 
L 409.498697 -261.216 
L 404.381191 -261.216 
L 399.263686 -261.216 
L 394.14618 -261.216 
L 389.028675 -261.216 
L 383.911169 -261.216 
L 378.793664 -261.216 
L 373.676158 -261.216 
L 368.558653 -261.216 
L 363.441148 -261.216 
L 358.323642 -261.216 
L 353.206137 -261.216 
L 348.088631 -261.216 
L 342.971126 -261.216 
L 337.85362 -261.216 
L 332.736115 -261.216 
L 327.618609 -261.216 
L 322.501104 -261.216 
L 317.383599 -261.216 
L 312.266093 -261.216 
L 307.148588 -261.216 
L 302.031082 -261.216 
L 296.913577 -261.216 
L 291.796071 -261.216 
L 286.678566 -261.216 
L 281.56106 -261.216 
L 276.443555 -261.216 
L 271.32605 -261.216 
L 266.208544 -261.216 
L 261.091039 -261.216 
L 255.973533 -261.216 
L 250.856028 -261.216 
L 245.738522 -261.216 
L 240.621017 -261.216 
L 235.503511 -261.216 
L 230.386006 -261.216 
L 225.268501 -261.216 
L 220.150995 -261.216 
L 215.03349 -261.216 
L 209.915984 -261.216 
L 204.798479 -261.216 
L 199.680973 -261.216 
L 194.563468 -261.216 
L 189.445962 -261.216 
L 184.328457 -261.216 
L 179.210952 -261.216 
L 174.093446 -261.216 
L 168.975941 -261.216 
L 163.858435 -261.216 
L 158.74093 -261.216 
L 153.623424 -261.216 
L 148.505919 -261.216 
L 143.388413 -261.216 
L 138.270908 -261.216 
L 133.153402 -261.216 
L 128.035897 -261.216 
L 122.918392 -261.216 
z
" style="stroke: #57d3db; stroke-opacity: 0.65"/>
    </defs>
    <g clip-path="url(#p51ea4a4689)">
     <use xlink:href="#m37e463b90c" x="0" y="280.512" style="fill: #57d3db; fill-opacity: 0.65; stroke: #57d3db; stroke-opacity: 0.65"/>
    </g>
   </g>
   <g id="text_1">
    <!-- Astrocytes -->
    <g transform="translate(53.540625 254.555172) scale(0.12 -0.12)">
     <defs>
      <path id="TimesNewRomanPS-BoldMT-41" d="M 2663 1206 
L 1166 1206 
L 988 794 
Q 900 588 900 453 
Q 900 275 1044 191 
Q 1128 141 1459 116 
L 1459 0 
L 50 0 
L 50 116 
Q 278 150 425 304 
Q 572 459 788 944 
L 2303 4325 
L 2363 4325 
L 3891 850 
Q 4109 356 4250 228 
Q 4356 131 4550 116 
L 4550 0 
L 2500 0 
L 2500 116 
L 2584 116 
Q 2831 116 2931 184 
Q 3000 234 3000 328 
Q 3000 384 2981 444 
Q 2975 472 2888 678 
L 2663 1206 
z
M 2556 1438 
L 1925 2897 
L 1275 1438 
L 2556 1438 
z
" transform="scale(0.015625)"/>
      <path id="TimesNewRomanPS-BoldMT-73" d="M 2063 3003 
L 2109 2006 
L 2003 2006 
Q 1813 2450 1608 2612 
Q 1403 2775 1200 2775 
Q 1072 2775 981 2689 
Q 891 2603 891 2491 
Q 891 2406 953 2328 
Q 1053 2200 1512 1889 
Q 1972 1578 2117 1361 
Q 2263 1144 2263 875 
Q 2263 631 2141 397 
Q 2019 163 1797 37 
Q 1575 -88 1306 -88 
Q 1097 -88 747 44 
Q 653 78 619 78 
Q 516 78 447 -78 
L 344 -78 
L 294 972 
L 400 972 
Q 541 559 786 353 
Q 1031 147 1250 147 
Q 1400 147 1495 239 
Q 1591 331 1591 463 
Q 1591 613 1497 722 
Q 1403 831 1078 1053 
Q 600 1384 459 1559 
Q 253 1816 253 2125 
Q 253 2463 486 2736 
Q 719 3009 1159 3009 
Q 1397 3009 1619 2894 
Q 1703 2847 1756 2847 
Q 1813 2847 1847 2870 
Q 1881 2894 1956 3003 
L 2063 3003 
z
" transform="scale(0.015625)"/>
      <path id="TimesNewRomanPS-BoldMT-74" d="M 1375 3991 
L 1375 2922 
L 2069 2922 
L 2069 2613 
L 1375 2613 
L 1375 809 
Q 1375 556 1398 482 
Q 1422 409 1481 364 
Q 1541 319 1591 319 
Q 1794 319 1975 628 
L 2069 559 
Q 1816 -41 1247 -41 
Q 969 -41 776 114 
Q 584 269 531 459 
Q 500 566 500 1034 
L 500 2613 
L 119 2613 
L 119 2722 
Q 513 3000 789 3306 
Q 1066 3613 1272 3991 
L 1375 3991 
z
" transform="scale(0.015625)"/>
      <path id="TimesNewRomanPS-BoldMT-72" d="M 1428 2922 
L 1428 2259 
Q 1719 2713 1937 2861 
Q 2156 3009 2359 3009 
Q 2534 3009 2639 2901 
Q 2744 2794 2744 2597 
Q 2744 2388 2642 2272 
Q 2541 2156 2397 2156 
Q 2231 2156 2109 2262 
Q 1988 2369 1966 2381 
Q 1934 2400 1894 2400 
Q 1803 2400 1722 2331 
Q 1594 2225 1528 2028 
Q 1428 1725 1428 1359 
L 1428 688 
L 1431 513 
Q 1431 334 1453 284 
Q 1491 200 1564 161 
Q 1638 122 1813 113 
L 1813 0 
L 234 0 
L 234 113 
Q 425 128 492 217 
Q 559 306 559 688 
L 559 2303 
Q 559 2553 534 2622 
Q 503 2709 443 2750 
Q 384 2791 234 2806 
L 234 2922 
L 1428 2922 
z
" transform="scale(0.015625)"/>
      <path id="TimesNewRomanPS-BoldMT-6f" d="M 1594 3009 
Q 1975 3009 2303 2812 
Q 2631 2616 2801 2253 
Q 2972 1891 2972 1459 
Q 2972 838 2656 419 
Q 2275 -88 1603 -88 
Q 944 -88 587 375 
Q 231 838 231 1447 
Q 231 2075 595 2542 
Q 959 3009 1594 3009 
z
M 1606 2788 
Q 1447 2788 1333 2667 
Q 1219 2547 1183 2192 
Q 1147 1838 1147 1206 
Q 1147 872 1191 581 
Q 1225 359 1337 243 
Q 1450 128 1594 128 
Q 1734 128 1828 206 
Q 1950 313 1991 503 
Q 2053 800 2053 1703 
Q 2053 2234 1993 2432 
Q 1934 2631 1819 2722 
Q 1738 2788 1606 2788 
z
" transform="scale(0.015625)"/>
      <path id="TimesNewRomanPS-BoldMT-63" d="M 2600 753 
L 2697 678 
Q 2491 291 2183 101 
Q 1875 -88 1528 -88 
Q 944 -88 594 353 
Q 244 794 244 1413 
Q 244 2009 563 2463 
Q 947 3009 1622 3009 
Q 2075 3009 2342 2781 
Q 2609 2553 2609 2272 
Q 2609 2094 2501 1987 
Q 2394 1881 2219 1881 
Q 2034 1881 1914 2003 
Q 1794 2125 1766 2438 
Q 1747 2634 1675 2713 
Q 1603 2791 1506 2791 
Q 1356 2791 1250 2631 
Q 1088 2391 1088 1894 
Q 1088 1481 1219 1104 
Q 1350 728 1578 544 
Q 1750 409 1984 409 
Q 2138 409 2275 481 
Q 2413 553 2600 753 
z
" transform="scale(0.015625)"/>
      <path id="TimesNewRomanPS-BoldMT-79" d="M 1556 -119 
L 613 2047 
Q 400 2538 298 2650 
Q 197 2763 53 2806 
L 53 2922 
L 1606 2922 
L 1606 2806 
Q 1453 2800 1390 2747 
Q 1328 2694 1328 2619 
Q 1328 2500 1484 2150 
L 1984 1006 
L 2325 1891 
Q 2509 2363 2509 2547 
Q 2509 2663 2432 2731 
Q 2356 2800 2163 2806 
L 2163 2922 
L 3141 2922 
L 3141 2806 
Q 2997 2791 2906 2695 
Q 2816 2600 2603 2047 
L 1769 -119 
Q 1453 -931 1300 -1119 
Q 1084 -1381 759 -1381 
Q 500 -1381 339 -1232 
Q 178 -1084 178 -875 
Q 178 -694 289 -575 
Q 400 -456 563 -456 
Q 719 -456 814 -556 
Q 909 -656 913 -866 
Q 916 -984 941 -1019 
Q 966 -1053 1013 -1053 
Q 1088 -1053 1172 -963 
Q 1297 -831 1466 -363 
L 1556 -119 
z
" transform="scale(0.015625)"/>
      <path id="TimesNewRomanPS-BoldMT-65" d="M 2691 1566 
L 1088 1566 
Q 1116 984 1397 647 
Q 1613 388 1916 388 
Q 2103 388 2256 492 
Q 2409 597 2584 869 
L 2691 800 
Q 2453 316 2165 114 
Q 1878 -88 1500 -88 
Q 850 -88 516 413 
Q 247 816 247 1413 
Q 247 2144 642 2576 
Q 1038 3009 1569 3009 
Q 2013 3009 2339 2645 
Q 2666 2281 2691 1566 
z
M 1922 1775 
Q 1922 2278 1867 2465 
Q 1813 2653 1697 2750 
Q 1631 2806 1522 2806 
Q 1359 2806 1256 2647 
Q 1072 2369 1072 1884 
L 1072 1775 
L 1922 1775 
z
" transform="scale(0.015625)"/>
     </defs>
     <use xlink:href="#TimesNewRomanPS-BoldMT-41"/>
     <use xlink:href="#TimesNewRomanPS-BoldMT-73" x="72.216797"/>
     <use xlink:href="#TimesNewRomanPS-BoldMT-74" x="111.132812"/>
     <use xlink:href="#TimesNewRomanPS-BoldMT-72" x="144.433594"/>
     <use xlink:href="#TimesNewRomanPS-BoldMT-6f" x="187.068359"/>
     <use xlink:href="#TimesNewRomanPS-BoldMT-63" x="237.068359"/>
     <use xlink:href="#TimesNewRomanPS-BoldMT-79" x="281.453125"/>
     <use xlink:href="#TimesNewRomanPS-BoldMT-74" x="331.453125"/>
     <use xlink:href="#TimesNewRomanPS-BoldMT-65" x="364.753906"/>
     <use xlink:href="#TimesNewRomanPS-BoldMT-73" x="409.138672"/>
    </g>
   </g>
   <g id="text_2">
    <!-- Endothelial Cells -->
    <g transform="translate(19.63125 233.249733) scale(0.12 -0.12)">
     <defs>
      <path id="TimesNewRomanPS-BoldMT-45" d="M 1744 3994 
L 1744 2269 
L 1828 2269 
Q 2231 2269 2412 2522 
Q 2594 2775 2644 3269 
L 2763 3269 
L 2763 1050 
L 2644 1050 
Q 2606 1413 2486 1644 
Q 2366 1875 2206 1954 
Q 2047 2034 1744 2034 
L 1744 841 
Q 1744 491 1773 412 
Q 1803 334 1884 284 
Q 1966 234 2147 234 
L 2400 234 
Q 2994 234 3351 509 
Q 3709 784 3866 1347 
L 3981 1347 
L 3791 0 
L 128 0 
L 128 116 
L 269 116 
Q 453 116 566 181 
Q 647 225 691 331 
Q 725 406 725 725 
L 725 3513 
Q 725 3800 709 3866 
Q 678 3975 594 4034 
Q 475 4122 269 4122 
L 128 4122 
L 128 4238 
L 3675 4238 
L 3675 2984 
L 3556 2984 
Q 3466 3444 3302 3644 
Q 3138 3844 2838 3938 
Q 2663 3994 2181 3994 
L 1744 3994 
z
" transform="scale(0.015625)"/>
      <path id="TimesNewRomanPS-BoldMT-6e" d="M 1409 2922 
L 1409 2544 
Q 1634 2788 1840 2898 
Q 2047 3009 2284 3009 
Q 2569 3009 2756 2851 
Q 2944 2694 3006 2459 
Q 3056 2281 3056 1775 
L 3056 638 
Q 3056 300 3117 217 
Q 3178 134 3372 113 
L 3372 0 
L 1894 0 
L 1894 113 
Q 2059 134 2131 250 
Q 2181 328 2181 638 
L 2181 1938 
Q 2181 2297 2153 2390 
Q 2125 2484 2058 2536 
Q 1991 2588 1909 2588 
Q 1641 2588 1409 2203 
L 1409 638 
Q 1409 309 1470 221 
Q 1531 134 1697 113 
L 1697 0 
L 219 0 
L 219 113 
Q 403 131 481 231 
Q 534 300 534 638 
L 534 2288 
Q 534 2619 473 2700 
Q 413 2781 219 2806 
L 219 2922 
L 1409 2922 
z
" transform="scale(0.015625)"/>
      <path id="TimesNewRomanPS-BoldMT-64" d="M 3056 4238 
L 3056 875 
Q 3056 534 3075 472 
Q 3100 369 3170 319 
Q 3241 269 3416 256 
L 3416 153 
L 2181 -88 
L 2181 375 
Q 1959 106 1786 9 
Q 1613 -88 1394 -88 
Q 834 -88 509 413 
Q 247 819 247 1409 
Q 247 1881 409 2254 
Q 572 2628 855 2818 
Q 1138 3009 1463 3009 
Q 1672 3009 1834 2928 
Q 1997 2847 2181 2644 
L 2181 3525 
Q 2181 3859 2153 3928 
Q 2116 4019 2041 4062 
Q 1966 4106 1759 4106 
L 1759 4238 
L 3056 4238 
z
M 2181 2256 
Q 1950 2700 1616 2700 
Q 1500 2700 1425 2638 
Q 1309 2541 1236 2297 
Q 1163 2053 1163 1550 
Q 1163 997 1244 731 
Q 1325 466 1466 347 
Q 1538 288 1663 288 
Q 1938 288 2181 719 
L 2181 2256 
z
" transform="scale(0.015625)"/>
      <path id="TimesNewRomanPS-BoldMT-68" d="M 1409 4238 
L 1409 2547 
Q 1650 2800 1850 2904 
Q 2050 3009 2266 3009 
Q 2541 3009 2736 2853 
Q 2931 2697 2995 2486 
Q 3059 2275 3059 1775 
L 3059 634 
Q 3059 300 3121 217 
Q 3184 134 3375 113 
L 3375 0 
L 1894 0 
L 1894 113 
Q 2050 134 2128 238 
Q 2184 319 2184 634 
L 2184 1938 
Q 2184 2300 2156 2392 
Q 2128 2484 2061 2536 
Q 1994 2588 1909 2588 
Q 1784 2588 1665 2502 
Q 1547 2416 1409 2200 
L 1409 634 
Q 1409 322 1456 244 
Q 1516 138 1700 113 
L 1700 0 
L 219 0 
L 219 113 
Q 403 131 481 231 
Q 534 300 534 634 
L 534 3603 
Q 534 3934 473 4015 
Q 413 4097 219 4122 
L 219 4238 
L 1409 4238 
z
" transform="scale(0.015625)"/>
      <path id="TimesNewRomanPS-BoldMT-6c" d="M 1359 4238 
L 1359 606 
Q 1359 297 1431 211 
Q 1503 125 1713 113 
L 1713 0 
L 134 0 
L 134 113 
Q 328 119 422 225 
Q 484 297 484 606 
L 484 3631 
Q 484 3938 412 4023 
Q 341 4109 134 4122 
L 134 4238 
L 1359 4238 
z
" transform="scale(0.015625)"/>
      <path id="TimesNewRomanPS-BoldMT-69" d="M 919 4338 
Q 1122 4338 1262 4195 
Q 1403 4053 1403 3853 
Q 1403 3653 1261 3512 
Q 1119 3372 919 3372 
Q 719 3372 578 3512 
Q 438 3653 438 3853 
Q 438 4053 578 4195 
Q 719 4338 919 4338 
z
M 1356 2922 
L 1356 606 
Q 1356 297 1428 211 
Q 1500 125 1709 113 
L 1709 0 
L 131 0 
L 131 113 
Q 325 119 419 225 
Q 481 297 481 606 
L 481 2313 
Q 481 2622 409 2708 
Q 338 2794 131 2806 
L 131 2922 
L 1356 2922 
z
" transform="scale(0.015625)"/>
      <path id="TimesNewRomanPS-BoldMT-61" d="M 1828 431 
Q 1294 -41 869 -41 
Q 619 -41 453 123 
Q 288 288 288 534 
Q 288 869 575 1136 
Q 863 1403 1828 1847 
L 1828 2141 
Q 1828 2472 1792 2558 
Q 1756 2644 1656 2708 
Q 1556 2772 1431 2772 
Q 1228 2772 1097 2681 
Q 1016 2625 1016 2550 
Q 1016 2484 1103 2388 
Q 1222 2253 1222 2128 
Q 1222 1975 1108 1867 
Q 994 1759 809 1759 
Q 613 1759 480 1878 
Q 347 1997 347 2156 
Q 347 2381 525 2586 
Q 703 2791 1022 2900 
Q 1341 3009 1684 3009 
Q 2100 3009 2342 2832 
Q 2584 2656 2656 2450 
Q 2700 2319 2700 1847 
L 2700 713 
Q 2700 513 2715 461 
Q 2731 409 2762 384 
Q 2794 359 2834 359 
Q 2916 359 3000 475 
L 3094 400 
Q 2938 169 2770 64 
Q 2603 -41 2391 -41 
Q 2141 -41 2000 76 
Q 1859 194 1828 431 
z
M 1828 659 
L 1828 1638 
Q 1450 1416 1266 1163 
Q 1144 994 1144 822 
Q 1144 678 1247 569 
Q 1325 484 1466 484 
Q 1622 484 1828 659 
z
" transform="scale(0.015625)"/>
      <path id="TimesNewRomanPS-BoldMT-20" transform="scale(0.015625)"/>
      <path id="TimesNewRomanPS-BoldMT-43" d="M 4272 4334 
L 4272 2866 
L 4150 2866 
Q 4013 3441 3638 3747 
Q 3263 4053 2788 4053 
Q 2391 4053 2059 3825 
Q 1728 3597 1575 3228 
Q 1378 2756 1378 2178 
Q 1378 1609 1522 1142 
Q 1666 675 1972 436 
Q 2278 197 2766 197 
Q 3166 197 3498 372 
Q 3831 547 4200 975 
L 4200 609 
Q 3844 238 3458 70 
Q 3072 -97 2556 -97 
Q 1878 -97 1351 175 
Q 825 447 539 956 
Q 253 1466 253 2041 
Q 253 2647 570 3190 
Q 888 3734 1427 4034 
Q 1966 4334 2572 4334 
Q 3019 4334 3516 4141 
Q 3803 4028 3881 4028 
Q 3981 4028 4054 4101 
Q 4128 4175 4150 4334 
L 4272 4334 
z
" transform="scale(0.015625)"/>
     </defs>
     <use xlink:href="#TimesNewRomanPS-BoldMT-45"/>
     <use xlink:href="#TimesNewRomanPS-BoldMT-6e" x="66.699219"/>
     <use xlink:href="#TimesNewRomanPS-BoldMT-64" x="122.314453"/>
     <use xlink:href="#TimesNewRomanPS-BoldMT-6f" x="177.929688"/>
     <use xlink:href="#TimesNewRomanPS-BoldMT-74" x="227.929688"/>
     <use xlink:href="#TimesNewRomanPS-BoldMT-68" x="261.230469"/>
     <use xlink:href="#TimesNewRomanPS-BoldMT-65" x="316.845703"/>
     <use xlink:href="#TimesNewRomanPS-BoldMT-6c" x="361.230469"/>
     <use xlink:href="#TimesNewRomanPS-BoldMT-69" x="389.013672"/>
     <use xlink:href="#TimesNewRomanPS-BoldMT-61" x="416.796875"/>
     <use xlink:href="#TimesNewRomanPS-BoldMT-6c" x="466.796875"/>
     <use xlink:href="#TimesNewRomanPS-BoldMT-20" x="494.580078"/>
     <use xlink:href="#TimesNewRomanPS-BoldMT-43" x="519.580078"/>
     <use xlink:href="#TimesNewRomanPS-BoldMT-65" x="591.796875"/>
     <use xlink:href="#TimesNewRomanPS-BoldMT-6c" x="636.181641"/>
     <use xlink:href="#TimesNewRomanPS-BoldMT-6c" x="663.964844"/>
     <use xlink:href="#TimesNewRomanPS-BoldMT-73" x="691.748047"/>
    </g>
   </g>
   <g id="text_3">
    <!-- Excitatory Neurons -->
    <g transform="translate(7.2 167.737409) scale(0.12 -0.12)">
     <defs>
      <path id="TimesNewRomanPS-BoldMT-78" d="M 1944 1791 
L 2450 828 
Q 2713 325 2866 191 
Q 2950 119 3097 113 
L 3097 0 
L 1469 0 
L 1469 113 
Q 1659 128 1704 162 
Q 1750 197 1750 256 
Q 1750 344 1650 531 
L 1397 1006 
L 1181 691 
Q 1034 475 1016 434 
Q 991 375 991 328 
Q 991 256 1020 207 
Q 1050 159 1101 136 
Q 1153 113 1291 113 
L 1291 0 
L 147 0 
L 147 113 
Q 359 113 536 230 
Q 713 347 1050 844 
L 1291 1200 
L 788 2131 
Q 541 2588 419 2691 
Q 297 2794 147 2806 
L 147 2922 
L 1766 2922 
L 1766 2806 
L 1681 2803 
L 1519 2747 
Q 1494 2725 1494 2675 
Q 1494 2628 1509 2578 
Q 1519 2556 1597 2409 
L 1825 1984 
L 1944 2153 
Q 2194 2497 2194 2634 
Q 2194 2700 2139 2745 
Q 2084 2791 1944 2806 
L 1944 2922 
L 2978 2922 
L 2978 2806 
Q 2788 2800 2622 2689 
Q 2456 2578 2250 2259 
L 1944 1791 
z
" transform="scale(0.015625)"/>
      <path id="TimesNewRomanPS-BoldMT-4e" d="M 1594 4238 
L 3684 1609 
L 3684 3431 
Q 3684 3813 3575 3947 
Q 3425 4128 3072 4122 
L 3072 4238 
L 4472 4238 
L 4472 4122 
Q 4203 4088 4111 4033 
Q 4019 3978 3967 3854 
Q 3916 3731 3916 3431 
L 3916 -97 
L 3809 -97 
L 944 3431 
L 944 738 
Q 944 372 1111 244 
Q 1278 116 1494 116 
L 1594 116 
L 1594 0 
L 91 0 
L 91 116 
Q 441 119 578 259 
Q 716 400 716 738 
L 716 3728 
L 625 3841 
Q 491 4009 387 4062 
Q 284 4116 91 4122 
L 91 4238 
L 1594 4238 
z
" transform="scale(0.015625)"/>
      <path id="TimesNewRomanPS-BoldMT-75" d="M 3038 2922 
L 3038 634 
Q 3038 300 3100 217 
Q 3163 134 3353 113 
L 3353 0 
L 2163 0 
L 2163 391 
Q 1953 141 1743 26 
Q 1534 -88 1275 -88 
Q 1028 -88 836 64 
Q 644 216 578 419 
Q 513 622 513 1128 
L 513 2288 
Q 513 2619 452 2700 
Q 391 2781 197 2806 
L 197 2922 
L 1388 2922 
L 1388 925 
Q 1388 613 1417 522 
Q 1447 431 1511 384 
Q 1575 338 1659 338 
Q 1772 338 1863 397 
Q 1988 478 2163 725 
L 2163 2288 
Q 2163 2619 2102 2700 
Q 2041 2781 1847 2806 
L 1847 2922 
L 3038 2922 
z
" transform="scale(0.015625)"/>
     </defs>
     <use xlink:href="#TimesNewRomanPS-BoldMT-45"/>
     <use xlink:href="#TimesNewRomanPS-BoldMT-78" x="66.699219"/>
     <use xlink:href="#TimesNewRomanPS-BoldMT-63" x="116.699219"/>
     <use xlink:href="#TimesNewRomanPS-BoldMT-69" x="161.083984"/>
     <use xlink:href="#TimesNewRomanPS-BoldMT-74" x="188.867188"/>
     <use xlink:href="#TimesNewRomanPS-BoldMT-61" x="222.167969"/>
     <use xlink:href="#TimesNewRomanPS-BoldMT-74" x="272.167969"/>
     <use xlink:href="#TimesNewRomanPS-BoldMT-6f" x="305.46875"/>
     <use xlink:href="#TimesNewRomanPS-BoldMT-72" x="355.46875"/>
     <use xlink:href="#TimesNewRomanPS-BoldMT-79" x="399.853516"/>
     <use xlink:href="#TimesNewRomanPS-BoldMT-20" x="449.853516"/>
     <use xlink:href="#TimesNewRomanPS-BoldMT-4e" x="474.853516"/>
     <use xlink:href="#TimesNewRomanPS-BoldMT-65" x="547.070312"/>
     <use xlink:href="#TimesNewRomanPS-BoldMT-75" x="591.455078"/>
     <use xlink:href="#TimesNewRomanPS-BoldMT-72" x="647.070312"/>
     <use xlink:href="#TimesNewRomanPS-BoldMT-6f" x="689.705078"/>
     <use xlink:href="#TimesNewRomanPS-BoldMT-6e" x="739.705078"/>
     <use xlink:href="#TimesNewRomanPS-BoldMT-73" x="795.320312"/>
    </g>
   </g>
   <g id="text_4">
    <!-- Inhibitory Neurons -->
    <g transform="translate(8.503125 86.625928) scale(0.12 -0.12)">
     <defs>
      <path id="TimesNewRomanPS-BoldMT-49" d="M 2344 116 
L 2344 0 
L 128 0 
L 128 116 
L 269 116 
Q 453 116 566 181 
Q 647 225 691 331 
Q 725 406 725 725 
L 725 3513 
Q 725 3838 690 3919 
Q 656 4000 551 4061 
Q 447 4122 269 4122 
L 128 4122 
L 128 4238 
L 2344 4238 
L 2344 4122 
L 2203 4122 
Q 2019 4122 1906 4056 
Q 1825 4013 1778 3906 
Q 1744 3831 1744 3513 
L 1744 725 
Q 1744 400 1780 319 
Q 1816 238 1920 177 
Q 2025 116 2203 116 
L 2344 116 
z
" transform="scale(0.015625)"/>
      <path id="TimesNewRomanPS-BoldMT-62" d="M 1347 4238 
L 1347 2628 
Q 1716 3009 2153 3009 
Q 2453 3009 2718 2832 
Q 2984 2656 3134 2331 
Q 3284 2006 3284 1581 
Q 3284 1103 3093 712 
Q 2903 322 2584 117 
Q 2266 -88 1856 -88 
Q 1619 -88 1434 -12 
Q 1250 63 1072 231 
L 588 -84 
L 481 -84 
L 481 3631 
Q 481 3884 459 3944 
Q 428 4031 361 4073 
Q 294 4116 134 4122 
L 134 4238 
L 1347 4238 
z
M 1347 2350 
L 1347 1050 
Q 1347 653 1366 544 
Q 1397 359 1515 245 
Q 1634 131 1819 131 
Q 1978 131 2092 222 
Q 2206 313 2282 581 
Q 2359 850 2359 1550 
Q 2359 2222 2191 2472 
Q 2069 2653 1863 2653 
Q 1594 2653 1347 2350 
z
" transform="scale(0.015625)"/>
     </defs>
     <use xlink:href="#TimesNewRomanPS-BoldMT-49"/>
     <use xlink:href="#TimesNewRomanPS-BoldMT-6e" x="38.916016"/>
     <use xlink:href="#TimesNewRomanPS-BoldMT-68" x="94.53125"/>
     <use xlink:href="#TimesNewRomanPS-BoldMT-69" x="150.146484"/>
     <use xlink:href="#TimesNewRomanPS-BoldMT-62" x="177.929688"/>
     <use xlink:href="#TimesNewRomanPS-BoldMT-69" x="233.544922"/>
     <use xlink:href="#TimesNewRomanPS-BoldMT-74" x="261.328125"/>
     <use xlink:href="#TimesNewRomanPS-BoldMT-6f" x="294.628906"/>
     <use xlink:href="#TimesNewRomanPS-BoldMT-72" x="344.628906"/>
     <use xlink:href="#TimesNewRomanPS-BoldMT-79" x="389.013672"/>
     <use xlink:href="#TimesNewRomanPS-BoldMT-20" x="439.013672"/>
     <use xlink:href="#TimesNewRomanPS-BoldMT-4e" x="464.013672"/>
     <use xlink:href="#TimesNewRomanPS-BoldMT-65" x="536.230469"/>
     <use xlink:href="#TimesNewRomanPS-BoldMT-75" x="580.615234"/>
     <use xlink:href="#TimesNewRomanPS-BoldMT-72" x="636.230469"/>
     <use xlink:href="#TimesNewRomanPS-BoldMT-6f" x="678.865234"/>
     <use xlink:href="#TimesNewRomanPS-BoldMT-6e" x="728.865234"/>
     <use xlink:href="#TimesNewRomanPS-BoldMT-73" x="784.480469"/>
    </g>
   </g>
   <g id="text_5">
    <!-- Microglia -->
    <g transform="translate(57.538125 48.211645) scale(0.12 -0.12)">
     <defs>
      <path id="TimesNewRomanPS-BoldMT-4d" d="M 3050 1444 
L 4200 4238 
L 5925 4238 
L 5925 4122 
L 5788 4122 
Q 5600 4122 5488 4056 
Q 5409 4013 5363 3909 
Q 5328 3834 5328 3519 
L 5328 725 
Q 5328 400 5362 319 
Q 5397 238 5503 177 
Q 5609 116 5788 116 
L 5925 116 
L 5925 0 
L 3713 0 
L 3713 116 
L 3850 116 
Q 4038 116 4150 181 
Q 4228 225 4275 331 
Q 4309 406 4309 725 
L 4309 3866 
L 2684 0 
L 2609 0 
L 959 3838 
L 959 853 
Q 959 541 975 469 
Q 1016 313 1152 214 
Q 1288 116 1578 116 
L 1578 0 
L 128 0 
L 128 116 
L 172 116 
Q 313 113 434 161 
Q 556 209 618 290 
Q 681 372 716 519 
Q 722 553 722 838 
L 722 3519 
Q 722 3841 687 3920 
Q 653 4000 547 4061 
Q 441 4122 263 4122 
L 128 4122 
L 128 4238 
L 1859 4238 
L 3050 1444 
z
" transform="scale(0.015625)"/>
      <path id="TimesNewRomanPS-BoldMT-67" d="M 2091 2888 
L 3075 2888 
L 3075 2544 
L 2516 2544 
Q 2669 2391 2728 2266 
Q 2803 2097 2803 1913 
Q 2803 1600 2629 1370 
Q 2456 1141 2157 1011 
Q 1859 881 1628 881 
Q 1609 881 1253 897 
Q 1113 897 1017 805 
Q 922 713 922 584 
Q 922 472 1008 400 
Q 1094 328 1288 328 
L 1828 334 
Q 2484 334 2731 191 
Q 3084 -9 3084 -425 
Q 3084 -691 2921 -908 
Q 2759 -1125 2494 -1228 
Q 2091 -1381 1566 -1381 
Q 1172 -1381 847 -1304 
Q 522 -1228 381 -1092 
Q 241 -956 241 -806 
Q 241 -663 348 -548 
Q 456 -434 750 -356 
Q 344 -156 344 200 
Q 344 416 509 619 
Q 675 822 1034 972 
Q 616 1125 428 1375 
Q 241 1625 241 1953 
Q 241 2381 591 2695 
Q 941 3009 1491 3009 
Q 1781 3009 2091 2888 
z
M 1550 2816 
Q 1369 2816 1244 2633 
Q 1119 2450 1119 1875 
Q 1119 1409 1242 1236 
Q 1366 1063 1534 1063 
Q 1722 1063 1847 1234 
Q 1972 1406 1972 1903 
Q 1972 2463 1831 2666 
Q 1731 2816 1550 2816 
z
M 1366 -431 
Q 1047 -431 944 -484 
Q 766 -581 766 -747 
Q 766 -906 950 -1036 
Q 1134 -1166 1644 -1166 
Q 2078 -1166 2326 -1050 
Q 2575 -934 2575 -725 
Q 2575 -647 2528 -594 
Q 2444 -500 2273 -465 
Q 2103 -431 1366 -431 
z
" transform="scale(0.015625)"/>
     </defs>
     <use xlink:href="#TimesNewRomanPS-BoldMT-4d"/>
     <use xlink:href="#TimesNewRomanPS-BoldMT-69" x="94.384766"/>
     <use xlink:href="#TimesNewRomanPS-BoldMT-63" x="122.167969"/>
     <use xlink:href="#TimesNewRomanPS-BoldMT-72" x="166.552734"/>
     <use xlink:href="#TimesNewRomanPS-BoldMT-6f" x="209.1875"/>
     <use xlink:href="#TimesNewRomanPS-BoldMT-67" x="259.1875"/>
     <use xlink:href="#TimesNewRomanPS-BoldMT-6c" x="309.1875"/>
     <use xlink:href="#TimesNewRomanPS-BoldMT-69" x="336.970703"/>
     <use xlink:href="#TimesNewRomanPS-BoldMT-61" x="364.753906"/>
    </g>
   </g>
   <g id="text_6">
    <!-- Oligodendrocytes -->
    <g transform="translate(17.525625 24.759853) scale(0.12 -0.12)">
     <defs>
      <path id="TimesNewRomanPS-BoldMT-4f" d="M 2472 4297 
Q 3484 4334 4117 3706 
Q 4750 3078 4750 2134 
Q 4750 1328 4278 716 
Q 3653 -97 2513 -97 
Q 1369 -97 744 678 
Q 250 1291 250 2131 
Q 250 3075 892 3704 
Q 1534 4334 2472 4297 
z
M 2509 4097 
Q 1928 4097 1625 3503 
Q 1378 3016 1378 2103 
Q 1378 1019 1759 500 
Q 2025 138 2503 138 
Q 2825 138 3041 294 
Q 3316 494 3469 933 
Q 3622 1372 3622 2078 
Q 3622 2919 3465 3336 
Q 3309 3753 3067 3925 
Q 2825 4097 2509 4097 
z
" transform="scale(0.015625)"/>
     </defs>
     <use xlink:href="#TimesNewRomanPS-BoldMT-4f"/>
     <use xlink:href="#TimesNewRomanPS-BoldMT-6c" x="77.783203"/>
     <use xlink:href="#TimesNewRomanPS-BoldMT-69" x="105.566406"/>
     <use xlink:href="#TimesNewRomanPS-BoldMT-67" x="133.349609"/>
     <use xlink:href="#TimesNewRomanPS-BoldMT-6f" x="183.349609"/>
     <use xlink:href="#TimesNewRomanPS-BoldMT-64" x="233.349609"/>
     <use xlink:href="#TimesNewRomanPS-BoldMT-65" x="288.964844"/>
     <use xlink:href="#TimesNewRomanPS-BoldMT-6e" x="333.349609"/>
     <use xlink:href="#TimesNewRomanPS-BoldMT-64" x="388.964844"/>
     <use xlink:href="#TimesNewRomanPS-BoldMT-72" x="444.580078"/>
     <use xlink:href="#TimesNewRomanPS-BoldMT-6f" x="487.214844"/>
     <use xlink:href="#TimesNewRomanPS-BoldMT-63" x="537.214844"/>
     <use xlink:href="#TimesNewRomanPS-BoldMT-79" x="581.599609"/>
     <use xlink:href="#TimesNewRomanPS-BoldMT-74" x="631.599609"/>
     <use xlink:href="#TimesNewRomanPS-BoldMT-65" x="664.900391"/>
     <use xlink:href="#TimesNewRomanPS-BoldMT-73" x="709.285156"/>
    </g>
   </g>
   <g id="text_7">
    <!-- Astrocytes -->
    <g transform="translate(450.694615 254.924616) scale(0.12 -0.12)">
     <use xlink:href="#TimesNewRomanPS-BoldMT-41"/>
     <use xlink:href="#TimesNewRomanPS-BoldMT-73" x="72.216797"/>
     <use xlink:href="#TimesNewRomanPS-BoldMT-74" x="111.132812"/>
     <use xlink:href="#TimesNewRomanPS-BoldMT-72" x="144.433594"/>
     <use xlink:href="#TimesNewRomanPS-BoldMT-6f" x="187.068359"/>
     <use xlink:href="#TimesNewRomanPS-BoldMT-63" x="237.068359"/>
     <use xlink:href="#TimesNewRomanPS-BoldMT-79" x="281.453125"/>
     <use xlink:href="#TimesNewRomanPS-BoldMT-74" x="331.453125"/>
     <use xlink:href="#TimesNewRomanPS-BoldMT-65" x="364.753906"/>
     <use xlink:href="#TimesNewRomanPS-BoldMT-73" x="409.138672"/>
    </g>
   </g>
   <g id="text_8">
    <!-- Endothelial Cells -->
    <g transform="translate(450.694615 234.01501) scale(0.12 -0.12)">
     <use xlink:href="#TimesNewRomanPS-BoldMT-45"/>
     <use xlink:href="#TimesNewRomanPS-BoldMT-6e" x="66.699219"/>
     <use xlink:href="#TimesNewRomanPS-BoldMT-64" x="122.314453"/>
     <use xlink:href="#TimesNewRomanPS-BoldMT-6f" x="177.929688"/>
     <use xlink:href="#TimesNewRomanPS-BoldMT-74" x="227.929688"/>
     <use xlink:href="#TimesNewRomanPS-BoldMT-68" x="261.230469"/>
     <use xlink:href="#TimesNewRomanPS-BoldMT-65" x="316.845703"/>
     <use xlink:href="#TimesNewRomanPS-BoldMT-6c" x="361.230469"/>
     <use xlink:href="#TimesNewRomanPS-BoldMT-69" x="389.013672"/>
     <use xlink:href="#TimesNewRomanPS-BoldMT-61" x="416.796875"/>
     <use xlink:href="#TimesNewRomanPS-BoldMT-6c" x="466.796875"/>
     <use xlink:href="#TimesNewRomanPS-BoldMT-20" x="494.580078"/>
     <use xlink:href="#TimesNewRomanPS-BoldMT-43" x="519.580078"/>
     <use xlink:href="#TimesNewRomanPS-BoldMT-65" x="591.796875"/>
     <use xlink:href="#TimesNewRomanPS-BoldMT-6c" x="636.181641"/>
     <use xlink:href="#TimesNewRomanPS-BoldMT-6c" x="663.964844"/>
     <use xlink:href="#TimesNewRomanPS-BoldMT-73" x="691.748047"/>
    </g>
   </g>
   <g id="text_9">
    <!-- Excitatory Neurons -->
    <g transform="translate(450.694615 169.901297) scale(0.12 -0.12)">
     <use xlink:href="#TimesNewRomanPS-BoldMT-45"/>
     <use xlink:href="#TimesNewRomanPS-BoldMT-78" x="66.699219"/>
     <use xlink:href="#TimesNewRomanPS-BoldMT-63" x="116.699219"/>
     <use xlink:href="#TimesNewRomanPS-BoldMT-69" x="161.083984"/>
     <use xlink:href="#TimesNewRomanPS-BoldMT-74" x="188.867188"/>
     <use xlink:href="#TimesNewRomanPS-BoldMT-61" x="222.167969"/>
     <use xlink:href="#TimesNewRomanPS-BoldMT-74" x="272.167969"/>
     <use xlink:href="#TimesNewRomanPS-BoldMT-6f" x="305.46875"/>
     <use xlink:href="#TimesNewRomanPS-BoldMT-72" x="355.46875"/>
     <use xlink:href="#TimesNewRomanPS-BoldMT-79" x="399.853516"/>
     <use xlink:href="#TimesNewRomanPS-BoldMT-20" x="449.853516"/>
     <use xlink:href="#TimesNewRomanPS-BoldMT-4e" x="474.853516"/>
     <use xlink:href="#TimesNewRomanPS-BoldMT-65" x="547.070312"/>
     <use xlink:href="#TimesNewRomanPS-BoldMT-75" x="591.455078"/>
     <use xlink:href="#TimesNewRomanPS-BoldMT-72" x="647.070312"/>
     <use xlink:href="#TimesNewRomanPS-BoldMT-6f" x="689.705078"/>
     <use xlink:href="#TimesNewRomanPS-BoldMT-6e" x="739.705078"/>
     <use xlink:href="#TimesNewRomanPS-BoldMT-73" x="795.320312"/>
    </g>
   </g>
   <g id="text_10">
    <!-- Inhibitory Neurons -->
    <g transform="translate(450.694615 88.499538) scale(0.12 -0.12)">
     <use xlink:href="#TimesNewRomanPS-BoldMT-49"/>
     <use xlink:href="#TimesNewRomanPS-BoldMT-6e" x="38.916016"/>
     <use xlink:href="#TimesNewRomanPS-BoldMT-68" x="94.53125"/>
     <use xlink:href="#TimesNewRomanPS-BoldMT-69" x="150.146484"/>
     <use xlink:href="#TimesNewRomanPS-BoldMT-62" x="177.929688"/>
     <use xlink:href="#TimesNewRomanPS-BoldMT-69" x="233.544922"/>
     <use xlink:href="#TimesNewRomanPS-BoldMT-74" x="261.328125"/>
     <use xlink:href="#TimesNewRomanPS-BoldMT-6f" x="294.628906"/>
     <use xlink:href="#TimesNewRomanPS-BoldMT-72" x="344.628906"/>
     <use xlink:href="#TimesNewRomanPS-BoldMT-79" x="389.013672"/>
     <use xlink:href="#TimesNewRomanPS-BoldMT-20" x="439.013672"/>
     <use xlink:href="#TimesNewRomanPS-BoldMT-4e" x="464.013672"/>
     <use xlink:href="#TimesNewRomanPS-BoldMT-65" x="536.230469"/>
     <use xlink:href="#TimesNewRomanPS-BoldMT-75" x="580.615234"/>
     <use xlink:href="#TimesNewRomanPS-BoldMT-72" x="636.230469"/>
     <use xlink:href="#TimesNewRomanPS-BoldMT-6f" x="678.865234"/>
     <use xlink:href="#TimesNewRomanPS-BoldMT-6e" x="728.865234"/>
     <use xlink:href="#TimesNewRomanPS-BoldMT-73" x="784.480469"/>
    </g>
   </g>
   <g id="text_11">
    <!-- Microglia -->
    <g transform="translate(450.694615 48.3172) scale(0.12 -0.12)">
     <use xlink:href="#TimesNewRomanPS-BoldMT-4d"/>
     <use xlink:href="#TimesNewRomanPS-BoldMT-69" x="94.384766"/>
     <use xlink:href="#TimesNewRomanPS-BoldMT-63" x="122.167969"/>
     <use xlink:href="#TimesNewRomanPS-BoldMT-72" x="166.552734"/>
     <use xlink:href="#TimesNewRomanPS-BoldMT-6f" x="209.1875"/>
     <use xlink:href="#TimesNewRomanPS-BoldMT-67" x="259.1875"/>
     <use xlink:href="#TimesNewRomanPS-BoldMT-6c" x="309.1875"/>
     <use xlink:href="#TimesNewRomanPS-BoldMT-69" x="336.970703"/>
     <use xlink:href="#TimesNewRomanPS-BoldMT-61" x="364.753906"/>
    </g>
   </g>
   <g id="text_12">
    <!-- Oligodendrocytes -->
    <g transform="translate(450.694615 24.759853) scale(0.12 -0.12)">
     <use xlink:href="#TimesNewRomanPS-BoldMT-4f"/>
     <use xlink:href="#TimesNewRomanPS-BoldMT-6c" x="77.783203"/>
     <use xlink:href="#TimesNewRomanPS-BoldMT-69" x="105.566406"/>
     <use xlink:href="#TimesNewRomanPS-BoldMT-67" x="133.349609"/>
     <use xlink:href="#TimesNewRomanPS-BoldMT-6f" x="183.349609"/>
     <use xlink:href="#TimesNewRomanPS-BoldMT-64" x="233.349609"/>
     <use xlink:href="#TimesNewRomanPS-BoldMT-65" x="288.964844"/>
     <use xlink:href="#TimesNewRomanPS-BoldMT-6e" x="333.349609"/>
     <use xlink:href="#TimesNewRomanPS-BoldMT-64" x="388.964844"/>
     <use xlink:href="#TimesNewRomanPS-BoldMT-72" x="444.580078"/>
     <use xlink:href="#TimesNewRomanPS-BoldMT-6f" x="487.214844"/>
     <use xlink:href="#TimesNewRomanPS-BoldMT-63" x="537.214844"/>
     <use xlink:href="#TimesNewRomanPS-BoldMT-79" x="581.599609"/>
     <use xlink:href="#TimesNewRomanPS-BoldMT-74" x="631.599609"/>
     <use xlink:href="#TimesNewRomanPS-BoldMT-65" x="664.900391"/>
     <use xlink:href="#TimesNewRomanPS-BoldMT-73" x="709.285156"/>
    </g>
   </g>
  </g>
 </g>
 <defs>
  <clipPath id="p51ea4a4689">
   <rect x="100.442308" y="7.2" width="357.12" height="266.112"/>
  </clipPath>
 </defs>
</svg>
