<?xml version="1.0" encoding="utf-8" standalone="no"?>
<!DOCTYPE svg PUBLIC "-//W3C//DTD SVG 1.1//EN"
  "http://www.w3.org/Graphics/SVG/1.1/DTD/svg11.dtd">
<svg xmlns:xlink="http://www.w3.org/1999/xlink" width="556.70149pt" height="280.512pt" viewBox="0 0 556.70149 280.512" xmlns="http://www.w3.org/2000/svg" version="1.1">
 <metadata>
  <rdf:RDF xmlns:dc="http://purl.org/dc/elements/1.1/" xmlns:cc="http://creativecommons.org/ns#" xmlns:rdf="http://www.w3.org/1999/02/22-rdf-syntax-ns#">
   <cc:Work>
    <dc:type rdf:resource="http://purl.org/dc/dcmitype/StillImage"/>
    <dc:date>2025-03-16T20:03:33.745340</dc:date>
    <dc:format>image/svg+xml</dc:format>
    <dc:creator>
     <cc:Agent>
      <dc:title>Matplotlib v3.9.3, https://matplotlib.org/</dc:title>
     </cc:Agent>
    </dc:creator>
   </cc:Work>
  </rdf:RDF>
 </metadata>
 <defs>
  <style type="text/css">*{stroke-linejoin: round; stroke-linecap: butt}</style>
 </defs>
 <g id="figure_1">
  <g id="patch_1">
   <path d="M 0 280.512 
L 556.70149 280.512 
L 556.70149 0 
L 0 0 
z
" style="fill: #ffffff"/>
  </g>
  <g id="axes_1">
   <g id="PolyCollection_1">
    <defs>
     <path id="m2b325b1b5e" d="M 115.37191 -99.402691 
L 115.37191 -19.296 
L 121.615267 -19.296 
L 121.615267 -99.402691 
L 121.615267 -99.402691 
L 115.37191 -99.402691 
z
" style="stroke: #57db5f; stroke-opacity: 0.99"/>
    </defs>
    <g clip-path="url(#p280288f62a)">
     <use xlink:href="#m2b325b1b5e" x="0" y="280.512" style="fill: #57db5f; fill-opacity: 0.99; stroke: #57db5f; stroke-opacity: 0.99"/>
    </g>
   </g>
   <g id="PolyCollection_2">
    <defs>
     <path id="m79f0a43d4e" d="M 115.37191 -125.85114 
L 115.37191 -109.079491 
L 121.615267 -109.079491 
L 121.615267 -125.85114 
L 121.615267 -125.85114 
L 115.37191 -125.85114 
z
" style="stroke: #5f57db; stroke-opacity: 0.99"/>
    </defs>
    <g clip-path="url(#p280288f62a)">
     <use xlink:href="#m79f0a43d4e" x="0" y="280.512" style="fill: #5f57db; fill-opacity: 0.99; stroke: #5f57db; stroke-opacity: 0.99"/>
    </g>
   </g>
   <g id="PolyCollection_3">
    <defs>
     <path id="m5611deb43e" d="M 115.37191 -197.538904 
L 115.37191 -135.52794 
L 121.615267 -135.52794 
L 121.615267 -197.538904 
L 121.615267 -197.538904 
L 115.37191 -197.538904 
z
" style="stroke: #db5f57; stroke-opacity: 0.99"/>
    </defs>
    <g clip-path="url(#p280288f62a)">
     <use xlink:href="#m5611deb43e" x="0" y="280.512" style="fill: #db5f57; fill-opacity: 0.99; stroke: #db5f57; stroke-opacity: 0.99"/>
    </g>
   </g>
   <g id="PolyCollection_4">
    <defs>
     <path id="mef24da621a" d="M 115.37191 -213.615413 
L 115.37191 -207.215704 
L 121.615267 -207.215704 
L 121.615267 -213.615413 
L 121.615267 -213.615413 
L 115.37191 -213.615413 
z
" style="stroke: #d3db57; stroke-opacity: 0.99"/>
    </defs>
    <g clip-path="url(#p280288f62a)">
     <use xlink:href="#mef24da621a" x="0" y="280.512" style="fill: #d3db57; fill-opacity: 0.99; stroke: #d3db57; stroke-opacity: 0.99"/>
    </g>
   </g>
   <g id="PolyCollection_5">
    <defs>
     <path id="m5dc4a278b3" d="M 115.37191 -251.5392 
L 115.37191 -223.292213 
L 121.615267 -223.292213 
L 121.615267 -251.5392 
L 121.615267 -251.5392 
L 115.37191 -251.5392 
z
" style="stroke: #57d3db; stroke-opacity: 0.99"/>
    </defs>
    <g clip-path="url(#p280288f62a)">
     <use xlink:href="#m5dc4a278b3" x="0" y="280.512" style="fill: #57d3db; fill-opacity: 0.99; stroke: #57d3db; stroke-opacity: 0.99"/>
    </g>
   </g>
   <g id="PolyCollection_6">
    <defs>
     <path id="m4fa185c951" d="M 433.783099 -94.76842 
L 433.783099 -19.296 
L 440.026455 -19.296 
L 440.026455 -94.76842 
L 440.026455 -94.76842 
L 433.783099 -94.76842 
z
" style="stroke: #57db5f; stroke-opacity: 0.99"/>
    </defs>
    <g clip-path="url(#p280288f62a)">
     <use xlink:href="#m4fa185c951" x="0" y="280.512" style="fill: #57db5f; fill-opacity: 0.99; stroke: #57db5f; stroke-opacity: 0.99"/>
    </g>
   </g>
   <g id="PolyCollection_7">
    <defs>
     <path id="m8b17243a7a" d="M 433.783099 -123.865023 
L 433.783099 -104.44522 
L 440.026455 -104.44522 
L 440.026455 -123.865023 
L 440.026455 -123.865023 
L 433.783099 -123.865023 
z
" style="stroke: #5f57db; stroke-opacity: 0.99"/>
    </defs>
    <g clip-path="url(#p280288f62a)">
     <use xlink:href="#m8b17243a7a" x="0" y="280.512" style="fill: #5f57db; fill-opacity: 0.99; stroke: #5f57db; stroke-opacity: 0.99"/>
    </g>
   </g>
   <g id="PolyCollection_8">
    <defs>
     <path id="mc9babddcf1" d="M 433.783099 -135.30726 
L 433.783099 -133.541823 
L 440.026455 -133.541823 
L 440.026455 -135.30726 
L 440.026455 -135.30726 
L 433.783099 -135.30726 
z
" style="stroke: #db57d3; stroke-opacity: 0.99"/>
    </defs>
    <g clip-path="url(#p280288f62a)">
     <use xlink:href="#mc9babddcf1" x="0" y="280.512" style="fill: #db57d3; fill-opacity: 0.99; stroke: #db57d3; stroke-opacity: 0.99"/>
    </g>
   </g>
   <g id="PolyCollection_9">
    <defs>
     <path id="me0bd51ac76" d="M 433.783099 -211.187937 
L 433.783099 -144.98406 
L 440.026455 -144.98406 
L 440.026455 -211.187937 
L 440.026455 -211.187937 
L 433.783099 -211.187937 
z
" style="stroke: #db5f57; stroke-opacity: 0.99"/>
    </defs>
    <g clip-path="url(#p280288f62a)">
     <use xlink:href="#me0bd51ac76" x="0" y="280.512" style="fill: #db5f57; fill-opacity: 0.99; stroke: #db5f57; stroke-opacity: 0.99"/>
    </g>
   </g>
   <g id="PolyCollection_10">
    <defs>
     <path id="mda814de7c4" d="M 433.783099 -248.891045 
L 433.783099 -220.864737 
L 440.026455 -220.864737 
L 440.026455 -248.891045 
L 440.026455 -248.891045 
L 433.783099 -248.891045 
z
" style="stroke: #d3db57; stroke-opacity: 0.99"/>
    </defs>
    <g clip-path="url(#p280288f62a)">
     <use xlink:href="#mda814de7c4" x="0" y="280.512" style="fill: #d3db57; fill-opacity: 0.99; stroke: #d3db57; stroke-opacity: 0.99"/>
    </g>
   </g>
   <g id="PolyCollection_11">
    <defs>
     <path id="m3510f8b3fc" d="M 433.783099 -261.216 
L 433.783099 -258.567845 
L 440.026455 -258.567845 
L 440.026455 -261.216 
L 440.026455 -261.216 
L 433.783099 -261.216 
z
" style="stroke: #57d3db; stroke-opacity: 0.99"/>
    </defs>
    <g clip-path="url(#p280288f62a)">
     <use xlink:href="#m3510f8b3fc" x="0" y="280.512" style="fill: #57d3db; fill-opacity: 0.99; stroke: #57d3db; stroke-opacity: 0.99"/>
    </g>
   </g>
   <g id="PolyCollection_12">
    <defs>
     <path id="m637b63648a" d="M 121.615267 -94.54774 
L 121.615267 -19.296 
L 126.732772 -19.296 
L 131.850277 -19.296 
L 136.967783 -19.296 
L 142.085288 -19.296 
L 147.202794 -19.296 
L 152.320299 -19.296 
L 157.437805 -19.296 
L 162.55531 -19.296 
L 167.672816 -19.296 
L 172.790321 -19.296 
L 177.907827 -19.296 
L 183.025332 -19.296 
L 188.142837 -19.296 
L 193.260343 -19.296 
L 198.377848 -19.296 
L 203.495354 -19.296 
L 208.612859 -19.296 
L 213.730365 -19.296 
L 218.84787 -19.296 
L 223.965376 -19.296 
L 229.082881 -19.296 
L 234.200386 -19.296 
L 239.317892 -19.296 
L 244.435397 -19.296 
L 249.552903 -19.296 
L 254.670408 -19.296 
L 259.787914 -19.296 
L 264.905419 -19.296 
L 270.022925 -19.296 
L 275.14043 -19.296 
L 280.257935 -19.296 
L 285.375441 -19.296 
L 290.492946 -19.296 
L 295.610452 -19.296 
L 300.727957 -19.296 
L 305.845463 -19.296 
L 310.962968 -19.296 
L 316.080474 -19.296 
L 321.197979 -19.296 
L 326.315484 -19.296 
L 331.43299 -19.296 
L 336.550495 -19.296 
L 341.668001 -19.296 
L 346.785506 -19.296 
L 351.903012 -19.296 
L 357.020517 -19.296 
L 362.138023 -19.296 
L 367.255528 -19.296 
L 372.373033 -19.296 
L 377.490539 -19.296 
L 382.608044 -19.296 
L 387.72555 -19.296 
L 392.843055 -19.296 
L 397.960561 -19.296 
L 403.078066 -19.296 
L 408.195572 -19.296 
L 413.313077 -19.296 
L 418.430582 -19.296 
L 423.548088 -19.296 
L 428.665593 -19.296 
L 433.783099 -19.296 
L 433.783099 -94.54774 
L 433.783099 -94.54774 
L 428.665593 -94.54774 
L 423.548088 -94.54774 
L 418.430582 -94.54774 
L 413.313077 -94.54774 
L 408.195572 -94.54774 
L 403.078066 -94.54774 
L 397.960561 -94.54774 
L 392.843055 -94.54774 
L 387.72555 -94.54774 
L 382.608044 -94.54774 
L 377.490539 -94.54774 
L 372.373033 -94.54774 
L 367.255528 -94.54774 
L 362.138023 -94.54774 
L 357.020517 -94.54774 
L 351.903012 -94.54774 
L 346.785506 -94.54774 
L 341.668001 -94.54774 
L 336.550495 -94.54774 
L 331.43299 -94.54774 
L 326.315484 -94.54774 
L 321.197979 -94.54774 
L 316.080474 -94.54774 
L 310.962968 -94.54774 
L 305.845463 -94.54774 
L 300.727957 -94.54774 
L 295.610452 -94.54774 
L 290.492946 -94.54774 
L 285.375441 -94.54774 
L 280.257935 -94.54774 
L 275.14043 -94.54774 
L 270.022925 -94.54774 
L 264.905419 -94.54774 
L 259.787914 -94.54774 
L 254.670408 -94.54774 
L 249.552903 -94.54774 
L 244.435397 -94.54774 
L 239.317892 -94.54774 
L 234.200386 -94.54774 
L 229.082881 -94.54774 
L 223.965376 -94.54774 
L 218.84787 -94.54774 
L 213.730365 -94.54774 
L 208.612859 -94.54774 
L 203.495354 -94.54774 
L 198.377848 -94.54774 
L 193.260343 -94.54774 
L 188.142837 -94.54774 
L 183.025332 -94.54774 
L 177.907827 -94.54774 
L 172.790321 -94.54774 
L 167.672816 -94.54774 
L 162.55531 -94.54774 
L 157.437805 -94.54774 
L 152.320299 -94.54774 
L 147.202794 -94.54774 
L 142.085288 -94.54774 
L 136.967783 -94.54774 
L 131.850277 -94.54774 
L 126.732772 -94.54774 
L 121.615267 -94.54774 
z
" style="stroke: #57db5f; stroke-opacity: 0.65"/>
    </defs>
    <g clip-path="url(#p280288f62a)">
     <use xlink:href="#m637b63648a" x="0" y="280.512" style="fill: #57db5f; fill-opacity: 0.65; stroke: #57db5f; stroke-opacity: 0.65"/>
    </g>
   </g>
   <g id="PolyCollection_13">
    <defs>
     <path id="mfa66be4441" d="M 121.615267 -96.975216 
L 121.615267 -94.54774 
L 126.732772 -94.54774 
L 131.850277 -94.54774 
L 136.967783 -94.54774 
L 142.085288 -94.54774 
L 147.202794 -94.54774 
L 152.320299 -94.54774 
L 157.437805 -94.54774 
L 162.55531 -94.54774 
L 167.672816 -94.54774 
L 172.790321 -94.54774 
L 177.907827 -94.54774 
L 183.025332 -94.572484 
L 188.142837 -94.621971 
L 193.260343 -94.696202 
L 198.377848 -94.795177 
L 203.495354 -94.918896 
L 208.612859 -95.067358 
L 213.730365 -95.240564 
L 218.84787 -95.438513 
L 223.965376 -95.661206 
L 229.082881 -95.908643 
L 234.200386 -96.180824 
L 239.317892 -96.477749 
L 244.435397 -96.799417 
L 249.552903 -97.145828 
L 254.670408 -97.516984 
L 259.787914 -97.912883 
L 264.905419 -98.333526 
L 270.022925 -98.778913 
L 275.14043 -99.249043 
L 280.257935 -99.743917 
L 285.375441 -100.214047 
L 290.492946 -100.659434 
L 295.610452 -101.080077 
L 300.727957 -101.475976 
L 305.845463 -101.847131 
L 310.962968 -102.193543 
L 316.080474 -102.515211 
L 321.197979 -102.812135 
L 326.315484 -103.084316 
L 331.43299 -103.331753 
L 336.550495 -103.554446 
L 341.668001 -103.752396 
L 346.785506 -103.925602 
L 351.903012 -104.074064 
L 357.020517 -104.197783 
L 362.138023 -104.296757 
L 367.255528 -104.370989 
L 372.373033 -104.420476 
L 377.490539 -104.44522 
L 382.608044 -104.44522 
L 387.72555 -104.44522 
L 392.843055 -104.44522 
L 397.960561 -104.44522 
L 403.078066 -104.44522 
L 408.195572 -104.44522 
L 413.313077 -104.44522 
L 418.430582 -104.44522 
L 423.548088 -104.44522 
L 428.665593 -104.44522 
L 433.783099 -104.44522 
L 433.783099 -106.872695 
L 433.783099 -106.872695 
L 428.665593 -106.872695 
L 423.548088 -106.872695 
L 418.430582 -106.872695 
L 413.313077 -106.872695 
L 408.195572 -106.872695 
L 403.078066 -106.872695 
L 397.960561 -106.872695 
L 392.843055 -106.872695 
L 387.72555 -106.872695 
L 382.608044 -106.872695 
L 377.490539 -106.872695 
L 372.373033 -106.847951 
L 367.255528 -106.798464 
L 362.138023 -106.724233 
L 357.020517 -106.625258 
L 351.903012 -106.50154 
L 346.785506 -106.353077 
L 341.668001 -106.179872 
L 336.550495 -105.981922 
L 331.43299 -105.759229 
L 326.315484 -105.511792 
L 321.197979 -105.239611 
L 316.080474 -104.942687 
L 310.962968 -104.621018 
L 305.845463 -104.274607 
L 300.727957 -103.903451 
L 295.610452 -103.507552 
L 290.492946 -103.086909 
L 285.375441 -102.641523 
L 280.257935 -102.171392 
L 275.14043 -101.676518 
L 270.022925 -101.206388 
L 264.905419 -100.761001 
L 259.787914 -100.340359 
L 254.670408 -99.944459 
L 249.552903 -99.573304 
L 244.435397 -99.226892 
L 239.317892 -98.905224 
L 234.200386 -98.6083 
L 229.082881 -98.336119 
L 223.965376 -98.088682 
L 218.84787 -97.865989 
L 213.730365 -97.668039 
L 208.612859 -97.494833 
L 203.495354 -97.346371 
L 198.377848 -97.222652 
L 193.260343 -97.123678 
L 188.142837 -97.049447 
L 183.025332 -96.999959 
L 177.907827 -96.975216 
L 172.790321 -96.975216 
L 167.672816 -96.975216 
L 162.55531 -96.975216 
L 157.437805 -96.975216 
L 152.320299 -96.975216 
L 147.202794 -96.975216 
L 142.085288 -96.975216 
L 136.967783 -96.975216 
L 131.850277 -96.975216 
L 126.732772 -96.975216 
L 121.615267 -96.975216 
z
" style="stroke: #57db5f; stroke-opacity: 0.65"/>
    </defs>
    <g clip-path="url(#p280288f62a)">
     <use xlink:href="#mfa66be4441" x="0" y="280.512" style="fill: #57db5f; fill-opacity: 0.65; stroke: #57db5f; stroke-opacity: 0.65"/>
    </g>
   </g>
   <g id="PolyCollection_14">
    <defs>
     <path id="m9dfa29e47b" d="M 121.615267 -97.195895 
L 121.615267 -96.975216 
L 126.732772 -96.975216 
L 131.850277 -96.975216 
L 136.967783 -96.975216 
L 142.085288 -96.975216 
L 147.202794 -96.975216 
L 152.320299 -96.975216 
L 157.437805 -96.975216 
L 162.55531 -96.975216 
L 167.672816 -96.975216 
L 172.790321 -96.975216 
L 177.907827 -96.975216 
L 183.025332 -97.095238 
L 188.142837 -97.335282 
L 193.260343 -97.695348 
L 198.377848 -98.175437 
L 203.495354 -98.775547 
L 208.612859 -99.49568 
L 213.730365 -100.335835 
L 218.84787 -101.296012 
L 223.965376 -102.376211 
L 229.082881 -103.576432 
L 234.200386 -104.896675 
L 239.317892 -106.33694 
L 244.435397 -107.897228 
L 249.552903 -109.577537 
L 254.670408 -111.377869 
L 259.787914 -113.298223 
L 264.905419 -115.338599 
L 270.022925 -117.498997 
L 275.14043 -119.779417 
L 280.257935 -122.179859 
L 285.375441 -124.460279 
L 290.492946 -126.620677 
L 295.610452 -128.661053 
L 300.727957 -130.581407 
L 305.845463 -132.381738 
L 310.962968 -134.062048 
L 316.080474 -135.622335 
L 321.197979 -137.062601 
L 326.315484 -138.382844 
L 331.43299 -139.583065 
L 336.550495 -140.663264 
L 341.668001 -141.623441 
L 346.785506 -142.463596 
L 351.903012 -143.183729 
L 357.020517 -143.783839 
L 362.138023 -144.263928 
L 367.255528 -144.623994 
L 372.373033 -144.864038 
L 377.490539 -144.98406 
L 382.608044 -144.98406 
L 387.72555 -144.98406 
L 392.843055 -144.98406 
L 397.960561 -144.98406 
L 403.078066 -144.98406 
L 408.195572 -144.98406 
L 413.313077 -144.98406 
L 418.430582 -144.98406 
L 423.548088 -144.98406 
L 428.665593 -144.98406 
L 433.783099 -144.98406 
L 433.783099 -145.20474 
L 433.783099 -145.20474 
L 428.665593 -145.20474 
L 423.548088 -145.20474 
L 418.430582 -145.20474 
L 413.313077 -145.20474 
L 408.195572 -145.20474 
L 403.078066 -145.20474 
L 397.960561 -145.20474 
L 392.843055 -145.20474 
L 387.72555 -145.20474 
L 382.608044 -145.20474 
L 377.490539 -145.20474 
L 372.373033 -145.084718 
L 367.255528 -144.844673 
L 362.138023 -144.484607 
L 357.020517 -144.004519 
L 351.903012 -143.404408 
L 346.785506 -142.684275 
L 341.668001 -141.844121 
L 336.550495 -140.883944 
L 331.43299 -139.803745 
L 326.315484 -138.603524 
L 321.197979 -137.28328 
L 316.080474 -135.843015 
L 310.962968 -134.282728 
L 305.845463 -132.602418 
L 300.727957 -130.802086 
L 295.610452 -128.881733 
L 290.492946 -126.841357 
L 285.375441 -124.680959 
L 280.257935 -122.400539 
L 275.14043 -120.000096 
L 270.022925 -117.719676 
L 264.905419 -115.559278 
L 259.787914 -113.518902 
L 254.670408 -111.598549 
L 249.552903 -109.798217 
L 244.435397 -108.117907 
L 239.317892 -106.55762 
L 234.200386 -105.117354 
L 229.082881 -103.797111 
L 223.965376 -102.59689 
L 218.84787 -101.516691 
L 213.730365 -100.556514 
L 208.612859 -99.716359 
L 203.495354 -98.996227 
L 198.377848 -98.396116 
L 193.260343 -97.916028 
L 188.142837 -97.555961 
L 183.025332 -97.315917 
L 177.907827 -97.195895 
L 172.790321 -97.195895 
L 167.672816 -97.195895 
L 162.55531 -97.195895 
L 157.437805 -97.195895 
L 152.320299 -97.195895 
L 147.202794 -97.195895 
L 142.085288 -97.195895 
L 136.967783 -97.195895 
L 131.850277 -97.195895 
L 126.732772 -97.195895 
L 121.615267 -97.195895 
z
" style="stroke: #57db5f; stroke-opacity: 0.65"/>
    </defs>
    <g clip-path="url(#p280288f62a)">
     <use xlink:href="#m9dfa29e47b" x="0" y="280.512" style="fill: #57db5f; fill-opacity: 0.65; stroke: #57db5f; stroke-opacity: 0.65"/>
    </g>
   </g>
   <g id="PolyCollection_15">
    <defs>
     <path id="m6dc548bbcc" d="M 121.615267 -99.402691 
L 121.615267 -97.195895 
L 126.732772 -97.195895 
L 131.850277 -97.195895 
L 136.967783 -97.195895 
L 142.085288 -97.195895 
L 147.202794 -97.195895 
L 152.320299 -97.195895 
L 157.437805 -97.195895 
L 162.55531 -97.195895 
L 167.672816 -97.195895 
L 172.790321 -97.195895 
L 177.907827 -97.195895 
L 183.025332 -97.599325 
L 188.142837 -98.406185 
L 193.260343 -99.616474 
L 198.377848 -101.230194 
L 203.495354 -103.247343 
L 208.612859 -105.667922 
L 213.730365 -108.491932 
L 218.84787 -111.719371 
L 223.965376 -115.350239 
L 229.082881 -119.384538 
L 234.200386 -123.822267 
L 239.317892 -128.663425 
L 244.435397 -133.908014 
L 249.552903 -139.556032 
L 254.670408 -145.60748 
L 259.787914 -152.062358 
L 264.905419 -158.920666 
L 270.022925 -166.182404 
L 275.14043 -173.847571 
L 280.257935 -181.916169 
L 285.375441 -189.581336 
L 290.492946 -196.843074 
L 295.610452 -203.701382 
L 300.727957 -210.15626 
L 305.845463 -216.207708 
L 310.962968 -221.855726 
L 316.080474 -227.100315 
L 321.197979 -231.941473 
L 326.315484 -236.379202 
L 331.43299 -240.413501 
L 336.550495 -244.044369 
L 341.668001 -247.271808 
L 346.785506 -250.095818 
L 351.903012 -252.516397 
L 357.020517 -254.533546 
L 362.138023 -256.147266 
L 367.255528 -257.357555 
L 372.373033 -258.164415 
L 377.490539 -258.567845 
L 382.608044 -258.567845 
L 387.72555 -258.567845 
L 392.843055 -258.567845 
L 397.960561 -258.567845 
L 403.078066 -258.567845 
L 408.195572 -258.567845 
L 413.313077 -258.567845 
L 418.430582 -258.567845 
L 423.548088 -258.567845 
L 428.665593 -258.567845 
L 433.783099 -258.567845 
L 433.783099 -260.774641 
L 433.783099 -260.774641 
L 428.665593 -260.774641 
L 423.548088 -260.774641 
L 418.430582 -260.774641 
L 413.313077 -260.774641 
L 408.195572 -260.774641 
L 403.078066 -260.774641 
L 397.960561 -260.774641 
L 392.843055 -260.774641 
L 387.72555 -260.774641 
L 382.608044 -260.774641 
L 377.490539 -260.774641 
L 372.373033 -260.371211 
L 367.255528 -259.564351 
L 362.138023 -258.354062 
L 357.020517 -256.740342 
L 351.903012 -254.723193 
L 346.785506 -252.302613 
L 341.668001 -249.478604 
L 336.550495 -246.251165 
L 331.43299 -242.620296 
L 326.315484 -238.585998 
L 321.197979 -234.148269 
L 316.080474 -229.307111 
L 310.962968 -224.062522 
L 305.845463 -218.414504 
L 300.727957 -212.363056 
L 295.610452 -205.908178 
L 290.492946 -199.04987 
L 285.375441 -191.788132 
L 280.257935 -184.122965 
L 275.14043 -176.054367 
L 270.022925 -168.3892 
L 264.905419 -161.127462 
L 259.787914 -154.269154 
L 254.670408 -147.814276 
L 249.552903 -141.762828 
L 244.435397 -136.11481 
L 239.317892 -130.870221 
L 234.200386 -126.029063 
L 229.082881 -121.591334 
L 223.965376 -117.557035 
L 218.84787 -113.926166 
L 213.730365 -110.698727 
L 208.612859 -107.874718 
L 203.495354 -105.454139 
L 198.377848 -103.43699 
L 193.260343 -101.82327 
L 188.142837 -100.612981 
L 183.025332 -99.806121 
L 177.907827 -99.402691 
L 172.790321 -99.402691 
L 167.672816 -99.402691 
L 162.55531 -99.402691 
L 157.437805 -99.402691 
L 152.320299 -99.402691 
L 147.202794 -99.402691 
L 142.085288 -99.402691 
L 136.967783 -99.402691 
L 131.850277 -99.402691 
L 126.732772 -99.402691 
L 121.615267 -99.402691 
z
" style="stroke: #57db5f; stroke-opacity: 0.65"/>
    </defs>
    <g clip-path="url(#p280288f62a)">
     <use xlink:href="#m6dc548bbcc" x="0" y="280.512" style="fill: #57db5f; fill-opacity: 0.65; stroke: #57db5f; stroke-opacity: 0.65"/>
    </g>
   </g>
   <g id="PolyCollection_16">
    <defs>
     <path id="m50bbab1b3f" d="M 121.615267 -125.63046 
L 121.615267 -109.079491 
L 126.732772 -109.079491 
L 131.850277 -109.079491 
L 136.967783 -109.079491 
L 142.085288 -109.079491 
L 147.202794 -109.079491 
L 152.320299 -109.079491 
L 157.437805 -109.079491 
L 162.55531 -109.079491 
L 167.672816 -109.079491 
L 172.790321 -109.079491 
L 177.907827 -109.079491 
L 183.025332 -109.073974 
L 188.142837 -109.06294 
L 193.260343 -109.046389 
L 198.377848 -109.024321 
L 203.495354 -108.996736 
L 208.612859 -108.963634 
L 213.730365 -108.925015 
L 218.84787 -108.880879 
L 223.965376 -108.831226 
L 229.082881 -108.776057 
L 234.200386 -108.71537 
L 239.317892 -108.649166 
L 244.435397 -108.577445 
L 249.552903 -108.500207 
L 254.670408 -108.417452 
L 259.787914 -108.32918 
L 264.905419 -108.235392 
L 270.022925 -108.136086 
L 275.14043 -108.031263 
L 280.257935 -107.920923 
L 285.375441 -107.8161 
L 290.492946 -107.716795 
L 295.610452 -107.623006 
L 300.727957 -107.534734 
L 305.845463 -107.451979 
L 310.962968 -107.374741 
L 316.080474 -107.30302 
L 321.197979 -107.236816 
L 326.315484 -107.17613 
L 331.43299 -107.12096 
L 336.550495 -107.071307 
L 341.668001 -107.027171 
L 346.785506 -106.988552 
L 351.903012 -106.95545 
L 357.020517 -106.927865 
L 362.138023 -106.905797 
L 367.255528 -106.889246 
L 372.373033 -106.878212 
L 377.490539 -106.872695 
L 382.608044 -106.872695 
L 387.72555 -106.872695 
L 392.843055 -106.872695 
L 397.960561 -106.872695 
L 403.078066 -106.872695 
L 408.195572 -106.872695 
L 413.313077 -106.872695 
L 418.430582 -106.872695 
L 423.548088 -106.872695 
L 428.665593 -106.872695 
L 433.783099 -106.872695 
L 433.783099 -123.423664 
L 433.783099 -123.423664 
L 428.665593 -123.423664 
L 423.548088 -123.423664 
L 418.430582 -123.423664 
L 413.313077 -123.423664 
L 408.195572 -123.423664 
L 403.078066 -123.423664 
L 397.960561 -123.423664 
L 392.843055 -123.423664 
L 387.72555 -123.423664 
L 382.608044 -123.423664 
L 377.490539 -123.423664 
L 372.373033 -123.429181 
L 367.255528 -123.440215 
L 362.138023 -123.456766 
L 357.020517 -123.478834 
L 351.903012 -123.506419 
L 346.785506 -123.539521 
L 341.668001 -123.57814 
L 336.550495 -123.622276 
L 331.43299 -123.671929 
L 326.315484 -123.727099 
L 321.197979 -123.787786 
L 316.080474 -123.85399 
L 310.962968 -123.92571 
L 305.845463 -124.002948 
L 300.727957 -124.085703 
L 295.610452 -124.173975 
L 290.492946 -124.267764 
L 285.375441 -124.36707 
L 280.257935 -124.471892 
L 275.14043 -124.582232 
L 270.022925 -124.687055 
L 264.905419 -124.786361 
L 259.787914 -124.88015 
L 254.670408 -124.968421 
L 249.552903 -125.051176 
L 244.435397 -125.128414 
L 239.317892 -125.200135 
L 234.200386 -125.266339 
L 229.082881 -125.327026 
L 223.965376 -125.382196 
L 218.84787 -125.431849 
L 213.730365 -125.475984 
L 208.612859 -125.514603 
L 203.495354 -125.547705 
L 198.377848 -125.57529 
L 193.260343 -125.597358 
L 188.142837 -125.613909 
L 183.025332 -125.624943 
L 177.907827 -125.63046 
L 172.790321 -125.63046 
L 167.672816 -125.63046 
L 162.55531 -125.63046 
L 157.437805 -125.63046 
L 152.320299 -125.63046 
L 147.202794 -125.63046 
L 142.085288 -125.63046 
L 136.967783 -125.63046 
L 131.850277 -125.63046 
L 126.732772 -125.63046 
L 121.615267 -125.63046 
z
" style="stroke: #5f57db; stroke-opacity: 0.65"/>
    </defs>
    <g clip-path="url(#p280288f62a)">
     <use xlink:href="#m50bbab1b3f" x="0" y="280.512" style="fill: #5f57db; fill-opacity: 0.65; stroke: #5f57db; stroke-opacity: 0.65"/>
    </g>
   </g>
   <g id="PolyCollection_17">
    <defs>
     <path id="m47e53aa9fc" d="M 121.615267 -125.85114 
L 121.615267 -125.63046 
L 126.732772 -125.63046 
L 131.850277 -125.63046 
L 136.967783 -125.63046 
L 142.085288 -125.63046 
L 147.202794 -125.63046 
L 152.320299 -125.63046 
L 157.437805 -125.63046 
L 162.55531 -125.63046 
L 167.672816 -125.63046 
L 172.790321 -125.63046 
L 177.907827 -125.63046 
L 183.025332 -125.650239 
L 188.142837 -125.689795 
L 193.260343 -125.749131 
L 198.377848 -125.828244 
L 203.495354 -125.927136 
L 208.612859 -126.045807 
L 213.730365 -126.184256 
L 218.84787 -126.342483 
L 223.965376 -126.520489 
L 229.082881 -126.718273 
L 234.200386 -126.935835 
L 239.317892 -127.173176 
L 244.435397 -127.430295 
L 249.552903 -127.707193 
L 254.670408 -128.003869 
L 259.787914 -128.320324 
L 264.905419 -128.656557 
L 270.022925 -129.012568 
L 275.14043 -129.388358 
L 280.257935 -129.783926 
L 285.375441 -130.159716 
L 290.492946 -130.515727 
L 295.610452 -130.85196 
L 300.727957 -131.168415 
L 305.845463 -131.465091 
L 310.962968 -131.741988 
L 316.080474 -131.999108 
L 321.197979 -132.236449 
L 326.315484 -132.454011 
L 331.43299 -132.651795 
L 336.550495 -132.829801 
L 341.668001 -132.988028 
L 346.785506 -133.126477 
L 351.903012 -133.245147 
L 357.020517 -133.344039 
L 362.138023 -133.423153 
L 367.255528 -133.482488 
L 372.373033 -133.522045 
L 377.490539 -133.541823 
L 382.608044 -133.541823 
L 387.72555 -133.541823 
L 392.843055 -133.541823 
L 397.960561 -133.541823 
L 403.078066 -133.541823 
L 408.195572 -133.541823 
L 413.313077 -133.541823 
L 418.430582 -133.541823 
L 423.548088 -133.541823 
L 428.665593 -133.541823 
L 433.783099 -133.541823 
L 433.783099 -133.762503 
L 433.783099 -133.762503 
L 428.665593 -133.762503 
L 423.548088 -133.762503 
L 418.430582 -133.762503 
L 413.313077 -133.762503 
L 408.195572 -133.762503 
L 403.078066 -133.762503 
L 397.960561 -133.762503 
L 392.843055 -133.762503 
L 387.72555 -133.762503 
L 382.608044 -133.762503 
L 377.490539 -133.762503 
L 372.373033 -133.742725 
L 367.255528 -133.703168 
L 362.138023 -133.643833 
L 357.020517 -133.564719 
L 351.903012 -133.465827 
L 346.785506 -133.347157 
L 341.668001 -133.208708 
L 336.550495 -133.05048 
L 331.43299 -132.872475 
L 326.315484 -132.674691 
L 321.197979 -132.457128 
L 316.080474 -132.219787 
L 310.962968 -131.962668 
L 305.845463 -131.68577 
L 300.727957 -131.389094 
L 295.610452 -131.07264 
L 290.492946 -130.736407 
L 285.375441 -130.380395 
L 280.257935 -130.004606 
L 275.14043 -129.609037 
L 270.022925 -129.233248 
L 264.905419 -128.877236 
L 259.787914 -128.541003 
L 254.670408 -128.224549 
L 249.552903 -127.927873 
L 244.435397 -127.650975 
L 239.317892 -127.393856 
L 234.200386 -127.156515 
L 229.082881 -126.938952 
L 223.965376 -126.741168 
L 218.84787 -126.563162 
L 213.730365 -126.404935 
L 208.612859 -126.266486 
L 203.495354 -126.147816 
L 198.377848 -126.048924 
L 193.260343 -125.96981 
L 188.142837 -125.910475 
L 183.025332 -125.870918 
L 177.907827 -125.85114 
L 172.790321 -125.85114 
L 167.672816 -125.85114 
L 162.55531 -125.85114 
L 157.437805 -125.85114 
L 152.320299 -125.85114 
L 147.202794 -125.85114 
L 142.085288 -125.85114 
L 136.967783 -125.85114 
L 131.850277 -125.85114 
L 126.732772 -125.85114 
L 121.615267 -125.85114 
z
" style="stroke: #5f57db; stroke-opacity: 0.65"/>
    </defs>
    <g clip-path="url(#p280288f62a)">
     <use xlink:href="#m47e53aa9fc" x="0" y="280.512" style="fill: #5f57db; fill-opacity: 0.65; stroke: #5f57db; stroke-opacity: 0.65"/>
    </g>
   </g>
   <g id="PolyCollection_18">
    <defs>
     <path id="m37875520be" d="M 121.615267 -135.748619 
L 121.615267 -135.52794 
L 126.732772 -135.52794 
L 131.850277 -135.52794 
L 136.967783 -135.52794 
L 142.085288 -135.52794 
L 147.202794 -135.52794 
L 152.320299 -135.52794 
L 157.437805 -135.52794 
L 162.55531 -135.52794 
L 167.672816 -135.52794 
L 172.790321 -135.52794 
L 177.907827 -135.52794 
L 183.025332 -135.425489 
L 188.142837 -135.220588 
L 193.260343 -134.913237 
L 198.377848 -134.503435 
L 203.495354 -133.991182 
L 208.612859 -133.376479 
L 213.730365 -132.659326 
L 218.84787 -131.839722 
L 223.965376 -130.917667 
L 229.082881 -129.893162 
L 234.200386 -128.766207 
L 239.317892 -127.536801 
L 244.435397 -126.204944 
L 249.552903 -124.770637 
L 254.670408 -123.23388 
L 259.787914 -121.594672 
L 264.905419 -119.853013 
L 270.022925 -118.008904 
L 275.14043 -116.062345 
L 280.257935 -114.013335 
L 285.375441 -112.066775 
L 290.492946 -110.222666 
L 295.610452 -108.481008 
L 300.727957 -106.8418 
L 305.845463 -105.305042 
L 310.962968 -103.870735 
L 316.080474 -102.538879 
L 321.197979 -101.309473 
L 326.315484 -100.182517 
L 331.43299 -99.158012 
L 336.550495 -98.235958 
L 341.668001 -97.416354 
L 346.785506 -96.699201 
L 351.903012 -96.084498 
L 357.020517 -95.572245 
L 362.138023 -95.162443 
L 367.255528 -94.855092 
L 372.373033 -94.650191 
L 377.490539 -94.54774 
L 382.608044 -94.54774 
L 387.72555 -94.54774 
L 392.843055 -94.54774 
L 397.960561 -94.54774 
L 403.078066 -94.54774 
L 408.195572 -94.54774 
L 413.313077 -94.54774 
L 418.430582 -94.54774 
L 423.548088 -94.54774 
L 428.665593 -94.54774 
L 433.783099 -94.54774 
L 433.783099 -94.76842 
L 433.783099 -94.76842 
L 428.665593 -94.76842 
L 423.548088 -94.76842 
L 418.430582 -94.76842 
L 413.313077 -94.76842 
L 408.195572 -94.76842 
L 403.078066 -94.76842 
L 397.960561 -94.76842 
L 392.843055 -94.76842 
L 387.72555 -94.76842 
L 382.608044 -94.76842 
L 377.490539 -94.76842 
L 372.373033 -94.87087 
L 367.255528 -95.075771 
L 362.138023 -95.383123 
L 357.020517 -95.792925 
L 351.903012 -96.305177 
L 346.785506 -96.91988 
L 341.668001 -97.637034 
L 336.550495 -98.456638 
L 331.43299 -99.378692 
L 326.315484 -100.403197 
L 321.197979 -101.530153 
L 316.080474 -102.759559 
L 310.962968 -104.091415 
L 305.845463 -105.525722 
L 300.727957 -107.06248 
L 295.610452 -108.701688 
L 290.492946 -110.443346 
L 285.375441 -112.287455 
L 280.257935 -114.234015 
L 275.14043 -116.283024 
L 270.022925 -118.229584 
L 264.905419 -120.073693 
L 259.787914 -121.815351 
L 254.670408 -123.454559 
L 249.552903 -124.991317 
L 244.435397 -126.425624 
L 239.317892 -127.75748 
L 234.200386 -128.986886 
L 229.082881 -130.113842 
L 223.965376 -131.138347 
L 218.84787 -132.060401 
L 213.730365 -132.880005 
L 208.612859 -133.597159 
L 203.495354 -134.211862 
L 198.377848 -134.724114 
L 193.260343 -135.133916 
L 188.142837 -135.441268 
L 183.025332 -135.646169 
L 177.907827 -135.748619 
L 172.790321 -135.748619 
L 167.672816 -135.748619 
L 162.55531 -135.748619 
L 157.437805 -135.748619 
L 152.320299 -135.748619 
L 147.202794 -135.748619 
L 142.085288 -135.748619 
L 136.967783 -135.748619 
L 131.850277 -135.748619 
L 126.732772 -135.748619 
L 121.615267 -135.748619 
z
" style="stroke: #db5f57; stroke-opacity: 0.65"/>
    </defs>
    <g clip-path="url(#p280288f62a)">
     <use xlink:href="#m37875520be" x="0" y="280.512" style="fill: #db5f57; fill-opacity: 0.65; stroke: #db5f57; stroke-opacity: 0.65"/>
    </g>
   </g>
   <g id="PolyCollection_19">
    <defs>
     <path id="ma0299e87d8" d="M 121.615267 -137.293377 
L 121.615267 -135.748619 
L 126.732772 -135.748619 
L 131.850277 -135.748619 
L 136.967783 -135.748619 
L 142.085288 -135.748619 
L 147.202794 -135.748619 
L 152.320299 -135.748619 
L 157.437805 -135.748619 
L 162.55531 -135.748619 
L 167.672816 -135.748619 
L 172.790321 -135.748619 
L 177.907827 -135.748619 
L 183.025332 -135.743654 
L 188.142837 -135.733724 
L 193.260343 -135.718828 
L 198.377848 -135.698966 
L 203.495354 -135.67414 
L 208.612859 -135.644348 
L 213.730365 -135.609591 
L 218.84787 -135.569869 
L 223.965376 -135.525181 
L 229.082881 -135.475528 
L 234.200386 -135.42091 
L 239.317892 -135.361327 
L 244.435397 -135.296778 
L 249.552903 -135.227264 
L 254.670408 -135.152784 
L 259.787914 -135.07334 
L 264.905419 -134.98893 
L 270.022925 -134.899555 
L 275.14043 -134.805214 
L 280.257935 -134.705908 
L 285.375441 -134.611568 
L 290.492946 -134.522193 
L 295.610452 -134.437783 
L 300.727957 -134.358338 
L 305.845463 -134.283859 
L 310.962968 -134.214345 
L 316.080474 -134.149796 
L 321.197979 -134.090212 
L 326.315484 -134.035594 
L 331.43299 -133.985941 
L 336.550495 -133.941254 
L 341.668001 -133.901531 
L 346.785506 -133.866774 
L 351.903012 -133.836982 
L 357.020517 -133.812156 
L 362.138023 -133.792295 
L 367.255528 -133.777399 
L 372.373033 -133.767468 
L 377.490539 -133.762503 
L 382.608044 -133.762503 
L 387.72555 -133.762503 
L 392.843055 -133.762503 
L 397.960561 -133.762503 
L 403.078066 -133.762503 
L 408.195572 -133.762503 
L 413.313077 -133.762503 
L 418.430582 -133.762503 
L 423.548088 -133.762503 
L 428.665593 -133.762503 
L 433.783099 -133.762503 
L 433.783099 -135.30726 
L 433.783099 -135.30726 
L 428.665593 -135.30726 
L 423.548088 -135.30726 
L 418.430582 -135.30726 
L 413.313077 -135.30726 
L 408.195572 -135.30726 
L 403.078066 -135.30726 
L 397.960561 -135.30726 
L 392.843055 -135.30726 
L 387.72555 -135.30726 
L 382.608044 -135.30726 
L 377.490539 -135.30726 
L 372.373033 -135.312225 
L 367.255528 -135.322156 
L 362.138023 -135.337052 
L 357.020517 -135.356913 
L 351.903012 -135.38174 
L 346.785506 -135.411531 
L 341.668001 -135.446288 
L 336.550495 -135.486011 
L 331.43299 -135.530698 
L 326.315484 -135.580351 
L 321.197979 -135.634969 
L 316.080474 -135.694553 
L 310.962968 -135.759102 
L 305.845463 -135.828616 
L 300.727957 -135.903095 
L 295.610452 -135.98254 
L 290.492946 -136.06695 
L 285.375441 -136.156325 
L 280.257935 -136.250665 
L 275.14043 -136.349971 
L 270.022925 -136.444312 
L 264.905419 -136.533687 
L 259.787914 -136.618097 
L 254.670408 -136.697542 
L 249.552903 -136.772021 
L 244.435397 -136.841535 
L 239.317892 -136.906084 
L 234.200386 -136.965667 
L 229.082881 -137.020286 
L 223.965376 -137.069938 
L 218.84787 -137.114626 
L 213.730365 -137.154348 
L 208.612859 -137.189105 
L 203.495354 -137.218897 
L 198.377848 -137.243724 
L 193.260343 -137.263585 
L 188.142837 -137.278481 
L 183.025332 -137.288411 
L 177.907827 -137.293377 
L 172.790321 -137.293377 
L 167.672816 -137.293377 
L 162.55531 -137.293377 
L 157.437805 -137.293377 
L 152.320299 -137.293377 
L 147.202794 -137.293377 
L 142.085288 -137.293377 
L 136.967783 -137.293377 
L 131.850277 -137.293377 
L 126.732772 -137.293377 
L 121.615267 -137.293377 
z
" style="stroke: #db5f57; stroke-opacity: 0.65"/>
    </defs>
    <g clip-path="url(#p280288f62a)">
     <use xlink:href="#ma0299e87d8" x="0" y="280.512" style="fill: #db5f57; fill-opacity: 0.65; stroke: #db5f57; stroke-opacity: 0.65"/>
    </g>
   </g>
   <g id="PolyCollection_20">
    <defs>
     <path id="m81ea764a84" d="M 121.615267 -197.318225 
L 121.615267 -137.293377 
L 126.732772 -137.293377 
L 131.850277 -137.293377 
L 136.967783 -137.293377 
L 142.085288 -137.293377 
L 147.202794 -137.293377 
L 152.320299 -137.293377 
L 157.437805 -137.293377 
L 162.55531 -137.293377 
L 167.672816 -137.293377 
L 172.790321 -137.293377 
L 177.907827 -137.293377 
L 183.025332 -137.313155 
L 188.142837 -137.352712 
L 193.260343 -137.412047 
L 198.377848 -137.491161 
L 203.495354 -137.590053 
L 208.612859 -137.708723 
L 213.730365 -137.847172 
L 218.84787 -138.005399 
L 223.965376 -138.183405 
L 229.082881 -138.381189 
L 234.200386 -138.598751 
L 239.317892 -138.836092 
L 244.435397 -139.093212 
L 249.552903 -139.370109 
L 254.670408 -139.666785 
L 259.787914 -139.98324 
L 264.905419 -140.319473 
L 270.022925 -140.675484 
L 275.14043 -141.051274 
L 280.257935 -141.446842 
L 285.375441 -141.822632 
L 290.492946 -142.178643 
L 295.610452 -142.514876 
L 300.727957 -142.831331 
L 305.845463 -143.128007 
L 310.962968 -143.404905 
L 316.080474 -143.662024 
L 321.197979 -143.899365 
L 326.315484 -144.116927 
L 331.43299 -144.314711 
L 336.550495 -144.492717 
L 341.668001 -144.650944 
L 346.785506 -144.789393 
L 351.903012 -144.908064 
L 357.020517 -145.006956 
L 362.138023 -145.086069 
L 367.255528 -145.145405 
L 372.373033 -145.184961 
L 377.490539 -145.20474 
L 382.608044 -145.20474 
L 387.72555 -145.20474 
L 392.843055 -145.20474 
L 397.960561 -145.20474 
L 403.078066 -145.20474 
L 408.195572 -145.20474 
L 413.313077 -145.20474 
L 418.430582 -145.20474 
L 423.548088 -145.20474 
L 428.665593 -145.20474 
L 433.783099 -145.20474 
L 433.783099 -205.229588 
L 433.783099 -205.229588 
L 428.665593 -205.229588 
L 423.548088 -205.229588 
L 418.430582 -205.229588 
L 413.313077 -205.229588 
L 408.195572 -205.229588 
L 403.078066 -205.229588 
L 397.960561 -205.229588 
L 392.843055 -205.229588 
L 387.72555 -205.229588 
L 382.608044 -205.229588 
L 377.490539 -205.229588 
L 372.373033 -205.20981 
L 367.255528 -205.170253 
L 362.138023 -205.110918 
L 357.020517 -205.031804 
L 351.903012 -204.932912 
L 346.785506 -204.814242 
L 341.668001 -204.675793 
L 336.550495 -204.517565 
L 331.43299 -204.33956 
L 326.315484 -204.141776 
L 321.197979 -203.924213 
L 316.080474 -203.686872 
L 310.962968 -203.429753 
L 305.845463 -203.152855 
L 300.727957 -202.856179 
L 295.610452 -202.539725 
L 290.492946 -202.203492 
L 285.375441 -201.84748 
L 280.257935 -201.471691 
L 275.14043 -201.076122 
L 270.022925 -200.700333 
L 264.905419 -200.344321 
L 259.787914 -200.008088 
L 254.670408 -199.691634 
L 249.552903 -199.394958 
L 244.435397 -199.11806 
L 239.317892 -198.860941 
L 234.200386 -198.6236 
L 229.082881 -198.406037 
L 223.965376 -198.208253 
L 218.84787 -198.030248 
L 213.730365 -197.87202 
L 208.612859 -197.733571 
L 203.495354 -197.614901 
L 198.377848 -197.516009 
L 193.260343 -197.436895 
L 188.142837 -197.37756 
L 183.025332 -197.338003 
L 177.907827 -197.318225 
L 172.790321 -197.318225 
L 167.672816 -197.318225 
L 162.55531 -197.318225 
L 157.437805 -197.318225 
L 152.320299 -197.318225 
L 147.202794 -197.318225 
L 142.085288 -197.318225 
L 136.967783 -197.318225 
L 131.850277 -197.318225 
L 126.732772 -197.318225 
L 121.615267 -197.318225 
z
" style="stroke: #db5f57; stroke-opacity: 0.65"/>
    </defs>
    <g clip-path="url(#p280288f62a)">
     <use xlink:href="#m81ea764a84" x="0" y="280.512" style="fill: #db5f57; fill-opacity: 0.65; stroke: #db5f57; stroke-opacity: 0.65"/>
    </g>
   </g>
   <g id="PolyCollection_21">
    <defs>
     <path id="m6f9e3fb2f0" d="M 121.615267 -197.538904 
L 121.615267 -197.318225 
L 126.732772 -197.318225 
L 131.850277 -197.318225 
L 136.967783 -197.318225 
L 142.085288 -197.318225 
L 147.202794 -197.318225 
L 152.320299 -197.318225 
L 157.437805 -197.318225 
L 162.55531 -197.318225 
L 167.672816 -197.318225 
L 172.790321 -197.318225 
L 177.907827 -197.318225 
L 183.025332 -197.476866 
L 188.142837 -197.794148 
L 193.260343 -198.270071 
L 198.377848 -198.904635 
L 203.495354 -199.69784 
L 208.612859 -200.649687 
L 213.730365 -201.760174 
L 218.84787 -203.029302 
L 223.965376 -204.457072 
L 229.082881 -206.043482 
L 234.200386 -207.788533 
L 239.317892 -209.692226 
L 244.435397 -211.754559 
L 249.552903 -213.975534 
L 254.670408 -216.35515 
L 259.787914 -218.893406 
L 264.905419 -221.590304 
L 270.022925 -224.445843 
L 275.14043 -227.460022 
L 280.257935 -230.632843 
L 285.375441 -233.647023 
L 290.492946 -236.502562 
L 295.610452 -239.199459 
L 300.727957 -241.737716 
L 305.845463 -244.117332 
L 310.962968 -246.338306 
L 316.080474 -248.40064 
L 321.197979 -250.304332 
L 326.315484 -252.049384 
L 331.43299 -253.635794 
L 336.550495 -255.063563 
L 341.668001 -256.332692 
L 346.785506 -257.443179 
L 351.903012 -258.395025 
L 357.020517 -259.18823 
L 362.138023 -259.822795 
L 367.255528 -260.298718 
L 372.373033 -260.616 
L 377.490539 -260.774641 
L 382.608044 -260.774641 
L 387.72555 -260.774641 
L 392.843055 -260.774641 
L 397.960561 -260.774641 
L 403.078066 -260.774641 
L 408.195572 -260.774641 
L 413.313077 -260.774641 
L 418.430582 -260.774641 
L 423.548088 -260.774641 
L 428.665593 -260.774641 
L 433.783099 -260.774641 
L 433.783099 -260.99532 
L 433.783099 -260.99532 
L 428.665593 -260.99532 
L 423.548088 -260.99532 
L 418.430582 -260.99532 
L 413.313077 -260.99532 
L 408.195572 -260.99532 
L 403.078066 -260.99532 
L 397.960561 -260.99532 
L 392.843055 -260.99532 
L 387.72555 -260.99532 
L 382.608044 -260.99532 
L 377.490539 -260.99532 
L 372.373033 -260.836679 
L 367.255528 -260.519397 
L 362.138023 -260.043474 
L 357.020517 -259.40891 
L 351.903012 -258.615705 
L 346.785506 -257.663859 
L 341.668001 -256.553371 
L 336.550495 -255.284243 
L 331.43299 -253.856474 
L 326.315484 -252.270063 
L 321.197979 -250.525012 
L 316.080474 -248.621319 
L 310.962968 -246.558986 
L 305.845463 -244.338011 
L 300.727957 -241.958396 
L 295.610452 -239.420139 
L 290.492946 -236.723241 
L 285.375441 -233.867703 
L 280.257935 -230.853523 
L 275.14043 -227.680702 
L 270.022925 -224.666522 
L 264.905419 -221.810984 
L 259.787914 -219.114086 
L 254.670408 -216.575829 
L 249.552903 -214.196214 
L 244.435397 -211.975239 
L 239.317892 -209.912906 
L 234.200386 -208.009213 
L 229.082881 -206.264162 
L 223.965376 -204.677751 
L 218.84787 -203.249982 
L 213.730365 -201.980854 
L 208.612859 -200.870366 
L 203.495354 -199.91852 
L 198.377848 -199.125315 
L 193.260343 -198.490751 
L 188.142837 -198.014828 
L 183.025332 -197.697545 
L 177.907827 -197.538904 
L 172.790321 -197.538904 
L 167.672816 -197.538904 
L 162.55531 -197.538904 
L 157.437805 -197.538904 
L 152.320299 -197.538904 
L 147.202794 -197.538904 
L 142.085288 -197.538904 
L 136.967783 -197.538904 
L 131.850277 -197.538904 
L 126.732772 -197.538904 
L 121.615267 -197.538904 
z
" style="stroke: #db5f57; stroke-opacity: 0.65"/>
    </defs>
    <g clip-path="url(#p280288f62a)">
     <use xlink:href="#m6f9e3fb2f0" x="0" y="280.512" style="fill: #db5f57; fill-opacity: 0.65; stroke: #db5f57; stroke-opacity: 0.65"/>
    </g>
   </g>
   <g id="PolyCollection_22">
    <defs>
     <path id="mcf7b893ee3" d="M 121.615267 -207.657064 
L 121.615267 -207.215704 
L 126.732772 -207.215704 
L 131.850277 -207.215704 
L 136.967783 -207.215704 
L 142.085288 -207.215704 
L 147.202794 -207.215704 
L 152.320299 -207.215704 
L 157.437805 -207.215704 
L 162.55531 -207.215704 
L 167.672816 -207.215704 
L 172.790321 -207.215704 
L 177.907827 -207.215704 
L 183.025332 -207.006224 
L 188.142837 -206.587264 
L 193.260343 -205.958824 
L 198.377848 -205.120903 
L 203.495354 -204.073503 
L 208.612859 -202.816622 
L 213.730365 -201.350262 
L 218.84787 -199.674421 
L 223.965376 -197.7891 
L 229.082881 -195.694299 
L 234.200386 -193.390018 
L 239.317892 -190.876257 
L 244.435397 -188.153015 
L 249.552903 -185.220294 
L 254.670408 -182.078092 
L 259.787914 -178.726411 
L 264.905419 -175.165249 
L 270.022925 -171.394607 
L 275.14043 -167.414485 
L 280.257935 -163.224883 
L 285.375441 -159.244761 
L 290.492946 -155.47412 
L 295.610452 -151.912958 
L 300.727957 -148.561276 
L 305.845463 -145.419075 
L 310.962968 -142.486353 
L 316.080474 -139.763112 
L 321.197979 -137.249351 
L 326.315484 -134.94507 
L 331.43299 -132.850269 
L 336.550495 -130.964948 
L 341.668001 -129.289107 
L 346.785506 -127.822746 
L 351.903012 -126.565866 
L 357.020517 -125.518465 
L 362.138023 -124.680545 
L 367.255528 -124.052105 
L 372.373033 -123.633144 
L 377.490539 -123.423664 
L 382.608044 -123.423664 
L 387.72555 -123.423664 
L 392.843055 -123.423664 
L 397.960561 -123.423664 
L 403.078066 -123.423664 
L 408.195572 -123.423664 
L 413.313077 -123.423664 
L 418.430582 -123.423664 
L 423.548088 -123.423664 
L 428.665593 -123.423664 
L 433.783099 -123.423664 
L 433.783099 -123.865023 
L 433.783099 -123.865023 
L 428.665593 -123.865023 
L 423.548088 -123.865023 
L 418.430582 -123.865023 
L 413.313077 -123.865023 
L 408.195572 -123.865023 
L 403.078066 -123.865023 
L 397.960561 -123.865023 
L 392.843055 -123.865023 
L 387.72555 -123.865023 
L 382.608044 -123.865023 
L 377.490539 -123.865023 
L 372.373033 -124.074504 
L 367.255528 -124.493464 
L 362.138023 -125.121904 
L 357.020517 -125.959824 
L 351.903012 -127.007225 
L 346.785506 -128.264106 
L 341.668001 -129.730466 
L 336.550495 -131.406307 
L 331.43299 -133.291628 
L 326.315484 -135.386429 
L 321.197979 -137.69071 
L 316.080474 -140.204471 
L 310.962968 -142.927713 
L 305.845463 -145.860434 
L 300.727957 -149.002636 
L 295.610452 -152.354317 
L 290.492946 -155.915479 
L 285.375441 -159.686121 
L 280.257935 -163.666243 
L 275.14043 -167.855845 
L 270.022925 -171.835966 
L 264.905419 -175.606608 
L 259.787914 -179.16777 
L 254.670408 -182.519452 
L 249.552903 -185.661653 
L 244.435397 -188.594374 
L 239.317892 -191.317616 
L 234.200386 -193.831377 
L 229.082881 -196.135658 
L 223.965376 -198.230459 
L 218.84787 -200.11578 
L 213.730365 -201.791621 
L 208.612859 -203.257982 
L 203.495354 -204.514862 
L 198.377848 -205.562263 
L 193.260343 -206.400183 
L 188.142837 -207.028623 
L 183.025332 -207.447584 
L 177.907827 -207.657064 
L 172.790321 -207.657064 
L 167.672816 -207.657064 
L 162.55531 -207.657064 
L 157.437805 -207.657064 
L 152.320299 -207.657064 
L 147.202794 -207.657064 
L 142.085288 -207.657064 
L 136.967783 -207.657064 
L 131.850277 -207.657064 
L 126.732772 -207.657064 
L 121.615267 -207.657064 
z
" style="stroke: #d3db57; stroke-opacity: 0.65"/>
    </defs>
    <g clip-path="url(#p280288f62a)">
     <use xlink:href="#mcf7b893ee3" x="0" y="280.512" style="fill: #d3db57; fill-opacity: 0.65; stroke: #d3db57; stroke-opacity: 0.65"/>
    </g>
   </g>
   <g id="PolyCollection_23">
    <defs>
     <path id="m7180de99b8" d="M 121.615267 -213.615413 
L 121.615267 -207.657064 
L 126.732772 -207.657064 
L 131.850277 -207.657064 
L 136.967783 -207.657064 
L 142.085288 -207.657064 
L 147.202794 -207.657064 
L 152.320299 -207.657064 
L 157.437805 -207.657064 
L 162.55531 -207.657064 
L 167.672816 -207.657064 
L 172.790321 -207.657064 
L 177.907827 -207.657064 
L 183.025332 -207.650995 
L 188.142837 -207.638858 
L 193.260343 -207.620651 
L 198.377848 -207.596377 
L 203.495354 -207.566033 
L 208.612859 -207.529621 
L 213.730365 -207.48714 
L 218.84787 -207.438591 
L 223.965376 -207.383973 
L 229.082881 -207.323286 
L 234.200386 -207.25653 
L 239.317892 -207.183706 
L 244.435397 -207.104813 
L 249.552903 -207.019851 
L 254.670408 -206.928821 
L 259.787914 -206.831722 
L 264.905419 -206.728554 
L 270.022925 -206.619318 
L 275.14043 -206.504013 
L 280.257935 -206.382639 
L 285.375441 -206.267334 
L 290.492946 -206.158098 
L 295.610452 -206.05493 
L 300.727957 -205.957831 
L 305.845463 -205.8668 
L 310.962968 -205.781839 
L 316.080474 -205.702946 
L 321.197979 -205.630122 
L 326.315484 -205.563366 
L 331.43299 -205.502679 
L 336.550495 -205.448061 
L 341.668001 -205.399511 
L 346.785506 -205.357031 
L 351.903012 -205.320618 
L 357.020517 -205.290275 
L 362.138023 -205.266 
L 367.255528 -205.247794 
L 372.373033 -205.235657 
L 377.490539 -205.229588 
L 382.608044 -205.229588 
L 387.72555 -205.229588 
L 392.843055 -205.229588 
L 397.960561 -205.229588 
L 403.078066 -205.229588 
L 408.195572 -205.229588 
L 413.313077 -205.229588 
L 418.430582 -205.229588 
L 423.548088 -205.229588 
L 428.665593 -205.229588 
L 433.783099 -205.229588 
L 433.783099 -211.187937 
L 433.783099 -211.187937 
L 428.665593 -211.187937 
L 423.548088 -211.187937 
L 418.430582 -211.187937 
L 413.313077 -211.187937 
L 408.195572 -211.187937 
L 403.078066 -211.187937 
L 397.960561 -211.187937 
L 392.843055 -211.187937 
L 387.72555 -211.187937 
L 382.608044 -211.187937 
L 377.490539 -211.187937 
L 372.373033 -211.194006 
L 367.255528 -211.206143 
L 362.138023 -211.224349 
L 357.020517 -211.248624 
L 351.903012 -211.278967 
L 346.785506 -211.31538 
L 341.668001 -211.35786 
L 336.550495 -211.40641 
L 331.43299 -211.461028 
L 326.315484 -211.521715 
L 321.197979 -211.588471 
L 316.080474 -211.661295 
L 310.962968 -211.740188 
L 305.845463 -211.825149 
L 300.727957 -211.91618 
L 295.610452 -212.013279 
L 290.492946 -212.116446 
L 285.375441 -212.225683 
L 280.257935 -212.340988 
L 275.14043 -212.462362 
L 270.022925 -212.577667 
L 264.905419 -212.686903 
L 259.787914 -212.790071 
L 254.670408 -212.88717 
L 249.552903 -212.9782 
L 244.435397 -213.063162 
L 239.317892 -213.142055 
L 234.200386 -213.214879 
L 229.082881 -213.281635 
L 223.965376 -213.342322 
L 218.84787 -213.39694 
L 213.730365 -213.445489 
L 208.612859 -213.48797 
L 203.495354 -213.524382 
L 198.377848 -213.554726 
L 193.260343 -213.579 
L 188.142837 -213.597206 
L 183.025332 -213.609344 
L 177.907827 -213.615413 
L 172.790321 -213.615413 
L 167.672816 -213.615413 
L 162.55531 -213.615413 
L 157.437805 -213.615413 
L 152.320299 -213.615413 
L 147.202794 -213.615413 
L 142.085288 -213.615413 
L 136.967783 -213.615413 
L 131.850277 -213.615413 
L 126.732772 -213.615413 
L 121.615267 -213.615413 
z
" style="stroke: #d3db57; stroke-opacity: 0.65"/>
    </defs>
    <g clip-path="url(#p280288f62a)">
     <use xlink:href="#m7180de99b8" x="0" y="280.512" style="fill: #d3db57; fill-opacity: 0.65; stroke: #d3db57; stroke-opacity: 0.65"/>
    </g>
   </g>
   <g id="PolyCollection_24">
    <defs>
     <path id="me0d9c3d8c1" d="M 121.615267 -251.31852 
L 121.615267 -223.292213 
L 126.732772 -223.292213 
L 131.850277 -223.292213 
L 136.967783 -223.292213 
L 142.085288 -223.292213 
L 147.202794 -223.292213 
L 152.320299 -223.292213 
L 157.437805 -223.292213 
L 162.55531 -223.292213 
L 167.672816 -223.292213 
L 172.790321 -223.292213 
L 177.907827 -223.292213 
L 183.025332 -223.286144 
L 188.142837 -223.274006 
L 193.260343 -223.2558 
L 198.377848 -223.231526 
L 203.495354 -223.201182 
L 208.612859 -223.16477 
L 213.730365 -223.122289 
L 218.84787 -223.07374 
L 223.965376 -223.019122 
L 229.082881 -222.958435 
L 234.200386 -222.891679 
L 239.317892 -222.818855 
L 244.435397 -222.739962 
L 249.552903 -222.655 
L 254.670408 -222.56397 
L 259.787914 -222.466871 
L 264.905419 -222.363703 
L 270.022925 -222.254467 
L 275.14043 -222.139162 
L 280.257935 -222.017788 
L 285.375441 -221.902483 
L 290.492946 -221.793246 
L 295.610452 -221.690079 
L 300.727957 -221.59298 
L 305.845463 -221.501949 
L 310.962968 -221.416988 
L 316.080474 -221.338095 
L 321.197979 -221.265271 
L 326.315484 -221.198515 
L 331.43299 -221.137828 
L 336.550495 -221.08321 
L 341.668001 -221.03466 
L 346.785506 -220.99218 
L 351.903012 -220.955767 
L 357.020517 -220.925424 
L 362.138023 -220.901149 
L 367.255528 -220.882943 
L 372.373033 -220.870806 
L 377.490539 -220.864737 
L 382.608044 -220.864737 
L 387.72555 -220.864737 
L 392.843055 -220.864737 
L 397.960561 -220.864737 
L 403.078066 -220.864737 
L 408.195572 -220.864737 
L 413.313077 -220.864737 
L 418.430582 -220.864737 
L 423.548088 -220.864737 
L 428.665593 -220.864737 
L 433.783099 -220.864737 
L 433.783099 -248.891045 
L 433.783099 -248.891045 
L 428.665593 -248.891045 
L 423.548088 -248.891045 
L 418.430582 -248.891045 
L 413.313077 -248.891045 
L 408.195572 -248.891045 
L 403.078066 -248.891045 
L 397.960561 -248.891045 
L 392.843055 -248.891045 
L 387.72555 -248.891045 
L 382.608044 -248.891045 
L 377.490539 -248.891045 
L 372.373033 -248.897114 
L 367.255528 -248.909251 
L 362.138023 -248.927457 
L 357.020517 -248.951732 
L 351.903012 -248.982075 
L 346.785506 -249.018487 
L 341.668001 -249.060968 
L 336.550495 -249.109518 
L 331.43299 -249.164136 
L 326.315484 -249.224823 
L 321.197979 -249.291578 
L 316.080474 -249.364403 
L 310.962968 -249.443296 
L 305.845463 -249.528257 
L 300.727957 -249.619288 
L 295.610452 -249.716387 
L 290.492946 -249.819554 
L 285.375441 -249.928791 
L 280.257935 -250.044096 
L 275.14043 -250.16547 
L 270.022925 -250.280775 
L 264.905419 -250.390011 
L 259.787914 -250.493179 
L 254.670408 -250.590278 
L 249.552903 -250.681308 
L 244.435397 -250.76627 
L 239.317892 -250.845163 
L 234.200386 -250.917987 
L 229.082881 -250.984743 
L 223.965376 -251.045429 
L 218.84787 -251.100048 
L 213.730365 -251.148597 
L 208.612859 -251.191078 
L 203.495354 -251.22749 
L 198.377848 -251.257834 
L 193.260343 -251.282108 
L 188.142837 -251.300314 
L 183.025332 -251.312452 
L 177.907827 -251.31852 
L 172.790321 -251.31852 
L 167.672816 -251.31852 
L 162.55531 -251.31852 
L 157.437805 -251.31852 
L 152.320299 -251.31852 
L 147.202794 -251.31852 
L 142.085288 -251.31852 
L 136.967783 -251.31852 
L 131.850277 -251.31852 
L 126.732772 -251.31852 
L 121.615267 -251.31852 
z
" style="stroke: #57d3db; stroke-opacity: 0.65"/>
    </defs>
    <g clip-path="url(#p280288f62a)">
     <use xlink:href="#me0d9c3d8c1" x="0" y="280.512" style="fill: #57d3db; fill-opacity: 0.65; stroke: #57d3db; stroke-opacity: 0.65"/>
    </g>
   </g>
   <g id="PolyCollection_25">
    <defs>
     <path id="m4ab0667a55" d="M 121.615267 -251.5392 
L 121.615267 -251.31852 
L 126.732772 -251.31852 
L 131.850277 -251.31852 
L 136.967783 -251.31852 
L 142.085288 -251.31852 
L 147.202794 -251.31852 
L 152.320299 -251.31852 
L 157.437805 -251.31852 
L 162.55531 -251.31852 
L 167.672816 -251.31852 
L 172.790321 -251.31852 
L 177.907827 -251.31852 
L 183.025332 -251.342712 
L 188.142837 -251.391096 
L 193.260343 -251.463672 
L 198.377848 -251.56044 
L 203.495354 -251.6814 
L 208.612859 -251.826552 
L 213.730365 -251.995896 
L 218.84787 -252.189432 
L 223.965376 -252.40716 
L 229.082881 -252.64908 
L 234.200386 -252.915192 
L 239.317892 -253.205496 
L 244.435397 -253.519992 
L 249.552903 -253.85868 
L 254.670408 -254.22156 
L 259.787914 -254.608632 
L 264.905419 -255.019896 
L 270.022925 -255.455352 
L 275.14043 -255.915 
L 280.257935 -256.39884 
L 285.375441 -256.858488 
L 290.492946 -257.293944 
L 295.610452 -257.705208 
L 300.727957 -258.09228 
L 305.845463 -258.45516 
L 310.962968 -258.793848 
L 316.080474 -259.108344 
L 321.197979 -259.398648 
L 326.315484 -259.66476 
L 331.43299 -259.90668 
L 336.550495 -260.124408 
L 341.668001 -260.317944 
L 346.785506 -260.487288 
L 351.903012 -260.63244 
L 357.020517 -260.7534 
L 362.138023 -260.850168 
L 367.255528 -260.922744 
L 372.373033 -260.971128 
L 377.490539 -260.99532 
L 382.608044 -260.99532 
L 387.72555 -260.99532 
L 392.843055 -260.99532 
L 397.960561 -260.99532 
L 403.078066 -260.99532 
L 408.195572 -260.99532 
L 413.313077 -260.99532 
L 418.430582 -260.99532 
L 423.548088 -260.99532 
L 428.665593 -260.99532 
L 433.783099 -260.99532 
L 433.783099 -261.216 
L 433.783099 -261.216 
L 428.665593 -261.216 
L 423.548088 -261.216 
L 418.430582 -261.216 
L 413.313077 -261.216 
L 408.195572 -261.216 
L 403.078066 -261.216 
L 397.960561 -261.216 
L 392.843055 -261.216 
L 387.72555 -261.216 
L 382.608044 -261.216 
L 377.490539 -261.216 
L 372.373033 -261.191808 
L 367.255528 -261.143424 
L 362.138023 -261.070848 
L 357.020517 -260.97408 
L 351.903012 -260.85312 
L 346.785506 -260.707968 
L 341.668001 -260.538624 
L 336.550495 -260.345088 
L 331.43299 -260.12736 
L 326.315484 -259.88544 
L 321.197979 -259.619328 
L 316.080474 -259.329024 
L 310.962968 -259.014528 
L 305.845463 -258.67584 
L 300.727957 -258.31296 
L 295.610452 -257.925888 
L 290.492946 -257.514624 
L 285.375441 -257.079168 
L 280.257935 -256.61952 
L 275.14043 -256.13568 
L 270.022925 -255.676032 
L 264.905419 -255.240576 
L 259.787914 -254.829312 
L 254.670408 -254.44224 
L 249.552903 -254.07936 
L 244.435397 -253.740672 
L 239.317892 -253.426176 
L 234.200386 -253.135872 
L 229.082881 -252.86976 
L 223.965376 -252.62784 
L 218.84787 -252.410112 
L 213.730365 -252.216576 
L 208.612859 -252.047232 
L 203.495354 -251.90208 
L 198.377848 -251.78112 
L 193.260343 -251.684352 
L 188.142837 -251.611776 
L 183.025332 -251.563392 
L 177.907827 -251.5392 
L 172.790321 -251.5392 
L 167.672816 -251.5392 
L 162.55531 -251.5392 
L 157.437805 -251.5392 
L 152.320299 -251.5392 
L 147.202794 -251.5392 
L 142.085288 -251.5392 
L 136.967783 -251.5392 
L 131.850277 -251.5392 
L 126.732772 -251.5392 
L 121.615267 -251.5392 
z
" style="stroke: #57d3db; stroke-opacity: 0.65"/>
    </defs>
    <g clip-path="url(#p280288f62a)">
     <use xlink:href="#m4ab0667a55" x="0" y="280.512" style="fill: #57d3db; fill-opacity: 0.65; stroke: #57d3db; stroke-opacity: 0.65"/>
    </g>
   </g>
   <g id="text_1">
    <!-- Astrocytes -->
    <g transform="translate(52.2375 223.922655) scale(0.12 -0.12)">
     <defs>
      <path id="TimesNewRomanPS-BoldMT-41" d="M 2663 1206 
L 1166 1206 
L 988 794 
Q 900 588 900 453 
Q 900 275 1044 191 
Q 1128 141 1459 116 
L 1459 0 
L 50 0 
L 50 116 
Q 278 150 425 304 
Q 572 459 788 944 
L 2303 4325 
L 2363 4325 
L 3891 850 
Q 4109 356 4250 228 
Q 4356 131 4550 116 
L 4550 0 
L 2500 0 
L 2500 116 
L 2584 116 
Q 2831 116 2931 184 
Q 3000 234 3000 328 
Q 3000 384 2981 444 
Q 2975 472 2888 678 
L 2663 1206 
z
M 2556 1438 
L 1925 2897 
L 1275 1438 
L 2556 1438 
z
" transform="scale(0.015625)"/>
      <path id="TimesNewRomanPS-BoldMT-73" d="M 2063 3003 
L 2109 2006 
L 2003 2006 
Q 1813 2450 1608 2612 
Q 1403 2775 1200 2775 
Q 1072 2775 981 2689 
Q 891 2603 891 2491 
Q 891 2406 953 2328 
Q 1053 2200 1512 1889 
Q 1972 1578 2117 1361 
Q 2263 1144 2263 875 
Q 2263 631 2141 397 
Q 2019 163 1797 37 
Q 1575 -88 1306 -88 
Q 1097 -88 747 44 
Q 653 78 619 78 
Q 516 78 447 -78 
L 344 -78 
L 294 972 
L 400 972 
Q 541 559 786 353 
Q 1031 147 1250 147 
Q 1400 147 1495 239 
Q 1591 331 1591 463 
Q 1591 613 1497 722 
Q 1403 831 1078 1053 
Q 600 1384 459 1559 
Q 253 1816 253 2125 
Q 253 2463 486 2736 
Q 719 3009 1159 3009 
Q 1397 3009 1619 2894 
Q 1703 2847 1756 2847 
Q 1813 2847 1847 2870 
Q 1881 2894 1956 3003 
L 2063 3003 
z
" transform="scale(0.015625)"/>
      <path id="TimesNewRomanPS-BoldMT-74" d="M 1375 3991 
L 1375 2922 
L 2069 2922 
L 2069 2613 
L 1375 2613 
L 1375 809 
Q 1375 556 1398 482 
Q 1422 409 1481 364 
Q 1541 319 1591 319 
Q 1794 319 1975 628 
L 2069 559 
Q 1816 -41 1247 -41 
Q 969 -41 776 114 
Q 584 269 531 459 
Q 500 566 500 1034 
L 500 2613 
L 119 2613 
L 119 2722 
Q 513 3000 789 3306 
Q 1066 3613 1272 3991 
L 1375 3991 
z
" transform="scale(0.015625)"/>
      <path id="TimesNewRomanPS-BoldMT-72" d="M 1428 2922 
L 1428 2259 
Q 1719 2713 1937 2861 
Q 2156 3009 2359 3009 
Q 2534 3009 2639 2901 
Q 2744 2794 2744 2597 
Q 2744 2388 2642 2272 
Q 2541 2156 2397 2156 
Q 2231 2156 2109 2262 
Q 1988 2369 1966 2381 
Q 1934 2400 1894 2400 
Q 1803 2400 1722 2331 
Q 1594 2225 1528 2028 
Q 1428 1725 1428 1359 
L 1428 688 
L 1431 513 
Q 1431 334 1453 284 
Q 1491 200 1564 161 
Q 1638 122 1813 113 
L 1813 0 
L 234 0 
L 234 113 
Q 425 128 492 217 
Q 559 306 559 688 
L 559 2303 
Q 559 2553 534 2622 
Q 503 2709 443 2750 
Q 384 2791 234 2806 
L 234 2922 
L 1428 2922 
z
" transform="scale(0.015625)"/>
      <path id="TimesNewRomanPS-BoldMT-6f" d="M 1594 3009 
Q 1975 3009 2303 2812 
Q 2631 2616 2801 2253 
Q 2972 1891 2972 1459 
Q 2972 838 2656 419 
Q 2275 -88 1603 -88 
Q 944 -88 587 375 
Q 231 838 231 1447 
Q 231 2075 595 2542 
Q 959 3009 1594 3009 
z
M 1606 2788 
Q 1447 2788 1333 2667 
Q 1219 2547 1183 2192 
Q 1147 1838 1147 1206 
Q 1147 872 1191 581 
Q 1225 359 1337 243 
Q 1450 128 1594 128 
Q 1734 128 1828 206 
Q 1950 313 1991 503 
Q 2053 800 2053 1703 
Q 2053 2234 1993 2432 
Q 1934 2631 1819 2722 
Q 1738 2788 1606 2788 
z
" transform="scale(0.015625)"/>
      <path id="TimesNewRomanPS-BoldMT-63" d="M 2600 753 
L 2697 678 
Q 2491 291 2183 101 
Q 1875 -88 1528 -88 
Q 944 -88 594 353 
Q 244 794 244 1413 
Q 244 2009 563 2463 
Q 947 3009 1622 3009 
Q 2075 3009 2342 2781 
Q 2609 2553 2609 2272 
Q 2609 2094 2501 1987 
Q 2394 1881 2219 1881 
Q 2034 1881 1914 2003 
Q 1794 2125 1766 2438 
Q 1747 2634 1675 2713 
Q 1603 2791 1506 2791 
Q 1356 2791 1250 2631 
Q 1088 2391 1088 1894 
Q 1088 1481 1219 1104 
Q 1350 728 1578 544 
Q 1750 409 1984 409 
Q 2138 409 2275 481 
Q 2413 553 2600 753 
z
" transform="scale(0.015625)"/>
      <path id="TimesNewRomanPS-BoldMT-79" d="M 1556 -119 
L 613 2047 
Q 400 2538 298 2650 
Q 197 2763 53 2806 
L 53 2922 
L 1606 2922 
L 1606 2806 
Q 1453 2800 1390 2747 
Q 1328 2694 1328 2619 
Q 1328 2500 1484 2150 
L 1984 1006 
L 2325 1891 
Q 2509 2363 2509 2547 
Q 2509 2663 2432 2731 
Q 2356 2800 2163 2806 
L 2163 2922 
L 3141 2922 
L 3141 2806 
Q 2997 2791 2906 2695 
Q 2816 2600 2603 2047 
L 1769 -119 
Q 1453 -931 1300 -1119 
Q 1084 -1381 759 -1381 
Q 500 -1381 339 -1232 
Q 178 -1084 178 -875 
Q 178 -694 289 -575 
Q 400 -456 563 -456 
Q 719 -456 814 -556 
Q 909 -656 913 -866 
Q 916 -984 941 -1019 
Q 966 -1053 1013 -1053 
Q 1088 -1053 1172 -963 
Q 1297 -831 1466 -363 
L 1556 -119 
z
" transform="scale(0.015625)"/>
      <path id="TimesNewRomanPS-BoldMT-65" d="M 2691 1566 
L 1088 1566 
Q 1116 984 1397 647 
Q 1613 388 1916 388 
Q 2103 388 2256 492 
Q 2409 597 2584 869 
L 2691 800 
Q 2453 316 2165 114 
Q 1878 -88 1500 -88 
Q 850 -88 516 413 
Q 247 816 247 1413 
Q 247 2144 642 2576 
Q 1038 3009 1569 3009 
Q 2013 3009 2339 2645 
Q 2666 2281 2691 1566 
z
M 1922 1775 
Q 1922 2278 1867 2465 
Q 1813 2653 1697 2750 
Q 1631 2806 1522 2806 
Q 1359 2806 1256 2647 
Q 1072 2369 1072 1884 
L 1072 1775 
L 1922 1775 
z
" transform="scale(0.015625)"/>
     </defs>
     <use xlink:href="#TimesNewRomanPS-BoldMT-41"/>
     <use xlink:href="#TimesNewRomanPS-BoldMT-73" x="72.216797"/>
     <use xlink:href="#TimesNewRomanPS-BoldMT-74" x="111.132812"/>
     <use xlink:href="#TimesNewRomanPS-BoldMT-72" x="144.433594"/>
     <use xlink:href="#TimesNewRomanPS-BoldMT-6f" x="187.068359"/>
     <use xlink:href="#TimesNewRomanPS-BoldMT-63" x="237.068359"/>
     <use xlink:href="#TimesNewRomanPS-BoldMT-79" x="281.453125"/>
     <use xlink:href="#TimesNewRomanPS-BoldMT-74" x="331.453125"/>
     <use xlink:href="#TimesNewRomanPS-BoldMT-65" x="364.753906"/>
     <use xlink:href="#TimesNewRomanPS-BoldMT-73" x="409.138672"/>
    </g>
   </g>
   <g id="text_2">
    <!-- Endothelial Cells -->
    <g transform="translate(18.328125 165.736372) scale(0.12 -0.12)">
     <defs>
      <path id="TimesNewRomanPS-BoldMT-45" d="M 1744 3994 
L 1744 2269 
L 1828 2269 
Q 2231 2269 2412 2522 
Q 2594 2775 2644 3269 
L 2763 3269 
L 2763 1050 
L 2644 1050 
Q 2606 1413 2486 1644 
Q 2366 1875 2206 1954 
Q 2047 2034 1744 2034 
L 1744 841 
Q 1744 491 1773 412 
Q 1803 334 1884 284 
Q 1966 234 2147 234 
L 2400 234 
Q 2994 234 3351 509 
Q 3709 784 3866 1347 
L 3981 1347 
L 3791 0 
L 128 0 
L 128 116 
L 269 116 
Q 453 116 566 181 
Q 647 225 691 331 
Q 725 406 725 725 
L 725 3513 
Q 725 3800 709 3866 
Q 678 3975 594 4034 
Q 475 4122 269 4122 
L 128 4122 
L 128 4238 
L 3675 4238 
L 3675 2984 
L 3556 2984 
Q 3466 3444 3302 3644 
Q 3138 3844 2838 3938 
Q 2663 3994 2181 3994 
L 1744 3994 
z
" transform="scale(0.015625)"/>
      <path id="TimesNewRomanPS-BoldMT-6e" d="M 1409 2922 
L 1409 2544 
Q 1634 2788 1840 2898 
Q 2047 3009 2284 3009 
Q 2569 3009 2756 2851 
Q 2944 2694 3006 2459 
Q 3056 2281 3056 1775 
L 3056 638 
Q 3056 300 3117 217 
Q 3178 134 3372 113 
L 3372 0 
L 1894 0 
L 1894 113 
Q 2059 134 2131 250 
Q 2181 328 2181 638 
L 2181 1938 
Q 2181 2297 2153 2390 
Q 2125 2484 2058 2536 
Q 1991 2588 1909 2588 
Q 1641 2588 1409 2203 
L 1409 638 
Q 1409 309 1470 221 
Q 1531 134 1697 113 
L 1697 0 
L 219 0 
L 219 113 
Q 403 131 481 231 
Q 534 300 534 638 
L 534 2288 
Q 534 2619 473 2700 
Q 413 2781 219 2806 
L 219 2922 
L 1409 2922 
z
" transform="scale(0.015625)"/>
      <path id="TimesNewRomanPS-BoldMT-64" d="M 3056 4238 
L 3056 875 
Q 3056 534 3075 472 
Q 3100 369 3170 319 
Q 3241 269 3416 256 
L 3416 153 
L 2181 -88 
L 2181 375 
Q 1959 106 1786 9 
Q 1613 -88 1394 -88 
Q 834 -88 509 413 
Q 247 819 247 1409 
Q 247 1881 409 2254 
Q 572 2628 855 2818 
Q 1138 3009 1463 3009 
Q 1672 3009 1834 2928 
Q 1997 2847 2181 2644 
L 2181 3525 
Q 2181 3859 2153 3928 
Q 2116 4019 2041 4062 
Q 1966 4106 1759 4106 
L 1759 4238 
L 3056 4238 
z
M 2181 2256 
Q 1950 2700 1616 2700 
Q 1500 2700 1425 2638 
Q 1309 2541 1236 2297 
Q 1163 2053 1163 1550 
Q 1163 997 1244 731 
Q 1325 466 1466 347 
Q 1538 288 1663 288 
Q 1938 288 2181 719 
L 2181 2256 
z
" transform="scale(0.015625)"/>
      <path id="TimesNewRomanPS-BoldMT-68" d="M 1409 4238 
L 1409 2547 
Q 1650 2800 1850 2904 
Q 2050 3009 2266 3009 
Q 2541 3009 2736 2853 
Q 2931 2697 2995 2486 
Q 3059 2275 3059 1775 
L 3059 634 
Q 3059 300 3121 217 
Q 3184 134 3375 113 
L 3375 0 
L 1894 0 
L 1894 113 
Q 2050 134 2128 238 
Q 2184 319 2184 634 
L 2184 1938 
Q 2184 2300 2156 2392 
Q 2128 2484 2061 2536 
Q 1994 2588 1909 2588 
Q 1784 2588 1665 2502 
Q 1547 2416 1409 2200 
L 1409 634 
Q 1409 322 1456 244 
Q 1516 138 1700 113 
L 1700 0 
L 219 0 
L 219 113 
Q 403 131 481 231 
Q 534 300 534 634 
L 534 3603 
Q 534 3934 473 4015 
Q 413 4097 219 4122 
L 219 4238 
L 1409 4238 
z
" transform="scale(0.015625)"/>
      <path id="TimesNewRomanPS-BoldMT-6c" d="M 1359 4238 
L 1359 606 
Q 1359 297 1431 211 
Q 1503 125 1713 113 
L 1713 0 
L 134 0 
L 134 113 
Q 328 119 422 225 
Q 484 297 484 606 
L 484 3631 
Q 484 3938 412 4023 
Q 341 4109 134 4122 
L 134 4238 
L 1359 4238 
z
" transform="scale(0.015625)"/>
      <path id="TimesNewRomanPS-BoldMT-69" d="M 919 4338 
Q 1122 4338 1262 4195 
Q 1403 4053 1403 3853 
Q 1403 3653 1261 3512 
Q 1119 3372 919 3372 
Q 719 3372 578 3512 
Q 438 3653 438 3853 
Q 438 4053 578 4195 
Q 719 4338 919 4338 
z
M 1356 2922 
L 1356 606 
Q 1356 297 1428 211 
Q 1500 125 1709 113 
L 1709 0 
L 131 0 
L 131 113 
Q 325 119 419 225 
Q 481 297 481 606 
L 481 2313 
Q 481 2622 409 2708 
Q 338 2794 131 2806 
L 131 2922 
L 1356 2922 
z
" transform="scale(0.015625)"/>
      <path id="TimesNewRomanPS-BoldMT-61" d="M 1828 431 
Q 1294 -41 869 -41 
Q 619 -41 453 123 
Q 288 288 288 534 
Q 288 869 575 1136 
Q 863 1403 1828 1847 
L 1828 2141 
Q 1828 2472 1792 2558 
Q 1756 2644 1656 2708 
Q 1556 2772 1431 2772 
Q 1228 2772 1097 2681 
Q 1016 2625 1016 2550 
Q 1016 2484 1103 2388 
Q 1222 2253 1222 2128 
Q 1222 1975 1108 1867 
Q 994 1759 809 1759 
Q 613 1759 480 1878 
Q 347 1997 347 2156 
Q 347 2381 525 2586 
Q 703 2791 1022 2900 
Q 1341 3009 1684 3009 
Q 2100 3009 2342 2832 
Q 2584 2656 2656 2450 
Q 2700 2319 2700 1847 
L 2700 713 
Q 2700 513 2715 461 
Q 2731 409 2762 384 
Q 2794 359 2834 359 
Q 2916 359 3000 475 
L 3094 400 
Q 2938 169 2770 64 
Q 2603 -41 2391 -41 
Q 2141 -41 2000 76 
Q 1859 194 1828 431 
z
M 1828 659 
L 1828 1638 
Q 1450 1416 1266 1163 
Q 1144 994 1144 822 
Q 1144 678 1247 569 
Q 1325 484 1466 484 
Q 1622 484 1828 659 
z
" transform="scale(0.015625)"/>
      <path id="TimesNewRomanPS-BoldMT-20" transform="scale(0.015625)"/>
      <path id="TimesNewRomanPS-BoldMT-43" d="M 4272 4334 
L 4272 2866 
L 4150 2866 
Q 4013 3441 3638 3747 
Q 3263 4053 2788 4053 
Q 2391 4053 2059 3825 
Q 1728 3597 1575 3228 
Q 1378 2756 1378 2178 
Q 1378 1609 1522 1142 
Q 1666 675 1972 436 
Q 2278 197 2766 197 
Q 3166 197 3498 372 
Q 3831 547 4200 975 
L 4200 609 
Q 3844 238 3458 70 
Q 3072 -97 2556 -97 
Q 1878 -97 1351 175 
Q 825 447 539 956 
Q 253 1466 253 2041 
Q 253 2647 570 3190 
Q 888 3734 1427 4034 
Q 1966 4334 2572 4334 
Q 3019 4334 3516 4141 
Q 3803 4028 3881 4028 
Q 3981 4028 4054 4101 
Q 4128 4175 4150 4334 
L 4272 4334 
z
" transform="scale(0.015625)"/>
     </defs>
     <use xlink:href="#TimesNewRomanPS-BoldMT-45"/>
     <use xlink:href="#TimesNewRomanPS-BoldMT-6e" x="66.699219"/>
     <use xlink:href="#TimesNewRomanPS-BoldMT-64" x="122.314453"/>
     <use xlink:href="#TimesNewRomanPS-BoldMT-6f" x="177.929688"/>
     <use xlink:href="#TimesNewRomanPS-BoldMT-74" x="227.929688"/>
     <use xlink:href="#TimesNewRomanPS-BoldMT-68" x="261.230469"/>
     <use xlink:href="#TimesNewRomanPS-BoldMT-65" x="316.845703"/>
     <use xlink:href="#TimesNewRomanPS-BoldMT-6c" x="361.230469"/>
     <use xlink:href="#TimesNewRomanPS-BoldMT-69" x="389.013672"/>
     <use xlink:href="#TimesNewRomanPS-BoldMT-61" x="416.796875"/>
     <use xlink:href="#TimesNewRomanPS-BoldMT-6c" x="466.796875"/>
     <use xlink:href="#TimesNewRomanPS-BoldMT-20" x="494.580078"/>
     <use xlink:href="#TimesNewRomanPS-BoldMT-43" x="519.580078"/>
     <use xlink:href="#TimesNewRomanPS-BoldMT-65" x="591.796875"/>
     <use xlink:href="#TimesNewRomanPS-BoldMT-6c" x="636.181641"/>
     <use xlink:href="#TimesNewRomanPS-BoldMT-6c" x="663.964844"/>
     <use xlink:href="#TimesNewRomanPS-BoldMT-73" x="691.748047"/>
    </g>
   </g>
   <g id="text_3">
    <!-- Inhibitory Neurons -->
    <g transform="translate(7.2 116.750765) scale(0.12 -0.12)">
     <defs>
      <path id="TimesNewRomanPS-BoldMT-49" d="M 2344 116 
L 2344 0 
L 128 0 
L 128 116 
L 269 116 
Q 453 116 566 181 
Q 647 225 691 331 
Q 725 406 725 725 
L 725 3513 
Q 725 3838 690 3919 
Q 656 4000 551 4061 
Q 447 4122 269 4122 
L 128 4122 
L 128 4238 
L 2344 4238 
L 2344 4122 
L 2203 4122 
Q 2019 4122 1906 4056 
Q 1825 4013 1778 3906 
Q 1744 3831 1744 3513 
L 1744 725 
Q 1744 400 1780 319 
Q 1816 238 1920 177 
Q 2025 116 2203 116 
L 2344 116 
z
" transform="scale(0.015625)"/>
      <path id="TimesNewRomanPS-BoldMT-62" d="M 1347 4238 
L 1347 2628 
Q 1716 3009 2153 3009 
Q 2453 3009 2718 2832 
Q 2984 2656 3134 2331 
Q 3284 2006 3284 1581 
Q 3284 1103 3093 712 
Q 2903 322 2584 117 
Q 2266 -88 1856 -88 
Q 1619 -88 1434 -12 
Q 1250 63 1072 231 
L 588 -84 
L 481 -84 
L 481 3631 
Q 481 3884 459 3944 
Q 428 4031 361 4073 
Q 294 4116 134 4122 
L 134 4238 
L 1347 4238 
z
M 1347 2350 
L 1347 1050 
Q 1347 653 1366 544 
Q 1397 359 1515 245 
Q 1634 131 1819 131 
Q 1978 131 2092 222 
Q 2206 313 2282 581 
Q 2359 850 2359 1550 
Q 2359 2222 2191 2472 
Q 2069 2653 1863 2653 
Q 1594 2653 1347 2350 
z
" transform="scale(0.015625)"/>
      <path id="TimesNewRomanPS-BoldMT-4e" d="M 1594 4238 
L 3684 1609 
L 3684 3431 
Q 3684 3813 3575 3947 
Q 3425 4128 3072 4122 
L 3072 4238 
L 4472 4238 
L 4472 4122 
Q 4203 4088 4111 4033 
Q 4019 3978 3967 3854 
Q 3916 3731 3916 3431 
L 3916 -97 
L 3809 -97 
L 944 3431 
L 944 738 
Q 944 372 1111 244 
Q 1278 116 1494 116 
L 1594 116 
L 1594 0 
L 91 0 
L 91 116 
Q 441 119 578 259 
Q 716 400 716 738 
L 716 3728 
L 625 3841 
Q 491 4009 387 4062 
Q 284 4116 91 4122 
L 91 4238 
L 1594 4238 
z
" transform="scale(0.015625)"/>
      <path id="TimesNewRomanPS-BoldMT-75" d="M 3038 2922 
L 3038 634 
Q 3038 300 3100 217 
Q 3163 134 3353 113 
L 3353 0 
L 2163 0 
L 2163 391 
Q 1953 141 1743 26 
Q 1534 -88 1275 -88 
Q 1028 -88 836 64 
Q 644 216 578 419 
Q 513 622 513 1128 
L 513 2288 
Q 513 2619 452 2700 
Q 391 2781 197 2806 
L 197 2922 
L 1388 2922 
L 1388 925 
Q 1388 613 1417 522 
Q 1447 431 1511 384 
Q 1575 338 1659 338 
Q 1772 338 1863 397 
Q 1988 478 2163 725 
L 2163 2288 
Q 2163 2619 2102 2700 
Q 2041 2781 1847 2806 
L 1847 2922 
L 3038 2922 
z
" transform="scale(0.015625)"/>
     </defs>
     <use xlink:href="#TimesNewRomanPS-BoldMT-49"/>
     <use xlink:href="#TimesNewRomanPS-BoldMT-6e" x="38.916016"/>
     <use xlink:href="#TimesNewRomanPS-BoldMT-68" x="94.53125"/>
     <use xlink:href="#TimesNewRomanPS-BoldMT-69" x="150.146484"/>
     <use xlink:href="#TimesNewRomanPS-BoldMT-62" x="177.929688"/>
     <use xlink:href="#TimesNewRomanPS-BoldMT-69" x="233.544922"/>
     <use xlink:href="#TimesNewRomanPS-BoldMT-74" x="261.328125"/>
     <use xlink:href="#TimesNewRomanPS-BoldMT-6f" x="294.628906"/>
     <use xlink:href="#TimesNewRomanPS-BoldMT-72" x="344.628906"/>
     <use xlink:href="#TimesNewRomanPS-BoldMT-79" x="389.013672"/>
     <use xlink:href="#TimesNewRomanPS-BoldMT-20" x="439.013672"/>
     <use xlink:href="#TimesNewRomanPS-BoldMT-4e" x="464.013672"/>
     <use xlink:href="#TimesNewRomanPS-BoldMT-65" x="536.230469"/>
     <use xlink:href="#TimesNewRomanPS-BoldMT-75" x="580.615234"/>
     <use xlink:href="#TimesNewRomanPS-BoldMT-72" x="636.230469"/>
     <use xlink:href="#TimesNewRomanPS-BoldMT-6f" x="678.865234"/>
     <use xlink:href="#TimesNewRomanPS-BoldMT-6e" x="728.865234"/>
     <use xlink:href="#TimesNewRomanPS-BoldMT-73" x="784.480469"/>
    </g>
   </g>
   <g id="text_4">
    <!-- Microglia -->
    <g transform="translate(56.235 72.868629) scale(0.12 -0.12)">
     <defs>
      <path id="TimesNewRomanPS-BoldMT-4d" d="M 3050 1444 
L 4200 4238 
L 5925 4238 
L 5925 4122 
L 5788 4122 
Q 5600 4122 5488 4056 
Q 5409 4013 5363 3909 
Q 5328 3834 5328 3519 
L 5328 725 
Q 5328 400 5362 319 
Q 5397 238 5503 177 
Q 5609 116 5788 116 
L 5925 116 
L 5925 0 
L 3713 0 
L 3713 116 
L 3850 116 
Q 4038 116 4150 181 
Q 4228 225 4275 331 
Q 4309 406 4309 725 
L 4309 3866 
L 2684 0 
L 2609 0 
L 959 3838 
L 959 853 
Q 959 541 975 469 
Q 1016 313 1152 214 
Q 1288 116 1578 116 
L 1578 0 
L 128 0 
L 128 116 
L 172 116 
Q 313 113 434 161 
Q 556 209 618 290 
Q 681 372 716 519 
Q 722 553 722 838 
L 722 3519 
Q 722 3841 687 3920 
Q 653 4000 547 4061 
Q 441 4122 263 4122 
L 128 4122 
L 128 4238 
L 1859 4238 
L 3050 1444 
z
" transform="scale(0.015625)"/>
      <path id="TimesNewRomanPS-BoldMT-67" d="M 2091 2888 
L 3075 2888 
L 3075 2544 
L 2516 2544 
Q 2669 2391 2728 2266 
Q 2803 2097 2803 1913 
Q 2803 1600 2629 1370 
Q 2456 1141 2157 1011 
Q 1859 881 1628 881 
Q 1609 881 1253 897 
Q 1113 897 1017 805 
Q 922 713 922 584 
Q 922 472 1008 400 
Q 1094 328 1288 328 
L 1828 334 
Q 2484 334 2731 191 
Q 3084 -9 3084 -425 
Q 3084 -691 2921 -908 
Q 2759 -1125 2494 -1228 
Q 2091 -1381 1566 -1381 
Q 1172 -1381 847 -1304 
Q 522 -1228 381 -1092 
Q 241 -956 241 -806 
Q 241 -663 348 -548 
Q 456 -434 750 -356 
Q 344 -156 344 200 
Q 344 416 509 619 
Q 675 822 1034 972 
Q 616 1125 428 1375 
Q 241 1625 241 1953 
Q 241 2381 591 2695 
Q 941 3009 1491 3009 
Q 1781 3009 2091 2888 
z
M 1550 2816 
Q 1369 2816 1244 2633 
Q 1119 2450 1119 1875 
Q 1119 1409 1242 1236 
Q 1366 1063 1534 1063 
Q 1722 1063 1847 1234 
Q 1972 1406 1972 1903 
Q 1972 2463 1831 2666 
Q 1731 2816 1550 2816 
z
M 1366 -431 
Q 1047 -431 944 -484 
Q 766 -581 766 -747 
Q 766 -906 950 -1036 
Q 1134 -1166 1644 -1166 
Q 2078 -1166 2326 -1050 
Q 2575 -934 2575 -725 
Q 2575 -647 2528 -594 
Q 2444 -500 2273 -465 
Q 2103 -431 1366 -431 
z
" transform="scale(0.015625)"/>
     </defs>
     <use xlink:href="#TimesNewRomanPS-BoldMT-4d"/>
     <use xlink:href="#TimesNewRomanPS-BoldMT-69" x="94.384766"/>
     <use xlink:href="#TimesNewRomanPS-BoldMT-63" x="122.167969"/>
     <use xlink:href="#TimesNewRomanPS-BoldMT-72" x="166.552734"/>
     <use xlink:href="#TimesNewRomanPS-BoldMT-6f" x="209.1875"/>
     <use xlink:href="#TimesNewRomanPS-BoldMT-67" x="259.1875"/>
     <use xlink:href="#TimesNewRomanPS-BoldMT-6c" x="309.1875"/>
     <use xlink:href="#TimesNewRomanPS-BoldMT-69" x="336.970703"/>
     <use xlink:href="#TimesNewRomanPS-BoldMT-61" x="364.753906"/>
    </g>
   </g>
   <g id="text_5">
    <!-- Oligodendrocytes -->
    <g transform="translate(16.2225 45.868481) scale(0.12 -0.12)">
     <defs>
      <path id="TimesNewRomanPS-BoldMT-4f" d="M 2472 4297 
Q 3484 4334 4117 3706 
Q 4750 3078 4750 2134 
Q 4750 1328 4278 716 
Q 3653 -97 2513 -97 
Q 1369 -97 744 678 
Q 250 1291 250 2131 
Q 250 3075 892 3704 
Q 1534 4334 2472 4297 
z
M 2509 4097 
Q 1928 4097 1625 3503 
Q 1378 3016 1378 2103 
Q 1378 1019 1759 500 
Q 2025 138 2503 138 
Q 2825 138 3041 294 
Q 3316 494 3469 933 
Q 3622 1372 3622 2078 
Q 3622 2919 3465 3336 
Q 3309 3753 3067 3925 
Q 2825 4097 2509 4097 
z
" transform="scale(0.015625)"/>
     </defs>
     <use xlink:href="#TimesNewRomanPS-BoldMT-4f"/>
     <use xlink:href="#TimesNewRomanPS-BoldMT-6c" x="77.783203"/>
     <use xlink:href="#TimesNewRomanPS-BoldMT-69" x="105.566406"/>
     <use xlink:href="#TimesNewRomanPS-BoldMT-67" x="133.349609"/>
     <use xlink:href="#TimesNewRomanPS-BoldMT-6f" x="183.349609"/>
     <use xlink:href="#TimesNewRomanPS-BoldMT-64" x="233.349609"/>
     <use xlink:href="#TimesNewRomanPS-BoldMT-65" x="288.964844"/>
     <use xlink:href="#TimesNewRomanPS-BoldMT-6e" x="333.349609"/>
     <use xlink:href="#TimesNewRomanPS-BoldMT-64" x="388.964844"/>
     <use xlink:href="#TimesNewRomanPS-BoldMT-72" x="444.580078"/>
     <use xlink:href="#TimesNewRomanPS-BoldMT-6f" x="487.214844"/>
     <use xlink:href="#TimesNewRomanPS-BoldMT-63" x="537.214844"/>
     <use xlink:href="#TimesNewRomanPS-BoldMT-79" x="581.599609"/>
     <use xlink:href="#TimesNewRomanPS-BoldMT-74" x="631.599609"/>
     <use xlink:href="#TimesNewRomanPS-BoldMT-65" x="664.900391"/>
     <use xlink:href="#TimesNewRomanPS-BoldMT-73" x="709.285156"/>
    </g>
   </g>
   <g id="text_6">
    <!-- Astrocytes -->
    <g transform="translate(449.39149 226.23979) scale(0.12 -0.12)">
     <use xlink:href="#TimesNewRomanPS-BoldMT-41"/>
     <use xlink:href="#TimesNewRomanPS-BoldMT-73" x="72.216797"/>
     <use xlink:href="#TimesNewRomanPS-BoldMT-74" x="111.132812"/>
     <use xlink:href="#TimesNewRomanPS-BoldMT-72" x="144.433594"/>
     <use xlink:href="#TimesNewRomanPS-BoldMT-6f" x="187.068359"/>
     <use xlink:href="#TimesNewRomanPS-BoldMT-63" x="237.068359"/>
     <use xlink:href="#TimesNewRomanPS-BoldMT-79" x="281.453125"/>
     <use xlink:href="#TimesNewRomanPS-BoldMT-74" x="331.453125"/>
     <use xlink:href="#TimesNewRomanPS-BoldMT-65" x="364.753906"/>
     <use xlink:href="#TimesNewRomanPS-BoldMT-73" x="409.138672"/>
    </g>
   </g>
   <g id="text_7">
    <!-- Endothelial Cells -->
    <g transform="translate(449.39149 169.046566) scale(0.12 -0.12)">
     <use xlink:href="#TimesNewRomanPS-BoldMT-45"/>
     <use xlink:href="#TimesNewRomanPS-BoldMT-6e" x="66.699219"/>
     <use xlink:href="#TimesNewRomanPS-BoldMT-64" x="122.314453"/>
     <use xlink:href="#TimesNewRomanPS-BoldMT-6f" x="177.929688"/>
     <use xlink:href="#TimesNewRomanPS-BoldMT-74" x="227.929688"/>
     <use xlink:href="#TimesNewRomanPS-BoldMT-68" x="261.230469"/>
     <use xlink:href="#TimesNewRomanPS-BoldMT-65" x="316.845703"/>
     <use xlink:href="#TimesNewRomanPS-BoldMT-6c" x="361.230469"/>
     <use xlink:href="#TimesNewRomanPS-BoldMT-69" x="389.013672"/>
     <use xlink:href="#TimesNewRomanPS-BoldMT-61" x="416.796875"/>
     <use xlink:href="#TimesNewRomanPS-BoldMT-6c" x="466.796875"/>
     <use xlink:href="#TimesNewRomanPS-BoldMT-20" x="494.580078"/>
     <use xlink:href="#TimesNewRomanPS-BoldMT-43" x="519.580078"/>
     <use xlink:href="#TimesNewRomanPS-BoldMT-65" x="591.796875"/>
     <use xlink:href="#TimesNewRomanPS-BoldMT-6c" x="636.181641"/>
     <use xlink:href="#TimesNewRomanPS-BoldMT-6c" x="663.964844"/>
     <use xlink:href="#TimesNewRomanPS-BoldMT-73" x="691.748047"/>
    </g>
   </g>
   <g id="text_8">
    <!-- Excitatory Neurons -->
    <g transform="translate(449.39149 148.859646) scale(0.12 -0.12)">
     <defs>
      <path id="TimesNewRomanPS-BoldMT-78" d="M 1944 1791 
L 2450 828 
Q 2713 325 2866 191 
Q 2950 119 3097 113 
L 3097 0 
L 1469 0 
L 1469 113 
Q 1659 128 1704 162 
Q 1750 197 1750 256 
Q 1750 344 1650 531 
L 1397 1006 
L 1181 691 
Q 1034 475 1016 434 
Q 991 375 991 328 
Q 991 256 1020 207 
Q 1050 159 1101 136 
Q 1153 113 1291 113 
L 1291 0 
L 147 0 
L 147 113 
Q 359 113 536 230 
Q 713 347 1050 844 
L 1291 1200 
L 788 2131 
Q 541 2588 419 2691 
Q 297 2794 147 2806 
L 147 2922 
L 1766 2922 
L 1766 2806 
L 1681 2803 
L 1519 2747 
Q 1494 2725 1494 2675 
Q 1494 2628 1509 2578 
Q 1519 2556 1597 2409 
L 1825 1984 
L 1944 2153 
Q 2194 2497 2194 2634 
Q 2194 2700 2139 2745 
Q 2084 2791 1944 2806 
L 1944 2922 
L 2978 2922 
L 2978 2806 
Q 2788 2800 2622 2689 
Q 2456 2578 2250 2259 
L 1944 1791 
z
" transform="scale(0.015625)"/>
     </defs>
     <use xlink:href="#TimesNewRomanPS-BoldMT-45"/>
     <use xlink:href="#TimesNewRomanPS-BoldMT-78" x="66.699219"/>
     <use xlink:href="#TimesNewRomanPS-BoldMT-63" x="116.699219"/>
     <use xlink:href="#TimesNewRomanPS-BoldMT-69" x="161.083984"/>
     <use xlink:href="#TimesNewRomanPS-BoldMT-74" x="188.867188"/>
     <use xlink:href="#TimesNewRomanPS-BoldMT-61" x="222.167969"/>
     <use xlink:href="#TimesNewRomanPS-BoldMT-74" x="272.167969"/>
     <use xlink:href="#TimesNewRomanPS-BoldMT-6f" x="305.46875"/>
     <use xlink:href="#TimesNewRomanPS-BoldMT-72" x="355.46875"/>
     <use xlink:href="#TimesNewRomanPS-BoldMT-79" x="399.853516"/>
     <use xlink:href="#TimesNewRomanPS-BoldMT-20" x="449.853516"/>
     <use xlink:href="#TimesNewRomanPS-BoldMT-4e" x="474.853516"/>
     <use xlink:href="#TimesNewRomanPS-BoldMT-65" x="547.070312"/>
     <use xlink:href="#TimesNewRomanPS-BoldMT-75" x="591.455078"/>
     <use xlink:href="#TimesNewRomanPS-BoldMT-72" x="647.070312"/>
     <use xlink:href="#TimesNewRomanPS-BoldMT-6f" x="689.705078"/>
     <use xlink:href="#TimesNewRomanPS-BoldMT-6e" x="739.705078"/>
     <use xlink:href="#TimesNewRomanPS-BoldMT-73" x="795.320312"/>
    </g>
   </g>
   <g id="text_9">
    <!-- Inhibitory Neurons -->
    <g transform="translate(449.39149 105.198189) scale(0.12 -0.12)">
     <use xlink:href="#TimesNewRomanPS-BoldMT-49"/>
     <use xlink:href="#TimesNewRomanPS-BoldMT-6e" x="38.916016"/>
     <use xlink:href="#TimesNewRomanPS-BoldMT-68" x="94.53125"/>
     <use xlink:href="#TimesNewRomanPS-BoldMT-69" x="150.146484"/>
     <use xlink:href="#TimesNewRomanPS-BoldMT-62" x="177.929688"/>
     <use xlink:href="#TimesNewRomanPS-BoldMT-69" x="233.544922"/>
     <use xlink:href="#TimesNewRomanPS-BoldMT-74" x="261.328125"/>
     <use xlink:href="#TimesNewRomanPS-BoldMT-6f" x="294.628906"/>
     <use xlink:href="#TimesNewRomanPS-BoldMT-72" x="344.628906"/>
     <use xlink:href="#TimesNewRomanPS-BoldMT-79" x="389.013672"/>
     <use xlink:href="#TimesNewRomanPS-BoldMT-20" x="439.013672"/>
     <use xlink:href="#TimesNewRomanPS-BoldMT-4e" x="464.013672"/>
     <use xlink:href="#TimesNewRomanPS-BoldMT-65" x="536.230469"/>
     <use xlink:href="#TimesNewRomanPS-BoldMT-75" x="580.615234"/>
     <use xlink:href="#TimesNewRomanPS-BoldMT-72" x="636.230469"/>
     <use xlink:href="#TimesNewRomanPS-BoldMT-6f" x="678.865234"/>
     <use xlink:href="#TimesNewRomanPS-BoldMT-6e" x="728.865234"/>
     <use xlink:href="#TimesNewRomanPS-BoldMT-73" x="784.480469"/>
    </g>
   </g>
   <g id="text_10">
    <!-- Microglia -->
    <g transform="translate(449.39149 48.406297) scale(0.12 -0.12)">
     <use xlink:href="#TimesNewRomanPS-BoldMT-4d"/>
     <use xlink:href="#TimesNewRomanPS-BoldMT-69" x="94.384766"/>
     <use xlink:href="#TimesNewRomanPS-BoldMT-63" x="122.167969"/>
     <use xlink:href="#TimesNewRomanPS-BoldMT-72" x="166.552734"/>
     <use xlink:href="#TimesNewRomanPS-BoldMT-6f" x="209.1875"/>
     <use xlink:href="#TimesNewRomanPS-BoldMT-67" x="259.1875"/>
     <use xlink:href="#TimesNewRomanPS-BoldMT-6c" x="309.1875"/>
     <use xlink:href="#TimesNewRomanPS-BoldMT-69" x="336.970703"/>
     <use xlink:href="#TimesNewRomanPS-BoldMT-61" x="364.753906"/>
    </g>
   </g>
   <g id="text_11">
    <!-- Oligodendrocytes -->
    <g transform="translate(449.39149 23.392265) scale(0.12 -0.12)">
     <use xlink:href="#TimesNewRomanPS-BoldMT-4f"/>
     <use xlink:href="#TimesNewRomanPS-BoldMT-6c" x="77.783203"/>
     <use xlink:href="#TimesNewRomanPS-BoldMT-69" x="105.566406"/>
     <use xlink:href="#TimesNewRomanPS-BoldMT-67" x="133.349609"/>
     <use xlink:href="#TimesNewRomanPS-BoldMT-6f" x="183.349609"/>
     <use xlink:href="#TimesNewRomanPS-BoldMT-64" x="233.349609"/>
     <use xlink:href="#TimesNewRomanPS-BoldMT-65" x="288.964844"/>
     <use xlink:href="#TimesNewRomanPS-BoldMT-6e" x="333.349609"/>
     <use xlink:href="#TimesNewRomanPS-BoldMT-64" x="388.964844"/>
     <use xlink:href="#TimesNewRomanPS-BoldMT-72" x="444.580078"/>
     <use xlink:href="#TimesNewRomanPS-BoldMT-6f" x="487.214844"/>
     <use xlink:href="#TimesNewRomanPS-BoldMT-63" x="537.214844"/>
     <use xlink:href="#TimesNewRomanPS-BoldMT-79" x="581.599609"/>
     <use xlink:href="#TimesNewRomanPS-BoldMT-74" x="631.599609"/>
     <use xlink:href="#TimesNewRomanPS-BoldMT-65" x="664.900391"/>
     <use xlink:href="#TimesNewRomanPS-BoldMT-73" x="709.285156"/>
    </g>
   </g>
  </g>
 </g>
 <defs>
  <clipPath id="p280288f62a">
   <rect x="99.139183" y="7.2" width="357.12" height="266.112"/>
  </clipPath>
 </defs>
</svg>
