<?xml version="1.0" encoding="utf-8" standalone="no"?>
<!DOCTYPE svg PUBLIC "-//W3C//DTD SVG 1.1//EN"
  "http://www.w3.org/Graphics/SVG/1.1/DTD/svg11.dtd">
<svg xmlns:xlink="http://www.w3.org/1999/xlink" width="556.70149pt" height="280.512pt" viewBox="0 0 556.70149 280.512" xmlns="http://www.w3.org/2000/svg" version="1.1">
 <metadata>
  <rdf:RDF xmlns:dc="http://purl.org/dc/elements/1.1/" xmlns:cc="http://creativecommons.org/ns#" xmlns:rdf="http://www.w3.org/1999/02/22-rdf-syntax-ns#">
   <cc:Work>
    <dc:type rdf:resource="http://purl.org/dc/dcmitype/StillImage"/>
    <dc:date>2025-03-16T19:54:30.253601</dc:date>
    <dc:format>image/svg+xml</dc:format>
    <dc:creator>
     <cc:Agent>
      <dc:title>Matplotlib v3.9.3, https://matplotlib.org/</dc:title>
     </cc:Agent>
    </dc:creator>
   </cc:Work>
  </rdf:RDF>
 </metadata>
 <defs>
  <style type="text/css">*{stroke-linejoin: round; stroke-linecap: butt}</style>
 </defs>
 <g id="figure_1">
  <g id="patch_1">
   <path d="M 0 280.512 
L 556.70149 280.512 
L 556.70149 0 
L 0 0 
z
" style="fill: #ffffff"/>
  </g>
  <g id="axes_1">
   <g id="PolyCollection_1">
    <defs>
     <path id="md46cfd1157" d="M 115.37191 -102.74047 
L 115.37191 -19.296 
L 121.615267 -19.296 
L 121.615267 -102.74047 
L 121.615267 -102.74047 
L 115.37191 -102.74047 
z
" style="stroke: #57db5f; stroke-opacity: 0.99"/>
    </defs>
    <g clip-path="url(#pbb4502a8ff)">
     <use xlink:href="#md46cfd1157" x="0" y="280.512" style="fill: #57db5f; fill-opacity: 0.99; stroke: #57db5f; stroke-opacity: 0.99"/>
    </g>
   </g>
   <g id="PolyCollection_2">
    <defs>
     <path id="m4bb7bf882c" d="M 115.37191 -130.290937 
L 115.37191 -112.82047 
L 121.615267 -112.82047 
L 121.615267 -130.290937 
L 121.615267 -130.290937 
L 115.37191 -130.290937 
z
" style="stroke: #5f57db; stroke-opacity: 0.99"/>
    </defs>
    <g clip-path="url(#pbb4502a8ff)">
     <use xlink:href="#m4bb7bf882c" x="0" y="280.512" style="fill: #5f57db; fill-opacity: 0.99; stroke: #5f57db; stroke-opacity: 0.99"/>
    </g>
   </g>
   <g id="PolyCollection_3">
    <defs>
     <path id="m8f8f0a16c3" d="M 115.37191 -204.965692 
L 115.37191 -140.370937 
L 121.615267 -140.370937 
L 121.615267 -204.965692 
L 121.615267 -204.965692 
L 115.37191 -204.965692 
z
" style="stroke: #db5f57; stroke-opacity: 0.99"/>
    </defs>
    <g clip-path="url(#pbb4502a8ff)">
     <use xlink:href="#m8f8f0a16c3" x="0" y="280.512" style="fill: #db5f57; fill-opacity: 0.99; stroke: #db5f57; stroke-opacity: 0.99"/>
    </g>
   </g>
   <g id="PolyCollection_4">
    <defs>
     <path id="m6f45898955" d="M 115.37191 -221.712055 
L 115.37191 -215.045692 
L 121.615267 -215.045692 
L 121.615267 -221.712055 
L 121.615267 -221.712055 
L 115.37191 -221.712055 
z
" style="stroke: #d3db57; stroke-opacity: 0.99"/>
    </defs>
    <g clip-path="url(#pbb4502a8ff)">
     <use xlink:href="#m6f45898955" x="0" y="280.512" style="fill: #d3db57; fill-opacity: 0.99; stroke: #d3db57; stroke-opacity: 0.99"/>
    </g>
   </g>
   <g id="PolyCollection_5">
    <defs>
     <path id="ma085a50226" d="M 115.37191 -261.216 
L 115.37191 -231.792055 
L 121.615267 -231.792055 
L 121.615267 -261.216 
L 121.615267 -261.216 
L 115.37191 -261.216 
z
" style="stroke: #57d3db; stroke-opacity: 0.99"/>
    </defs>
    <g clip-path="url(#pbb4502a8ff)">
     <use xlink:href="#ma085a50226" x="0" y="280.512" style="fill: #57d3db; fill-opacity: 0.99; stroke: #57d3db; stroke-opacity: 0.99"/>
    </g>
   </g>
   <g id="PolyCollection_6">
    <defs>
     <path id="mb3803cdfcb" d="M 433.783099 -103.430094 
L 433.783099 -19.296 
L 440.026455 -19.296 
L 440.026455 -103.430094 
L 440.026455 -103.430094 
L 433.783099 -103.430094 
z
" style="stroke: #57db5f; stroke-opacity: 0.99"/>
    </defs>
    <g clip-path="url(#pbb4502a8ff)">
     <use xlink:href="#mb3803cdfcb" x="0" y="280.512" style="fill: #57db5f; fill-opacity: 0.99; stroke: #57db5f; stroke-opacity: 0.99"/>
    </g>
   </g>
   <g id="PolyCollection_7">
    <defs>
     <path id="m921833e13f" d="M 433.783099 -131.900059 
L 433.783099 -113.510094 
L 440.026455 -113.510094 
L 440.026455 -131.900059 
L 440.026455 -131.900059 
L 433.783099 -131.900059 
z
" style="stroke: #5f57db; stroke-opacity: 0.99"/>
    </defs>
    <g clip-path="url(#pbb4502a8ff)">
     <use xlink:href="#m921833e13f" x="0" y="280.512" style="fill: #5f57db; fill-opacity: 0.99; stroke: #5f57db; stroke-opacity: 0.99"/>
    </g>
   </g>
   <g id="PolyCollection_8">
    <defs>
     <path id="mb8e022e919" d="M 433.783099 -142.439808 
L 433.783099 -141.980059 
L 440.026455 -141.980059 
L 440.026455 -142.439808 
L 440.026455 -142.439808 
L 433.783099 -142.439808 
z
" style="stroke: #db57d3; stroke-opacity: 0.99"/>
    </defs>
    <g clip-path="url(#pbb4502a8ff)">
     <use xlink:href="#mb8e022e919" x="0" y="280.512" style="fill: #db57d3; fill-opacity: 0.99; stroke: #db57d3; stroke-opacity: 0.99"/>
    </g>
   </g>
   <g id="PolyCollection_9">
    <defs>
     <path id="m0383a7b9f0" d="M 433.783099 -221.941929 
L 433.783099 -152.519808 
L 440.026455 -152.519808 
L 440.026455 -221.941929 
L 440.026455 -221.941929 
L 433.783099 -221.941929 
z
" style="stroke: #db5f57; stroke-opacity: 0.99"/>
    </defs>
    <g clip-path="url(#pbb4502a8ff)">
     <use xlink:href="#m0383a7b9f0" x="0" y="280.512" style="fill: #db5f57; fill-opacity: 0.99; stroke: #db5f57; stroke-opacity: 0.99"/>
    </g>
   </g>
   <g id="PolyCollection_10">
    <defs>
     <path id="mda9a67afb2" d="M 433.783099 -261.216 
L 433.783099 -232.021929 
L 440.026455 -232.021929 
L 440.026455 -261.216 
L 440.026455 -261.216 
L 433.783099 -261.216 
z
" style="stroke: #d3db57; stroke-opacity: 0.99"/>
    </defs>
    <g clip-path="url(#pbb4502a8ff)">
     <use xlink:href="#mda9a67afb2" x="0" y="280.512" style="fill: #d3db57; fill-opacity: 0.99; stroke: #d3db57; stroke-opacity: 0.99"/>
    </g>
   </g>
   <g id="PolyCollection_11">
    <defs>
     <path id="mb1ccfe92e7" d="M 121.615267 -101.591097 
L 121.615267 -19.296 
L 126.732772 -19.296 
L 131.850277 -19.296 
L 136.967783 -19.296 
L 142.085288 -19.296 
L 147.202794 -19.296 
L 152.320299 -19.296 
L 157.437805 -19.296 
L 162.55531 -19.296 
L 167.672816 -19.296 
L 172.790321 -19.296 
L 177.907827 -19.296 
L 183.025332 -19.296 
L 188.142837 -19.296 
L 193.260343 -19.296 
L 198.377848 -19.296 
L 203.495354 -19.296 
L 208.612859 -19.296 
L 213.730365 -19.296 
L 218.84787 -19.296 
L 223.965376 -19.296 
L 229.082881 -19.296 
L 234.200386 -19.296 
L 239.317892 -19.296 
L 244.435397 -19.296 
L 249.552903 -19.296 
L 254.670408 -19.296 
L 259.787914 -19.296 
L 264.905419 -19.296 
L 270.022925 -19.296 
L 275.14043 -19.296 
L 280.257935 -19.296 
L 285.375441 -19.296 
L 290.492946 -19.296 
L 295.610452 -19.296 
L 300.727957 -19.296 
L 305.845463 -19.296 
L 310.962968 -19.296 
L 316.080474 -19.296 
L 321.197979 -19.296 
L 326.315484 -19.296 
L 331.43299 -19.296 
L 336.550495 -19.296 
L 341.668001 -19.296 
L 346.785506 -19.296 
L 351.903012 -19.296 
L 357.020517 -19.296 
L 362.138023 -19.296 
L 367.255528 -19.296 
L 372.373033 -19.296 
L 377.490539 -19.296 
L 382.608044 -19.296 
L 387.72555 -19.296 
L 392.843055 -19.296 
L 397.960561 -19.296 
L 403.078066 -19.296 
L 408.195572 -19.296 
L 413.313077 -19.296 
L 418.430582 -19.296 
L 423.548088 -19.296 
L 428.665593 -19.296 
L 433.783099 -19.296 
L 433.783099 -101.591097 
L 433.783099 -101.591097 
L 428.665593 -101.591097 
L 423.548088 -101.591097 
L 418.430582 -101.591097 
L 413.313077 -101.591097 
L 408.195572 -101.591097 
L 403.078066 -101.591097 
L 397.960561 -101.591097 
L 392.843055 -101.591097 
L 387.72555 -101.591097 
L 382.608044 -101.591097 
L 377.490539 -101.591097 
L 372.373033 -101.591097 
L 367.255528 -101.591097 
L 362.138023 -101.591097 
L 357.020517 -101.591097 
L 351.903012 -101.591097 
L 346.785506 -101.591097 
L 341.668001 -101.591097 
L 336.550495 -101.591097 
L 331.43299 -101.591097 
L 326.315484 -101.591097 
L 321.197979 -101.591097 
L 316.080474 -101.591097 
L 310.962968 -101.591097 
L 305.845463 -101.591097 
L 300.727957 -101.591097 
L 295.610452 -101.591097 
L 290.492946 -101.591097 
L 285.375441 -101.591097 
L 280.257935 -101.591097 
L 275.14043 -101.591097 
L 270.022925 -101.591097 
L 264.905419 -101.591097 
L 259.787914 -101.591097 
L 254.670408 -101.591097 
L 249.552903 -101.591097 
L 244.435397 -101.591097 
L 239.317892 -101.591097 
L 234.200386 -101.591097 
L 229.082881 -101.591097 
L 223.965376 -101.591097 
L 218.84787 -101.591097 
L 213.730365 -101.591097 
L 208.612859 -101.591097 
L 203.495354 -101.591097 
L 198.377848 -101.591097 
L 193.260343 -101.591097 
L 188.142837 -101.591097 
L 183.025332 -101.591097 
L 177.907827 -101.591097 
L 172.790321 -101.591097 
L 167.672816 -101.591097 
L 162.55531 -101.591097 
L 157.437805 -101.591097 
L 152.320299 -101.591097 
L 147.202794 -101.591097 
L 142.085288 -101.591097 
L 136.967783 -101.591097 
L 131.850277 -101.591097 
L 126.732772 -101.591097 
L 121.615267 -101.591097 
z
" style="stroke: #57db5f; stroke-opacity: 0.65"/>
    </defs>
    <g clip-path="url(#pbb4502a8ff)">
     <use xlink:href="#mb1ccfe92e7" x="0" y="280.512" style="fill: #57db5f; fill-opacity: 0.65; stroke: #57db5f; stroke-opacity: 0.65"/>
    </g>
   </g>
   <g id="PolyCollection_12">
    <defs>
     <path id="m405f97c316" d="M 121.615267 -102.510595 
L 121.615267 -101.591097 
L 126.732772 -101.591097 
L 131.850277 -101.591097 
L 136.967783 -101.591097 
L 142.085288 -101.591097 
L 147.202794 -101.591097 
L 152.320299 -101.591097 
L 157.437805 -101.591097 
L 162.55531 -101.591097 
L 167.672816 -101.591097 
L 172.790321 -101.591097 
L 177.907827 -101.591097 
L 183.025332 -101.620894 
L 188.142837 -101.680489 
L 193.260343 -101.769882 
L 198.377848 -101.889072 
L 203.495354 -102.038059 
L 208.612859 -102.216844 
L 213.730365 -102.425427 
L 218.84787 -102.663807 
L 223.965376 -102.931984 
L 229.082881 -103.229959 
L 234.200386 -103.557731 
L 239.317892 -103.915301 
L 244.435397 -104.302669 
L 249.552903 -104.719834 
L 254.670408 -105.166796 
L 259.787914 -105.643556 
L 264.905419 -106.150113 
L 270.022925 -106.686468 
L 275.14043 -107.25262 
L 280.257935 -107.84857 
L 285.375441 -108.414722 
L 290.492946 -108.951077 
L 295.610452 -109.457635 
L 300.727957 -109.934395 
L 305.845463 -110.381357 
L 310.962968 -110.798522 
L 316.080474 -111.185889 
L 321.197979 -111.543459 
L 326.315484 -111.871231 
L 331.43299 -112.169206 
L 336.550495 -112.437384 
L 341.668001 -112.675764 
L 346.785506 -112.884346 
L 351.903012 -113.063131 
L 357.020517 -113.212119 
L 362.138023 -113.331309 
L 367.255528 -113.420701 
L 372.373033 -113.480296 
L 377.490539 -113.510094 
L 382.608044 -113.510094 
L 387.72555 -113.510094 
L 392.843055 -113.510094 
L 397.960561 -113.510094 
L 403.078066 -113.510094 
L 408.195572 -113.510094 
L 413.313077 -113.510094 
L 418.430582 -113.510094 
L 423.548088 -113.510094 
L 428.665593 -113.510094 
L 433.783099 -113.510094 
L 433.783099 -114.429592 
L 433.783099 -114.429592 
L 428.665593 -114.429592 
L 423.548088 -114.429592 
L 418.430582 -114.429592 
L 413.313077 -114.429592 
L 408.195572 -114.429592 
L 403.078066 -114.429592 
L 397.960561 -114.429592 
L 392.843055 -114.429592 
L 387.72555 -114.429592 
L 382.608044 -114.429592 
L 377.490539 -114.429592 
L 372.373033 -114.399794 
L 367.255528 -114.340199 
L 362.138023 -114.250807 
L 357.020517 -114.131617 
L 351.903012 -113.982629 
L 346.785506 -113.803844 
L 341.668001 -113.595262 
L 336.550495 -113.356882 
L 331.43299 -113.088705 
L 326.315484 -112.79073 
L 321.197979 -112.462957 
L 316.080474 -112.105387 
L 310.962968 -111.71802 
L 305.845463 -111.300855 
L 300.727957 -110.853893 
L 295.610452 -110.377133 
L 290.492946 -109.870576 
L 285.375441 -109.334221 
L 280.257935 -108.768068 
L 275.14043 -108.172119 
L 270.022925 -107.605966 
L 264.905419 -107.069611 
L 259.787914 -106.563054 
L 254.670408 -106.086294 
L 249.552903 -105.639332 
L 244.435397 -105.222167 
L 239.317892 -104.8348 
L 234.200386 -104.47723 
L 229.082881 -104.149457 
L 223.965376 -103.851482 
L 218.84787 -103.583305 
L 213.730365 -103.344925 
L 208.612859 -103.136343 
L 203.495354 -102.957558 
L 198.377848 -102.80857 
L 193.260343 -102.68938 
L 188.142837 -102.599988 
L 183.025332 -102.540393 
L 177.907827 -102.510595 
L 172.790321 -102.510595 
L 167.672816 -102.510595 
L 162.55531 -102.510595 
L 157.437805 -102.510595 
L 152.320299 -102.510595 
L 147.202794 -102.510595 
L 142.085288 -102.510595 
L 136.967783 -102.510595 
L 131.850277 -102.510595 
L 126.732772 -102.510595 
L 121.615267 -102.510595 
z
" style="stroke: #57db5f; stroke-opacity: 0.65"/>
    </defs>
    <g clip-path="url(#pbb4502a8ff)">
     <use xlink:href="#m405f97c316" x="0" y="280.512" style="fill: #57db5f; fill-opacity: 0.65; stroke: #57db5f; stroke-opacity: 0.65"/>
    </g>
   </g>
   <g id="PolyCollection_13">
    <defs>
     <path id="md5ba7f467e" d="M 121.615267 -102.74047 
L 121.615267 -102.510595 
L 126.732772 -102.510595 
L 131.850277 -102.510595 
L 136.967783 -102.510595 
L 142.085288 -102.510595 
L 147.202794 -102.510595 
L 152.320299 -102.510595 
L 157.437805 -102.510595 
L 162.55531 -102.510595 
L 167.672816 -102.510595 
L 172.790321 -102.510595 
L 177.907827 -102.510595 
L 183.025332 -102.635618 
L 188.142837 -102.885664 
L 193.260343 -103.260733 
L 198.377848 -103.760826 
L 203.495354 -104.385941 
L 208.612859 -105.136079 
L 213.730365 -106.01124 
L 218.84787 -107.011424 
L 223.965376 -108.136632 
L 229.082881 -109.386862 
L 234.200386 -110.762115 
L 239.317892 -112.262392 
L 244.435397 -113.887691 
L 249.552903 -115.638014 
L 254.670408 -117.513359 
L 259.787914 -119.513728 
L 264.905419 -121.639119 
L 270.022925 -123.889534 
L 275.14043 -126.264971 
L 280.257935 -128.765432 
L 285.375441 -131.14087 
L 290.492946 -133.391284 
L 295.610452 -135.516676 
L 300.727957 -137.517044 
L 305.845463 -139.39239 
L 310.962968 -141.142712 
L 316.080474 -142.768012 
L 321.197979 -144.268288 
L 326.315484 -145.643542 
L 331.43299 -146.893772 
L 336.550495 -148.018979 
L 341.668001 -149.019164 
L 346.785506 -149.894325 
L 351.903012 -150.644463 
L 357.020517 -151.269578 
L 362.138023 -151.76967 
L 367.255528 -152.144739 
L 372.373033 -152.394785 
L 377.490539 -152.519808 
L 382.608044 -152.519808 
L 387.72555 -152.519808 
L 392.843055 -152.519808 
L 397.960561 -152.519808 
L 403.078066 -152.519808 
L 408.195572 -152.519808 
L 413.313077 -152.519808 
L 418.430582 -152.519808 
L 423.548088 -152.519808 
L 428.665593 -152.519808 
L 433.783099 -152.519808 
L 433.783099 -152.749683 
L 433.783099 -152.749683 
L 428.665593 -152.749683 
L 423.548088 -152.749683 
L 418.430582 -152.749683 
L 413.313077 -152.749683 
L 408.195572 -152.749683 
L 403.078066 -152.749683 
L 397.960561 -152.749683 
L 392.843055 -152.749683 
L 387.72555 -152.749683 
L 382.608044 -152.749683 
L 377.490539 -152.749683 
L 372.373033 -152.62466 
L 367.255528 -152.374614 
L 362.138023 -151.999545 
L 357.020517 -151.499453 
L 351.903012 -150.874338 
L 346.785506 -150.124199 
L 341.668001 -149.249038 
L 336.550495 -148.248854 
L 331.43299 -147.123647 
L 326.315484 -145.873416 
L 321.197979 -144.498163 
L 316.080474 -142.997886 
L 310.962968 -141.372587 
L 305.845463 -139.622265 
L 300.727957 -137.746919 
L 295.610452 -135.746551 
L 290.492946 -133.621159 
L 285.375441 -131.370744 
L 280.257935 -128.995307 
L 275.14043 -126.494846 
L 270.022925 -124.119408 
L 264.905419 -121.868994 
L 259.787914 -119.743602 
L 254.670408 -117.743234 
L 249.552903 -115.867888 
L 244.435397 -114.117566 
L 239.317892 -112.492266 
L 234.200386 -110.99199 
L 229.082881 -109.616737 
L 223.965376 -108.366506 
L 218.84787 -107.241299 
L 213.730365 -106.241115 
L 208.612859 -105.365953 
L 203.495354 -104.615815 
L 198.377848 -103.9907 
L 193.260343 -103.490608 
L 188.142837 -103.115539 
L 183.025332 -102.865493 
L 177.907827 -102.74047 
L 172.790321 -102.74047 
L 167.672816 -102.74047 
L 162.55531 -102.74047 
L 157.437805 -102.74047 
L 152.320299 -102.74047 
L 147.202794 -102.74047 
L 142.085288 -102.74047 
L 136.967783 -102.74047 
L 131.850277 -102.74047 
L 126.732772 -102.74047 
L 121.615267 -102.74047 
z
" style="stroke: #57db5f; stroke-opacity: 0.65"/>
    </defs>
    <g clip-path="url(#pbb4502a8ff)">
     <use xlink:href="#md5ba7f467e" x="0" y="280.512" style="fill: #57db5f; fill-opacity: 0.65; stroke: #57db5f; stroke-opacity: 0.65"/>
    </g>
   </g>
   <g id="PolyCollection_14">
    <defs>
     <path id="m3a7074b8cb" d="M 121.615267 -130.061063 
L 121.615267 -112.82047 
L 126.732772 -112.82047 
L 131.850277 -112.82047 
L 136.967783 -112.82047 
L 142.085288 -112.82047 
L 147.202794 -112.82047 
L 152.320299 -112.82047 
L 157.437805 -112.82047 
L 162.55531 -112.82047 
L 167.672816 -112.82047 
L 172.790321 -112.82047 
L 177.907827 -112.82047 
L 183.025332 -112.824493 
L 188.142837 -112.832538 
L 193.260343 -112.844607 
L 198.377848 -112.860698 
L 203.495354 -112.880812 
L 208.612859 -112.904949 
L 213.730365 -112.933108 
L 218.84787 -112.965291 
L 223.965376 -113.001496 
L 229.082881 -113.041724 
L 234.200386 -113.085975 
L 239.317892 -113.134249 
L 244.435397 -113.186545 
L 249.552903 -113.242864 
L 254.670408 -113.303206 
L 259.787914 -113.367571 
L 264.905419 -113.435959 
L 270.022925 -113.508369 
L 275.14043 -113.584803 
L 280.257935 -113.665259 
L 285.375441 -113.741692 
L 290.492946 -113.814103 
L 295.610452 -113.88249 
L 300.727957 -113.946855 
L 305.845463 -114.007197 
L 310.962968 -114.063517 
L 316.080474 -114.115813 
L 321.197979 -114.164087 
L 326.315484 -114.208338 
L 331.43299 -114.248566 
L 336.550495 -114.284771 
L 341.668001 -114.316953 
L 346.785506 -114.345113 
L 351.903012 -114.36925 
L 357.020517 -114.389364 
L 362.138023 -114.405455 
L 367.255528 -114.417523 
L 372.373033 -114.425569 
L 377.490539 -114.429592 
L 382.608044 -114.429592 
L 387.72555 -114.429592 
L 392.843055 -114.429592 
L 397.960561 -114.429592 
L 403.078066 -114.429592 
L 408.195572 -114.429592 
L 413.313077 -114.429592 
L 418.430582 -114.429592 
L 423.548088 -114.429592 
L 428.665593 -114.429592 
L 433.783099 -114.429592 
L 433.783099 -131.670185 
L 433.783099 -131.670185 
L 428.665593 -131.670185 
L 423.548088 -131.670185 
L 418.430582 -131.670185 
L 413.313077 -131.670185 
L 408.195572 -131.670185 
L 403.078066 -131.670185 
L 397.960561 -131.670185 
L 392.843055 -131.670185 
L 387.72555 -131.670185 
L 382.608044 -131.670185 
L 377.490539 -131.670185 
L 372.373033 -131.666162 
L 367.255528 -131.658116 
L 362.138023 -131.646048 
L 357.020517 -131.629957 
L 351.903012 -131.609843 
L 346.785506 -131.585706 
L 341.668001 -131.557546 
L 336.550495 -131.525364 
L 331.43299 -131.489158 
L 326.315484 -131.44893 
L 321.197979 -131.40468 
L 316.080474 -131.356406 
L 310.962968 -131.304109 
L 305.845463 -131.24779 
L 300.727957 -131.187448 
L 295.610452 -131.123083 
L 290.492946 -131.054696 
L 285.375441 -130.982285 
L 280.257935 -130.905852 
L 275.14043 -130.825396 
L 270.022925 -130.748962 
L 264.905419 -130.676552 
L 259.787914 -130.608164 
L 254.670408 -130.543799 
L 249.552903 -130.483457 
L 244.435397 -130.427138 
L 239.317892 -130.374842 
L 234.200386 -130.326568 
L 229.082881 -130.282317 
L 223.965376 -130.242089 
L 218.84787 -130.205884 
L 213.730365 -130.173701 
L 208.612859 -130.145542 
L 203.495354 -130.121405 
L 198.377848 -130.101291 
L 193.260343 -130.0852 
L 188.142837 -130.073131 
L 183.025332 -130.065086 
L 177.907827 -130.061063 
L 172.790321 -130.061063 
L 167.672816 -130.061063 
L 162.55531 -130.061063 
L 157.437805 -130.061063 
L 152.320299 -130.061063 
L 147.202794 -130.061063 
L 142.085288 -130.061063 
L 136.967783 -130.061063 
L 131.850277 -130.061063 
L 126.732772 -130.061063 
L 121.615267 -130.061063 
z
" style="stroke: #5f57db; stroke-opacity: 0.65"/>
    </defs>
    <g clip-path="url(#pbb4502a8ff)">
     <use xlink:href="#m3a7074b8cb" x="0" y="280.512" style="fill: #5f57db; fill-opacity: 0.65; stroke: #5f57db; stroke-opacity: 0.65"/>
    </g>
   </g>
   <g id="PolyCollection_15">
    <defs>
     <path id="mb027fbac83" d="M 121.615267 -130.290937 
L 121.615267 -130.061063 
L 126.732772 -130.061063 
L 131.850277 -130.061063 
L 136.967783 -130.061063 
L 142.085288 -130.061063 
L 147.202794 -130.061063 
L 152.320299 -130.061063 
L 157.437805 -130.061063 
L 162.55531 -130.061063 
L 167.672816 -130.061063 
L 172.790321 -130.061063 
L 177.907827 -130.061063 
L 183.025332 -130.117784 
L 188.142837 -130.231227 
L 193.260343 -130.401392 
L 198.377848 -130.628278 
L 203.495354 -130.911886 
L 208.612859 -131.252215 
L 213.730365 -131.649266 
L 218.84787 -132.103039 
L 223.965376 -132.613532 
L 229.082881 -133.180748 
L 234.200386 -133.804685 
L 239.317892 -134.485344 
L 244.435397 -135.222724 
L 249.552903 -136.016826 
L 254.670408 -136.867649 
L 259.787914 -137.775194 
L 264.905419 -138.73946 
L 270.022925 -139.760448 
L 275.14043 -140.838157 
L 280.257935 -141.972588 
L 285.375441 -143.050298 
L 290.492946 -144.071286 
L 295.610452 -145.035552 
L 300.727957 -145.943097 
L 305.845463 -146.79392 
L 310.962968 -147.588022 
L 316.080474 -148.325402 
L 321.197979 -149.006061 
L 326.315484 -149.629998 
L 331.43299 -150.197213 
L 336.550495 -150.707707 
L 341.668001 -151.16148 
L 346.785506 -151.55853 
L 351.903012 -151.89886 
L 357.020517 -152.182468 
L 362.138023 -152.409354 
L 367.255528 -152.579518 
L 372.373033 -152.692961 
L 377.490539 -152.749683 
L 382.608044 -152.749683 
L 387.72555 -152.749683 
L 392.843055 -152.749683 
L 397.960561 -152.749683 
L 403.078066 -152.749683 
L 408.195572 -152.749683 
L 413.313077 -152.749683 
L 418.430582 -152.749683 
L 423.548088 -152.749683 
L 428.665593 -152.749683 
L 433.783099 -152.749683 
L 433.783099 -152.979558 
L 433.783099 -152.979558 
L 428.665593 -152.979558 
L 423.548088 -152.979558 
L 418.430582 -152.979558 
L 413.313077 -152.979558 
L 408.195572 -152.979558 
L 403.078066 -152.979558 
L 397.960561 -152.979558 
L 392.843055 -152.979558 
L 387.72555 -152.979558 
L 382.608044 -152.979558 
L 377.490539 -152.979558 
L 372.373033 -152.922836 
L 367.255528 -152.809393 
L 362.138023 -152.639228 
L 357.020517 -152.412342 
L 351.903012 -152.128734 
L 346.785506 -151.788405 
L 341.668001 -151.391354 
L 336.550495 -150.937582 
L 331.43299 -150.427088 
L 326.315484 -149.859872 
L 321.197979 -149.235935 
L 316.080474 -148.555277 
L 310.962968 -147.817896 
L 305.845463 -147.023795 
L 300.727957 -146.172971 
L 295.610452 -145.265427 
L 290.492946 -144.30116 
L 285.375441 -143.280172 
L 280.257935 -142.202463 
L 275.14043 -141.068032 
L 270.022925 -139.990322 
L 264.905419 -138.969335 
L 259.787914 -138.005068 
L 254.670408 -137.097523 
L 249.552903 -136.2467 
L 244.435397 -135.452598 
L 239.317892 -134.715218 
L 234.200386 -134.03456 
L 229.082881 -133.410623 
L 223.965376 -132.843407 
L 218.84787 -132.332913 
L 213.730365 -131.879141 
L 208.612859 -131.48209 
L 203.495354 -131.141761 
L 198.377848 -130.858153 
L 193.260343 -130.631267 
L 188.142837 -130.461102 
L 183.025332 -130.347659 
L 177.907827 -130.290937 
L 172.790321 -130.290937 
L 167.672816 -130.290937 
L 162.55531 -130.290937 
L 157.437805 -130.290937 
L 152.320299 -130.290937 
L 147.202794 -130.290937 
L 142.085288 -130.290937 
L 136.967783 -130.290937 
L 131.850277 -130.290937 
L 126.732772 -130.290937 
L 121.615267 -130.290937 
z
" style="stroke: #5f57db; stroke-opacity: 0.65"/>
    </defs>
    <g clip-path="url(#pbb4502a8ff)">
     <use xlink:href="#mb027fbac83" x="0" y="280.512" style="fill: #5f57db; fill-opacity: 0.65; stroke: #5f57db; stroke-opacity: 0.65"/>
    </g>
   </g>
   <g id="PolyCollection_16">
    <defs>
     <path id="m4ebadfb29a" d="M 121.615267 -142.209934 
L 121.615267 -140.370937 
L 126.732772 -140.370937 
L 131.850277 -140.370937 
L 136.967783 -140.370937 
L 142.085288 -140.370937 
L 147.202794 -140.370937 
L 152.320299 -140.370937 
L 157.437805 -140.370937 
L 162.55531 -140.370937 
L 167.672816 -140.370937 
L 172.790321 -140.370937 
L 177.907827 -140.370937 
L 183.025332 -140.273988 
L 188.142837 -140.080088 
L 193.260343 -139.78924 
L 198.377848 -139.401441 
L 203.495354 -138.916693 
L 208.612859 -138.334996 
L 213.730365 -137.656348 
L 218.84787 -136.880752 
L 223.965376 -136.008205 
L 229.082881 -135.038709 
L 234.200386 -133.972264 
L 239.317892 -132.808868 
L 244.435397 -131.548524 
L 249.552903 -130.191229 
L 254.670408 -128.736985 
L 259.787914 -127.185792 
L 264.905419 -125.537648 
L 270.022925 -123.792556 
L 275.14043 -121.950513 
L 280.257935 -120.011521 
L 285.375441 -118.169479 
L 290.492946 -116.424386 
L 295.610452 -114.776243 
L 300.727957 -113.225049 
L 305.845463 -111.770805 
L 310.962968 -110.413511 
L 316.080474 -109.153166 
L 321.197979 -107.989771 
L 326.315484 -106.923325 
L 331.43299 -105.953829 
L 336.550495 -105.081283 
L 341.668001 -104.305686 
L 346.785506 -103.627039 
L 351.903012 -103.045341 
L 357.020517 -102.560593 
L 362.138023 -102.172795 
L 367.255528 -101.881946 
L 372.373033 -101.688047 
L 377.490539 -101.591097 
L 382.608044 -101.591097 
L 387.72555 -101.591097 
L 392.843055 -101.591097 
L 397.960561 -101.591097 
L 403.078066 -101.591097 
L 408.195572 -101.591097 
L 413.313077 -101.591097 
L 418.430582 -101.591097 
L 423.548088 -101.591097 
L 428.665593 -101.591097 
L 433.783099 -101.591097 
L 433.783099 -103.430094 
L 433.783099 -103.430094 
L 428.665593 -103.430094 
L 423.548088 -103.430094 
L 418.430582 -103.430094 
L 413.313077 -103.430094 
L 408.195572 -103.430094 
L 403.078066 -103.430094 
L 397.960561 -103.430094 
L 392.843055 -103.430094 
L 387.72555 -103.430094 
L 382.608044 -103.430094 
L 377.490539 -103.430094 
L 372.373033 -103.527043 
L 367.255528 -103.720942 
L 362.138023 -104.011791 
L 357.020517 -104.39959 
L 351.903012 -104.884338 
L 346.785506 -105.466035 
L 341.668001 -106.144682 
L 336.550495 -106.920279 
L 331.43299 -107.792826 
L 326.315484 -108.762322 
L 321.197979 -109.828767 
L 316.080474 -110.992162 
L 310.962968 -112.252507 
L 305.845463 -113.609802 
L 300.727957 -115.064046 
L 295.610452 -116.615239 
L 290.492946 -118.263382 
L 285.375441 -120.008475 
L 280.257935 -121.850518 
L 275.14043 -123.78951 
L 270.022925 -125.631552 
L 264.905419 -127.376645 
L 259.787914 -129.024788 
L 254.670408 -130.575982 
L 249.552903 -132.030226 
L 244.435397 -133.38752 
L 239.317892 -134.647865 
L 234.200386 -135.81126 
L 229.082881 -136.877706 
L 223.965376 -137.847202 
L 218.84787 -138.719748 
L 213.730365 -139.495345 
L 208.612859 -140.173992 
L 203.495354 -140.75569 
L 198.377848 -141.240438 
L 193.260343 -141.628236 
L 188.142837 -141.919085 
L 183.025332 -142.112984 
L 177.907827 -142.209934 
L 172.790321 -142.209934 
L 167.672816 -142.209934 
L 162.55531 -142.209934 
L 157.437805 -142.209934 
L 152.320299 -142.209934 
L 147.202794 -142.209934 
L 142.085288 -142.209934 
L 136.967783 -142.209934 
L 131.850277 -142.209934 
L 126.732772 -142.209934 
L 121.615267 -142.209934 
z
" style="stroke: #db5f57; stroke-opacity: 0.65"/>
    </defs>
    <g clip-path="url(#pbb4502a8ff)">
     <use xlink:href="#m4ebadfb29a" x="0" y="280.512" style="fill: #db5f57; fill-opacity: 0.65; stroke: #db5f57; stroke-opacity: 0.65"/>
    </g>
   </g>
   <g id="PolyCollection_17">
    <defs>
     <path id="m5284088cf4" d="M 121.615267 -142.439808 
L 121.615267 -142.209934 
L 126.732772 -142.209934 
L 131.850277 -142.209934 
L 136.967783 -142.209934 
L 142.085288 -142.209934 
L 147.202794 -142.209934 
L 152.320299 -142.209934 
L 157.437805 -142.209934 
L 162.55531 -142.209934 
L 167.672816 -142.209934 
L 172.790321 -142.209934 
L 177.907827 -142.209934 
L 183.025332 -142.183584 
L 188.142837 -142.130886 
L 193.260343 -142.051838 
L 198.377848 -141.94644 
L 203.495354 -141.814693 
L 208.612859 -141.656597 
L 213.730365 -141.472151 
L 218.84787 -141.261356 
L 223.965376 -141.024212 
L 229.082881 -140.760718 
L 234.200386 -140.470875 
L 239.317892 -140.154683 
L 244.435397 -139.812141 
L 249.552903 -139.44325 
L 254.670408 -139.048009 
L 259.787914 -138.626419 
L 264.905419 -138.17848 
L 270.022925 -137.704191 
L 275.14043 -137.203553 
L 280.257935 -136.676566 
L 285.375441 -136.175927 
L 290.492946 -135.701639 
L 295.610452 -135.253699 
L 300.727957 -134.832109 
L 305.845463 -134.436869 
L 310.962968 -134.067978 
L 316.080474 -133.725436 
L 321.197979 -133.409243 
L 326.315484 -133.1194 
L 331.43299 -132.855906 
L 336.550495 -132.618762 
L 341.668001 -132.407967 
L 346.785506 -132.223522 
L 351.903012 -132.065425 
L 357.020517 -131.933678 
L 362.138023 -131.828281 
L 367.255528 -131.749233 
L 372.373033 -131.696534 
L 377.490539 -131.670185 
L 382.608044 -131.670185 
L 387.72555 -131.670185 
L 392.843055 -131.670185 
L 397.960561 -131.670185 
L 403.078066 -131.670185 
L 408.195572 -131.670185 
L 413.313077 -131.670185 
L 418.430582 -131.670185 
L 423.548088 -131.670185 
L 428.665593 -131.670185 
L 433.783099 -131.670185 
L 433.783099 -131.900059 
L 433.783099 -131.900059 
L 428.665593 -131.900059 
L 423.548088 -131.900059 
L 418.430582 -131.900059 
L 413.313077 -131.900059 
L 408.195572 -131.900059 
L 403.078066 -131.900059 
L 397.960561 -131.900059 
L 392.843055 -131.900059 
L 387.72555 -131.900059 
L 382.608044 -131.900059 
L 377.490539 -131.900059 
L 372.373033 -131.926409 
L 367.255528 -131.979107 
L 362.138023 -132.058156 
L 357.020517 -132.163553 
L 351.903012 -132.2953 
L 346.785506 -132.453396 
L 341.668001 -132.637842 
L 336.550495 -132.848637 
L 331.43299 -133.085781 
L 326.315484 -133.349275 
L 321.197979 -133.639118 
L 316.080474 -133.95531 
L 310.962968 -134.297852 
L 305.845463 -134.666743 
L 300.727957 -135.061984 
L 295.610452 -135.483574 
L 290.492946 -135.931513 
L 285.375441 -136.405802 
L 280.257935 -136.90644 
L 275.14043 -137.433428 
L 270.022925 -137.934066 
L 264.905419 -138.408354 
L 259.787914 -138.856294 
L 254.670408 -139.277884 
L 249.552903 -139.673124 
L 244.435397 -140.042016 
L 239.317892 -140.384557 
L 234.200386 -140.70075 
L 229.082881 -140.990593 
L 223.965376 -141.254087 
L 218.84787 -141.491231 
L 213.730365 -141.702026 
L 208.612859 -141.886472 
L 203.495354 -142.044568 
L 198.377848 -142.176315 
L 193.260343 -142.281712 
L 188.142837 -142.36076 
L 183.025332 -142.413459 
L 177.907827 -142.439808 
L 172.790321 -142.439808 
L 167.672816 -142.439808 
L 162.55531 -142.439808 
L 157.437805 -142.439808 
L 152.320299 -142.439808 
L 147.202794 -142.439808 
L 142.085288 -142.439808 
L 136.967783 -142.439808 
L 131.850277 -142.439808 
L 126.732772 -142.439808 
L 121.615267 -142.439808 
z
" style="stroke: #db5f57; stroke-opacity: 0.65"/>
    </defs>
    <g clip-path="url(#pbb4502a8ff)">
     <use xlink:href="#m5284088cf4" x="0" y="280.512" style="fill: #db5f57; fill-opacity: 0.65; stroke: #db5f57; stroke-opacity: 0.65"/>
    </g>
   </g>
   <g id="PolyCollection_18">
    <defs>
     <path id="m6fde7499c6" d="M 121.615267 -142.899558 
L 121.615267 -142.439808 
L 126.732772 -142.439808 
L 131.850277 -142.439808 
L 136.967783 -142.439808 
L 142.085288 -142.439808 
L 147.202794 -142.439808 
L 152.320299 -142.439808 
L 157.437805 -142.439808 
L 162.55531 -142.439808 
L 167.672816 -142.439808 
L 172.790321 -142.439808 
L 177.907827 -142.439808 
L 183.025332 -142.438659 
L 188.142837 -142.43636 
L 193.260343 -142.432912 
L 198.377848 -142.428315 
L 203.495354 -142.422568 
L 208.612859 -142.415672 
L 213.730365 -142.407626 
L 218.84787 -142.398431 
L 223.965376 -142.388087 
L 229.082881 -142.376593 
L 234.200386 -142.36395 
L 239.317892 -142.350157 
L 244.435397 -142.335216 
L 249.552903 -142.319124 
L 254.670408 -142.301884 
L 259.787914 -142.283494 
L 264.905419 -142.263954 
L 270.022925 -142.243266 
L 275.14043 -142.221428 
L 280.257935 -142.19844 
L 285.375441 -142.176602 
L 290.492946 -142.155913 
L 295.610452 -142.136374 
L 300.727957 -142.117984 
L 305.845463 -142.100743 
L 310.962968 -142.084652 
L 316.080474 -142.06971 
L 321.197979 -142.055918 
L 326.315484 -142.043275 
L 331.43299 -142.031781 
L 336.550495 -142.021437 
L 341.668001 -142.012242 
L 346.785506 -142.004196 
L 351.903012 -141.9973 
L 357.020517 -141.991553 
L 362.138023 -141.986956 
L 367.255528 -141.983507 
L 372.373033 -141.981209 
L 377.490539 -141.980059 
L 382.608044 -141.980059 
L 387.72555 -141.980059 
L 392.843055 -141.980059 
L 397.960561 -141.980059 
L 403.078066 -141.980059 
L 408.195572 -141.980059 
L 413.313077 -141.980059 
L 418.430582 -141.980059 
L 423.548088 -141.980059 
L 428.665593 -141.980059 
L 433.783099 -141.980059 
L 433.783099 -142.439808 
L 433.783099 -142.439808 
L 428.665593 -142.439808 
L 423.548088 -142.439808 
L 418.430582 -142.439808 
L 413.313077 -142.439808 
L 408.195572 -142.439808 
L 403.078066 -142.439808 
L 397.960561 -142.439808 
L 392.843055 -142.439808 
L 387.72555 -142.439808 
L 382.608044 -142.439808 
L 377.490539 -142.439808 
L 372.373033 -142.440958 
L 367.255528 -142.443257 
L 362.138023 -142.446705 
L 357.020517 -142.451302 
L 351.903012 -142.457049 
L 346.785506 -142.463945 
L 341.668001 -142.471991 
L 336.550495 -142.481186 
L 331.43299 -142.49153 
L 326.315484 -142.503024 
L 321.197979 -142.515667 
L 316.080474 -142.52946 
L 310.962968 -142.544401 
L 305.845463 -142.560493 
L 300.727957 -142.577733 
L 295.610452 -142.596123 
L 290.492946 -142.615662 
L 285.375441 -142.636351 
L 280.257935 -142.658189 
L 275.14043 -142.681177 
L 270.022925 -142.703015 
L 264.905419 -142.723704 
L 259.787914 -142.743243 
L 254.670408 -142.761633 
L 249.552903 -142.778873 
L 244.435397 -142.794965 
L 239.317892 -142.809906 
L 234.200386 -142.823699 
L 229.082881 -142.836342 
L 223.965376 -142.847836 
L 218.84787 -142.85818 
L 213.730365 -142.867375 
L 208.612859 -142.875421 
L 203.495354 -142.882317 
L 198.377848 -142.888064 
L 193.260343 -142.892661 
L 188.142837 -142.896109 
L 183.025332 -142.898408 
L 177.907827 -142.899558 
L 172.790321 -142.899558 
L 167.672816 -142.899558 
L 162.55531 -142.899558 
L 157.437805 -142.899558 
L 152.320299 -142.899558 
L 147.202794 -142.899558 
L 142.085288 -142.899558 
L 136.967783 -142.899558 
L 131.850277 -142.899558 
L 126.732772 -142.899558 
L 121.615267 -142.899558 
z
" style="stroke: #db5f57; stroke-opacity: 0.65"/>
    </defs>
    <g clip-path="url(#pbb4502a8ff)">
     <use xlink:href="#m6fde7499c6" x="0" y="280.512" style="fill: #db5f57; fill-opacity: 0.65; stroke: #db5f57; stroke-opacity: 0.65"/>
    </g>
   </g>
   <g id="PolyCollection_19">
    <defs>
     <path id="ma5b3ecfeb0" d="M 121.615267 -204.965692 
L 121.615267 -142.899558 
L 126.732772 -142.899558 
L 131.850277 -142.899558 
L 136.967783 -142.899558 
L 142.085288 -142.899558 
L 147.202794 -142.899558 
L 152.320299 -142.899558 
L 157.437805 -142.899558 
L 162.55531 -142.899558 
L 167.672816 -142.899558 
L 172.790321 -142.899558 
L 177.907827 -142.899558 
L 183.025332 -142.924758 
L 188.142837 -142.975158 
L 193.260343 -143.050758 
L 198.377848 -143.151558 
L 203.495354 -143.277558 
L 208.612859 -143.428758 
L 213.730365 -143.605158 
L 218.84787 -143.806758 
L 223.965376 -144.033558 
L 229.082881 -144.285558 
L 234.200386 -144.562758 
L 239.317892 -144.865158 
L 244.435397 -145.192758 
L 249.552903 -145.545558 
L 254.670408 -145.923558 
L 259.787914 -146.326758 
L 264.905419 -146.755158 
L 270.022925 -147.208758 
L 275.14043 -147.687558 
L 280.257935 -148.191558 
L 285.375441 -148.670358 
L 290.492946 -149.123958 
L 295.610452 -149.552358 
L 300.727957 -149.955558 
L 305.845463 -150.333558 
L 310.962968 -150.686358 
L 316.080474 -151.013958 
L 321.197979 -151.316358 
L 326.315484 -151.593558 
L 331.43299 -151.845558 
L 336.550495 -152.072358 
L 341.668001 -152.273958 
L 346.785506 -152.450358 
L 351.903012 -152.601558 
L 357.020517 -152.727558 
L 362.138023 -152.828358 
L 367.255528 -152.903958 
L 372.373033 -152.954358 
L 377.490539 -152.979558 
L 382.608044 -152.979558 
L 387.72555 -152.979558 
L 392.843055 -152.979558 
L 397.960561 -152.979558 
L 403.078066 -152.979558 
L 408.195572 -152.979558 
L 413.313077 -152.979558 
L 418.430582 -152.979558 
L 423.548088 -152.979558 
L 428.665593 -152.979558 
L 433.783099 -152.979558 
L 433.783099 -215.045692 
L 433.783099 -215.045692 
L 428.665593 -215.045692 
L 423.548088 -215.045692 
L 418.430582 -215.045692 
L 413.313077 -215.045692 
L 408.195572 -215.045692 
L 403.078066 -215.045692 
L 397.960561 -215.045692 
L 392.843055 -215.045692 
L 387.72555 -215.045692 
L 382.608044 -215.045692 
L 377.490539 -215.045692 
L 372.373033 -215.020492 
L 367.255528 -214.970092 
L 362.138023 -214.894492 
L 357.020517 -214.793692 
L 351.903012 -214.667692 
L 346.785506 -214.516492 
L 341.668001 -214.340092 
L 336.550495 -214.138492 
L 331.43299 -213.911692 
L 326.315484 -213.659692 
L 321.197979 -213.382492 
L 316.080474 -213.080092 
L 310.962968 -212.752492 
L 305.845463 -212.399692 
L 300.727957 -212.021692 
L 295.610452 -211.618492 
L 290.492946 -211.190092 
L 285.375441 -210.736492 
L 280.257935 -210.257692 
L 275.14043 -209.753692 
L 270.022925 -209.274892 
L 264.905419 -208.821292 
L 259.787914 -208.392892 
L 254.670408 -207.989692 
L 249.552903 -207.611692 
L 244.435397 -207.258892 
L 239.317892 -206.931292 
L 234.200386 -206.628892 
L 229.082881 -206.351692 
L 223.965376 -206.099692 
L 218.84787 -205.872892 
L 213.730365 -205.671292 
L 208.612859 -205.494892 
L 203.495354 -205.343692 
L 198.377848 -205.217692 
L 193.260343 -205.116892 
L 188.142837 -205.041292 
L 183.025332 -204.990892 
L 177.907827 -204.965692 
L 172.790321 -204.965692 
L 167.672816 -204.965692 
L 162.55531 -204.965692 
L 157.437805 -204.965692 
L 152.320299 -204.965692 
L 147.202794 -204.965692 
L 142.085288 -204.965692 
L 136.967783 -204.965692 
L 131.850277 -204.965692 
L 126.732772 -204.965692 
L 121.615267 -204.965692 
z
" style="stroke: #db5f57; stroke-opacity: 0.65"/>
    </defs>
    <g clip-path="url(#pbb4502a8ff)">
     <use xlink:href="#ma5b3ecfeb0" x="0" y="280.512" style="fill: #db5f57; fill-opacity: 0.65; stroke: #db5f57; stroke-opacity: 0.65"/>
    </g>
   </g>
   <g id="PolyCollection_20">
    <defs>
     <path id="m83e42fee25" d="M 121.615267 -221.712055 
L 121.615267 -215.045692 
L 126.732772 -215.045692 
L 131.850277 -215.045692 
L 136.967783 -215.045692 
L 142.085288 -215.045692 
L 147.202794 -215.045692 
L 152.320299 -215.045692 
L 157.437805 -215.045692 
L 162.55531 -215.045692 
L 167.672816 -215.045692 
L 172.790321 -215.045692 
L 177.907827 -215.045692 
L 183.025332 -215.045692 
L 188.142837 -215.045692 
L 193.260343 -215.045692 
L 198.377848 -215.045692 
L 203.495354 -215.045692 
L 208.612859 -215.045692 
L 213.730365 -215.045692 
L 218.84787 -215.045692 
L 223.965376 -215.045692 
L 229.082881 -215.045692 
L 234.200386 -215.045692 
L 239.317892 -215.045692 
L 244.435397 -215.045692 
L 249.552903 -215.045692 
L 254.670408 -215.045692 
L 259.787914 -215.045692 
L 264.905419 -215.045692 
L 270.022925 -215.045692 
L 275.14043 -215.045692 
L 280.257935 -215.045692 
L 285.375441 -215.045692 
L 290.492946 -215.045692 
L 295.610452 -215.045692 
L 300.727957 -215.045692 
L 305.845463 -215.045692 
L 310.962968 -215.045692 
L 316.080474 -215.045692 
L 321.197979 -215.045692 
L 326.315484 -215.045692 
L 331.43299 -215.045692 
L 336.550495 -215.045692 
L 341.668001 -215.045692 
L 346.785506 -215.045692 
L 351.903012 -215.045692 
L 357.020517 -215.045692 
L 362.138023 -215.045692 
L 367.255528 -215.045692 
L 372.373033 -215.045692 
L 377.490539 -215.045692 
L 382.608044 -215.045692 
L 387.72555 -215.045692 
L 392.843055 -215.045692 
L 397.960561 -215.045692 
L 403.078066 -215.045692 
L 408.195572 -215.045692 
L 413.313077 -215.045692 
L 418.430582 -215.045692 
L 423.548088 -215.045692 
L 428.665593 -215.045692 
L 433.783099 -215.045692 
L 433.783099 -221.712055 
L 433.783099 -221.712055 
L 428.665593 -221.712055 
L 423.548088 -221.712055 
L 418.430582 -221.712055 
L 413.313077 -221.712055 
L 408.195572 -221.712055 
L 403.078066 -221.712055 
L 397.960561 -221.712055 
L 392.843055 -221.712055 
L 387.72555 -221.712055 
L 382.608044 -221.712055 
L 377.490539 -221.712055 
L 372.373033 -221.712055 
L 367.255528 -221.712055 
L 362.138023 -221.712055 
L 357.020517 -221.712055 
L 351.903012 -221.712055 
L 346.785506 -221.712055 
L 341.668001 -221.712055 
L 336.550495 -221.712055 
L 331.43299 -221.712055 
L 326.315484 -221.712055 
L 321.197979 -221.712055 
L 316.080474 -221.712055 
L 310.962968 -221.712055 
L 305.845463 -221.712055 
L 300.727957 -221.712055 
L 295.610452 -221.712055 
L 290.492946 -221.712055 
L 285.375441 -221.712055 
L 280.257935 -221.712055 
L 275.14043 -221.712055 
L 270.022925 -221.712055 
L 264.905419 -221.712055 
L 259.787914 -221.712055 
L 254.670408 -221.712055 
L 249.552903 -221.712055 
L 244.435397 -221.712055 
L 239.317892 -221.712055 
L 234.200386 -221.712055 
L 229.082881 -221.712055 
L 223.965376 -221.712055 
L 218.84787 -221.712055 
L 213.730365 -221.712055 
L 208.612859 -221.712055 
L 203.495354 -221.712055 
L 198.377848 -221.712055 
L 193.260343 -221.712055 
L 188.142837 -221.712055 
L 183.025332 -221.712055 
L 177.907827 -221.712055 
L 172.790321 -221.712055 
L 167.672816 -221.712055 
L 162.55531 -221.712055 
L 157.437805 -221.712055 
L 152.320299 -221.712055 
L 147.202794 -221.712055 
L 142.085288 -221.712055 
L 136.967783 -221.712055 
L 131.850277 -221.712055 
L 126.732772 -221.712055 
L 121.615267 -221.712055 
z
" style="stroke: #d3db57; stroke-opacity: 0.65"/>
    </defs>
    <g clip-path="url(#pbb4502a8ff)">
     <use xlink:href="#m83e42fee25" x="0" y="280.512" style="fill: #d3db57; fill-opacity: 0.65; stroke: #d3db57; stroke-opacity: 0.65"/>
    </g>
   </g>
   <g id="PolyCollection_21">
    <defs>
     <path id="m4a078a320f" d="M 121.615267 -232.021929 
L 121.615267 -231.792055 
L 126.732772 -231.792055 
L 131.850277 -231.792055 
L 136.967783 -231.792055 
L 142.085288 -231.792055 
L 147.202794 -231.792055 
L 152.320299 -231.792055 
L 157.437805 -231.792055 
L 162.55531 -231.792055 
L 167.672816 -231.792055 
L 172.790321 -231.792055 
L 177.907827 -231.792055 
L 183.025332 -231.766855 
L 188.142837 -231.716455 
L 193.260343 -231.640855 
L 198.377848 -231.540055 
L 203.495354 -231.414055 
L 208.612859 -231.262855 
L 213.730365 -231.086455 
L 218.84787 -230.884855 
L 223.965376 -230.658055 
L 229.082881 -230.406055 
L 234.200386 -230.128855 
L 239.317892 -229.826455 
L 244.435397 -229.498855 
L 249.552903 -229.146055 
L 254.670408 -228.768055 
L 259.787914 -228.364855 
L 264.905419 -227.936455 
L 270.022925 -227.482855 
L 275.14043 -227.004055 
L 280.257935 -226.500055 
L 285.375441 -226.021255 
L 290.492946 -225.567655 
L 295.610452 -225.139255 
L 300.727957 -224.736055 
L 305.845463 -224.358055 
L 310.962968 -224.005255 
L 316.080474 -223.677655 
L 321.197979 -223.375255 
L 326.315484 -223.098055 
L 331.43299 -222.846055 
L 336.550495 -222.619255 
L 341.668001 -222.417655 
L 346.785506 -222.241255 
L 351.903012 -222.090055 
L 357.020517 -221.964055 
L 362.138023 -221.863255 
L 367.255528 -221.787655 
L 372.373033 -221.737255 
L 377.490539 -221.712055 
L 382.608044 -221.712055 
L 387.72555 -221.712055 
L 392.843055 -221.712055 
L 397.960561 -221.712055 
L 403.078066 -221.712055 
L 408.195572 -221.712055 
L 413.313077 -221.712055 
L 418.430582 -221.712055 
L 423.548088 -221.712055 
L 428.665593 -221.712055 
L 433.783099 -221.712055 
L 433.783099 -221.941929 
L 433.783099 -221.941929 
L 428.665593 -221.941929 
L 423.548088 -221.941929 
L 418.430582 -221.941929 
L 413.313077 -221.941929 
L 408.195572 -221.941929 
L 403.078066 -221.941929 
L 397.960561 -221.941929 
L 392.843055 -221.941929 
L 387.72555 -221.941929 
L 382.608044 -221.941929 
L 377.490539 -221.941929 
L 372.373033 -221.967129 
L 367.255528 -222.017529 
L 362.138023 -222.093129 
L 357.020517 -222.193929 
L 351.903012 -222.319929 
L 346.785506 -222.471129 
L 341.668001 -222.647529 
L 336.550495 -222.849129 
L 331.43299 -223.075929 
L 326.315484 -223.327929 
L 321.197979 -223.605129 
L 316.080474 -223.907529 
L 310.962968 -224.235129 
L 305.845463 -224.587929 
L 300.727957 -224.965929 
L 295.610452 -225.369129 
L 290.492946 -225.797529 
L 285.375441 -226.251129 
L 280.257935 -226.729929 
L 275.14043 -227.233929 
L 270.022925 -227.712729 
L 264.905419 -228.166329 
L 259.787914 -228.594729 
L 254.670408 -228.997929 
L 249.552903 -229.375929 
L 244.435397 -229.728729 
L 239.317892 -230.056329 
L 234.200386 -230.358729 
L 229.082881 -230.635929 
L 223.965376 -230.887929 
L 218.84787 -231.114729 
L 213.730365 -231.316329 
L 208.612859 -231.492729 
L 203.495354 -231.643929 
L 198.377848 -231.769929 
L 193.260343 -231.870729 
L 188.142837 -231.946329 
L 183.025332 -231.996729 
L 177.907827 -232.021929 
L 172.790321 -232.021929 
L 167.672816 -232.021929 
L 162.55531 -232.021929 
L 157.437805 -232.021929 
L 152.320299 -232.021929 
L 147.202794 -232.021929 
L 142.085288 -232.021929 
L 136.967783 -232.021929 
L 131.850277 -232.021929 
L 126.732772 -232.021929 
L 121.615267 -232.021929 
z
" style="stroke: #57d3db; stroke-opacity: 0.65"/>
    </defs>
    <g clip-path="url(#pbb4502a8ff)">
     <use xlink:href="#m4a078a320f" x="0" y="280.512" style="fill: #57d3db; fill-opacity: 0.65; stroke: #57d3db; stroke-opacity: 0.65"/>
    </g>
   </g>
   <g id="PolyCollection_22">
    <defs>
     <path id="m3ef7b40794" d="M 121.615267 -261.216 
L 121.615267 -232.021929 
L 126.732772 -232.021929 
L 131.850277 -232.021929 
L 136.967783 -232.021929 
L 142.085288 -232.021929 
L 147.202794 -232.021929 
L 152.320299 -232.021929 
L 157.437805 -232.021929 
L 162.55531 -232.021929 
L 167.672816 -232.021929 
L 172.790321 -232.021929 
L 177.907827 -232.021929 
L 183.025332 -232.021929 
L 188.142837 -232.021929 
L 193.260343 -232.021929 
L 198.377848 -232.021929 
L 203.495354 -232.021929 
L 208.612859 -232.021929 
L 213.730365 -232.021929 
L 218.84787 -232.021929 
L 223.965376 -232.021929 
L 229.082881 -232.021929 
L 234.200386 -232.021929 
L 239.317892 -232.021929 
L 244.435397 -232.021929 
L 249.552903 -232.021929 
L 254.670408 -232.021929 
L 259.787914 -232.021929 
L 264.905419 -232.021929 
L 270.022925 -232.021929 
L 275.14043 -232.021929 
L 280.257935 -232.021929 
L 285.375441 -232.021929 
L 290.492946 -232.021929 
L 295.610452 -232.021929 
L 300.727957 -232.021929 
L 305.845463 -232.021929 
L 310.962968 -232.021929 
L 316.080474 -232.021929 
L 321.197979 -232.021929 
L 326.315484 -232.021929 
L 331.43299 -232.021929 
L 336.550495 -232.021929 
L 341.668001 -232.021929 
L 346.785506 -232.021929 
L 351.903012 -232.021929 
L 357.020517 -232.021929 
L 362.138023 -232.021929 
L 367.255528 -232.021929 
L 372.373033 -232.021929 
L 377.490539 -232.021929 
L 382.608044 -232.021929 
L 387.72555 -232.021929 
L 392.843055 -232.021929 
L 397.960561 -232.021929 
L 403.078066 -232.021929 
L 408.195572 -232.021929 
L 413.313077 -232.021929 
L 418.430582 -232.021929 
L 423.548088 -232.021929 
L 428.665593 -232.021929 
L 433.783099 -232.021929 
L 433.783099 -261.216 
L 433.783099 -261.216 
L 428.665593 -261.216 
L 423.548088 -261.216 
L 418.430582 -261.216 
L 413.313077 -261.216 
L 408.195572 -261.216 
L 403.078066 -261.216 
L 397.960561 -261.216 
L 392.843055 -261.216 
L 387.72555 -261.216 
L 382.608044 -261.216 
L 377.490539 -261.216 
L 372.373033 -261.216 
L 367.255528 -261.216 
L 362.138023 -261.216 
L 357.020517 -261.216 
L 351.903012 -261.216 
L 346.785506 -261.216 
L 341.668001 -261.216 
L 336.550495 -261.216 
L 331.43299 -261.216 
L 326.315484 -261.216 
L 321.197979 -261.216 
L 316.080474 -261.216 
L 310.962968 -261.216 
L 305.845463 -261.216 
L 300.727957 -261.216 
L 295.610452 -261.216 
L 290.492946 -261.216 
L 285.375441 -261.216 
L 280.257935 -261.216 
L 275.14043 -261.216 
L 270.022925 -261.216 
L 264.905419 -261.216 
L 259.787914 -261.216 
L 254.670408 -261.216 
L 249.552903 -261.216 
L 244.435397 -261.216 
L 239.317892 -261.216 
L 234.200386 -261.216 
L 229.082881 -261.216 
L 223.965376 -261.216 
L 218.84787 -261.216 
L 213.730365 -261.216 
L 208.612859 -261.216 
L 203.495354 -261.216 
L 198.377848 -261.216 
L 193.260343 -261.216 
L 188.142837 -261.216 
L 183.025332 -261.216 
L 177.907827 -261.216 
L 172.790321 -261.216 
L 167.672816 -261.216 
L 162.55531 -261.216 
L 157.437805 -261.216 
L 152.320299 -261.216 
L 147.202794 -261.216 
L 142.085288 -261.216 
L 136.967783 -261.216 
L 131.850277 -261.216 
L 126.732772 -261.216 
L 121.615267 -261.216 
z
" style="stroke: #57d3db; stroke-opacity: 0.65"/>
    </defs>
    <g clip-path="url(#pbb4502a8ff)">
     <use xlink:href="#m3ef7b40794" x="0" y="280.512" style="fill: #57d3db; fill-opacity: 0.65; stroke: #57d3db; stroke-opacity: 0.65"/>
    </g>
   </g>
   <g id="text_1">
    <!-- Astrocytes -->
    <g transform="translate(52.2375 222.253765) scale(0.12 -0.12)">
     <defs>
      <path id="TimesNewRomanPS-BoldMT-41" d="M 2663 1206 
L 1166 1206 
L 988 794 
Q 900 588 900 453 
Q 900 275 1044 191 
Q 1128 141 1459 116 
L 1459 0 
L 50 0 
L 50 116 
Q 278 150 425 304 
Q 572 459 788 944 
L 2303 4325 
L 2363 4325 
L 3891 850 
Q 4109 356 4250 228 
Q 4356 131 4550 116 
L 4550 0 
L 2500 0 
L 2500 116 
L 2584 116 
Q 2831 116 2931 184 
Q 3000 234 3000 328 
Q 3000 384 2981 444 
Q 2975 472 2888 678 
L 2663 1206 
z
M 2556 1438 
L 1925 2897 
L 1275 1438 
L 2556 1438 
z
" transform="scale(0.015625)"/>
      <path id="TimesNewRomanPS-BoldMT-73" d="M 2063 3003 
L 2109 2006 
L 2003 2006 
Q 1813 2450 1608 2612 
Q 1403 2775 1200 2775 
Q 1072 2775 981 2689 
Q 891 2603 891 2491 
Q 891 2406 953 2328 
Q 1053 2200 1512 1889 
Q 1972 1578 2117 1361 
Q 2263 1144 2263 875 
Q 2263 631 2141 397 
Q 2019 163 1797 37 
Q 1575 -88 1306 -88 
Q 1097 -88 747 44 
Q 653 78 619 78 
Q 516 78 447 -78 
L 344 -78 
L 294 972 
L 400 972 
Q 541 559 786 353 
Q 1031 147 1250 147 
Q 1400 147 1495 239 
Q 1591 331 1591 463 
Q 1591 613 1497 722 
Q 1403 831 1078 1053 
Q 600 1384 459 1559 
Q 253 1816 253 2125 
Q 253 2463 486 2736 
Q 719 3009 1159 3009 
Q 1397 3009 1619 2894 
Q 1703 2847 1756 2847 
Q 1813 2847 1847 2870 
Q 1881 2894 1956 3003 
L 2063 3003 
z
" transform="scale(0.015625)"/>
      <path id="TimesNewRomanPS-BoldMT-74" d="M 1375 3991 
L 1375 2922 
L 2069 2922 
L 2069 2613 
L 1375 2613 
L 1375 809 
Q 1375 556 1398 482 
Q 1422 409 1481 364 
Q 1541 319 1591 319 
Q 1794 319 1975 628 
L 2069 559 
Q 1816 -41 1247 -41 
Q 969 -41 776 114 
Q 584 269 531 459 
Q 500 566 500 1034 
L 500 2613 
L 119 2613 
L 119 2722 
Q 513 3000 789 3306 
Q 1066 3613 1272 3991 
L 1375 3991 
z
" transform="scale(0.015625)"/>
      <path id="TimesNewRomanPS-BoldMT-72" d="M 1428 2922 
L 1428 2259 
Q 1719 2713 1937 2861 
Q 2156 3009 2359 3009 
Q 2534 3009 2639 2901 
Q 2744 2794 2744 2597 
Q 2744 2388 2642 2272 
Q 2541 2156 2397 2156 
Q 2231 2156 2109 2262 
Q 1988 2369 1966 2381 
Q 1934 2400 1894 2400 
Q 1803 2400 1722 2331 
Q 1594 2225 1528 2028 
Q 1428 1725 1428 1359 
L 1428 688 
L 1431 513 
Q 1431 334 1453 284 
Q 1491 200 1564 161 
Q 1638 122 1813 113 
L 1813 0 
L 234 0 
L 234 113 
Q 425 128 492 217 
Q 559 306 559 688 
L 559 2303 
Q 559 2553 534 2622 
Q 503 2709 443 2750 
Q 384 2791 234 2806 
L 234 2922 
L 1428 2922 
z
" transform="scale(0.015625)"/>
      <path id="TimesNewRomanPS-BoldMT-6f" d="M 1594 3009 
Q 1975 3009 2303 2812 
Q 2631 2616 2801 2253 
Q 2972 1891 2972 1459 
Q 2972 838 2656 419 
Q 2275 -88 1603 -88 
Q 944 -88 587 375 
Q 231 838 231 1447 
Q 231 2075 595 2542 
Q 959 3009 1594 3009 
z
M 1606 2788 
Q 1447 2788 1333 2667 
Q 1219 2547 1183 2192 
Q 1147 1838 1147 1206 
Q 1147 872 1191 581 
Q 1225 359 1337 243 
Q 1450 128 1594 128 
Q 1734 128 1828 206 
Q 1950 313 1991 503 
Q 2053 800 2053 1703 
Q 2053 2234 1993 2432 
Q 1934 2631 1819 2722 
Q 1738 2788 1606 2788 
z
" transform="scale(0.015625)"/>
      <path id="TimesNewRomanPS-BoldMT-63" d="M 2600 753 
L 2697 678 
Q 2491 291 2183 101 
Q 1875 -88 1528 -88 
Q 944 -88 594 353 
Q 244 794 244 1413 
Q 244 2009 563 2463 
Q 947 3009 1622 3009 
Q 2075 3009 2342 2781 
Q 2609 2553 2609 2272 
Q 2609 2094 2501 1987 
Q 2394 1881 2219 1881 
Q 2034 1881 1914 2003 
Q 1794 2125 1766 2438 
Q 1747 2634 1675 2713 
Q 1603 2791 1506 2791 
Q 1356 2791 1250 2631 
Q 1088 2391 1088 1894 
Q 1088 1481 1219 1104 
Q 1350 728 1578 544 
Q 1750 409 1984 409 
Q 2138 409 2275 481 
Q 2413 553 2600 753 
z
" transform="scale(0.015625)"/>
      <path id="TimesNewRomanPS-BoldMT-79" d="M 1556 -119 
L 613 2047 
Q 400 2538 298 2650 
Q 197 2763 53 2806 
L 53 2922 
L 1606 2922 
L 1606 2806 
Q 1453 2800 1390 2747 
Q 1328 2694 1328 2619 
Q 1328 2500 1484 2150 
L 1984 1006 
L 2325 1891 
Q 2509 2363 2509 2547 
Q 2509 2663 2432 2731 
Q 2356 2800 2163 2806 
L 2163 2922 
L 3141 2922 
L 3141 2806 
Q 2997 2791 2906 2695 
Q 2816 2600 2603 2047 
L 1769 -119 
Q 1453 -931 1300 -1119 
Q 1084 -1381 759 -1381 
Q 500 -1381 339 -1232 
Q 178 -1084 178 -875 
Q 178 -694 289 -575 
Q 400 -456 563 -456 
Q 719 -456 814 -556 
Q 909 -656 913 -866 
Q 916 -984 941 -1019 
Q 966 -1053 1013 -1053 
Q 1088 -1053 1172 -963 
Q 1297 -831 1466 -363 
L 1556 -119 
z
" transform="scale(0.015625)"/>
      <path id="TimesNewRomanPS-BoldMT-65" d="M 2691 1566 
L 1088 1566 
Q 1116 984 1397 647 
Q 1613 388 1916 388 
Q 2103 388 2256 492 
Q 2409 597 2584 869 
L 2691 800 
Q 2453 316 2165 114 
Q 1878 -88 1500 -88 
Q 850 -88 516 413 
Q 247 816 247 1413 
Q 247 2144 642 2576 
Q 1038 3009 1569 3009 
Q 2013 3009 2339 2645 
Q 2666 2281 2691 1566 
z
M 1922 1775 
Q 1922 2278 1867 2465 
Q 1813 2653 1697 2750 
Q 1631 2806 1522 2806 
Q 1359 2806 1256 2647 
Q 1072 2369 1072 1884 
L 1072 1775 
L 1922 1775 
z
" transform="scale(0.015625)"/>
     </defs>
     <use xlink:href="#TimesNewRomanPS-BoldMT-41"/>
     <use xlink:href="#TimesNewRomanPS-BoldMT-73" x="72.216797"/>
     <use xlink:href="#TimesNewRomanPS-BoldMT-74" x="111.132812"/>
     <use xlink:href="#TimesNewRomanPS-BoldMT-72" x="144.433594"/>
     <use xlink:href="#TimesNewRomanPS-BoldMT-6f" x="187.068359"/>
     <use xlink:href="#TimesNewRomanPS-BoldMT-63" x="237.068359"/>
     <use xlink:href="#TimesNewRomanPS-BoldMT-79" x="281.453125"/>
     <use xlink:href="#TimesNewRomanPS-BoldMT-74" x="331.453125"/>
     <use xlink:href="#TimesNewRomanPS-BoldMT-65" x="364.753906"/>
     <use xlink:href="#TimesNewRomanPS-BoldMT-73" x="409.138672"/>
    </g>
   </g>
   <g id="text_2">
    <!-- Endothelial Cells -->
    <g transform="translate(18.328125 161.645984) scale(0.12 -0.12)">
     <defs>
      <path id="TimesNewRomanPS-BoldMT-45" d="M 1744 3994 
L 1744 2269 
L 1828 2269 
Q 2231 2269 2412 2522 
Q 2594 2775 2644 3269 
L 2763 3269 
L 2763 1050 
L 2644 1050 
Q 2606 1413 2486 1644 
Q 2366 1875 2206 1954 
Q 2047 2034 1744 2034 
L 1744 841 
Q 1744 491 1773 412 
Q 1803 334 1884 284 
Q 1966 234 2147 234 
L 2400 234 
Q 2994 234 3351 509 
Q 3709 784 3866 1347 
L 3981 1347 
L 3791 0 
L 128 0 
L 128 116 
L 269 116 
Q 453 116 566 181 
Q 647 225 691 331 
Q 725 406 725 725 
L 725 3513 
Q 725 3800 709 3866 
Q 678 3975 594 4034 
Q 475 4122 269 4122 
L 128 4122 
L 128 4238 
L 3675 4238 
L 3675 2984 
L 3556 2984 
Q 3466 3444 3302 3644 
Q 3138 3844 2838 3938 
Q 2663 3994 2181 3994 
L 1744 3994 
z
" transform="scale(0.015625)"/>
      <path id="TimesNewRomanPS-BoldMT-6e" d="M 1409 2922 
L 1409 2544 
Q 1634 2788 1840 2898 
Q 2047 3009 2284 3009 
Q 2569 3009 2756 2851 
Q 2944 2694 3006 2459 
Q 3056 2281 3056 1775 
L 3056 638 
Q 3056 300 3117 217 
Q 3178 134 3372 113 
L 3372 0 
L 1894 0 
L 1894 113 
Q 2059 134 2131 250 
Q 2181 328 2181 638 
L 2181 1938 
Q 2181 2297 2153 2390 
Q 2125 2484 2058 2536 
Q 1991 2588 1909 2588 
Q 1641 2588 1409 2203 
L 1409 638 
Q 1409 309 1470 221 
Q 1531 134 1697 113 
L 1697 0 
L 219 0 
L 219 113 
Q 403 131 481 231 
Q 534 300 534 638 
L 534 2288 
Q 534 2619 473 2700 
Q 413 2781 219 2806 
L 219 2922 
L 1409 2922 
z
" transform="scale(0.015625)"/>
      <path id="TimesNewRomanPS-BoldMT-64" d="M 3056 4238 
L 3056 875 
Q 3056 534 3075 472 
Q 3100 369 3170 319 
Q 3241 269 3416 256 
L 3416 153 
L 2181 -88 
L 2181 375 
Q 1959 106 1786 9 
Q 1613 -88 1394 -88 
Q 834 -88 509 413 
Q 247 819 247 1409 
Q 247 1881 409 2254 
Q 572 2628 855 2818 
Q 1138 3009 1463 3009 
Q 1672 3009 1834 2928 
Q 1997 2847 2181 2644 
L 2181 3525 
Q 2181 3859 2153 3928 
Q 2116 4019 2041 4062 
Q 1966 4106 1759 4106 
L 1759 4238 
L 3056 4238 
z
M 2181 2256 
Q 1950 2700 1616 2700 
Q 1500 2700 1425 2638 
Q 1309 2541 1236 2297 
Q 1163 2053 1163 1550 
Q 1163 997 1244 731 
Q 1325 466 1466 347 
Q 1538 288 1663 288 
Q 1938 288 2181 719 
L 2181 2256 
z
" transform="scale(0.015625)"/>
      <path id="TimesNewRomanPS-BoldMT-68" d="M 1409 4238 
L 1409 2547 
Q 1650 2800 1850 2904 
Q 2050 3009 2266 3009 
Q 2541 3009 2736 2853 
Q 2931 2697 2995 2486 
Q 3059 2275 3059 1775 
L 3059 634 
Q 3059 300 3121 217 
Q 3184 134 3375 113 
L 3375 0 
L 1894 0 
L 1894 113 
Q 2050 134 2128 238 
Q 2184 319 2184 634 
L 2184 1938 
Q 2184 2300 2156 2392 
Q 2128 2484 2061 2536 
Q 1994 2588 1909 2588 
Q 1784 2588 1665 2502 
Q 1547 2416 1409 2200 
L 1409 634 
Q 1409 322 1456 244 
Q 1516 138 1700 113 
L 1700 0 
L 219 0 
L 219 113 
Q 403 131 481 231 
Q 534 300 534 634 
L 534 3603 
Q 534 3934 473 4015 
Q 413 4097 219 4122 
L 219 4238 
L 1409 4238 
z
" transform="scale(0.015625)"/>
      <path id="TimesNewRomanPS-BoldMT-6c" d="M 1359 4238 
L 1359 606 
Q 1359 297 1431 211 
Q 1503 125 1713 113 
L 1713 0 
L 134 0 
L 134 113 
Q 328 119 422 225 
Q 484 297 484 606 
L 484 3631 
Q 484 3938 412 4023 
Q 341 4109 134 4122 
L 134 4238 
L 1359 4238 
z
" transform="scale(0.015625)"/>
      <path id="TimesNewRomanPS-BoldMT-69" d="M 919 4338 
Q 1122 4338 1262 4195 
Q 1403 4053 1403 3853 
Q 1403 3653 1261 3512 
Q 1119 3372 919 3372 
Q 719 3372 578 3512 
Q 438 3653 438 3853 
Q 438 4053 578 4195 
Q 719 4338 919 4338 
z
M 1356 2922 
L 1356 606 
Q 1356 297 1428 211 
Q 1500 125 1709 113 
L 1709 0 
L 131 0 
L 131 113 
Q 325 119 419 225 
Q 481 297 481 606 
L 481 2313 
Q 481 2622 409 2708 
Q 338 2794 131 2806 
L 131 2922 
L 1356 2922 
z
" transform="scale(0.015625)"/>
      <path id="TimesNewRomanPS-BoldMT-61" d="M 1828 431 
Q 1294 -41 869 -41 
Q 619 -41 453 123 
Q 288 288 288 534 
Q 288 869 575 1136 
Q 863 1403 1828 1847 
L 1828 2141 
Q 1828 2472 1792 2558 
Q 1756 2644 1656 2708 
Q 1556 2772 1431 2772 
Q 1228 2772 1097 2681 
Q 1016 2625 1016 2550 
Q 1016 2484 1103 2388 
Q 1222 2253 1222 2128 
Q 1222 1975 1108 1867 
Q 994 1759 809 1759 
Q 613 1759 480 1878 
Q 347 1997 347 2156 
Q 347 2381 525 2586 
Q 703 2791 1022 2900 
Q 1341 3009 1684 3009 
Q 2100 3009 2342 2832 
Q 2584 2656 2656 2450 
Q 2700 2319 2700 1847 
L 2700 713 
Q 2700 513 2715 461 
Q 2731 409 2762 384 
Q 2794 359 2834 359 
Q 2916 359 3000 475 
L 3094 400 
Q 2938 169 2770 64 
Q 2603 -41 2391 -41 
Q 2141 -41 2000 76 
Q 1859 194 1828 431 
z
M 1828 659 
L 1828 1638 
Q 1450 1416 1266 1163 
Q 1144 994 1144 822 
Q 1144 678 1247 569 
Q 1325 484 1466 484 
Q 1622 484 1828 659 
z
" transform="scale(0.015625)"/>
      <path id="TimesNewRomanPS-BoldMT-20" transform="scale(0.015625)"/>
      <path id="TimesNewRomanPS-BoldMT-43" d="M 4272 4334 
L 4272 2866 
L 4150 2866 
Q 4013 3441 3638 3747 
Q 3263 4053 2788 4053 
Q 2391 4053 2059 3825 
Q 1728 3597 1575 3228 
Q 1378 2756 1378 2178 
Q 1378 1609 1522 1142 
Q 1666 675 1972 436 
Q 2278 197 2766 197 
Q 3166 197 3498 372 
Q 3831 547 4200 975 
L 4200 609 
Q 3844 238 3458 70 
Q 3072 -97 2556 -97 
Q 1878 -97 1351 175 
Q 825 447 539 956 
Q 253 1466 253 2041 
Q 253 2647 570 3190 
Q 888 3734 1427 4034 
Q 1966 4334 2572 4334 
Q 3019 4334 3516 4141 
Q 3803 4028 3881 4028 
Q 3981 4028 4054 4101 
Q 4128 4175 4150 4334 
L 4272 4334 
z
" transform="scale(0.015625)"/>
     </defs>
     <use xlink:href="#TimesNewRomanPS-BoldMT-45"/>
     <use xlink:href="#TimesNewRomanPS-BoldMT-6e" x="66.699219"/>
     <use xlink:href="#TimesNewRomanPS-BoldMT-64" x="122.314453"/>
     <use xlink:href="#TimesNewRomanPS-BoldMT-6f" x="177.929688"/>
     <use xlink:href="#TimesNewRomanPS-BoldMT-74" x="227.929688"/>
     <use xlink:href="#TimesNewRomanPS-BoldMT-68" x="261.230469"/>
     <use xlink:href="#TimesNewRomanPS-BoldMT-65" x="316.845703"/>
     <use xlink:href="#TimesNewRomanPS-BoldMT-6c" x="361.230469"/>
     <use xlink:href="#TimesNewRomanPS-BoldMT-69" x="389.013672"/>
     <use xlink:href="#TimesNewRomanPS-BoldMT-61" x="416.796875"/>
     <use xlink:href="#TimesNewRomanPS-BoldMT-6c" x="466.796875"/>
     <use xlink:href="#TimesNewRomanPS-BoldMT-20" x="494.580078"/>
     <use xlink:href="#TimesNewRomanPS-BoldMT-43" x="519.580078"/>
     <use xlink:href="#TimesNewRomanPS-BoldMT-65" x="591.796875"/>
     <use xlink:href="#TimesNewRomanPS-BoldMT-6c" x="636.181641"/>
     <use xlink:href="#TimesNewRomanPS-BoldMT-6c" x="663.964844"/>
     <use xlink:href="#TimesNewRomanPS-BoldMT-73" x="691.748047"/>
    </g>
   </g>
   <g id="text_3">
    <!-- Inhibitory Neurons -->
    <g transform="translate(7.2 110.615873) scale(0.12 -0.12)">
     <defs>
      <path id="TimesNewRomanPS-BoldMT-49" d="M 2344 116 
L 2344 0 
L 128 0 
L 128 116 
L 269 116 
Q 453 116 566 181 
Q 647 225 691 331 
Q 725 406 725 725 
L 725 3513 
Q 725 3838 690 3919 
Q 656 4000 551 4061 
Q 447 4122 269 4122 
L 128 4122 
L 128 4238 
L 2344 4238 
L 2344 4122 
L 2203 4122 
Q 2019 4122 1906 4056 
Q 1825 4013 1778 3906 
Q 1744 3831 1744 3513 
L 1744 725 
Q 1744 400 1780 319 
Q 1816 238 1920 177 
Q 2025 116 2203 116 
L 2344 116 
z
" transform="scale(0.015625)"/>
      <path id="TimesNewRomanPS-BoldMT-62" d="M 1347 4238 
L 1347 2628 
Q 1716 3009 2153 3009 
Q 2453 3009 2718 2832 
Q 2984 2656 3134 2331 
Q 3284 2006 3284 1581 
Q 3284 1103 3093 712 
Q 2903 322 2584 117 
Q 2266 -88 1856 -88 
Q 1619 -88 1434 -12 
Q 1250 63 1072 231 
L 588 -84 
L 481 -84 
L 481 3631 
Q 481 3884 459 3944 
Q 428 4031 361 4073 
Q 294 4116 134 4122 
L 134 4238 
L 1347 4238 
z
M 1347 2350 
L 1347 1050 
Q 1347 653 1366 544 
Q 1397 359 1515 245 
Q 1634 131 1819 131 
Q 1978 131 2092 222 
Q 2206 313 2282 581 
Q 2359 850 2359 1550 
Q 2359 2222 2191 2472 
Q 2069 2653 1863 2653 
Q 1594 2653 1347 2350 
z
" transform="scale(0.015625)"/>
      <path id="TimesNewRomanPS-BoldMT-4e" d="M 1594 4238 
L 3684 1609 
L 3684 3431 
Q 3684 3813 3575 3947 
Q 3425 4128 3072 4122 
L 3072 4238 
L 4472 4238 
L 4472 4122 
Q 4203 4088 4111 4033 
Q 4019 3978 3967 3854 
Q 3916 3731 3916 3431 
L 3916 -97 
L 3809 -97 
L 944 3431 
L 944 738 
Q 944 372 1111 244 
Q 1278 116 1494 116 
L 1594 116 
L 1594 0 
L 91 0 
L 91 116 
Q 441 119 578 259 
Q 716 400 716 738 
L 716 3728 
L 625 3841 
Q 491 4009 387 4062 
Q 284 4116 91 4122 
L 91 4238 
L 1594 4238 
z
" transform="scale(0.015625)"/>
      <path id="TimesNewRomanPS-BoldMT-75" d="M 3038 2922 
L 3038 634 
Q 3038 300 3100 217 
Q 3163 134 3353 113 
L 3353 0 
L 2163 0 
L 2163 391 
Q 1953 141 1743 26 
Q 1534 -88 1275 -88 
Q 1028 -88 836 64 
Q 644 216 578 419 
Q 513 622 513 1128 
L 513 2288 
Q 513 2619 452 2700 
Q 391 2781 197 2806 
L 197 2922 
L 1388 2922 
L 1388 925 
Q 1388 613 1417 522 
Q 1447 431 1511 384 
Q 1575 338 1659 338 
Q 1772 338 1863 397 
Q 1988 478 2163 725 
L 2163 2288 
Q 2163 2619 2102 2700 
Q 2041 2781 1847 2806 
L 1847 2922 
L 3038 2922 
z
" transform="scale(0.015625)"/>
     </defs>
     <use xlink:href="#TimesNewRomanPS-BoldMT-49"/>
     <use xlink:href="#TimesNewRomanPS-BoldMT-6e" x="38.916016"/>
     <use xlink:href="#TimesNewRomanPS-BoldMT-68" x="94.53125"/>
     <use xlink:href="#TimesNewRomanPS-BoldMT-69" x="150.146484"/>
     <use xlink:href="#TimesNewRomanPS-BoldMT-62" x="177.929688"/>
     <use xlink:href="#TimesNewRomanPS-BoldMT-69" x="233.544922"/>
     <use xlink:href="#TimesNewRomanPS-BoldMT-74" x="261.328125"/>
     <use xlink:href="#TimesNewRomanPS-BoldMT-6f" x="294.628906"/>
     <use xlink:href="#TimesNewRomanPS-BoldMT-72" x="344.628906"/>
     <use xlink:href="#TimesNewRomanPS-BoldMT-79" x="389.013672"/>
     <use xlink:href="#TimesNewRomanPS-BoldMT-20" x="439.013672"/>
     <use xlink:href="#TimesNewRomanPS-BoldMT-4e" x="464.013672"/>
     <use xlink:href="#TimesNewRomanPS-BoldMT-65" x="536.230469"/>
     <use xlink:href="#TimesNewRomanPS-BoldMT-75" x="580.615234"/>
     <use xlink:href="#TimesNewRomanPS-BoldMT-72" x="636.230469"/>
     <use xlink:href="#TimesNewRomanPS-BoldMT-6f" x="678.865234"/>
     <use xlink:href="#TimesNewRomanPS-BoldMT-6e" x="728.865234"/>
     <use xlink:href="#TimesNewRomanPS-BoldMT-73" x="784.480469"/>
    </g>
   </g>
   <g id="text_4">
    <!-- Microglia -->
    <g transform="translate(56.235 64.905314) scale(0.12 -0.12)">
     <defs>
      <path id="TimesNewRomanPS-BoldMT-4d" d="M 3050 1444 
L 4200 4238 
L 5925 4238 
L 5925 4122 
L 5788 4122 
Q 5600 4122 5488 4056 
Q 5409 4013 5363 3909 
Q 5328 3834 5328 3519 
L 5328 725 
Q 5328 400 5362 319 
Q 5397 238 5503 177 
Q 5609 116 5788 116 
L 5925 116 
L 5925 0 
L 3713 0 
L 3713 116 
L 3850 116 
Q 4038 116 4150 181 
Q 4228 225 4275 331 
Q 4309 406 4309 725 
L 4309 3866 
L 2684 0 
L 2609 0 
L 959 3838 
L 959 853 
Q 959 541 975 469 
Q 1016 313 1152 214 
Q 1288 116 1578 116 
L 1578 0 
L 128 0 
L 128 116 
L 172 116 
Q 313 113 434 161 
Q 556 209 618 290 
Q 681 372 716 519 
Q 722 553 722 838 
L 722 3519 
Q 722 3841 687 3920 
Q 653 4000 547 4061 
Q 441 4122 263 4122 
L 128 4122 
L 128 4238 
L 1859 4238 
L 3050 1444 
z
" transform="scale(0.015625)"/>
      <path id="TimesNewRomanPS-BoldMT-67" d="M 2091 2888 
L 3075 2888 
L 3075 2544 
L 2516 2544 
Q 2669 2391 2728 2266 
Q 2803 2097 2803 1913 
Q 2803 1600 2629 1370 
Q 2456 1141 2157 1011 
Q 1859 881 1628 881 
Q 1609 881 1253 897 
Q 1113 897 1017 805 
Q 922 713 922 584 
Q 922 472 1008 400 
Q 1094 328 1288 328 
L 1828 334 
Q 2484 334 2731 191 
Q 3084 -9 3084 -425 
Q 3084 -691 2921 -908 
Q 2759 -1125 2494 -1228 
Q 2091 -1381 1566 -1381 
Q 1172 -1381 847 -1304 
Q 522 -1228 381 -1092 
Q 241 -956 241 -806 
Q 241 -663 348 -548 
Q 456 -434 750 -356 
Q 344 -156 344 200 
Q 344 416 509 619 
Q 675 822 1034 972 
Q 616 1125 428 1375 
Q 241 1625 241 1953 
Q 241 2381 591 2695 
Q 941 3009 1491 3009 
Q 1781 3009 2091 2888 
z
M 1550 2816 
Q 1369 2816 1244 2633 
Q 1119 2450 1119 1875 
Q 1119 1409 1242 1236 
Q 1366 1063 1534 1063 
Q 1722 1063 1847 1234 
Q 1972 1406 1972 1903 
Q 1972 2463 1831 2666 
Q 1731 2816 1550 2816 
z
M 1366 -431 
Q 1047 -431 944 -484 
Q 766 -581 766 -747 
Q 766 -906 950 -1036 
Q 1134 -1166 1644 -1166 
Q 2078 -1166 2326 -1050 
Q 2575 -934 2575 -725 
Q 2575 -647 2528 -594 
Q 2444 -500 2273 -465 
Q 2103 -431 1366 -431 
z
" transform="scale(0.015625)"/>
     </defs>
     <use xlink:href="#TimesNewRomanPS-BoldMT-4d"/>
     <use xlink:href="#TimesNewRomanPS-BoldMT-69" x="94.384766"/>
     <use xlink:href="#TimesNewRomanPS-BoldMT-63" x="122.167969"/>
     <use xlink:href="#TimesNewRomanPS-BoldMT-72" x="166.552734"/>
     <use xlink:href="#TimesNewRomanPS-BoldMT-6f" x="209.1875"/>
     <use xlink:href="#TimesNewRomanPS-BoldMT-67" x="259.1875"/>
     <use xlink:href="#TimesNewRomanPS-BoldMT-6c" x="309.1875"/>
     <use xlink:href="#TimesNewRomanPS-BoldMT-69" x="336.970703"/>
     <use xlink:href="#TimesNewRomanPS-BoldMT-61" x="364.753906"/>
    </g>
   </g>
   <g id="text_5">
    <!-- Oligodendrocytes -->
    <g transform="translate(16.2225 36.78016) scale(0.12 -0.12)">
     <defs>
      <path id="TimesNewRomanPS-BoldMT-4f" d="M 2472 4297 
Q 3484 4334 4117 3706 
Q 4750 3078 4750 2134 
Q 4750 1328 4278 716 
Q 3653 -97 2513 -97 
Q 1369 -97 744 678 
Q 250 1291 250 2131 
Q 250 3075 892 3704 
Q 1534 4334 2472 4297 
z
M 2509 4097 
Q 1928 4097 1625 3503 
Q 1378 3016 1378 2103 
Q 1378 1019 1759 500 
Q 2025 138 2503 138 
Q 2825 138 3041 294 
Q 3316 494 3469 933 
Q 3622 1372 3622 2078 
Q 3622 2919 3465 3336 
Q 3309 3753 3067 3925 
Q 2825 4097 2509 4097 
z
" transform="scale(0.015625)"/>
     </defs>
     <use xlink:href="#TimesNewRomanPS-BoldMT-4f"/>
     <use xlink:href="#TimesNewRomanPS-BoldMT-6c" x="77.783203"/>
     <use xlink:href="#TimesNewRomanPS-BoldMT-69" x="105.566406"/>
     <use xlink:href="#TimesNewRomanPS-BoldMT-67" x="133.349609"/>
     <use xlink:href="#TimesNewRomanPS-BoldMT-6f" x="183.349609"/>
     <use xlink:href="#TimesNewRomanPS-BoldMT-64" x="233.349609"/>
     <use xlink:href="#TimesNewRomanPS-BoldMT-65" x="288.964844"/>
     <use xlink:href="#TimesNewRomanPS-BoldMT-6e" x="333.349609"/>
     <use xlink:href="#TimesNewRomanPS-BoldMT-64" x="388.964844"/>
     <use xlink:href="#TimesNewRomanPS-BoldMT-72" x="444.580078"/>
     <use xlink:href="#TimesNewRomanPS-BoldMT-6f" x="487.214844"/>
     <use xlink:href="#TimesNewRomanPS-BoldMT-63" x="537.214844"/>
     <use xlink:href="#TimesNewRomanPS-BoldMT-79" x="581.599609"/>
     <use xlink:href="#TimesNewRomanPS-BoldMT-74" x="631.599609"/>
     <use xlink:href="#TimesNewRomanPS-BoldMT-65" x="664.900391"/>
     <use xlink:href="#TimesNewRomanPS-BoldMT-73" x="709.285156"/>
    </g>
   </g>
   <g id="text_6">
    <!-- Astrocytes -->
    <g transform="translate(449.39149 221.908953) scale(0.12 -0.12)">
     <use xlink:href="#TimesNewRomanPS-BoldMT-41"/>
     <use xlink:href="#TimesNewRomanPS-BoldMT-73" x="72.216797"/>
     <use xlink:href="#TimesNewRomanPS-BoldMT-74" x="111.132812"/>
     <use xlink:href="#TimesNewRomanPS-BoldMT-72" x="144.433594"/>
     <use xlink:href="#TimesNewRomanPS-BoldMT-6f" x="187.068359"/>
     <use xlink:href="#TimesNewRomanPS-BoldMT-63" x="237.068359"/>
     <use xlink:href="#TimesNewRomanPS-BoldMT-79" x="281.453125"/>
     <use xlink:href="#TimesNewRomanPS-BoldMT-74" x="331.453125"/>
     <use xlink:href="#TimesNewRomanPS-BoldMT-65" x="364.753906"/>
     <use xlink:href="#TimesNewRomanPS-BoldMT-73" x="409.138672"/>
    </g>
   </g>
   <g id="text_7">
    <!-- Endothelial Cells -->
    <g transform="translate(449.39149 160.496611) scale(0.12 -0.12)">
     <use xlink:href="#TimesNewRomanPS-BoldMT-45"/>
     <use xlink:href="#TimesNewRomanPS-BoldMT-6e" x="66.699219"/>
     <use xlink:href="#TimesNewRomanPS-BoldMT-64" x="122.314453"/>
     <use xlink:href="#TimesNewRomanPS-BoldMT-6f" x="177.929688"/>
     <use xlink:href="#TimesNewRomanPS-BoldMT-74" x="227.929688"/>
     <use xlink:href="#TimesNewRomanPS-BoldMT-68" x="261.230469"/>
     <use xlink:href="#TimesNewRomanPS-BoldMT-65" x="316.845703"/>
     <use xlink:href="#TimesNewRomanPS-BoldMT-6c" x="361.230469"/>
     <use xlink:href="#TimesNewRomanPS-BoldMT-69" x="389.013672"/>
     <use xlink:href="#TimesNewRomanPS-BoldMT-61" x="416.796875"/>
     <use xlink:href="#TimesNewRomanPS-BoldMT-6c" x="466.796875"/>
     <use xlink:href="#TimesNewRomanPS-BoldMT-20" x="494.580078"/>
     <use xlink:href="#TimesNewRomanPS-BoldMT-43" x="519.580078"/>
     <use xlink:href="#TimesNewRomanPS-BoldMT-65" x="591.796875"/>
     <use xlink:href="#TimesNewRomanPS-BoldMT-6c" x="636.181641"/>
     <use xlink:href="#TimesNewRomanPS-BoldMT-6c" x="663.964844"/>
     <use xlink:href="#TimesNewRomanPS-BoldMT-73" x="691.748047"/>
    </g>
   </g>
   <g id="text_8">
    <!-- Excitatory Neurons -->
    <g transform="translate(449.39149 141.074254) scale(0.12 -0.12)">
     <defs>
      <path id="TimesNewRomanPS-BoldMT-78" d="M 1944 1791 
L 2450 828 
Q 2713 325 2866 191 
Q 2950 119 3097 113 
L 3097 0 
L 1469 0 
L 1469 113 
Q 1659 128 1704 162 
Q 1750 197 1750 256 
Q 1750 344 1650 531 
L 1397 1006 
L 1181 691 
Q 1034 475 1016 434 
Q 991 375 991 328 
Q 991 256 1020 207 
Q 1050 159 1101 136 
Q 1153 113 1291 113 
L 1291 0 
L 147 0 
L 147 113 
Q 359 113 536 230 
Q 713 347 1050 844 
L 1291 1200 
L 788 2131 
Q 541 2588 419 2691 
Q 297 2794 147 2806 
L 147 2922 
L 1766 2922 
L 1766 2806 
L 1681 2803 
L 1519 2747 
Q 1494 2725 1494 2675 
Q 1494 2628 1509 2578 
Q 1519 2556 1597 2409 
L 1825 1984 
L 1944 2153 
Q 2194 2497 2194 2634 
Q 2194 2700 2139 2745 
Q 2084 2791 1944 2806 
L 1944 2922 
L 2978 2922 
L 2978 2806 
Q 2788 2800 2622 2689 
Q 2456 2578 2250 2259 
L 1944 1791 
z
" transform="scale(0.015625)"/>
     </defs>
     <use xlink:href="#TimesNewRomanPS-BoldMT-45"/>
     <use xlink:href="#TimesNewRomanPS-BoldMT-78" x="66.699219"/>
     <use xlink:href="#TimesNewRomanPS-BoldMT-63" x="116.699219"/>
     <use xlink:href="#TimesNewRomanPS-BoldMT-69" x="161.083984"/>
     <use xlink:href="#TimesNewRomanPS-BoldMT-74" x="188.867188"/>
     <use xlink:href="#TimesNewRomanPS-BoldMT-61" x="222.167969"/>
     <use xlink:href="#TimesNewRomanPS-BoldMT-74" x="272.167969"/>
     <use xlink:href="#TimesNewRomanPS-BoldMT-6f" x="305.46875"/>
     <use xlink:href="#TimesNewRomanPS-BoldMT-72" x="355.46875"/>
     <use xlink:href="#TimesNewRomanPS-BoldMT-79" x="399.853516"/>
     <use xlink:href="#TimesNewRomanPS-BoldMT-20" x="449.853516"/>
     <use xlink:href="#TimesNewRomanPS-BoldMT-4e" x="474.853516"/>
     <use xlink:href="#TimesNewRomanPS-BoldMT-65" x="547.070312"/>
     <use xlink:href="#TimesNewRomanPS-BoldMT-75" x="591.455078"/>
     <use xlink:href="#TimesNewRomanPS-BoldMT-72" x="647.070312"/>
     <use xlink:href="#TimesNewRomanPS-BoldMT-6f" x="689.705078"/>
     <use xlink:href="#TimesNewRomanPS-BoldMT-6e" x="739.705078"/>
     <use xlink:href="#TimesNewRomanPS-BoldMT-73" x="795.320312"/>
    </g>
   </g>
   <g id="text_9">
    <!-- Inhibitory Neurons -->
    <g transform="translate(449.39149 96.053319) scale(0.12 -0.12)">
     <use xlink:href="#TimesNewRomanPS-BoldMT-49"/>
     <use xlink:href="#TimesNewRomanPS-BoldMT-6e" x="38.916016"/>
     <use xlink:href="#TimesNewRomanPS-BoldMT-68" x="94.53125"/>
     <use xlink:href="#TimesNewRomanPS-BoldMT-69" x="150.146484"/>
     <use xlink:href="#TimesNewRomanPS-BoldMT-62" x="177.929688"/>
     <use xlink:href="#TimesNewRomanPS-BoldMT-69" x="233.544922"/>
     <use xlink:href="#TimesNewRomanPS-BoldMT-74" x="261.328125"/>
     <use xlink:href="#TimesNewRomanPS-BoldMT-6f" x="294.628906"/>
     <use xlink:href="#TimesNewRomanPS-BoldMT-72" x="344.628906"/>
     <use xlink:href="#TimesNewRomanPS-BoldMT-79" x="389.013672"/>
     <use xlink:href="#TimesNewRomanPS-BoldMT-20" x="439.013672"/>
     <use xlink:href="#TimesNewRomanPS-BoldMT-4e" x="464.013672"/>
     <use xlink:href="#TimesNewRomanPS-BoldMT-65" x="536.230469"/>
     <use xlink:href="#TimesNewRomanPS-BoldMT-75" x="580.615234"/>
     <use xlink:href="#TimesNewRomanPS-BoldMT-72" x="636.230469"/>
     <use xlink:href="#TimesNewRomanPS-BoldMT-6f" x="678.865234"/>
     <use xlink:href="#TimesNewRomanPS-BoldMT-6e" x="728.865234"/>
     <use xlink:href="#TimesNewRomanPS-BoldMT-73" x="784.480469"/>
    </g>
   </g>
   <g id="text_10">
    <!-- Microglia -->
    <g transform="translate(449.39149 36.665223) scale(0.12 -0.12)">
     <use xlink:href="#TimesNewRomanPS-BoldMT-4d"/>
     <use xlink:href="#TimesNewRomanPS-BoldMT-69" x="94.384766"/>
     <use xlink:href="#TimesNewRomanPS-BoldMT-63" x="122.167969"/>
     <use xlink:href="#TimesNewRomanPS-BoldMT-72" x="166.552734"/>
     <use xlink:href="#TimesNewRomanPS-BoldMT-6f" x="209.1875"/>
     <use xlink:href="#TimesNewRomanPS-BoldMT-67" x="259.1875"/>
     <use xlink:href="#TimesNewRomanPS-BoldMT-6c" x="309.1875"/>
     <use xlink:href="#TimesNewRomanPS-BoldMT-69" x="336.970703"/>
     <use xlink:href="#TimesNewRomanPS-BoldMT-61" x="364.753906"/>
    </g>
   </g>
  </g>
 </g>
 <defs>
  <clipPath id="pbb4502a8ff">
   <rect x="99.139183" y="7.2" width="357.12" height="266.112"/>
  </clipPath>
 </defs>
</svg>
