<?xml version="1.0" encoding="utf-8" standalone="no"?>
<!DOCTYPE svg PUBLIC "-//W3C//DTD SVG 1.1//EN"
  "http://www.w3.org/Graphics/SVG/1.1/DTD/svg11.dtd">
<svg xmlns:xlink="http://www.w3.org/1999/xlink" width="558.004615pt" height="280.512pt" viewBox="0 0 558.004615 280.512" xmlns="http://www.w3.org/2000/svg" version="1.1">
 <metadata>
  <rdf:RDF xmlns:dc="http://purl.org/dc/elements/1.1/" xmlns:cc="http://creativecommons.org/ns#" xmlns:rdf="http://www.w3.org/1999/02/22-rdf-syntax-ns#">
   <cc:Work>
    <dc:type rdf:resource="http://purl.org/dc/dcmitype/StillImage"/>
    <dc:date>2025-03-16T20:04:49.569220</dc:date>
    <dc:format>image/svg+xml</dc:format>
    <dc:creator>
     <cc:Agent>
      <dc:title>Matplotlib v3.9.3, https://matplotlib.org/</dc:title>
     </cc:Agent>
    </dc:creator>
   </cc:Work>
  </rdf:RDF>
 </metadata>
 <defs>
  <style type="text/css">*{stroke-linejoin: round; stroke-linecap: butt}</style>
 </defs>
 <g id="figure_1">
  <g id="patch_1">
   <path d="M 0 280.512 
L 558.004615 280.512 
L 558.004615 0 
L 0 0 
z
" style="fill: #ffffff"/>
  </g>
  <g id="axes_1">
   <g id="PolyCollection_1">
    <defs>
     <path id="mb912988534" d="M 116.675035 -46.806789 
L 116.675035 -19.296 
L 122.918392 -19.296 
L 122.918392 -46.806789 
L 122.918392 -46.806789 
L 116.675035 -46.806789 
z
" style="stroke: #57db5f; stroke-opacity: 0.99"/>
    </defs>
    <g clip-path="url(#p89ba95abc3)">
     <use xlink:href="#mb912988534" x="0" y="280.512" style="fill: #57db5f; fill-opacity: 0.99; stroke: #57db5f; stroke-opacity: 0.99"/>
    </g>
   </g>
   <g id="PolyCollection_2">
    <defs>
     <path id="m062161ba5b" d="M 116.675035 -62.65808 
L 116.675035 -56.483589 
L 122.918392 -56.483589 
L 122.918392 -62.65808 
L 122.918392 -62.65808 
L 116.675035 -62.65808 
z
" style="stroke: #5f57db; stroke-opacity: 0.99"/>
    </defs>
    <g clip-path="url(#p89ba95abc3)">
     <use xlink:href="#m062161ba5b" x="0" y="280.512" style="fill: #5f57db; fill-opacity: 0.99; stroke: #5f57db; stroke-opacity: 0.99"/>
    </g>
   </g>
   <g id="PolyCollection_3">
    <defs>
     <path id="md43e8fc43b" d="M 116.675035 -127.63088 
L 116.675035 -72.33488 
L 122.918392 -72.33488 
L 122.918392 -127.63088 
L 122.918392 -127.63088 
L 116.675035 -127.63088 
z
" style="stroke: #db57d3; stroke-opacity: 0.99"/>
    </defs>
    <g clip-path="url(#p89ba95abc3)">
     <use xlink:href="#md43e8fc43b" x="0" y="280.512" style="fill: #db57d3; fill-opacity: 0.99; stroke: #db57d3; stroke-opacity: 0.99"/>
    </g>
   </g>
   <g id="PolyCollection_4">
    <defs>
     <path id="m30f9d60315" d="M 116.675035 -194.867661 
L 116.675035 -137.30768 
L 122.918392 -137.30768 
L 122.918392 -194.867661 
L 122.918392 -194.867661 
L 116.675035 -194.867661 
z
" style="stroke: #db5f57; stroke-opacity: 0.99"/>
    </defs>
    <g clip-path="url(#p89ba95abc3)">
     <use xlink:href="#m30f9d60315" x="0" y="280.512" style="fill: #db5f57; fill-opacity: 0.99; stroke: #db5f57; stroke-opacity: 0.99"/>
    </g>
   </g>
   <g id="PolyCollection_5">
    <defs>
     <path id="m539a3af145" d="M 116.675035 -212.091061 
L 116.675035 -204.544461 
L 122.918392 -204.544461 
L 122.918392 -212.091061 
L 122.918392 -212.091061 
L 116.675035 -212.091061 
z
" style="stroke: #d3db57; stroke-opacity: 0.99"/>
    </defs>
    <g clip-path="url(#p89ba95abc3)">
     <use xlink:href="#m539a3af145" x="0" y="280.512" style="fill: #d3db57; fill-opacity: 0.99; stroke: #d3db57; stroke-opacity: 0.99"/>
    </g>
   </g>
   <g id="PolyCollection_6">
    <defs>
     <path id="m7a8a7bc605" d="M 116.675035 -261.216 
L 116.675035 -221.767861 
L 122.918392 -221.767861 
L 122.918392 -261.216 
L 122.918392 -261.216 
L 116.675035 -261.216 
z
" style="stroke: #57d3db; stroke-opacity: 0.99"/>
    </defs>
    <g clip-path="url(#p89ba95abc3)">
     <use xlink:href="#m7a8a7bc605" x="0" y="280.512" style="fill: #57d3db; fill-opacity: 0.99; stroke: #57d3db; stroke-opacity: 0.99"/>
    </g>
   </g>
   <g id="PolyCollection_7">
    <defs>
     <path id="md5aff9e55a" d="M 435.086224 -45.571891 
L 435.086224 -19.296 
L 441.32958 -19.296 
L 441.32958 -45.571891 
L 441.32958 -45.571891 
L 435.086224 -45.571891 
z
" style="stroke: #57db5f; stroke-opacity: 0.99"/>
    </defs>
    <g clip-path="url(#p89ba95abc3)">
     <use xlink:href="#md5aff9e55a" x="0" y="280.512" style="fill: #57db5f; fill-opacity: 0.99; stroke: #57db5f; stroke-opacity: 0.99"/>
    </g>
   </g>
   <g id="PolyCollection_8">
    <defs>
     <path id="ma0ee33bf8e" d="M 435.086224 -61.14876 
L 435.086224 -55.248691 
L 441.32958 -55.248691 
L 441.32958 -61.14876 
L 441.32958 -61.14876 
L 435.086224 -61.14876 
z
" style="stroke: #5f57db; stroke-opacity: 0.99"/>
    </defs>
    <g clip-path="url(#p89ba95abc3)">
     <use xlink:href="#ma0ee33bf8e" x="0" y="280.512" style="fill: #5f57db; fill-opacity: 0.99; stroke: #5f57db; stroke-opacity: 0.99"/>
    </g>
   </g>
   <g id="PolyCollection_9">
    <defs>
     <path id="me01c8958f5" d="M 435.086224 -123.651764 
L 435.086224 -70.82556 
L 441.32958 -70.82556 
L 441.32958 -123.651764 
L 441.32958 -123.651764 
L 435.086224 -123.651764 
z
" style="stroke: #db57d3; stroke-opacity: 0.99"/>
    </defs>
    <g clip-path="url(#p89ba95abc3)">
     <use xlink:href="#me01c8958f5" x="0" y="280.512" style="fill: #db57d3; fill-opacity: 0.99; stroke: #db57d3; stroke-opacity: 0.99"/>
    </g>
   </g>
   <g id="PolyCollection_10">
    <defs>
     <path id="madd6ae0d2e" d="M 435.086224 -201.934023 
L 435.086224 -133.328564 
L 441.32958 -133.328564 
L 441.32958 -201.934023 
L 441.32958 -201.934023 
L 435.086224 -201.934023 
z
" style="stroke: #db5f57; stroke-opacity: 0.99"/>
    </defs>
    <g clip-path="url(#p89ba95abc3)">
     <use xlink:href="#madd6ae0d2e" x="0" y="280.512" style="fill: #db5f57; fill-opacity: 0.99; stroke: #db5f57; stroke-opacity: 0.99"/>
    </g>
   </g>
   <g id="PolyCollection_11">
    <defs>
     <path id="m5fa480e891" d="M 435.086224 -248.794982 
L 435.086224 -211.610823 
L 441.32958 -211.610823 
L 441.32958 -248.794982 
L 441.32958 -248.794982 
L 435.086224 -248.794982 
z
" style="stroke: #d3db57; stroke-opacity: 0.99"/>
    </defs>
    <g clip-path="url(#p89ba95abc3)">
     <use xlink:href="#m5fa480e891" x="0" y="280.512" style="fill: #d3db57; fill-opacity: 0.99; stroke: #d3db57; stroke-opacity: 0.99"/>
    </g>
   </g>
   <g id="PolyCollection_12">
    <defs>
     <path id="m3ca4ccf951" d="M 435.086224 -261.216 
L 435.086224 -258.471782 
L 441.32958 -258.471782 
L 441.32958 -261.216 
L 441.32958 -261.216 
L 435.086224 -261.216 
z
" style="stroke: #57d3db; stroke-opacity: 0.99"/>
    </defs>
    <g clip-path="url(#p89ba95abc3)">
     <use xlink:href="#m3ca4ccf951" x="0" y="280.512" style="fill: #57d3db; fill-opacity: 0.99; stroke: #57d3db; stroke-opacity: 0.99"/>
    </g>
   </g>
   <g id="PolyCollection_13">
    <defs>
     <path id="m9abb639016" d="M 122.918392 -45.571891 
L 122.918392 -19.296 
L 128.035897 -19.296 
L 133.153402 -19.296 
L 138.270908 -19.296 
L 143.388413 -19.296 
L 148.505919 -19.296 
L 153.623424 -19.296 
L 158.74093 -19.296 
L 163.858435 -19.296 
L 168.975941 -19.296 
L 174.093446 -19.296 
L 179.210952 -19.296 
L 184.328457 -19.296 
L 189.445962 -19.296 
L 194.563468 -19.296 
L 199.680973 -19.296 
L 204.798479 -19.296 
L 209.915984 -19.296 
L 215.03349 -19.296 
L 220.150995 -19.296 
L 225.268501 -19.296 
L 230.386006 -19.296 
L 235.503511 -19.296 
L 240.621017 -19.296 
L 245.738522 -19.296 
L 250.856028 -19.296 
L 255.973533 -19.296 
L 261.091039 -19.296 
L 266.208544 -19.296 
L 271.32605 -19.296 
L 276.443555 -19.296 
L 281.56106 -19.296 
L 286.678566 -19.296 
L 291.796071 -19.296 
L 296.913577 -19.296 
L 302.031082 -19.296 
L 307.148588 -19.296 
L 312.266093 -19.296 
L 317.383599 -19.296 
L 322.501104 -19.296 
L 327.618609 -19.296 
L 332.736115 -19.296 
L 337.85362 -19.296 
L 342.971126 -19.296 
L 348.088631 -19.296 
L 353.206137 -19.296 
L 358.323642 -19.296 
L 363.441148 -19.296 
L 368.558653 -19.296 
L 373.676158 -19.296 
L 378.793664 -19.296 
L 383.911169 -19.296 
L 389.028675 -19.296 
L 394.14618 -19.296 
L 399.263686 -19.296 
L 404.381191 -19.296 
L 409.498697 -19.296 
L 414.616202 -19.296 
L 419.733707 -19.296 
L 424.851213 -19.296 
L 429.968718 -19.296 
L 435.086224 -19.296 
L 435.086224 -45.571891 
L 435.086224 -45.571891 
L 429.968718 -45.571891 
L 424.851213 -45.571891 
L 419.733707 -45.571891 
L 414.616202 -45.571891 
L 409.498697 -45.571891 
L 404.381191 -45.571891 
L 399.263686 -45.571891 
L 394.14618 -45.571891 
L 389.028675 -45.571891 
L 383.911169 -45.571891 
L 378.793664 -45.571891 
L 373.676158 -45.571891 
L 368.558653 -45.571891 
L 363.441148 -45.571891 
L 358.323642 -45.571891 
L 353.206137 -45.571891 
L 348.088631 -45.571891 
L 342.971126 -45.571891 
L 337.85362 -45.571891 
L 332.736115 -45.571891 
L 327.618609 -45.571891 
L 322.501104 -45.571891 
L 317.383599 -45.571891 
L 312.266093 -45.571891 
L 307.148588 -45.571891 
L 302.031082 -45.571891 
L 296.913577 -45.571891 
L 291.796071 -45.571891 
L 286.678566 -45.571891 
L 281.56106 -45.571891 
L 276.443555 -45.571891 
L 271.32605 -45.571891 
L 266.208544 -45.571891 
L 261.091039 -45.571891 
L 255.973533 -45.571891 
L 250.856028 -45.571891 
L 245.738522 -45.571891 
L 240.621017 -45.571891 
L 235.503511 -45.571891 
L 230.386006 -45.571891 
L 225.268501 -45.571891 
L 220.150995 -45.571891 
L 215.03349 -45.571891 
L 209.915984 -45.571891 
L 204.798479 -45.571891 
L 199.680973 -45.571891 
L 194.563468 -45.571891 
L 189.445962 -45.571891 
L 184.328457 -45.571891 
L 179.210952 -45.571891 
L 174.093446 -45.571891 
L 168.975941 -45.571891 
L 163.858435 -45.571891 
L 158.74093 -45.571891 
L 153.623424 -45.571891 
L 148.505919 -45.571891 
L 143.388413 -45.571891 
L 138.270908 -45.571891 
L 133.153402 -45.571891 
L 128.035897 -45.571891 
L 122.918392 -45.571891 
z
" style="stroke: #57db5f; stroke-opacity: 0.65"/>
    </defs>
    <g clip-path="url(#p89ba95abc3)">
     <use xlink:href="#m9abb639016" x="0" y="280.512" style="fill: #57db5f; fill-opacity: 0.65; stroke: #57db5f; stroke-opacity: 0.65"/>
    </g>
   </g>
   <g id="PolyCollection_14">
    <defs>
     <path id="m52bc262f85" d="M 122.918392 -46.18934 
L 122.918392 -45.571891 
L 128.035897 -45.571891 
L 133.153402 -45.571891 
L 138.270908 -45.571891 
L 143.388413 -45.571891 
L 148.505919 -45.571891 
L 153.623424 -45.571891 
L 158.74093 -45.571891 
L 163.858435 -45.571891 
L 168.975941 -45.571891 
L 174.093446 -45.571891 
L 179.210952 -45.571891 
L 184.328457 -45.791283 
L 189.445962 -46.230066 
L 194.563468 -46.888241 
L 199.680973 -47.765808 
L 204.798479 -48.862766 
L 209.915984 -50.179116 
L 215.03349 -51.714858 
L 220.150995 -53.469991 
L 225.268501 -55.444517 
L 230.386006 -57.638433 
L 235.503511 -60.051742 
L 240.621017 -62.684442 
L 245.738522 -65.536534 
L 250.856028 -68.608017 
L 255.973533 -71.898893 
L 261.091039 -75.40916 
L 266.208544 -79.138818 
L 271.32605 -83.087869 
L 276.443555 -87.25631 
L 281.56106 -91.644144 
L 286.678566 -95.812586 
L 291.796071 -99.761636 
L 296.913577 -103.491295 
L 302.031082 -107.001562 
L 307.148588 -110.292437 
L 312.266093 -113.363921 
L 317.383599 -116.216013 
L 322.501104 -118.848713 
L 327.618609 -121.262021 
L 332.736115 -123.455938 
L 337.85362 -125.430463 
L 342.971126 -127.185597 
L 348.088631 -128.721338 
L 353.206137 -130.037689 
L 358.323642 -131.134647 
L 363.441148 -132.012214 
L 368.558653 -132.670389 
L 373.676158 -133.109172 
L 378.793664 -133.328564 
L 383.911169 -133.328564 
L 389.028675 -133.328564 
L 394.14618 -133.328564 
L 399.263686 -133.328564 
L 404.381191 -133.328564 
L 409.498697 -133.328564 
L 414.616202 -133.328564 
L 419.733707 -133.328564 
L 424.851213 -133.328564 
L 429.968718 -133.328564 
L 435.086224 -133.328564 
L 435.086224 -133.946013 
L 435.086224 -133.946013 
L 429.968718 -133.946013 
L 424.851213 -133.946013 
L 419.733707 -133.946013 
L 414.616202 -133.946013 
L 409.498697 -133.946013 
L 404.381191 -133.946013 
L 399.263686 -133.946013 
L 394.14618 -133.946013 
L 389.028675 -133.946013 
L 383.911169 -133.946013 
L 378.793664 -133.946013 
L 373.676158 -133.726621 
L 368.558653 -133.287838 
L 363.441148 -132.629663 
L 358.323642 -131.752096 
L 353.206137 -130.655138 
L 348.088631 -129.338788 
L 342.971126 -127.803046 
L 337.85362 -126.047912 
L 332.736115 -124.073387 
L 327.618609 -121.87947 
L 322.501104 -119.466162 
L 317.383599 -116.833462 
L 312.266093 -113.98137 
L 307.148588 -110.909886 
L 302.031082 -107.619011 
L 296.913577 -104.108744 
L 291.796071 -100.379085 
L 286.678566 -96.430035 
L 281.56106 -92.261593 
L 276.443555 -87.87376 
L 271.32605 -83.705318 
L 266.208544 -79.756267 
L 261.091039 -76.026609 
L 255.973533 -72.516342 
L 250.856028 -69.225467 
L 245.738522 -66.153983 
L 240.621017 -63.301891 
L 235.503511 -60.669191 
L 230.386006 -58.255882 
L 225.268501 -56.061966 
L 220.150995 -54.087441 
L 215.03349 -52.332307 
L 209.915984 -50.796565 
L 204.798479 -49.480215 
L 199.680973 -48.383257 
L 194.563468 -47.50569 
L 189.445962 -46.847515 
L 184.328457 -46.408732 
L 179.210952 -46.18934 
L 174.093446 -46.18934 
L 168.975941 -46.18934 
L 163.858435 -46.18934 
L 158.74093 -46.18934 
L 153.623424 -46.18934 
L 148.505919 -46.18934 
L 143.388413 -46.18934 
L 138.270908 -46.18934 
L 133.153402 -46.18934 
L 128.035897 -46.18934 
L 122.918392 -46.18934 
z
" style="stroke: #57db5f; stroke-opacity: 0.65"/>
    </defs>
    <g clip-path="url(#p89ba95abc3)">
     <use xlink:href="#m52bc262f85" x="0" y="280.512" style="fill: #57db5f; fill-opacity: 0.65; stroke: #57db5f; stroke-opacity: 0.65"/>
    </g>
   </g>
   <g id="PolyCollection_15">
    <defs>
     <path id="m6b0362274a" d="M 122.918392 -46.806789 
L 122.918392 -46.18934 
L 128.035897 -46.18934 
L 133.153402 -46.18934 
L 138.270908 -46.18934 
L 143.388413 -46.18934 
L 148.505919 -46.18934 
L 153.623424 -46.18934 
L 158.74093 -46.18934 
L 163.858435 -46.18934 
L 168.975941 -46.18934 
L 174.093446 -46.18934 
L 179.210952 -46.18934 
L 184.328457 -46.720046 
L 189.445962 -47.781458 
L 194.563468 -49.373577 
L 199.680973 -51.496401 
L 204.798479 -54.149932 
L 209.915984 -57.334168 
L 215.03349 -61.049111 
L 220.150995 -65.29476 
L 225.268501 -70.071115 
L 230.386006 -75.378176 
L 235.503511 -81.215943 
L 240.621017 -87.584416 
L 245.738522 -94.483595 
L 250.856028 -101.913481 
L 255.973533 -109.874072 
L 261.091039 -118.36537 
L 266.208544 -127.387374 
L 271.32605 -136.940084 
L 276.443555 -147.0235 
L 281.56106 -157.637622 
L 286.678566 -167.721038 
L 291.796071 -177.273748 
L 296.913577 -186.295751 
L 302.031082 -194.787049 
L 307.148588 -202.747641 
L 312.266093 -210.177526 
L 317.383599 -217.076706 
L 322.501104 -223.445179 
L 327.618609 -229.282946 
L 332.736115 -234.590007 
L 337.85362 -239.366362 
L 342.971126 -243.612011 
L 348.088631 -247.326953 
L 353.206137 -250.51119 
L 358.323642 -253.164721 
L 363.441148 -255.287545 
L 368.558653 -256.879663 
L 373.676158 -257.941076 
L 378.793664 -258.471782 
L 383.911169 -258.471782 
L 389.028675 -258.471782 
L 394.14618 -258.471782 
L 399.263686 -258.471782 
L 404.381191 -258.471782 
L 409.498697 -258.471782 
L 414.616202 -258.471782 
L 419.733707 -258.471782 
L 424.851213 -258.471782 
L 429.968718 -258.471782 
L 435.086224 -258.471782 
L 435.086224 -259.089231 
L 435.086224 -259.089231 
L 429.968718 -259.089231 
L 424.851213 -259.089231 
L 419.733707 -259.089231 
L 414.616202 -259.089231 
L 409.498697 -259.089231 
L 404.381191 -259.089231 
L 399.263686 -259.089231 
L 394.14618 -259.089231 
L 389.028675 -259.089231 
L 383.911169 -259.089231 
L 378.793664 -259.089231 
L 373.676158 -258.558525 
L 368.558653 -257.497112 
L 363.441148 -255.904994 
L 358.323642 -253.78217 
L 353.206137 -251.128639 
L 348.088631 -247.944403 
L 342.971126 -244.22946 
L 337.85362 -239.983811 
L 332.736115 -235.207456 
L 327.618609 -229.900395 
L 322.501104 -224.062628 
L 317.383599 -217.694155 
L 312.266093 -210.794975 
L 307.148588 -203.36509 
L 302.031082 -195.404498 
L 296.913577 -186.913201 
L 291.796071 -177.891197 
L 286.678566 -168.338487 
L 281.56106 -158.255071 
L 276.443555 -147.640949 
L 271.32605 -137.557533 
L 266.208544 -128.004823 
L 261.091039 -118.982819 
L 255.973533 -110.491522 
L 250.856028 -102.53093 
L 245.738522 -95.101045 
L 240.621017 -88.201865 
L 235.503511 -81.833392 
L 230.386006 -75.995625 
L 225.268501 -70.688564 
L 220.150995 -65.912209 
L 215.03349 -61.66656 
L 209.915984 -57.951617 
L 204.798479 -54.767381 
L 199.680973 -52.11385 
L 194.563468 -49.991026 
L 189.445962 -48.398907 
L 184.328457 -47.337495 
L 179.210952 -46.806789 
L 174.093446 -46.806789 
L 168.975941 -46.806789 
L 163.858435 -46.806789 
L 158.74093 -46.806789 
L 153.623424 -46.806789 
L 148.505919 -46.806789 
L 143.388413 -46.806789 
L 138.270908 -46.806789 
L 133.153402 -46.806789 
L 128.035897 -46.806789 
L 122.918392 -46.806789 
z
" style="stroke: #57db5f; stroke-opacity: 0.65"/>
    </defs>
    <g clip-path="url(#p89ba95abc3)">
     <use xlink:href="#m6b0362274a" x="0" y="280.512" style="fill: #57db5f; fill-opacity: 0.65; stroke: #57db5f; stroke-opacity: 0.65"/>
    </g>
   </g>
   <g id="PolyCollection_16">
    <defs>
     <path id="mf5c4546897" d="M 122.918392 -62.315053 
L 122.918392 -56.483589 
L 128.035897 -56.483589 
L 133.153402 -56.483589 
L 138.270908 -56.483589 
L 143.388413 -56.483589 
L 148.505919 -56.483589 
L 153.623424 -56.483589 
L 158.74093 -56.483589 
L 163.858435 -56.483589 
L 168.975941 -56.483589 
L 174.093446 -56.483589 
L 179.210952 -56.483589 
L 184.328457 -56.480502 
L 189.445962 -56.474327 
L 194.563468 -56.465066 
L 199.680973 -56.452717 
L 204.798479 -56.43728 
L 209.915984 -56.418757 
L 215.03349 -56.397146 
L 220.150995 -56.372448 
L 225.268501 -56.344663 
L 230.386006 -56.313791 
L 235.503511 -56.279831 
L 240.621017 -56.242784 
L 245.738522 -56.20265 
L 250.856028 -56.159428 
L 255.973533 -56.11312 
L 261.091039 -56.063724 
L 266.208544 -56.01124 
L 271.32605 -55.95567 
L 276.443555 -55.897012 
L 281.56106 -55.835267 
L 286.678566 -55.77661 
L 291.796071 -55.721039 
L 296.913577 -55.668556 
L 302.031082 -55.61916 
L 307.148588 -55.572852 
L 312.266093 -55.52963 
L 317.383599 -55.489496 
L 322.501104 -55.452449 
L 327.618609 -55.418489 
L 332.736115 -55.387617 
L 337.85362 -55.359832 
L 342.971126 -55.335134 
L 348.088631 -55.313523 
L 353.206137 -55.295 
L 358.323642 -55.279563 
L 363.441148 -55.267214 
L 368.558653 -55.257953 
L 373.676158 -55.251778 
L 378.793664 -55.248691 
L 383.911169 -55.248691 
L 389.028675 -55.248691 
L 394.14618 -55.248691 
L 399.263686 -55.248691 
L 404.381191 -55.248691 
L 409.498697 -55.248691 
L 414.616202 -55.248691 
L 419.733707 -55.248691 
L 424.851213 -55.248691 
L 429.968718 -55.248691 
L 435.086224 -55.248691 
L 435.086224 -61.080155 
L 435.086224 -61.080155 
L 429.968718 -61.080155 
L 424.851213 -61.080155 
L 419.733707 -61.080155 
L 414.616202 -61.080155 
L 409.498697 -61.080155 
L 404.381191 -61.080155 
L 399.263686 -61.080155 
L 394.14618 -61.080155 
L 389.028675 -61.080155 
L 383.911169 -61.080155 
L 378.793664 -61.080155 
L 373.676158 -61.083242 
L 368.558653 -61.089417 
L 363.441148 -61.098678 
L 358.323642 -61.111027 
L 353.206137 -61.126464 
L 348.088631 -61.144987 
L 342.971126 -61.166598 
L 337.85362 -61.191296 
L 332.736115 -61.219081 
L 327.618609 -61.249953 
L 322.501104 -61.283913 
L 317.383599 -61.32096 
L 312.266093 -61.361094 
L 307.148588 -61.404316 
L 302.031082 -61.450624 
L 296.913577 -61.50002 
L 291.796071 -61.552503 
L 286.678566 -61.608074 
L 281.56106 -61.666732 
L 276.443555 -61.728476 
L 271.32605 -61.787134 
L 266.208544 -61.842705 
L 261.091039 -61.895188 
L 255.973533 -61.944584 
L 250.856028 -61.990892 
L 245.738522 -62.034114 
L 240.621017 -62.074248 
L 235.503511 -62.111295 
L 230.386006 -62.145255 
L 225.268501 -62.176127 
L 220.150995 -62.203912 
L 215.03349 -62.22861 
L 209.915984 -62.250221 
L 204.798479 -62.268744 
L 199.680973 -62.284181 
L 194.563468 -62.29653 
L 189.445962 -62.305791 
L 184.328457 -62.311966 
L 179.210952 -62.315053 
L 174.093446 -62.315053 
L 168.975941 -62.315053 
L 163.858435 -62.315053 
L 158.74093 -62.315053 
L 153.623424 -62.315053 
L 148.505919 -62.315053 
L 143.388413 -62.315053 
L 138.270908 -62.315053 
L 133.153402 -62.315053 
L 128.035897 -62.315053 
L 122.918392 -62.315053 
z
" style="stroke: #5f57db; stroke-opacity: 0.65"/>
    </defs>
    <g clip-path="url(#p89ba95abc3)">
     <use xlink:href="#mf5c4546897" x="0" y="280.512" style="fill: #5f57db; fill-opacity: 0.65; stroke: #5f57db; stroke-opacity: 0.65"/>
    </g>
   </g>
   <g id="PolyCollection_17">
    <defs>
     <path id="m3847dd44f1" d="M 122.918392 -62.520869 
L 122.918392 -62.315053 
L 128.035897 -62.315053 
L 133.153402 -62.315053 
L 138.270908 -62.315053 
L 143.388413 -62.315053 
L 148.505919 -62.315053 
L 153.623424 -62.315053 
L 158.74093 -62.315053 
L 163.858435 -62.315053 
L 168.975941 -62.315053 
L 174.093446 -62.315053 
L 179.210952 -62.315053 
L 184.328457 -62.336329 
L 189.445962 -62.378882 
L 194.563468 -62.442711 
L 199.680973 -62.527816 
L 204.798479 -62.634197 
L 209.915984 -62.761855 
L 215.03349 -62.910789 
L 220.150995 -63.080999 
L 225.268501 -63.272485 
L 230.386006 -63.485248 
L 235.503511 -63.719287 
L 240.621017 -63.974602 
L 245.738522 -64.251193 
L 250.856028 -64.549061 
L 255.973533 -64.868205 
L 261.091039 -65.208626 
L 266.208544 -65.570322 
L 271.32605 -65.953295 
L 276.443555 -66.357544 
L 281.56106 -66.783069 
L 286.678566 -67.187318 
L 291.796071 -67.570291 
L 296.913577 -67.931988 
L 302.031082 -68.272408 
L 307.148588 -68.591552 
L 312.266093 -68.88942 
L 317.383599 -69.166011 
L 322.501104 -69.421327 
L 327.618609 -69.655366 
L 332.736115 -69.868128 
L 337.85362 -70.059615 
L 342.971126 -70.229825 
L 348.088631 -70.378759 
L 353.206137 -70.506416 
L 358.323642 -70.612798 
L 363.441148 -70.697903 
L 368.558653 -70.761731 
L 373.676158 -70.804284 
L 378.793664 -70.82556 
L 383.911169 -70.82556 
L 389.028675 -70.82556 
L 394.14618 -70.82556 
L 399.263686 -70.82556 
L 404.381191 -70.82556 
L 409.498697 -70.82556 
L 414.616202 -70.82556 
L 419.733707 -70.82556 
L 424.851213 -70.82556 
L 429.968718 -70.82556 
L 435.086224 -70.82556 
L 435.086224 -71.031377 
L 435.086224 -71.031377 
L 429.968718 -71.031377 
L 424.851213 -71.031377 
L 419.733707 -71.031377 
L 414.616202 -71.031377 
L 409.498697 -71.031377 
L 404.381191 -71.031377 
L 399.263686 -71.031377 
L 394.14618 -71.031377 
L 389.028675 -71.031377 
L 383.911169 -71.031377 
L 378.793664 -71.031377 
L 373.676158 -71.0101 
L 368.558653 -70.967548 
L 363.441148 -70.903719 
L 358.323642 -70.818614 
L 353.206137 -70.712233 
L 348.088631 -70.584575 
L 342.971126 -70.435641 
L 337.85362 -70.265431 
L 332.736115 -70.073945 
L 327.618609 -69.861182 
L 322.501104 -69.627143 
L 317.383599 -69.371828 
L 312.266093 -69.095236 
L 307.148588 -68.797369 
L 302.031082 -68.478225 
L 296.913577 -68.137804 
L 291.796071 -67.776108 
L 286.678566 -67.393135 
L 281.56106 -66.988886 
L 276.443555 -66.56336 
L 271.32605 -66.159111 
L 266.208544 -65.776138 
L 261.091039 -65.414442 
L 255.973533 -65.074022 
L 250.856028 -64.754878 
L 245.738522 -64.45701 
L 240.621017 -64.180418 
L 235.503511 -63.925103 
L 230.386006 -63.691064 
L 225.268501 -63.478302 
L 220.150995 -63.286815 
L 215.03349 -63.116605 
L 209.915984 -62.967671 
L 204.798479 -62.840013 
L 199.680973 -62.733632 
L 194.563468 -62.648527 
L 189.445962 -62.584698 
L 184.328457 -62.542146 
L 179.210952 -62.520869 
L 174.093446 -62.520869 
L 168.975941 -62.520869 
L 163.858435 -62.520869 
L 158.74093 -62.520869 
L 153.623424 -62.520869 
L 148.505919 -62.520869 
L 143.388413 -62.520869 
L 138.270908 -62.520869 
L 133.153402 -62.520869 
L 128.035897 -62.520869 
L 122.918392 -62.520869 
z
" style="stroke: #5f57db; stroke-opacity: 0.65"/>
    </defs>
    <g clip-path="url(#p89ba95abc3)">
     <use xlink:href="#m3847dd44f1" x="0" y="280.512" style="fill: #5f57db; fill-opacity: 0.65; stroke: #5f57db; stroke-opacity: 0.65"/>
    </g>
   </g>
   <g id="PolyCollection_18">
    <defs>
     <path id="m48afa553ad" d="M 122.918392 -62.65808 
L 122.918392 -62.520869 
L 128.035897 -62.520869 
L 133.153402 -62.520869 
L 138.270908 -62.520869 
L 143.388413 -62.520869 
L 148.505919 -62.520869 
L 153.623424 -62.520869 
L 158.74093 -62.520869 
L 163.858435 -62.520869 
L 168.975941 -62.520869 
L 174.093446 -62.520869 
L 179.210952 -62.520869 
L 184.328457 -62.699432 
L 189.445962 -63.056558 
L 194.563468 -63.592247 
L 199.680973 -64.306498 
L 204.798479 -65.199312 
L 209.915984 -66.27069 
L 215.03349 -67.52063 
L 220.150995 -68.949132 
L 225.268501 -70.556198 
L 230.386006 -72.341827 
L 235.503511 -74.306018 
L 240.621017 -76.448772 
L 245.738522 -78.77009 
L 250.856028 -81.26997 
L 255.973533 -83.948413 
L 261.091039 -86.805418 
L 266.208544 -89.840987 
L 271.32605 -93.055118 
L 276.443555 -96.447813 
L 281.56106 -100.01907 
L 286.678566 -103.411764 
L 291.796071 -106.625896 
L 296.913577 -109.661464 
L 302.031082 -112.51847 
L 307.148588 -115.196913 
L 312.266093 -117.696793 
L 317.383599 -120.01811 
L 322.501104 -122.160864 
L 327.618609 -124.125056 
L 332.736115 -125.910684 
L 337.85362 -127.51775 
L 342.971126 -128.946253 
L 348.088631 -130.196193 
L 353.206137 -131.26757 
L 358.323642 -132.160384 
L 363.441148 -132.874636 
L 368.558653 -133.410324 
L 373.676158 -133.76745 
L 378.793664 -133.946013 
L 383.911169 -133.946013 
L 389.028675 -133.946013 
L 394.14618 -133.946013 
L 399.263686 -133.946013 
L 404.381191 -133.946013 
L 409.498697 -133.946013 
L 414.616202 -133.946013 
L 419.733707 -133.946013 
L 424.851213 -133.946013 
L 429.968718 -133.946013 
L 435.086224 -133.946013 
L 435.086224 -134.083224 
L 435.086224 -134.083224 
L 429.968718 -134.083224 
L 424.851213 -134.083224 
L 419.733707 -134.083224 
L 414.616202 -134.083224 
L 409.498697 -134.083224 
L 404.381191 -134.083224 
L 399.263686 -134.083224 
L 394.14618 -134.083224 
L 389.028675 -134.083224 
L 383.911169 -134.083224 
L 378.793664 -134.083224 
L 373.676158 -133.904661 
L 368.558653 -133.547535 
L 363.441148 -133.011847 
L 358.323642 -132.297595 
L 353.206137 -131.404781 
L 348.088631 -130.333404 
L 342.971126 -129.083464 
L 337.85362 -127.654961 
L 332.736115 -126.047895 
L 327.618609 -124.262267 
L 322.501104 -122.298075 
L 317.383599 -120.155321 
L 312.266093 -117.834004 
L 307.148588 -115.334124 
L 302.031082 -112.655681 
L 296.913577 -109.798675 
L 291.796071 -106.763106 
L 286.678566 -103.548975 
L 281.56106 -100.156281 
L 276.443555 -96.585024 
L 271.32605 -93.192329 
L 266.208544 -89.978198 
L 261.091039 -86.942629 
L 255.973533 -84.085623 
L 250.856028 -81.407181 
L 245.738522 -78.907301 
L 240.621017 -76.585983 
L 235.503511 -74.443229 
L 230.386006 -72.479038 
L 225.268501 -70.693409 
L 220.150995 -69.086343 
L 215.03349 -67.65784 
L 209.915984 -66.4079 
L 204.798479 -65.336523 
L 199.680973 -64.443709 
L 194.563468 -63.729458 
L 189.445962 -63.193769 
L 184.328457 -62.836643 
L 179.210952 -62.65808 
L 174.093446 -62.65808 
L 168.975941 -62.65808 
L 163.858435 -62.65808 
L 158.74093 -62.65808 
L 153.623424 -62.65808 
L 148.505919 -62.65808 
L 143.388413 -62.65808 
L 138.270908 -62.65808 
L 133.153402 -62.65808 
L 128.035897 -62.65808 
L 122.918392 -62.65808 
z
" style="stroke: #5f57db; stroke-opacity: 0.65"/>
    </defs>
    <g clip-path="url(#p89ba95abc3)">
     <use xlink:href="#m48afa553ad" x="0" y="280.512" style="fill: #5f57db; fill-opacity: 0.65; stroke: #5f57db; stroke-opacity: 0.65"/>
    </g>
   </g>
   <g id="PolyCollection_19">
    <defs>
     <path id="m01a48ca462" d="M 122.918392 -123.240131 
L 122.918392 -72.33488 
L 128.035897 -72.33488 
L 133.153402 -72.33488 
L 138.270908 -72.33488 
L 143.388413 -72.33488 
L 148.505919 -72.33488 
L 153.623424 -72.33488 
L 158.74093 -72.33488 
L 163.858435 -72.33488 
L 168.975941 -72.33488 
L 174.093446 -72.33488 
L 179.210952 -72.33488 
L 184.328457 -72.331622 
L 189.445962 -72.325104 
L 194.563468 -72.315328 
L 199.680973 -72.302293 
L 204.798479 -72.285999 
L 209.915984 -72.266446 
L 215.03349 -72.243635 
L 220.150995 -72.217565 
L 225.268501 -72.188236 
L 230.386006 -72.155649 
L 235.503511 -72.119802 
L 240.621017 -72.080697 
L 245.738522 -72.038333 
L 250.856028 -71.992711 
L 255.973533 -71.943829 
L 261.091039 -71.891689 
L 266.208544 -71.83629 
L 271.32605 -71.777633 
L 276.443555 -71.715716 
L 281.56106 -71.650541 
L 286.678566 -71.588625 
L 291.796071 -71.529967 
L 296.913577 -71.474568 
L 302.031082 -71.422428 
L 307.148588 -71.373546 
L 312.266093 -71.327924 
L 317.383599 -71.28556 
L 322.501104 -71.246455 
L 327.618609 -71.210608 
L 332.736115 -71.178021 
L 337.85362 -71.148692 
L 342.971126 -71.122622 
L 348.088631 -71.099811 
L 353.206137 -71.080258 
L 358.323642 -71.063964 
L 363.441148 -71.050929 
L 368.558653 -71.041153 
L 373.676158 -71.034635 
L 378.793664 -71.031377 
L 383.911169 -71.031377 
L 389.028675 -71.031377 
L 394.14618 -71.031377 
L 399.263686 -71.031377 
L 404.381191 -71.031377 
L 409.498697 -71.031377 
L 414.616202 -71.031377 
L 419.733707 -71.031377 
L 424.851213 -71.031377 
L 429.968718 -71.031377 
L 435.086224 -71.031377 
L 435.086224 -121.936627 
L 435.086224 -121.936627 
L 429.968718 -121.936627 
L 424.851213 -121.936627 
L 419.733707 -121.936627 
L 414.616202 -121.936627 
L 409.498697 -121.936627 
L 404.381191 -121.936627 
L 399.263686 -121.936627 
L 394.14618 -121.936627 
L 389.028675 -121.936627 
L 383.911169 -121.936627 
L 378.793664 -121.936627 
L 373.676158 -121.939886 
L 368.558653 -121.946404 
L 363.441148 -121.95618 
L 358.323642 -121.969215 
L 353.206137 -121.985509 
L 348.088631 -122.005061 
L 342.971126 -122.027873 
L 337.85362 -122.053943 
L 332.736115 -122.083271 
L 327.618609 -122.115859 
L 322.501104 -122.151705 
L 317.383599 -122.190811 
L 312.266093 -122.233174 
L 307.148588 -122.278797 
L 302.031082 -122.327678 
L 296.913577 -122.379819 
L 291.796071 -122.435217 
L 286.678566 -122.493875 
L 281.56106 -122.555792 
L 276.443555 -122.620967 
L 271.32605 -122.682883 
L 266.208544 -122.741541 
L 261.091039 -122.79694 
L 255.973533 -122.84908 
L 250.856028 -122.897961 
L 245.738522 -122.943584 
L 240.621017 -122.985948 
L 235.503511 -123.025053 
L 230.386006 -123.060899 
L 225.268501 -123.093487 
L 220.150995 -123.122816 
L 215.03349 -123.148886 
L 209.915984 -123.171697 
L 204.798479 -123.19125 
L 199.680973 -123.207543 
L 194.563468 -123.220578 
L 189.445962 -123.230355 
L 184.328457 -123.236872 
L 179.210952 -123.240131 
L 174.093446 -123.240131 
L 168.975941 -123.240131 
L 163.858435 -123.240131 
L 158.74093 -123.240131 
L 153.623424 -123.240131 
L 148.505919 -123.240131 
L 143.388413 -123.240131 
L 138.270908 -123.240131 
L 133.153402 -123.240131 
L 128.035897 -123.240131 
L 122.918392 -123.240131 
z
" style="stroke: #db57d3; stroke-opacity: 0.65"/>
    </defs>
    <g clip-path="url(#p89ba95abc3)">
     <use xlink:href="#m01a48ca462" x="0" y="280.512" style="fill: #db57d3; fill-opacity: 0.65; stroke: #db57d3; stroke-opacity: 0.65"/>
    </g>
   </g>
   <g id="PolyCollection_20">
    <defs>
     <path id="m77ab0c71c0" d="M 122.918392 -127.63088 
L 122.918392 -123.240131 
L 128.035897 -123.240131 
L 133.153402 -123.240131 
L 138.270908 -123.240131 
L 143.388413 -123.240131 
L 148.505919 -123.240131 
L 153.623424 -123.240131 
L 158.74093 -123.240131 
L 163.858435 -123.240131 
L 168.975941 -123.240131 
L 174.093446 -123.240131 
L 179.210952 -123.240131 
L 184.328457 -123.267239 
L 189.445962 -123.321454 
L 194.563468 -123.402777 
L 199.680973 -123.511208 
L 204.798479 -123.646747 
L 209.915984 -123.809393 
L 215.03349 -123.999148 
L 220.150995 -124.216009 
L 225.268501 -124.459979 
L 230.386006 -124.731056 
L 235.503511 -125.029241 
L 240.621017 -125.354534 
L 245.738522 -125.706935 
L 250.856028 -126.086443 
L 255.973533 -126.493059 
L 261.091039 -126.926783 
L 266.208544 -127.387614 
L 271.32605 -127.875553 
L 276.443555 -128.3906 
L 281.56106 -128.932755 
L 286.678566 -129.447802 
L 291.796071 -129.935741 
L 296.913577 -130.396572 
L 302.031082 -130.830296 
L 307.148588 -131.236912 
L 312.266093 -131.61642 
L 317.383599 -131.968821 
L 322.501104 -132.294114 
L 327.618609 -132.592299 
L 332.736115 -132.863376 
L 337.85362 -133.107345 
L 342.971126 -133.324207 
L 348.088631 -133.513961 
L 353.206137 -133.676608 
L 358.323642 -133.812147 
L 363.441148 -133.920577 
L 368.558653 -134.001901 
L 373.676158 -134.056116 
L 378.793664 -134.083224 
L 383.911169 -134.083224 
L 389.028675 -134.083224 
L 394.14618 -134.083224 
L 399.263686 -134.083224 
L 404.381191 -134.083224 
L 409.498697 -134.083224 
L 414.616202 -134.083224 
L 419.733707 -134.083224 
L 424.851213 -134.083224 
L 429.968718 -134.083224 
L 435.086224 -134.083224 
L 435.086224 -138.473973 
L 435.086224 -138.473973 
L 429.968718 -138.473973 
L 424.851213 -138.473973 
L 419.733707 -138.473973 
L 414.616202 -138.473973 
L 409.498697 -138.473973 
L 404.381191 -138.473973 
L 399.263686 -138.473973 
L 394.14618 -138.473973 
L 389.028675 -138.473973 
L 383.911169 -138.473973 
L 378.793664 -138.473973 
L 373.676158 -138.446865 
L 368.558653 -138.39265 
L 363.441148 -138.311327 
L 358.323642 -138.202896 
L 353.206137 -138.067357 
L 348.088631 -137.904711 
L 342.971126 -137.714957 
L 337.85362 -137.498095 
L 332.736115 -137.254125 
L 327.618609 -136.983048 
L 322.501104 -136.684863 
L 317.383599 -136.35957 
L 312.266093 -136.00717 
L 307.148588 -135.627661 
L 302.031082 -135.221045 
L 296.913577 -134.787322 
L 291.796071 -134.32649 
L 286.678566 -133.838551 
L 281.56106 -133.323504 
L 276.443555 -132.781349 
L 271.32605 -132.266303 
L 266.208544 -131.778363 
L 261.091039 -131.317532 
L 255.973533 -130.883808 
L 250.856028 -130.477192 
L 245.738522 -130.097684 
L 240.621017 -129.745283 
L 235.503511 -129.419991 
L 230.386006 -129.121806 
L 225.268501 -128.850728 
L 220.150995 -128.606759 
L 215.03349 -128.389897 
L 209.915984 -128.200143 
L 204.798479 -128.037496 
L 199.680973 -127.901958 
L 194.563468 -127.793527 
L 189.445962 -127.712204 
L 184.328457 -127.657988 
L 179.210952 -127.63088 
L 174.093446 -127.63088 
L 168.975941 -127.63088 
L 163.858435 -127.63088 
L 158.74093 -127.63088 
L 153.623424 -127.63088 
L 148.505919 -127.63088 
L 143.388413 -127.63088 
L 138.270908 -127.63088 
L 133.153402 -127.63088 
L 128.035897 -127.63088 
L 122.918392 -127.63088 
z
" style="stroke: #db57d3; stroke-opacity: 0.65"/>
    </defs>
    <g clip-path="url(#p89ba95abc3)">
     <use xlink:href="#m77ab0c71c0" x="0" y="280.512" style="fill: #db57d3; fill-opacity: 0.65; stroke: #db57d3; stroke-opacity: 0.65"/>
    </g>
   </g>
   <g id="PolyCollection_21">
    <defs>
     <path id="m27e9badab3" d="M 122.918392 -139.022817 
L 122.918392 -137.30768 
L 128.035897 -137.30768 
L 133.153402 -137.30768 
L 138.270908 -137.30768 
L 143.388413 -137.30768 
L 148.505919 -137.30768 
L 153.623424 -137.30768 
L 158.74093 -137.30768 
L 163.858435 -137.30768 
L 168.975941 -137.30768 
L 174.093446 -137.30768 
L 179.210952 -137.30768 
L 184.328457 -137.269253 
L 189.445962 -137.192397 
L 194.563468 -137.077115 
L 199.680973 -136.923404 
L 204.798479 -136.731266 
L 209.915984 -136.5007 
L 215.03349 -136.231707 
L 220.150995 -135.924286 
L 225.268501 -135.578437 
L 230.386006 -135.194161 
L 235.503511 -134.771457 
L 240.621017 -134.310325 
L 245.738522 -133.810766 
L 250.856028 -133.272779 
L 255.973533 -132.696364 
L 261.091039 -132.081522 
L 266.208544 -131.428253 
L 271.32605 -130.736555 
L 276.443555 -130.00643 
L 281.56106 -129.237878 
L 286.678566 -128.507752 
L 291.796071 -127.816055 
L 296.913577 -127.162785 
L 302.031082 -126.547943 
L 307.148588 -125.971529 
L 312.266093 -125.433542 
L 317.383599 -124.933983 
L 322.501104 -124.472851 
L 327.618609 -124.050147 
L 332.736115 -123.665871 
L 337.85362 -123.320022 
L 342.971126 -123.012601 
L 348.088631 -122.743608 
L 353.206137 -122.513042 
L 358.323642 -122.320904 
L 363.441148 -122.167193 
L 368.558653 -122.05191 
L 373.676158 -121.975055 
L 378.793664 -121.936627 
L 383.911169 -121.936627 
L 389.028675 -121.936627 
L 394.14618 -121.936627 
L 399.263686 -121.936627 
L 404.381191 -121.936627 
L 409.498697 -121.936627 
L 414.616202 -121.936627 
L 419.733707 -121.936627 
L 424.851213 -121.936627 
L 429.968718 -121.936627 
L 435.086224 -121.936627 
L 435.086224 -123.651764 
L 435.086224 -123.651764 
L 429.968718 -123.651764 
L 424.851213 -123.651764 
L 419.733707 -123.651764 
L 414.616202 -123.651764 
L 409.498697 -123.651764 
L 404.381191 -123.651764 
L 399.263686 -123.651764 
L 394.14618 -123.651764 
L 389.028675 -123.651764 
L 383.911169 -123.651764 
L 378.793664 -123.651764 
L 373.676158 -123.690191 
L 368.558653 -123.767047 
L 363.441148 -123.88233 
L 358.323642 -124.03604 
L 353.206137 -124.228178 
L 348.088631 -124.458744 
L 342.971126 -124.727737 
L 337.85362 -125.035159 
L 332.736115 -125.381007 
L 327.618609 -125.765284 
L 322.501104 -126.187988 
L 317.383599 -126.649119 
L 312.266093 -127.148678 
L 307.148588 -127.686665 
L 302.031082 -128.26308 
L 296.913577 -128.877922 
L 291.796071 -129.531192 
L 286.678566 -130.222889 
L 281.56106 -130.953014 
L 276.443555 -131.721567 
L 271.32605 -132.451692 
L 266.208544 -133.143389 
L 261.091039 -133.796659 
L 255.973533 -134.411501 
L 250.856028 -134.987915 
L 245.738522 -135.525902 
L 240.621017 -136.025462 
L 235.503511 -136.486593 
L 230.386006 -136.909297 
L 225.268501 -137.293573 
L 220.150995 -137.639422 
L 215.03349 -137.946843 
L 209.915984 -138.215837 
L 204.798479 -138.446402 
L 199.680973 -138.638541 
L 194.563468 -138.792251 
L 189.445962 -138.907534 
L 184.328457 -138.984389 
L 179.210952 -139.022817 
L 174.093446 -139.022817 
L 168.975941 -139.022817 
L 163.858435 -139.022817 
L 158.74093 -139.022817 
L 153.623424 -139.022817 
L 148.505919 -139.022817 
L 143.388413 -139.022817 
L 138.270908 -139.022817 
L 133.153402 -139.022817 
L 128.035897 -139.022817 
L 122.918392 -139.022817 
z
" style="stroke: #db5f57; stroke-opacity: 0.65"/>
    </defs>
    <g clip-path="url(#p89ba95abc3)">
     <use xlink:href="#m27e9badab3" x="0" y="280.512" style="fill: #db5f57; fill-opacity: 0.65; stroke: #db5f57; stroke-opacity: 0.65"/>
    </g>
   </g>
   <g id="PolyCollection_22">
    <defs>
     <path id="mcde90c807e" d="M 122.918392 -194.593239 
L 122.918392 -139.022817 
L 128.035897 -139.022817 
L 133.153402 -139.022817 
L 138.270908 -139.022817 
L 143.388413 -139.022817 
L 148.505919 -139.022817 
L 153.623424 -139.022817 
L 158.74093 -139.022817 
L 163.858435 -139.022817 
L 168.975941 -139.022817 
L 174.093446 -139.022817 
L 179.210952 -139.022817 
L 184.328457 -139.021445 
L 189.445962 -139.018701 
L 194.563468 -139.014584 
L 199.680973 -139.009096 
L 204.798479 -139.002235 
L 209.915984 -138.994003 
L 215.03349 -138.984398 
L 220.150995 -138.973421 
L 225.268501 -138.961072 
L 230.386006 -138.947351 
L 235.503511 -138.932258 
L 240.621017 -138.915792 
L 245.738522 -138.897955 
L 250.856028 -138.878745 
L 255.973533 -138.858164 
L 261.091039 -138.83621 
L 266.208544 -138.812884 
L 271.32605 -138.788186 
L 276.443555 -138.762116 
L 281.56106 -138.734674 
L 286.678566 -138.708604 
L 291.796071 -138.683906 
L 296.913577 -138.66058 
L 302.031082 -138.638626 
L 307.148588 -138.618045 
L 312.266093 -138.598835 
L 317.383599 -138.580998 
L 322.501104 -138.564532 
L 327.618609 -138.549439 
L 332.736115 -138.535718 
L 337.85362 -138.523369 
L 342.971126 -138.512392 
L 348.088631 -138.502787 
L 353.206137 -138.494555 
L 358.323642 -138.487694 
L 363.441148 -138.482206 
L 368.558653 -138.47809 
L 373.676158 -138.475345 
L 378.793664 -138.473973 
L 383.911169 -138.473973 
L 389.028675 -138.473973 
L 394.14618 -138.473973 
L 399.263686 -138.473973 
L 404.381191 -138.473973 
L 409.498697 -138.473973 
L 414.616202 -138.473973 
L 419.733707 -138.473973 
L 424.851213 -138.473973 
L 429.968718 -138.473973 
L 435.086224 -138.473973 
L 435.086224 -194.044395 
L 435.086224 -194.044395 
L 429.968718 -194.044395 
L 424.851213 -194.044395 
L 419.733707 -194.044395 
L 414.616202 -194.044395 
L 409.498697 -194.044395 
L 404.381191 -194.044395 
L 399.263686 -194.044395 
L 394.14618 -194.044395 
L 389.028675 -194.044395 
L 383.911169 -194.044395 
L 378.793664 -194.044395 
L 373.676158 -194.045767 
L 368.558653 -194.048511 
L 363.441148 -194.052628 
L 358.323642 -194.058116 
L 353.206137 -194.064977 
L 348.088631 -194.073209 
L 342.971126 -194.082814 
L 337.85362 -194.093791 
L 332.736115 -194.10614 
L 327.618609 -194.119861 
L 322.501104 -194.134954 
L 317.383599 -194.15142 
L 312.266093 -194.169257 
L 307.148588 -194.188467 
L 302.031082 -194.209048 
L 296.913577 -194.231002 
L 291.796071 -194.254328 
L 286.678566 -194.279026 
L 281.56106 -194.305096 
L 276.443555 -194.332538 
L 271.32605 -194.358608 
L 266.208544 -194.383306 
L 261.091039 -194.406632 
L 255.973533 -194.428586 
L 250.856028 -194.449167 
L 245.738522 -194.468377 
L 240.621017 -194.486214 
L 235.503511 -194.50268 
L 230.386006 -194.517773 
L 225.268501 -194.531494 
L 220.150995 -194.543843 
L 215.03349 -194.55482 
L 209.915984 -194.564424 
L 204.798479 -194.572657 
L 199.680973 -194.579518 
L 194.563468 -194.585006 
L 189.445962 -194.589122 
L 184.328457 -194.591867 
L 179.210952 -194.593239 
L 174.093446 -194.593239 
L 168.975941 -194.593239 
L 163.858435 -194.593239 
L 158.74093 -194.593239 
L 153.623424 -194.593239 
L 148.505919 -194.593239 
L 143.388413 -194.593239 
L 138.270908 -194.593239 
L 133.153402 -194.593239 
L 128.035897 -194.593239 
L 122.918392 -194.593239 
z
" style="stroke: #db5f57; stroke-opacity: 0.65"/>
    </defs>
    <g clip-path="url(#p89ba95abc3)">
     <use xlink:href="#mcde90c807e" x="0" y="280.512" style="fill: #db5f57; fill-opacity: 0.65; stroke: #db5f57; stroke-opacity: 0.65"/>
    </g>
   </g>
   <g id="PolyCollection_23">
    <defs>
     <path id="m8adb9e5f41" d="M 122.918392 -194.867661 
L 122.918392 -194.593239 
L 128.035897 -194.593239 
L 133.153402 -194.593239 
L 138.270908 -194.593239 
L 143.388413 -194.593239 
L 148.505919 -194.593239 
L 153.623424 -194.593239 
L 158.74093 -194.593239 
L 163.858435 -194.593239 
L 168.975941 -194.593239 
L 174.093446 -194.593239 
L 179.210952 -194.593239 
L 184.328457 -194.754479 
L 189.445962 -195.076959 
L 194.563468 -195.560679 
L 199.680973 -196.205639 
L 204.798479 -197.011838 
L 209.915984 -197.979278 
L 215.03349 -199.107958 
L 220.150995 -200.397878 
L 225.268501 -201.849038 
L 230.386006 -203.461438 
L 235.503511 -205.235077 
L 240.621017 -207.169957 
L 245.738522 -209.266077 
L 250.856028 -211.523437 
L 255.973533 -213.942036 
L 261.091039 -216.521876 
L 266.208544 -219.262956 
L 271.32605 -222.165275 
L 276.443555 -225.228835 
L 281.56106 -228.453635 
L 286.678566 -231.517194 
L 291.796071 -234.419514 
L 296.913577 -237.160593 
L 302.031082 -239.740433 
L 307.148588 -242.159033 
L 312.266093 -244.416393 
L 317.383599 -246.512512 
L 322.501104 -248.447392 
L 327.618609 -250.221032 
L 332.736115 -251.833432 
L 337.85362 -253.284591 
L 342.971126 -254.574511 
L 348.088631 -255.703191 
L 353.206137 -256.670631 
L 358.323642 -257.476831 
L 363.441148 -258.121791 
L 368.558653 -258.605511 
L 373.676158 -258.927991 
L 378.793664 -259.089231 
L 383.911169 -259.089231 
L 389.028675 -259.089231 
L 394.14618 -259.089231 
L 399.263686 -259.089231 
L 404.381191 -259.089231 
L 409.498697 -259.089231 
L 414.616202 -259.089231 
L 419.733707 -259.089231 
L 424.851213 -259.089231 
L 429.968718 -259.089231 
L 435.086224 -259.089231 
L 435.086224 -259.363653 
L 435.086224 -259.363653 
L 429.968718 -259.363653 
L 424.851213 -259.363653 
L 419.733707 -259.363653 
L 414.616202 -259.363653 
L 409.498697 -259.363653 
L 404.381191 -259.363653 
L 399.263686 -259.363653 
L 394.14618 -259.363653 
L 389.028675 -259.363653 
L 383.911169 -259.363653 
L 378.793664 -259.363653 
L 373.676158 -259.202413 
L 368.558653 -258.879933 
L 363.441148 -258.396213 
L 358.323642 -257.751253 
L 353.206137 -256.945053 
L 348.088631 -255.977613 
L 342.971126 -254.848933 
L 337.85362 -253.559013 
L 332.736115 -252.107853 
L 327.618609 -250.495454 
L 322.501104 -248.721814 
L 317.383599 -246.786934 
L 312.266093 -244.690814 
L 307.148588 -242.433455 
L 302.031082 -240.014855 
L 296.913577 -237.435015 
L 291.796071 -234.693936 
L 286.678566 -231.791616 
L 281.56106 -228.728056 
L 276.443555 -225.503257 
L 271.32605 -222.439697 
L 266.208544 -219.537378 
L 261.091039 -216.796298 
L 255.973533 -214.216458 
L 250.856028 -211.797858 
L 245.738522 -209.540499 
L 240.621017 -207.444379 
L 235.503511 -205.509499 
L 230.386006 -203.735859 
L 225.268501 -202.12346 
L 220.150995 -200.6723 
L 215.03349 -199.38238 
L 209.915984 -198.2537 
L 204.798479 -197.28626 
L 199.680973 -196.48006 
L 194.563468 -195.8351 
L 189.445962 -195.35138 
L 184.328457 -195.028901 
L 179.210952 -194.867661 
L 174.093446 -194.867661 
L 168.975941 -194.867661 
L 163.858435 -194.867661 
L 158.74093 -194.867661 
L 153.623424 -194.867661 
L 148.505919 -194.867661 
L 143.388413 -194.867661 
L 138.270908 -194.867661 
L 133.153402 -194.867661 
L 128.035897 -194.867661 
L 122.918392 -194.867661 
z
" style="stroke: #db5f57; stroke-opacity: 0.65"/>
    </defs>
    <g clip-path="url(#p89ba95abc3)">
     <use xlink:href="#m8adb9e5f41" x="0" y="280.512" style="fill: #db5f57; fill-opacity: 0.65; stroke: #db5f57; stroke-opacity: 0.65"/>
    </g>
   </g>
   <g id="PolyCollection_24">
    <defs>
     <path id="m32f1e0d2b9" d="M 122.918392 -204.613066 
L 122.918392 -204.544461 
L 128.035897 -204.544461 
L 133.153402 -204.544461 
L 138.270908 -204.544461 
L 143.388413 -204.544461 
L 148.505919 -204.544461 
L 153.623424 -204.544461 
L 158.74093 -204.544461 
L 163.858435 -204.544461 
L 168.975941 -204.544461 
L 174.093446 -204.544461 
L 179.210952 -204.544461 
L 184.328457 -204.1858 
L 189.445962 -203.468478 
L 194.563468 -202.392496 
L 199.680973 -200.957853 
L 204.798479 -199.164549 
L 209.915984 -197.012584 
L 215.03349 -194.501959 
L 220.150995 -191.632673 
L 225.268501 -188.404726 
L 230.386006 -184.818119 
L 235.503511 -180.87285 
L 240.621017 -176.568921 
L 245.738522 -171.906331 
L 250.856028 -166.88508 
L 255.973533 -161.505169 
L 261.091039 -155.766597 
L 266.208544 -149.669364 
L 271.32605 -143.21347 
L 276.443555 -136.398915 
L 281.56106 -129.2257 
L 286.678566 -122.411146 
L 291.796071 -115.955252 
L 296.913577 -109.858019 
L 302.031082 -104.119447 
L 307.148588 -98.739535 
L 312.266093 -93.718284 
L 317.383599 -89.055694 
L 322.501104 -84.751765 
L 327.618609 -80.806497 
L 332.736115 -77.219889 
L 337.85362 -73.991942 
L 342.971126 -71.122656 
L 348.088631 -68.612031 
L 353.206137 -66.460066 
L 358.323642 -64.666762 
L 363.441148 -63.232119 
L 368.558653 -62.156137 
L 373.676158 -61.438816 
L 378.793664 -61.080155 
L 383.911169 -61.080155 
L 389.028675 -61.080155 
L 394.14618 -61.080155 
L 399.263686 -61.080155 
L 404.381191 -61.080155 
L 409.498697 -61.080155 
L 414.616202 -61.080155 
L 419.733707 -61.080155 
L 424.851213 -61.080155 
L 429.968718 -61.080155 
L 435.086224 -61.080155 
L 435.086224 -61.14876 
L 435.086224 -61.14876 
L 429.968718 -61.14876 
L 424.851213 -61.14876 
L 419.733707 -61.14876 
L 414.616202 -61.14876 
L 409.498697 -61.14876 
L 404.381191 -61.14876 
L 399.263686 -61.14876 
L 394.14618 -61.14876 
L 389.028675 -61.14876 
L 383.911169 -61.14876 
L 378.793664 -61.14876 
L 373.676158 -61.507421 
L 368.558653 -62.224743 
L 363.441148 -63.300725 
L 358.323642 -64.735368 
L 353.206137 -66.528672 
L 348.088631 -68.680636 
L 342.971126 -71.191262 
L 337.85362 -74.060548 
L 332.736115 -77.288495 
L 327.618609 -80.875102 
L 322.501104 -84.820371 
L 317.383599 -89.1243 
L 312.266093 -93.78689 
L 307.148588 -98.808141 
L 302.031082 -104.188052 
L 296.913577 -109.926624 
L 291.796071 -116.023857 
L 286.678566 -122.479751 
L 281.56106 -129.294306 
L 276.443555 -136.467521 
L 271.32605 -143.282075 
L 266.208544 -149.737969 
L 261.091039 -155.835202 
L 255.973533 -161.573774 
L 250.856028 -166.953686 
L 245.738522 -171.974936 
L 240.621017 -176.637526 
L 235.503511 -180.941456 
L 230.386006 -184.886724 
L 225.268501 -188.473332 
L 220.150995 -191.701278 
L 215.03349 -194.570565 
L 209.915984 -197.08119 
L 204.798479 -199.233155 
L 199.680973 -201.026458 
L 194.563468 -202.461101 
L 189.445962 -203.537084 
L 184.328457 -204.254405 
L 179.210952 -204.613066 
L 174.093446 -204.613066 
L 168.975941 -204.613066 
L 163.858435 -204.613066 
L 158.74093 -204.613066 
L 153.623424 -204.613066 
L 148.505919 -204.613066 
L 143.388413 -204.613066 
L 138.270908 -204.613066 
L 133.153402 -204.613066 
L 128.035897 -204.613066 
L 122.918392 -204.613066 
z
" style="stroke: #d3db57; stroke-opacity: 0.65"/>
    </defs>
    <g clip-path="url(#p89ba95abc3)">
     <use xlink:href="#m32f1e0d2b9" x="0" y="280.512" style="fill: #d3db57; fill-opacity: 0.65; stroke: #d3db57; stroke-opacity: 0.65"/>
    </g>
   </g>
   <g id="PolyCollection_25">
    <defs>
     <path id="m38334587dd" d="M 122.918392 -212.091061 
L 122.918392 -204.613066 
L 128.035897 -204.613066 
L 133.153402 -204.613066 
L 138.270908 -204.613066 
L 143.388413 -204.613066 
L 148.505919 -204.613066 
L 153.623424 -204.613066 
L 158.74093 -204.613066 
L 163.858435 -204.613066 
L 168.975941 -204.613066 
L 174.093446 -204.613066 
L 179.210952 -204.613066 
L 184.328457 -204.586644 
L 189.445962 -204.533801 
L 194.563468 -204.454536 
L 199.680973 -204.348849 
L 204.798479 -204.216741 
L 209.915984 -204.058211 
L 215.03349 -203.873259 
L 220.150995 -203.661886 
L 225.268501 -203.424091 
L 230.386006 -203.159874 
L 235.503511 -202.869235 
L 240.621017 -202.552175 
L 245.738522 -202.208693 
L 250.856028 -201.83879 
L 255.973533 -201.442465 
L 261.091039 -201.019718 
L 266.208544 -200.570549 
L 271.32605 -200.094959 
L 276.443555 -199.592947 
L 281.56106 -199.064514 
L 286.678566 -198.562502 
L 291.796071 -198.086912 
L 296.913577 -197.637743 
L 302.031082 -197.214996 
L 307.148588 -196.818671 
L 312.266093 -196.448768 
L 317.383599 -196.105286 
L 322.501104 -195.788226 
L 327.618609 -195.497587 
L 332.736115 -195.233371 
L 337.85362 -194.995575 
L 342.971126 -194.784202 
L 348.088631 -194.59925 
L 353.206137 -194.44072 
L 358.323642 -194.308612 
L 363.441148 -194.202925 
L 368.558653 -194.12366 
L 373.676158 -194.070817 
L 378.793664 -194.044395 
L 383.911169 -194.044395 
L 389.028675 -194.044395 
L 394.14618 -194.044395 
L 399.263686 -194.044395 
L 404.381191 -194.044395 
L 409.498697 -194.044395 
L 414.616202 -194.044395 
L 419.733707 -194.044395 
L 424.851213 -194.044395 
L 429.968718 -194.044395 
L 435.086224 -194.044395 
L 435.086224 -201.52239 
L 435.086224 -201.52239 
L 429.968718 -201.52239 
L 424.851213 -201.52239 
L 419.733707 -201.52239 
L 414.616202 -201.52239 
L 409.498697 -201.52239 
L 404.381191 -201.52239 
L 399.263686 -201.52239 
L 394.14618 -201.52239 
L 389.028675 -201.52239 
L 383.911169 -201.52239 
L 378.793664 -201.52239 
L 373.676158 -201.548812 
L 368.558653 -201.601655 
L 363.441148 -201.68092 
L 358.323642 -201.786607 
L 353.206137 -201.918715 
L 348.088631 -202.077245 
L 342.971126 -202.262197 
L 337.85362 -202.47357 
L 332.736115 -202.711366 
L 327.618609 -202.975582 
L 322.501104 -203.266221 
L 317.383599 -203.583281 
L 312.266093 -203.926763 
L 307.148588 -204.296666 
L 302.031082 -204.692991 
L 296.913577 -205.115738 
L 291.796071 -205.564907 
L 286.678566 -206.040497 
L 281.56106 -206.542509 
L 276.443555 -207.070942 
L 271.32605 -207.572954 
L 266.208544 -208.048544 
L 261.091039 -208.497713 
L 255.973533 -208.92046 
L 250.856028 -209.316785 
L 245.738522 -209.686688 
L 240.621017 -210.03017 
L 235.503511 -210.34723 
L 230.386006 -210.637869 
L 225.268501 -210.902086 
L 220.150995 -211.139881 
L 215.03349 -211.351254 
L 209.915984 -211.536206 
L 204.798479 -211.694736 
L 199.680973 -211.826844 
L 194.563468 -211.932531 
L 189.445962 -212.011796 
L 184.328457 -212.064639 
L 179.210952 -212.091061 
L 174.093446 -212.091061 
L 168.975941 -212.091061 
L 163.858435 -212.091061 
L 158.74093 -212.091061 
L 153.623424 -212.091061 
L 148.505919 -212.091061 
L 143.388413 -212.091061 
L 138.270908 -212.091061 
L 133.153402 -212.091061 
L 128.035897 -212.091061 
L 122.918392 -212.091061 
z
" style="stroke: #d3db57; stroke-opacity: 0.65"/>
    </defs>
    <g clip-path="url(#p89ba95abc3)">
     <use xlink:href="#m38334587dd" x="0" y="280.512" style="fill: #d3db57; fill-opacity: 0.65; stroke: #d3db57; stroke-opacity: 0.65"/>
    </g>
   </g>
   <g id="PolyCollection_26">
    <defs>
     <path id="m300e7f8bd7" d="M 122.918392 -222.179494 
L 122.918392 -221.767861 
L 128.035897 -221.767861 
L 133.153402 -221.767861 
L 138.270908 -221.767861 
L 143.388413 -221.767861 
L 148.505919 -221.767861 
L 153.623424 -221.767861 
L 158.74093 -221.767861 
L 163.858435 -221.767861 
L 168.975941 -221.767861 
L 174.093446 -221.767861 
L 179.210952 -221.767861 
L 184.328457 -221.717247 
L 189.445962 -221.61602 
L 194.563468 -221.464179 
L 199.680973 -221.261724 
L 204.798479 -221.008656 
L 209.915984 -220.704974 
L 215.03349 -220.350678 
L 220.150995 -219.945769 
L 225.268501 -219.490246 
L 230.386006 -218.984109 
L 235.503511 -218.427358 
L 240.621017 -217.819994 
L 245.738522 -217.162016 
L 250.856028 -216.453425 
L 255.973533 -215.69422 
L 261.091039 -214.884401 
L 266.208544 -214.023968 
L 271.32605 -213.112922 
L 276.443555 -212.151262 
L 281.56106 -211.138989 
L 286.678566 -210.177329 
L 291.796071 -209.266283 
L 296.913577 -208.40585 
L 302.031082 -207.596031 
L 307.148588 -206.836826 
L 312.266093 -206.128235 
L 317.383599 -205.470257 
L 322.501104 -204.862893 
L 327.618609 -204.306142 
L 332.736115 -203.800006 
L 337.85362 -203.344482 
L 342.971126 -202.939573 
L 348.088631 -202.585277 
L 353.206137 -202.281595 
L 358.323642 -202.028527 
L 363.441148 -201.826072 
L 368.558653 -201.674231 
L 373.676158 -201.573004 
L 378.793664 -201.52239 
L 383.911169 -201.52239 
L 389.028675 -201.52239 
L 394.14618 -201.52239 
L 399.263686 -201.52239 
L 404.381191 -201.52239 
L 409.498697 -201.52239 
L 414.616202 -201.52239 
L 419.733707 -201.52239 
L 424.851213 -201.52239 
L 429.968718 -201.52239 
L 435.086224 -201.52239 
L 435.086224 -201.934023 
L 435.086224 -201.934023 
L 429.968718 -201.934023 
L 424.851213 -201.934023 
L 419.733707 -201.934023 
L 414.616202 -201.934023 
L 409.498697 -201.934023 
L 404.381191 -201.934023 
L 399.263686 -201.934023 
L 394.14618 -201.934023 
L 389.028675 -201.934023 
L 383.911169 -201.934023 
L 378.793664 -201.934023 
L 373.676158 -201.984637 
L 368.558653 -202.085864 
L 363.441148 -202.237705 
L 358.323642 -202.44016 
L 353.206137 -202.693228 
L 348.088631 -202.99691 
L 342.971126 -203.351206 
L 337.85362 -203.756115 
L 332.736115 -204.211638 
L 327.618609 -204.717775 
L 322.501104 -205.274526 
L 317.383599 -205.88189 
L 312.266093 -206.539867 
L 307.148588 -207.248459 
L 302.031082 -208.007664 
L 296.913577 -208.817483 
L 291.796071 -209.677915 
L 286.678566 -210.588962 
L 281.56106 -211.550622 
L 276.443555 -212.562895 
L 271.32605 -213.524555 
L 266.208544 -214.435601 
L 261.091039 -215.296034 
L 255.973533 -216.105853 
L 250.856028 -216.865058 
L 245.738522 -217.573649 
L 240.621017 -218.231627 
L 235.503511 -218.838991 
L 230.386006 -219.395742 
L 225.268501 -219.901878 
L 220.150995 -220.357401 
L 215.03349 -220.762311 
L 209.915984 -221.116607 
L 204.798479 -221.420289 
L 199.680973 -221.673357 
L 194.563468 -221.875812 
L 189.445962 -222.027653 
L 184.328457 -222.12888 
L 179.210952 -222.179494 
L 174.093446 -222.179494 
L 168.975941 -222.179494 
L 163.858435 -222.179494 
L 158.74093 -222.179494 
L 153.623424 -222.179494 
L 148.505919 -222.179494 
L 143.388413 -222.179494 
L 138.270908 -222.179494 
L 133.153402 -222.179494 
L 128.035897 -222.179494 
L 122.918392 -222.179494 
z
" style="stroke: #57d3db; stroke-opacity: 0.65"/>
    </defs>
    <g clip-path="url(#p89ba95abc3)">
     <use xlink:href="#m300e7f8bd7" x="0" y="280.512" style="fill: #57d3db; fill-opacity: 0.65; stroke: #57d3db; stroke-opacity: 0.65"/>
    </g>
   </g>
   <g id="PolyCollection_27">
    <defs>
     <path id="m1ef02704a3" d="M 122.918392 -259.363653 
L 122.918392 -222.179494 
L 128.035897 -222.179494 
L 133.153402 -222.179494 
L 138.270908 -222.179494 
L 143.388413 -222.179494 
L 148.505919 -222.179494 
L 153.623424 -222.179494 
L 158.74093 -222.179494 
L 163.858435 -222.179494 
L 168.975941 -222.179494 
L 174.093446 -222.179494 
L 179.210952 -222.179494 
L 184.328457 -222.153072 
L 189.445962 -222.100229 
L 194.563468 -222.020964 
L 199.680973 -221.915277 
L 204.798479 -221.783169 
L 209.915984 -221.624639 
L 215.03349 -221.439687 
L 220.150995 -221.228313 
L 225.268501 -220.990518 
L 230.386006 -220.726302 
L 235.503511 -220.435663 
L 240.621017 -220.118603 
L 245.738522 -219.775121 
L 250.856028 -219.405218 
L 255.973533 -219.008893 
L 261.091039 -218.586146 
L 266.208544 -218.136977 
L 271.32605 -217.661387 
L 276.443555 -217.159375 
L 281.56106 -216.630942 
L 286.678566 -216.12893 
L 291.796071 -215.653339 
L 296.913577 -215.204171 
L 302.031082 -214.781424 
L 307.148588 -214.385099 
L 312.266093 -214.015195 
L 317.383599 -213.671714 
L 322.501104 -213.354654 
L 327.618609 -213.064015 
L 332.736115 -212.799798 
L 337.85362 -212.562003 
L 342.971126 -212.35063 
L 348.088631 -212.165678 
L 353.206137 -212.007148 
L 358.323642 -211.87504 
L 363.441148 -211.769353 
L 368.558653 -211.690088 
L 373.676158 -211.637245 
L 378.793664 -211.610823 
L 383.911169 -211.610823 
L 389.028675 -211.610823 
L 394.14618 -211.610823 
L 399.263686 -211.610823 
L 404.381191 -211.610823 
L 409.498697 -211.610823 
L 414.616202 -211.610823 
L 419.733707 -211.610823 
L 424.851213 -211.610823 
L 429.968718 -211.610823 
L 435.086224 -211.610823 
L 435.086224 -248.794982 
L 435.086224 -248.794982 
L 429.968718 -248.794982 
L 424.851213 -248.794982 
L 419.733707 -248.794982 
L 414.616202 -248.794982 
L 409.498697 -248.794982 
L 404.381191 -248.794982 
L 399.263686 -248.794982 
L 394.14618 -248.794982 
L 389.028675 -248.794982 
L 383.911169 -248.794982 
L 378.793664 -248.794982 
L 373.676158 -248.821403 
L 368.558653 -248.874247 
L 363.441148 -248.953512 
L 358.323642 -249.059198 
L 353.206137 -249.191307 
L 348.088631 -249.349837 
L 342.971126 -249.534789 
L 337.85362 -249.746162 
L 332.736115 -249.983957 
L 327.618609 -250.248174 
L 322.501104 -250.538812 
L 317.383599 -250.855872 
L 312.266093 -251.199354 
L 307.148588 -251.569258 
L 302.031082 -251.965583 
L 296.913577 -252.38833 
L 291.796071 -252.837498 
L 286.678566 -253.313088 
L 281.56106 -253.8151 
L 276.443555 -254.343534 
L 271.32605 -254.845546 
L 266.208544 -255.321136 
L 261.091039 -255.770304 
L 255.973533 -256.193051 
L 250.856028 -256.589376 
L 245.738522 -256.95928 
L 240.621017 -257.302762 
L 235.503511 -257.619822 
L 230.386006 -257.91046 
L 225.268501 -258.174677 
L 220.150995 -258.412472 
L 215.03349 -258.623846 
L 209.915984 -258.808797 
L 204.798479 -258.967327 
L 199.680973 -259.099436 
L 194.563468 -259.205123 
L 189.445962 -259.284388 
L 184.328457 -259.337231 
L 179.210952 -259.363653 
L 174.093446 -259.363653 
L 168.975941 -259.363653 
L 163.858435 -259.363653 
L 158.74093 -259.363653 
L 153.623424 -259.363653 
L 148.505919 -259.363653 
L 143.388413 -259.363653 
L 138.270908 -259.363653 
L 133.153402 -259.363653 
L 128.035897 -259.363653 
L 122.918392 -259.363653 
z
" style="stroke: #57d3db; stroke-opacity: 0.65"/>
    </defs>
    <g clip-path="url(#p89ba95abc3)">
     <use xlink:href="#m1ef02704a3" x="0" y="280.512" style="fill: #57d3db; fill-opacity: 0.65; stroke: #57d3db; stroke-opacity: 0.65"/>
    </g>
   </g>
   <g id="PolyCollection_28">
    <defs>
     <path id="mbeee2c14c2" d="M 122.918392 -261.216 
L 122.918392 -259.363653 
L 128.035897 -259.363653 
L 133.153402 -259.363653 
L 138.270908 -259.363653 
L 143.388413 -259.363653 
L 148.505919 -259.363653 
L 153.623424 -259.363653 
L 158.74093 -259.363653 
L 163.858435 -259.363653 
L 168.975941 -259.363653 
L 174.093446 -259.363653 
L 179.210952 -259.363653 
L 184.328457 -259.363653 
L 189.445962 -259.363653 
L 194.563468 -259.363653 
L 199.680973 -259.363653 
L 204.798479 -259.363653 
L 209.915984 -259.363653 
L 215.03349 -259.363653 
L 220.150995 -259.363653 
L 225.268501 -259.363653 
L 230.386006 -259.363653 
L 235.503511 -259.363653 
L 240.621017 -259.363653 
L 245.738522 -259.363653 
L 250.856028 -259.363653 
L 255.973533 -259.363653 
L 261.091039 -259.363653 
L 266.208544 -259.363653 
L 271.32605 -259.363653 
L 276.443555 -259.363653 
L 281.56106 -259.363653 
L 286.678566 -259.363653 
L 291.796071 -259.363653 
L 296.913577 -259.363653 
L 302.031082 -259.363653 
L 307.148588 -259.363653 
L 312.266093 -259.363653 
L 317.383599 -259.363653 
L 322.501104 -259.363653 
L 327.618609 -259.363653 
L 332.736115 -259.363653 
L 337.85362 -259.363653 
L 342.971126 -259.363653 
L 348.088631 -259.363653 
L 353.206137 -259.363653 
L 358.323642 -259.363653 
L 363.441148 -259.363653 
L 368.558653 -259.363653 
L 373.676158 -259.363653 
L 378.793664 -259.363653 
L 383.911169 -259.363653 
L 389.028675 -259.363653 
L 394.14618 -259.363653 
L 399.263686 -259.363653 
L 404.381191 -259.363653 
L 409.498697 -259.363653 
L 414.616202 -259.363653 
L 419.733707 -259.363653 
L 424.851213 -259.363653 
L 429.968718 -259.363653 
L 435.086224 -259.363653 
L 435.086224 -261.216 
L 435.086224 -261.216 
L 429.968718 -261.216 
L 424.851213 -261.216 
L 419.733707 -261.216 
L 414.616202 -261.216 
L 409.498697 -261.216 
L 404.381191 -261.216 
L 399.263686 -261.216 
L 394.14618 -261.216 
L 389.028675 -261.216 
L 383.911169 -261.216 
L 378.793664 -261.216 
L 373.676158 -261.216 
L 368.558653 -261.216 
L 363.441148 -261.216 
L 358.323642 -261.216 
L 353.206137 -261.216 
L 348.088631 -261.216 
L 342.971126 -261.216 
L 337.85362 -261.216 
L 332.736115 -261.216 
L 327.618609 -261.216 
L 322.501104 -261.216 
L 317.383599 -261.216 
L 312.266093 -261.216 
L 307.148588 -261.216 
L 302.031082 -261.216 
L 296.913577 -261.216 
L 291.796071 -261.216 
L 286.678566 -261.216 
L 281.56106 -261.216 
L 276.443555 -261.216 
L 271.32605 -261.216 
L 266.208544 -261.216 
L 261.091039 -261.216 
L 255.973533 -261.216 
L 250.856028 -261.216 
L 245.738522 -261.216 
L 240.621017 -261.216 
L 235.503511 -261.216 
L 230.386006 -261.216 
L 225.268501 -261.216 
L 220.150995 -261.216 
L 215.03349 -261.216 
L 209.915984 -261.216 
L 204.798479 -261.216 
L 199.680973 -261.216 
L 194.563468 -261.216 
L 189.445962 -261.216 
L 184.328457 -261.216 
L 179.210952 -261.216 
L 174.093446 -261.216 
L 168.975941 -261.216 
L 163.858435 -261.216 
L 158.74093 -261.216 
L 153.623424 -261.216 
L 148.505919 -261.216 
L 143.388413 -261.216 
L 138.270908 -261.216 
L 133.153402 -261.216 
L 128.035897 -261.216 
L 122.918392 -261.216 
z
" style="stroke: #57d3db; stroke-opacity: 0.65"/>
    </defs>
    <g clip-path="url(#p89ba95abc3)">
     <use xlink:href="#mbeee2c14c2" x="0" y="280.512" style="fill: #57d3db; fill-opacity: 0.65; stroke: #57d3db; stroke-opacity: 0.65"/>
    </g>
   </g>
   <g id="text_1">
    <!-- Astrocytes -->
    <g transform="translate(53.540625 250.220605) scale(0.12 -0.12)">
     <defs>
      <path id="TimesNewRomanPS-BoldMT-41" d="M 2663 1206 
L 1166 1206 
L 988 794 
Q 900 588 900 453 
Q 900 275 1044 191 
Q 1128 141 1459 116 
L 1459 0 
L 50 0 
L 50 116 
Q 278 150 425 304 
Q 572 459 788 944 
L 2303 4325 
L 2363 4325 
L 3891 850 
Q 4109 356 4250 228 
Q 4356 131 4550 116 
L 4550 0 
L 2500 0 
L 2500 116 
L 2584 116 
Q 2831 116 2931 184 
Q 3000 234 3000 328 
Q 3000 384 2981 444 
Q 2975 472 2888 678 
L 2663 1206 
z
M 2556 1438 
L 1925 2897 
L 1275 1438 
L 2556 1438 
z
" transform="scale(0.015625)"/>
      <path id="TimesNewRomanPS-BoldMT-73" d="M 2063 3003 
L 2109 2006 
L 2003 2006 
Q 1813 2450 1608 2612 
Q 1403 2775 1200 2775 
Q 1072 2775 981 2689 
Q 891 2603 891 2491 
Q 891 2406 953 2328 
Q 1053 2200 1512 1889 
Q 1972 1578 2117 1361 
Q 2263 1144 2263 875 
Q 2263 631 2141 397 
Q 2019 163 1797 37 
Q 1575 -88 1306 -88 
Q 1097 -88 747 44 
Q 653 78 619 78 
Q 516 78 447 -78 
L 344 -78 
L 294 972 
L 400 972 
Q 541 559 786 353 
Q 1031 147 1250 147 
Q 1400 147 1495 239 
Q 1591 331 1591 463 
Q 1591 613 1497 722 
Q 1403 831 1078 1053 
Q 600 1384 459 1559 
Q 253 1816 253 2125 
Q 253 2463 486 2736 
Q 719 3009 1159 3009 
Q 1397 3009 1619 2894 
Q 1703 2847 1756 2847 
Q 1813 2847 1847 2870 
Q 1881 2894 1956 3003 
L 2063 3003 
z
" transform="scale(0.015625)"/>
      <path id="TimesNewRomanPS-BoldMT-74" d="M 1375 3991 
L 1375 2922 
L 2069 2922 
L 2069 2613 
L 1375 2613 
L 1375 809 
Q 1375 556 1398 482 
Q 1422 409 1481 364 
Q 1541 319 1591 319 
Q 1794 319 1975 628 
L 2069 559 
Q 1816 -41 1247 -41 
Q 969 -41 776 114 
Q 584 269 531 459 
Q 500 566 500 1034 
L 500 2613 
L 119 2613 
L 119 2722 
Q 513 3000 789 3306 
Q 1066 3613 1272 3991 
L 1375 3991 
z
" transform="scale(0.015625)"/>
      <path id="TimesNewRomanPS-BoldMT-72" d="M 1428 2922 
L 1428 2259 
Q 1719 2713 1937 2861 
Q 2156 3009 2359 3009 
Q 2534 3009 2639 2901 
Q 2744 2794 2744 2597 
Q 2744 2388 2642 2272 
Q 2541 2156 2397 2156 
Q 2231 2156 2109 2262 
Q 1988 2369 1966 2381 
Q 1934 2400 1894 2400 
Q 1803 2400 1722 2331 
Q 1594 2225 1528 2028 
Q 1428 1725 1428 1359 
L 1428 688 
L 1431 513 
Q 1431 334 1453 284 
Q 1491 200 1564 161 
Q 1638 122 1813 113 
L 1813 0 
L 234 0 
L 234 113 
Q 425 128 492 217 
Q 559 306 559 688 
L 559 2303 
Q 559 2553 534 2622 
Q 503 2709 443 2750 
Q 384 2791 234 2806 
L 234 2922 
L 1428 2922 
z
" transform="scale(0.015625)"/>
      <path id="TimesNewRomanPS-BoldMT-6f" d="M 1594 3009 
Q 1975 3009 2303 2812 
Q 2631 2616 2801 2253 
Q 2972 1891 2972 1459 
Q 2972 838 2656 419 
Q 2275 -88 1603 -88 
Q 944 -88 587 375 
Q 231 838 231 1447 
Q 231 2075 595 2542 
Q 959 3009 1594 3009 
z
M 1606 2788 
Q 1447 2788 1333 2667 
Q 1219 2547 1183 2192 
Q 1147 1838 1147 1206 
Q 1147 872 1191 581 
Q 1225 359 1337 243 
Q 1450 128 1594 128 
Q 1734 128 1828 206 
Q 1950 313 1991 503 
Q 2053 800 2053 1703 
Q 2053 2234 1993 2432 
Q 1934 2631 1819 2722 
Q 1738 2788 1606 2788 
z
" transform="scale(0.015625)"/>
      <path id="TimesNewRomanPS-BoldMT-63" d="M 2600 753 
L 2697 678 
Q 2491 291 2183 101 
Q 1875 -88 1528 -88 
Q 944 -88 594 353 
Q 244 794 244 1413 
Q 244 2009 563 2463 
Q 947 3009 1622 3009 
Q 2075 3009 2342 2781 
Q 2609 2553 2609 2272 
Q 2609 2094 2501 1987 
Q 2394 1881 2219 1881 
Q 2034 1881 1914 2003 
Q 1794 2125 1766 2438 
Q 1747 2634 1675 2713 
Q 1603 2791 1506 2791 
Q 1356 2791 1250 2631 
Q 1088 2391 1088 1894 
Q 1088 1481 1219 1104 
Q 1350 728 1578 544 
Q 1750 409 1984 409 
Q 2138 409 2275 481 
Q 2413 553 2600 753 
z
" transform="scale(0.015625)"/>
      <path id="TimesNewRomanPS-BoldMT-79" d="M 1556 -119 
L 613 2047 
Q 400 2538 298 2650 
Q 197 2763 53 2806 
L 53 2922 
L 1606 2922 
L 1606 2806 
Q 1453 2800 1390 2747 
Q 1328 2694 1328 2619 
Q 1328 2500 1484 2150 
L 1984 1006 
L 2325 1891 
Q 2509 2363 2509 2547 
Q 2509 2663 2432 2731 
Q 2356 2800 2163 2806 
L 2163 2922 
L 3141 2922 
L 3141 2806 
Q 2997 2791 2906 2695 
Q 2816 2600 2603 2047 
L 1769 -119 
Q 1453 -931 1300 -1119 
Q 1084 -1381 759 -1381 
Q 500 -1381 339 -1232 
Q 178 -1084 178 -875 
Q 178 -694 289 -575 
Q 400 -456 563 -456 
Q 719 -456 814 -556 
Q 909 -656 913 -866 
Q 916 -984 941 -1019 
Q 966 -1053 1013 -1053 
Q 1088 -1053 1172 -963 
Q 1297 -831 1466 -363 
L 1556 -119 
z
" transform="scale(0.015625)"/>
      <path id="TimesNewRomanPS-BoldMT-65" d="M 2691 1566 
L 1088 1566 
Q 1116 984 1397 647 
Q 1613 388 1916 388 
Q 2103 388 2256 492 
Q 2409 597 2584 869 
L 2691 800 
Q 2453 316 2165 114 
Q 1878 -88 1500 -88 
Q 850 -88 516 413 
Q 247 816 247 1413 
Q 247 2144 642 2576 
Q 1038 3009 1569 3009 
Q 2013 3009 2339 2645 
Q 2666 2281 2691 1566 
z
M 1922 1775 
Q 1922 2278 1867 2465 
Q 1813 2653 1697 2750 
Q 1631 2806 1522 2806 
Q 1359 2806 1256 2647 
Q 1072 2369 1072 1884 
L 1072 1775 
L 1922 1775 
z
" transform="scale(0.015625)"/>
     </defs>
     <use xlink:href="#TimesNewRomanPS-BoldMT-41"/>
     <use xlink:href="#TimesNewRomanPS-BoldMT-73" x="72.216797"/>
     <use xlink:href="#TimesNewRomanPS-BoldMT-74" x="111.132812"/>
     <use xlink:href="#TimesNewRomanPS-BoldMT-72" x="144.433594"/>
     <use xlink:href="#TimesNewRomanPS-BoldMT-6f" x="187.068359"/>
     <use xlink:href="#TimesNewRomanPS-BoldMT-63" x="237.068359"/>
     <use xlink:href="#TimesNewRomanPS-BoldMT-79" x="281.453125"/>
     <use xlink:href="#TimesNewRomanPS-BoldMT-74" x="331.453125"/>
     <use xlink:href="#TimesNewRomanPS-BoldMT-65" x="364.753906"/>
     <use xlink:href="#TimesNewRomanPS-BoldMT-73" x="409.138672"/>
    </g>
   </g>
   <g id="text_2">
    <!-- Endothelial Cells -->
    <g transform="translate(19.63125 223.630853) scale(0.12 -0.12)">
     <defs>
      <path id="TimesNewRomanPS-BoldMT-45" d="M 1744 3994 
L 1744 2269 
L 1828 2269 
Q 2231 2269 2412 2522 
Q 2594 2775 2644 3269 
L 2763 3269 
L 2763 1050 
L 2644 1050 
Q 2606 1413 2486 1644 
Q 2366 1875 2206 1954 
Q 2047 2034 1744 2034 
L 1744 841 
Q 1744 491 1773 412 
Q 1803 334 1884 284 
Q 1966 234 2147 234 
L 2400 234 
Q 2994 234 3351 509 
Q 3709 784 3866 1347 
L 3981 1347 
L 3791 0 
L 128 0 
L 128 116 
L 269 116 
Q 453 116 566 181 
Q 647 225 691 331 
Q 725 406 725 725 
L 725 3513 
Q 725 3800 709 3866 
Q 678 3975 594 4034 
Q 475 4122 269 4122 
L 128 4122 
L 128 4238 
L 3675 4238 
L 3675 2984 
L 3556 2984 
Q 3466 3444 3302 3644 
Q 3138 3844 2838 3938 
Q 2663 3994 2181 3994 
L 1744 3994 
z
" transform="scale(0.015625)"/>
      <path id="TimesNewRomanPS-BoldMT-6e" d="M 1409 2922 
L 1409 2544 
Q 1634 2788 1840 2898 
Q 2047 3009 2284 3009 
Q 2569 3009 2756 2851 
Q 2944 2694 3006 2459 
Q 3056 2281 3056 1775 
L 3056 638 
Q 3056 300 3117 217 
Q 3178 134 3372 113 
L 3372 0 
L 1894 0 
L 1894 113 
Q 2059 134 2131 250 
Q 2181 328 2181 638 
L 2181 1938 
Q 2181 2297 2153 2390 
Q 2125 2484 2058 2536 
Q 1991 2588 1909 2588 
Q 1641 2588 1409 2203 
L 1409 638 
Q 1409 309 1470 221 
Q 1531 134 1697 113 
L 1697 0 
L 219 0 
L 219 113 
Q 403 131 481 231 
Q 534 300 534 638 
L 534 2288 
Q 534 2619 473 2700 
Q 413 2781 219 2806 
L 219 2922 
L 1409 2922 
z
" transform="scale(0.015625)"/>
      <path id="TimesNewRomanPS-BoldMT-64" d="M 3056 4238 
L 3056 875 
Q 3056 534 3075 472 
Q 3100 369 3170 319 
Q 3241 269 3416 256 
L 3416 153 
L 2181 -88 
L 2181 375 
Q 1959 106 1786 9 
Q 1613 -88 1394 -88 
Q 834 -88 509 413 
Q 247 819 247 1409 
Q 247 1881 409 2254 
Q 572 2628 855 2818 
Q 1138 3009 1463 3009 
Q 1672 3009 1834 2928 
Q 1997 2847 2181 2644 
L 2181 3525 
Q 2181 3859 2153 3928 
Q 2116 4019 2041 4062 
Q 1966 4106 1759 4106 
L 1759 4238 
L 3056 4238 
z
M 2181 2256 
Q 1950 2700 1616 2700 
Q 1500 2700 1425 2638 
Q 1309 2541 1236 2297 
Q 1163 2053 1163 1550 
Q 1163 997 1244 731 
Q 1325 466 1466 347 
Q 1538 288 1663 288 
Q 1938 288 2181 719 
L 2181 2256 
z
" transform="scale(0.015625)"/>
      <path id="TimesNewRomanPS-BoldMT-68" d="M 1409 4238 
L 1409 2547 
Q 1650 2800 1850 2904 
Q 2050 3009 2266 3009 
Q 2541 3009 2736 2853 
Q 2931 2697 2995 2486 
Q 3059 2275 3059 1775 
L 3059 634 
Q 3059 300 3121 217 
Q 3184 134 3375 113 
L 3375 0 
L 1894 0 
L 1894 113 
Q 2050 134 2128 238 
Q 2184 319 2184 634 
L 2184 1938 
Q 2184 2300 2156 2392 
Q 2128 2484 2061 2536 
Q 1994 2588 1909 2588 
Q 1784 2588 1665 2502 
Q 1547 2416 1409 2200 
L 1409 634 
Q 1409 322 1456 244 
Q 1516 138 1700 113 
L 1700 0 
L 219 0 
L 219 113 
Q 403 131 481 231 
Q 534 300 534 634 
L 534 3603 
Q 534 3934 473 4015 
Q 413 4097 219 4122 
L 219 4238 
L 1409 4238 
z
" transform="scale(0.015625)"/>
      <path id="TimesNewRomanPS-BoldMT-6c" d="M 1359 4238 
L 1359 606 
Q 1359 297 1431 211 
Q 1503 125 1713 113 
L 1713 0 
L 134 0 
L 134 113 
Q 328 119 422 225 
Q 484 297 484 606 
L 484 3631 
Q 484 3938 412 4023 
Q 341 4109 134 4122 
L 134 4238 
L 1359 4238 
z
" transform="scale(0.015625)"/>
      <path id="TimesNewRomanPS-BoldMT-69" d="M 919 4338 
Q 1122 4338 1262 4195 
Q 1403 4053 1403 3853 
Q 1403 3653 1261 3512 
Q 1119 3372 919 3372 
Q 719 3372 578 3512 
Q 438 3653 438 3853 
Q 438 4053 578 4195 
Q 719 4338 919 4338 
z
M 1356 2922 
L 1356 606 
Q 1356 297 1428 211 
Q 1500 125 1709 113 
L 1709 0 
L 131 0 
L 131 113 
Q 325 119 419 225 
Q 481 297 481 606 
L 481 2313 
Q 481 2622 409 2708 
Q 338 2794 131 2806 
L 131 2922 
L 1356 2922 
z
" transform="scale(0.015625)"/>
      <path id="TimesNewRomanPS-BoldMT-61" d="M 1828 431 
Q 1294 -41 869 -41 
Q 619 -41 453 123 
Q 288 288 288 534 
Q 288 869 575 1136 
Q 863 1403 1828 1847 
L 1828 2141 
Q 1828 2472 1792 2558 
Q 1756 2644 1656 2708 
Q 1556 2772 1431 2772 
Q 1228 2772 1097 2681 
Q 1016 2625 1016 2550 
Q 1016 2484 1103 2388 
Q 1222 2253 1222 2128 
Q 1222 1975 1108 1867 
Q 994 1759 809 1759 
Q 613 1759 480 1878 
Q 347 1997 347 2156 
Q 347 2381 525 2586 
Q 703 2791 1022 2900 
Q 1341 3009 1684 3009 
Q 2100 3009 2342 2832 
Q 2584 2656 2656 2450 
Q 2700 2319 2700 1847 
L 2700 713 
Q 2700 513 2715 461 
Q 2731 409 2762 384 
Q 2794 359 2834 359 
Q 2916 359 3000 475 
L 3094 400 
Q 2938 169 2770 64 
Q 2603 -41 2391 -41 
Q 2141 -41 2000 76 
Q 1859 194 1828 431 
z
M 1828 659 
L 1828 1638 
Q 1450 1416 1266 1163 
Q 1144 994 1144 822 
Q 1144 678 1247 569 
Q 1325 484 1466 484 
Q 1622 484 1828 659 
z
" transform="scale(0.015625)"/>
      <path id="TimesNewRomanPS-BoldMT-20" transform="scale(0.015625)"/>
      <path id="TimesNewRomanPS-BoldMT-43" d="M 4272 4334 
L 4272 2866 
L 4150 2866 
Q 4013 3441 3638 3747 
Q 3263 4053 2788 4053 
Q 2391 4053 2059 3825 
Q 1728 3597 1575 3228 
Q 1378 2756 1378 2178 
Q 1378 1609 1522 1142 
Q 1666 675 1972 436 
Q 2278 197 2766 197 
Q 3166 197 3498 372 
Q 3831 547 4200 975 
L 4200 609 
Q 3844 238 3458 70 
Q 3072 -97 2556 -97 
Q 1878 -97 1351 175 
Q 825 447 539 956 
Q 253 1466 253 2041 
Q 253 2647 570 3190 
Q 888 3734 1427 4034 
Q 1966 4334 2572 4334 
Q 3019 4334 3516 4141 
Q 3803 4028 3881 4028 
Q 3981 4028 4054 4101 
Q 4128 4175 4150 4334 
L 4272 4334 
z
" transform="scale(0.015625)"/>
     </defs>
     <use xlink:href="#TimesNewRomanPS-BoldMT-45"/>
     <use xlink:href="#TimesNewRomanPS-BoldMT-6e" x="66.699219"/>
     <use xlink:href="#TimesNewRomanPS-BoldMT-64" x="122.314453"/>
     <use xlink:href="#TimesNewRomanPS-BoldMT-6f" x="177.929688"/>
     <use xlink:href="#TimesNewRomanPS-BoldMT-74" x="227.929688"/>
     <use xlink:href="#TimesNewRomanPS-BoldMT-68" x="261.230469"/>
     <use xlink:href="#TimesNewRomanPS-BoldMT-65" x="316.845703"/>
     <use xlink:href="#TimesNewRomanPS-BoldMT-6c" x="361.230469"/>
     <use xlink:href="#TimesNewRomanPS-BoldMT-69" x="389.013672"/>
     <use xlink:href="#TimesNewRomanPS-BoldMT-61" x="416.796875"/>
     <use xlink:href="#TimesNewRomanPS-BoldMT-6c" x="466.796875"/>
     <use xlink:href="#TimesNewRomanPS-BoldMT-20" x="494.580078"/>
     <use xlink:href="#TimesNewRomanPS-BoldMT-43" x="519.580078"/>
     <use xlink:href="#TimesNewRomanPS-BoldMT-65" x="591.796875"/>
     <use xlink:href="#TimesNewRomanPS-BoldMT-6c" x="636.181641"/>
     <use xlink:href="#TimesNewRomanPS-BoldMT-6c" x="663.964844"/>
     <use xlink:href="#TimesNewRomanPS-BoldMT-73" x="691.748047"/>
    </g>
   </g>
   <g id="text_3">
    <!-- Excitatory Neurons -->
    <g transform="translate(7.2 183.301307) scale(0.12 -0.12)">
     <defs>
      <path id="TimesNewRomanPS-BoldMT-78" d="M 1944 1791 
L 2450 828 
Q 2713 325 2866 191 
Q 2950 119 3097 113 
L 3097 0 
L 1469 0 
L 1469 113 
Q 1659 128 1704 162 
Q 1750 197 1750 256 
Q 1750 344 1650 531 
L 1397 1006 
L 1181 691 
Q 1034 475 1016 434 
Q 991 375 991 328 
Q 991 256 1020 207 
Q 1050 159 1101 136 
Q 1153 113 1291 113 
L 1291 0 
L 147 0 
L 147 113 
Q 359 113 536 230 
Q 713 347 1050 844 
L 1291 1200 
L 788 2131 
Q 541 2588 419 2691 
Q 297 2794 147 2806 
L 147 2922 
L 1766 2922 
L 1766 2806 
L 1681 2803 
L 1519 2747 
Q 1494 2725 1494 2675 
Q 1494 2628 1509 2578 
Q 1519 2556 1597 2409 
L 1825 1984 
L 1944 2153 
Q 2194 2497 2194 2634 
Q 2194 2700 2139 2745 
Q 2084 2791 1944 2806 
L 1944 2922 
L 2978 2922 
L 2978 2806 
Q 2788 2800 2622 2689 
Q 2456 2578 2250 2259 
L 1944 1791 
z
" transform="scale(0.015625)"/>
      <path id="TimesNewRomanPS-BoldMT-4e" d="M 1594 4238 
L 3684 1609 
L 3684 3431 
Q 3684 3813 3575 3947 
Q 3425 4128 3072 4122 
L 3072 4238 
L 4472 4238 
L 4472 4122 
Q 4203 4088 4111 4033 
Q 4019 3978 3967 3854 
Q 3916 3731 3916 3431 
L 3916 -97 
L 3809 -97 
L 944 3431 
L 944 738 
Q 944 372 1111 244 
Q 1278 116 1494 116 
L 1594 116 
L 1594 0 
L 91 0 
L 91 116 
Q 441 119 578 259 
Q 716 400 716 738 
L 716 3728 
L 625 3841 
Q 491 4009 387 4062 
Q 284 4116 91 4122 
L 91 4238 
L 1594 4238 
z
" transform="scale(0.015625)"/>
      <path id="TimesNewRomanPS-BoldMT-75" d="M 3038 2922 
L 3038 634 
Q 3038 300 3100 217 
Q 3163 134 3353 113 
L 3353 0 
L 2163 0 
L 2163 391 
Q 1953 141 1743 26 
Q 1534 -88 1275 -88 
Q 1028 -88 836 64 
Q 644 216 578 419 
Q 513 622 513 1128 
L 513 2288 
Q 513 2619 452 2700 
Q 391 2781 197 2806 
L 197 2922 
L 1388 2922 
L 1388 925 
Q 1388 613 1417 522 
Q 1447 431 1511 384 
Q 1575 338 1659 338 
Q 1772 338 1863 397 
Q 1988 478 2163 725 
L 2163 2288 
Q 2163 2619 2102 2700 
Q 2041 2781 1847 2806 
L 1847 2922 
L 3038 2922 
z
" transform="scale(0.015625)"/>
     </defs>
     <use xlink:href="#TimesNewRomanPS-BoldMT-45"/>
     <use xlink:href="#TimesNewRomanPS-BoldMT-78" x="66.699219"/>
     <use xlink:href="#TimesNewRomanPS-BoldMT-63" x="116.699219"/>
     <use xlink:href="#TimesNewRomanPS-BoldMT-69" x="161.083984"/>
     <use xlink:href="#TimesNewRomanPS-BoldMT-74" x="188.867188"/>
     <use xlink:href="#TimesNewRomanPS-BoldMT-61" x="222.167969"/>
     <use xlink:href="#TimesNewRomanPS-BoldMT-74" x="272.167969"/>
     <use xlink:href="#TimesNewRomanPS-BoldMT-6f" x="305.46875"/>
     <use xlink:href="#TimesNewRomanPS-BoldMT-72" x="355.46875"/>
     <use xlink:href="#TimesNewRomanPS-BoldMT-79" x="399.853516"/>
     <use xlink:href="#TimesNewRomanPS-BoldMT-20" x="449.853516"/>
     <use xlink:href="#TimesNewRomanPS-BoldMT-4e" x="474.853516"/>
     <use xlink:href="#TimesNewRomanPS-BoldMT-65" x="547.070312"/>
     <use xlink:href="#TimesNewRomanPS-BoldMT-75" x="591.455078"/>
     <use xlink:href="#TimesNewRomanPS-BoldMT-72" x="647.070312"/>
     <use xlink:href="#TimesNewRomanPS-BoldMT-6f" x="689.705078"/>
     <use xlink:href="#TimesNewRomanPS-BoldMT-6e" x="739.705078"/>
     <use xlink:href="#TimesNewRomanPS-BoldMT-73" x="795.320312"/>
    </g>
   </g>
   <g id="text_4">
    <!-- Inhibitory Neurons -->
    <g transform="translate(8.503125 117.196517) scale(0.12 -0.12)">
     <defs>
      <path id="TimesNewRomanPS-BoldMT-49" d="M 2344 116 
L 2344 0 
L 128 0 
L 128 116 
L 269 116 
Q 453 116 566 181 
Q 647 225 691 331 
Q 725 406 725 725 
L 725 3513 
Q 725 3838 690 3919 
Q 656 4000 551 4061 
Q 447 4122 269 4122 
L 128 4122 
L 128 4238 
L 2344 4238 
L 2344 4122 
L 2203 4122 
Q 2019 4122 1906 4056 
Q 1825 4013 1778 3906 
Q 1744 3831 1744 3513 
L 1744 725 
Q 1744 400 1780 319 
Q 1816 238 1920 177 
Q 2025 116 2203 116 
L 2344 116 
z
" transform="scale(0.015625)"/>
      <path id="TimesNewRomanPS-BoldMT-62" d="M 1347 4238 
L 1347 2628 
Q 1716 3009 2153 3009 
Q 2453 3009 2718 2832 
Q 2984 2656 3134 2331 
Q 3284 2006 3284 1581 
Q 3284 1103 3093 712 
Q 2903 322 2584 117 
Q 2266 -88 1856 -88 
Q 1619 -88 1434 -12 
Q 1250 63 1072 231 
L 588 -84 
L 481 -84 
L 481 3631 
Q 481 3884 459 3944 
Q 428 4031 361 4073 
Q 294 4116 134 4122 
L 134 4238 
L 1347 4238 
z
M 1347 2350 
L 1347 1050 
Q 1347 653 1366 544 
Q 1397 359 1515 245 
Q 1634 131 1819 131 
Q 1978 131 2092 222 
Q 2206 313 2282 581 
Q 2359 850 2359 1550 
Q 2359 2222 2191 2472 
Q 2069 2653 1863 2653 
Q 1594 2653 1347 2350 
z
" transform="scale(0.015625)"/>
     </defs>
     <use xlink:href="#TimesNewRomanPS-BoldMT-49"/>
     <use xlink:href="#TimesNewRomanPS-BoldMT-6e" x="38.916016"/>
     <use xlink:href="#TimesNewRomanPS-BoldMT-68" x="94.53125"/>
     <use xlink:href="#TimesNewRomanPS-BoldMT-69" x="150.146484"/>
     <use xlink:href="#TimesNewRomanPS-BoldMT-62" x="177.929688"/>
     <use xlink:href="#TimesNewRomanPS-BoldMT-69" x="233.544922"/>
     <use xlink:href="#TimesNewRomanPS-BoldMT-74" x="261.328125"/>
     <use xlink:href="#TimesNewRomanPS-BoldMT-6f" x="294.628906"/>
     <use xlink:href="#TimesNewRomanPS-BoldMT-72" x="344.628906"/>
     <use xlink:href="#TimesNewRomanPS-BoldMT-79" x="389.013672"/>
     <use xlink:href="#TimesNewRomanPS-BoldMT-20" x="439.013672"/>
     <use xlink:href="#TimesNewRomanPS-BoldMT-4e" x="464.013672"/>
     <use xlink:href="#TimesNewRomanPS-BoldMT-65" x="536.230469"/>
     <use xlink:href="#TimesNewRomanPS-BoldMT-75" x="580.615234"/>
     <use xlink:href="#TimesNewRomanPS-BoldMT-72" x="636.230469"/>
     <use xlink:href="#TimesNewRomanPS-BoldMT-6f" x="678.865234"/>
     <use xlink:href="#TimesNewRomanPS-BoldMT-6e" x="728.865234"/>
     <use xlink:href="#TimesNewRomanPS-BoldMT-73" x="784.480469"/>
    </g>
   </g>
   <g id="text_5">
    <!-- Microglia -->
    <g transform="translate(57.538125 74.966427) scale(0.12 -0.12)">
     <defs>
      <path id="TimesNewRomanPS-BoldMT-4d" d="M 3050 1444 
L 4200 4238 
L 5925 4238 
L 5925 4122 
L 5788 4122 
Q 5600 4122 5488 4056 
Q 5409 4013 5363 3909 
Q 5328 3834 5328 3519 
L 5328 725 
Q 5328 400 5362 319 
Q 5397 238 5503 177 
Q 5609 116 5788 116 
L 5925 116 
L 5925 0 
L 3713 0 
L 3713 116 
L 3850 116 
Q 4038 116 4150 181 
Q 4228 225 4275 331 
Q 4309 406 4309 725 
L 4309 3866 
L 2684 0 
L 2609 0 
L 959 3838 
L 959 853 
Q 959 541 975 469 
Q 1016 313 1152 214 
Q 1288 116 1578 116 
L 1578 0 
L 128 0 
L 128 116 
L 172 116 
Q 313 113 434 161 
Q 556 209 618 290 
Q 681 372 716 519 
Q 722 553 722 838 
L 722 3519 
Q 722 3841 687 3920 
Q 653 4000 547 4061 
Q 441 4122 263 4122 
L 128 4122 
L 128 4238 
L 1859 4238 
L 3050 1444 
z
" transform="scale(0.015625)"/>
      <path id="TimesNewRomanPS-BoldMT-67" d="M 2091 2888 
L 3075 2888 
L 3075 2544 
L 2516 2544 
Q 2669 2391 2728 2266 
Q 2803 2097 2803 1913 
Q 2803 1600 2629 1370 
Q 2456 1141 2157 1011 
Q 1859 881 1628 881 
Q 1609 881 1253 897 
Q 1113 897 1017 805 
Q 922 713 922 584 
Q 922 472 1008 400 
Q 1094 328 1288 328 
L 1828 334 
Q 2484 334 2731 191 
Q 3084 -9 3084 -425 
Q 3084 -691 2921 -908 
Q 2759 -1125 2494 -1228 
Q 2091 -1381 1566 -1381 
Q 1172 -1381 847 -1304 
Q 522 -1228 381 -1092 
Q 241 -956 241 -806 
Q 241 -663 348 -548 
Q 456 -434 750 -356 
Q 344 -156 344 200 
Q 344 416 509 619 
Q 675 822 1034 972 
Q 616 1125 428 1375 
Q 241 1625 241 1953 
Q 241 2381 591 2695 
Q 941 3009 1491 3009 
Q 1781 3009 2091 2888 
z
M 1550 2816 
Q 1369 2816 1244 2633 
Q 1119 2450 1119 1875 
Q 1119 1409 1242 1236 
Q 1366 1063 1534 1063 
Q 1722 1063 1847 1234 
Q 1972 1406 1972 1903 
Q 1972 2463 1831 2666 
Q 1731 2816 1550 2816 
z
M 1366 -431 
Q 1047 -431 944 -484 
Q 766 -581 766 -747 
Q 766 -906 950 -1036 
Q 1134 -1166 1644 -1166 
Q 2078 -1166 2326 -1050 
Q 2575 -934 2575 -725 
Q 2575 -647 2528 -594 
Q 2444 -500 2273 -465 
Q 2103 -431 1366 -431 
z
" transform="scale(0.015625)"/>
     </defs>
     <use xlink:href="#TimesNewRomanPS-BoldMT-4d"/>
     <use xlink:href="#TimesNewRomanPS-BoldMT-69" x="94.384766"/>
     <use xlink:href="#TimesNewRomanPS-BoldMT-63" x="122.167969"/>
     <use xlink:href="#TimesNewRomanPS-BoldMT-72" x="166.552734"/>
     <use xlink:href="#TimesNewRomanPS-BoldMT-6f" x="209.1875"/>
     <use xlink:href="#TimesNewRomanPS-BoldMT-67" x="259.1875"/>
     <use xlink:href="#TimesNewRomanPS-BoldMT-6c" x="309.1875"/>
     <use xlink:href="#TimesNewRomanPS-BoldMT-69" x="336.970703"/>
     <use xlink:href="#TimesNewRomanPS-BoldMT-61" x="364.753906"/>
    </g>
   </g>
   <g id="text_6">
    <!-- Oligodendrocytes -->
    <g transform="translate(17.525625 41.792257) scale(0.12 -0.12)">
     <defs>
      <path id="TimesNewRomanPS-BoldMT-4f" d="M 2472 4297 
Q 3484 4334 4117 3706 
Q 4750 3078 4750 2134 
Q 4750 1328 4278 716 
Q 3653 -97 2513 -97 
Q 1369 -97 744 678 
Q 250 1291 250 2131 
Q 250 3075 892 3704 
Q 1534 4334 2472 4297 
z
M 2509 4097 
Q 1928 4097 1625 3503 
Q 1378 3016 1378 2103 
Q 1378 1019 1759 500 
Q 2025 138 2503 138 
Q 2825 138 3041 294 
Q 3316 494 3469 933 
Q 3622 1372 3622 2078 
Q 3622 2919 3465 3336 
Q 3309 3753 3067 3925 
Q 2825 4097 2509 4097 
z
" transform="scale(0.015625)"/>
     </defs>
     <use xlink:href="#TimesNewRomanPS-BoldMT-4f"/>
     <use xlink:href="#TimesNewRomanPS-BoldMT-6c" x="77.783203"/>
     <use xlink:href="#TimesNewRomanPS-BoldMT-69" x="105.566406"/>
     <use xlink:href="#TimesNewRomanPS-BoldMT-67" x="133.349609"/>
     <use xlink:href="#TimesNewRomanPS-BoldMT-6f" x="183.349609"/>
     <use xlink:href="#TimesNewRomanPS-BoldMT-64" x="233.349609"/>
     <use xlink:href="#TimesNewRomanPS-BoldMT-65" x="288.964844"/>
     <use xlink:href="#TimesNewRomanPS-BoldMT-6e" x="333.349609"/>
     <use xlink:href="#TimesNewRomanPS-BoldMT-64" x="388.964844"/>
     <use xlink:href="#TimesNewRomanPS-BoldMT-72" x="444.580078"/>
     <use xlink:href="#TimesNewRomanPS-BoldMT-6f" x="487.214844"/>
     <use xlink:href="#TimesNewRomanPS-BoldMT-63" x="537.214844"/>
     <use xlink:href="#TimesNewRomanPS-BoldMT-79" x="581.599609"/>
     <use xlink:href="#TimesNewRomanPS-BoldMT-74" x="631.599609"/>
     <use xlink:href="#TimesNewRomanPS-BoldMT-65" x="664.900391"/>
     <use xlink:href="#TimesNewRomanPS-BoldMT-73" x="709.285156"/>
    </g>
   </g>
   <g id="text_7">
    <!-- Astrocytes -->
    <g transform="translate(450.694615 250.838055) scale(0.12 -0.12)">
     <use xlink:href="#TimesNewRomanPS-BoldMT-41"/>
     <use xlink:href="#TimesNewRomanPS-BoldMT-73" x="72.216797"/>
     <use xlink:href="#TimesNewRomanPS-BoldMT-74" x="111.132812"/>
     <use xlink:href="#TimesNewRomanPS-BoldMT-72" x="144.433594"/>
     <use xlink:href="#TimesNewRomanPS-BoldMT-6f" x="187.068359"/>
     <use xlink:href="#TimesNewRomanPS-BoldMT-63" x="237.068359"/>
     <use xlink:href="#TimesNewRomanPS-BoldMT-79" x="281.453125"/>
     <use xlink:href="#TimesNewRomanPS-BoldMT-74" x="331.453125"/>
     <use xlink:href="#TimesNewRomanPS-BoldMT-65" x="364.753906"/>
     <use xlink:href="#TimesNewRomanPS-BoldMT-73" x="409.138672"/>
    </g>
   </g>
   <g id="text_8">
    <!-- Endothelial Cells -->
    <g transform="translate(450.694615 225.002962) scale(0.12 -0.12)">
     <use xlink:href="#TimesNewRomanPS-BoldMT-45"/>
     <use xlink:href="#TimesNewRomanPS-BoldMT-6e" x="66.699219"/>
     <use xlink:href="#TimesNewRomanPS-BoldMT-64" x="122.314453"/>
     <use xlink:href="#TimesNewRomanPS-BoldMT-6f" x="177.929688"/>
     <use xlink:href="#TimesNewRomanPS-BoldMT-74" x="227.929688"/>
     <use xlink:href="#TimesNewRomanPS-BoldMT-68" x="261.230469"/>
     <use xlink:href="#TimesNewRomanPS-BoldMT-65" x="316.845703"/>
     <use xlink:href="#TimesNewRomanPS-BoldMT-6c" x="361.230469"/>
     <use xlink:href="#TimesNewRomanPS-BoldMT-69" x="389.013672"/>
     <use xlink:href="#TimesNewRomanPS-BoldMT-61" x="416.796875"/>
     <use xlink:href="#TimesNewRomanPS-BoldMT-6c" x="466.796875"/>
     <use xlink:href="#TimesNewRomanPS-BoldMT-20" x="494.580078"/>
     <use xlink:href="#TimesNewRomanPS-BoldMT-43" x="519.580078"/>
     <use xlink:href="#TimesNewRomanPS-BoldMT-65" x="591.796875"/>
     <use xlink:href="#TimesNewRomanPS-BoldMT-6c" x="636.181641"/>
     <use xlink:href="#TimesNewRomanPS-BoldMT-6c" x="663.964844"/>
     <use xlink:href="#TimesNewRomanPS-BoldMT-73" x="691.748047"/>
    </g>
   </g>
   <g id="text_9">
    <!-- Excitatory Neurons -->
    <g transform="translate(450.694615 186.045525) scale(0.12 -0.12)">
     <use xlink:href="#TimesNewRomanPS-BoldMT-45"/>
     <use xlink:href="#TimesNewRomanPS-BoldMT-78" x="66.699219"/>
     <use xlink:href="#TimesNewRomanPS-BoldMT-63" x="116.699219"/>
     <use xlink:href="#TimesNewRomanPS-BoldMT-69" x="161.083984"/>
     <use xlink:href="#TimesNewRomanPS-BoldMT-74" x="188.867188"/>
     <use xlink:href="#TimesNewRomanPS-BoldMT-61" x="222.167969"/>
     <use xlink:href="#TimesNewRomanPS-BoldMT-74" x="272.167969"/>
     <use xlink:href="#TimesNewRomanPS-BoldMT-6f" x="305.46875"/>
     <use xlink:href="#TimesNewRomanPS-BoldMT-72" x="355.46875"/>
     <use xlink:href="#TimesNewRomanPS-BoldMT-79" x="399.853516"/>
     <use xlink:href="#TimesNewRomanPS-BoldMT-20" x="449.853516"/>
     <use xlink:href="#TimesNewRomanPS-BoldMT-4e" x="474.853516"/>
     <use xlink:href="#TimesNewRomanPS-BoldMT-65" x="547.070312"/>
     <use xlink:href="#TimesNewRomanPS-BoldMT-75" x="591.455078"/>
     <use xlink:href="#TimesNewRomanPS-BoldMT-72" x="647.070312"/>
     <use xlink:href="#TimesNewRomanPS-BoldMT-6f" x="689.705078"/>
     <use xlink:href="#TimesNewRomanPS-BoldMT-6e" x="739.705078"/>
     <use xlink:href="#TimesNewRomanPS-BoldMT-73" x="795.320312"/>
    </g>
   </g>
   <g id="text_10">
    <!-- Inhibitory Neurons -->
    <g transform="translate(450.694615 115.652894) scale(0.12 -0.12)">
     <use xlink:href="#TimesNewRomanPS-BoldMT-49"/>
     <use xlink:href="#TimesNewRomanPS-BoldMT-6e" x="38.916016"/>
     <use xlink:href="#TimesNewRomanPS-BoldMT-68" x="94.53125"/>
     <use xlink:href="#TimesNewRomanPS-BoldMT-69" x="150.146484"/>
     <use xlink:href="#TimesNewRomanPS-BoldMT-62" x="177.929688"/>
     <use xlink:href="#TimesNewRomanPS-BoldMT-69" x="233.544922"/>
     <use xlink:href="#TimesNewRomanPS-BoldMT-74" x="261.328125"/>
     <use xlink:href="#TimesNewRomanPS-BoldMT-6f" x="294.628906"/>
     <use xlink:href="#TimesNewRomanPS-BoldMT-72" x="344.628906"/>
     <use xlink:href="#TimesNewRomanPS-BoldMT-79" x="389.013672"/>
     <use xlink:href="#TimesNewRomanPS-BoldMT-20" x="439.013672"/>
     <use xlink:href="#TimesNewRomanPS-BoldMT-4e" x="464.013672"/>
     <use xlink:href="#TimesNewRomanPS-BoldMT-65" x="536.230469"/>
     <use xlink:href="#TimesNewRomanPS-BoldMT-75" x="580.615234"/>
     <use xlink:href="#TimesNewRomanPS-BoldMT-72" x="636.230469"/>
     <use xlink:href="#TimesNewRomanPS-BoldMT-6f" x="678.865234"/>
     <use xlink:href="#TimesNewRomanPS-BoldMT-6e" x="728.865234"/>
     <use xlink:href="#TimesNewRomanPS-BoldMT-73" x="784.480469"/>
    </g>
   </g>
   <g id="text_11">
    <!-- Microglia -->
    <g transform="translate(450.694615 53.081285) scale(0.12 -0.12)">
     <use xlink:href="#TimesNewRomanPS-BoldMT-4d"/>
     <use xlink:href="#TimesNewRomanPS-BoldMT-69" x="94.384766"/>
     <use xlink:href="#TimesNewRomanPS-BoldMT-63" x="122.167969"/>
     <use xlink:href="#TimesNewRomanPS-BoldMT-72" x="166.552734"/>
     <use xlink:href="#TimesNewRomanPS-BoldMT-6f" x="209.1875"/>
     <use xlink:href="#TimesNewRomanPS-BoldMT-67" x="259.1875"/>
     <use xlink:href="#TimesNewRomanPS-BoldMT-6c" x="309.1875"/>
     <use xlink:href="#TimesNewRomanPS-BoldMT-69" x="336.970703"/>
     <use xlink:href="#TimesNewRomanPS-BoldMT-61" x="364.753906"/>
    </g>
   </g>
   <g id="text_12">
    <!-- Oligodendrocytes -->
    <g transform="translate(450.694615 23.440297) scale(0.12 -0.12)">
     <use xlink:href="#TimesNewRomanPS-BoldMT-4f"/>
     <use xlink:href="#TimesNewRomanPS-BoldMT-6c" x="77.783203"/>
     <use xlink:href="#TimesNewRomanPS-BoldMT-69" x="105.566406"/>
     <use xlink:href="#TimesNewRomanPS-BoldMT-67" x="133.349609"/>
     <use xlink:href="#TimesNewRomanPS-BoldMT-6f" x="183.349609"/>
     <use xlink:href="#TimesNewRomanPS-BoldMT-64" x="233.349609"/>
     <use xlink:href="#TimesNewRomanPS-BoldMT-65" x="288.964844"/>
     <use xlink:href="#TimesNewRomanPS-BoldMT-6e" x="333.349609"/>
     <use xlink:href="#TimesNewRomanPS-BoldMT-64" x="388.964844"/>
     <use xlink:href="#TimesNewRomanPS-BoldMT-72" x="444.580078"/>
     <use xlink:href="#TimesNewRomanPS-BoldMT-6f" x="487.214844"/>
     <use xlink:href="#TimesNewRomanPS-BoldMT-63" x="537.214844"/>
     <use xlink:href="#TimesNewRomanPS-BoldMT-79" x="581.599609"/>
     <use xlink:href="#TimesNewRomanPS-BoldMT-74" x="631.599609"/>
     <use xlink:href="#TimesNewRomanPS-BoldMT-65" x="664.900391"/>
     <use xlink:href="#TimesNewRomanPS-BoldMT-73" x="709.285156"/>
    </g>
   </g>
  </g>
 </g>
 <defs>
  <clipPath id="p89ba95abc3">
   <rect x="100.442308" y="7.2" width="357.12" height="266.112"/>
  </clipPath>
 </defs>
</svg>
