<?xml version="1.0" encoding="utf-8" standalone="no"?>
<!DOCTYPE svg PUBLIC "-//W3C//DTD SVG 1.1//EN"
  "http://www.w3.org/Graphics/SVG/1.1/DTD/svg11.dtd">
<svg xmlns:xlink="http://www.w3.org/1999/xlink" width="556.70149pt" height="280.512pt" viewBox="0 0 556.70149 280.512" xmlns="http://www.w3.org/2000/svg" version="1.1">
 <metadata>
  <rdf:RDF xmlns:dc="http://purl.org/dc/elements/1.1/" xmlns:cc="http://creativecommons.org/ns#" xmlns:rdf="http://www.w3.org/1999/02/22-rdf-syntax-ns#">
   <cc:Work>
    <dc:type rdf:resource="http://purl.org/dc/dcmitype/StillImage"/>
    <dc:date>2025-03-16T19:52:42.071000</dc:date>
    <dc:format>image/svg+xml</dc:format>
    <dc:creator>
     <cc:Agent>
      <dc:title>Matplotlib v3.9.3, https://matplotlib.org/</dc:title>
     </cc:Agent>
    </dc:creator>
   </cc:Work>
  </rdf:RDF>
 </metadata>
 <defs>
  <style type="text/css">*{stroke-linejoin: round; stroke-linecap: butt}</style>
 </defs>
 <g id="figure_1">
  <g id="patch_1">
   <path d="M 0 280.512 
L 556.70149 280.512 
L 556.70149 0 
L 0 0 
z
" style="fill: #ffffff"/>
  </g>
  <g id="axes_1">
   <g id="PolyCollection_1">
    <defs>
     <path id="mbdd75f9bbf" d="M 115.37191 -99.402691 
L 115.37191 -19.296 
L 121.615267 -19.296 
L 121.615267 -99.402691 
L 121.615267 -99.402691 
L 115.37191 -99.402691 
z
" style="stroke: #57db5f; stroke-opacity: 0.99"/>
    </defs>
    <g clip-path="url(#pfe2962f940)">
     <use xlink:href="#mbdd75f9bbf" x="0" y="280.512" style="fill: #57db5f; fill-opacity: 0.99; stroke: #57db5f; stroke-opacity: 0.99"/>
    </g>
   </g>
   <g id="PolyCollection_2">
    <defs>
     <path id="mbc08ed3d18" d="M 115.37191 -125.85114 
L 115.37191 -109.079491 
L 121.615267 -109.079491 
L 121.615267 -125.85114 
L 121.615267 -125.85114 
L 115.37191 -125.85114 
z
" style="stroke: #5f57db; stroke-opacity: 0.99"/>
    </defs>
    <g clip-path="url(#pfe2962f940)">
     <use xlink:href="#mbc08ed3d18" x="0" y="280.512" style="fill: #5f57db; fill-opacity: 0.99; stroke: #5f57db; stroke-opacity: 0.99"/>
    </g>
   </g>
   <g id="PolyCollection_3">
    <defs>
     <path id="m48269deed1" d="M 115.37191 -197.538904 
L 115.37191 -135.52794 
L 121.615267 -135.52794 
L 121.615267 -197.538904 
L 121.615267 -197.538904 
L 115.37191 -197.538904 
z
" style="stroke: #db5f57; stroke-opacity: 0.99"/>
    </defs>
    <g clip-path="url(#pfe2962f940)">
     <use xlink:href="#m48269deed1" x="0" y="280.512" style="fill: #db5f57; fill-opacity: 0.99; stroke: #db5f57; stroke-opacity: 0.99"/>
    </g>
   </g>
   <g id="PolyCollection_4">
    <defs>
     <path id="m682e632c79" d="M 115.37191 -213.615413 
L 115.37191 -207.215704 
L 121.615267 -207.215704 
L 121.615267 -213.615413 
L 121.615267 -213.615413 
L 115.37191 -213.615413 
z
" style="stroke: #d3db57; stroke-opacity: 0.99"/>
    </defs>
    <g clip-path="url(#pfe2962f940)">
     <use xlink:href="#m682e632c79" x="0" y="280.512" style="fill: #d3db57; fill-opacity: 0.99; stroke: #d3db57; stroke-opacity: 0.99"/>
    </g>
   </g>
   <g id="PolyCollection_5">
    <defs>
     <path id="ma8f76afc6b" d="M 115.37191 -251.5392 
L 115.37191 -223.292213 
L 121.615267 -223.292213 
L 121.615267 -251.5392 
L 121.615267 -251.5392 
L 115.37191 -251.5392 
z
" style="stroke: #57d3db; stroke-opacity: 0.99"/>
    </defs>
    <g clip-path="url(#pfe2962f940)">
     <use xlink:href="#ma8f76afc6b" x="0" y="280.512" style="fill: #57d3db; fill-opacity: 0.99; stroke: #57d3db; stroke-opacity: 0.99"/>
    </g>
   </g>
   <g id="PolyCollection_6">
    <defs>
     <path id="m7b8e02b103" d="M 433.783099 -97.416575 
L 433.783099 -19.296 
L 440.026455 -19.296 
L 440.026455 -97.416575 
L 440.026455 -97.416575 
L 433.783099 -97.416575 
z
" style="stroke: #57db5f; stroke-opacity: 0.99"/>
    </defs>
    <g clip-path="url(#pfe2962f940)">
     <use xlink:href="#m7b8e02b103" x="0" y="280.512" style="fill: #57db5f; fill-opacity: 0.99; stroke: #57db5f; stroke-opacity: 0.99"/>
    </g>
   </g>
   <g id="PolyCollection_7">
    <defs>
     <path id="m8da3e75766" d="M 433.783099 -124.306383 
L 433.783099 -107.093375 
L 440.026455 -107.093375 
L 440.026455 -124.306383 
L 440.026455 -124.306383 
L 433.783099 -124.306383 
z
" style="stroke: #5f57db; stroke-opacity: 0.99"/>
    </defs>
    <g clip-path="url(#pfe2962f940)">
     <use xlink:href="#m8da3e75766" x="0" y="280.512" style="fill: #5f57db; fill-opacity: 0.99; stroke: #5f57db; stroke-opacity: 0.99"/>
    </g>
   </g>
   <g id="PolyCollection_8">
    <defs>
     <path id="m6144d573d3" d="M 433.783099 -137.514056 
L 433.783099 -133.983183 
L 440.026455 -133.983183 
L 440.026455 -137.514056 
L 440.026455 -137.514056 
L 433.783099 -137.514056 
z
" style="stroke: #db57d3; stroke-opacity: 0.99"/>
    </defs>
    <g clip-path="url(#pfe2962f940)">
     <use xlink:href="#m6144d573d3" x="0" y="280.512" style="fill: #db57d3; fill-opacity: 0.99; stroke: #db57d3; stroke-opacity: 0.99"/>
    </g>
   </g>
   <g id="PolyCollection_9">
    <defs>
     <path id="m00d65fadbc" d="M 433.783099 -212.732694 
L 433.783099 -147.190856 
L 440.026455 -147.190856 
L 440.026455 -212.732694 
L 440.026455 -212.732694 
L 433.783099 -212.732694 
z
" style="stroke: #db5f57; stroke-opacity: 0.99"/>
    </defs>
    <g clip-path="url(#pfe2962f940)">
     <use xlink:href="#m00d65fadbc" x="0" y="280.512" style="fill: #db5f57; fill-opacity: 0.99; stroke: #db5f57; stroke-opacity: 0.99"/>
    </g>
   </g>
   <g id="PolyCollection_10">
    <defs>
     <path id="m79d013bace" d="M 433.783099 -249.111725 
L 433.783099 -222.409494 
L 440.026455 -222.409494 
L 440.026455 -249.111725 
L 440.026455 -249.111725 
L 433.783099 -249.111725 
z
" style="stroke: #d3db57; stroke-opacity: 0.99"/>
    </defs>
    <g clip-path="url(#pfe2962f940)">
     <use xlink:href="#m79d013bace" x="0" y="280.512" style="fill: #d3db57; fill-opacity: 0.99; stroke: #d3db57; stroke-opacity: 0.99"/>
    </g>
   </g>
   <g id="PolyCollection_11">
    <defs>
     <path id="meb7fdd70c0" d="M 433.783099 -261.216 
L 433.783099 -258.788525 
L 440.026455 -258.788525 
L 440.026455 -261.216 
L 440.026455 -261.216 
L 433.783099 -261.216 
z
" style="stroke: #57d3db; stroke-opacity: 0.99"/>
    </defs>
    <g clip-path="url(#pfe2962f940)">
     <use xlink:href="#meb7fdd70c0" x="0" y="280.512" style="fill: #57d3db; fill-opacity: 0.99; stroke: #57d3db; stroke-opacity: 0.99"/>
    </g>
   </g>
   <g id="PolyCollection_12">
    <defs>
     <path id="m0261856a01" d="M 121.615267 -97.416575 
L 121.615267 -19.296 
L 126.732772 -19.296 
L 131.850277 -19.296 
L 136.967783 -19.296 
L 142.085288 -19.296 
L 147.202794 -19.296 
L 152.320299 -19.296 
L 157.437805 -19.296 
L 162.55531 -19.296 
L 167.672816 -19.296 
L 172.790321 -19.296 
L 177.907827 -19.296 
L 183.025332 -19.296 
L 188.142837 -19.296 
L 193.260343 -19.296 
L 198.377848 -19.296 
L 203.495354 -19.296 
L 208.612859 -19.296 
L 213.730365 -19.296 
L 218.84787 -19.296 
L 223.965376 -19.296 
L 229.082881 -19.296 
L 234.200386 -19.296 
L 239.317892 -19.296 
L 244.435397 -19.296 
L 249.552903 -19.296 
L 254.670408 -19.296 
L 259.787914 -19.296 
L 264.905419 -19.296 
L 270.022925 -19.296 
L 275.14043 -19.296 
L 280.257935 -19.296 
L 285.375441 -19.296 
L 290.492946 -19.296 
L 295.610452 -19.296 
L 300.727957 -19.296 
L 305.845463 -19.296 
L 310.962968 -19.296 
L 316.080474 -19.296 
L 321.197979 -19.296 
L 326.315484 -19.296 
L 331.43299 -19.296 
L 336.550495 -19.296 
L 341.668001 -19.296 
L 346.785506 -19.296 
L 351.903012 -19.296 
L 357.020517 -19.296 
L 362.138023 -19.296 
L 367.255528 -19.296 
L 372.373033 -19.296 
L 377.490539 -19.296 
L 382.608044 -19.296 
L 387.72555 -19.296 
L 392.843055 -19.296 
L 397.960561 -19.296 
L 403.078066 -19.296 
L 408.195572 -19.296 
L 413.313077 -19.296 
L 418.430582 -19.296 
L 423.548088 -19.296 
L 428.665593 -19.296 
L 433.783099 -19.296 
L 433.783099 -97.416575 
L 433.783099 -97.416575 
L 428.665593 -97.416575 
L 423.548088 -97.416575 
L 418.430582 -97.416575 
L 413.313077 -97.416575 
L 408.195572 -97.416575 
L 403.078066 -97.416575 
L 397.960561 -97.416575 
L 392.843055 -97.416575 
L 387.72555 -97.416575 
L 382.608044 -97.416575 
L 377.490539 -97.416575 
L 372.373033 -97.416575 
L 367.255528 -97.416575 
L 362.138023 -97.416575 
L 357.020517 -97.416575 
L 351.903012 -97.416575 
L 346.785506 -97.416575 
L 341.668001 -97.416575 
L 336.550495 -97.416575 
L 331.43299 -97.416575 
L 326.315484 -97.416575 
L 321.197979 -97.416575 
L 316.080474 -97.416575 
L 310.962968 -97.416575 
L 305.845463 -97.416575 
L 300.727957 -97.416575 
L 295.610452 -97.416575 
L 290.492946 -97.416575 
L 285.375441 -97.416575 
L 280.257935 -97.416575 
L 275.14043 -97.416575 
L 270.022925 -97.416575 
L 264.905419 -97.416575 
L 259.787914 -97.416575 
L 254.670408 -97.416575 
L 249.552903 -97.416575 
L 244.435397 -97.416575 
L 239.317892 -97.416575 
L 234.200386 -97.416575 
L 229.082881 -97.416575 
L 223.965376 -97.416575 
L 218.84787 -97.416575 
L 213.730365 -97.416575 
L 208.612859 -97.416575 
L 203.495354 -97.416575 
L 198.377848 -97.416575 
L 193.260343 -97.416575 
L 188.142837 -97.416575 
L 183.025332 -97.416575 
L 177.907827 -97.416575 
L 172.790321 -97.416575 
L 167.672816 -97.416575 
L 162.55531 -97.416575 
L 157.437805 -97.416575 
L 152.320299 -97.416575 
L 147.202794 -97.416575 
L 142.085288 -97.416575 
L 136.967783 -97.416575 
L 131.850277 -97.416575 
L 126.732772 -97.416575 
L 121.615267 -97.416575 
z
" style="stroke: #57db5f; stroke-opacity: 0.65"/>
    </defs>
    <g clip-path="url(#pfe2962f940)">
     <use xlink:href="#m0261856a01" x="0" y="280.512" style="fill: #57db5f; fill-opacity: 0.65; stroke: #57db5f; stroke-opacity: 0.65"/>
    </g>
   </g>
   <g id="PolyCollection_13">
    <defs>
     <path id="m77ed2d2cd3" d="M 121.615267 -97.637254 
L 121.615267 -97.416575 
L 126.732772 -97.416575 
L 131.850277 -97.416575 
L 136.967783 -97.416575 
L 142.085288 -97.416575 
L 147.202794 -97.416575 
L 152.320299 -97.416575 
L 157.437805 -97.416575 
L 162.55531 -97.416575 
L 167.672816 -97.416575 
L 172.790321 -97.416575 
L 177.907827 -97.416575 
L 183.025332 -97.440767 
L 188.142837 -97.489151 
L 193.260343 -97.561727 
L 198.377848 -97.658495 
L 203.495354 -97.779455 
L 208.612859 -97.924607 
L 213.730365 -98.093951 
L 218.84787 -98.287487 
L 223.965376 -98.505215 
L 229.082881 -98.747135 
L 234.200386 -99.013247 
L 239.317892 -99.303551 
L 244.435397 -99.618047 
L 249.552903 -99.956735 
L 254.670408 -100.319615 
L 259.787914 -100.706687 
L 264.905419 -101.117951 
L 270.022925 -101.553407 
L 275.14043 -102.013055 
L 280.257935 -102.496895 
L 285.375441 -102.956543 
L 290.492946 -103.391999 
L 295.610452 -103.803263 
L 300.727957 -104.190335 
L 305.845463 -104.553215 
L 310.962968 -104.891903 
L 316.080474 -105.206399 
L 321.197979 -105.496703 
L 326.315484 -105.762815 
L 331.43299 -106.004735 
L 336.550495 -106.222463 
L 341.668001 -106.415999 
L 346.785506 -106.585343 
L 351.903012 -106.730495 
L 357.020517 -106.851455 
L 362.138023 -106.948223 
L 367.255528 -107.020799 
L 372.373033 -107.069183 
L 377.490539 -107.093375 
L 382.608044 -107.093375 
L 387.72555 -107.093375 
L 392.843055 -107.093375 
L 397.960561 -107.093375 
L 403.078066 -107.093375 
L 408.195572 -107.093375 
L 413.313077 -107.093375 
L 418.430582 -107.093375 
L 423.548088 -107.093375 
L 428.665593 -107.093375 
L 433.783099 -107.093375 
L 433.783099 -107.314054 
L 433.783099 -107.314054 
L 428.665593 -107.314054 
L 423.548088 -107.314054 
L 418.430582 -107.314054 
L 413.313077 -107.314054 
L 408.195572 -107.314054 
L 403.078066 -107.314054 
L 397.960561 -107.314054 
L 392.843055 -107.314054 
L 387.72555 -107.314054 
L 382.608044 -107.314054 
L 377.490539 -107.314054 
L 372.373033 -107.289862 
L 367.255528 -107.241478 
L 362.138023 -107.168902 
L 357.020517 -107.072134 
L 351.903012 -106.951174 
L 346.785506 -106.806022 
L 341.668001 -106.636678 
L 336.550495 -106.443142 
L 331.43299 -106.225414 
L 326.315484 -105.983494 
L 321.197979 -105.717382 
L 316.080474 -105.427078 
L 310.962968 -105.112582 
L 305.845463 -104.773894 
L 300.727957 -104.411014 
L 295.610452 -104.023942 
L 290.492946 -103.612678 
L 285.375441 -103.177222 
L 280.257935 -102.717574 
L 275.14043 -102.233734 
L 270.022925 -101.774086 
L 264.905419 -101.33863 
L 259.787914 -100.927366 
L 254.670408 -100.540294 
L 249.552903 -100.177414 
L 244.435397 -99.838726 
L 239.317892 -99.52423 
L 234.200386 -99.233926 
L 229.082881 -98.967814 
L 223.965376 -98.725894 
L 218.84787 -98.508166 
L 213.730365 -98.31463 
L 208.612859 -98.145286 
L 203.495354 -98.000134 
L 198.377848 -97.879174 
L 193.260343 -97.782406 
L 188.142837 -97.70983 
L 183.025332 -97.661446 
L 177.907827 -97.637254 
L 172.790321 -97.637254 
L 167.672816 -97.637254 
L 162.55531 -97.637254 
L 157.437805 -97.637254 
L 152.320299 -97.637254 
L 147.202794 -97.637254 
L 142.085288 -97.637254 
L 136.967783 -97.637254 
L 131.850277 -97.637254 
L 126.732772 -97.637254 
L 121.615267 -97.637254 
z
" style="stroke: #57db5f; stroke-opacity: 0.65"/>
    </defs>
    <g clip-path="url(#pfe2962f940)">
     <use xlink:href="#m77ed2d2cd3" x="0" y="280.512" style="fill: #57db5f; fill-opacity: 0.65; stroke: #57db5f; stroke-opacity: 0.65"/>
    </g>
   </g>
   <g id="PolyCollection_14">
    <defs>
     <path id="m78c69a4981" d="M 121.615267 -97.857934 
L 121.615267 -97.637254 
L 126.732772 -97.637254 
L 131.850277 -97.637254 
L 136.967783 -97.637254 
L 142.085288 -97.637254 
L 147.202794 -97.637254 
L 152.320299 -97.637254 
L 157.437805 -97.637254 
L 162.55531 -97.637254 
L 167.672816 -97.637254 
L 172.790321 -97.637254 
L 177.907827 -97.637254 
L 183.025332 -97.728119 
L 188.142837 -97.909849 
L 193.260343 -98.182443 
L 198.377848 -98.545902 
L 203.495354 -99.000227 
L 208.612859 -99.545416 
L 213.730365 -100.181469 
L 218.84787 -100.908388 
L 223.965376 -101.726171 
L 229.082881 -102.634819 
L 234.200386 -103.634332 
L 239.317892 -104.72471 
L 244.435397 -105.905953 
L 249.552903 -107.17806 
L 254.670408 -108.541033 
L 259.787914 -109.99487 
L 264.905419 -111.539572 
L 270.022925 -113.175139 
L 275.14043 -114.90157 
L 280.257935 -116.718867 
L 285.375441 -118.445298 
L 290.492946 -120.080865 
L 295.610452 -121.625567 
L 300.727957 -123.079404 
L 305.845463 -124.442376 
L 310.962968 -125.714484 
L 316.080474 -126.895727 
L 321.197979 -127.986104 
L 326.315484 -128.985618 
L 331.43299 -129.894266 
L 336.550495 -130.712049 
L 341.668001 -131.438968 
L 346.785506 -132.075021 
L 351.903012 -132.62021 
L 357.020517 -133.074534 
L 362.138023 -133.437994 
L 367.255528 -133.710588 
L 372.373033 -133.892318 
L 377.490539 -133.983183 
L 382.608044 -133.983183 
L 387.72555 -133.983183 
L 392.843055 -133.983183 
L 397.960561 -133.983183 
L 403.078066 -133.983183 
L 408.195572 -133.983183 
L 413.313077 -133.983183 
L 418.430582 -133.983183 
L 423.548088 -133.983183 
L 428.665593 -133.983183 
L 433.783099 -133.983183 
L 433.783099 -134.203862 
L 433.783099 -134.203862 
L 428.665593 -134.203862 
L 423.548088 -134.203862 
L 418.430582 -134.203862 
L 413.313077 -134.203862 
L 408.195572 -134.203862 
L 403.078066 -134.203862 
L 397.960561 -134.203862 
L 392.843055 -134.203862 
L 387.72555 -134.203862 
L 382.608044 -134.203862 
L 377.490539 -134.203862 
L 372.373033 -134.112997 
L 367.255528 -133.931268 
L 362.138023 -133.658673 
L 357.020517 -133.295214 
L 351.903012 -132.84089 
L 346.785506 -132.295701 
L 341.668001 -131.659647 
L 336.550495 -130.932729 
L 331.43299 -130.114945 
L 326.315484 -129.206297 
L 321.197979 -128.206784 
L 316.080474 -127.116406 
L 310.962968 -125.935164 
L 305.845463 -124.663056 
L 300.727957 -123.300084 
L 295.610452 -121.846247 
L 290.492946 -120.301545 
L 285.375441 -118.665978 
L 280.257935 -116.939546 
L 275.14043 -115.12225 
L 270.022925 -113.395818 
L 264.905419 -111.760251 
L 259.787914 -110.21555 
L 254.670408 -108.761712 
L 249.552903 -107.39874 
L 244.435397 -106.126633 
L 239.317892 -104.94539 
L 234.200386 -103.855012 
L 229.082881 -102.855499 
L 223.965376 -101.946851 
L 218.84787 -101.129067 
L 213.730365 -100.402149 
L 208.612859 -99.766095 
L 203.495354 -99.220906 
L 198.377848 -98.766582 
L 193.260343 -98.403123 
L 188.142837 -98.130528 
L 183.025332 -97.948799 
L 177.907827 -97.857934 
L 172.790321 -97.857934 
L 167.672816 -97.857934 
L 162.55531 -97.857934 
L 157.437805 -97.857934 
L 152.320299 -97.857934 
L 147.202794 -97.857934 
L 142.085288 -97.857934 
L 136.967783 -97.857934 
L 131.850277 -97.857934 
L 126.732772 -97.857934 
L 121.615267 -97.857934 
z
" style="stroke: #57db5f; stroke-opacity: 0.65"/>
    </defs>
    <g clip-path="url(#pfe2962f940)">
     <use xlink:href="#m78c69a4981" x="0" y="280.512" style="fill: #57db5f; fill-opacity: 0.65; stroke: #57db5f; stroke-opacity: 0.65"/>
    </g>
   </g>
   <g id="PolyCollection_15">
    <defs>
     <path id="m243cffc825" d="M 121.615267 -98.740652 
L 121.615267 -97.857934 
L 126.732772 -97.857934 
L 131.850277 -97.857934 
L 136.967783 -97.857934 
L 142.085288 -97.857934 
L 147.202794 -97.857934 
L 152.320299 -97.857934 
L 157.437805 -97.857934 
L 162.55531 -97.857934 
L 167.672816 -97.857934 
L 172.790321 -97.857934 
L 177.907827 -97.857934 
L 183.025332 -97.981266 
L 188.142837 -98.227931 
L 193.260343 -98.597928 
L 198.377848 -99.091257 
L 203.495354 -99.707918 
L 208.612859 -100.447912 
L 213.730365 -101.311238 
L 218.84787 -102.297897 
L 223.965376 -103.407888 
L 229.082881 -104.641211 
L 234.200386 -105.997866 
L 239.317892 -107.477854 
L 244.435397 -109.081174 
L 249.552903 -110.807826 
L 254.670408 -112.657811 
L 259.787914 -114.631127 
L 264.905419 -116.727777 
L 270.022925 -118.947758 
L 275.14043 -121.291072 
L 280.257935 -123.757718 
L 285.375441 -126.101032 
L 290.492946 -128.321013 
L 295.610452 -130.417663 
L 300.727957 -132.390979 
L 305.845463 -134.240964 
L 310.962968 -135.967616 
L 316.080474 -137.570936 
L 321.197979 -139.050924 
L 326.315484 -140.407579 
L 331.43299 -141.640902 
L 336.550495 -142.750893 
L 341.668001 -143.737552 
L 346.785506 -144.600878 
L 351.903012 -145.340872 
L 357.020517 -145.957533 
L 362.138023 -146.450862 
L 367.255528 -146.820859 
L 372.373033 -147.067524 
L 377.490539 -147.190856 
L 382.608044 -147.190856 
L 387.72555 -147.190856 
L 392.843055 -147.190856 
L 397.960561 -147.190856 
L 403.078066 -147.190856 
L 408.195572 -147.190856 
L 413.313077 -147.190856 
L 418.430582 -147.190856 
L 423.548088 -147.190856 
L 428.665593 -147.190856 
L 433.783099 -147.190856 
L 433.783099 -148.073574 
L 433.783099 -148.073574 
L 428.665593 -148.073574 
L 423.548088 -148.073574 
L 418.430582 -148.073574 
L 413.313077 -148.073574 
L 408.195572 -148.073574 
L 403.078066 -148.073574 
L 397.960561 -148.073574 
L 392.843055 -148.073574 
L 387.72555 -148.073574 
L 382.608044 -148.073574 
L 377.490539 -148.073574 
L 372.373033 -147.950242 
L 367.255528 -147.703578 
L 362.138023 -147.333581 
L 357.020517 -146.840251 
L 351.903012 -146.22359 
L 346.785506 -145.483596 
L 341.668001 -144.62027 
L 336.550495 -143.633611 
L 331.43299 -142.523621 
L 326.315484 -141.290298 
L 321.197979 -139.933642 
L 316.080474 -138.453655 
L 310.962968 -136.850335 
L 305.845463 -135.123682 
L 300.727957 -133.273698 
L 295.610452 -131.300381 
L 290.492946 -129.203732 
L 285.375441 -126.98375 
L 280.257935 -124.640436 
L 275.14043 -122.17379 
L 270.022925 -119.830476 
L 264.905419 -117.610495 
L 259.787914 -115.513846 
L 254.670408 -113.540529 
L 249.552903 -111.690544 
L 244.435397 -109.963892 
L 239.317892 -108.360572 
L 234.200386 -106.880584 
L 229.082881 -105.523929 
L 223.965376 -104.290606 
L 218.84787 -103.180615 
L 213.730365 -102.193957 
L 208.612859 -101.330631 
L 203.495354 -100.590637 
L 198.377848 -99.973975 
L 193.260343 -99.480646 
L 188.142837 -99.110649 
L 183.025332 -98.863985 
L 177.907827 -98.740652 
L 172.790321 -98.740652 
L 167.672816 -98.740652 
L 162.55531 -98.740652 
L 157.437805 -98.740652 
L 152.320299 -98.740652 
L 147.202794 -98.740652 
L 142.085288 -98.740652 
L 136.967783 -98.740652 
L 131.850277 -98.740652 
L 126.732772 -98.740652 
L 121.615267 -98.740652 
z
" style="stroke: #57db5f; stroke-opacity: 0.65"/>
    </defs>
    <g clip-path="url(#pfe2962f940)">
     <use xlink:href="#m243cffc825" x="0" y="280.512" style="fill: #57db5f; fill-opacity: 0.65; stroke: #57db5f; stroke-opacity: 0.65"/>
    </g>
   </g>
   <g id="PolyCollection_16">
    <defs>
     <path id="mccf527d92e" d="M 121.615267 -99.402691 
L 121.615267 -98.740652 
L 126.732772 -98.740652 
L 131.850277 -98.740652 
L 136.967783 -98.740652 
L 142.085288 -98.740652 
L 147.202794 -98.740652 
L 152.320299 -98.740652 
L 157.437805 -98.740652 
L 162.55531 -98.740652 
L 167.672816 -98.740652 
L 172.790321 -98.740652 
L 177.907827 -98.740652 
L 183.025332 -99.140772 
L 188.142837 -99.941011 
L 193.260343 -101.14137 
L 198.377848 -102.741849 
L 203.495354 -104.742447 
L 208.612859 -107.143166 
L 213.730365 -109.944003 
L 218.84787 -113.144961 
L 223.965376 -116.746038 
L 229.082881 -120.747235 
L 234.200386 -125.148551 
L 239.317892 -129.949987 
L 244.435397 -135.151543 
L 249.552903 -140.753219 
L 254.670408 -146.755014 
L 259.787914 -153.156929 
L 264.905419 -159.958963 
L 270.022925 -167.161118 
L 275.14043 -174.763392 
L 280.257935 -182.765785 
L 285.375441 -190.368059 
L 290.492946 -197.570213 
L 295.610452 -204.372248 
L 300.727957 -210.774163 
L 305.845463 -216.775958 
L 310.962968 -222.377634 
L 316.080474 -227.579189 
L 321.197979 -232.380626 
L 326.315484 -236.781942 
L 331.43299 -240.783139 
L 336.550495 -244.384216 
L 341.668001 -247.585173 
L 346.785506 -250.386011 
L 351.903012 -252.786729 
L 357.020517 -254.787328 
L 362.138023 -256.387806 
L 367.255528 -257.588165 
L 372.373033 -258.388405 
L 377.490539 -258.788525 
L 382.608044 -258.788525 
L 387.72555 -258.788525 
L 392.843055 -258.788525 
L 397.960561 -258.788525 
L 403.078066 -258.788525 
L 408.195572 -258.788525 
L 413.313077 -258.788525 
L 418.430582 -258.788525 
L 423.548088 -258.788525 
L 428.665593 -258.788525 
L 433.783099 -258.788525 
L 433.783099 -259.450563 
L 433.783099 -259.450563 
L 428.665593 -259.450563 
L 423.548088 -259.450563 
L 418.430582 -259.450563 
L 413.313077 -259.450563 
L 408.195572 -259.450563 
L 403.078066 -259.450563 
L 397.960561 -259.450563 
L 392.843055 -259.450563 
L 387.72555 -259.450563 
L 382.608044 -259.450563 
L 377.490539 -259.450563 
L 372.373033 -259.050444 
L 367.255528 -258.250204 
L 362.138023 -257.049845 
L 357.020517 -255.449366 
L 351.903012 -253.448768 
L 346.785506 -251.04805 
L 341.668001 -248.247212 
L 336.550495 -245.046255 
L 331.43299 -241.445178 
L 326.315484 -237.443981 
L 321.197979 -233.042664 
L 316.080474 -228.241228 
L 310.962968 -223.039672 
L 305.845463 -217.437997 
L 300.727957 -211.436202 
L 295.610452 -205.034287 
L 290.492946 -198.232252 
L 285.375441 -191.030098 
L 280.257935 -183.427824 
L 275.14043 -175.42543 
L 270.022925 -167.823156 
L 264.905419 -160.621002 
L 259.787914 -153.818968 
L 254.670408 -147.417053 
L 249.552903 -141.415257 
L 244.435397 -135.813582 
L 239.317892 -130.612026 
L 234.200386 -125.81059 
L 229.082881 -121.409273 
L 223.965376 -117.408077 
L 218.84787 -113.806999 
L 213.730365 -110.606042 
L 208.612859 -107.805204 
L 203.495354 -105.404486 
L 198.377848 -103.403888 
L 193.260343 -101.803409 
L 188.142837 -100.60305 
L 183.025332 -99.802811 
L 177.907827 -99.402691 
L 172.790321 -99.402691 
L 167.672816 -99.402691 
L 162.55531 -99.402691 
L 157.437805 -99.402691 
L 152.320299 -99.402691 
L 147.202794 -99.402691 
L 142.085288 -99.402691 
L 136.967783 -99.402691 
L 131.850277 -99.402691 
L 126.732772 -99.402691 
L 121.615267 -99.402691 
z
" style="stroke: #57db5f; stroke-opacity: 0.65"/>
    </defs>
    <g clip-path="url(#pfe2962f940)">
     <use xlink:href="#mccf527d92e" x="0" y="280.512" style="fill: #57db5f; fill-opacity: 0.65; stroke: #57db5f; stroke-opacity: 0.65"/>
    </g>
   </g>
   <g id="PolyCollection_17">
    <defs>
     <path id="m2902a74b0b" d="M 121.615267 -125.63046 
L 121.615267 -109.079491 
L 126.732772 -109.079491 
L 131.850277 -109.079491 
L 136.967783 -109.079491 
L 142.085288 -109.079491 
L 147.202794 -109.079491 
L 152.320299 -109.079491 
L 157.437805 -109.079491 
L 162.55531 -109.079491 
L 167.672816 -109.079491 
L 172.790321 -109.079491 
L 177.907827 -109.079491 
L 183.025332 -109.075077 
L 188.142837 -109.06625 
L 193.260343 -109.053009 
L 198.377848 -109.035355 
L 203.495354 -109.013287 
L 208.612859 -108.986806 
L 213.730365 -108.95591 
L 218.84787 -108.920602 
L 223.965376 -108.880879 
L 229.082881 -108.836743 
L 234.200386 -108.788194 
L 239.317892 -108.735231 
L 244.435397 -108.677854 
L 249.552903 -108.616064 
L 254.670408 -108.54986 
L 259.787914 -108.479243 
L 264.905419 -108.404211 
L 270.022925 -108.324767 
L 275.14043 -108.240909 
L 280.257935 -108.152637 
L 285.375441 -108.068778 
L 290.492946 -107.989334 
L 295.610452 -107.914303 
L 300.727957 -107.843685 
L 305.845463 -107.777481 
L 310.962968 -107.715691 
L 316.080474 -107.658314 
L 321.197979 -107.605351 
L 326.315484 -107.556802 
L 331.43299 -107.512666 
L 336.550495 -107.472944 
L 341.668001 -107.437635 
L 346.785506 -107.40674 
L 351.903012 -107.380258 
L 357.020517 -107.35819 
L 362.138023 -107.340536 
L 367.255528 -107.327295 
L 372.373033 -107.318468 
L 377.490539 -107.314054 
L 382.608044 -107.314054 
L 387.72555 -107.314054 
L 392.843055 -107.314054 
L 397.960561 -107.314054 
L 403.078066 -107.314054 
L 408.195572 -107.314054 
L 413.313077 -107.314054 
L 418.430582 -107.314054 
L 423.548088 -107.314054 
L 428.665593 -107.314054 
L 433.783099 -107.314054 
L 433.783099 -123.865023 
L 433.783099 -123.865023 
L 428.665593 -123.865023 
L 423.548088 -123.865023 
L 418.430582 -123.865023 
L 413.313077 -123.865023 
L 408.195572 -123.865023 
L 403.078066 -123.865023 
L 397.960561 -123.865023 
L 392.843055 -123.865023 
L 387.72555 -123.865023 
L 382.608044 -123.865023 
L 377.490539 -123.865023 
L 372.373033 -123.869437 
L 367.255528 -123.878264 
L 362.138023 -123.891505 
L 357.020517 -123.909159 
L 351.903012 -123.931227 
L 346.785506 -123.957709 
L 341.668001 -123.988604 
L 336.550495 -124.023913 
L 331.43299 -124.063635 
L 326.315484 -124.107771 
L 321.197979 -124.156321 
L 316.080474 -124.209284 
L 310.962968 -124.26666 
L 305.845463 -124.328451 
L 300.727957 -124.394655 
L 295.610452 -124.465272 
L 290.492946 -124.540303 
L 285.375441 -124.619748 
L 280.257935 -124.703606 
L 275.14043 -124.791878 
L 270.022925 -124.875736 
L 264.905419 -124.955181 
L 259.787914 -125.030212 
L 254.670408 -125.100829 
L 249.552903 -125.167033 
L 244.435397 -125.228823 
L 239.317892 -125.2862 
L 234.200386 -125.339163 
L 229.082881 -125.387713 
L 223.965376 -125.431849 
L 218.84787 -125.471571 
L 213.730365 -125.50688 
L 208.612859 -125.537775 
L 203.495354 -125.564256 
L 198.377848 -125.586324 
L 193.260343 -125.603979 
L 188.142837 -125.617219 
L 183.025332 -125.626047 
L 177.907827 -125.63046 
L 172.790321 -125.63046 
L 167.672816 -125.63046 
L 162.55531 -125.63046 
L 157.437805 -125.63046 
L 152.320299 -125.63046 
L 147.202794 -125.63046 
L 142.085288 -125.63046 
L 136.967783 -125.63046 
L 131.850277 -125.63046 
L 126.732772 -125.63046 
L 121.615267 -125.63046 
z
" style="stroke: #5f57db; stroke-opacity: 0.65"/>
    </defs>
    <g clip-path="url(#pfe2962f940)">
     <use xlink:href="#m2902a74b0b" x="0" y="280.512" style="fill: #5f57db; fill-opacity: 0.65; stroke: #5f57db; stroke-opacity: 0.65"/>
    </g>
   </g>
   <g id="PolyCollection_18">
    <defs>
     <path id="m020b63763f" d="M 121.615267 -125.85114 
L 121.615267 -125.63046 
L 126.732772 -125.63046 
L 131.850277 -125.63046 
L 136.967783 -125.63046 
L 142.085288 -125.63046 
L 147.202794 -125.63046 
L 152.320299 -125.63046 
L 157.437805 -125.63046 
L 162.55531 -125.63046 
L 167.672816 -125.63046 
L 172.790321 -125.63046 
L 177.907827 -125.63046 
L 183.025332 -125.686568 
L 188.142837 -125.798784 
L 193.260343 -125.967107 
L 198.377848 -126.191538 
L 203.495354 -126.472077 
L 208.612859 -126.808724 
L 213.730365 -127.201478 
L 218.84787 -127.65034 
L 223.965376 -128.155311 
L 229.082881 -128.716388 
L 234.200386 -129.333574 
L 239.317892 -130.006867 
L 244.435397 -130.736269 
L 249.552903 -131.521778 
L 254.670408 -132.363394 
L 259.787914 -133.261119 
L 264.905419 -134.214951 
L 270.022925 -135.224892 
L 275.14043 -136.290939 
L 280.257935 -137.413095 
L 285.375441 -138.479143 
L 290.492946 -139.489083 
L 295.610452 -140.442916 
L 300.727957 -141.34064 
L 305.845463 -142.182257 
L 310.962968 -142.967766 
L 316.080474 -143.697167 
L 321.197979 -144.370461 
L 326.315484 -144.987646 
L 331.43299 -145.548724 
L 336.550495 -146.053694 
L 341.668001 -146.502556 
L 346.785506 -146.895311 
L 351.903012 -147.231958 
L 357.020517 -147.512497 
L 362.138023 -147.736928 
L 367.255528 -147.905251 
L 372.373033 -148.017467 
L 377.490539 -148.073574 
L 382.608044 -148.073574 
L 387.72555 -148.073574 
L 392.843055 -148.073574 
L 397.960561 -148.073574 
L 403.078066 -148.073574 
L 408.195572 -148.073574 
L 413.313077 -148.073574 
L 418.430582 -148.073574 
L 423.548088 -148.073574 
L 428.665593 -148.073574 
L 433.783099 -148.073574 
L 433.783099 -148.294254 
L 433.783099 -148.294254 
L 428.665593 -148.294254 
L 423.548088 -148.294254 
L 418.430582 -148.294254 
L 413.313077 -148.294254 
L 408.195572 -148.294254 
L 403.078066 -148.294254 
L 397.960561 -148.294254 
L 392.843055 -148.294254 
L 387.72555 -148.294254 
L 382.608044 -148.294254 
L 377.490539 -148.294254 
L 372.373033 -148.238146 
L 367.255528 -148.125931 
L 362.138023 -147.957607 
L 357.020517 -147.733176 
L 351.903012 -147.452637 
L 346.785506 -147.115991 
L 341.668001 -146.723236 
L 336.550495 -146.274374 
L 331.43299 -145.769404 
L 326.315484 -145.208326 
L 321.197979 -144.59114 
L 316.080474 -143.917847 
L 310.962968 -143.188446 
L 305.845463 -142.402937 
L 300.727957 -141.56132 
L 295.610452 -140.663595 
L 290.492946 -139.709763 
L 285.375441 -138.699823 
L 280.257935 -137.633775 
L 275.14043 -136.511619 
L 270.022925 -135.445571 
L 264.905419 -134.435631 
L 259.787914 -133.481799 
L 254.670408 -132.584074 
L 249.552903 -131.742457 
L 244.435397 -130.956948 
L 239.317892 -130.227547 
L 234.200386 -129.554254 
L 229.082881 -128.937068 
L 223.965376 -128.37599 
L 218.84787 -127.87102 
L 213.730365 -127.422158 
L 208.612859 -127.029403 
L 203.495354 -126.692757 
L 198.377848 -126.412218 
L 193.260343 -126.187787 
L 188.142837 -126.019463 
L 183.025332 -125.907248 
L 177.907827 -125.85114 
L 172.790321 -125.85114 
L 167.672816 -125.85114 
L 162.55531 -125.85114 
L 157.437805 -125.85114 
L 152.320299 -125.85114 
L 147.202794 -125.85114 
L 142.085288 -125.85114 
L 136.967783 -125.85114 
L 131.850277 -125.85114 
L 126.732772 -125.85114 
L 121.615267 -125.85114 
z
" style="stroke: #5f57db; stroke-opacity: 0.65"/>
    </defs>
    <g clip-path="url(#pfe2962f940)">
     <use xlink:href="#m020b63763f" x="0" y="280.512" style="fill: #5f57db; fill-opacity: 0.65; stroke: #5f57db; stroke-opacity: 0.65"/>
    </g>
   </g>
   <g id="PolyCollection_19">
    <defs>
     <path id="ma41c631835" d="M 121.615267 -138.838134 
L 121.615267 -135.52794 
L 126.732772 -135.52794 
L 131.850277 -135.52794 
L 136.967783 -135.52794 
L 142.085288 -135.52794 
L 147.202794 -135.52794 
L 152.320299 -135.52794 
L 157.437805 -135.52794 
L 162.55531 -135.52794 
L 167.672816 -135.52794 
L 172.790321 -135.52794 
L 177.907827 -135.52794 
L 183.025332 -135.52463 
L 188.142837 -135.518009 
L 193.260343 -135.508079 
L 198.377848 -135.494838 
L 203.495354 -135.478287 
L 208.612859 -135.458426 
L 213.730365 -135.435254 
L 218.84787 -135.408773 
L 223.965376 -135.378981 
L 229.082881 -135.345879 
L 234.200386 -135.309467 
L 239.317892 -135.269745 
L 244.435397 -135.226712 
L 249.552903 -135.180369 
L 254.670408 -135.130717 
L 259.787914 -135.077753 
L 264.905419 -135.02148 
L 270.022925 -134.961897 
L 275.14043 -134.899003 
L 280.257935 -134.832799 
L 285.375441 -134.769905 
L 290.492946 -134.710322 
L 295.610452 -134.654049 
L 300.727957 -134.601086 
L 305.845463 -134.551433 
L 310.962968 -134.50509 
L 316.080474 -134.462057 
L 321.197979 -134.422335 
L 326.315484 -134.385923 
L 331.43299 -134.352821 
L 336.550495 -134.323029 
L 341.668001 -134.296548 
L 346.785506 -134.273376 
L 351.903012 -134.253515 
L 357.020517 -134.236964 
L 362.138023 -134.223723 
L 367.255528 -134.213793 
L 372.373033 -134.207172 
L 377.490539 -134.203862 
L 382.608044 -134.203862 
L 387.72555 -134.203862 
L 392.843055 -134.203862 
L 397.960561 -134.203862 
L 403.078066 -134.203862 
L 408.195572 -134.203862 
L 413.313077 -134.203862 
L 418.430582 -134.203862 
L 423.548088 -134.203862 
L 428.665593 -134.203862 
L 433.783099 -134.203862 
L 433.783099 -137.514056 
L 433.783099 -137.514056 
L 428.665593 -137.514056 
L 423.548088 -137.514056 
L 418.430582 -137.514056 
L 413.313077 -137.514056 
L 408.195572 -137.514056 
L 403.078066 -137.514056 
L 397.960561 -137.514056 
L 392.843055 -137.514056 
L 387.72555 -137.514056 
L 382.608044 -137.514056 
L 377.490539 -137.514056 
L 372.373033 -137.517366 
L 367.255528 -137.523987 
L 362.138023 -137.533917 
L 357.020517 -137.547158 
L 351.903012 -137.563709 
L 346.785506 -137.58357 
L 341.668001 -137.606742 
L 336.550495 -137.633223 
L 331.43299 -137.663015 
L 326.315484 -137.696117 
L 321.197979 -137.732529 
L 316.080474 -137.772251 
L 310.962968 -137.815284 
L 305.845463 -137.861626 
L 300.727957 -137.911279 
L 295.610452 -137.964242 
L 290.492946 -138.020516 
L 285.375441 -138.080099 
L 280.257935 -138.142993 
L 275.14043 -138.209197 
L 270.022925 -138.27209 
L 264.905419 -138.331674 
L 259.787914 -138.387947 
L 254.670408 -138.44091 
L 249.552903 -138.490563 
L 244.435397 -138.536906 
L 239.317892 -138.579939 
L 234.200386 -138.619661 
L 229.082881 -138.656073 
L 223.965376 -138.689175 
L 218.84787 -138.718967 
L 213.730365 -138.745448 
L 208.612859 -138.76862 
L 203.495354 -138.788481 
L 198.377848 -138.805032 
L 193.260343 -138.818272 
L 188.142837 -138.828203 
L 183.025332 -138.834823 
L 177.907827 -138.838134 
L 172.790321 -138.838134 
L 167.672816 -138.838134 
L 162.55531 -138.838134 
L 157.437805 -138.838134 
L 152.320299 -138.838134 
L 147.202794 -138.838134 
L 142.085288 -138.838134 
L 136.967783 -138.838134 
L 131.850277 -138.838134 
L 126.732772 -138.838134 
L 121.615267 -138.838134 
z
" style="stroke: #db5f57; stroke-opacity: 0.65"/>
    </defs>
    <g clip-path="url(#pfe2962f940)">
     <use xlink:href="#ma41c631835" x="0" y="280.512" style="fill: #db5f57; fill-opacity: 0.65; stroke: #db5f57; stroke-opacity: 0.65"/>
    </g>
   </g>
   <g id="PolyCollection_20">
    <defs>
     <path id="m52a877e2a4" d="M 121.615267 -197.097545 
L 121.615267 -138.838134 
L 126.732772 -138.838134 
L 131.850277 -138.838134 
L 136.967783 -138.838134 
L 142.085288 -138.838134 
L 147.202794 -138.838134 
L 152.320299 -138.838134 
L 157.437805 -138.838134 
L 162.55531 -138.838134 
L 167.672816 -138.838134 
L 172.790321 -138.838134 
L 177.907827 -138.838134 
L 183.025332 -138.861774 
L 188.142837 -138.909055 
L 193.260343 -138.979975 
L 198.377848 -139.074537 
L 203.495354 -139.192738 
L 208.612859 -139.33458 
L 213.730365 -139.500062 
L 218.84787 -139.689184 
L 223.965376 -139.901947 
L 229.082881 -140.13835 
L 234.200386 -140.398394 
L 239.317892 -140.682077 
L 244.435397 -140.989401 
L 249.552903 -141.320365 
L 254.670408 -141.67497 
L 259.787914 -142.053215 
L 264.905419 -142.4551 
L 270.022925 -142.880625 
L 275.14043 -143.329791 
L 280.257935 -143.802597 
L 285.375441 -144.251763 
L 290.492946 -144.677288 
L 295.610452 -145.079173 
L 300.727957 -145.457418 
L 305.845463 -145.812022 
L 310.962968 -146.142987 
L 316.080474 -146.450311 
L 321.197979 -146.733994 
L 326.315484 -146.994037 
L 331.43299 -147.230441 
L 336.550495 -147.443203 
L 341.668001 -147.632326 
L 346.785506 -147.797808 
L 351.903012 -147.93965 
L 357.020517 -148.057851 
L 362.138023 -148.152412 
L 367.255528 -148.223333 
L 372.373033 -148.270614 
L 377.490539 -148.294254 
L 382.608044 -148.294254 
L 387.72555 -148.294254 
L 392.843055 -148.294254 
L 397.960561 -148.294254 
L 403.078066 -148.294254 
L 408.195572 -148.294254 
L 413.313077 -148.294254 
L 418.430582 -148.294254 
L 423.548088 -148.294254 
L 428.665593 -148.294254 
L 433.783099 -148.294254 
L 433.783099 -206.553666 
L 433.783099 -206.553666 
L 428.665593 -206.553666 
L 423.548088 -206.553666 
L 418.430582 -206.553666 
L 413.313077 -206.553666 
L 408.195572 -206.553666 
L 403.078066 -206.553666 
L 397.960561 -206.553666 
L 392.843055 -206.553666 
L 387.72555 -206.553666 
L 382.608044 -206.553666 
L 377.490539 -206.553666 
L 372.373033 -206.530025 
L 367.255528 -206.482745 
L 362.138023 -206.411824 
L 357.020517 -206.317263 
L 351.903012 -206.199061 
L 346.785506 -206.057219 
L 341.668001 -205.891737 
L 336.550495 -205.702615 
L 331.43299 -205.489852 
L 326.315484 -205.253449 
L 321.197979 -204.993406 
L 316.080474 -204.709722 
L 310.962968 -204.402398 
L 305.845463 -204.071434 
L 300.727957 -203.71683 
L 295.610452 -203.338585 
L 290.492946 -202.9367 
L 285.375441 -202.511174 
L 280.257935 -202.062008 
L 275.14043 -201.589202 
L 270.022925 -201.140037 
L 264.905419 -200.714511 
L 259.787914 -200.312626 
L 254.670408 -199.934381 
L 249.552903 -199.579777 
L 244.435397 -199.248813 
L 239.317892 -198.941489 
L 234.200386 -198.657805 
L 229.082881 -198.397762 
L 223.965376 -198.161359 
L 218.84787 -197.948596 
L 213.730365 -197.759474 
L 208.612859 -197.593992 
L 203.495354 -197.45215 
L 198.377848 -197.333948 
L 193.260343 -197.239387 
L 188.142837 -197.168466 
L 183.025332 -197.121186 
L 177.907827 -197.097545 
L 172.790321 -197.097545 
L 167.672816 -197.097545 
L 162.55531 -197.097545 
L 157.437805 -197.097545 
L 152.320299 -197.097545 
L 147.202794 -197.097545 
L 142.085288 -197.097545 
L 136.967783 -197.097545 
L 131.850277 -197.097545 
L 126.732772 -197.097545 
L 121.615267 -197.097545 
z
" style="stroke: #db5f57; stroke-opacity: 0.65"/>
    </defs>
    <g clip-path="url(#pfe2962f940)">
     <use xlink:href="#m52a877e2a4" x="0" y="280.512" style="fill: #db5f57; fill-opacity: 0.65; stroke: #db5f57; stroke-opacity: 0.65"/>
    </g>
   </g>
   <g id="PolyCollection_21">
    <defs>
     <path id="m417b7d89f9" d="M 121.615267 -197.538904 
L 121.615267 -197.097545 
L 126.732772 -197.097545 
L 131.850277 -197.097545 
L 136.967783 -197.097545 
L 142.085288 -197.097545 
L 147.202794 -197.097545 
L 152.320299 -197.097545 
L 157.437805 -197.097545 
L 162.55531 -197.097545 
L 167.672816 -197.097545 
L 172.790321 -197.097545 
L 177.907827 -197.097545 
L 183.025332 -197.253428 
L 188.142837 -197.565193 
L 193.260343 -198.032841 
L 198.377848 -198.656371 
L 203.495354 -199.435783 
L 208.612859 -200.371079 
L 213.730365 -201.462257 
L 218.84787 -202.709317 
L 223.965376 -204.11226 
L 229.082881 -205.671085 
L 234.200386 -207.385793 
L 239.317892 -209.256384 
L 244.435397 -211.282857 
L 249.552903 -213.465212 
L 254.670408 -215.803451 
L 259.787914 -218.297571 
L 264.905419 -220.947575 
L 270.022925 -223.75346 
L 275.14043 -226.715229 
L 280.257935 -229.83288 
L 285.375441 -232.794648 
L 290.492946 -235.600534 
L 295.610452 -238.250537 
L 300.727957 -240.744658 
L 305.845463 -243.082896 
L 310.962968 -245.265252 
L 316.080474 -247.291725 
L 321.197979 -249.162315 
L 326.315484 -250.877023 
L 331.43299 -252.435849 
L 336.550495 -253.838792 
L 341.668001 -255.085852 
L 346.785506 -256.17703 
L 351.903012 -257.112325 
L 357.020517 -257.891738 
L 362.138023 -258.515268 
L 367.255528 -258.982916 
L 372.373033 -259.294681 
L 377.490539 -259.450563 
L 382.608044 -259.450563 
L 387.72555 -259.450563 
L 392.843055 -259.450563 
L 397.960561 -259.450563 
L 403.078066 -259.450563 
L 408.195572 -259.450563 
L 413.313077 -259.450563 
L 418.430582 -259.450563 
L 423.548088 -259.450563 
L 428.665593 -259.450563 
L 433.783099 -259.450563 
L 433.783099 -259.891922 
L 433.783099 -259.891922 
L 428.665593 -259.891922 
L 423.548088 -259.891922 
L 418.430582 -259.891922 
L 413.313077 -259.891922 
L 408.195572 -259.891922 
L 403.078066 -259.891922 
L 397.960561 -259.891922 
L 392.843055 -259.891922 
L 387.72555 -259.891922 
L 382.608044 -259.891922 
L 377.490539 -259.891922 
L 372.373033 -259.73604 
L 367.255528 -259.424275 
L 362.138023 -258.956627 
L 357.020517 -258.333097 
L 351.903012 -257.553684 
L 346.785506 -256.618389 
L 341.668001 -255.527211 
L 336.550495 -254.280151 
L 331.43299 -252.877208 
L 326.315484 -251.318382 
L 321.197979 -249.603674 
L 316.080474 -247.733084 
L 310.962968 -245.706611 
L 305.845463 -243.524255 
L 300.727957 -241.186017 
L 295.610452 -238.691896 
L 290.492946 -236.041893 
L 285.375441 -233.236007 
L 280.257935 -230.274239 
L 275.14043 -227.156588 
L 270.022925 -224.19482 
L 264.905419 -221.388934 
L 259.787914 -218.738931 
L 254.670408 -216.24481 
L 249.552903 -213.906572 
L 244.435397 -211.724216 
L 239.317892 -209.697743 
L 234.200386 -207.827152 
L 229.082881 -206.112444 
L 223.965376 -204.553619 
L 218.84787 -203.150676 
L 213.730365 -201.903616 
L 208.612859 -200.812438 
L 203.495354 -199.877143 
L 198.377848 -199.09773 
L 193.260343 -198.4742 
L 188.142837 -198.006552 
L 183.025332 -197.694787 
L 177.907827 -197.538904 
L 172.790321 -197.538904 
L 167.672816 -197.538904 
L 162.55531 -197.538904 
L 157.437805 -197.538904 
L 152.320299 -197.538904 
L 147.202794 -197.538904 
L 142.085288 -197.538904 
L 136.967783 -197.538904 
L 131.850277 -197.538904 
L 126.732772 -197.538904 
L 121.615267 -197.538904 
z
" style="stroke: #db5f57; stroke-opacity: 0.65"/>
    </defs>
    <g clip-path="url(#pfe2962f940)">
     <use xlink:href="#m417b7d89f9" x="0" y="280.512" style="fill: #db5f57; fill-opacity: 0.65; stroke: #db5f57; stroke-opacity: 0.65"/>
    </g>
   </g>
   <g id="PolyCollection_22">
    <defs>
     <path id="mae10b1bab9" d="M 121.615267 -207.657064 
L 121.615267 -207.215704 
L 126.732772 -207.215704 
L 131.850277 -207.215704 
L 136.967783 -207.215704 
L 142.085288 -207.215704 
L 147.202794 -207.215704 
L 152.320299 -207.215704 
L 157.437805 -207.215704 
L 162.55531 -207.215704 
L 167.672816 -207.215704 
L 172.790321 -207.215704 
L 177.907827 -207.215704 
L 183.025332 -207.007328 
L 188.142837 -206.590574 
L 193.260343 -205.965444 
L 198.377848 -205.131937 
L 203.495354 -204.090054 
L 208.612859 -202.839794 
L 213.730365 -201.381157 
L 218.84787 -199.714143 
L 223.965376 -197.838753 
L 229.082881 -195.754986 
L 234.200386 -193.462842 
L 239.317892 -190.962322 
L 244.435397 -188.253425 
L 249.552903 -185.336151 
L 254.670408 -182.2105 
L 259.787914 -178.876473 
L 264.905419 -175.334069 
L 270.022925 -171.583288 
L 275.14043 -167.624131 
L 280.257935 -163.456597 
L 285.375441 -159.49744 
L 290.492946 -155.746659 
L 295.610452 -152.204255 
L 300.727957 -148.870228 
L 305.845463 -145.744577 
L 310.962968 -142.827303 
L 316.080474 -140.118406 
L 321.197979 -137.617886 
L 326.315484 -135.325742 
L 331.43299 -133.241975 
L 336.550495 -131.366585 
L 341.668001 -129.699571 
L 346.785506 -128.240934 
L 351.903012 -126.990674 
L 357.020517 -125.948791 
L 362.138023 -125.115284 
L 367.255528 -124.490154 
L 372.373033 -124.0734 
L 377.490539 -123.865023 
L 382.608044 -123.865023 
L 387.72555 -123.865023 
L 392.843055 -123.865023 
L 397.960561 -123.865023 
L 403.078066 -123.865023 
L 408.195572 -123.865023 
L 413.313077 -123.865023 
L 418.430582 -123.865023 
L 423.548088 -123.865023 
L 428.665593 -123.865023 
L 433.783099 -123.865023 
L 433.783099 -124.306383 
L 433.783099 -124.306383 
L 428.665593 -124.306383 
L 423.548088 -124.306383 
L 418.430582 -124.306383 
L 413.313077 -124.306383 
L 408.195572 -124.306383 
L 403.078066 -124.306383 
L 397.960561 -124.306383 
L 392.843055 -124.306383 
L 387.72555 -124.306383 
L 382.608044 -124.306383 
L 377.490539 -124.306383 
L 372.373033 -124.514759 
L 367.255528 -124.931513 
L 362.138023 -125.556643 
L 357.020517 -126.39015 
L 351.903012 -127.432033 
L 346.785506 -128.682293 
L 341.668001 -130.14093 
L 336.550495 -131.807944 
L 331.43299 -133.683334 
L 326.315484 -135.767101 
L 321.197979 -138.059245 
L 316.080474 -140.559765 
L 310.962968 -143.268663 
L 305.845463 -146.185936 
L 300.727957 -149.311587 
L 295.610452 -152.645614 
L 290.492946 -156.188018 
L 285.375441 -159.938799 
L 280.257935 -163.897956 
L 275.14043 -168.06549 
L 270.022925 -172.024648 
L 264.905419 -175.775428 
L 259.787914 -179.317832 
L 254.670408 -182.651859 
L 249.552903 -185.77751 
L 244.435397 -188.694784 
L 239.317892 -191.403681 
L 234.200386 -193.904201 
L 229.082881 -196.196345 
L 223.965376 -198.280112 
L 218.84787 -200.155502 
L 213.730365 -201.822516 
L 208.612859 -203.281153 
L 203.495354 -204.531413 
L 198.377848 -205.573297 
L 193.260343 -206.406803 
L 188.142837 -207.031934 
L 183.025332 -207.448687 
L 177.907827 -207.657064 
L 172.790321 -207.657064 
L 167.672816 -207.657064 
L 162.55531 -207.657064 
L 157.437805 -207.657064 
L 152.320299 -207.657064 
L 147.202794 -207.657064 
L 142.085288 -207.657064 
L 136.967783 -207.657064 
L 131.850277 -207.657064 
L 126.732772 -207.657064 
L 121.615267 -207.657064 
z
" style="stroke: #d3db57; stroke-opacity: 0.65"/>
    </defs>
    <g clip-path="url(#pfe2962f940)">
     <use xlink:href="#mae10b1bab9" x="0" y="280.512" style="fill: #d3db57; fill-opacity: 0.65; stroke: #d3db57; stroke-opacity: 0.65"/>
    </g>
   </g>
   <g id="PolyCollection_23">
    <defs>
     <path id="mfe7844b419" d="M 121.615267 -213.615413 
L 121.615267 -207.657064 
L 126.732772 -207.657064 
L 131.850277 -207.657064 
L 136.967783 -207.657064 
L 142.085288 -207.657064 
L 147.202794 -207.657064 
L 152.320299 -207.657064 
L 157.437805 -207.657064 
L 162.55531 -207.657064 
L 167.672816 -207.657064 
L 172.790321 -207.657064 
L 177.907827 -207.657064 
L 183.025332 -207.654305 
L 188.142837 -207.648788 
L 193.260343 -207.640513 
L 198.377848 -207.629479 
L 203.495354 -207.615686 
L 208.612859 -207.599135 
L 213.730365 -207.579826 
L 218.84787 -207.557758 
L 223.965376 -207.532931 
L 229.082881 -207.505346 
L 234.200386 -207.475003 
L 239.317892 -207.441901 
L 244.435397 -207.406041 
L 249.552903 -207.367422 
L 254.670408 -207.326044 
L 259.787914 -207.281908 
L 264.905419 -207.235014 
L 270.022925 -207.185361 
L 275.14043 -207.13295 
L 280.257935 -207.07778 
L 285.375441 -207.025368 
L 290.492946 -206.975715 
L 295.610452 -206.928821 
L 300.727957 -206.884685 
L 305.845463 -206.843308 
L 310.962968 -206.804689 
L 316.080474 -206.768828 
L 321.197979 -206.735726 
L 326.315484 -206.705383 
L 331.43299 -206.677798 
L 336.550495 -206.652971 
L 341.668001 -206.630904 
L 346.785506 -206.611594 
L 351.903012 -206.595043 
L 357.020517 -206.581251 
L 362.138023 -206.570217 
L 367.255528 -206.561941 
L 372.373033 -206.556424 
L 377.490539 -206.553666 
L 382.608044 -206.553666 
L 387.72555 -206.553666 
L 392.843055 -206.553666 
L 397.960561 -206.553666 
L 403.078066 -206.553666 
L 408.195572 -206.553666 
L 413.313077 -206.553666 
L 418.430582 -206.553666 
L 423.548088 -206.553666 
L 428.665593 -206.553666 
L 433.783099 -206.553666 
L 433.783099 -212.512015 
L 433.783099 -212.512015 
L 428.665593 -212.512015 
L 423.548088 -212.512015 
L 418.430582 -212.512015 
L 413.313077 -212.512015 
L 408.195572 -212.512015 
L 403.078066 -212.512015 
L 397.960561 -212.512015 
L 392.843055 -212.512015 
L 387.72555 -212.512015 
L 382.608044 -212.512015 
L 377.490539 -212.512015 
L 372.373033 -212.514773 
L 367.255528 -212.52029 
L 362.138023 -212.528566 
L 357.020517 -212.5396 
L 351.903012 -212.553392 
L 346.785506 -212.569943 
L 341.668001 -212.589252 
L 336.550495 -212.61132 
L 331.43299 -212.636147 
L 326.315484 -212.663732 
L 321.197979 -212.694075 
L 316.080474 -212.727177 
L 310.962968 -212.763038 
L 305.845463 -212.801657 
L 300.727957 -212.843034 
L 295.610452 -212.88717 
L 290.492946 -212.934064 
L 285.375441 -212.983717 
L 280.257935 -213.036129 
L 275.14043 -213.091299 
L 270.022925 -213.14371 
L 264.905419 -213.193363 
L 259.787914 -213.240257 
L 254.670408 -213.284393 
L 249.552903 -213.325771 
L 244.435397 -213.36439 
L 239.317892 -213.40025 
L 234.200386 -213.433352 
L 229.082881 -213.463695 
L 223.965376 -213.49128 
L 218.84787 -213.516107 
L 213.730365 -213.538175 
L 208.612859 -213.557484 
L 203.495354 -213.574035 
L 198.377848 -213.587828 
L 193.260343 -213.598862 
L 188.142837 -213.607137 
L 183.025332 -213.612654 
L 177.907827 -213.615413 
L 172.790321 -213.615413 
L 167.672816 -213.615413 
L 162.55531 -213.615413 
L 157.437805 -213.615413 
L 152.320299 -213.615413 
L 147.202794 -213.615413 
L 142.085288 -213.615413 
L 136.967783 -213.615413 
L 131.850277 -213.615413 
L 126.732772 -213.615413 
L 121.615267 -213.615413 
z
" style="stroke: #d3db57; stroke-opacity: 0.65"/>
    </defs>
    <g clip-path="url(#pfe2962f940)">
     <use xlink:href="#mfe7844b419" x="0" y="280.512" style="fill: #d3db57; fill-opacity: 0.65; stroke: #d3db57; stroke-opacity: 0.65"/>
    </g>
   </g>
   <g id="PolyCollection_24">
    <defs>
     <path id="maaff696fe5" d="M 121.615267 -223.512892 
L 121.615267 -223.292213 
L 126.732772 -223.292213 
L 131.850277 -223.292213 
L 136.967783 -223.292213 
L 142.085288 -223.292213 
L 147.202794 -223.292213 
L 152.320299 -223.292213 
L 157.437805 -223.292213 
L 162.55531 -223.292213 
L 167.672816 -223.292213 
L 172.790321 -223.292213 
L 177.907827 -223.292213 
L 183.025332 -223.265262 
L 188.142837 -223.211361 
L 193.260343 -223.13051 
L 198.377848 -223.022708 
L 203.495354 -222.887955 
L 208.612859 -222.726252 
L 213.730365 -222.537599 
L 218.84787 -222.321995 
L 223.965376 -222.07944 
L 229.082881 -221.809935 
L 234.200386 -221.51348 
L 239.317892 -221.190074 
L 244.435397 -220.839718 
L 249.552903 -220.462411 
L 254.670408 -220.058153 
L 259.787914 -219.626945 
L 264.905419 -219.168787 
L 270.022925 -218.683678 
L 275.14043 -218.171619 
L 280.257935 -217.632609 
L 285.375441 -217.120549 
L 290.492946 -216.63544 
L 295.610452 -216.177282 
L 300.727957 -215.746074 
L 305.845463 -215.341817 
L 310.962968 -214.96451 
L 316.080474 -214.614153 
L 321.197979 -214.290747 
L 326.315484 -213.994292 
L 331.43299 -213.724787 
L 336.550495 -213.482232 
L 341.668001 -213.266628 
L 346.785506 -213.077975 
L 351.903012 -212.916272 
L 357.020517 -212.78152 
L 362.138023 -212.673718 
L 367.255528 -212.592866 
L 372.373033 -212.538965 
L 377.490539 -212.512015 
L 382.608044 -212.512015 
L 387.72555 -212.512015 
L 392.843055 -212.512015 
L 397.960561 -212.512015 
L 403.078066 -212.512015 
L 408.195572 -212.512015 
L 413.313077 -212.512015 
L 418.430582 -212.512015 
L 423.548088 -212.512015 
L 428.665593 -212.512015 
L 433.783099 -212.512015 
L 433.783099 -212.732694 
L 433.783099 -212.732694 
L 428.665593 -212.732694 
L 423.548088 -212.732694 
L 418.430582 -212.732694 
L 413.313077 -212.732694 
L 408.195572 -212.732694 
L 403.078066 -212.732694 
L 397.960561 -212.732694 
L 392.843055 -212.732694 
L 387.72555 -212.732694 
L 382.608044 -212.732694 
L 377.490539 -212.732694 
L 372.373033 -212.759645 
L 367.255528 -212.813546 
L 362.138023 -212.894397 
L 357.020517 -213.002199 
L 351.903012 -213.136952 
L 346.785506 -213.298655 
L 341.668001 -213.487308 
L 336.550495 -213.702912 
L 331.43299 -213.945466 
L 326.315484 -214.214971 
L 321.197979 -214.511427 
L 316.080474 -214.834833 
L 310.962968 -215.185189 
L 305.845463 -215.562496 
L 300.727957 -215.966754 
L 295.610452 -216.397961 
L 290.492946 -216.85612 
L 285.375441 -217.341229 
L 280.257935 -217.853288 
L 275.14043 -218.392298 
L 270.022925 -218.904358 
L 264.905419 -219.389466 
L 259.787914 -219.847625 
L 254.670408 -220.278833 
L 249.552903 -220.68309 
L 244.435397 -221.060397 
L 239.317892 -221.410754 
L 234.200386 -221.734159 
L 229.082881 -222.030615 
L 223.965376 -222.30012 
L 218.84787 -222.542674 
L 213.730365 -222.758278 
L 208.612859 -222.946932 
L 203.495354 -223.108635 
L 198.377848 -223.243387 
L 193.260343 -223.351189 
L 188.142837 -223.432041 
L 183.025332 -223.485942 
L 177.907827 -223.512892 
L 172.790321 -223.512892 
L 167.672816 -223.512892 
L 162.55531 -223.512892 
L 157.437805 -223.512892 
L 152.320299 -223.512892 
L 147.202794 -223.512892 
L 142.085288 -223.512892 
L 136.967783 -223.512892 
L 131.850277 -223.512892 
L 126.732772 -223.512892 
L 121.615267 -223.512892 
z
" style="stroke: #57d3db; stroke-opacity: 0.65"/>
    </defs>
    <g clip-path="url(#pfe2962f940)">
     <use xlink:href="#maaff696fe5" x="0" y="280.512" style="fill: #57d3db; fill-opacity: 0.65; stroke: #57d3db; stroke-opacity: 0.65"/>
    </g>
   </g>
   <g id="PolyCollection_25">
    <defs>
     <path id="mc4b43562b9" d="M 121.615267 -250.215122 
L 121.615267 -223.512892 
L 126.732772 -223.512892 
L 131.850277 -223.512892 
L 136.967783 -223.512892 
L 142.085288 -223.512892 
L 147.202794 -223.512892 
L 152.320299 -223.512892 
L 157.437805 -223.512892 
L 162.55531 -223.512892 
L 167.672816 -223.512892 
L 172.790321 -223.512892 
L 177.907827 -223.512892 
L 183.025332 -223.510134 
L 188.142837 -223.504617 
L 193.260343 -223.496341 
L 198.377848 -223.485307 
L 203.495354 -223.471515 
L 208.612859 -223.454964 
L 213.730365 -223.435654 
L 218.84787 -223.413586 
L 223.965376 -223.38876 
L 229.082881 -223.361175 
L 234.200386 -223.330831 
L 239.317892 -223.29773 
L 244.435397 -223.261869 
L 249.552903 -223.22325 
L 254.670408 -223.181873 
L 259.787914 -223.137737 
L 264.905419 -223.090842 
L 270.022925 -223.04119 
L 275.14043 -222.988778 
L 280.257935 -222.933608 
L 285.375441 -222.881197 
L 290.492946 -222.831544 
L 295.610452 -222.784649 
L 300.727957 -222.740514 
L 305.845463 -222.699136 
L 310.962968 -222.660517 
L 316.080474 -222.624657 
L 321.197979 -222.591555 
L 326.315484 -222.561211 
L 331.43299 -222.533626 
L 336.550495 -222.5088 
L 341.668001 -222.486732 
L 346.785506 -222.467423 
L 351.903012 -222.450872 
L 357.020517 -222.437079 
L 362.138023 -222.426045 
L 367.255528 -222.41777 
L 372.373033 -222.412253 
L 377.490539 -222.409494 
L 382.608044 -222.409494 
L 387.72555 -222.409494 
L 392.843055 -222.409494 
L 397.960561 -222.409494 
L 403.078066 -222.409494 
L 408.195572 -222.409494 
L 413.313077 -222.409494 
L 418.430582 -222.409494 
L 423.548088 -222.409494 
L 428.665593 -222.409494 
L 433.783099 -222.409494 
L 433.783099 -249.111725 
L 433.783099 -249.111725 
L 428.665593 -249.111725 
L 423.548088 -249.111725 
L 418.430582 -249.111725 
L 413.313077 -249.111725 
L 408.195572 -249.111725 
L 403.078066 -249.111725 
L 397.960561 -249.111725 
L 392.843055 -249.111725 
L 387.72555 -249.111725 
L 382.608044 -249.111725 
L 377.490539 -249.111725 
L 372.373033 -249.114483 
L 367.255528 -249.12 
L 362.138023 -249.128275 
L 357.020517 -249.139309 
L 351.903012 -249.153102 
L 346.785506 -249.169653 
L 341.668001 -249.188962 
L 336.550495 -249.21103 
L 331.43299 -249.235857 
L 326.315484 -249.263442 
L 321.197979 -249.293785 
L 316.080474 -249.326887 
L 310.962968 -249.362748 
L 305.845463 -249.401366 
L 300.727957 -249.442744 
L 295.610452 -249.48688 
L 290.492946 -249.533774 
L 285.375441 -249.583427 
L 280.257935 -249.635839 
L 275.14043 -249.691008 
L 270.022925 -249.74342 
L 264.905419 -249.793073 
L 259.787914 -249.839967 
L 254.670408 -249.884103 
L 249.552903 -249.925481 
L 244.435397 -249.964099 
L 239.317892 -249.99996 
L 234.200386 -250.033062 
L 229.082881 -250.063405 
L 223.965376 -250.09099 
L 218.84787 -250.115817 
L 213.730365 -250.137885 
L 208.612859 -250.157194 
L 203.495354 -250.173745 
L 198.377848 -250.187538 
L 193.260343 -250.198571 
L 188.142837 -250.206847 
L 183.025332 -250.212364 
L 177.907827 -250.215122 
L 172.790321 -250.215122 
L 167.672816 -250.215122 
L 162.55531 -250.215122 
L 157.437805 -250.215122 
L 152.320299 -250.215122 
L 147.202794 -250.215122 
L 142.085288 -250.215122 
L 136.967783 -250.215122 
L 131.850277 -250.215122 
L 126.732772 -250.215122 
L 121.615267 -250.215122 
z
" style="stroke: #57d3db; stroke-opacity: 0.65"/>
    </defs>
    <g clip-path="url(#pfe2962f940)">
     <use xlink:href="#mc4b43562b9" x="0" y="280.512" style="fill: #57d3db; fill-opacity: 0.65; stroke: #57d3db; stroke-opacity: 0.65"/>
    </g>
   </g>
   <g id="PolyCollection_26">
    <defs>
     <path id="m5a7008ba3b" d="M 121.615267 -251.5392 
L 121.615267 -250.215122 
L 126.732772 -250.215122 
L 131.850277 -250.215122 
L 136.967783 -250.215122 
L 142.085288 -250.215122 
L 147.202794 -250.215122 
L 152.320299 -250.215122 
L 157.437805 -250.215122 
L 162.55531 -250.215122 
L 167.672816 -250.215122 
L 172.790321 -250.215122 
L 177.907827 -250.215122 
L 183.025332 -250.239314 
L 188.142837 -250.287698 
L 193.260343 -250.360274 
L 198.377848 -250.457042 
L 203.495354 -250.578002 
L 208.612859 -250.723154 
L 213.730365 -250.892498 
L 218.84787 -251.086034 
L 223.965376 -251.303762 
L 229.082881 -251.545682 
L 234.200386 -251.811794 
L 239.317892 -252.102098 
L 244.435397 -252.416594 
L 249.552903 -252.755282 
L 254.670408 -253.118162 
L 259.787914 -253.505234 
L 264.905419 -253.916498 
L 270.022925 -254.351954 
L 275.14043 -254.811602 
L 280.257935 -255.295442 
L 285.375441 -255.75509 
L 290.492946 -256.190546 
L 295.610452 -256.60181 
L 300.727957 -256.988882 
L 305.845463 -257.351762 
L 310.962968 -257.69045 
L 316.080474 -258.004946 
L 321.197979 -258.29525 
L 326.315484 -258.561362 
L 331.43299 -258.803282 
L 336.550495 -259.02101 
L 341.668001 -259.214546 
L 346.785506 -259.38389 
L 351.903012 -259.529042 
L 357.020517 -259.650002 
L 362.138023 -259.74677 
L 367.255528 -259.819346 
L 372.373033 -259.86773 
L 377.490539 -259.891922 
L 382.608044 -259.891922 
L 387.72555 -259.891922 
L 392.843055 -259.891922 
L 397.960561 -259.891922 
L 403.078066 -259.891922 
L 408.195572 -259.891922 
L 413.313077 -259.891922 
L 418.430582 -259.891922 
L 423.548088 -259.891922 
L 428.665593 -259.891922 
L 433.783099 -259.891922 
L 433.783099 -261.216 
L 433.783099 -261.216 
L 428.665593 -261.216 
L 423.548088 -261.216 
L 418.430582 -261.216 
L 413.313077 -261.216 
L 408.195572 -261.216 
L 403.078066 -261.216 
L 397.960561 -261.216 
L 392.843055 -261.216 
L 387.72555 -261.216 
L 382.608044 -261.216 
L 377.490539 -261.216 
L 372.373033 -261.191808 
L 367.255528 -261.143424 
L 362.138023 -261.070848 
L 357.020517 -260.97408 
L 351.903012 -260.85312 
L 346.785506 -260.707968 
L 341.668001 -260.538624 
L 336.550495 -260.345088 
L 331.43299 -260.12736 
L 326.315484 -259.88544 
L 321.197979 -259.619328 
L 316.080474 -259.329024 
L 310.962968 -259.014528 
L 305.845463 -258.67584 
L 300.727957 -258.31296 
L 295.610452 -257.925888 
L 290.492946 -257.514624 
L 285.375441 -257.079168 
L 280.257935 -256.61952 
L 275.14043 -256.13568 
L 270.022925 -255.676032 
L 264.905419 -255.240576 
L 259.787914 -254.829312 
L 254.670408 -254.44224 
L 249.552903 -254.07936 
L 244.435397 -253.740672 
L 239.317892 -253.426176 
L 234.200386 -253.135872 
L 229.082881 -252.86976 
L 223.965376 -252.62784 
L 218.84787 -252.410112 
L 213.730365 -252.216576 
L 208.612859 -252.047232 
L 203.495354 -251.90208 
L 198.377848 -251.78112 
L 193.260343 -251.684352 
L 188.142837 -251.611776 
L 183.025332 -251.563392 
L 177.907827 -251.5392 
L 172.790321 -251.5392 
L 167.672816 -251.5392 
L 162.55531 -251.5392 
L 157.437805 -251.5392 
L 152.320299 -251.5392 
L 147.202794 -251.5392 
L 142.085288 -251.5392 
L 136.967783 -251.5392 
L 131.850277 -251.5392 
L 126.732772 -251.5392 
L 121.615267 -251.5392 
z
" style="stroke: #57d3db; stroke-opacity: 0.65"/>
    </defs>
    <g clip-path="url(#pfe2962f940)">
     <use xlink:href="#m5a7008ba3b" x="0" y="280.512" style="fill: #57d3db; fill-opacity: 0.65; stroke: #57d3db; stroke-opacity: 0.65"/>
    </g>
   </g>
   <g id="text_1">
    <!-- Astrocytes -->
    <g transform="translate(52.2375 223.922655) scale(0.12 -0.12)">
     <defs>
      <path id="TimesNewRomanPS-BoldMT-41" d="M 2663 1206 
L 1166 1206 
L 988 794 
Q 900 588 900 453 
Q 900 275 1044 191 
Q 1128 141 1459 116 
L 1459 0 
L 50 0 
L 50 116 
Q 278 150 425 304 
Q 572 459 788 944 
L 2303 4325 
L 2363 4325 
L 3891 850 
Q 4109 356 4250 228 
Q 4356 131 4550 116 
L 4550 0 
L 2500 0 
L 2500 116 
L 2584 116 
Q 2831 116 2931 184 
Q 3000 234 3000 328 
Q 3000 384 2981 444 
Q 2975 472 2888 678 
L 2663 1206 
z
M 2556 1438 
L 1925 2897 
L 1275 1438 
L 2556 1438 
z
" transform="scale(0.015625)"/>
      <path id="TimesNewRomanPS-BoldMT-73" d="M 2063 3003 
L 2109 2006 
L 2003 2006 
Q 1813 2450 1608 2612 
Q 1403 2775 1200 2775 
Q 1072 2775 981 2689 
Q 891 2603 891 2491 
Q 891 2406 953 2328 
Q 1053 2200 1512 1889 
Q 1972 1578 2117 1361 
Q 2263 1144 2263 875 
Q 2263 631 2141 397 
Q 2019 163 1797 37 
Q 1575 -88 1306 -88 
Q 1097 -88 747 44 
Q 653 78 619 78 
Q 516 78 447 -78 
L 344 -78 
L 294 972 
L 400 972 
Q 541 559 786 353 
Q 1031 147 1250 147 
Q 1400 147 1495 239 
Q 1591 331 1591 463 
Q 1591 613 1497 722 
Q 1403 831 1078 1053 
Q 600 1384 459 1559 
Q 253 1816 253 2125 
Q 253 2463 486 2736 
Q 719 3009 1159 3009 
Q 1397 3009 1619 2894 
Q 1703 2847 1756 2847 
Q 1813 2847 1847 2870 
Q 1881 2894 1956 3003 
L 2063 3003 
z
" transform="scale(0.015625)"/>
      <path id="TimesNewRomanPS-BoldMT-74" d="M 1375 3991 
L 1375 2922 
L 2069 2922 
L 2069 2613 
L 1375 2613 
L 1375 809 
Q 1375 556 1398 482 
Q 1422 409 1481 364 
Q 1541 319 1591 319 
Q 1794 319 1975 628 
L 2069 559 
Q 1816 -41 1247 -41 
Q 969 -41 776 114 
Q 584 269 531 459 
Q 500 566 500 1034 
L 500 2613 
L 119 2613 
L 119 2722 
Q 513 3000 789 3306 
Q 1066 3613 1272 3991 
L 1375 3991 
z
" transform="scale(0.015625)"/>
      <path id="TimesNewRomanPS-BoldMT-72" d="M 1428 2922 
L 1428 2259 
Q 1719 2713 1937 2861 
Q 2156 3009 2359 3009 
Q 2534 3009 2639 2901 
Q 2744 2794 2744 2597 
Q 2744 2388 2642 2272 
Q 2541 2156 2397 2156 
Q 2231 2156 2109 2262 
Q 1988 2369 1966 2381 
Q 1934 2400 1894 2400 
Q 1803 2400 1722 2331 
Q 1594 2225 1528 2028 
Q 1428 1725 1428 1359 
L 1428 688 
L 1431 513 
Q 1431 334 1453 284 
Q 1491 200 1564 161 
Q 1638 122 1813 113 
L 1813 0 
L 234 0 
L 234 113 
Q 425 128 492 217 
Q 559 306 559 688 
L 559 2303 
Q 559 2553 534 2622 
Q 503 2709 443 2750 
Q 384 2791 234 2806 
L 234 2922 
L 1428 2922 
z
" transform="scale(0.015625)"/>
      <path id="TimesNewRomanPS-BoldMT-6f" d="M 1594 3009 
Q 1975 3009 2303 2812 
Q 2631 2616 2801 2253 
Q 2972 1891 2972 1459 
Q 2972 838 2656 419 
Q 2275 -88 1603 -88 
Q 944 -88 587 375 
Q 231 838 231 1447 
Q 231 2075 595 2542 
Q 959 3009 1594 3009 
z
M 1606 2788 
Q 1447 2788 1333 2667 
Q 1219 2547 1183 2192 
Q 1147 1838 1147 1206 
Q 1147 872 1191 581 
Q 1225 359 1337 243 
Q 1450 128 1594 128 
Q 1734 128 1828 206 
Q 1950 313 1991 503 
Q 2053 800 2053 1703 
Q 2053 2234 1993 2432 
Q 1934 2631 1819 2722 
Q 1738 2788 1606 2788 
z
" transform="scale(0.015625)"/>
      <path id="TimesNewRomanPS-BoldMT-63" d="M 2600 753 
L 2697 678 
Q 2491 291 2183 101 
Q 1875 -88 1528 -88 
Q 944 -88 594 353 
Q 244 794 244 1413 
Q 244 2009 563 2463 
Q 947 3009 1622 3009 
Q 2075 3009 2342 2781 
Q 2609 2553 2609 2272 
Q 2609 2094 2501 1987 
Q 2394 1881 2219 1881 
Q 2034 1881 1914 2003 
Q 1794 2125 1766 2438 
Q 1747 2634 1675 2713 
Q 1603 2791 1506 2791 
Q 1356 2791 1250 2631 
Q 1088 2391 1088 1894 
Q 1088 1481 1219 1104 
Q 1350 728 1578 544 
Q 1750 409 1984 409 
Q 2138 409 2275 481 
Q 2413 553 2600 753 
z
" transform="scale(0.015625)"/>
      <path id="TimesNewRomanPS-BoldMT-79" d="M 1556 -119 
L 613 2047 
Q 400 2538 298 2650 
Q 197 2763 53 2806 
L 53 2922 
L 1606 2922 
L 1606 2806 
Q 1453 2800 1390 2747 
Q 1328 2694 1328 2619 
Q 1328 2500 1484 2150 
L 1984 1006 
L 2325 1891 
Q 2509 2363 2509 2547 
Q 2509 2663 2432 2731 
Q 2356 2800 2163 2806 
L 2163 2922 
L 3141 2922 
L 3141 2806 
Q 2997 2791 2906 2695 
Q 2816 2600 2603 2047 
L 1769 -119 
Q 1453 -931 1300 -1119 
Q 1084 -1381 759 -1381 
Q 500 -1381 339 -1232 
Q 178 -1084 178 -875 
Q 178 -694 289 -575 
Q 400 -456 563 -456 
Q 719 -456 814 -556 
Q 909 -656 913 -866 
Q 916 -984 941 -1019 
Q 966 -1053 1013 -1053 
Q 1088 -1053 1172 -963 
Q 1297 -831 1466 -363 
L 1556 -119 
z
" transform="scale(0.015625)"/>
      <path id="TimesNewRomanPS-BoldMT-65" d="M 2691 1566 
L 1088 1566 
Q 1116 984 1397 647 
Q 1613 388 1916 388 
Q 2103 388 2256 492 
Q 2409 597 2584 869 
L 2691 800 
Q 2453 316 2165 114 
Q 1878 -88 1500 -88 
Q 850 -88 516 413 
Q 247 816 247 1413 
Q 247 2144 642 2576 
Q 1038 3009 1569 3009 
Q 2013 3009 2339 2645 
Q 2666 2281 2691 1566 
z
M 1922 1775 
Q 1922 2278 1867 2465 
Q 1813 2653 1697 2750 
Q 1631 2806 1522 2806 
Q 1359 2806 1256 2647 
Q 1072 2369 1072 1884 
L 1072 1775 
L 1922 1775 
z
" transform="scale(0.015625)"/>
     </defs>
     <use xlink:href="#TimesNewRomanPS-BoldMT-41"/>
     <use xlink:href="#TimesNewRomanPS-BoldMT-73" x="72.216797"/>
     <use xlink:href="#TimesNewRomanPS-BoldMT-74" x="111.132812"/>
     <use xlink:href="#TimesNewRomanPS-BoldMT-72" x="144.433594"/>
     <use xlink:href="#TimesNewRomanPS-BoldMT-6f" x="187.068359"/>
     <use xlink:href="#TimesNewRomanPS-BoldMT-63" x="237.068359"/>
     <use xlink:href="#TimesNewRomanPS-BoldMT-79" x="281.453125"/>
     <use xlink:href="#TimesNewRomanPS-BoldMT-74" x="331.453125"/>
     <use xlink:href="#TimesNewRomanPS-BoldMT-65" x="364.753906"/>
     <use xlink:href="#TimesNewRomanPS-BoldMT-73" x="409.138672"/>
    </g>
   </g>
   <g id="text_2">
    <!-- Endothelial Cells -->
    <g transform="translate(18.328125 165.736372) scale(0.12 -0.12)">
     <defs>
      <path id="TimesNewRomanPS-BoldMT-45" d="M 1744 3994 
L 1744 2269 
L 1828 2269 
Q 2231 2269 2412 2522 
Q 2594 2775 2644 3269 
L 2763 3269 
L 2763 1050 
L 2644 1050 
Q 2606 1413 2486 1644 
Q 2366 1875 2206 1954 
Q 2047 2034 1744 2034 
L 1744 841 
Q 1744 491 1773 412 
Q 1803 334 1884 284 
Q 1966 234 2147 234 
L 2400 234 
Q 2994 234 3351 509 
Q 3709 784 3866 1347 
L 3981 1347 
L 3791 0 
L 128 0 
L 128 116 
L 269 116 
Q 453 116 566 181 
Q 647 225 691 331 
Q 725 406 725 725 
L 725 3513 
Q 725 3800 709 3866 
Q 678 3975 594 4034 
Q 475 4122 269 4122 
L 128 4122 
L 128 4238 
L 3675 4238 
L 3675 2984 
L 3556 2984 
Q 3466 3444 3302 3644 
Q 3138 3844 2838 3938 
Q 2663 3994 2181 3994 
L 1744 3994 
z
" transform="scale(0.015625)"/>
      <path id="TimesNewRomanPS-BoldMT-6e" d="M 1409 2922 
L 1409 2544 
Q 1634 2788 1840 2898 
Q 2047 3009 2284 3009 
Q 2569 3009 2756 2851 
Q 2944 2694 3006 2459 
Q 3056 2281 3056 1775 
L 3056 638 
Q 3056 300 3117 217 
Q 3178 134 3372 113 
L 3372 0 
L 1894 0 
L 1894 113 
Q 2059 134 2131 250 
Q 2181 328 2181 638 
L 2181 1938 
Q 2181 2297 2153 2390 
Q 2125 2484 2058 2536 
Q 1991 2588 1909 2588 
Q 1641 2588 1409 2203 
L 1409 638 
Q 1409 309 1470 221 
Q 1531 134 1697 113 
L 1697 0 
L 219 0 
L 219 113 
Q 403 131 481 231 
Q 534 300 534 638 
L 534 2288 
Q 534 2619 473 2700 
Q 413 2781 219 2806 
L 219 2922 
L 1409 2922 
z
" transform="scale(0.015625)"/>
      <path id="TimesNewRomanPS-BoldMT-64" d="M 3056 4238 
L 3056 875 
Q 3056 534 3075 472 
Q 3100 369 3170 319 
Q 3241 269 3416 256 
L 3416 153 
L 2181 -88 
L 2181 375 
Q 1959 106 1786 9 
Q 1613 -88 1394 -88 
Q 834 -88 509 413 
Q 247 819 247 1409 
Q 247 1881 409 2254 
Q 572 2628 855 2818 
Q 1138 3009 1463 3009 
Q 1672 3009 1834 2928 
Q 1997 2847 2181 2644 
L 2181 3525 
Q 2181 3859 2153 3928 
Q 2116 4019 2041 4062 
Q 1966 4106 1759 4106 
L 1759 4238 
L 3056 4238 
z
M 2181 2256 
Q 1950 2700 1616 2700 
Q 1500 2700 1425 2638 
Q 1309 2541 1236 2297 
Q 1163 2053 1163 1550 
Q 1163 997 1244 731 
Q 1325 466 1466 347 
Q 1538 288 1663 288 
Q 1938 288 2181 719 
L 2181 2256 
z
" transform="scale(0.015625)"/>
      <path id="TimesNewRomanPS-BoldMT-68" d="M 1409 4238 
L 1409 2547 
Q 1650 2800 1850 2904 
Q 2050 3009 2266 3009 
Q 2541 3009 2736 2853 
Q 2931 2697 2995 2486 
Q 3059 2275 3059 1775 
L 3059 634 
Q 3059 300 3121 217 
Q 3184 134 3375 113 
L 3375 0 
L 1894 0 
L 1894 113 
Q 2050 134 2128 238 
Q 2184 319 2184 634 
L 2184 1938 
Q 2184 2300 2156 2392 
Q 2128 2484 2061 2536 
Q 1994 2588 1909 2588 
Q 1784 2588 1665 2502 
Q 1547 2416 1409 2200 
L 1409 634 
Q 1409 322 1456 244 
Q 1516 138 1700 113 
L 1700 0 
L 219 0 
L 219 113 
Q 403 131 481 231 
Q 534 300 534 634 
L 534 3603 
Q 534 3934 473 4015 
Q 413 4097 219 4122 
L 219 4238 
L 1409 4238 
z
" transform="scale(0.015625)"/>
      <path id="TimesNewRomanPS-BoldMT-6c" d="M 1359 4238 
L 1359 606 
Q 1359 297 1431 211 
Q 1503 125 1713 113 
L 1713 0 
L 134 0 
L 134 113 
Q 328 119 422 225 
Q 484 297 484 606 
L 484 3631 
Q 484 3938 412 4023 
Q 341 4109 134 4122 
L 134 4238 
L 1359 4238 
z
" transform="scale(0.015625)"/>
      <path id="TimesNewRomanPS-BoldMT-69" d="M 919 4338 
Q 1122 4338 1262 4195 
Q 1403 4053 1403 3853 
Q 1403 3653 1261 3512 
Q 1119 3372 919 3372 
Q 719 3372 578 3512 
Q 438 3653 438 3853 
Q 438 4053 578 4195 
Q 719 4338 919 4338 
z
M 1356 2922 
L 1356 606 
Q 1356 297 1428 211 
Q 1500 125 1709 113 
L 1709 0 
L 131 0 
L 131 113 
Q 325 119 419 225 
Q 481 297 481 606 
L 481 2313 
Q 481 2622 409 2708 
Q 338 2794 131 2806 
L 131 2922 
L 1356 2922 
z
" transform="scale(0.015625)"/>
      <path id="TimesNewRomanPS-BoldMT-61" d="M 1828 431 
Q 1294 -41 869 -41 
Q 619 -41 453 123 
Q 288 288 288 534 
Q 288 869 575 1136 
Q 863 1403 1828 1847 
L 1828 2141 
Q 1828 2472 1792 2558 
Q 1756 2644 1656 2708 
Q 1556 2772 1431 2772 
Q 1228 2772 1097 2681 
Q 1016 2625 1016 2550 
Q 1016 2484 1103 2388 
Q 1222 2253 1222 2128 
Q 1222 1975 1108 1867 
Q 994 1759 809 1759 
Q 613 1759 480 1878 
Q 347 1997 347 2156 
Q 347 2381 525 2586 
Q 703 2791 1022 2900 
Q 1341 3009 1684 3009 
Q 2100 3009 2342 2832 
Q 2584 2656 2656 2450 
Q 2700 2319 2700 1847 
L 2700 713 
Q 2700 513 2715 461 
Q 2731 409 2762 384 
Q 2794 359 2834 359 
Q 2916 359 3000 475 
L 3094 400 
Q 2938 169 2770 64 
Q 2603 -41 2391 -41 
Q 2141 -41 2000 76 
Q 1859 194 1828 431 
z
M 1828 659 
L 1828 1638 
Q 1450 1416 1266 1163 
Q 1144 994 1144 822 
Q 1144 678 1247 569 
Q 1325 484 1466 484 
Q 1622 484 1828 659 
z
" transform="scale(0.015625)"/>
      <path id="TimesNewRomanPS-BoldMT-20" transform="scale(0.015625)"/>
      <path id="TimesNewRomanPS-BoldMT-43" d="M 4272 4334 
L 4272 2866 
L 4150 2866 
Q 4013 3441 3638 3747 
Q 3263 4053 2788 4053 
Q 2391 4053 2059 3825 
Q 1728 3597 1575 3228 
Q 1378 2756 1378 2178 
Q 1378 1609 1522 1142 
Q 1666 675 1972 436 
Q 2278 197 2766 197 
Q 3166 197 3498 372 
Q 3831 547 4200 975 
L 4200 609 
Q 3844 238 3458 70 
Q 3072 -97 2556 -97 
Q 1878 -97 1351 175 
Q 825 447 539 956 
Q 253 1466 253 2041 
Q 253 2647 570 3190 
Q 888 3734 1427 4034 
Q 1966 4334 2572 4334 
Q 3019 4334 3516 4141 
Q 3803 4028 3881 4028 
Q 3981 4028 4054 4101 
Q 4128 4175 4150 4334 
L 4272 4334 
z
" transform="scale(0.015625)"/>
     </defs>
     <use xlink:href="#TimesNewRomanPS-BoldMT-45"/>
     <use xlink:href="#TimesNewRomanPS-BoldMT-6e" x="66.699219"/>
     <use xlink:href="#TimesNewRomanPS-BoldMT-64" x="122.314453"/>
     <use xlink:href="#TimesNewRomanPS-BoldMT-6f" x="177.929688"/>
     <use xlink:href="#TimesNewRomanPS-BoldMT-74" x="227.929688"/>
     <use xlink:href="#TimesNewRomanPS-BoldMT-68" x="261.230469"/>
     <use xlink:href="#TimesNewRomanPS-BoldMT-65" x="316.845703"/>
     <use xlink:href="#TimesNewRomanPS-BoldMT-6c" x="361.230469"/>
     <use xlink:href="#TimesNewRomanPS-BoldMT-69" x="389.013672"/>
     <use xlink:href="#TimesNewRomanPS-BoldMT-61" x="416.796875"/>
     <use xlink:href="#TimesNewRomanPS-BoldMT-6c" x="466.796875"/>
     <use xlink:href="#TimesNewRomanPS-BoldMT-20" x="494.580078"/>
     <use xlink:href="#TimesNewRomanPS-BoldMT-43" x="519.580078"/>
     <use xlink:href="#TimesNewRomanPS-BoldMT-65" x="591.796875"/>
     <use xlink:href="#TimesNewRomanPS-BoldMT-6c" x="636.181641"/>
     <use xlink:href="#TimesNewRomanPS-BoldMT-6c" x="663.964844"/>
     <use xlink:href="#TimesNewRomanPS-BoldMT-73" x="691.748047"/>
    </g>
   </g>
   <g id="text_3">
    <!-- Inhibitory Neurons -->
    <g transform="translate(7.2 116.750765) scale(0.12 -0.12)">
     <defs>
      <path id="TimesNewRomanPS-BoldMT-49" d="M 2344 116 
L 2344 0 
L 128 0 
L 128 116 
L 269 116 
Q 453 116 566 181 
Q 647 225 691 331 
Q 725 406 725 725 
L 725 3513 
Q 725 3838 690 3919 
Q 656 4000 551 4061 
Q 447 4122 269 4122 
L 128 4122 
L 128 4238 
L 2344 4238 
L 2344 4122 
L 2203 4122 
Q 2019 4122 1906 4056 
Q 1825 4013 1778 3906 
Q 1744 3831 1744 3513 
L 1744 725 
Q 1744 400 1780 319 
Q 1816 238 1920 177 
Q 2025 116 2203 116 
L 2344 116 
z
" transform="scale(0.015625)"/>
      <path id="TimesNewRomanPS-BoldMT-62" d="M 1347 4238 
L 1347 2628 
Q 1716 3009 2153 3009 
Q 2453 3009 2718 2832 
Q 2984 2656 3134 2331 
Q 3284 2006 3284 1581 
Q 3284 1103 3093 712 
Q 2903 322 2584 117 
Q 2266 -88 1856 -88 
Q 1619 -88 1434 -12 
Q 1250 63 1072 231 
L 588 -84 
L 481 -84 
L 481 3631 
Q 481 3884 459 3944 
Q 428 4031 361 4073 
Q 294 4116 134 4122 
L 134 4238 
L 1347 4238 
z
M 1347 2350 
L 1347 1050 
Q 1347 653 1366 544 
Q 1397 359 1515 245 
Q 1634 131 1819 131 
Q 1978 131 2092 222 
Q 2206 313 2282 581 
Q 2359 850 2359 1550 
Q 2359 2222 2191 2472 
Q 2069 2653 1863 2653 
Q 1594 2653 1347 2350 
z
" transform="scale(0.015625)"/>
      <path id="TimesNewRomanPS-BoldMT-4e" d="M 1594 4238 
L 3684 1609 
L 3684 3431 
Q 3684 3813 3575 3947 
Q 3425 4128 3072 4122 
L 3072 4238 
L 4472 4238 
L 4472 4122 
Q 4203 4088 4111 4033 
Q 4019 3978 3967 3854 
Q 3916 3731 3916 3431 
L 3916 -97 
L 3809 -97 
L 944 3431 
L 944 738 
Q 944 372 1111 244 
Q 1278 116 1494 116 
L 1594 116 
L 1594 0 
L 91 0 
L 91 116 
Q 441 119 578 259 
Q 716 400 716 738 
L 716 3728 
L 625 3841 
Q 491 4009 387 4062 
Q 284 4116 91 4122 
L 91 4238 
L 1594 4238 
z
" transform="scale(0.015625)"/>
      <path id="TimesNewRomanPS-BoldMT-75" d="M 3038 2922 
L 3038 634 
Q 3038 300 3100 217 
Q 3163 134 3353 113 
L 3353 0 
L 2163 0 
L 2163 391 
Q 1953 141 1743 26 
Q 1534 -88 1275 -88 
Q 1028 -88 836 64 
Q 644 216 578 419 
Q 513 622 513 1128 
L 513 2288 
Q 513 2619 452 2700 
Q 391 2781 197 2806 
L 197 2922 
L 1388 2922 
L 1388 925 
Q 1388 613 1417 522 
Q 1447 431 1511 384 
Q 1575 338 1659 338 
Q 1772 338 1863 397 
Q 1988 478 2163 725 
L 2163 2288 
Q 2163 2619 2102 2700 
Q 2041 2781 1847 2806 
L 1847 2922 
L 3038 2922 
z
" transform="scale(0.015625)"/>
     </defs>
     <use xlink:href="#TimesNewRomanPS-BoldMT-49"/>
     <use xlink:href="#TimesNewRomanPS-BoldMT-6e" x="38.916016"/>
     <use xlink:href="#TimesNewRomanPS-BoldMT-68" x="94.53125"/>
     <use xlink:href="#TimesNewRomanPS-BoldMT-69" x="150.146484"/>
     <use xlink:href="#TimesNewRomanPS-BoldMT-62" x="177.929688"/>
     <use xlink:href="#TimesNewRomanPS-BoldMT-69" x="233.544922"/>
     <use xlink:href="#TimesNewRomanPS-BoldMT-74" x="261.328125"/>
     <use xlink:href="#TimesNewRomanPS-BoldMT-6f" x="294.628906"/>
     <use xlink:href="#TimesNewRomanPS-BoldMT-72" x="344.628906"/>
     <use xlink:href="#TimesNewRomanPS-BoldMT-79" x="389.013672"/>
     <use xlink:href="#TimesNewRomanPS-BoldMT-20" x="439.013672"/>
     <use xlink:href="#TimesNewRomanPS-BoldMT-4e" x="464.013672"/>
     <use xlink:href="#TimesNewRomanPS-BoldMT-65" x="536.230469"/>
     <use xlink:href="#TimesNewRomanPS-BoldMT-75" x="580.615234"/>
     <use xlink:href="#TimesNewRomanPS-BoldMT-72" x="636.230469"/>
     <use xlink:href="#TimesNewRomanPS-BoldMT-6f" x="678.865234"/>
     <use xlink:href="#TimesNewRomanPS-BoldMT-6e" x="728.865234"/>
     <use xlink:href="#TimesNewRomanPS-BoldMT-73" x="784.480469"/>
    </g>
   </g>
   <g id="text_4">
    <!-- Microglia -->
    <g transform="translate(56.235 72.868629) scale(0.12 -0.12)">
     <defs>
      <path id="TimesNewRomanPS-BoldMT-4d" d="M 3050 1444 
L 4200 4238 
L 5925 4238 
L 5925 4122 
L 5788 4122 
Q 5600 4122 5488 4056 
Q 5409 4013 5363 3909 
Q 5328 3834 5328 3519 
L 5328 725 
Q 5328 400 5362 319 
Q 5397 238 5503 177 
Q 5609 116 5788 116 
L 5925 116 
L 5925 0 
L 3713 0 
L 3713 116 
L 3850 116 
Q 4038 116 4150 181 
Q 4228 225 4275 331 
Q 4309 406 4309 725 
L 4309 3866 
L 2684 0 
L 2609 0 
L 959 3838 
L 959 853 
Q 959 541 975 469 
Q 1016 313 1152 214 
Q 1288 116 1578 116 
L 1578 0 
L 128 0 
L 128 116 
L 172 116 
Q 313 113 434 161 
Q 556 209 618 290 
Q 681 372 716 519 
Q 722 553 722 838 
L 722 3519 
Q 722 3841 687 3920 
Q 653 4000 547 4061 
Q 441 4122 263 4122 
L 128 4122 
L 128 4238 
L 1859 4238 
L 3050 1444 
z
" transform="scale(0.015625)"/>
      <path id="TimesNewRomanPS-BoldMT-67" d="M 2091 2888 
L 3075 2888 
L 3075 2544 
L 2516 2544 
Q 2669 2391 2728 2266 
Q 2803 2097 2803 1913 
Q 2803 1600 2629 1370 
Q 2456 1141 2157 1011 
Q 1859 881 1628 881 
Q 1609 881 1253 897 
Q 1113 897 1017 805 
Q 922 713 922 584 
Q 922 472 1008 400 
Q 1094 328 1288 328 
L 1828 334 
Q 2484 334 2731 191 
Q 3084 -9 3084 -425 
Q 3084 -691 2921 -908 
Q 2759 -1125 2494 -1228 
Q 2091 -1381 1566 -1381 
Q 1172 -1381 847 -1304 
Q 522 -1228 381 -1092 
Q 241 -956 241 -806 
Q 241 -663 348 -548 
Q 456 -434 750 -356 
Q 344 -156 344 200 
Q 344 416 509 619 
Q 675 822 1034 972 
Q 616 1125 428 1375 
Q 241 1625 241 1953 
Q 241 2381 591 2695 
Q 941 3009 1491 3009 
Q 1781 3009 2091 2888 
z
M 1550 2816 
Q 1369 2816 1244 2633 
Q 1119 2450 1119 1875 
Q 1119 1409 1242 1236 
Q 1366 1063 1534 1063 
Q 1722 1063 1847 1234 
Q 1972 1406 1972 1903 
Q 1972 2463 1831 2666 
Q 1731 2816 1550 2816 
z
M 1366 -431 
Q 1047 -431 944 -484 
Q 766 -581 766 -747 
Q 766 -906 950 -1036 
Q 1134 -1166 1644 -1166 
Q 2078 -1166 2326 -1050 
Q 2575 -934 2575 -725 
Q 2575 -647 2528 -594 
Q 2444 -500 2273 -465 
Q 2103 -431 1366 -431 
z
" transform="scale(0.015625)"/>
     </defs>
     <use xlink:href="#TimesNewRomanPS-BoldMT-4d"/>
     <use xlink:href="#TimesNewRomanPS-BoldMT-69" x="94.384766"/>
     <use xlink:href="#TimesNewRomanPS-BoldMT-63" x="122.167969"/>
     <use xlink:href="#TimesNewRomanPS-BoldMT-72" x="166.552734"/>
     <use xlink:href="#TimesNewRomanPS-BoldMT-6f" x="209.1875"/>
     <use xlink:href="#TimesNewRomanPS-BoldMT-67" x="259.1875"/>
     <use xlink:href="#TimesNewRomanPS-BoldMT-6c" x="309.1875"/>
     <use xlink:href="#TimesNewRomanPS-BoldMT-69" x="336.970703"/>
     <use xlink:href="#TimesNewRomanPS-BoldMT-61" x="364.753906"/>
    </g>
   </g>
   <g id="text_5">
    <!-- Oligodendrocytes -->
    <g transform="translate(16.2225 45.868481) scale(0.12 -0.12)">
     <defs>
      <path id="TimesNewRomanPS-BoldMT-4f" d="M 2472 4297 
Q 3484 4334 4117 3706 
Q 4750 3078 4750 2134 
Q 4750 1328 4278 716 
Q 3653 -97 2513 -97 
Q 1369 -97 744 678 
Q 250 1291 250 2131 
Q 250 3075 892 3704 
Q 1534 4334 2472 4297 
z
M 2509 4097 
Q 1928 4097 1625 3503 
Q 1378 3016 1378 2103 
Q 1378 1019 1759 500 
Q 2025 138 2503 138 
Q 2825 138 3041 294 
Q 3316 494 3469 933 
Q 3622 1372 3622 2078 
Q 3622 2919 3465 3336 
Q 3309 3753 3067 3925 
Q 2825 4097 2509 4097 
z
" transform="scale(0.015625)"/>
     </defs>
     <use xlink:href="#TimesNewRomanPS-BoldMT-4f"/>
     <use xlink:href="#TimesNewRomanPS-BoldMT-6c" x="77.783203"/>
     <use xlink:href="#TimesNewRomanPS-BoldMT-69" x="105.566406"/>
     <use xlink:href="#TimesNewRomanPS-BoldMT-67" x="133.349609"/>
     <use xlink:href="#TimesNewRomanPS-BoldMT-6f" x="183.349609"/>
     <use xlink:href="#TimesNewRomanPS-BoldMT-64" x="233.349609"/>
     <use xlink:href="#TimesNewRomanPS-BoldMT-65" x="288.964844"/>
     <use xlink:href="#TimesNewRomanPS-BoldMT-6e" x="333.349609"/>
     <use xlink:href="#TimesNewRomanPS-BoldMT-64" x="388.964844"/>
     <use xlink:href="#TimesNewRomanPS-BoldMT-72" x="444.580078"/>
     <use xlink:href="#TimesNewRomanPS-BoldMT-6f" x="487.214844"/>
     <use xlink:href="#TimesNewRomanPS-BoldMT-63" x="537.214844"/>
     <use xlink:href="#TimesNewRomanPS-BoldMT-79" x="581.599609"/>
     <use xlink:href="#TimesNewRomanPS-BoldMT-74" x="631.599609"/>
     <use xlink:href="#TimesNewRomanPS-BoldMT-65" x="664.900391"/>
     <use xlink:href="#TimesNewRomanPS-BoldMT-73" x="709.285156"/>
    </g>
   </g>
   <g id="text_6">
    <!-- Astrocytes -->
    <g transform="translate(449.39149 224.915713) scale(0.12 -0.12)">
     <use xlink:href="#TimesNewRomanPS-BoldMT-41"/>
     <use xlink:href="#TimesNewRomanPS-BoldMT-73" x="72.216797"/>
     <use xlink:href="#TimesNewRomanPS-BoldMT-74" x="111.132812"/>
     <use xlink:href="#TimesNewRomanPS-BoldMT-72" x="144.433594"/>
     <use xlink:href="#TimesNewRomanPS-BoldMT-6f" x="187.068359"/>
     <use xlink:href="#TimesNewRomanPS-BoldMT-63" x="237.068359"/>
     <use xlink:href="#TimesNewRomanPS-BoldMT-79" x="281.453125"/>
     <use xlink:href="#TimesNewRomanPS-BoldMT-74" x="331.453125"/>
     <use xlink:href="#TimesNewRomanPS-BoldMT-65" x="364.753906"/>
     <use xlink:href="#TimesNewRomanPS-BoldMT-73" x="409.138672"/>
    </g>
   </g>
   <g id="text_7">
    <!-- Endothelial Cells -->
    <g transform="translate(449.39149 167.501809) scale(0.12 -0.12)">
     <use xlink:href="#TimesNewRomanPS-BoldMT-45"/>
     <use xlink:href="#TimesNewRomanPS-BoldMT-6e" x="66.699219"/>
     <use xlink:href="#TimesNewRomanPS-BoldMT-64" x="122.314453"/>
     <use xlink:href="#TimesNewRomanPS-BoldMT-6f" x="177.929688"/>
     <use xlink:href="#TimesNewRomanPS-BoldMT-74" x="227.929688"/>
     <use xlink:href="#TimesNewRomanPS-BoldMT-68" x="261.230469"/>
     <use xlink:href="#TimesNewRomanPS-BoldMT-65" x="316.845703"/>
     <use xlink:href="#TimesNewRomanPS-BoldMT-6c" x="361.230469"/>
     <use xlink:href="#TimesNewRomanPS-BoldMT-69" x="389.013672"/>
     <use xlink:href="#TimesNewRomanPS-BoldMT-61" x="416.796875"/>
     <use xlink:href="#TimesNewRomanPS-BoldMT-6c" x="466.796875"/>
     <use xlink:href="#TimesNewRomanPS-BoldMT-20" x="494.580078"/>
     <use xlink:href="#TimesNewRomanPS-BoldMT-43" x="519.580078"/>
     <use xlink:href="#TimesNewRomanPS-BoldMT-65" x="591.796875"/>
     <use xlink:href="#TimesNewRomanPS-BoldMT-6c" x="636.181641"/>
     <use xlink:href="#TimesNewRomanPS-BoldMT-6c" x="663.964844"/>
     <use xlink:href="#TimesNewRomanPS-BoldMT-73" x="691.748047"/>
    </g>
   </g>
   <g id="text_8">
    <!-- Excitatory Neurons -->
    <g transform="translate(449.39149 147.535568) scale(0.12 -0.12)">
     <defs>
      <path id="TimesNewRomanPS-BoldMT-78" d="M 1944 1791 
L 2450 828 
Q 2713 325 2866 191 
Q 2950 119 3097 113 
L 3097 0 
L 1469 0 
L 1469 113 
Q 1659 128 1704 162 
Q 1750 197 1750 256 
Q 1750 344 1650 531 
L 1397 1006 
L 1181 691 
Q 1034 475 1016 434 
Q 991 375 991 328 
Q 991 256 1020 207 
Q 1050 159 1101 136 
Q 1153 113 1291 113 
L 1291 0 
L 147 0 
L 147 113 
Q 359 113 536 230 
Q 713 347 1050 844 
L 1291 1200 
L 788 2131 
Q 541 2588 419 2691 
Q 297 2794 147 2806 
L 147 2922 
L 1766 2922 
L 1766 2806 
L 1681 2803 
L 1519 2747 
Q 1494 2725 1494 2675 
Q 1494 2628 1509 2578 
Q 1519 2556 1597 2409 
L 1825 1984 
L 1944 2153 
Q 2194 2497 2194 2634 
Q 2194 2700 2139 2745 
Q 2084 2791 1944 2806 
L 1944 2922 
L 2978 2922 
L 2978 2806 
Q 2788 2800 2622 2689 
Q 2456 2578 2250 2259 
L 1944 1791 
z
" transform="scale(0.015625)"/>
     </defs>
     <use xlink:href="#TimesNewRomanPS-BoldMT-45"/>
     <use xlink:href="#TimesNewRomanPS-BoldMT-78" x="66.699219"/>
     <use xlink:href="#TimesNewRomanPS-BoldMT-63" x="116.699219"/>
     <use xlink:href="#TimesNewRomanPS-BoldMT-69" x="161.083984"/>
     <use xlink:href="#TimesNewRomanPS-BoldMT-74" x="188.867188"/>
     <use xlink:href="#TimesNewRomanPS-BoldMT-61" x="222.167969"/>
     <use xlink:href="#TimesNewRomanPS-BoldMT-74" x="272.167969"/>
     <use xlink:href="#TimesNewRomanPS-BoldMT-6f" x="305.46875"/>
     <use xlink:href="#TimesNewRomanPS-BoldMT-72" x="355.46875"/>
     <use xlink:href="#TimesNewRomanPS-BoldMT-79" x="399.853516"/>
     <use xlink:href="#TimesNewRomanPS-BoldMT-20" x="449.853516"/>
     <use xlink:href="#TimesNewRomanPS-BoldMT-4e" x="474.853516"/>
     <use xlink:href="#TimesNewRomanPS-BoldMT-65" x="547.070312"/>
     <use xlink:href="#TimesNewRomanPS-BoldMT-75" x="591.455078"/>
     <use xlink:href="#TimesNewRomanPS-BoldMT-72" x="647.070312"/>
     <use xlink:href="#TimesNewRomanPS-BoldMT-6f" x="689.705078"/>
     <use xlink:href="#TimesNewRomanPS-BoldMT-6e" x="739.705078"/>
     <use xlink:href="#TimesNewRomanPS-BoldMT-73" x="795.320312"/>
    </g>
   </g>
   <g id="text_9">
    <!-- Inhibitory Neurons -->
    <g transform="translate(449.39149 103.322412) scale(0.12 -0.12)">
     <use xlink:href="#TimesNewRomanPS-BoldMT-49"/>
     <use xlink:href="#TimesNewRomanPS-BoldMT-6e" x="38.916016"/>
     <use xlink:href="#TimesNewRomanPS-BoldMT-68" x="94.53125"/>
     <use xlink:href="#TimesNewRomanPS-BoldMT-69" x="150.146484"/>
     <use xlink:href="#TimesNewRomanPS-BoldMT-62" x="177.929688"/>
     <use xlink:href="#TimesNewRomanPS-BoldMT-69" x="233.544922"/>
     <use xlink:href="#TimesNewRomanPS-BoldMT-74" x="261.328125"/>
     <use xlink:href="#TimesNewRomanPS-BoldMT-6f" x="294.628906"/>
     <use xlink:href="#TimesNewRomanPS-BoldMT-72" x="344.628906"/>
     <use xlink:href="#TimesNewRomanPS-BoldMT-79" x="389.013672"/>
     <use xlink:href="#TimesNewRomanPS-BoldMT-20" x="439.013672"/>
     <use xlink:href="#TimesNewRomanPS-BoldMT-4e" x="464.013672"/>
     <use xlink:href="#TimesNewRomanPS-BoldMT-65" x="536.230469"/>
     <use xlink:href="#TimesNewRomanPS-BoldMT-75" x="580.615234"/>
     <use xlink:href="#TimesNewRomanPS-BoldMT-72" x="636.230469"/>
     <use xlink:href="#TimesNewRomanPS-BoldMT-6f" x="678.865234"/>
     <use xlink:href="#TimesNewRomanPS-BoldMT-6e" x="728.865234"/>
     <use xlink:href="#TimesNewRomanPS-BoldMT-73" x="784.480469"/>
    </g>
   </g>
   <g id="text_10">
    <!-- Microglia -->
    <g transform="translate(449.39149 47.523578) scale(0.12 -0.12)">
     <use xlink:href="#TimesNewRomanPS-BoldMT-4d"/>
     <use xlink:href="#TimesNewRomanPS-BoldMT-69" x="94.384766"/>
     <use xlink:href="#TimesNewRomanPS-BoldMT-63" x="122.167969"/>
     <use xlink:href="#TimesNewRomanPS-BoldMT-72" x="166.552734"/>
     <use xlink:href="#TimesNewRomanPS-BoldMT-6f" x="209.1875"/>
     <use xlink:href="#TimesNewRomanPS-BoldMT-67" x="259.1875"/>
     <use xlink:href="#TimesNewRomanPS-BoldMT-6c" x="309.1875"/>
     <use xlink:href="#TimesNewRomanPS-BoldMT-69" x="336.970703"/>
     <use xlink:href="#TimesNewRomanPS-BoldMT-61" x="364.753906"/>
    </g>
   </g>
   <g id="text_11">
    <!-- Oligodendrocytes -->
    <g transform="translate(449.39149 23.281925) scale(0.12 -0.12)">
     <use xlink:href="#TimesNewRomanPS-BoldMT-4f"/>
     <use xlink:href="#TimesNewRomanPS-BoldMT-6c" x="77.783203"/>
     <use xlink:href="#TimesNewRomanPS-BoldMT-69" x="105.566406"/>
     <use xlink:href="#TimesNewRomanPS-BoldMT-67" x="133.349609"/>
     <use xlink:href="#TimesNewRomanPS-BoldMT-6f" x="183.349609"/>
     <use xlink:href="#TimesNewRomanPS-BoldMT-64" x="233.349609"/>
     <use xlink:href="#TimesNewRomanPS-BoldMT-65" x="288.964844"/>
     <use xlink:href="#TimesNewRomanPS-BoldMT-6e" x="333.349609"/>
     <use xlink:href="#TimesNewRomanPS-BoldMT-64" x="388.964844"/>
     <use xlink:href="#TimesNewRomanPS-BoldMT-72" x="444.580078"/>
     <use xlink:href="#TimesNewRomanPS-BoldMT-6f" x="487.214844"/>
     <use xlink:href="#TimesNewRomanPS-BoldMT-63" x="537.214844"/>
     <use xlink:href="#TimesNewRomanPS-BoldMT-79" x="581.599609"/>
     <use xlink:href="#TimesNewRomanPS-BoldMT-74" x="631.599609"/>
     <use xlink:href="#TimesNewRomanPS-BoldMT-65" x="664.900391"/>
     <use xlink:href="#TimesNewRomanPS-BoldMT-73" x="709.285156"/>
    </g>
   </g>
  </g>
 </g>
 <defs>
  <clipPath id="pfe2962f940">
   <rect x="99.139183" y="7.2" width="357.12" height="266.112"/>
  </clipPath>
 </defs>
</svg>
